G04 #@! TF.GenerationSoftware,KiCad,Pcbnew,(5.0.2)-1*
G04 #@! TF.CreationDate,2019-03-30T19:47:43+05:30*
G04 #@! TF.ProjectId,ErgodoxBle,4572676f-646f-4784-926c-652e6b696361,rev?*
G04 #@! TF.SameCoordinates,Original*
G04 #@! TF.FileFunction,Legend,Bot*
G04 #@! TF.FilePolarity,Positive*
%FSLAX46Y46*%
G04 Gerber Fmt 4.6, Leading zero omitted, Abs format (unit mm)*
G04 Created by KiCad (PCBNEW (5.0.2)-1) date 3/30/2019 7:47:43 PM*
%MOMM*%
%LPD*%
G01*
G04 APERTURE LIST*
%ADD10C,0.304800*%
%ADD11C,0.508000*%
%ADD12C,0.381000*%
%ADD13C,0.150000*%
%ADD14C,0.120000*%
%ADD15C,0.010000*%
G04 APERTURE END LIST*
D10*
X68672165Y-48770298D02*
X68164165Y-50802298D01*
X67656165Y-48770298D01*
X66349880Y-50802298D02*
X67220737Y-50802298D01*
X66785308Y-50802298D02*
X66785308Y-48770298D01*
X66930451Y-49060583D01*
X67075594Y-49254107D01*
X67220737Y-49350869D01*
X65696737Y-50608774D02*
X65624165Y-50705536D01*
X65696737Y-50802298D01*
X65769308Y-50705536D01*
X65696737Y-50608774D01*
X65696737Y-50802298D01*
X65043594Y-48963821D02*
X64971022Y-48867060D01*
X64825880Y-48770298D01*
X64463022Y-48770298D01*
X64317880Y-48867060D01*
X64245308Y-48963821D01*
X64172737Y-49157345D01*
X64172737Y-49350869D01*
X64245308Y-49641155D01*
X65116165Y-50802298D01*
X64172737Y-50802298D01*
X200753738Y-36246888D02*
X198721738Y-36246888D01*
X198721738Y-36609745D01*
X198818500Y-36827460D01*
X199012023Y-36972602D01*
X199205547Y-37045174D01*
X199592595Y-37117745D01*
X199882880Y-37117745D01*
X200269928Y-37045174D01*
X200463452Y-36972602D01*
X200656976Y-36827460D01*
X200753738Y-36609745D01*
X200753738Y-36246888D01*
X199979642Y-37770888D02*
X199979642Y-38932031D01*
X200705478Y-40305808D02*
X198673478Y-40305808D01*
X198673478Y-40668665D01*
X198770240Y-40886380D01*
X198963763Y-41031522D01*
X199157287Y-41104094D01*
X199544335Y-41176665D01*
X199834620Y-41176665D01*
X200221668Y-41104094D01*
X200415192Y-41031522D01*
X200608716Y-40886380D01*
X200705478Y-40668665D01*
X200705478Y-40305808D01*
X199931382Y-41829808D02*
X199931382Y-42990951D01*
X200705478Y-42410380D02*
X199157287Y-42410380D01*
D11*
X75960514Y-99803857D02*
X77170038Y-99803857D01*
X77170038Y-96755857D01*
X75113847Y-98207285D02*
X74267180Y-98207285D01*
X73904323Y-99803857D02*
X75113847Y-99803857D01*
X75113847Y-96755857D01*
X73904323Y-96755857D01*
X71969085Y-98207285D02*
X72815752Y-98207285D01*
X72815752Y-99803857D02*
X72815752Y-96755857D01*
X71606228Y-96755857D01*
X71001466Y-96755857D02*
X69550038Y-96755857D01*
X70275752Y-99803857D02*
X70275752Y-96755857D01*
X77170038Y-104883857D02*
X77170038Y-101835857D01*
X77170038Y-103287285D02*
X75718609Y-103287285D01*
X75718609Y-104883857D02*
X75718609Y-101835857D01*
X74630038Y-104013000D02*
X73420514Y-104013000D01*
X74871942Y-104883857D02*
X74025276Y-101835857D01*
X73178609Y-104883857D01*
X72331942Y-104883857D02*
X72331942Y-101835857D01*
X70880514Y-104883857D01*
X70880514Y-101835857D01*
X69670990Y-104883857D02*
X69670990Y-101835857D01*
X69066228Y-101835857D01*
X68703371Y-101981000D01*
X68461466Y-102271285D01*
X68340514Y-102561571D01*
X68219561Y-103142142D01*
X68219561Y-103577571D01*
X68340514Y-104158142D01*
X68461466Y-104448428D01*
X68703371Y-104738714D01*
X69066228Y-104883857D01*
X69670990Y-104883857D01*
D10*
X190701022Y-52788457D02*
X191209022Y-52788457D01*
X191209022Y-53852838D02*
X191209022Y-51820838D01*
X190483308Y-51820838D01*
X189031880Y-53852838D02*
X189539880Y-52885219D01*
X189902737Y-53852838D02*
X189902737Y-51820838D01*
X189322165Y-51820838D01*
X189177022Y-51917600D01*
X189104451Y-52014361D01*
X189031880Y-52207885D01*
X189031880Y-52498171D01*
X189104451Y-52691695D01*
X189177022Y-52788457D01*
X189322165Y-52885219D01*
X189902737Y-52885219D01*
X187725594Y-52498171D02*
X187725594Y-53852838D01*
X188088451Y-51724076D02*
X188451308Y-53175504D01*
X187507880Y-53175504D01*
X185983880Y-51820838D02*
X185113022Y-51820838D01*
X185548451Y-53852838D02*
X185548451Y-51820838D01*
X183951880Y-52498171D02*
X183951880Y-54143123D01*
X184024451Y-54336647D01*
X184097022Y-54433409D01*
X184242165Y-54530171D01*
X184459880Y-54530171D01*
X184605022Y-54433409D01*
X183951880Y-53756076D02*
X184097022Y-53852838D01*
X184387308Y-53852838D01*
X184532451Y-53756076D01*
X184605022Y-53659314D01*
X184677594Y-53465790D01*
X184677594Y-52885219D01*
X184605022Y-52691695D01*
X184532451Y-52594933D01*
X184387308Y-52498171D01*
X184097022Y-52498171D01*
X183951880Y-52594933D01*
X182427880Y-53852838D02*
X183298737Y-53852838D01*
X182863308Y-53852838D02*
X182863308Y-51820838D01*
X183008451Y-52111123D01*
X183153594Y-52304647D01*
X183298737Y-52401409D01*
X181919880Y-51820838D02*
X180903880Y-51820838D01*
X181557022Y-53852838D01*
X180033022Y-51820838D02*
X179887880Y-51820838D01*
X179742737Y-51917600D01*
X179670165Y-52014361D01*
X179597594Y-52207885D01*
X179525022Y-52594933D01*
X179525022Y-53078742D01*
X179597594Y-53465790D01*
X179670165Y-53659314D01*
X179742737Y-53756076D01*
X179887880Y-53852838D01*
X180033022Y-53852838D01*
X180178165Y-53756076D01*
X180250737Y-53659314D01*
X180323308Y-53465790D01*
X180395880Y-53078742D01*
X180395880Y-52594933D01*
X180323308Y-52207885D01*
X180250737Y-52014361D01*
X180178165Y-51917600D01*
X180033022Y-51820838D01*
X178654165Y-51820838D02*
X178799308Y-51917600D01*
X178871880Y-52111123D01*
X178799308Y-52304647D01*
X178654165Y-52401409D01*
X178509022Y-52304647D01*
X178436451Y-52111123D01*
X178509022Y-51917600D01*
X178654165Y-51820838D01*
X175823880Y-53852838D02*
X176549594Y-53852838D01*
X176549594Y-51820838D01*
X174662737Y-53852838D02*
X174662737Y-52788457D01*
X174735308Y-52594933D01*
X174880451Y-52498171D01*
X175170737Y-52498171D01*
X175315880Y-52594933D01*
X174662737Y-53756076D02*
X174807880Y-53852838D01*
X175170737Y-53852838D01*
X175315880Y-53756076D01*
X175388451Y-53562552D01*
X175388451Y-53369028D01*
X175315880Y-53175504D01*
X175170737Y-53078742D01*
X174807880Y-53078742D01*
X174662737Y-52981980D01*
X173937022Y-53852838D02*
X173937022Y-52498171D01*
X173937022Y-52691695D02*
X173864451Y-52594933D01*
X173719308Y-52498171D01*
X173501594Y-52498171D01*
X173356451Y-52594933D01*
X173283880Y-52788457D01*
X173283880Y-53852838D01*
X173283880Y-52788457D02*
X173211308Y-52594933D01*
X173066165Y-52498171D01*
X172848451Y-52498171D01*
X172703308Y-52594933D01*
X172630737Y-52788457D01*
X172630737Y-53852838D01*
X171905022Y-53852838D02*
X171905022Y-52498171D01*
X171905022Y-51820838D02*
X171977594Y-51917600D01*
X171905022Y-52014361D01*
X171832451Y-51917600D01*
X171905022Y-51820838D01*
X171905022Y-52014361D01*
X171179308Y-52498171D02*
X171179308Y-53852838D01*
X171179308Y-52691695D02*
X171106737Y-52594933D01*
X170961594Y-52498171D01*
X170743880Y-52498171D01*
X170598737Y-52594933D01*
X170526165Y-52788457D01*
X170526165Y-53852838D01*
X169147308Y-53852838D02*
X169147308Y-52788457D01*
X169219880Y-52594933D01*
X169365022Y-52498171D01*
X169655308Y-52498171D01*
X169800451Y-52594933D01*
X169147308Y-53756076D02*
X169292451Y-53852838D01*
X169655308Y-53852838D01*
X169800451Y-53756076D01*
X169873022Y-53562552D01*
X169873022Y-53369028D01*
X169800451Y-53175504D01*
X169655308Y-53078742D01*
X169292451Y-53078742D01*
X169147308Y-52981980D01*
X168639308Y-52498171D02*
X168058737Y-52498171D01*
X168421594Y-51820838D02*
X168421594Y-53562552D01*
X168349022Y-53756076D01*
X168203880Y-53852838D01*
X168058737Y-53852838D01*
X166970165Y-53756076D02*
X167115308Y-53852838D01*
X167405594Y-53852838D01*
X167550737Y-53756076D01*
X167623308Y-53562552D01*
X167623308Y-52788457D01*
X167550737Y-52594933D01*
X167405594Y-52498171D01*
X167115308Y-52498171D01*
X166970165Y-52594933D01*
X166897594Y-52788457D01*
X166897594Y-52981980D01*
X167623308Y-53175504D01*
X191281594Y-55367161D02*
X191209022Y-55270400D01*
X191063880Y-55173638D01*
X190701022Y-55173638D01*
X190555880Y-55270400D01*
X190483308Y-55367161D01*
X190410737Y-55560685D01*
X190410737Y-55754209D01*
X190483308Y-56044495D01*
X191354165Y-57205638D01*
X190410737Y-57205638D01*
X189104451Y-55850971D02*
X189104451Y-57205638D01*
X189467308Y-55076876D02*
X189830165Y-56528304D01*
X188886737Y-56528304D01*
X188306165Y-57205638D02*
X188306165Y-55850971D01*
X188306165Y-56044495D02*
X188233594Y-55947733D01*
X188088451Y-55850971D01*
X187870737Y-55850971D01*
X187725594Y-55947733D01*
X187653022Y-56141257D01*
X187653022Y-57205638D01*
X187653022Y-56141257D02*
X187580451Y-55947733D01*
X187435308Y-55850971D01*
X187217594Y-55850971D01*
X187072451Y-55947733D01*
X186999880Y-56141257D01*
X186999880Y-57205638D01*
X186274165Y-57205638D02*
X186274165Y-55850971D01*
X186274165Y-55173638D02*
X186346737Y-55270400D01*
X186274165Y-55367161D01*
X186201594Y-55270400D01*
X186274165Y-55173638D01*
X186274165Y-55367161D01*
X185330737Y-57205638D02*
X185475880Y-57108876D01*
X185548451Y-56915352D01*
X185548451Y-55173638D01*
X183806737Y-55850971D02*
X183226165Y-55850971D01*
X183589022Y-55173638D02*
X183589022Y-56915352D01*
X183516451Y-57108876D01*
X183371308Y-57205638D01*
X183226165Y-57205638D01*
X182718165Y-57205638D02*
X182718165Y-55850971D01*
X182718165Y-56238019D02*
X182645594Y-56044495D01*
X182573022Y-55947733D01*
X182427880Y-55850971D01*
X182282737Y-55850971D01*
X181121594Y-57205638D02*
X181121594Y-56141257D01*
X181194165Y-55947733D01*
X181339308Y-55850971D01*
X181629594Y-55850971D01*
X181774737Y-55947733D01*
X181121594Y-57108876D02*
X181266737Y-57205638D01*
X181629594Y-57205638D01*
X181774737Y-57108876D01*
X181847308Y-56915352D01*
X181847308Y-56721828D01*
X181774737Y-56528304D01*
X181629594Y-56431542D01*
X181266737Y-56431542D01*
X181121594Y-56334780D01*
X179742737Y-57108876D02*
X179887880Y-57205638D01*
X180178165Y-57205638D01*
X180323308Y-57108876D01*
X180395880Y-57012114D01*
X180468451Y-56818590D01*
X180468451Y-56238019D01*
X180395880Y-56044495D01*
X180323308Y-55947733D01*
X180178165Y-55850971D01*
X179887880Y-55850971D01*
X179742737Y-55947733D01*
X178509022Y-57108876D02*
X178654165Y-57205638D01*
X178944451Y-57205638D01*
X179089594Y-57108876D01*
X179162165Y-56915352D01*
X179162165Y-56141257D01*
X179089594Y-55947733D01*
X178944451Y-55850971D01*
X178654165Y-55850971D01*
X178509022Y-55947733D01*
X178436451Y-56141257D01*
X178436451Y-56334780D01*
X179162165Y-56528304D01*
X177855880Y-57108876D02*
X177710737Y-57205638D01*
X177420451Y-57205638D01*
X177275308Y-57108876D01*
X177202737Y-56915352D01*
X177202737Y-56818590D01*
X177275308Y-56625066D01*
X177420451Y-56528304D01*
X177638165Y-56528304D01*
X177783308Y-56431542D01*
X177855880Y-56238019D01*
X177855880Y-56141257D01*
X177783308Y-55947733D01*
X177638165Y-55850971D01*
X177420451Y-55850971D01*
X177275308Y-55947733D01*
X175170737Y-57205638D02*
X175315880Y-57108876D01*
X175388451Y-57012114D01*
X175461022Y-56818590D01*
X175461022Y-56238019D01*
X175388451Y-56044495D01*
X175315880Y-55947733D01*
X175170737Y-55850971D01*
X174953022Y-55850971D01*
X174807880Y-55947733D01*
X174735308Y-56044495D01*
X174662737Y-56238019D01*
X174662737Y-56818590D01*
X174735308Y-57012114D01*
X174807880Y-57108876D01*
X174953022Y-57205638D01*
X175170737Y-57205638D01*
X174009594Y-55850971D02*
X174009594Y-57205638D01*
X174009594Y-56044495D02*
X173937022Y-55947733D01*
X173791880Y-55850971D01*
X173574165Y-55850971D01*
X173429022Y-55947733D01*
X173356451Y-56141257D01*
X173356451Y-57205638D01*
X170671308Y-57205638D02*
X171542165Y-57205638D01*
X171106737Y-57205638D02*
X171106737Y-55173638D01*
X171251880Y-55463923D01*
X171397022Y-55657447D01*
X171542165Y-55754209D01*
X169800451Y-57205638D02*
X169945594Y-57108876D01*
X170018165Y-57012114D01*
X170090737Y-56818590D01*
X170090737Y-56238019D01*
X170018165Y-56044495D01*
X169945594Y-55947733D01*
X169800451Y-55850971D01*
X169582737Y-55850971D01*
X169437594Y-55947733D01*
X169365022Y-56044495D01*
X169292451Y-56238019D01*
X169292451Y-56818590D01*
X169365022Y-57012114D01*
X169437594Y-57108876D01*
X169582737Y-57205638D01*
X169800451Y-57205638D01*
X168784451Y-55850971D02*
X167986165Y-55850971D01*
X168784451Y-57205638D01*
X167986165Y-57205638D01*
X165591308Y-57108876D02*
X165736451Y-57205638D01*
X166026737Y-57205638D01*
X166171880Y-57108876D01*
X166244451Y-57012114D01*
X166317022Y-56818590D01*
X166317022Y-56238019D01*
X166244451Y-56044495D01*
X166171880Y-55947733D01*
X166026737Y-55850971D01*
X165736451Y-55850971D01*
X165591308Y-55947733D01*
X164720451Y-57205638D02*
X164865594Y-57108876D01*
X164938165Y-57012114D01*
X165010737Y-56818590D01*
X165010737Y-56238019D01*
X164938165Y-56044495D01*
X164865594Y-55947733D01*
X164720451Y-55850971D01*
X164502737Y-55850971D01*
X164357594Y-55947733D01*
X164285022Y-56044495D01*
X164212451Y-56238019D01*
X164212451Y-56818590D01*
X164285022Y-57012114D01*
X164357594Y-57108876D01*
X164502737Y-57205638D01*
X164720451Y-57205638D01*
X163559308Y-55850971D02*
X163559308Y-57882971D01*
X163559308Y-55947733D02*
X163414165Y-55850971D01*
X163123880Y-55850971D01*
X162978737Y-55947733D01*
X162906165Y-56044495D01*
X162833594Y-56238019D01*
X162833594Y-56818590D01*
X162906165Y-57012114D01*
X162978737Y-57108876D01*
X163123880Y-57205638D01*
X163414165Y-57205638D01*
X163559308Y-57108876D01*
X162180451Y-55850971D02*
X162180451Y-57882971D01*
X162180451Y-55947733D02*
X162035308Y-55850971D01*
X161745022Y-55850971D01*
X161599880Y-55947733D01*
X161527308Y-56044495D01*
X161454737Y-56238019D01*
X161454737Y-56818590D01*
X161527308Y-57012114D01*
X161599880Y-57108876D01*
X161745022Y-57205638D01*
X162035308Y-57205638D01*
X162180451Y-57108876D01*
X160221022Y-57108876D02*
X160366165Y-57205638D01*
X160656451Y-57205638D01*
X160801594Y-57108876D01*
X160874165Y-56915352D01*
X160874165Y-56141257D01*
X160801594Y-55947733D01*
X160656451Y-55850971D01*
X160366165Y-55850971D01*
X160221022Y-55947733D01*
X160148451Y-56141257D01*
X160148451Y-56334780D01*
X160874165Y-56528304D01*
X159495308Y-57205638D02*
X159495308Y-55850971D01*
X159495308Y-56238019D02*
X159422737Y-56044495D01*
X159350165Y-55947733D01*
X159205022Y-55850971D01*
X159059880Y-55850971D01*
D12*
G04 #@! TO.C,proMicro1*
X190096140Y-36548060D02*
X190096140Y-34008060D01*
X192636140Y-36548060D02*
X190096140Y-36548060D01*
D13*
G36*
X186347110Y-48942695D02*
X186247110Y-48942695D01*
X186247110Y-49042695D01*
X186347110Y-49042695D01*
X186347110Y-48942695D01*
G37*
X186347110Y-48942695D02*
X186247110Y-48942695D01*
X186247110Y-49042695D01*
X186347110Y-49042695D01*
X186347110Y-48942695D01*
G36*
X186747110Y-49142695D02*
X185947110Y-49142695D01*
X185947110Y-49242695D01*
X186747110Y-49242695D01*
X186747110Y-49142695D01*
G37*
X186747110Y-49142695D02*
X185947110Y-49142695D01*
X185947110Y-49242695D01*
X186747110Y-49242695D01*
X186747110Y-49142695D01*
G36*
X186147110Y-48742695D02*
X185947110Y-48742695D01*
X185947110Y-48842695D01*
X186147110Y-48842695D01*
X186147110Y-48742695D01*
G37*
X186147110Y-48742695D02*
X185947110Y-48742695D01*
X185947110Y-48842695D01*
X186147110Y-48842695D01*
X186147110Y-48742695D01*
G36*
X186747110Y-48742695D02*
X186447110Y-48742695D01*
X186447110Y-48842695D01*
X186747110Y-48842695D01*
X186747110Y-48742695D01*
G37*
X186747110Y-48742695D02*
X186447110Y-48742695D01*
X186447110Y-48842695D01*
X186747110Y-48842695D01*
X186747110Y-48742695D01*
G36*
X186747110Y-48742695D02*
X186647110Y-48742695D01*
X186647110Y-49242695D01*
X186747110Y-49242695D01*
X186747110Y-48742695D01*
G37*
X186747110Y-48742695D02*
X186647110Y-48742695D01*
X186647110Y-49242695D01*
X186747110Y-49242695D01*
X186747110Y-48742695D01*
D12*
X162156140Y-51788060D02*
X195176140Y-51788060D01*
X162156140Y-34008060D02*
X162156140Y-51788060D01*
X195176140Y-34008060D02*
X162156140Y-34008060D01*
X195176140Y-51788060D02*
X195176140Y-34008060D01*
X192636140Y-36548060D02*
X192636140Y-34008060D01*
D14*
G04 #@! TO.C,U_VR_IC1*
X122793840Y-46523960D02*
X122793840Y-45263960D01*
X122793840Y-39703960D02*
X122793840Y-40963960D01*
X126553840Y-46523960D02*
X122793840Y-46523960D01*
X128803840Y-39703960D02*
X122793840Y-39703960D01*
G04 #@! TO.C,J_Audio_F1*
X83115220Y-40177180D02*
X81715220Y-40177180D01*
X83115220Y-41727180D02*
X81715220Y-41727180D01*
X89315220Y-41277180D02*
X89315220Y-30752180D01*
X83115220Y-41727180D02*
X83115220Y-42852180D01*
X83115220Y-37777180D02*
X83115220Y-40177180D01*
X83115220Y-34777180D02*
X83115220Y-36127180D01*
X83115220Y-30752180D02*
X83115220Y-33127180D01*
X89315220Y-42852180D02*
X83115220Y-42852180D01*
X83115220Y-30752180D02*
X83715220Y-30752180D01*
X88715220Y-30752180D02*
X89315220Y-30752180D01*
X83715220Y-28752180D02*
X88715220Y-28752180D01*
X83715220Y-30752180D02*
X83715220Y-28752180D01*
X88715220Y-30752180D02*
X88715220Y-28752180D01*
D15*
G04 #@! TO.C,G\002A\002A\002A*
G36*
X95953181Y-46022870D02*
X95910641Y-46096811D01*
X96020179Y-46200422D01*
X96268215Y-46317647D01*
X96499269Y-46394117D01*
X96726746Y-46468382D01*
X96921524Y-46561061D01*
X97099521Y-46693824D01*
X97276656Y-46888337D01*
X97468847Y-47166269D01*
X97692014Y-47549289D01*
X97962075Y-48059063D01*
X98294949Y-48717261D01*
X98482136Y-49093128D01*
X98780454Y-49684818D01*
X99072279Y-50247637D01*
X99337798Y-50744557D01*
X99557200Y-51138552D01*
X99710673Y-51392594D01*
X99719611Y-51405911D01*
X100186992Y-51934687D01*
X100743627Y-52290163D01*
X101372172Y-52466479D01*
X102055282Y-52457775D01*
X102517207Y-52351113D01*
X102808493Y-52265648D01*
X103015842Y-52216111D01*
X103087090Y-52211643D01*
X103139709Y-52312105D01*
X103249783Y-52540188D01*
X103360785Y-52776456D01*
X103507654Y-53086844D01*
X103597760Y-53248569D01*
X103657738Y-53295120D01*
X103714220Y-53259983D01*
X103731135Y-53242122D01*
X103783771Y-53132579D01*
X103771571Y-52959830D01*
X103685725Y-52691628D01*
X103517426Y-52295727D01*
X103407060Y-52055779D01*
X103130710Y-51482005D01*
X102915840Y-51081036D01*
X102752307Y-50837777D01*
X102629964Y-50737136D01*
X102538735Y-50763941D01*
X102501827Y-50898548D01*
X102573142Y-51135022D01*
X102658422Y-51315725D01*
X102776670Y-51590267D01*
X102829190Y-51797929D01*
X102822543Y-51858676D01*
X102675794Y-51969341D01*
X102407273Y-52067974D01*
X102083324Y-52138728D01*
X101770289Y-52165758D01*
X101597973Y-52151170D01*
X101159511Y-51968947D01*
X100713518Y-51610749D01*
X100286531Y-51100444D01*
X100085801Y-50791262D01*
X99861892Y-50400863D01*
X99639396Y-49987217D01*
X99439954Y-49593744D01*
X99285207Y-49263867D01*
X99196797Y-49041008D01*
X99184221Y-48982293D01*
X99246097Y-49008702D01*
X99407111Y-49144691D01*
X99598203Y-49327298D01*
X100167785Y-49802225D01*
X100733681Y-50094437D01*
X101226284Y-50193881D01*
X101599400Y-50145901D01*
X101846588Y-49957975D01*
X101977918Y-49617979D01*
X102006444Y-49254491D01*
X101983898Y-49120945D01*
X101247448Y-49120945D01*
X101206213Y-49426343D01*
X101140962Y-49530336D01*
X100911926Y-49642977D01*
X100589910Y-49622319D01*
X100217967Y-49475438D01*
X100008857Y-49344232D01*
X99702961Y-49086749D01*
X99374203Y-48746676D01*
X99047774Y-48358652D01*
X98748867Y-47957318D01*
X98502673Y-47577313D01*
X98334387Y-47253277D01*
X98269199Y-47019849D01*
X98276606Y-46962372D01*
X98378043Y-46862447D01*
X98612020Y-46815830D01*
X98828491Y-46809687D01*
X99464765Y-46910476D01*
X100048981Y-47197800D01*
X100560932Y-47657926D01*
X100976277Y-48269314D01*
X101169139Y-48722528D01*
X101247448Y-49120945D01*
X101983898Y-49120945D01*
X101917915Y-48730115D01*
X101672676Y-48209477D01*
X101301246Y-47716368D01*
X100834144Y-47274576D01*
X100301889Y-46907894D01*
X99735000Y-46640110D01*
X99163997Y-46495017D01*
X98619399Y-46496403D01*
X98499072Y-46520429D01*
X98196220Y-46565557D01*
X97951057Y-46510826D01*
X97775212Y-46417933D01*
X97408280Y-46251181D01*
X96942482Y-46109956D01*
X96467089Y-46017671D01*
X96161381Y-45994656D01*
X95953181Y-46022870D01*
X95953181Y-46022870D01*
G37*
X95953181Y-46022870D02*
X95910641Y-46096811D01*
X96020179Y-46200422D01*
X96268215Y-46317647D01*
X96499269Y-46394117D01*
X96726746Y-46468382D01*
X96921524Y-46561061D01*
X97099521Y-46693824D01*
X97276656Y-46888337D01*
X97468847Y-47166269D01*
X97692014Y-47549289D01*
X97962075Y-48059063D01*
X98294949Y-48717261D01*
X98482136Y-49093128D01*
X98780454Y-49684818D01*
X99072279Y-50247637D01*
X99337798Y-50744557D01*
X99557200Y-51138552D01*
X99710673Y-51392594D01*
X99719611Y-51405911D01*
X100186992Y-51934687D01*
X100743627Y-52290163D01*
X101372172Y-52466479D01*
X102055282Y-52457775D01*
X102517207Y-52351113D01*
X102808493Y-52265648D01*
X103015842Y-52216111D01*
X103087090Y-52211643D01*
X103139709Y-52312105D01*
X103249783Y-52540188D01*
X103360785Y-52776456D01*
X103507654Y-53086844D01*
X103597760Y-53248569D01*
X103657738Y-53295120D01*
X103714220Y-53259983D01*
X103731135Y-53242122D01*
X103783771Y-53132579D01*
X103771571Y-52959830D01*
X103685725Y-52691628D01*
X103517426Y-52295727D01*
X103407060Y-52055779D01*
X103130710Y-51482005D01*
X102915840Y-51081036D01*
X102752307Y-50837777D01*
X102629964Y-50737136D01*
X102538735Y-50763941D01*
X102501827Y-50898548D01*
X102573142Y-51135022D01*
X102658422Y-51315725D01*
X102776670Y-51590267D01*
X102829190Y-51797929D01*
X102822543Y-51858676D01*
X102675794Y-51969341D01*
X102407273Y-52067974D01*
X102083324Y-52138728D01*
X101770289Y-52165758D01*
X101597973Y-52151170D01*
X101159511Y-51968947D01*
X100713518Y-51610749D01*
X100286531Y-51100444D01*
X100085801Y-50791262D01*
X99861892Y-50400863D01*
X99639396Y-49987217D01*
X99439954Y-49593744D01*
X99285207Y-49263867D01*
X99196797Y-49041008D01*
X99184221Y-48982293D01*
X99246097Y-49008702D01*
X99407111Y-49144691D01*
X99598203Y-49327298D01*
X100167785Y-49802225D01*
X100733681Y-50094437D01*
X101226284Y-50193881D01*
X101599400Y-50145901D01*
X101846588Y-49957975D01*
X101977918Y-49617979D01*
X102006444Y-49254491D01*
X101983898Y-49120945D01*
X101247448Y-49120945D01*
X101206213Y-49426343D01*
X101140962Y-49530336D01*
X100911926Y-49642977D01*
X100589910Y-49622319D01*
X100217967Y-49475438D01*
X100008857Y-49344232D01*
X99702961Y-49086749D01*
X99374203Y-48746676D01*
X99047774Y-48358652D01*
X98748867Y-47957318D01*
X98502673Y-47577313D01*
X98334387Y-47253277D01*
X98269199Y-47019849D01*
X98276606Y-46962372D01*
X98378043Y-46862447D01*
X98612020Y-46815830D01*
X98828491Y-46809687D01*
X99464765Y-46910476D01*
X100048981Y-47197800D01*
X100560932Y-47657926D01*
X100976277Y-48269314D01*
X101169139Y-48722528D01*
X101247448Y-49120945D01*
X101983898Y-49120945D01*
X101917915Y-48730115D01*
X101672676Y-48209477D01*
X101301246Y-47716368D01*
X100834144Y-47274576D01*
X100301889Y-46907894D01*
X99735000Y-46640110D01*
X99163997Y-46495017D01*
X98619399Y-46496403D01*
X98499072Y-46520429D01*
X98196220Y-46565557D01*
X97951057Y-46510826D01*
X97775212Y-46417933D01*
X97408280Y-46251181D01*
X96942482Y-46109956D01*
X96467089Y-46017671D01*
X96161381Y-45994656D01*
X95953181Y-46022870D01*
G36*
X104351070Y-42090281D02*
X104376390Y-42272267D01*
X104511789Y-42575219D01*
X104650001Y-42809142D01*
X104826909Y-43117870D01*
X105040981Y-43536441D01*
X105253749Y-43988639D01*
X105313045Y-44122848D01*
X105483246Y-44495649D01*
X105631992Y-44786269D01*
X105737508Y-44953782D01*
X105768380Y-44978656D01*
X105882067Y-44921999D01*
X105898640Y-44739887D01*
X105817142Y-44414103D01*
X105725030Y-44153391D01*
X105603419Y-43811070D01*
X105517680Y-43533267D01*
X105487184Y-43386339D01*
X105513632Y-43317083D01*
X105608803Y-43274212D01*
X105796438Y-43257288D01*
X106100275Y-43265874D01*
X106544057Y-43299532D01*
X107133481Y-43356004D01*
X107510271Y-43390702D01*
X107789066Y-43422203D01*
X108000299Y-43473528D01*
X108174402Y-43567700D01*
X108341809Y-43727740D01*
X108532951Y-43976670D01*
X108778262Y-44337511D01*
X109108175Y-44833287D01*
X109130661Y-44866837D01*
X109372707Y-45239589D01*
X109566481Y-45560568D01*
X109688443Y-45789377D01*
X109718624Y-45875798D01*
X109683783Y-45936031D01*
X109557866Y-45967584D01*
X109311944Y-45972431D01*
X108917088Y-45952542D01*
X108756259Y-45941399D01*
X108316167Y-45906056D01*
X108022942Y-45868052D01*
X107835501Y-45815358D01*
X107712761Y-45735942D01*
X107613640Y-45617776D01*
X107603851Y-45603943D01*
X107336234Y-45257352D01*
X107118903Y-45043607D01*
X106968196Y-44974384D01*
X106900453Y-45061357D01*
X106898296Y-45099766D01*
X106946978Y-45234349D01*
X107077185Y-45491745D01*
X107265160Y-45826360D01*
X107361532Y-45988766D01*
X107603426Y-46404708D01*
X107832445Y-46824062D01*
X108007455Y-47170877D01*
X108038796Y-47239256D01*
X108194198Y-47526828D01*
X108339635Y-47692882D01*
X108449241Y-47719029D01*
X108497152Y-47586880D01*
X108497555Y-47565408D01*
X108456714Y-47381903D01*
X108354426Y-47110517D01*
X108309407Y-47010656D01*
X108159372Y-46666951D01*
X108115582Y-46451662D01*
X108197755Y-46340029D01*
X108425605Y-46307290D01*
X108818851Y-46328684D01*
X108850333Y-46331336D01*
X109359469Y-46377768D01*
X109720715Y-46429215D01*
X109973789Y-46506029D01*
X110158412Y-46628560D01*
X110314303Y-46817161D01*
X110481184Y-47092182D01*
X110541043Y-47197611D01*
X110824844Y-47719937D01*
X111087907Y-48242386D01*
X111313330Y-48727510D01*
X111484210Y-49137860D01*
X111583644Y-49435991D01*
X111601999Y-49548119D01*
X111582760Y-49662097D01*
X111506082Y-49728076D01*
X111343527Y-49747426D01*
X111066656Y-49721515D01*
X110647030Y-49651714D01*
X110401722Y-49605906D01*
X109939186Y-49530260D01*
X109386538Y-49457879D01*
X108841628Y-49401148D01*
X108679749Y-49387940D01*
X107734720Y-49317645D01*
X107311009Y-48722950D01*
X107044476Y-48384550D01*
X106829087Y-48181307D01*
X106681257Y-48124250D01*
X106617401Y-48224410D01*
X106616073Y-48256018D01*
X106668416Y-48390296D01*
X106808647Y-48643077D01*
X107011567Y-48970464D01*
X107126382Y-49145018D01*
X107403857Y-49574903D01*
X107681730Y-50031761D01*
X107908957Y-50431097D01*
X107949530Y-50507542D01*
X108160932Y-50876463D01*
X108330886Y-51099030D01*
X108446929Y-51163459D01*
X108496599Y-51057965D01*
X108497555Y-51025757D01*
X108461855Y-50841157D01*
X108370460Y-50551033D01*
X108296590Y-50353798D01*
X108195421Y-50062494D01*
X108149182Y-49850427D01*
X108156982Y-49783007D01*
X108275207Y-49763925D01*
X108541702Y-49771920D01*
X108918855Y-49802620D01*
X109369056Y-49851654D01*
X109854691Y-49914650D01*
X110338151Y-49987238D01*
X110781824Y-50065045D01*
X111037555Y-50117798D01*
X111476861Y-50230503D01*
X111992015Y-50383868D01*
X112482530Y-50547693D01*
X112553905Y-50573553D01*
X113000401Y-50733751D01*
X113297624Y-50826937D01*
X113472819Y-50856433D01*
X113553233Y-50825559D01*
X113566111Y-50737638D01*
X113560103Y-50696217D01*
X113456093Y-50553835D01*
X113226826Y-50405926D01*
X113115270Y-50355979D01*
X112924086Y-50271160D01*
X112782223Y-50169868D01*
X112660957Y-50012060D01*
X112531559Y-49757691D01*
X112365305Y-49366716D01*
X112311710Y-49235818D01*
X112078627Y-48687599D01*
X111829113Y-48151426D01*
X111544930Y-47593053D01*
X111207839Y-46978235D01*
X110799603Y-46272728D01*
X110301982Y-45442285D01*
X110215503Y-45299896D01*
X109928510Y-44820399D01*
X109686238Y-44400873D01*
X109504470Y-44069884D01*
X109398990Y-43856000D01*
X109380272Y-43788254D01*
X109493686Y-43778242D01*
X109722526Y-43815871D01*
X109852646Y-43848014D01*
X110182264Y-43930997D01*
X110369970Y-43953725D01*
X110454126Y-43914109D01*
X110473110Y-43814192D01*
X110382195Y-43685690D01*
X110121794Y-43553329D01*
X109710426Y-43421223D01*
X109166607Y-43293485D01*
X108508856Y-43174228D01*
X107755691Y-43067568D01*
X106925629Y-42977616D01*
X106567441Y-42946527D01*
X105166883Y-42833586D01*
X104849333Y-42432921D01*
X104596167Y-42154328D01*
X104427205Y-42045542D01*
X104351070Y-42090281D01*
X104351070Y-42090281D01*
G37*
X104351070Y-42090281D02*
X104376390Y-42272267D01*
X104511789Y-42575219D01*
X104650001Y-42809142D01*
X104826909Y-43117870D01*
X105040981Y-43536441D01*
X105253749Y-43988639D01*
X105313045Y-44122848D01*
X105483246Y-44495649D01*
X105631992Y-44786269D01*
X105737508Y-44953782D01*
X105768380Y-44978656D01*
X105882067Y-44921999D01*
X105898640Y-44739887D01*
X105817142Y-44414103D01*
X105725030Y-44153391D01*
X105603419Y-43811070D01*
X105517680Y-43533267D01*
X105487184Y-43386339D01*
X105513632Y-43317083D01*
X105608803Y-43274212D01*
X105796438Y-43257288D01*
X106100275Y-43265874D01*
X106544057Y-43299532D01*
X107133481Y-43356004D01*
X107510271Y-43390702D01*
X107789066Y-43422203D01*
X108000299Y-43473528D01*
X108174402Y-43567700D01*
X108341809Y-43727740D01*
X108532951Y-43976670D01*
X108778262Y-44337511D01*
X109108175Y-44833287D01*
X109130661Y-44866837D01*
X109372707Y-45239589D01*
X109566481Y-45560568D01*
X109688443Y-45789377D01*
X109718624Y-45875798D01*
X109683783Y-45936031D01*
X109557866Y-45967584D01*
X109311944Y-45972431D01*
X108917088Y-45952542D01*
X108756259Y-45941399D01*
X108316167Y-45906056D01*
X108022942Y-45868052D01*
X107835501Y-45815358D01*
X107712761Y-45735942D01*
X107613640Y-45617776D01*
X107603851Y-45603943D01*
X107336234Y-45257352D01*
X107118903Y-45043607D01*
X106968196Y-44974384D01*
X106900453Y-45061357D01*
X106898296Y-45099766D01*
X106946978Y-45234349D01*
X107077185Y-45491745D01*
X107265160Y-45826360D01*
X107361532Y-45988766D01*
X107603426Y-46404708D01*
X107832445Y-46824062D01*
X108007455Y-47170877D01*
X108038796Y-47239256D01*
X108194198Y-47526828D01*
X108339635Y-47692882D01*
X108449241Y-47719029D01*
X108497152Y-47586880D01*
X108497555Y-47565408D01*
X108456714Y-47381903D01*
X108354426Y-47110517D01*
X108309407Y-47010656D01*
X108159372Y-46666951D01*
X108115582Y-46451662D01*
X108197755Y-46340029D01*
X108425605Y-46307290D01*
X108818851Y-46328684D01*
X108850333Y-46331336D01*
X109359469Y-46377768D01*
X109720715Y-46429215D01*
X109973789Y-46506029D01*
X110158412Y-46628560D01*
X110314303Y-46817161D01*
X110481184Y-47092182D01*
X110541043Y-47197611D01*
X110824844Y-47719937D01*
X111087907Y-48242386D01*
X111313330Y-48727510D01*
X111484210Y-49137860D01*
X111583644Y-49435991D01*
X111601999Y-49548119D01*
X111582760Y-49662097D01*
X111506082Y-49728076D01*
X111343527Y-49747426D01*
X111066656Y-49721515D01*
X110647030Y-49651714D01*
X110401722Y-49605906D01*
X109939186Y-49530260D01*
X109386538Y-49457879D01*
X108841628Y-49401148D01*
X108679749Y-49387940D01*
X107734720Y-49317645D01*
X107311009Y-48722950D01*
X107044476Y-48384550D01*
X106829087Y-48181307D01*
X106681257Y-48124250D01*
X106617401Y-48224410D01*
X106616073Y-48256018D01*
X106668416Y-48390296D01*
X106808647Y-48643077D01*
X107011567Y-48970464D01*
X107126382Y-49145018D01*
X107403857Y-49574903D01*
X107681730Y-50031761D01*
X107908957Y-50431097D01*
X107949530Y-50507542D01*
X108160932Y-50876463D01*
X108330886Y-51099030D01*
X108446929Y-51163459D01*
X108496599Y-51057965D01*
X108497555Y-51025757D01*
X108461855Y-50841157D01*
X108370460Y-50551033D01*
X108296590Y-50353798D01*
X108195421Y-50062494D01*
X108149182Y-49850427D01*
X108156982Y-49783007D01*
X108275207Y-49763925D01*
X108541702Y-49771920D01*
X108918855Y-49802620D01*
X109369056Y-49851654D01*
X109854691Y-49914650D01*
X110338151Y-49987238D01*
X110781824Y-50065045D01*
X111037555Y-50117798D01*
X111476861Y-50230503D01*
X111992015Y-50383868D01*
X112482530Y-50547693D01*
X112553905Y-50573553D01*
X113000401Y-50733751D01*
X113297624Y-50826937D01*
X113472819Y-50856433D01*
X113553233Y-50825559D01*
X113566111Y-50737638D01*
X113560103Y-50696217D01*
X113456093Y-50553835D01*
X113226826Y-50405926D01*
X113115270Y-50355979D01*
X112924086Y-50271160D01*
X112782223Y-50169868D01*
X112660957Y-50012060D01*
X112531559Y-49757691D01*
X112365305Y-49366716D01*
X112311710Y-49235818D01*
X112078627Y-48687599D01*
X111829113Y-48151426D01*
X111544930Y-47593053D01*
X111207839Y-46978235D01*
X110799603Y-46272728D01*
X110301982Y-45442285D01*
X110215503Y-45299896D01*
X109928510Y-44820399D01*
X109686238Y-44400873D01*
X109504470Y-44069884D01*
X109398990Y-43856000D01*
X109380272Y-43788254D01*
X109493686Y-43778242D01*
X109722526Y-43815871D01*
X109852646Y-43848014D01*
X110182264Y-43930997D01*
X110369970Y-43953725D01*
X110454126Y-43914109D01*
X110473110Y-43814192D01*
X110382195Y-43685690D01*
X110121794Y-43553329D01*
X109710426Y-43421223D01*
X109166607Y-43293485D01*
X108508856Y-43174228D01*
X107755691Y-43067568D01*
X106925629Y-42977616D01*
X106567441Y-42946527D01*
X105166883Y-42833586D01*
X104849333Y-42432921D01*
X104596167Y-42154328D01*
X104427205Y-42045542D01*
X104351070Y-42090281D01*
G36*
X101502969Y-46124699D02*
X101452411Y-46242150D01*
X101458975Y-46323256D01*
X101555142Y-46525300D01*
X101752432Y-46727117D01*
X101791170Y-46755056D01*
X102043927Y-47007294D01*
X102149008Y-47315456D01*
X102229566Y-47683601D01*
X102345336Y-47888314D01*
X102525086Y-47969241D01*
X102628178Y-47975856D01*
X102805286Y-47958843D01*
X102876785Y-47868081D01*
X102881972Y-47643982D01*
X102879442Y-47594856D01*
X102876780Y-47350117D01*
X102896105Y-47220208D01*
X102903986Y-47213856D01*
X103053853Y-47265048D01*
X103310081Y-47398662D01*
X103622269Y-47584748D01*
X103940018Y-47793357D01*
X104198578Y-47983104D01*
X104509608Y-48276217D01*
X104794497Y-48626212D01*
X105021771Y-48984681D01*
X105159952Y-49303215D01*
X105184810Y-49499856D01*
X105144262Y-49614129D01*
X105031439Y-49681297D01*
X104802668Y-49717941D01*
X104569962Y-49733304D01*
X104214436Y-49773519D01*
X104028273Y-49840433D01*
X103996105Y-49922181D01*
X104102566Y-50006897D01*
X104332290Y-50082716D01*
X104669911Y-50137774D01*
X105100062Y-50160203D01*
X105122893Y-50160256D01*
X105327959Y-50190842D01*
X105656136Y-50272906D01*
X106052597Y-50391903D01*
X106271900Y-50465056D01*
X106712291Y-50616469D01*
X107002871Y-50710036D01*
X107173062Y-50749731D01*
X107252283Y-50739528D01*
X107269954Y-50683402D01*
X107257785Y-50598237D01*
X107156252Y-50463582D01*
X106924587Y-50306546D01*
X106731744Y-50211529D01*
X106516887Y-50111617D01*
X106352753Y-50004836D01*
X106209635Y-49854853D01*
X106057824Y-49625336D01*
X105867613Y-49279952D01*
X105688250Y-48935347D01*
X105438816Y-48458741D01*
X105189016Y-47992216D01*
X104971372Y-47595954D01*
X104843165Y-47371502D01*
X104696421Y-47089729D01*
X104619864Y-46873583D01*
X104623371Y-46785334D01*
X104750838Y-46766328D01*
X104983693Y-46814754D01*
X105105723Y-46856287D01*
X105476082Y-46973968D01*
X105728175Y-47004341D01*
X105841737Y-46946650D01*
X105839975Y-46883698D01*
X105724300Y-46769970D01*
X105457057Y-46626998D01*
X105070496Y-46468867D01*
X104596870Y-46309658D01*
X104378406Y-46245481D01*
X103966480Y-46158781D01*
X103713382Y-46179510D01*
X103615364Y-46312822D01*
X103668675Y-46563868D01*
X103869568Y-46937800D01*
X103871916Y-46941550D01*
X104038586Y-47210548D01*
X104163912Y-47418376D01*
X104199342Y-47480350D01*
X104157578Y-47495182D01*
X103988185Y-47427330D01*
X103726023Y-47296551D01*
X103405951Y-47122599D01*
X103062830Y-46925232D01*
X102731519Y-46724206D01*
X102446879Y-46539275D01*
X102243770Y-46390198D01*
X102189444Y-46341288D01*
X101942210Y-46166709D01*
X101689012Y-46096256D01*
X101502969Y-46124699D01*
X101502969Y-46124699D01*
G37*
X101502969Y-46124699D02*
X101452411Y-46242150D01*
X101458975Y-46323256D01*
X101555142Y-46525300D01*
X101752432Y-46727117D01*
X101791170Y-46755056D01*
X102043927Y-47007294D01*
X102149008Y-47315456D01*
X102229566Y-47683601D01*
X102345336Y-47888314D01*
X102525086Y-47969241D01*
X102628178Y-47975856D01*
X102805286Y-47958843D01*
X102876785Y-47868081D01*
X102881972Y-47643982D01*
X102879442Y-47594856D01*
X102876780Y-47350117D01*
X102896105Y-47220208D01*
X102903986Y-47213856D01*
X103053853Y-47265048D01*
X103310081Y-47398662D01*
X103622269Y-47584748D01*
X103940018Y-47793357D01*
X104198578Y-47983104D01*
X104509608Y-48276217D01*
X104794497Y-48626212D01*
X105021771Y-48984681D01*
X105159952Y-49303215D01*
X105184810Y-49499856D01*
X105144262Y-49614129D01*
X105031439Y-49681297D01*
X104802668Y-49717941D01*
X104569962Y-49733304D01*
X104214436Y-49773519D01*
X104028273Y-49840433D01*
X103996105Y-49922181D01*
X104102566Y-50006897D01*
X104332290Y-50082716D01*
X104669911Y-50137774D01*
X105100062Y-50160203D01*
X105122893Y-50160256D01*
X105327959Y-50190842D01*
X105656136Y-50272906D01*
X106052597Y-50391903D01*
X106271900Y-50465056D01*
X106712291Y-50616469D01*
X107002871Y-50710036D01*
X107173062Y-50749731D01*
X107252283Y-50739528D01*
X107269954Y-50683402D01*
X107257785Y-50598237D01*
X107156252Y-50463582D01*
X106924587Y-50306546D01*
X106731744Y-50211529D01*
X106516887Y-50111617D01*
X106352753Y-50004836D01*
X106209635Y-49854853D01*
X106057824Y-49625336D01*
X105867613Y-49279952D01*
X105688250Y-48935347D01*
X105438816Y-48458741D01*
X105189016Y-47992216D01*
X104971372Y-47595954D01*
X104843165Y-47371502D01*
X104696421Y-47089729D01*
X104619864Y-46873583D01*
X104623371Y-46785334D01*
X104750838Y-46766328D01*
X104983693Y-46814754D01*
X105105723Y-46856287D01*
X105476082Y-46973968D01*
X105728175Y-47004341D01*
X105841737Y-46946650D01*
X105839975Y-46883698D01*
X105724300Y-46769970D01*
X105457057Y-46626998D01*
X105070496Y-46468867D01*
X104596870Y-46309658D01*
X104378406Y-46245481D01*
X103966480Y-46158781D01*
X103713382Y-46179510D01*
X103615364Y-46312822D01*
X103668675Y-46563868D01*
X103869568Y-46937800D01*
X103871916Y-46941550D01*
X104038586Y-47210548D01*
X104163912Y-47418376D01*
X104199342Y-47480350D01*
X104157578Y-47495182D01*
X103988185Y-47427330D01*
X103726023Y-47296551D01*
X103405951Y-47122599D01*
X103062830Y-46925232D01*
X102731519Y-46724206D01*
X102446879Y-46539275D01*
X102243770Y-46390198D01*
X102189444Y-46341288D01*
X101942210Y-46166709D01*
X101689012Y-46096256D01*
X101502969Y-46124699D01*
G36*
X66312561Y-42312057D02*
X66400162Y-42553022D01*
X66523201Y-42768002D01*
X66686950Y-43051048D01*
X66898129Y-43451532D01*
X67122671Y-43903746D01*
X67234764Y-44140456D01*
X67480880Y-44640354D01*
X67665699Y-44953455D01*
X67785902Y-45080236D01*
X67838166Y-45021175D01*
X67819172Y-44776750D01*
X67725597Y-44347437D01*
X67654403Y-44080105D01*
X67586104Y-43800682D01*
X67588259Y-43641033D01*
X67668588Y-43529358D01*
X67718167Y-43487043D01*
X67972147Y-43389076D01*
X68346620Y-43381936D01*
X68796904Y-43459146D01*
X69278317Y-43614231D01*
X69598036Y-43759513D01*
X70328853Y-44209743D01*
X71024127Y-44776839D01*
X71663535Y-45432485D01*
X72226753Y-46148361D01*
X72693457Y-46896150D01*
X73043325Y-47647534D01*
X73256031Y-48374196D01*
X73313851Y-48936914D01*
X73289888Y-49297123D01*
X73196457Y-49558783D01*
X73046841Y-49768593D01*
X72843589Y-49976801D01*
X72636495Y-50067969D01*
X72348722Y-50084297D01*
X71846098Y-49994484D01*
X71251429Y-49744727D01*
X70579395Y-49342431D01*
X69933983Y-48866768D01*
X69540433Y-48557632D01*
X69272337Y-48360649D01*
X69106466Y-48263450D01*
X69019589Y-48253669D01*
X68988478Y-48318939D01*
X68986444Y-48362325D01*
X69064251Y-48543798D01*
X69278163Y-48798094D01*
X69598917Y-49101117D01*
X69997249Y-49428772D01*
X70443896Y-49756966D01*
X70909594Y-50061602D01*
X71357848Y-50314884D01*
X71900248Y-50548173D01*
X72433206Y-50696902D01*
X72911448Y-50752903D01*
X73289705Y-50708009D01*
X73368561Y-50677650D01*
X73663692Y-50447440D01*
X73918280Y-50085981D01*
X74086216Y-49665136D01*
X74116783Y-49511490D01*
X74123763Y-48808127D01*
X73969012Y-48068508D01*
X73671714Y-47312171D01*
X73251055Y-46558651D01*
X72726220Y-45827483D01*
X72116396Y-45138205D01*
X71440768Y-44510352D01*
X70718520Y-43963461D01*
X69968840Y-43517067D01*
X69210911Y-43190706D01*
X68463920Y-43003915D01*
X67747053Y-42976229D01*
X67702801Y-42980317D01*
X67124388Y-43038651D01*
X66871562Y-42644638D01*
X66693841Y-42397594D01*
X66537489Y-42229544D01*
X66488566Y-42196677D01*
X66341604Y-42186268D01*
X66312561Y-42312057D01*
X66312561Y-42312057D01*
G37*
X66312561Y-42312057D02*
X66400162Y-42553022D01*
X66523201Y-42768002D01*
X66686950Y-43051048D01*
X66898129Y-43451532D01*
X67122671Y-43903746D01*
X67234764Y-44140456D01*
X67480880Y-44640354D01*
X67665699Y-44953455D01*
X67785902Y-45080236D01*
X67838166Y-45021175D01*
X67819172Y-44776750D01*
X67725597Y-44347437D01*
X67654403Y-44080105D01*
X67586104Y-43800682D01*
X67588259Y-43641033D01*
X67668588Y-43529358D01*
X67718167Y-43487043D01*
X67972147Y-43389076D01*
X68346620Y-43381936D01*
X68796904Y-43459146D01*
X69278317Y-43614231D01*
X69598036Y-43759513D01*
X70328853Y-44209743D01*
X71024127Y-44776839D01*
X71663535Y-45432485D01*
X72226753Y-46148361D01*
X72693457Y-46896150D01*
X73043325Y-47647534D01*
X73256031Y-48374196D01*
X73313851Y-48936914D01*
X73289888Y-49297123D01*
X73196457Y-49558783D01*
X73046841Y-49768593D01*
X72843589Y-49976801D01*
X72636495Y-50067969D01*
X72348722Y-50084297D01*
X71846098Y-49994484D01*
X71251429Y-49744727D01*
X70579395Y-49342431D01*
X69933983Y-48866768D01*
X69540433Y-48557632D01*
X69272337Y-48360649D01*
X69106466Y-48263450D01*
X69019589Y-48253669D01*
X68988478Y-48318939D01*
X68986444Y-48362325D01*
X69064251Y-48543798D01*
X69278163Y-48798094D01*
X69598917Y-49101117D01*
X69997249Y-49428772D01*
X70443896Y-49756966D01*
X70909594Y-50061602D01*
X71357848Y-50314884D01*
X71900248Y-50548173D01*
X72433206Y-50696902D01*
X72911448Y-50752903D01*
X73289705Y-50708009D01*
X73368561Y-50677650D01*
X73663692Y-50447440D01*
X73918280Y-50085981D01*
X74086216Y-49665136D01*
X74116783Y-49511490D01*
X74123763Y-48808127D01*
X73969012Y-48068508D01*
X73671714Y-47312171D01*
X73251055Y-46558651D01*
X72726220Y-45827483D01*
X72116396Y-45138205D01*
X71440768Y-44510352D01*
X70718520Y-43963461D01*
X69968840Y-43517067D01*
X69210911Y-43190706D01*
X68463920Y-43003915D01*
X67747053Y-42976229D01*
X67702801Y-42980317D01*
X67124388Y-43038651D01*
X66871562Y-42644638D01*
X66693841Y-42397594D01*
X66537489Y-42229544D01*
X66488566Y-42196677D01*
X66341604Y-42186268D01*
X66312561Y-42312057D01*
G36*
X80722800Y-45603385D02*
X80570580Y-45686276D01*
X80557555Y-45740656D01*
X80573764Y-45876234D01*
X80587314Y-45893056D01*
X80720481Y-45912124D01*
X80965442Y-45960066D01*
X81258906Y-46022989D01*
X81537586Y-46087000D01*
X81738193Y-46138206D01*
X81798042Y-46158834D01*
X81793827Y-46262600D01*
X81728851Y-46490064D01*
X81625191Y-46782478D01*
X81504922Y-47081095D01*
X81390118Y-47327167D01*
X81311788Y-47452875D01*
X81203473Y-47443246D01*
X80986557Y-47347240D01*
X80707518Y-47193538D01*
X80412833Y-47010827D01*
X80148978Y-46827789D01*
X79962431Y-46673110D01*
X79899036Y-46580970D01*
X79986609Y-46529531D01*
X80234743Y-46529128D01*
X80416444Y-46549060D01*
X80738114Y-46569631D01*
X80914726Y-46532168D01*
X80932811Y-46445665D01*
X80778902Y-46319113D01*
X80769221Y-46313486D01*
X80563697Y-46238936D01*
X80231046Y-46165705D01*
X79812115Y-46097892D01*
X79347751Y-46039600D01*
X78878802Y-45994928D01*
X78446115Y-45967978D01*
X78090538Y-45962849D01*
X77852918Y-45983643D01*
X77780636Y-46013461D01*
X77751148Y-46141448D01*
X77866071Y-46249379D01*
X78082413Y-46299131D01*
X78103143Y-46299456D01*
X78347941Y-46323034D01*
X78622203Y-46403038D01*
X78955989Y-46553366D01*
X79379360Y-46787918D01*
X79922374Y-47120595D01*
X80040147Y-47195150D01*
X80433221Y-47445827D01*
X80764316Y-47658659D01*
X81001374Y-47812916D01*
X81112341Y-47887872D01*
X81115841Y-47890717D01*
X81105381Y-48000918D01*
X81020837Y-48232194D01*
X80887341Y-48532966D01*
X80730022Y-48851659D01*
X80574013Y-49136694D01*
X80444444Y-49336493D01*
X80380994Y-49398888D01*
X80209641Y-49420801D01*
X79928941Y-49411550D01*
X79738813Y-49391281D01*
X79445783Y-49360998D01*
X79294757Y-49377652D01*
X79243057Y-49449375D01*
X79240518Y-49486213D01*
X79320515Y-49630687D01*
X79452184Y-49695299D01*
X80036807Y-49830569D01*
X80502541Y-49954497D01*
X80916355Y-50087370D01*
X81345217Y-50249474D01*
X81531255Y-50325098D01*
X81968659Y-50502608D01*
X82258966Y-50609456D01*
X82429827Y-50650297D01*
X82508893Y-50629786D01*
X82523812Y-50552576D01*
X82515251Y-50490732D01*
X82406033Y-50349576D01*
X82135043Y-50174591D01*
X81812989Y-50018471D01*
X81142382Y-49723733D01*
X81420036Y-49055388D01*
X81560140Y-48723675D01*
X81670093Y-48473589D01*
X81727996Y-48354806D01*
X81730045Y-48352100D01*
X81824853Y-48378998D01*
X82022082Y-48499623D01*
X82277581Y-48680295D01*
X82547201Y-48887335D01*
X82786791Y-49087061D01*
X82952201Y-49245793D01*
X83001523Y-49322056D01*
X82912449Y-49409447D01*
X82641457Y-49447308D01*
X82538662Y-49449056D01*
X82222818Y-49477820D01*
X82023487Y-49554231D01*
X81969204Y-49663468D01*
X82005557Y-49725964D01*
X82117653Y-49759201D01*
X82373978Y-49799742D01*
X82731030Y-49841392D01*
X82979236Y-49864654D01*
X83465948Y-49923638D01*
X83965290Y-50012603D01*
X84391928Y-50115516D01*
X84508666Y-50151995D01*
X84874834Y-50274862D01*
X85097576Y-50338354D01*
X85212491Y-50345609D01*
X85255176Y-50299766D01*
X85261259Y-50218355D01*
X85179053Y-50103335D01*
X84964253Y-49963766D01*
X84767370Y-49872139D01*
X84510061Y-49742462D01*
X84141179Y-49523862D01*
X83703702Y-49243301D01*
X83240609Y-48927738D01*
X83078941Y-48812944D01*
X81884400Y-47954866D01*
X82224434Y-47177961D01*
X82391933Y-46823955D01*
X82543363Y-46554450D01*
X82653537Y-46412579D01*
X82678072Y-46401056D01*
X82832846Y-46432982D01*
X83081905Y-46512784D01*
X83171296Y-46545708D01*
X83462949Y-46632834D01*
X83618280Y-46611827D01*
X83661999Y-46488331D01*
X83571001Y-46366347D01*
X83306307Y-46220242D01*
X82880370Y-46055455D01*
X82305640Y-45877422D01*
X82186989Y-45844291D01*
X81533087Y-45682525D01*
X81044330Y-45602179D01*
X80722800Y-45603385D01*
X80722800Y-45603385D01*
G37*
X80722800Y-45603385D02*
X80570580Y-45686276D01*
X80557555Y-45740656D01*
X80573764Y-45876234D01*
X80587314Y-45893056D01*
X80720481Y-45912124D01*
X80965442Y-45960066D01*
X81258906Y-46022989D01*
X81537586Y-46087000D01*
X81738193Y-46138206D01*
X81798042Y-46158834D01*
X81793827Y-46262600D01*
X81728851Y-46490064D01*
X81625191Y-46782478D01*
X81504922Y-47081095D01*
X81390118Y-47327167D01*
X81311788Y-47452875D01*
X81203473Y-47443246D01*
X80986557Y-47347240D01*
X80707518Y-47193538D01*
X80412833Y-47010827D01*
X80148978Y-46827789D01*
X79962431Y-46673110D01*
X79899036Y-46580970D01*
X79986609Y-46529531D01*
X80234743Y-46529128D01*
X80416444Y-46549060D01*
X80738114Y-46569631D01*
X80914726Y-46532168D01*
X80932811Y-46445665D01*
X80778902Y-46319113D01*
X80769221Y-46313486D01*
X80563697Y-46238936D01*
X80231046Y-46165705D01*
X79812115Y-46097892D01*
X79347751Y-46039600D01*
X78878802Y-45994928D01*
X78446115Y-45967978D01*
X78090538Y-45962849D01*
X77852918Y-45983643D01*
X77780636Y-46013461D01*
X77751148Y-46141448D01*
X77866071Y-46249379D01*
X78082413Y-46299131D01*
X78103143Y-46299456D01*
X78347941Y-46323034D01*
X78622203Y-46403038D01*
X78955989Y-46553366D01*
X79379360Y-46787918D01*
X79922374Y-47120595D01*
X80040147Y-47195150D01*
X80433221Y-47445827D01*
X80764316Y-47658659D01*
X81001374Y-47812916D01*
X81112341Y-47887872D01*
X81115841Y-47890717D01*
X81105381Y-48000918D01*
X81020837Y-48232194D01*
X80887341Y-48532966D01*
X80730022Y-48851659D01*
X80574013Y-49136694D01*
X80444444Y-49336493D01*
X80380994Y-49398888D01*
X80209641Y-49420801D01*
X79928941Y-49411550D01*
X79738813Y-49391281D01*
X79445783Y-49360998D01*
X79294757Y-49377652D01*
X79243057Y-49449375D01*
X79240518Y-49486213D01*
X79320515Y-49630687D01*
X79452184Y-49695299D01*
X80036807Y-49830569D01*
X80502541Y-49954497D01*
X80916355Y-50087370D01*
X81345217Y-50249474D01*
X81531255Y-50325098D01*
X81968659Y-50502608D01*
X82258966Y-50609456D01*
X82429827Y-50650297D01*
X82508893Y-50629786D01*
X82523812Y-50552576D01*
X82515251Y-50490732D01*
X82406033Y-50349576D01*
X82135043Y-50174591D01*
X81812989Y-50018471D01*
X81142382Y-49723733D01*
X81420036Y-49055388D01*
X81560140Y-48723675D01*
X81670093Y-48473589D01*
X81727996Y-48354806D01*
X81730045Y-48352100D01*
X81824853Y-48378998D01*
X82022082Y-48499623D01*
X82277581Y-48680295D01*
X82547201Y-48887335D01*
X82786791Y-49087061D01*
X82952201Y-49245793D01*
X83001523Y-49322056D01*
X82912449Y-49409447D01*
X82641457Y-49447308D01*
X82538662Y-49449056D01*
X82222818Y-49477820D01*
X82023487Y-49554231D01*
X81969204Y-49663468D01*
X82005557Y-49725964D01*
X82117653Y-49759201D01*
X82373978Y-49799742D01*
X82731030Y-49841392D01*
X82979236Y-49864654D01*
X83465948Y-49923638D01*
X83965290Y-50012603D01*
X84391928Y-50115516D01*
X84508666Y-50151995D01*
X84874834Y-50274862D01*
X85097576Y-50338354D01*
X85212491Y-50345609D01*
X85255176Y-50299766D01*
X85261259Y-50218355D01*
X85179053Y-50103335D01*
X84964253Y-49963766D01*
X84767370Y-49872139D01*
X84510061Y-49742462D01*
X84141179Y-49523862D01*
X83703702Y-49243301D01*
X83240609Y-48927738D01*
X83078941Y-48812944D01*
X81884400Y-47954866D01*
X82224434Y-47177961D01*
X82391933Y-46823955D01*
X82543363Y-46554450D01*
X82653537Y-46412579D01*
X82678072Y-46401056D01*
X82832846Y-46432982D01*
X83081905Y-46512784D01*
X83171296Y-46545708D01*
X83462949Y-46632834D01*
X83618280Y-46611827D01*
X83661999Y-46488331D01*
X83571001Y-46366347D01*
X83306307Y-46220242D01*
X82880370Y-46055455D01*
X82305640Y-45877422D01*
X82186989Y-45844291D01*
X81533087Y-45682525D01*
X81044330Y-45602179D01*
X80722800Y-45603385D01*
G36*
X86673187Y-43817994D02*
X86616429Y-43985989D01*
X86710943Y-44253105D01*
X86872136Y-44499798D01*
X87383158Y-45199242D01*
X87883916Y-45913222D01*
X88360872Y-46619945D01*
X88800490Y-47297617D01*
X89189234Y-47924443D01*
X89513568Y-48478632D01*
X89759956Y-48938388D01*
X89914861Y-49281918D01*
X89964962Y-49479332D01*
X89947363Y-49589309D01*
X89864800Y-49637002D01*
X89672621Y-49633329D01*
X89447555Y-49605851D01*
X89143303Y-49574954D01*
X88984247Y-49591258D01*
X88931402Y-49660444D01*
X88930147Y-49681253D01*
X89012994Y-49763289D01*
X89232221Y-49885685D01*
X89543859Y-50030907D01*
X89903937Y-50181421D01*
X90268487Y-50319694D01*
X90593537Y-50428192D01*
X90835119Y-50489380D01*
X90948808Y-50486235D01*
X91001256Y-50295878D01*
X90950017Y-49983460D01*
X90802987Y-49590526D01*
X90762296Y-49504948D01*
X90524815Y-49022577D01*
X90919817Y-49387732D01*
X91434942Y-49796569D01*
X91931795Y-50064015D01*
X92388050Y-50184773D01*
X92781379Y-50153548D01*
X93089457Y-49965046D01*
X93134862Y-49913092D01*
X93306429Y-49550302D01*
X93317945Y-49195656D01*
X92554956Y-49195656D01*
X92476655Y-49488574D01*
X92282119Y-49642668D01*
X91987862Y-49650377D01*
X91610399Y-49504143D01*
X91315790Y-49313778D01*
X91042850Y-49073475D01*
X90705864Y-48722046D01*
X90347144Y-48309876D01*
X90009002Y-47887351D01*
X89733749Y-47504857D01*
X89579514Y-47246186D01*
X89518691Y-47005819D01*
X89620874Y-46850808D01*
X89890457Y-46777507D01*
X90151242Y-46771738D01*
X90664889Y-46878662D01*
X91190979Y-47142128D01*
X91685643Y-47524797D01*
X92105015Y-47989327D01*
X92405223Y-48498376D01*
X92500508Y-48771473D01*
X92554956Y-49195656D01*
X93317945Y-49195656D01*
X93320663Y-49111962D01*
X93184129Y-48622302D01*
X92903395Y-48105554D01*
X92511934Y-47614655D01*
X91903502Y-47070000D01*
X91255738Y-46692740D01*
X90592559Y-46492565D01*
X89937880Y-46479165D01*
X89776814Y-46506454D01*
X89496991Y-46561334D01*
X89288771Y-46595216D01*
X89242106Y-46599831D01*
X89145258Y-46523449D01*
X88971514Y-46316346D01*
X88747483Y-46017493D01*
X88499773Y-45665859D01*
X88254993Y-45300413D01*
X88039751Y-44960125D01*
X87880655Y-44683964D01*
X87804314Y-44510899D01*
X87801259Y-44489622D01*
X87847324Y-44396579D01*
X88012527Y-44394547D01*
X88106999Y-44413707D01*
X88538601Y-44507213D01*
X88816277Y-44551895D01*
X88968203Y-44550020D01*
X89022558Y-44503857D01*
X89024221Y-44487524D01*
X88950600Y-44355647D01*
X88842439Y-44271135D01*
X88649359Y-44191424D01*
X88328901Y-44089671D01*
X87938684Y-43980888D01*
X87536325Y-43880085D01*
X87179441Y-43802273D01*
X86925649Y-43762460D01*
X86881084Y-43760167D01*
X86673187Y-43817994D01*
X86673187Y-43817994D01*
G37*
X86673187Y-43817994D02*
X86616429Y-43985989D01*
X86710943Y-44253105D01*
X86872136Y-44499798D01*
X87383158Y-45199242D01*
X87883916Y-45913222D01*
X88360872Y-46619945D01*
X88800490Y-47297617D01*
X89189234Y-47924443D01*
X89513568Y-48478632D01*
X89759956Y-48938388D01*
X89914861Y-49281918D01*
X89964962Y-49479332D01*
X89947363Y-49589309D01*
X89864800Y-49637002D01*
X89672621Y-49633329D01*
X89447555Y-49605851D01*
X89143303Y-49574954D01*
X88984247Y-49591258D01*
X88931402Y-49660444D01*
X88930147Y-49681253D01*
X89012994Y-49763289D01*
X89232221Y-49885685D01*
X89543859Y-50030907D01*
X89903937Y-50181421D01*
X90268487Y-50319694D01*
X90593537Y-50428192D01*
X90835119Y-50489380D01*
X90948808Y-50486235D01*
X91001256Y-50295878D01*
X90950017Y-49983460D01*
X90802987Y-49590526D01*
X90762296Y-49504948D01*
X90524815Y-49022577D01*
X90919817Y-49387732D01*
X91434942Y-49796569D01*
X91931795Y-50064015D01*
X92388050Y-50184773D01*
X92781379Y-50153548D01*
X93089457Y-49965046D01*
X93134862Y-49913092D01*
X93306429Y-49550302D01*
X93317945Y-49195656D01*
X92554956Y-49195656D01*
X92476655Y-49488574D01*
X92282119Y-49642668D01*
X91987862Y-49650377D01*
X91610399Y-49504143D01*
X91315790Y-49313778D01*
X91042850Y-49073475D01*
X90705864Y-48722046D01*
X90347144Y-48309876D01*
X90009002Y-47887351D01*
X89733749Y-47504857D01*
X89579514Y-47246186D01*
X89518691Y-47005819D01*
X89620874Y-46850808D01*
X89890457Y-46777507D01*
X90151242Y-46771738D01*
X90664889Y-46878662D01*
X91190979Y-47142128D01*
X91685643Y-47524797D01*
X92105015Y-47989327D01*
X92405223Y-48498376D01*
X92500508Y-48771473D01*
X92554956Y-49195656D01*
X93317945Y-49195656D01*
X93320663Y-49111962D01*
X93184129Y-48622302D01*
X92903395Y-48105554D01*
X92511934Y-47614655D01*
X91903502Y-47070000D01*
X91255738Y-46692740D01*
X90592559Y-46492565D01*
X89937880Y-46479165D01*
X89776814Y-46506454D01*
X89496991Y-46561334D01*
X89288771Y-46595216D01*
X89242106Y-46599831D01*
X89145258Y-46523449D01*
X88971514Y-46316346D01*
X88747483Y-46017493D01*
X88499773Y-45665859D01*
X88254993Y-45300413D01*
X88039751Y-44960125D01*
X87880655Y-44683964D01*
X87804314Y-44510899D01*
X87801259Y-44489622D01*
X87847324Y-44396579D01*
X88012527Y-44394547D01*
X88106999Y-44413707D01*
X88538601Y-44507213D01*
X88816277Y-44551895D01*
X88968203Y-44550020D01*
X89022558Y-44503857D01*
X89024221Y-44487524D01*
X88950600Y-44355647D01*
X88842439Y-44271135D01*
X88649359Y-44191424D01*
X88328901Y-44089671D01*
X87938684Y-43980888D01*
X87536325Y-43880085D01*
X87179441Y-43802273D01*
X86925649Y-43762460D01*
X86881084Y-43760167D01*
X86673187Y-43817994D01*
G36*
X93490847Y-46121340D02*
X93350454Y-46169667D01*
X93254504Y-46265175D01*
X93219206Y-46316892D01*
X93101207Y-46582393D01*
X93087076Y-46887217D01*
X93180844Y-47273694D01*
X93351420Y-47704930D01*
X93684944Y-48309062D01*
X94136509Y-48907477D01*
X94655210Y-49443018D01*
X95190144Y-49858527D01*
X95357323Y-49957282D01*
X95821116Y-50171378D01*
X96184840Y-50249761D01*
X96483979Y-50197637D01*
X96597184Y-50139141D01*
X96864759Y-49901733D01*
X96993739Y-49580747D01*
X97016607Y-49296656D01*
X96955026Y-48898721D01*
X96359809Y-48898721D01*
X96299798Y-49224230D01*
X96197370Y-49369251D01*
X95895163Y-49563820D01*
X95562569Y-49588828D01*
X95170950Y-49443264D01*
X94974429Y-49326133D01*
X94614516Y-49020402D01*
X94272529Y-48604457D01*
X93983031Y-48134365D01*
X93780583Y-47666193D01*
X93699805Y-47258386D01*
X93727899Y-46934515D01*
X93851702Y-46737465D01*
X94099419Y-46644897D01*
X94488106Y-46633951D01*
X94804673Y-46659598D01*
X95026202Y-46725677D01*
X95227891Y-46868819D01*
X95474070Y-47114228D01*
X95843031Y-47566186D01*
X96120755Y-48036432D01*
X96296571Y-48491699D01*
X96359809Y-48898721D01*
X96955026Y-48898721D01*
X96939877Y-48800832D01*
X96721369Y-48248916D01*
X96385560Y-47679945D01*
X95956930Y-47132952D01*
X95459956Y-46646973D01*
X95250853Y-46480888D01*
X94995675Y-46309832D01*
X94755445Y-46207381D01*
X94459774Y-46151803D01*
X94095818Y-46124304D01*
X93723398Y-46109714D01*
X93490847Y-46121340D01*
X93490847Y-46121340D01*
G37*
X93490847Y-46121340D02*
X93350454Y-46169667D01*
X93254504Y-46265175D01*
X93219206Y-46316892D01*
X93101207Y-46582393D01*
X93087076Y-46887217D01*
X93180844Y-47273694D01*
X93351420Y-47704930D01*
X93684944Y-48309062D01*
X94136509Y-48907477D01*
X94655210Y-49443018D01*
X95190144Y-49858527D01*
X95357323Y-49957282D01*
X95821116Y-50171378D01*
X96184840Y-50249761D01*
X96483979Y-50197637D01*
X96597184Y-50139141D01*
X96864759Y-49901733D01*
X96993739Y-49580747D01*
X97016607Y-49296656D01*
X96955026Y-48898721D01*
X96359809Y-48898721D01*
X96299798Y-49224230D01*
X96197370Y-49369251D01*
X95895163Y-49563820D01*
X95562569Y-49588828D01*
X95170950Y-49443264D01*
X94974429Y-49326133D01*
X94614516Y-49020402D01*
X94272529Y-48604457D01*
X93983031Y-48134365D01*
X93780583Y-47666193D01*
X93699805Y-47258386D01*
X93727899Y-46934515D01*
X93851702Y-46737465D01*
X94099419Y-46644897D01*
X94488106Y-46633951D01*
X94804673Y-46659598D01*
X95026202Y-46725677D01*
X95227891Y-46868819D01*
X95474070Y-47114228D01*
X95843031Y-47566186D01*
X96120755Y-48036432D01*
X96296571Y-48491699D01*
X96359809Y-48898721D01*
X96955026Y-48898721D01*
X96939877Y-48800832D01*
X96721369Y-48248916D01*
X96385560Y-47679945D01*
X95956930Y-47132952D01*
X95459956Y-46646973D01*
X95250853Y-46480888D01*
X94995675Y-46309832D01*
X94755445Y-46207381D01*
X94459774Y-46151803D01*
X94095818Y-46124304D01*
X93723398Y-46109714D01*
X93490847Y-46121340D01*
G36*
X84804618Y-46129360D02*
X84514230Y-46209878D01*
X84350967Y-46374112D01*
X84286271Y-46643316D01*
X84282109Y-46832216D01*
X84378390Y-47370723D01*
X84641949Y-47964588D01*
X85064090Y-48597252D01*
X85448148Y-49053084D01*
X85960477Y-49550588D01*
X86464881Y-49921988D01*
X86938773Y-50156598D01*
X87359565Y-50243732D01*
X87704670Y-50172703D01*
X87754221Y-50144108D01*
X88016038Y-49909448D01*
X88145828Y-49600409D01*
X88174563Y-49270148D01*
X88114118Y-48861592D01*
X87517596Y-48861592D01*
X87482906Y-49200190D01*
X87358497Y-49408601D01*
X87140084Y-49538207D01*
X86909265Y-49596535D01*
X86661947Y-49558107D01*
X86345984Y-49410136D01*
X86154962Y-49296654D01*
X85753098Y-48966346D01*
X85366455Y-48503769D01*
X85050133Y-47975235D01*
X85040603Y-47955501D01*
X84936003Y-47634236D01*
X84890919Y-47276911D01*
X84907490Y-46955622D01*
X84987856Y-46742463D01*
X85004108Y-46725543D01*
X85158621Y-46669339D01*
X85432245Y-46636374D01*
X85666847Y-46632496D01*
X85943844Y-46645866D01*
X86140679Y-46689842D01*
X86312690Y-46795669D01*
X86515217Y-46994595D01*
X86726977Y-47231098D01*
X87139141Y-47755681D01*
X87394627Y-48227954D01*
X87508410Y-48678801D01*
X87517596Y-48861592D01*
X88114118Y-48861592D01*
X88091963Y-48711852D01*
X87834631Y-48116756D01*
X87399508Y-47478472D01*
X87203579Y-47242455D01*
X86761046Y-46765680D01*
X86374940Y-46438276D01*
X86003680Y-46236159D01*
X85605685Y-46135245D01*
X85250688Y-46111302D01*
X84804618Y-46129360D01*
X84804618Y-46129360D01*
G37*
X84804618Y-46129360D02*
X84514230Y-46209878D01*
X84350967Y-46374112D01*
X84286271Y-46643316D01*
X84282109Y-46832216D01*
X84378390Y-47370723D01*
X84641949Y-47964588D01*
X85064090Y-48597252D01*
X85448148Y-49053084D01*
X85960477Y-49550588D01*
X86464881Y-49921988D01*
X86938773Y-50156598D01*
X87359565Y-50243732D01*
X87704670Y-50172703D01*
X87754221Y-50144108D01*
X88016038Y-49909448D01*
X88145828Y-49600409D01*
X88174563Y-49270148D01*
X88114118Y-48861592D01*
X87517596Y-48861592D01*
X87482906Y-49200190D01*
X87358497Y-49408601D01*
X87140084Y-49538207D01*
X86909265Y-49596535D01*
X86661947Y-49558107D01*
X86345984Y-49410136D01*
X86154962Y-49296654D01*
X85753098Y-48966346D01*
X85366455Y-48503769D01*
X85050133Y-47975235D01*
X85040603Y-47955501D01*
X84936003Y-47634236D01*
X84890919Y-47276911D01*
X84907490Y-46955622D01*
X84987856Y-46742463D01*
X85004108Y-46725543D01*
X85158621Y-46669339D01*
X85432245Y-46636374D01*
X85666847Y-46632496D01*
X85943844Y-46645866D01*
X86140679Y-46689842D01*
X86312690Y-46795669D01*
X86515217Y-46994595D01*
X86726977Y-47231098D01*
X87139141Y-47755681D01*
X87394627Y-48227954D01*
X87508410Y-48678801D01*
X87517596Y-48861592D01*
X88114118Y-48861592D01*
X88091963Y-48711852D01*
X87834631Y-48116756D01*
X87399508Y-47478472D01*
X87203579Y-47242455D01*
X86761046Y-46765680D01*
X86374940Y-46438276D01*
X86003680Y-46236159D01*
X85605685Y-46135245D01*
X85250688Y-46111302D01*
X84804618Y-46129360D01*
G04 #@! TO.C,proMicro1*
D13*
X189188044Y-36846583D02*
X188388044Y-36846583D01*
X188388044Y-37037060D01*
X188426140Y-37151345D01*
X188502330Y-37227536D01*
X188578520Y-37265631D01*
X188730901Y-37303726D01*
X188845187Y-37303726D01*
X188997568Y-37265631D01*
X189073759Y-37227536D01*
X189149949Y-37151345D01*
X189188044Y-37037060D01*
X189188044Y-36846583D01*
X188464235Y-37608488D02*
X188426140Y-37646583D01*
X188388044Y-37722774D01*
X188388044Y-37913250D01*
X188426140Y-37989440D01*
X188464235Y-38027536D01*
X188540425Y-38065631D01*
X188616616Y-38065631D01*
X188730901Y-38027536D01*
X189188044Y-37570393D01*
X189188044Y-38065631D01*
X179028044Y-36846583D02*
X178228044Y-36846583D01*
X178228044Y-37037060D01*
X178266140Y-37151345D01*
X178342330Y-37227536D01*
X178418520Y-37265631D01*
X178570901Y-37303726D01*
X178685187Y-37303726D01*
X178837568Y-37265631D01*
X178913759Y-37227536D01*
X178989949Y-37151345D01*
X179028044Y-37037060D01*
X179028044Y-36846583D01*
X178228044Y-37798964D02*
X178228044Y-37875155D01*
X178266140Y-37951345D01*
X178304235Y-37989440D01*
X178380425Y-38027536D01*
X178532806Y-38065631D01*
X178723282Y-38065631D01*
X178875663Y-38027536D01*
X178951854Y-37989440D01*
X178989949Y-37951345D01*
X179028044Y-37875155D01*
X179028044Y-37798964D01*
X178989949Y-37722774D01*
X178951854Y-37684679D01*
X178875663Y-37646583D01*
X178723282Y-37608488D01*
X178532806Y-37608488D01*
X178380425Y-37646583D01*
X178304235Y-37684679D01*
X178266140Y-37722774D01*
X178228044Y-37798964D01*
X181568044Y-36846583D02*
X180768044Y-36846583D01*
X180768044Y-37037060D01*
X180806140Y-37151345D01*
X180882330Y-37227536D01*
X180958520Y-37265631D01*
X181110901Y-37303726D01*
X181225187Y-37303726D01*
X181377568Y-37265631D01*
X181453759Y-37227536D01*
X181529949Y-37151345D01*
X181568044Y-37037060D01*
X181568044Y-36846583D01*
X181568044Y-38065631D02*
X181568044Y-37608488D01*
X181568044Y-37837060D02*
X180768044Y-37837060D01*
X180882330Y-37760869D01*
X180958520Y-37684679D01*
X180996616Y-37608488D01*
X183346140Y-36827536D02*
X183308044Y-36751345D01*
X183308044Y-36637060D01*
X183346140Y-36522774D01*
X183422330Y-36446583D01*
X183498520Y-36408488D01*
X183650901Y-36370393D01*
X183765187Y-36370393D01*
X183917568Y-36408488D01*
X183993759Y-36446583D01*
X184069949Y-36522774D01*
X184108044Y-36637060D01*
X184108044Y-36713250D01*
X184069949Y-36827536D01*
X184031854Y-36865631D01*
X183765187Y-36865631D01*
X183765187Y-36713250D01*
X184108044Y-37208488D02*
X183308044Y-37208488D01*
X184108044Y-37665631D01*
X183308044Y-37665631D01*
X184108044Y-38046583D02*
X183308044Y-38046583D01*
X183308044Y-38237060D01*
X183346140Y-38351345D01*
X183422330Y-38427536D01*
X183498520Y-38465631D01*
X183650901Y-38503726D01*
X183765187Y-38503726D01*
X183917568Y-38465631D01*
X183993759Y-38427536D01*
X184069949Y-38351345D01*
X184108044Y-38237060D01*
X184108044Y-38046583D01*
X185886140Y-36827536D02*
X185848044Y-36751345D01*
X185848044Y-36637060D01*
X185886140Y-36522774D01*
X185962330Y-36446583D01*
X186038520Y-36408488D01*
X186190901Y-36370393D01*
X186305187Y-36370393D01*
X186457568Y-36408488D01*
X186533759Y-36446583D01*
X186609949Y-36522774D01*
X186648044Y-36637060D01*
X186648044Y-36713250D01*
X186609949Y-36827536D01*
X186571854Y-36865631D01*
X186305187Y-36865631D01*
X186305187Y-36713250D01*
X186648044Y-37208488D02*
X185848044Y-37208488D01*
X186648044Y-37665631D01*
X185848044Y-37665631D01*
X186648044Y-38046583D02*
X185848044Y-38046583D01*
X185848044Y-38237060D01*
X185886140Y-38351345D01*
X185962330Y-38427536D01*
X186038520Y-38465631D01*
X186190901Y-38503726D01*
X186305187Y-38503726D01*
X186457568Y-38465631D01*
X186533759Y-38427536D01*
X186609949Y-38351345D01*
X186648044Y-38237060D01*
X186648044Y-38046583D01*
X176488044Y-36846583D02*
X175688044Y-36846583D01*
X175688044Y-37037060D01*
X175726140Y-37151345D01*
X175802330Y-37227536D01*
X175878520Y-37265631D01*
X176030901Y-37303726D01*
X176145187Y-37303726D01*
X176297568Y-37265631D01*
X176373759Y-37227536D01*
X176449949Y-37151345D01*
X176488044Y-37037060D01*
X176488044Y-36846583D01*
X175954711Y-37989440D02*
X176488044Y-37989440D01*
X175649949Y-37798964D02*
X176221378Y-37608488D01*
X176221378Y-38103726D01*
X173871854Y-37303726D02*
X173909949Y-37265631D01*
X173948044Y-37151345D01*
X173948044Y-37075155D01*
X173909949Y-36960869D01*
X173833759Y-36884679D01*
X173757568Y-36846583D01*
X173605187Y-36808488D01*
X173490901Y-36808488D01*
X173338520Y-36846583D01*
X173262330Y-36884679D01*
X173186140Y-36960869D01*
X173148044Y-37075155D01*
X173148044Y-37151345D01*
X173186140Y-37265631D01*
X173224235Y-37303726D01*
X173148044Y-37989440D02*
X173148044Y-37837060D01*
X173186140Y-37760869D01*
X173224235Y-37722774D01*
X173338520Y-37646583D01*
X173490901Y-37608488D01*
X173795663Y-37608488D01*
X173871854Y-37646583D01*
X173909949Y-37684679D01*
X173948044Y-37760869D01*
X173948044Y-37913250D01*
X173909949Y-37989440D01*
X173871854Y-38027536D01*
X173795663Y-38065631D01*
X173605187Y-38065631D01*
X173528997Y-38027536D01*
X173490901Y-37989440D01*
X173452806Y-37913250D01*
X173452806Y-37760869D01*
X173490901Y-37684679D01*
X173528997Y-37646583D01*
X173605187Y-37608488D01*
X171408044Y-36846583D02*
X170608044Y-36846583D01*
X170608044Y-37037060D01*
X170646140Y-37151345D01*
X170722330Y-37227536D01*
X170798520Y-37265631D01*
X170950901Y-37303726D01*
X171065187Y-37303726D01*
X171217568Y-37265631D01*
X171293759Y-37227536D01*
X171369949Y-37151345D01*
X171408044Y-37037060D01*
X171408044Y-36846583D01*
X170608044Y-37570393D02*
X170608044Y-38103726D01*
X171408044Y-37760869D01*
X168448997Y-36884679D02*
X168448997Y-37151345D01*
X168868044Y-37265631D02*
X168868044Y-36884679D01*
X168068044Y-36884679D01*
X168068044Y-37265631D01*
X168068044Y-37951345D02*
X168068044Y-37798964D01*
X168106140Y-37722774D01*
X168144235Y-37684679D01*
X168258520Y-37608488D01*
X168410901Y-37570393D01*
X168715663Y-37570393D01*
X168791854Y-37608488D01*
X168829949Y-37646583D01*
X168868044Y-37722774D01*
X168868044Y-37875155D01*
X168829949Y-37951345D01*
X168791854Y-37989440D01*
X168715663Y-38027536D01*
X168525187Y-38027536D01*
X168448997Y-37989440D01*
X168410901Y-37951345D01*
X168372806Y-37875155D01*
X168372806Y-37722774D01*
X168410901Y-37646583D01*
X168448997Y-37608488D01*
X168525187Y-37570393D01*
X165908997Y-37113250D02*
X165947092Y-37227536D01*
X165985187Y-37265631D01*
X166061378Y-37303726D01*
X166175663Y-37303726D01*
X166251854Y-37265631D01*
X166289949Y-37227536D01*
X166328044Y-37151345D01*
X166328044Y-36846583D01*
X165528044Y-36846583D01*
X165528044Y-37113250D01*
X165566140Y-37189440D01*
X165604235Y-37227536D01*
X165680425Y-37265631D01*
X165756616Y-37265631D01*
X165832806Y-37227536D01*
X165870901Y-37189440D01*
X165908997Y-37113250D01*
X165908997Y-36846583D01*
X165794711Y-37989440D02*
X166328044Y-37989440D01*
X165489949Y-37798964D02*
X166061378Y-37608488D01*
X166061378Y-38103726D01*
X163368997Y-37113250D02*
X163407092Y-37227536D01*
X163445187Y-37265631D01*
X163521378Y-37303726D01*
X163635663Y-37303726D01*
X163711854Y-37265631D01*
X163749949Y-37227536D01*
X163788044Y-37151345D01*
X163788044Y-36846583D01*
X162988044Y-36846583D01*
X162988044Y-37113250D01*
X163026140Y-37189440D01*
X163064235Y-37227536D01*
X163140425Y-37265631D01*
X163216616Y-37265631D01*
X163292806Y-37227536D01*
X163330901Y-37189440D01*
X163368997Y-37113250D01*
X163368997Y-36846583D01*
X162988044Y-38027536D02*
X162988044Y-37646583D01*
X163368997Y-37608488D01*
X163330901Y-37646583D01*
X163292806Y-37722774D01*
X163292806Y-37913250D01*
X163330901Y-37989440D01*
X163368997Y-38027536D01*
X163445187Y-38065631D01*
X163635663Y-38065631D01*
X163711854Y-38027536D01*
X163749949Y-37989440D01*
X163788044Y-37913250D01*
X163788044Y-37722774D01*
X163749949Y-37646583D01*
X163711854Y-37608488D01*
X163368997Y-48035250D02*
X163407092Y-48149536D01*
X163445187Y-48187631D01*
X163521378Y-48225726D01*
X163635663Y-48225726D01*
X163711854Y-48187631D01*
X163749949Y-48149536D01*
X163788044Y-48073345D01*
X163788044Y-47768583D01*
X162988044Y-47768583D01*
X162988044Y-48035250D01*
X163026140Y-48111440D01*
X163064235Y-48149536D01*
X163140425Y-48187631D01*
X163216616Y-48187631D01*
X163292806Y-48149536D01*
X163330901Y-48111440D01*
X163368997Y-48035250D01*
X163368997Y-47768583D01*
X162988044Y-48911440D02*
X162988044Y-48759060D01*
X163026140Y-48682869D01*
X163064235Y-48644774D01*
X163178520Y-48568583D01*
X163330901Y-48530488D01*
X163635663Y-48530488D01*
X163711854Y-48568583D01*
X163749949Y-48606679D01*
X163788044Y-48682869D01*
X163788044Y-48835250D01*
X163749949Y-48911440D01*
X163711854Y-48949536D01*
X163635663Y-48987631D01*
X163445187Y-48987631D01*
X163368997Y-48949536D01*
X163330901Y-48911440D01*
X163292806Y-48835250D01*
X163292806Y-48682869D01*
X163330901Y-48606679D01*
X163368997Y-48568583D01*
X163445187Y-48530488D01*
X168448997Y-48035250D02*
X168487092Y-48149536D01*
X168525187Y-48187631D01*
X168601378Y-48225726D01*
X168715663Y-48225726D01*
X168791854Y-48187631D01*
X168829949Y-48149536D01*
X168868044Y-48073345D01*
X168868044Y-47768583D01*
X168068044Y-47768583D01*
X168068044Y-48035250D01*
X168106140Y-48111440D01*
X168144235Y-48149536D01*
X168220425Y-48187631D01*
X168296616Y-48187631D01*
X168372806Y-48149536D01*
X168410901Y-48111440D01*
X168448997Y-48035250D01*
X168448997Y-47768583D01*
X168068044Y-48492393D02*
X168068044Y-48987631D01*
X168372806Y-48720964D01*
X168372806Y-48835250D01*
X168410901Y-48911440D01*
X168448997Y-48949536D01*
X168525187Y-48987631D01*
X168715663Y-48987631D01*
X168791854Y-48949536D01*
X168829949Y-48911440D01*
X168868044Y-48835250D01*
X168868044Y-48606679D01*
X168829949Y-48530488D01*
X168791854Y-48492393D01*
X170988997Y-48035250D02*
X171027092Y-48149536D01*
X171065187Y-48187631D01*
X171141378Y-48225726D01*
X171255663Y-48225726D01*
X171331854Y-48187631D01*
X171369949Y-48149536D01*
X171408044Y-48073345D01*
X171408044Y-47768583D01*
X170608044Y-47768583D01*
X170608044Y-48035250D01*
X170646140Y-48111440D01*
X170684235Y-48149536D01*
X170760425Y-48187631D01*
X170836616Y-48187631D01*
X170912806Y-48149536D01*
X170950901Y-48111440D01*
X170988997Y-48035250D01*
X170988997Y-47768583D01*
X171408044Y-48987631D02*
X171408044Y-48530488D01*
X171408044Y-48759060D02*
X170608044Y-48759060D01*
X170722330Y-48682869D01*
X170798520Y-48606679D01*
X170836616Y-48530488D01*
X181148997Y-48092393D02*
X181148997Y-47825726D01*
X181568044Y-47825726D02*
X180768044Y-47825726D01*
X180768044Y-48206679D01*
X181034711Y-48854298D02*
X181568044Y-48854298D01*
X180729949Y-48663821D02*
X181301378Y-48473345D01*
X181301378Y-48968583D01*
X183308044Y-47292393D02*
X184108044Y-47559060D01*
X183308044Y-47825726D01*
X184031854Y-48549536D02*
X184069949Y-48511440D01*
X184108044Y-48397155D01*
X184108044Y-48320964D01*
X184069949Y-48206679D01*
X183993759Y-48130488D01*
X183917568Y-48092393D01*
X183765187Y-48054298D01*
X183650901Y-48054298D01*
X183498520Y-48092393D01*
X183422330Y-48130488D01*
X183346140Y-48206679D01*
X183308044Y-48320964D01*
X183308044Y-48397155D01*
X183346140Y-48511440D01*
X183384235Y-48549536D01*
X184031854Y-49349536D02*
X184069949Y-49311440D01*
X184108044Y-49197155D01*
X184108044Y-49120964D01*
X184069949Y-49006679D01*
X183993759Y-48930488D01*
X183917568Y-48892393D01*
X183765187Y-48854298D01*
X183650901Y-48854298D01*
X183498520Y-48892393D01*
X183422330Y-48930488D01*
X183346140Y-49006679D01*
X183308044Y-49120964D01*
X183308044Y-49197155D01*
X183346140Y-49311440D01*
X183384235Y-49349536D01*
X188426140Y-47749536D02*
X188388044Y-47673345D01*
X188388044Y-47559060D01*
X188426140Y-47444774D01*
X188502330Y-47368583D01*
X188578520Y-47330488D01*
X188730901Y-47292393D01*
X188845187Y-47292393D01*
X188997568Y-47330488D01*
X189073759Y-47368583D01*
X189149949Y-47444774D01*
X189188044Y-47559060D01*
X189188044Y-47635250D01*
X189149949Y-47749536D01*
X189111854Y-47787631D01*
X188845187Y-47787631D01*
X188845187Y-47635250D01*
X189188044Y-48130488D02*
X188388044Y-48130488D01*
X189188044Y-48587631D01*
X188388044Y-48587631D01*
X189188044Y-48968583D02*
X188388044Y-48968583D01*
X188388044Y-49159060D01*
X188426140Y-49273345D01*
X188502330Y-49349536D01*
X188578520Y-49387631D01*
X188730901Y-49425726D01*
X188845187Y-49425726D01*
X188997568Y-49387631D01*
X189073759Y-49349536D01*
X189149949Y-49273345D01*
X189188044Y-49159060D01*
X189188044Y-48968583D01*
X191728044Y-47806679D02*
X191347092Y-47540012D01*
X191728044Y-47349536D02*
X190928044Y-47349536D01*
X190928044Y-47654298D01*
X190966140Y-47730488D01*
X191004235Y-47768583D01*
X191080425Y-47806679D01*
X191194711Y-47806679D01*
X191270901Y-47768583D01*
X191308997Y-47730488D01*
X191347092Y-47654298D01*
X191347092Y-47349536D01*
X191499473Y-48111440D02*
X191499473Y-48492393D01*
X191728044Y-48035250D02*
X190928044Y-48301917D01*
X191728044Y-48568583D01*
X190928044Y-48759060D02*
X191728044Y-48949536D01*
X191156616Y-49101917D01*
X191728044Y-49254298D01*
X190928044Y-49444774D01*
X178608997Y-48092393D02*
X178608997Y-47825726D01*
X179028044Y-47825726D02*
X178228044Y-47825726D01*
X178228044Y-48206679D01*
X178228044Y-48892393D02*
X178228044Y-48511440D01*
X178608997Y-48473345D01*
X178570901Y-48511440D01*
X178532806Y-48587631D01*
X178532806Y-48778107D01*
X178570901Y-48854298D01*
X178608997Y-48892393D01*
X178685187Y-48930488D01*
X178875663Y-48930488D01*
X178951854Y-48892393D01*
X178989949Y-48854298D01*
X179028044Y-48778107D01*
X179028044Y-48587631D01*
X178989949Y-48511440D01*
X178951854Y-48473345D01*
X176068997Y-48092393D02*
X176068997Y-47825726D01*
X176488044Y-47825726D02*
X175688044Y-47825726D01*
X175688044Y-48206679D01*
X175688044Y-48854298D02*
X175688044Y-48701917D01*
X175726140Y-48625726D01*
X175764235Y-48587631D01*
X175878520Y-48511440D01*
X176030901Y-48473345D01*
X176335663Y-48473345D01*
X176411854Y-48511440D01*
X176449949Y-48549536D01*
X176488044Y-48625726D01*
X176488044Y-48778107D01*
X176449949Y-48854298D01*
X176411854Y-48892393D01*
X176335663Y-48930488D01*
X176145187Y-48930488D01*
X176068997Y-48892393D01*
X176030901Y-48854298D01*
X175992806Y-48778107D01*
X175992806Y-48625726D01*
X176030901Y-48549536D01*
X176068997Y-48511440D01*
X176145187Y-48473345D01*
X173528997Y-48092393D02*
X173528997Y-47825726D01*
X173948044Y-47825726D02*
X173148044Y-47825726D01*
X173148044Y-48206679D01*
X173148044Y-48435250D02*
X173148044Y-48968583D01*
X173948044Y-48625726D01*
X165908997Y-48035250D02*
X165947092Y-48149536D01*
X165985187Y-48187631D01*
X166061378Y-48225726D01*
X166175663Y-48225726D01*
X166251854Y-48187631D01*
X166289949Y-48149536D01*
X166328044Y-48073345D01*
X166328044Y-47768583D01*
X165528044Y-47768583D01*
X165528044Y-48035250D01*
X165566140Y-48111440D01*
X165604235Y-48149536D01*
X165680425Y-48187631D01*
X165756616Y-48187631D01*
X165832806Y-48149536D01*
X165870901Y-48111440D01*
X165908997Y-48035250D01*
X165908997Y-47768583D01*
X165604235Y-48530488D02*
X165566140Y-48568583D01*
X165528044Y-48644774D01*
X165528044Y-48835250D01*
X165566140Y-48911440D01*
X165604235Y-48949536D01*
X165680425Y-48987631D01*
X165756616Y-48987631D01*
X165870901Y-48949536D01*
X166328044Y-48492393D01*
X166328044Y-48987631D01*
X190928044Y-37135711D02*
X190928044Y-37592854D01*
X191728044Y-37364283D02*
X190928044Y-37364283D01*
X190928044Y-37783330D02*
X191728044Y-38316664D01*
X190928044Y-38316664D02*
X191728044Y-37783330D01*
X190928044Y-38773807D02*
X190928044Y-38849997D01*
X190966140Y-38926188D01*
X191004235Y-38964283D01*
X191080425Y-39002378D01*
X191232806Y-39040473D01*
X191423282Y-39040473D01*
X191575663Y-39002378D01*
X191651854Y-38964283D01*
X191689949Y-38926188D01*
X191728044Y-38849997D01*
X191728044Y-38773807D01*
X191689949Y-38697616D01*
X191651854Y-38659521D01*
X191575663Y-38621426D01*
X191423282Y-38583330D01*
X191232806Y-38583330D01*
X191080425Y-38621426D01*
X191004235Y-38659521D01*
X190966140Y-38697616D01*
X190928044Y-38773807D01*
X190889949Y-39954759D02*
X191918520Y-39269045D01*
X191728044Y-40221426D02*
X190928044Y-40221426D01*
X190928044Y-40411902D01*
X190966140Y-40526188D01*
X191042330Y-40602378D01*
X191118520Y-40640473D01*
X191270901Y-40678568D01*
X191385187Y-40678568D01*
X191537568Y-40640473D01*
X191613759Y-40602378D01*
X191689949Y-40526188D01*
X191728044Y-40411902D01*
X191728044Y-40221426D01*
X190928044Y-40945235D02*
X190928044Y-41440473D01*
X191232806Y-41173807D01*
X191232806Y-41288092D01*
X191270901Y-41364283D01*
X191308997Y-41402378D01*
X191385187Y-41440473D01*
X191575663Y-41440473D01*
X191651854Y-41402378D01*
X191689949Y-41364283D01*
X191728044Y-41288092D01*
X191728044Y-41059521D01*
X191689949Y-40983330D01*
X191651854Y-40945235D01*
X186629949Y-47404726D02*
X186668044Y-47519012D01*
X186668044Y-47709488D01*
X186629949Y-47785679D01*
X186591854Y-47823774D01*
X186515663Y-47861869D01*
X186439473Y-47861869D01*
X186363282Y-47823774D01*
X186325187Y-47785679D01*
X186287092Y-47709488D01*
X186248997Y-47557107D01*
X186210901Y-47480917D01*
X186172806Y-47442821D01*
X186096616Y-47404726D01*
X186020425Y-47404726D01*
X185944235Y-47442821D01*
X185906140Y-47480917D01*
X185868044Y-47557107D01*
X185868044Y-47747583D01*
X185906140Y-47861869D01*
X185868044Y-48090440D02*
X185868044Y-48547583D01*
X186668044Y-48319012D02*
X185868044Y-48319012D01*
G04 #@! TO.C,U_VR_IC1*
X127894316Y-38066340D02*
X127894316Y-38875864D01*
X127846697Y-38971102D01*
X127799078Y-39018721D01*
X127703840Y-39066340D01*
X127513363Y-39066340D01*
X127418125Y-39018721D01*
X127370506Y-38971102D01*
X127322887Y-38875864D01*
X127322887Y-38066340D01*
X127084792Y-39161579D02*
X126322887Y-39161579D01*
X126227649Y-38066340D02*
X125894316Y-39066340D01*
X125560982Y-38066340D01*
X124656220Y-39066340D02*
X124989554Y-38590150D01*
X125227649Y-39066340D02*
X125227649Y-38066340D01*
X124846697Y-38066340D01*
X124751459Y-38113960D01*
X124703840Y-38161579D01*
X124656220Y-38256817D01*
X124656220Y-38399674D01*
X124703840Y-38494912D01*
X124751459Y-38542531D01*
X124846697Y-38590150D01*
X125227649Y-38590150D01*
X124465744Y-39161579D02*
X123703840Y-39161579D01*
X123465744Y-39066340D02*
X123465744Y-38066340D01*
X122418125Y-38971102D02*
X122465744Y-39018721D01*
X122608601Y-39066340D01*
X122703840Y-39066340D01*
X122846697Y-39018721D01*
X122941935Y-38923483D01*
X122989554Y-38828245D01*
X123037173Y-38637769D01*
X123037173Y-38494912D01*
X122989554Y-38304436D01*
X122941935Y-38209198D01*
X122846697Y-38113960D01*
X122703840Y-38066340D01*
X122608601Y-38066340D01*
X122465744Y-38113960D01*
X122418125Y-38161579D01*
X121465744Y-39066340D02*
X122037173Y-39066340D01*
X121751459Y-39066340D02*
X121751459Y-38066340D01*
X121846697Y-38209198D01*
X121941935Y-38304436D01*
X122037173Y-38352055D01*
G04 #@! TO.C,J_Audio_F1*
X80317600Y-33629560D02*
X81031886Y-33629560D01*
X81174743Y-33581941D01*
X81269981Y-33486703D01*
X81317600Y-33343846D01*
X81317600Y-33248608D01*
X81412839Y-33867656D02*
X81412839Y-34629560D01*
X81031886Y-34820037D02*
X81031886Y-35296227D01*
X81317600Y-34724799D02*
X80317600Y-35058132D01*
X81317600Y-35391465D01*
X80650934Y-36153370D02*
X81317600Y-36153370D01*
X80650934Y-35724799D02*
X81174743Y-35724799D01*
X81269981Y-35772418D01*
X81317600Y-35867656D01*
X81317600Y-36010513D01*
X81269981Y-36105751D01*
X81222362Y-36153370D01*
X81317600Y-37058132D02*
X80317600Y-37058132D01*
X81269981Y-37058132D02*
X81317600Y-36962894D01*
X81317600Y-36772418D01*
X81269981Y-36677180D01*
X81222362Y-36629560D01*
X81127124Y-36581941D01*
X80841410Y-36581941D01*
X80746172Y-36629560D01*
X80698553Y-36677180D01*
X80650934Y-36772418D01*
X80650934Y-36962894D01*
X80698553Y-37058132D01*
X81317600Y-37534322D02*
X80650934Y-37534322D01*
X80317600Y-37534322D02*
X80365220Y-37486703D01*
X80412839Y-37534322D01*
X80365220Y-37581941D01*
X80317600Y-37534322D01*
X80412839Y-37534322D01*
X81317600Y-38153370D02*
X81269981Y-38058132D01*
X81222362Y-38010513D01*
X81127124Y-37962894D01*
X80841410Y-37962894D01*
X80746172Y-38010513D01*
X80698553Y-38058132D01*
X80650934Y-38153370D01*
X80650934Y-38296227D01*
X80698553Y-38391465D01*
X80746172Y-38439084D01*
X80841410Y-38486703D01*
X81127124Y-38486703D01*
X81222362Y-38439084D01*
X81269981Y-38391465D01*
X81317600Y-38296227D01*
X81317600Y-38153370D01*
X81412839Y-38677180D02*
X81412839Y-39439084D01*
X80793791Y-40010513D02*
X80793791Y-39677180D01*
X81317600Y-39677180D02*
X80317600Y-39677180D01*
X80317600Y-40153370D01*
X81317600Y-41058132D02*
X81317600Y-40486703D01*
X81317600Y-40772418D02*
X80317600Y-40772418D01*
X80460458Y-40677180D01*
X80555696Y-40581941D01*
X80603315Y-40486703D01*
G04 #@! TD*
M02*
