<?xml version="1.0"?>
<!-- Generated by SVGo -->
<svg width="152.877mm" height="112.396mm"
     viewBox="0.000 0.000 152.877 112.396"
     xmlns="http://www.w3.org/2000/svg" 
     xmlns:xlink="http://www.w3.org/1999/xlink">
<polygon points="147.877,107.395 5.001,107.395 5.001,5.001 147.877,5.001" style="fill:none;stroke-width:0.050000mm;stroke:black"/>
<polygon points="16.251,91.469 16.251,104.269 31.851,104.269 31.851,91.469" style="fill:none;stroke-width:0.050000mm;stroke:black"/>
<polygon points="35.301,91.469 35.301,104.269 50.901,104.269 50.901,91.469" style="fill:none;stroke-width:0.050000mm;stroke:black"/>
<polygon points="54.351,86.707 54.351,99.507 69.951,99.507 69.951,86.707" style="fill:none;stroke-width:0.050000mm;stroke:black"/>
<polygon points="92.451,86.707 92.451,99.507 108.051,99.507 108.051,86.707" style="fill:none;stroke-width:0.050000mm;stroke:black"/>
<polygon points="73.401,84.325 73.401,97.126 89.001,97.126 89.001,84.325" style="fill:none;stroke-width:0.050000mm;stroke:black"/>
<polygon points="11.488,72.419 11.488,85.219 27.088,85.219 27.088,72.419" style="fill:none;stroke-width:0.050000mm;stroke:black"/>
<polygon points="35.301,72.419 35.301,85.219 50.901,85.219 50.901,72.419" style="fill:none;stroke-width:0.050000mm;stroke:black"/>
<polygon points="111.501,70.038 111.501,82.838 127.101,82.838 127.101,70.038" style="fill:none;stroke-width:0.050000mm;stroke:black"/>
<polygon points="54.351,67.657 54.351,80.457 69.951,80.457 69.951,67.657" style="fill:none;stroke-width:0.050000mm;stroke:black"/>
<polygon points="92.451,67.657 92.451,80.457 108.051,80.457 108.051,67.657" style="fill:none;stroke-width:0.050000mm;stroke:black"/>
<polygon points="131.951,63.876 131.951,79.476 144.751,79.476 144.751,63.876" style="fill:none;stroke-width:0.050000mm;stroke:black"/>
<polygon points="73.401,65.276 73.401,78.076 89.001,78.076 89.001,65.276" style="fill:none;stroke-width:0.050000mm;stroke:black"/>
<polygon points="11.488,53.369 11.488,66.169 27.088,66.169 27.088,53.369" style="fill:none;stroke-width:0.050000mm;stroke:black"/>
<polygon points="35.301,53.369 35.301,66.169 50.901,66.169 50.901,53.369" style="fill:none;stroke-width:0.050000mm;stroke:black"/>
<polygon points="111.501,50.988 111.501,63.788 127.101,63.788 127.101,50.988" style="fill:none;stroke-width:0.050000mm;stroke:black"/>
<polygon points="54.351,48.607 54.351,61.407 69.951,61.407 69.951,48.607" style="fill:none;stroke-width:0.050000mm;stroke:black"/>
<polygon points="92.451,48.607 92.451,61.407 108.051,61.407 108.051,48.607" style="fill:none;stroke-width:0.050000mm;stroke:black"/>
<polygon points="73.401,46.226 73.401,59.026 89.001,59.026 89.001,46.226" style="fill:none;stroke-width:0.050000mm;stroke:black"/>
<polygon points="131.951,35.301 131.951,50.901 144.751,50.901 144.751,35.301" style="fill:none;stroke-width:0.050000mm;stroke:black"/>
<polygon points="11.488,34.319 11.488,47.119 27.088,47.119 27.088,34.319" style="fill:none;stroke-width:0.050000mm;stroke:black"/>
<polygon points="35.301,34.319 35.301,47.119 50.901,47.119 50.901,34.319" style="fill:none;stroke-width:0.050000mm;stroke:black"/>
<polygon points="111.501,31.938 111.501,44.738 127.101,44.738 127.101,31.938" style="fill:none;stroke-width:0.050000mm;stroke:black"/>
<polygon points="54.351,29.557 54.351,42.357 69.951,42.357 69.951,29.557" style="fill:none;stroke-width:0.050000mm;stroke:black"/>
<polygon points="92.451,29.557 92.451,42.357 108.051,42.357 108.051,29.557" style="fill:none;stroke-width:0.050000mm;stroke:black"/>
<polygon points="73.401,27.176 73.401,39.976 89.001,39.976 89.001,27.176" style="fill:none;stroke-width:0.050000mm;stroke:black"/>
<polygon points="11.488,15.269 11.488,28.069 27.088,28.069 27.088,15.269" style="fill:none;stroke-width:0.050000mm;stroke:black"/>
<polygon points="35.301,15.269 35.301,28.069 50.901,28.069 50.901,15.269" style="fill:none;stroke-width:0.050000mm;stroke:black"/>
<polygon points="111.501,12.888 111.501,25.688 127.101,25.688 127.101,12.888" style="fill:none;stroke-width:0.050000mm;stroke:black"/>
<polygon points="130.551,12.888 130.551,25.688 146.151,25.688 146.151,12.888" style="fill:none;stroke-width:0.050000mm;stroke:black"/>
<polygon points="54.351,10.507 54.351,23.307 69.951,23.307 69.951,10.507" style="fill:none;stroke-width:0.050000mm;stroke:black"/>
<polygon points="92.451,10.507 92.451,23.307 108.051,23.307 108.051,10.507" style="fill:none;stroke-width:0.050000mm;stroke:black"/>
<polygon points="73.401,8.126 73.401,20.926 89.001,20.926 89.001,8.126" style="fill:none;stroke-width:0.050000mm;stroke:black"/>
</svg>
