<?xml version="1.0" encoding="UTF-8" standalone="no"?>
<!-- Created with Inkscape (http://www.inkscape.org/) -->

<svg
   xmlns:dc="http://purl.org/dc/elements/1.1/"
   xmlns:cc="http://creativecommons.org/ns#"
   xmlns:rdf="http://www.w3.org/1999/02/22-rdf-syntax-ns#"
   xmlns:svg="http://www.w3.org/2000/svg"
   xmlns="http://www.w3.org/2000/svg"
   xmlns:sodipodi="http://sodipodi.sourceforge.net/DTD/sodipodi-0.dtd"
   xmlns:inkscape="http://www.inkscape.org/namespaces/inkscape"
   width="210mm"
   height="297mm"
   viewBox="0 0 210 297"
   version="1.1"
   id="svg7170"
   inkscape:version="0.92.3 (2405546, 2018-03-11)"
   sodipodi:docname="bottom.svg">
  <defs
     id="defs7164" />
  <sodipodi:namedview
     id="base"
     pagecolor="#ffffff"
     bordercolor="#666666"
     borderopacity="1.0"
     inkscape:pageopacity="0.0"
     inkscape:pageshadow="2"
     inkscape:zoom="0.35"
     inkscape:cx="400"
     inkscape:cy="560"
     inkscape:document-units="mm"
     inkscape:current-layer="layer1"
     showgrid="false"
     inkscape:window-width="1366"
     inkscape:window-height="705"
     inkscape:window-x="-8"
     inkscape:window-y="-8"
     inkscape:window-maximized="1" />
  <metadata
     id="metadata7167">
    <rdf:RDF>
      <cc:Work
         rdf:about="">
        <dc:format>image/svg+xml</dc:format>
        <dc:type
           rdf:resource="http://purl.org/dc/dcmitype/StillImage" />
        <dc:title></dc:title>
      </cc:Work>
    </rdf:RDF>
  </metadata>
  <g
     inkscape:label="Layer 1"
     inkscape:groupmode="layer"
     id="layer1">
    <g
       id="g7047"
       inkscape:label="0"
       transform="matrix(0.26458333,0,0,0.26458333,-9.1953816,-76.43009)">
      <path
         id="path7025"
         style="fill:none;stroke:#000000;stroke-linecap:round"
         d="M 482.71064,942.88557 181.98127,1083.0886 a 26.456693,26.456693 0 0 1 -35.1571,-12.7978 L 48.691055,859.84186 A 26.456693,26.456693 0 0 1 61.488701,824.68259 L 187.7636,765.80466 A 26.456693,26.456693 0 0 0 203.04,741.82638 v -298.162 a 26.456693,26.456693 0 0 1 26.45669,-26.45669 h 555.91862 a 26.456693,26.456693 0 0 1 26.45669,26.45669 v 470.28661 a 26.456693,26.456693 0 0 1 -26.45669,26.4567 H 493.88979 a 27.242781,27.242781 0 0 0 -11.17915,2.47788 z"
         inkscape:connector-curvature="0" />
      <path
         id="path7027"
         style="fill:none;stroke:#000000;stroke-linecap:round"
         d="m 793.8668,440.88218 a 5.669291,5.669291 0 1 0 -11.33858,0 5.669291,5.669291 0 1 0 11.33858,0 z"
         inkscape:connector-curvature="0" />
      <path
         id="path7029"
         style="fill:none;stroke:#000000;stroke-linecap:round"
         d="m 434.54929,434.00768 a 5.669291,5.669291 0 1 0 -11.33858,0 5.669291,5.669291 0 1 0 11.33858,0 z"
         inkscape:connector-curvature="0" />
      <path
         id="path7031"
         style="fill:none;stroke:#000000;stroke-linecap:round"
         d="m 232.40778,440.88218 a 5.669291,5.669291 0 1 0 -11.33858,0 5.669291,5.669291 0 1 0 11.33858,0 z"
         inkscape:connector-curvature="0" />
      <path
         id="path7033"
         style="fill:none;stroke:#000000;stroke-linecap:round"
         d="m 74.642892,847.31609 a 5.669291,5.669291 0 1 0 -11.338582,0 5.669291,5.669291 0 1 0 11.338582,0 z"
         inkscape:connector-curvature="0" />
      <path
         id="path7035"
         style="fill:none;stroke:#000000;stroke-linecap:round"
         d="m 175.12707,1062.8099 a 5.669295,5.669295 0 1 0 -11.33859,0 5.669295,5.669295 0 1 0 11.33859,0 z"
         inkscape:connector-curvature="0" />
      <path
         id="path7037"
         style="fill:none;stroke:#000000;stroke-linecap:round"
         d="m 489.97009,923.60768 a 5.669291,5.669291 0 1 0 -11.33858,0 5.669291,5.669291 0 1 0 11.33858,0 z"
         inkscape:connector-curvature="0" />
      <path
         id="path7039"
         style="fill:none;stroke:#000000;stroke-linecap:round"
         d="m 793.8668,910.73319 a 5.669291,5.669291 0 1 0 -11.33858,0 5.669291,5.669291 0 1 0 11.33858,0 z"
         inkscape:connector-curvature="0" />
      <path
         id="path7041"
         style="fill:none;stroke:#000000;stroke-linecap:round"
         d="m 308.0315,517.79528 a 5.669295,5.669295 0 1 0 -11.33859,0 5.669295,5.669295 0 1 0 11.33859,0 z"
         inkscape:connector-curvature="0" />
      <path
         id="path7043"
         style="fill:none;stroke:#000000;stroke-linecap:round"
         d="m 723.77953,517.79528 a 5.6692915,5.6692915 0 1 0 -11.33858,0 5.6692915,5.6692915 0 1 0 11.33858,0 z"
         inkscape:connector-curvature="0" />
      <path
         id="path7045"
         style="fill:none;stroke:#000000;stroke-linecap:round"
         d="m 194.64567,971.33858 a 5.669291,5.669291 0 1 0 -11.33858,0 5.669291,5.669291 0 1 0 11.33858,0 z"
         inkscape:connector-curvature="0" />
    </g>
  </g>
</svg>
