<?xml version="1.0" encoding="UTF-8" standalone="no"?>
<!-- Created with Inkscape (http://www.inkscape.org/) -->

<svg
   xmlns:dc="http://purl.org/dc/elements/1.1/"
   xmlns:cc="http://creativecommons.org/ns#"
   xmlns:rdf="http://www.w3.org/1999/02/22-rdf-syntax-ns#"
   xmlns:svg="http://www.w3.org/2000/svg"
   xmlns="http://www.w3.org/2000/svg"
   xmlns:sodipodi="http://sodipodi.sourceforge.net/DTD/sodipodi-0.dtd"
   xmlns:inkscape="http://www.inkscape.org/namespaces/inkscape"
   width="210mm"
   height="297mm"
   viewBox="0 0 210 297"
   version="1.1"
   id="svg1775"
   inkscape:version="0.92.3 (2405546, 2018-03-11)"
   sodipodi:docname="bottom_space_left.svg">
  <defs
     id="defs1769" />
  <sodipodi:namedview
     id="base"
     pagecolor="#ffffff"
     bordercolor="#666666"
     borderopacity="1.0"
     inkscape:pageopacity="0.0"
     inkscape:pageshadow="2"
     inkscape:zoom="0.49497475"
     inkscape:cx="276.212"
     inkscape:cy="662.83277"
     inkscape:document-units="mm"
     inkscape:current-layer="layer1"
     showgrid="false"
     inkscape:window-width="1366"
     inkscape:window-height="705"
     inkscape:window-x="-8"
     inkscape:window-y="-8"
     inkscape:window-maximized="1" />
  <metadata
     id="metadata1772">
    <rdf:RDF>
      <cc:Work
         rdf:about="">
        <dc:format>image/svg+xml</dc:format>
        <dc:type
           rdf:resource="http://purl.org/dc/dcmitype/StillImage" />
        <dc:title />
      </cc:Work>
    </rdf:RDF>
  </metadata>
  <g
     inkscape:label="Layer 1"
     inkscape:groupmode="layer"
     id="layer1"
     style="display:inline">
    <path
       inkscape:connector-curvature="0"
       d="m 9.0896188,181.92164 a 2.4725596,2.4725596 0 1 1 4.9451192,0 2.4725596,2.4725596 0 1 1 -4.9451192,0 z"
       style="fill:none;stroke:#000000;stroke-width:0.43613192;stroke-linecap:round"
       id="path6922" />
    <path
       sodipodi:nodetypes="ccccccccccccccccccccccc"
       inkscape:connector-curvature="0"
       d="m 75.303189,57.533717 -0.01381,2.923013 -3.91101,0.02162 -54.215508,0.08876 -2.974549,2.840913 V 171.35802 l 9.524999,9.525 h 69.240392 l 78.168497,36.44394 4.21894,-1.53418 21.68398,-46.50232 -1.5367,-4.21895 -33.09112,-15.4305 h -4.9022 V 63.408014 l -3.2004,-3.175 h -12.065 v -1.777997 h -17.31214 l 0.0473,2.014233 -33.19257,-0.01908 -2.54513,0.0066 -0.0259,-2.937145"
       style="fill:none;stroke:#000000;stroke-width:0.26458332;stroke-linecap:round"
       id="path6924" />
    <path
       inkscape:connector-curvature="0"
       d="m 9.0896188,57.606892 a 2.4725596,2.4725596 0 1 1 4.9451192,0 2.4725596,2.4725596 0 1 1 -4.9451192,0 z"
       style="fill:none;stroke:#000000;stroke-width:0.43613192;stroke-linecap:round"
       id="path6926" />
    <path
       sodipodi:nodetypes="cccsssssssssssssscccccccc"
       inkscape:connector-curvature="0"
       d="m 75.303189,57.533717 -4.00662,-0.01934 -5.625351,-6.17135 H 12.298302 c -3.8659939,0 -6.9999993,3.134005 -6.9999993,6.999999 V 182.77302 c 0,3.866 3.1340054,7 6.9999993,7 h 77.132793 c 1.021977,0 2.031558,0.22378 2.957816,0.65561 l 79.567979,37.09538 c 3.50372,1.63345 7.66824,0.1175 9.30198,-3.38609 l 25.96439,-55.68128 c 1.63386,-3.50386 0.11786,-7.6688 -3.38605,-9.30256 l -33.41023,-15.57812 c -2.46565,-1.14965 -4.04188,-3.62375 -4.04188,-6.34425 V 58.343016 c 0,-3.865994 -3.134,-6.999999 -7,-6.999999 h -8.113 l -13.8797,5.642184 h -7.3434 l -13.8797,-5.642184 h -15.81725 l -8.37175,6.171351 -2.779094,0.0052 v 0"
       style="fill:none;stroke:#000000;stroke-width:0.26458332;stroke-linecap:round"
       id="path6928" />
    <path
       inkscape:connector-curvature="0"
       d="m 172.79808,222.1586 a 2.47232,2.47232 0 1 1 4.94464,0 2.47232,2.47232 0 1 1 -4.94464,0 z"
       style="fill:none;stroke:#000000;stroke-width:0.43608844;stroke-linecap:round"
       id="path6930" />
    <path
       inkscape:connector-curvature="0"
       d="m 89.496016,185.32801 a 2.4721655,2.4721655 0 1 1 4.944331,0 2.4721655,2.4721655 0 1 1 -4.944331,0 z"
       style="fill:none;stroke:#000000;stroke-width:0.43606248;stroke-linecap:round"
       id="path6932" />
    <path
       inkscape:connector-curvature="0"
       d="m 199.38571,165.14253 a 2.471125,2.471125 0 1 1 4.94225,0 2.471125,2.471125 0 1 1 -4.94225,0 z"
       style="fill:none;stroke:#000000;stroke-width:0.43587837;stroke-linecap:round"
       id="path6934" />
    <path
       inkscape:connector-curvature="0"
       d="m 104.15904,55.788014 a 2.47256,2.47256 0 1 1 4.94512,0 2.47256,2.47256 0 1 1 -4.94512,0 z"
       style="fill:none;stroke:#000000;stroke-width:0.43613192;stroke-linecap:round"
       id="path6936" />
    <path
       inkscape:connector-curvature="0"
       d="m 157.64375,57.606892 a 2.471125,2.471125 0 1 1 4.94225,0 2.471125,2.471125 0 1 1 -4.94225,0 z"
       style="fill:none;stroke:#000000;stroke-width:0.43587837;stroke-linecap:round"
       id="path6938" />
  </g>
</svg>
