<?xml version="1.0" encoding="UTF-8" standalone="no"?>
<!-- Created with Inkscape (http://www.inkscape.org/) -->

<svg
   xmlns:dc="http://purl.org/dc/elements/1.1/"
   xmlns:cc="http://creativecommons.org/ns#"
   xmlns:rdf="http://www.w3.org/1999/02/22-rdf-syntax-ns#"
   xmlns:svg="http://www.w3.org/2000/svg"
   xmlns="http://www.w3.org/2000/svg"
   xmlns:sodipodi="http://sodipodi.sourceforge.net/DTD/sodipodi-0.dtd"
   xmlns:inkscape="http://www.inkscape.org/namespaces/inkscape"
   width="210mm"
   height="297mm"
   viewBox="0 0 210 297"
   version="1.1"
   id="svg7170"
   inkscape:version="0.92.2 (5c3e80d, 2017-08-06)"
   sodipodi:docname="bottom.svg">
  <defs
     id="defs7164" />
  <sodipodi:namedview
     id="base"
     pagecolor="#ffffff"
     bordercolor="#666666"
     borderopacity="1.0"
     inkscape:pageopacity="0.0"
     inkscape:pageshadow="2"
     inkscape:zoom="0.90509668"
     inkscape:cx="197.71448"
     inkscape:cy="707.73708"
     inkscape:document-units="mm"
     inkscape:current-layer="layer1"
     showgrid="false"
     inkscape:window-width="1366"
     inkscape:window-height="705"
     inkscape:window-x="-8"
     inkscape:window-y="-8"
     inkscape:window-maximized="1" />
  <metadata
     id="metadata7167">
    <rdf:RDF>
      <cc:Work
         rdf:about="">
        <dc:format>image/svg+xml</dc:format>
        <dc:type
           rdf:resource="http://purl.org/dc/dcmitype/StillImage" />
        <dc:title />
      </cc:Work>
    </rdf:RDF>
  </metadata>
  <g
     inkscape:label="Layer 1"
     inkscape:groupmode="layer"
     id="layer1">
    <path
       inkscape:connector-curvature="0"
       d="M 118.52181,173.04171 38.953829,210.1371 a 6.9999999,6.9999999 0 0 1 -9.301983,-3.38609 L 3.6874599,151.06973 a 6.9999999,6.9999999 0 0 1 3.3860438,-9.30255 L 40.483737,126.18906 a 6.9999999,6.9999999 0 0 0 4.041881,-6.34426 V 40.956109 A 6.9999999,6.9999999 0 0 1 51.525617,33.95611 H 198.61242 a 6.9999999,6.9999999 0 0 1 7,6.999999 V 165.38611 a 6.9999999,6.9999999 0 0 1 -7,7 h -77.1328 a 7.2079857,7.2079857 0 0 0 -2.95781,0.6556 z"
       style="fill:none;stroke:#000000;stroke-width:0.26458332;stroke-linecap:round"
       id="path7025" />
    <path
       inkscape:connector-curvature="0"
       d="m 200.84854,40.219985 a 1.5,1.5 0 1 0 -3,0 1.5,1.5 0 1 0 3,0 z"
       style="fill:none;stroke:#000000;stroke-width:0.26458332;stroke-linecap:round"
       id="path7027" />
    <path
       inkscape:connector-curvature="0"
       d="m 105.77912,38.401107 a 1.5,1.5 0 1 0 -3,0 1.5,1.5 0 1 0 3,0 z"
       style="fill:none;stroke:#000000;stroke-width:0.26458332;stroke-linecap:round"
       id="path7029" />
    <path
       inkscape:connector-curvature="0"
       d="m 52.295843,40.219985 a 1.5,1.5 0 1 0 -3,0 1.5,1.5 0 1 0 3,0 z"
       style="fill:none;stroke:#000000;stroke-width:0.26458332;stroke-linecap:round"
       id="path7031" />
    <path
       inkscape:connector-curvature="0"
       d="m 10.553883,147.75562 a 1.4999999,1.4999999 0 1 0 -2.9999995,0 1.4999999,1.4999999 0 1 0 2.9999995,0 z"
       style="fill:none;stroke:#000000;stroke-width:0.26458332;stroke-linecap:round"
       id="path7033" />
    <path
       inkscape:connector-curvature="0"
       d="m 37.140322,204.77169 a 1.500001,1.500001 0 1 0 -3.000002,0 1.500001,1.500001 0 1 0 3.000002,0 z"
       style="fill:none;stroke:#000000;stroke-width:0.26458332;stroke-linecap:round"
       id="path7035" />
    <path
       inkscape:connector-curvature="0"
       d="m 120.44254,167.94111 a 1.5,1.5 0 1 0 -3,0 1.5,1.5 0 1 0 3,0 z"
       style="fill:none;stroke:#000000;stroke-width:0.26458332;stroke-linecap:round"
       id="path7037" />
    <path
       inkscape:connector-curvature="0"
       d="m 200.84854,164.53473 a 1.5,1.5 0 1 0 -3,0 1.5,1.5 0 1 0 3,0 z"
       style="fill:none;stroke:#000000;stroke-width:0.26458332;stroke-linecap:round"
       id="path7039" />
    <path
       style="fill:none;stroke:#000000;stroke-width:0.4041222;stroke-linecap:round"
       d="m 71.607118,57.421894 a 2.2979273,2.284269 0 0 0 -2.232478,2.285307 2.2979273,2.284269 0 1 0 4.595572,0 2.2979273,2.284269 0 0 0 -2.363094,-2.285307 z"
       id="path7041"
       inkscape:connector-curvature="0" />
    <path
       inkscape:connector-curvature="0"
       d="m 183.96972,59.702201 a 2.29739,2.2973888 0 1 0 -4.59478,0 2.29739,2.2973888 0 1 0 4.59478,0 z"
       style="fill:none;stroke:#000000;stroke-width:0.40523282;stroke-linecap:round"
       id="path7043" />
    <path
       inkscape:connector-curvature="0"
       d="m 42.304618,180.56991 a 1.4999999,1.4999999 0 1 0 -2.999999,0 1.4999999,1.4999999 0 1 0 2.999999,0 z"
       style="fill:none;stroke:#000000;stroke-width:0.26458332;stroke-linecap:round"
       id="path7045" />
  </g>
</svg>
