  0
SECTION
  2
HEADER
  9
$ACADVER
  1
AC1014
  9
$HANDSEED
  5
FFFF
  9
$MEASUREMENT
 70
     1
  0
ENDSEC
  0
SECTION
  2
TABLES
  0
TABLE
  2
VPORT
  5
8
330
0
100
AcDbSymbolTable
 70
     4
  0
VPORT
  5
2E
330
8
100
AcDbSymbolTableRecord
100
AcDbViewportTableRecord
  2
*ACTIVE
 70
     0
 10
0.0
 20
0.0
 11
1.0
 21
1.0
 12
210.0
 22
148.5
 13
0.0
 23
0.0
 14
10.0
 24
10.0
 15
10.0
 25
10.0
 16
0.0
 26
0.0
 36
1.0
 17
0.0
 27
0.0
 37
0.0
 40
341.0
 41
1.24
 42
50.0
 43
0.0
 44
0.0
 50
0.0
 51
0.0
 71
     0
 72
   100
 73
     1
 74
     3
 75
     0
 76
     0
 77
     0
 78
     0
  0
ENDTAB
  0
TABLE
  2
LTYPE
  5
5
330
0
100
AcDbSymbolTable
 70
     1
  0
LTYPE
  5
14
330
5
100
AcDbSymbolTableRecord
100
AcDbLinetypeTableRecord
  2
BYBLOCK
 70
     0
  3

 72
    65
 73
     0
 40
0.0
  0
LTYPE
  5
15
330
5
100
AcDbSymbolTableRecord
100
AcDbLinetypeTableRecord
  2
BYLAYER
 70
     0
  3

 72
    65
 73
     0
 40
0.0
  0
LTYPE
  5
16
330
5
100
AcDbSymbolTableRecord
100
AcDbLinetypeTableRecord
  2
CONTINUOUS
 70
     0
  3
Solid line
 72
    65
 73
     0
 40
0.0
  0
ENDTAB
  0
TABLE
  2
LAYER
  5
2
100
AcDbSymbolTable
 70
2
  0
LAYER
  5
50
100
AcDbSymbolTableRecord
100
AcDbLayerTableRecord
  2
0
 70
0
  6
CONTINUOUS
  0
LAYER
  5
51
100
AcDbSymbolTableRecord
100
AcDbLayerTableRecord
  2
Layer_1
 70
0
  6
CONTINUOUS
  0
ENDTAB
  0
TABLE
  2
STYLE
  5
3
330
0
100
AcDbSymbolTable
 70
     1
  0
STYLE
  5
11
330
3
100
AcDbSymbolTableRecord
100
AcDbTextStyleTableRecord
  2
STANDARD
 70
     0
 40
0.0
 41
1.0
 50
0.0
 71
     0
 42
2.5
  3
txt
  4

  0
ENDTAB
  0
TABLE
  2
VIEW
  5
6
330
0
100
AcDbSymbolTable
 70
     0
  0
ENDTAB
  0
TABLE
  2
UCS
  5
7
330
0
100
AcDbSymbolTable
 70
     0
  0
ENDTAB
  0
TABLE
  2
APPID
  5
9
330
0
100
AcDbSymbolTable
 70
     2
  0
APPID
  5
12
330
9
100
AcDbSymbolTableRecord
100
AcDbRegAppTableRecord
  2
ACAD
 70
     0
  0
ENDTAB
  0
TABLE
  2
DIMSTYLE
  5
A
330
0
100
AcDbSymbolTable
 70
     1
  0
DIMSTYLE
105
27
330
A
100
AcDbSymbolTableRecord
100
AcDbDimStyleTableRecord
  2
ISO-25
 70
     0
  3

  4

  5

  6

  7

 40
1.0
 41
2.5
 42
0.625
 43
3.75
 44
1.25
 45
0.0
 46
0.0
 47
0.0
 48
0.0
140
2.5
141
2.5
142
0.0
143
0.03937007874016
144
1.0
145
0.0
146
1.0
147
0.625
 71
     0
 72
     0
 73
     0
 74
     0
 75
     0
 76
     0
 77
     1
 78
     8
170
     0
171
     3
172
     1
173
     0
174
     0
175
     0
176
     0
177
     0
178
     0
270
     2
271
     2
272
     2
273
     2
274
     3
340
11
275
     0
280
     0
281
     0
282
     0
283
     0
284
     8
285
     0
286
     0
287
     3
288
     0
  0
ENDTAB
  0
TABLE
  2
BLOCK_RECORD
  5
1
330
0
100
AcDbSymbolTable
 70
     1
  0
BLOCK_RECORD
  5
1F
330
1
100
AcDbSymbolTableRecord
100
AcDbBlockTableRecord
  2
*MODEL_SPACE
  0
BLOCK_RECORD
  5
1B
330
1
100
AcDbSymbolTableRecord
100
AcDbBlockTableRecord
  2
*PAPER_SPACE
  0
ENDTAB
  0
ENDSEC
  0
SECTION
  2
BLOCKS
  0
BLOCK
  5
20
330
1F
100
AcDbEntity
  8
0
100
AcDbBlockBegin
  2
*MODEL_SPACE
 70
     0
 10
0.0
 20
0.0
 30
0.0
  3
*MODEL_SPACE
  1

  0
ENDBLK
  5
21
330
1F
100
AcDbEntity
  8
0
100
AcDbBlockEnd
  0
BLOCK
  5
1C
330
1B
100
AcDbEntity
 67
     1
  8
0
100
AcDbBlockBegin
  2
*PAPER_SPACE
  1

  0
ENDBLK
  5
1D
330
1B
100
AcDbEntity
 67
     1
  8
0
100
AcDbBlockEnd
  0
ENDSEC
  0
SECTION
  2
ENTITIES
  0
LINE
  5
100
100
AcDbEntity
  8
Layer_1
 62
7
100
AcDbLine
 10
118.521810
 20
123.958290
 30
0.0
 11
38.953829
 21
86.862900
 31
0.0
  0
SPLINE
  5
101
100
AcDbEntity
  8
Layer_1
 62
7
100
AcDbSpline
 70
8
 71
3
 72
8
 73
4
 74
0
 40
0
 40
0
 40
0
 40
0
 40
1
 40
1
 40
1
 40
1
 10
38.953829
 20
86.862900
 30
0.0
 10
35.450107
 20
85.229431
 30
0.0
 10
31.285583
 20
86.745393
 30
0.0
 10
29.651846
 20
90.248990
 30
0.0
  0
SPLINE
  5
102
100
AcDbEntity
  8
Layer_1
 62
7
100
AcDbSpline
 70
8
 71
3
 72
8
 73
4
 74
0
 40
0
 40
0
 40
0
 40
0
 40
1
 40
1
 40
1
 40
1
 10
29.651846
 20
90.248990
 30
0.0
 10
29.651846
 20
90.248990
 30
0.0
 10
3.687460
 20
145.930270
 30
0.0
 10
3.687460
 20
145.930270
 30
0.0
  0
SPLINE
  5
103
100
AcDbEntity
  8
Layer_1
 62
7
100
AcDbSpline
 70
8
 71
3
 72
8
 73
4
 74
0
 40
0
 40
0
 40
0
 40
0
 40
1
 40
1
 40
1
 40
1
 10
3.687460
 20
145.930270
 30
0.0
 10
2.902856
 20
147.612878
 30
0.0
 10
2.818814
 20
149.538257
 30
0.0
 10
3.453823
 20
151.282831
 30
0.0
  0
SPLINE
  5
104
100
AcDbEntity
  8
Layer_1
 62
7
100
AcDbSpline
 70
8
 71
3
 72
8
 73
4
 74
0
 40
0
 40
0
 40
0
 40
0
 40
1
 40
1
 40
1
 40
1
 10
3.453823
 20
151.282831
 30
0.0
 10
4.088832
 20
153.027405
 30
0.0
 10
5.390873
 20
154.448263
 30
0.0
 10
7.073504
 20
155.232820
 30
0.0
  0
SPLINE
  5
105
100
AcDbEntity
  8
Layer_1
 62
7
100
AcDbSpline
 70
8
 71
3
 72
8
 73
4
 74
0
 40
0
 40
0
 40
0
 40
0
 40
1
 40
1
 40
1
 40
1
 10
7.073504
 20
155.232820
 30
0.0
 10
7.073504
 20
155.232820
 30
0.0
 10
40.483737
 20
170.810940
 30
0.0
 10
40.483737
 20
170.810940
 30
0.0
  0
SPLINE
  5
106
100
AcDbEntity
  8
Layer_1
 62
7
100
AcDbSpline
 70
8
 71
3
 72
8
 73
4
 74
0
 40
0
 40
0
 40
0
 40
0
 40
1
 40
1
 40
1
 40
1
 10
40.483737
 20
170.810940
 30
0.0
 10
42.949390
 20
171.960594
 30
0.0
 10
44.525621
 20
174.434695
 30
0.0
 10
44.525618
 20
177.155200
 30
0.0
  0
SPLINE
  5
107
100
AcDbEntity
  8
Layer_1
 62
7
100
AcDbSpline
 70
8
 71
3
 72
8
 73
4
 74
0
 40
0
 40
0
 40
0
 40
0
 40
1
 40
1
 40
1
 40
1
 10
44.525618
 20
177.155200
 30
0.0
 10
44.525618
 20
177.155200
 30
0.0
 10
44.525618
 20
256.043891
 30
0.0
 10
44.525618
 20
256.043891
 30
0.0
  0
SPLINE
  5
108
100
AcDbEntity
  8
Layer_1
 62
7
100
AcDbSpline
 70
8
 71
3
 72
8
 73
4
 74
0
 40
0
 40
0
 40
0
 40
0
 40
1
 40
1
 40
1
 40
1
 10
44.525618
 20
256.043891
 30
0.0
 10
44.525618
 20
259.909883
 30
0.0
 10
47.659625
 20
263.043890
 30
0.0
 10
51.525617
 20
263.043890
 30
0.0
  0
SPLINE
  5
109
100
AcDbEntity
  8
Layer_1
 62
7
100
AcDbSpline
 70
8
 71
3
 72
8
 73
4
 74
0
 40
0
 40
0
 40
0
 40
0
 40
1
 40
1
 40
1
 40
1
 10
51.525617
 20
263.043890
 30
0.0
 10
51.525617
 20
263.043890
 30
0.0
 10
198.612420
 20
263.043890
 30
0.0
 10
198.612420
 20
263.043890
 30
0.0
  0
SPLINE
  5
10a
100
AcDbEntity
  8
Layer_1
 62
7
100
AcDbSpline
 70
8
 71
3
 72
8
 73
4
 74
0
 40
0
 40
0
 40
0
 40
0
 40
1
 40
1
 40
1
 40
1
 10
198.612420
 20
263.043890
 30
0.0
 10
202.478413
 20
263.043890
 30
0.0
 10
205.612420
 20
259.909884
 30
0.0
 10
205.612420
 20
256.043891
 30
0.0
  0
SPLINE
  5
10b
100
AcDbEntity
  8
Layer_1
 62
7
100
AcDbSpline
 70
8
 71
3
 72
8
 73
4
 74
0
 40
0
 40
0
 40
0
 40
0
 40
1
 40
1
 40
1
 40
1
 10
205.612420
 20
256.043891
 30
0.0
 10
205.612420
 20
256.043891
 30
0.0
 10
205.612420
 20
131.613890
 30
0.0
 10
205.612420
 20
131.613890
 30
0.0
  0
SPLINE
  5
10c
100
AcDbEntity
  8
Layer_1
 62
7
100
AcDbSpline
 70
8
 71
3
 72
8
 73
4
 74
0
 40
0
 40
0
 40
0
 40
0
 40
1
 40
1
 40
1
 40
1
 10
205.612420
 20
131.613890
 30
0.0
 10
205.612420
 20
129.757375
 30
0.0
 10
204.874922
 20
127.976897
 30
0.0
 10
203.562168
 20
126.664143
 30
0.0
  0
SPLINE
  5
10d
100
AcDbEntity
  8
Layer_1
 62
7
100
AcDbSpline
 70
8
 71
3
 72
8
 73
4
 74
0
 40
0
 40
0
 40
0
 40
0
 40
1
 40
1
 40
1
 40
1
 10
203.562168
 20
126.664143
 30
0.0
 10
202.249413
 20
125.351388
 30
0.0
 10
200.468935
 20
124.613890
 30
0.0
 10
198.612420
 20
124.613890
 30
0.0
  0
LINE
  5
10e
100
AcDbEntity
  8
Layer_1
 62
7
100
AcDbLine
 10
198.612420
 20
124.613890
 30
0.0
 11
121.479620
 21
124.613890
 31
0.0
  0
SPLINE
  5
10f
100
AcDbEntity
  8
Layer_1
 62
7
100
AcDbSpline
 70
8
 71
3
 72
8
 73
4
 74
0
 40
0
 40
0
 40
0
 40
0
 40
1
 40
1
 40
1
 40
1
 10
121.479620
 20
124.613890
 30
0.0
 10
120.458372
 20
124.607364
 30
0.0
 10
119.450169
 20
124.383895
 30
0.0
 10
118.521810
 20
123.958290
 30
0.0
  0
LINE
  5
110
100
AcDbEntity
  8
Layer_1
 62
7
100
AcDbLine
 10
118.521810
 20
123.958290
 30
0.0
 11
118.521810
 21
123.958290
 31
0.0
  0
SPLINE
  5
111
100
AcDbEntity
  8
Layer_1
 62
7
100
AcDbSpline
 70
8
 71
3
 72
8
 73
4
 74
0
 40
0
 40
0
 40
0
 40
0
 40
1
 40
1
 40
1
 40
1
 10
200.848540
 20
256.780015
 30
0.0
 10
200.848540
 20
257.315913
 30
0.0
 10
200.562642
 20
257.811104
 30
0.0
 10
200.098540
 20
258.079053
 30
0.0
  0
SPLINE
  5
112
100
AcDbEntity
  8
Layer_1
 62
7
100
AcDbSpline
 70
8
 71
3
 72
8
 73
4
 74
0
 40
0
 40
0
 40
0
 40
0
 40
1
 40
1
 40
1
 40
1
 10
200.098540
 20
258.079053
 30
0.0
 10
199.634438
 20
258.347002
 30
0.0
 10
199.062642
 20
258.347002
 30
0.0
 10
198.598540
 20
258.079053
 30
0.0
  0
SPLINE
  5
113
100
AcDbEntity
  8
Layer_1
 62
7
100
AcDbSpline
 70
8
 71
3
 72
8
 73
4
 74
0
 40
0
 40
0
 40
0
 40
0
 40
1
 40
1
 40
1
 40
1
 10
198.598540
 20
258.079053
 30
0.0
 10
198.134438
 20
257.811104
 30
0.0
 10
197.848540
 20
257.315913
 30
0.0
 10
197.848540
 20
256.780015
 30
0.0
  0
SPLINE
  5
114
100
AcDbEntity
  8
Layer_1
 62
7
100
AcDbSpline
 70
8
 71
3
 72
8
 73
4
 74
0
 40
0
 40
0
 40
0
 40
0
 40
1
 40
1
 40
1
 40
1
 10
197.848540
 20
256.780015
 30
0.0
 10
197.848540
 20
256.244117
 30
0.0
 10
198.134438
 20
255.748926
 30
0.0
 10
198.598540
 20
255.480977
 30
0.0
  0
SPLINE
  5
115
100
AcDbEntity
  8
Layer_1
 62
7
100
AcDbSpline
 70
8
 71
3
 72
8
 73
4
 74
0
 40
0
 40
0
 40
0
 40
0
 40
1
 40
1
 40
1
 40
1
 10
198.598540
 20
255.480977
 30
0.0
 10
199.062642
 20
255.213028
 30
0.0
 10
199.634438
 20
255.213028
 30
0.0
 10
200.098540
 20
255.480977
 30
0.0
  0
SPLINE
  5
116
100
AcDbEntity
  8
Layer_1
 62
7
100
AcDbSpline
 70
8
 71
3
 72
8
 73
4
 74
0
 40
0
 40
0
 40
0
 40
0
 40
1
 40
1
 40
1
 40
1
 10
200.098540
 20
255.480977
 30
0.0
 10
200.562642
 20
255.748926
 30
0.0
 10
200.848540
 20
256.244117
 30
0.0
 10
200.848540
 20
256.780015
 30
0.0
  0
LINE
  5
117
100
AcDbEntity
  8
Layer_1
 62
7
100
AcDbLine
 10
200.848540
 20
256.780015
 30
0.0
 11
200.848540
 21
256.780015
 31
0.0
  0
SPLINE
  5
118
100
AcDbEntity
  8
Layer_1
 62
7
100
AcDbSpline
 70
8
 71
3
 72
8
 73
4
 74
0
 40
0
 40
0
 40
0
 40
0
 40
1
 40
1
 40
1
 40
1
 10
105.779120
 20
258.598893
 30
0.0
 10
105.779120
 20
259.134791
 30
0.0
 10
105.493222
 20
259.629982
 30
0.0
 10
105.029120
 20
259.897931
 30
0.0
  0
SPLINE
  5
119
100
AcDbEntity
  8
Layer_1
 62
7
100
AcDbSpline
 70
8
 71
3
 72
8
 73
4
 74
0
 40
0
 40
0
 40
0
 40
0
 40
1
 40
1
 40
1
 40
1
 10
105.029120
 20
259.897931
 30
0.0
 10
104.565018
 20
260.165880
 30
0.0
 10
103.993222
 20
260.165880
 30
0.0
 10
103.529120
 20
259.897931
 30
0.0
  0
SPLINE
  5
11a
100
AcDbEntity
  8
Layer_1
 62
7
100
AcDbSpline
 70
8
 71
3
 72
8
 73
4
 74
0
 40
0
 40
0
 40
0
 40
0
 40
1
 40
1
 40
1
 40
1
 10
103.529120
 20
259.897931
 30
0.0
 10
103.065018
 20
259.629982
 30
0.0
 10
102.779120
 20
259.134791
 30
0.0
 10
102.779120
 20
258.598893
 30
0.0
  0
SPLINE
  5
11b
100
AcDbEntity
  8
Layer_1
 62
7
100
AcDbSpline
 70
8
 71
3
 72
8
 73
4
 74
0
 40
0
 40
0
 40
0
 40
0
 40
1
 40
1
 40
1
 40
1
 10
102.779120
 20
258.598893
 30
0.0
 10
102.779120
 20
258.062995
 30
0.0
 10
103.065018
 20
257.567804
 30
0.0
 10
103.529120
 20
257.299855
 30
0.0
  0
SPLINE
  5
11c
100
AcDbEntity
  8
Layer_1
 62
7
100
AcDbSpline
 70
8
 71
3
 72
8
 73
4
 74
0
 40
0
 40
0
 40
0
 40
0
 40
1
 40
1
 40
1
 40
1
 10
103.529120
 20
257.299855
 30
0.0
 10
103.993222
 20
257.031906
 30
0.0
 10
104.565018
 20
257.031906
 30
0.0
 10
105.029120
 20
257.299855
 30
0.0
  0
SPLINE
  5
11d
100
AcDbEntity
  8
Layer_1
 62
7
100
AcDbSpline
 70
8
 71
3
 72
8
 73
4
 74
0
 40
0
 40
0
 40
0
 40
0
 40
1
 40
1
 40
1
 40
1
 10
105.029120
 20
257.299855
 30
0.0
 10
105.493222
 20
257.567804
 30
0.0
 10
105.779120
 20
258.062995
 30
0.0
 10
105.779120
 20
258.598893
 30
0.0
  0
LINE
  5
11e
100
AcDbEntity
  8
Layer_1
 62
7
100
AcDbLine
 10
105.779120
 20
258.598893
 30
0.0
 11
105.779120
 21
258.598893
 31
0.0
  0
SPLINE
  5
11f
100
AcDbEntity
  8
Layer_1
 62
7
100
AcDbSpline
 70
8
 71
3
 72
8
 73
4
 74
0
 40
0
 40
0
 40
0
 40
0
 40
1
 40
1
 40
1
 40
1
 10
52.295843
 20
256.780015
 30
0.0
 10
52.295843
 20
257.315913
 30
0.0
 10
52.009945
 20
257.811104
 30
0.0
 10
51.545843
 20
258.079053
 30
0.0
  0
SPLINE
  5
120
100
AcDbEntity
  8
Layer_1
 62
7
100
AcDbSpline
 70
8
 71
3
 72
8
 73
4
 74
0
 40
0
 40
0
 40
0
 40
0
 40
1
 40
1
 40
1
 40
1
 10
51.545843
 20
258.079053
 30
0.0
 10
51.081741
 20
258.347002
 30
0.0
 10
50.509945
 20
258.347002
 30
0.0
 10
50.045843
 20
258.079053
 30
0.0
  0
SPLINE
  5
121
100
AcDbEntity
  8
Layer_1
 62
7
100
AcDbSpline
 70
8
 71
3
 72
8
 73
4
 74
0
 40
0
 40
0
 40
0
 40
0
 40
1
 40
1
 40
1
 40
1
 10
50.045843
 20
258.079053
 30
0.0
 10
49.581741
 20
257.811104
 30
0.0
 10
49.295843
 20
257.315913
 30
0.0
 10
49.295843
 20
256.780015
 30
0.0
  0
SPLINE
  5
122
100
AcDbEntity
  8
Layer_1
 62
7
100
AcDbSpline
 70
8
 71
3
 72
8
 73
4
 74
0
 40
0
 40
0
 40
0
 40
0
 40
1
 40
1
 40
1
 40
1
 10
49.295843
 20
256.780015
 30
0.0
 10
49.295843
 20
256.244117
 30
0.0
 10
49.581741
 20
255.748926
 30
0.0
 10
50.045843
 20
255.480977
 30
0.0
  0
SPLINE
  5
123
100
AcDbEntity
  8
Layer_1
 62
7
100
AcDbSpline
 70
8
 71
3
 72
8
 73
4
 74
0
 40
0
 40
0
 40
0
 40
0
 40
1
 40
1
 40
1
 40
1
 10
50.045843
 20
255.480977
 30
0.0
 10
50.509945
 20
255.213028
 30
0.0
 10
51.081741
 20
255.213028
 30
0.0
 10
51.545843
 20
255.480977
 30
0.0
  0
SPLINE
  5
124
100
AcDbEntity
  8
Layer_1
 62
7
100
AcDbSpline
 70
8
 71
3
 72
8
 73
4
 74
0
 40
0
 40
0
 40
0
 40
0
 40
1
 40
1
 40
1
 40
1
 10
51.545843
 20
255.480977
 30
0.0
 10
52.009945
 20
255.748926
 30
0.0
 10
52.295843
 20
256.244117
 30
0.0
 10
52.295843
 20
256.780015
 30
0.0
  0
LINE
  5
125
100
AcDbEntity
  8
Layer_1
 62
7
100
AcDbLine
 10
52.295843
 20
256.780015
 30
0.0
 11
52.295843
 21
256.780015
 31
0.0
  0
SPLINE
  5
126
100
AcDbEntity
  8
Layer_1
 62
7
100
AcDbSpline
 70
8
 71
3
 72
8
 73
4
 74
0
 40
0
 40
0
 40
0
 40
0
 40
1
 40
1
 40
1
 40
1
 10
10.553883
 20
149.244380
 30
0.0
 10
10.554123
 20
149.780438
 30
0.0
 10
10.268277
 20
150.275879
 30
0.0
 10
9.804077
 20
150.543977
 30
0.0
  0
SPLINE
  5
127
100
AcDbEntity
  8
Layer_1
 62
7
100
AcDbSpline
 70
8
 71
3
 72
8
 73
4
 74
0
 40
0
 40
0
 40
0
 40
0
 40
1
 40
1
 40
1
 40
1
 10
9.804077
 20
150.543977
 30
0.0
 10
9.339877
 20
150.812075
 30
0.0
 10
8.767890
 20
150.812075
 30
0.0
 10
8.303690
 20
150.543977
 30
0.0
  0
SPLINE
  5
128
100
AcDbEntity
  8
Layer_1
 62
7
100
AcDbSpline
 70
8
 71
3
 72
8
 73
4
 74
0
 40
0
 40
0
 40
0
 40
0
 40
1
 40
1
 40
1
 40
1
 10
8.303690
 20
150.543977
 30
0.0
 10
7.839490
 20
150.275879
 30
0.0
 10
7.553644
 20
149.780438
 30
0.0
 10
7.553884
 20
149.244380
 30
0.0
  0
SPLINE
  5
129
100
AcDbEntity
  8
Layer_1
 62
7
100
AcDbSpline
 70
8
 71
3
 72
8
 73
4
 74
0
 40
0
 40
0
 40
0
 40
0
 40
1
 40
1
 40
1
 40
1
 10
7.553884
 20
149.244380
 30
0.0
 10
7.553644
 20
148.708322
 30
0.0
 10
7.839490
 20
148.212881
 30
0.0
 10
8.303690
 20
147.944783
 30
0.0
  0
SPLINE
  5
12a
100
AcDbEntity
  8
Layer_1
 62
7
100
AcDbSpline
 70
8
 71
3
 72
8
 73
4
 74
0
 40
0
 40
0
 40
0
 40
0
 40
1
 40
1
 40
1
 40
1
 10
8.303690
 20
147.944783
 30
0.0
 10
8.767890
 20
147.676685
 30
0.0
 10
9.339877
 20
147.676685
 30
0.0
 10
9.804077
 20
147.944783
 30
0.0
  0
SPLINE
  5
12b
100
AcDbEntity
  8
Layer_1
 62
7
100
AcDbSpline
 70
8
 71
3
 72
8
 73
4
 74
0
 40
0
 40
0
 40
0
 40
0
 40
1
 40
1
 40
1
 40
1
 10
9.804077
 20
147.944783
 30
0.0
 10
10.268277
 20
148.212881
 30
0.0
 10
10.554123
 20
148.708322
 30
0.0
 10
10.553883
 20
149.244380
 30
0.0
  0
LINE
  5
12c
100
AcDbEntity
  8
Layer_1
 62
7
100
AcDbLine
 10
10.553883
 20
149.244380
 30
0.0
 11
10.553883
 21
149.244380
 31
0.0
  0
SPLINE
  5
12d
100
AcDbEntity
  8
Layer_1
 62
7
100
AcDbSpline
 70
8
 71
3
 72
8
 73
4
 74
0
 40
0
 40
0
 40
0
 40
0
 40
1
 40
1
 40
1
 40
1
 10
37.140322
 20
92.228310
 30
0.0
 10
37.140322
 20
92.764209
 30
0.0
 10
36.854423
 20
93.259400
 30
0.0
 10
36.390322
 20
93.527349
 30
0.0
  0
SPLINE
  5
12e
100
AcDbEntity
  8
Layer_1
 62
7
100
AcDbSpline
 70
8
 71
3
 72
8
 73
4
 74
0
 40
0
 40
0
 40
0
 40
0
 40
1
 40
1
 40
1
 40
1
 10
36.390322
 20
93.527349
 30
0.0
 10
35.926220
 20
93.795298
 30
0.0
 10
35.354422
 20
93.795298
 30
0.0
 10
34.890321
 20
93.527349
 30
0.0
  0
SPLINE
  5
12f
100
AcDbEntity
  8
Layer_1
 62
7
100
AcDbSpline
 70
8
 71
3
 72
8
 73
4
 74
0
 40
0
 40
0
 40
0
 40
0
 40
1
 40
1
 40
1
 40
1
 10
34.890321
 20
93.527349
 30
0.0
 10
34.426219
 20
93.259400
 30
0.0
 10
34.140320
 20
92.764209
 30
0.0
 10
34.140320
 20
92.228310
 30
0.0
  0
SPLINE
  5
130
100
AcDbEntity
  8
Layer_1
 62
7
100
AcDbSpline
 70
8
 71
3
 72
8
 73
4
 74
0
 40
0
 40
0
 40
0
 40
0
 40
1
 40
1
 40
1
 40
1
 10
34.140320
 20
92.228310
 30
0.0
 10
34.140320
 20
91.692411
 30
0.0
 10
34.426219
 20
91.197220
 30
0.0
 10
34.890321
 20
90.929271
 30
0.0
  0
SPLINE
  5
131
100
AcDbEntity
  8
Layer_1
 62
7
100
AcDbSpline
 70
8
 71
3
 72
8
 73
4
 74
0
 40
0
 40
0
 40
0
 40
0
 40
1
 40
1
 40
1
 40
1
 10
34.890321
 20
90.929271
 30
0.0
 10
35.354422
 20
90.661322
 30
0.0
 10
35.926220
 20
90.661322
 30
0.0
 10
36.390322
 20
90.929271
 30
0.0
  0
SPLINE
  5
132
100
AcDbEntity
  8
Layer_1
 62
7
100
AcDbSpline
 70
8
 71
3
 72
8
 73
4
 74
0
 40
0
 40
0
 40
0
 40
0
 40
1
 40
1
 40
1
 40
1
 10
36.390322
 20
90.929271
 30
0.0
 10
36.854423
 20
91.197220
 30
0.0
 10
37.140322
 20
91.692411
 30
0.0
 10
37.140322
 20
92.228310
 30
0.0
  0
LINE
  5
133
100
AcDbEntity
  8
Layer_1
 62
7
100
AcDbLine
 10
37.140322
 20
92.228310
 30
0.0
 11
37.140322
 21
92.228310
 31
0.0
  0
SPLINE
  5
134
100
AcDbEntity
  8
Layer_1
 62
7
100
AcDbSpline
 70
8
 71
3
 72
8
 73
4
 74
0
 40
0
 40
0
 40
0
 40
0
 40
1
 40
1
 40
1
 40
1
 10
120.442540
 20
129.058890
 30
0.0
 10
120.442540
 20
129.594788
 30
0.0
 10
120.156642
 20
130.089979
 30
0.0
 10
119.692540
 20
130.357928
 30
0.0
  0
SPLINE
  5
135
100
AcDbEntity
  8
Layer_1
 62
7
100
AcDbSpline
 70
8
 71
3
 72
8
 73
4
 74
0
 40
0
 40
0
 40
0
 40
0
 40
1
 40
1
 40
1
 40
1
 10
119.692540
 20
130.357928
 30
0.0
 10
119.228438
 20
130.625877
 30
0.0
 10
118.656642
 20
130.625877
 30
0.0
 10
118.192540
 20
130.357928
 30
0.0
  0
SPLINE
  5
136
100
AcDbEntity
  8
Layer_1
 62
7
100
AcDbSpline
 70
8
 71
3
 72
8
 73
4
 74
0
 40
0
 40
0
 40
0
 40
0
 40
1
 40
1
 40
1
 40
1
 10
118.192540
 20
130.357928
 30
0.0
 10
117.728438
 20
130.089979
 30
0.0
 10
117.442540
 20
129.594788
 30
0.0
 10
117.442540
 20
129.058890
 30
0.0
  0
SPLINE
  5
137
100
AcDbEntity
  8
Layer_1
 62
7
100
AcDbSpline
 70
8
 71
3
 72
8
 73
4
 74
0
 40
0
 40
0
 40
0
 40
0
 40
1
 40
1
 40
1
 40
1
 10
117.442540
 20
129.058890
 30
0.0
 10
117.442540
 20
128.522992
 30
0.0
 10
117.728438
 20
128.027801
 30
0.0
 10
118.192540
 20
127.759852
 30
0.0
  0
SPLINE
  5
138
100
AcDbEntity
  8
Layer_1
 62
7
100
AcDbSpline
 70
8
 71
3
 72
8
 73
4
 74
0
 40
0
 40
0
 40
0
 40
0
 40
1
 40
1
 40
1
 40
1
 10
118.192540
 20
127.759852
 30
0.0
 10
118.656642
 20
127.491903
 30
0.0
 10
119.228438
 20
127.491903
 30
0.0
 10
119.692540
 20
127.759852
 30
0.0
  0
SPLINE
  5
139
100
AcDbEntity
  8
Layer_1
 62
7
100
AcDbSpline
 70
8
 71
3
 72
8
 73
4
 74
0
 40
0
 40
0
 40
0
 40
0
 40
1
 40
1
 40
1
 40
1
 10
119.692540
 20
127.759852
 30
0.0
 10
120.156642
 20
128.027801
 30
0.0
 10
120.442540
 20
128.522992
 30
0.0
 10
120.442540
 20
129.058890
 30
0.0
  0
LINE
  5
13a
100
AcDbEntity
  8
Layer_1
 62
7
100
AcDbLine
 10
120.442540
 20
129.058890
 30
0.0
 11
120.442540
 21
129.058890
 31
0.0
  0
SPLINE
  5
13b
100
AcDbEntity
  8
Layer_1
 62
7
100
AcDbSpline
 70
8
 71
3
 72
8
 73
4
 74
0
 40
0
 40
0
 40
0
 40
0
 40
1
 40
1
 40
1
 40
1
 10
200.848540
 20
132.465270
 30
0.0
 10
200.848540
 20
133.001168
 30
0.0
 10
200.562642
 20
133.496359
 30
0.0
 10
200.098540
 20
133.764308
 30
0.0
  0
SPLINE
  5
13c
100
AcDbEntity
  8
Layer_1
 62
7
100
AcDbSpline
 70
8
 71
3
 72
8
 73
4
 74
0
 40
0
 40
0
 40
0
 40
0
 40
1
 40
1
 40
1
 40
1
 10
200.098540
 20
133.764308
 30
0.0
 10
199.634438
 20
134.032257
 30
0.0
 10
199.062642
 20
134.032257
 30
0.0
 10
198.598540
 20
133.764308
 30
0.0
  0
SPLINE
  5
13d
100
AcDbEntity
  8
Layer_1
 62
7
100
AcDbSpline
 70
8
 71
3
 72
8
 73
4
 74
0
 40
0
 40
0
 40
0
 40
0
 40
1
 40
1
 40
1
 40
1
 10
198.598540
 20
133.764308
 30
0.0
 10
198.134438
 20
133.496359
 30
0.0
 10
197.848540
 20
133.001168
 30
0.0
 10
197.848540
 20
132.465270
 30
0.0
  0
SPLINE
  5
13e
100
AcDbEntity
  8
Layer_1
 62
7
100
AcDbSpline
 70
8
 71
3
 72
8
 73
4
 74
0
 40
0
 40
0
 40
0
 40
0
 40
1
 40
1
 40
1
 40
1
 10
197.848540
 20
132.465270
 30
0.0
 10
197.848540
 20
131.929372
 30
0.0
 10
198.134438
 20
131.434181
 30
0.0
 10
198.598540
 20
131.166232
 30
0.0
  0
SPLINE
  5
13f
100
AcDbEntity
  8
Layer_1
 62
7
100
AcDbSpline
 70
8
 71
3
 72
8
 73
4
 74
0
 40
0
 40
0
 40
0
 40
0
 40
1
 40
1
 40
1
 40
1
 10
198.598540
 20
131.166232
 30
0.0
 10
199.062642
 20
130.898283
 30
0.0
 10
199.634438
 20
130.898283
 30
0.0
 10
200.098540
 20
131.166232
 30
0.0
  0
SPLINE
  5
140
100
AcDbEntity
  8
Layer_1
 62
7
100
AcDbSpline
 70
8
 71
3
 72
8
 73
4
 74
0
 40
0
 40
0
 40
0
 40
0
 40
1
 40
1
 40
1
 40
1
 10
200.098540
 20
131.166232
 30
0.0
 10
200.562642
 20
131.434181
 30
0.0
 10
200.848540
 20
131.929372
 30
0.0
 10
200.848540
 20
132.465270
 30
0.0
  0
LINE
  5
141
100
AcDbEntity
  8
Layer_1
 62
7
100
AcDbLine
 10
200.848540
 20
132.465270
 30
0.0
 11
200.848540
 21
132.465270
 31
0.0
  0
SPLINE
  5
142
100
AcDbEntity
  8
Layer_1
 62
7
100
AcDbSpline
 70
8
 71
3
 72
8
 73
4
 74
0
 40
0
 40
0
 40
0
 40
0
 40
1
 40
1
 40
1
 40
1
 10
71.607118
 20
239.578106
 30
0.0
 10
70.363233
 20
239.542875
 30
0.0
 10
69.373570
 20
238.529792
 30
0.0
 10
69.374640
 20
237.292799
 30
0.0
  0
SPLINE
  5
143
100
AcDbEntity
  8
Layer_1
 62
7
100
AcDbSpline
 70
8
 71
3
 72
8
 73
4
 74
0
 40
0
 40
0
 40
0
 40
0
 40
1
 40
1
 40
1
 40
1
 10
69.374640
 20
237.292799
 30
0.0
 10
69.365469
 20
236.470722
 30
0.0
 10
69.801407
 20
235.707161
 30
0.0
 10
70.516114
 20
235.293468
 30
0.0
  0
SPLINE
  5
144
100
AcDbEntity
  8
Layer_1
 62
7
100
AcDbSpline
 70
8
 71
3
 72
8
 73
4
 74
0
 40
0
 40
0
 40
0
 40
0
 40
1
 40
1
 40
1
 40
1
 10
70.516114
 20
235.293468
 30
0.0
 10
71.230820
 20
234.879775
 30
0.0
 10
72.114032
 20
234.879775
 30
0.0
 10
72.828738
 20
235.293468
 30
0.0
  0
SPLINE
  5
145
100
AcDbEntity
  8
Layer_1
 62
7
100
AcDbSpline
 70
8
 71
3
 72
8
 73
4
 74
0
 40
0
 40
0
 40
0
 40
0
 40
1
 40
1
 40
1
 40
1
 10
72.828738
 20
235.293468
 30
0.0
 10
73.543445
 20
235.707161
 30
0.0
 10
73.979383
 20
236.470722
 30
0.0
 10
73.970212
 20
237.292799
 30
0.0
  0
SPLINE
  5
146
100
AcDbEntity
  8
Layer_1
 62
7
100
AcDbSpline
 70
8
 71
3
 72
8
 73
4
 74
0
 40
0
 40
0
 40
0
 40
0
 40
1
 40
1
 40
1
 40
1
 10
73.970212
 20
237.292799
 30
0.0
 10
73.970744
 20
237.910197
 30
0.0
 10
73.719841
 20
238.501517
 30
0.0
 10
73.274665
 20
238.932039
 30
0.0
  0
SPLINE
  5
147
100
AcDbEntity
  8
Layer_1
 62
7
100
AcDbSpline
 70
8
 71
3
 72
8
 73
4
 74
0
 40
0
 40
0
 40
0
 40
0
 40
1
 40
1
 40
1
 40
1
 10
73.274665
 20
238.932039
 30
0.0
 10
72.829490
 20
239.362560
 30
0.0
 10
72.227958
 20
239.595615
 30
0.0
 10
71.607118
 20
239.578106
 30
0.0
  0
LINE
  5
148
100
AcDbEntity
  8
Layer_1
 62
7
100
AcDbLine
 10
71.607118
 20
239.578106
 30
0.0
 11
71.607118
 21
239.578106
 31
0.0
  0
SPLINE
  5
149
100
AcDbEntity
  8
Layer_1
 62
7
100
AcDbSpline
 70
8
 71
3
 72
8
 73
4
 74
0
 40
0
 40
0
 40
0
 40
0
 40
1
 40
1
 40
1
 40
1
 10
183.969720
 20
237.297799
 30
0.0
 10
183.969720
 20
238.118577
 30
0.0
 10
183.531840
 20
238.877007
 30
0.0
 10
182.821025
 20
239.287396
 30
0.0
  0
SPLINE
  5
14a
100
AcDbEntity
  8
Layer_1
 62
7
100
AcDbSpline
 70
8
 71
3
 72
8
 73
4
 74
0
 40
0
 40
0
 40
0
 40
0
 40
1
 40
1
 40
1
 40
1
 10
182.821025
 20
239.287396
 30
0.0
 10
182.110210
 20
239.697785
 30
0.0
 10
181.234450
 20
239.697785
 30
0.0
 10
180.523635
 20
239.287396
 30
0.0
  0
SPLINE
  5
14b
100
AcDbEntity
  8
Layer_1
 62
7
100
AcDbSpline
 70
8
 71
3
 72
8
 73
4
 74
0
 40
0
 40
0
 40
0
 40
0
 40
1
 40
1
 40
1
 40
1
 10
180.523635
 20
239.287396
 30
0.0
 10
179.812820
 20
238.877007
 30
0.0
 10
179.374940
 20
238.118577
 30
0.0
 10
179.374940
 20
237.297799
 30
0.0
  0
SPLINE
  5
14c
100
AcDbEntity
  8
Layer_1
 62
7
100
AcDbSpline
 70
8
 71
3
 72
8
 73
4
 74
0
 40
0
 40
0
 40
0
 40
0
 40
1
 40
1
 40
1
 40
1
 10
179.374940
 20
237.297799
 30
0.0
 10
179.374940
 20
236.477021
 30
0.0
 10
179.812820
 20
235.718591
 30
0.0
 10
180.523635
 20
235.308202
 30
0.0
  0
SPLINE
  5
14d
100
AcDbEntity
  8
Layer_1
 62
7
100
AcDbSpline
 70
8
 71
3
 72
8
 73
4
 74
0
 40
0
 40
0
 40
0
 40
0
 40
1
 40
1
 40
1
 40
1
 10
180.523635
 20
235.308202
 30
0.0
 10
181.234450
 20
234.897813
 30
0.0
 10
182.110210
 20
234.897813
 30
0.0
 10
182.821025
 20
235.308202
 30
0.0
  0
SPLINE
  5
14e
100
AcDbEntity
  8
Layer_1
 62
7
100
AcDbSpline
 70
8
 71
3
 72
8
 73
4
 74
0
 40
0
 40
0
 40
0
 40
0
 40
1
 40
1
 40
1
 40
1
 10
182.821025
 20
235.308202
 30
0.0
 10
183.531840
 20
235.718591
 30
0.0
 10
183.969720
 20
236.477021
 30
0.0
 10
183.969720
 20
237.297799
 30
0.0
  0
LINE
  5
14f
100
AcDbEntity
  8
Layer_1
 62
7
100
AcDbLine
 10
183.969720
 20
237.297799
 30
0.0
 11
183.969720
 21
237.297799
 31
0.0
  0
SPLINE
  5
150
100
AcDbEntity
  8
Layer_1
 62
7
100
AcDbSpline
 70
8
 71
3
 72
8
 73
4
 74
0
 40
0
 40
0
 40
0
 40
0
 40
1
 40
1
 40
1
 40
1
 10
42.304618
 20
116.430090
 30
0.0
 10
42.305010
 20
116.966249
 30
0.0
 10
42.019197
 20
117.461848
 30
0.0
 10
41.554935
 20
117.730041
 30
0.0
  0
SPLINE
  5
151
100
AcDbEntity
  8
Layer_1
 62
7
100
AcDbSpline
 70
8
 71
3
 72
8
 73
4
 74
0
 40
0
 40
0
 40
0
 40
0
 40
1
 40
1
 40
1
 40
1
 10
41.554935
 20
117.730041
 30
0.0
 10
41.090672
 20
117.998234
 30
0.0
 10
40.518565
 20
117.998234
 30
0.0
 10
40.054302
 20
117.730041
 30
0.0
  0
SPLINE
  5
152
100
AcDbEntity
  8
Layer_1
 62
7
100
AcDbSpline
 70
8
 71
3
 72
8
 73
4
 74
0
 40
0
 40
0
 40
0
 40
0
 40
1
 40
1
 40
1
 40
1
 10
40.054302
 20
117.730041
 30
0.0
 10
39.590040
 20
117.461848
 30
0.0
 10
39.304227
 20
116.966249
 30
0.0
 10
39.304619
 20
116.430090
 30
0.0
  0
SPLINE
  5
153
100
AcDbEntity
  8
Layer_1
 62
7
100
AcDbSpline
 70
8
 71
3
 72
8
 73
4
 74
0
 40
0
 40
0
 40
0
 40
0
 40
1
 40
1
 40
1
 40
1
 10
39.304619
 20
116.430090
 30
0.0
 10
39.304227
 20
115.893931
 30
0.0
 10
39.590040
 20
115.398332
 30
0.0
 10
40.054302
 20
115.130139
 30
0.0
  0
SPLINE
  5
154
100
AcDbEntity
  8
Layer_1
 62
7
100
AcDbSpline
 70
8
 71
3
 72
8
 73
4
 74
0
 40
0
 40
0
 40
0
 40
0
 40
1
 40
1
 40
1
 40
1
 10
40.054302
 20
115.130139
 30
0.0
 10
40.518565
 20
114.861946
 30
0.0
 10
41.090672
 20
114.861946
 30
0.0
 10
41.554935
 20
115.130139
 30
0.0
  0
SPLINE
  5
155
100
AcDbEntity
  8
Layer_1
 62
7
100
AcDbSpline
 70
8
 71
3
 72
8
 73
4
 74
0
 40
0
 40
0
 40
0
 40
0
 40
1
 40
1
 40
1
 40
1
 10
41.554935
 20
115.130139
 30
0.0
 10
42.019197
 20
115.398332
 30
0.0
 10
42.305010
 20
115.893931
 30
0.0
 10
42.304618
 20
116.430090
 30
0.0
  0
LINE
  5
156
100
AcDbEntity
  8
Layer_1
 62
7
100
AcDbLine
 10
42.304618
 20
116.430090
 30
0.0
 11
42.304618
 21
116.430090
 31
0.0
  0
ENDSEC
  0
SECTION
  2
OBJECTS
  0
DICTIONARY
  5
C
330
0
100
AcDbDictionary
  3
ACAD_GROUP
350
D
  3
ACAD_MLINESTYLE
350
17
  0
DICTIONARY
  5
D
330
C
100
AcDbDictionary
  0
DICTIONARY
  5
1A
330
C
100
AcDbDictionary
  0
DICTIONARY
  5
17
330
C
100
AcDbDictionary
  3
STANDARD
350
18
  0
DICTIONARY
  5
19
330
C
100
AcDbDictionary
  0
ENDSEC
  0
EOF
