<?xml version="1.0" encoding="UTF-8" standalone="no"?>
<!-- Created with Inkscape (http://www.inkscape.org/) -->

<svg
   xmlns:dc="http://purl.org/dc/elements/1.1/"
   xmlns:cc="http://creativecommons.org/ns#"
   xmlns:rdf="http://www.w3.org/1999/02/22-rdf-syntax-ns#"
   xmlns:svg="http://www.w3.org/2000/svg"
   xmlns="http://www.w3.org/2000/svg"
   xmlns:sodipodi="http://sodipodi.sourceforge.net/DTD/sodipodi-0.dtd"
   xmlns:inkscape="http://www.inkscape.org/namespaces/inkscape"
   width="210mm"
   height="297mm"
   viewBox="0 0 210 297"
   version="1.1"
   id="svg6297"
   inkscape:version="0.92.3 (2405546, 2018-03-11)"
   sodipodi:docname="plate.svg">
  <defs
     id="defs6291">
    <marker
       style="overflow:visible"
       refY="0.0"
       refX="0.0"
       orient="auto"
       id="DistanceX">
      <path
         id="path6412"
         style="stroke:#000000; stroke-width:0.5"
         d="M 3,-3 L -3,3 M 0,-5 L  0,5" />
    </marker>
    <pattern
       y="0"
       x="0"
       width="8"
       patternUnits="userSpaceOnUse"
       id="Hatch"
       height="8">
      <path
         id="path6415"
         stroke-width="0.25"
         stroke="#000000"
         linecap="square"
         d="M8 4 l-4,4" />
      <path
         id="path6417"
         stroke-width="0.25"
         stroke="#000000"
         linecap="square"
         d="M6 2 l-4,4" />
      <path
         id="path6419"
         stroke-width="0.25"
         stroke="#000000"
         linecap="square"
         d="M4 0 l-4,4" />
    </pattern>
    <symbol
       id="*Model_Space" />
    <symbol
       id="*Paper_Space" />
    <marker
       style="overflow:visible"
       refY="0.0"
       refX="0.0"
       orient="auto"
       id="DistanceX-7">
      <path
         id="path6481"
         style="stroke:#000000; stroke-width:0.5"
         d="M 3,-3 L -3,3 M 0,-5 L  0,5" />
    </marker>
    <pattern
       y="0"
       x="0"
       width="8"
       patternUnits="userSpaceOnUse"
       id="Hatch-4"
       height="8">
      <path
         id="path6484"
         stroke-width="0.25"
         stroke="#000000"
         linecap="square"
         d="M8 4 l-4,4" />
      <path
         id="path6486"
         stroke-width="0.25"
         stroke="#000000"
         linecap="square"
         d="M6 2 l-4,4" />
      <path
         id="path6488"
         stroke-width="0.25"
         stroke="#000000"
         linecap="square"
         d="M4 0 l-4,4" />
    </pattern>
    <symbol
       id="*Model_Space-3" />
    <symbol
       id="*Paper_Space-1" />
    <marker
       style="overflow:visible"
       refY="0.0"
       refX="0.0"
       orient="auto"
       id="DistanceX-5">
      <path
         id="path6908"
         style="stroke:#000000; stroke-width:0.5"
         d="M 3,-3 L -3,3 M 0,-5 L  0,5" />
    </marker>
    <pattern
       y="0"
       x="0"
       width="8"
       patternUnits="userSpaceOnUse"
       id="Hatch-1"
       height="8">
      <path
         id="path6911"
         stroke-width="0.25"
         stroke="#000000"
         linecap="square"
         d="M8 4 l-4,4" />
      <path
         id="path6913"
         stroke-width="0.25"
         stroke="#000000"
         linecap="square"
         d="M6 2 l-4,4" />
      <path
         id="path6915"
         stroke-width="0.25"
         stroke="#000000"
         linecap="square"
         d="M4 0 l-4,4" />
    </pattern>
    <symbol
       id="*Model_Space-0" />
    <symbol
       id="*Paper_Space-7" />
    <marker
       style="overflow:visible"
       refY="0.0"
       refX="0.0"
       orient="auto"
       id="DistanceX-9">
      <path
         id="path7011"
         style="stroke:#000000; stroke-width:0.5"
         d="M 3,-3 L -3,3 M 0,-5 L  0,5" />
    </marker>
    <pattern
       y="0"
       x="0"
       width="8"
       patternUnits="userSpaceOnUse"
       id="Hatch-0"
       height="8">
      <path
         id="path7014"
         stroke-width="0.25"
         stroke="#000000"
         linecap="square"
         d="M8 4 l-4,4" />
      <path
         id="path7016"
         stroke-width="0.25"
         stroke="#000000"
         linecap="square"
         d="M6 2 l-4,4" />
      <path
         id="path7018"
         stroke-width="0.25"
         stroke="#000000"
         linecap="square"
         d="M4 0 l-4,4" />
    </pattern>
    <symbol
       id="*Model_Space-07" />
    <symbol
       id="*Paper_Space-6" />
  </defs>
  <sodipodi:namedview
     id="base"
     pagecolor="#ffffff"
     bordercolor="#666666"
     borderopacity="1.0"
     inkscape:pageopacity="0.0"
     inkscape:pageshadow="2"
     inkscape:zoom="0.49497475"
     inkscape:cx="315.44856"
     inkscape:cy="793.40848"
     inkscape:document-units="mm"
     inkscape:current-layer="layer1"
     showgrid="false"
     inkscape:window-width="1366"
     inkscape:window-height="705"
     inkscape:window-x="-8"
     inkscape:window-y="-8"
     inkscape:window-maximized="1" />
  <metadata
     id="metadata6294">
    <rdf:RDF>
      <cc:Work
         rdf:about="">
        <dc:format>image/svg+xml</dc:format>
        <dc:type
           rdf:resource="http://purl.org/dc/dcmitype/StillImage" />
        <dc:title />
      </cc:Work>
    </rdf:RDF>
  </metadata>
  <g
     inkscape:label="Plate"
     inkscape:groupmode="layer"
     id="layer1"
     style="display:inline">
    <path
       sodipodi:nodetypes="cccccccccccccccccccccccccsssccssssssscccccccc"
       inkscape:connector-curvature="0"
       d="m 82.420008,58.936763 v -2.500001 h -2.70822 l -0.005,-0.971613 v 0 l 13.87967,-5.642184 h 15.817252 l 8.37176,6.17135 h 2.77217 l -0.0189,2.942448 H 108.7144 97.062208 m -27.40348,12.076314 h 12.76003 m 14.62674,7.408332 h 11.648462 l -0.0448,0.0038 h 40.21913 v 0.01159 h 46.80764 l 0.0135,-19.5 H 134.466 v -2.942447 h 3.9927 l 5.62535,-6.17135 53.37295,9.5e-5 c 3.866,0 7,3.134006 7,6.999999 V 181.25306 c 0,3.866 -3.134,7 -7,7 h -77.13275 c -1.02102,0.009 -2.0288,0.23198 -2.95782,0.65561 l -79.567981,37.09539 c -3.503721,1.63346 -7.668244,0.1175 -9.301983,-3.38608 L 2.5320928,166.93669 c -1.63386299,-3.50386 -0.117863,-7.6688 3.386043,-9.30256 L 39.32837,142.05601 c 2.46565,-1.14965 4.041881,-3.62375 4.041881,-6.34425 V 56.823059 c 0,-3.865993 3.134005,-6.999999 6.999999,-6.999999 l 8.112958,-9.5e-5 13.8797,5.642184 v 0 l -0.0101,0.971613 h -2.70357 v 3.542816"
       style="display:inline;fill:none;stroke:#000000;stroke-width:0.26458332;stroke-linecap:round"
       id="path5993" />
    <path
       inkscape:connector-curvature="0"
       d="m 69.024208,85.550607 v -0.98044 H 55.054206 v 0.98044 h -0.8128 v 3.50012 h 0.8128 v 5.00888 h -0.8128 v 3.50012 h 0.8128 v 0.98044 h 13.970002 v -0.98044 h 0.8128 v -3.50012 h -0.8128 v -5.00888 h 0.8128 v -3.50012 z"
       style="display:inline;fill:none;stroke:#000000;stroke-width:0.26458332;stroke-linecap:round"
       id="path5995" />
    <path
       inkscape:connector-curvature="0"
       d="m 52.112608,56.086936 a 2.4721331,2.4721331 0 1 0 -4.944266,0 2.4721331,2.4721331 0 1 0 4.944266,0 z"
       style="display:inline;fill:none;stroke:#000000;stroke-width:0.4360567;stroke-linecap:round"
       id="path5997" />
    <path
       inkscape:connector-curvature="0"
       d="m 105.59631,54.26806 a 2.4725615,2.4725615 0 1 0 -4.94512,0 2.4725615,2.4725615 0 1 0 4.94512,0 z"
       style="display:inline;fill:none;stroke:#000000;stroke-width:0.43613192;stroke-linecap:round"
       id="path5999" />
    <path
       inkscape:connector-curvature="0"
       d="m 200.6628,56.086936 a 2.4696469,2.4696469 0 1 0 -4.93925,0 2.4696469,2.4696469 0 1 0 4.93925,0 z"
       style="display:inline;fill:none;stroke:#000000;stroke-width:0.43561825;stroke-linecap:round"
       id="path6001" />
    <path
       inkscape:connector-curvature="0"
       d="m 200.6628,180.40169 a 2.4696469,2.4696469 0 1 0 -4.93925,0 2.4696469,2.4696469 0 1 0 4.93925,0 z"
       style="display:inline;fill:none;stroke:#000000;stroke-width:0.43561825;stroke-linecap:round"
       id="path6003" />
    <path
       inkscape:connector-curvature="0"
       d="m 120.25973,183.80806 a 2.47256,2.47256 0 1 0 -4.94512,0 2.47256,2.47256 0 1 0 4.94512,0 z"
       style="display:inline;fill:none;stroke:#000000;stroke-width:0.43613192;stroke-linecap:round"
       id="path6005" />
    <path
       inkscape:connector-curvature="0"
       d="m 36.957513,220.63866 a 2.472561,2.472561 0 1 0 -4.945121,0 2.472561,2.472561 0 1 0 4.945121,0 z"
       style="display:inline;fill:none;stroke:#000000;stroke-width:0.43613181;stroke-linecap:round"
       id="path6007" />
    <path
       inkscape:connector-curvature="0"
       d="m 10.370896,163.62261 a 2.4723798,2.4723798 0 1 0 -4.9447592,0 2.4723798,2.4723798 0 1 0 4.9447592,0 z"
       style="display:inline;fill:none;stroke:#000000;stroke-width:0.4361003;stroke-linecap:round"
       id="path6009" />
    <path
       inkscape:connector-curvature="0"
       d="m 174.11671,143.62263 v 0.98044 h -0.8128 v 3.50012 h 0.8128 v 5.00887 h -0.8128 v 3.50012 h 0.8128 v 0.98044 h 13.97 v -0.98044 h 0.8128 v -3.50012 h -0.8128 v -5.00887 h 0.8128 v -3.50012 h -0.8128 v -0.98044 z"
       style="display:inline;fill:none;stroke:#000000;stroke-width:0.26458332;stroke-linecap:round"
       id="path6025" />
    <path
       inkscape:connector-curvature="0"
       d="m 174.11671,124.57263 v 0.98044 h -0.8128 v 3.50012 h 0.8128 v 5.00888 h -0.8128 v 3.50012 h 0.8128 v 0.98044 h 13.97 v -0.98044 h 0.8128 v -3.50012 h -0.8128 v -5.00888 h 0.8128 v -3.50012 h -0.8128 v -0.98044 z"
       style="display:inline;fill:none;stroke:#000000;stroke-width:0.26458332;stroke-linecap:round"
       id="path6027" />
    <path
       inkscape:connector-curvature="0"
       d="m 174.11671,105.52263 v 0.98044 h -0.8128 v 3.50012 h 0.8128 v 5.00888 h -0.8128 v 3.50012 h 0.8128 v 0.98044 h 13.97 v -0.98044 h 0.8128 v -3.50012 h -0.8128 v -5.00888 h 0.8128 v -3.50012 h -0.8128 v -0.98044 z"
       style="display:inline;fill:none;stroke:#000000;stroke-width:0.26458332;stroke-linecap:round"
       id="path6029" />
    <path
       inkscape:connector-curvature="0"
       d="m 174.11671,86.475167 v 0.98044 h -0.8128 v 3.50012 h 0.8128 v 5.00888 h -0.8128 v 3.50012 h 0.8128 v 0.980443 h 13.97 v -0.980443 h 0.8128 v -3.50012 h -0.8128 v -5.00888 h 0.8128 v -3.50012 h -0.8128 v -0.98044 z"
       style="display:inline;fill:none;stroke:#000000;stroke-width:0.26458332;stroke-linecap:round"
       id="path6031" />
    <path
       inkscape:connector-curvature="0"
       d="m 74.104208,84.570167 v 0.98044 h -0.8128 v 3.50012 h 0.8128 v 5.00888 h -0.8128 v 3.50012 h 0.8128 v 0.98044 h 13.97 v -0.98044 h 0.8128 v -3.50012 h -0.8128 v -5.00888 h 0.8128 v -3.50012 h -0.8128 v -0.98044 z"
       style="display:inline;fill:none;stroke:#000000;stroke-width:0.26458332;stroke-linecap:round"
       id="path6033" />
    <path
       inkscape:connector-curvature="0"
       d="m 131.2542,102.34763 v 0.98044 h -0.8128 v 3.50012 h 0.8128 v 5.00888 h -0.8128 v 3.50012 h 0.8128 v 0.98044 h 13.97001 v -0.98044 h 0.8128 v -3.50012 h -0.8128 v -5.00888 h 0.8128 v -3.50012 h -0.8128 v -0.98044 z"
       style="display:inline;fill:none;stroke:#000000;stroke-width:0.26458332;stroke-linecap:round"
       id="path6035" />
    <path
       inkscape:connector-curvature="0"
       d="m 50.309486,196.85594 0.889,-0.41656 0.3429,0.7366 3.17246,-1.47827 -0.3429,-0.7366 4.538982,-2.11582 0.3429,0.7366 3.17246,-1.48083 -0.3429,-0.7366 0.889,-0.41401 -5.9055,-12.6619 -0.889,0.41655 -0.342902,-0.7366 -3.17246,1.47829 0.3429,0.7366 -4.53898,2.11582 -0.3429,-0.73661 -3.17246,1.48082 0.3429,0.7366 -0.889,0.41402 z"
       style="display:inline;fill:none;stroke:#000000;stroke-width:0.26458332;stroke-linecap:round"
       id="path6037" />
    <path
       inkscape:connector-curvature="0"
       d="m 67.573868,188.80415 0.889,-0.41657 0.3429,0.7366 3.17246,-1.47827 -0.3429,-0.7366 4.53898,-2.11582 0.3429,0.73659 3.17246,-1.48082 -0.3429,-0.7366 0.889,-0.41402 -5.9055,-12.6619 -0.889,0.41656 -0.3429,-0.7366 -3.17246,1.47829 0.3429,0.7366 -4.53898,2.11582 -0.3429,-0.7366 -3.17246,1.48081 0.3429,0.7366 -0.889,0.41403 z"
       style="display:inline;fill:none;stroke:#000000;stroke-width:0.26458332;stroke-linecap:round"
       id="path6039" />
    <path
       inkscape:connector-curvature="0"
       d="m 93.154208,159.49762 v 0.98045 h -0.8128 v 3.50011 h 0.8128 v 5.00888 h -0.8128 v 3.50012 h 0.8128 v 0.98044 H 107.1242 v -0.98044 h 0.8128 v -3.50012 h -0.8128 v -5.00888 h 0.8128 v -3.50011 h -0.8128 v -0.98045 z"
       style="display:inline;fill:none;stroke:#000000;stroke-width:0.26458332;stroke-linecap:round"
       id="path6041" />
    <path
       inkscape:connector-curvature="0"
       d="m 112.2042,157.89996 v 0.98044 h -0.8128 v 3.50012 h 0.8128 v 5.00888 h -0.8128 v 3.50013 h 0.8128 v 0.98044 h 13.97 v -0.98044 h 0.8128 v -3.50013 h -0.8128 v -5.00888 h 0.8128 v -3.50012 h -0.8128 v -0.98044 z"
       style="display:inline;fill:none;stroke:#000000;stroke-width:0.26458332;stroke-linecap:round"
       id="path6043" />
    <path
       inkscape:connector-curvature="0"
       d="m 150.30421,162.67262 v 0.98045 h -0.8128 v 3.50011 h 0.8128 v 5.00888 h -0.8128 v 3.50012 h 0.8128 v 0.98044 h 13.97 v -0.98044 h 0.8128 v -3.50012 h -0.8128 v -5.00888 h 0.8128 v -3.50011 h -0.8128 v -0.98045 z"
       style="display:inline;fill:none;stroke:#000000;stroke-width:0.26458332;stroke-linecap:round"
       id="path6045" />
    <path
       inkscape:connector-curvature="0"
       d="m 74.104208,141.71763 v 0.98044 h -0.8128 v 3.50012 h 0.8128 v 5.00888 h -0.8128 v 3.50012 h 0.8128 v 0.98044 h 13.97 v -0.98044 h 0.8128 v -3.50012 h -0.8128 v -5.00888 h 0.8128 v -3.50012 h -0.8128 v -0.98044 z"
       style="display:inline;fill:none;stroke:#000000;stroke-width:0.26458332;stroke-linecap:round"
       id="path6047" />
    <path
       inkscape:connector-curvature="0"
       d="m 93.154208,140.44763 v 0.98044 h -0.8128 v 3.50012 h 0.8128 v 5.00888 h -0.8128 v 3.50011 h 0.8128 v 0.98044 H 107.1242 v -0.98044 h 0.8128 v -3.50011 h -0.8128 v -5.00888 h 0.8128 v -3.50012 h -0.8128 v -0.98044 z"
       style="display:inline;fill:none;stroke:#000000;stroke-width:0.26458332;stroke-linecap:round"
       id="path6049" />
    <path
       inkscape:connector-curvature="0"
       d="m 112.2042,138.84997 v 0.98044 h -0.8128 v 3.50012 h 0.8128 v 5.00888 h -0.8128 v 3.50012 h 0.8128 v 0.98044 h 13.97 v -0.98044 h 0.8128 v -3.50012 h -0.8128 v -5.00888 h 0.8128 v -3.50012 h -0.8128 v -0.98044 z"
       style="display:inline;fill:none;stroke:#000000;stroke-width:0.26458332;stroke-linecap:round"
       id="path6051" />
    <path
       inkscape:connector-curvature="0"
       d="m 131.2542,140.44763 v 0.98044 h -0.8128 v 3.50012 h 0.8128 v 5.00888 h -0.8128 v 3.50011 h 0.8128 v 0.98044 h 13.97001 v -0.98044 h 0.8128 v -3.50011 h -0.8128 v -5.00888 h 0.8128 v -3.50012 h -0.8128 v -0.98044 z"
       style="display:inline;fill:none;stroke:#000000;stroke-width:0.26458332;stroke-linecap:round"
       id="path6053" />
    <path
       inkscape:connector-curvature="0"
       d="m 150.30421,143.62263 v 0.98044 h -0.8128 v 3.50012 h 0.8128 v 5.00887 h -0.8128 v 3.50012 h 0.8128 v 0.98044 h 13.97 v -0.98044 h 0.8128 v -3.50012 h -0.8128 v -5.00887 h 0.8128 v -3.50012 h -0.8128 v -0.98044 z"
       style="display:inline;fill:none;stroke:#000000;stroke-width:0.26458332;stroke-linecap:round"
       id="path6055" />
    <path
       inkscape:connector-curvature="0"
       d="m 74.104208,122.66763 v 0.98044 h -0.8128 v 3.50012 h 0.8128 v 5.00888 h -0.8128 v 3.50012 h 0.8128 v 0.98044 h 13.97 v -0.98044 h 0.8128 v -3.50012 h -0.8128 v -5.00888 h 0.8128 v -3.50012 h -0.8128 v -0.98044 z"
       style="display:inline;fill:none;stroke:#000000;stroke-width:0.26458332;stroke-linecap:round"
       id="path6057" />
    <path
       inkscape:connector-curvature="0"
       d="m 93.154208,121.39763 v 0.98044 h -0.8128 v 3.50012 h 0.8128 v 5.00888 h -0.8128 v 3.50012 h 0.8128 v 0.98044 H 107.1242 v -0.98044 h 0.8128 v -3.50012 h -0.8128 v -5.00888 h 0.8128 v -3.50012 h -0.8128 v -0.98044 z"
       style="display:inline;fill:none;stroke:#000000;stroke-width:0.26458332;stroke-linecap:round"
       id="path6059" />
    <path
       inkscape:connector-curvature="0"
       d="m 112.2042,119.79997 v 0.98044 h -0.8128 v 3.50012 h 0.8128 v 5.00888 h -0.8128 v 3.50012 h 0.8128 v 0.98044 h 13.97 v -0.98044 h 0.8128 v -3.50012 h -0.8128 v -5.00888 h 0.8128 v -3.50012 h -0.8128 v -0.98044 z"
       style="display:inline;fill:none;stroke:#000000;stroke-width:0.26458332;stroke-linecap:round"
       id="path6061" />
    <path
       inkscape:connector-curvature="0"
       d="m 131.2542,121.39763 v 0.98044 h -0.8128 v 3.50012 h 0.8128 v 5.00888 h -0.8128 v 3.50012 h 0.8128 v 0.98044 h 13.97001 v -0.98044 h 0.8128 v -3.50012 h -0.8128 v -5.00888 h 0.8128 v -3.50012 h -0.8128 v -0.98044 z"
       style="display:inline;fill:none;stroke:#000000;stroke-width:0.26458332;stroke-linecap:round"
       id="path6063" />
    <path
       inkscape:connector-curvature="0"
       d="m 150.30421,124.57263 v 0.98044 h -0.8128 v 3.50012 h 0.8128 v 5.00888 h -0.8128 v 3.50012 h 0.8128 v 0.98044 h 13.97 v -0.98044 h 0.8128 v -3.50012 h -0.8128 v -5.00888 h 0.8128 v -3.50012 h -0.8128 v -0.98044 z"
       style="display:inline;fill:none;stroke:#000000;stroke-width:0.26458332;stroke-linecap:round"
       id="path6065" />
    <path
       inkscape:connector-curvature="0"
       d="m 93.154208,102.34763 v 0.98044 h -0.8128 v 3.50012 h 0.8128 v 5.00888 h -0.8128 v 3.50012 h 0.8128 v 0.98044 H 107.1242 v -0.98044 h 0.8128 v -3.50012 h -0.8128 v -5.00888 h 0.8128 v -3.50012 h -0.8128 v -0.98044 z"
       style="display:inline;fill:none;stroke:#000000;stroke-width:0.26458332;stroke-linecap:round"
       id="path6067" />
    <path
       inkscape:connector-curvature="0"
       d="m 112.2042,100.74997 v 0.98044 h -0.8128 v 3.50012 h 0.8128 v 5.00888 h -0.8128 v 3.50012 h 0.8128 v 0.98044 h 13.97 v -0.98044 h 0.8128 v -3.50012 h -0.8128 v -5.00888 h 0.8128 v -3.50012 h -0.8128 v -0.98044 z"
       style="display:inline;fill:none;stroke:#000000;stroke-width:0.26458332;stroke-linecap:round"
       id="path6069" />
    <path
       inkscape:connector-curvature="0"
       d="m 150.30421,105.52263 v 0.98044 h -0.8128 v 3.50012 h 0.8128 v 5.00888 h -0.8128 v 3.50012 h 0.8128 v 0.98044 h 13.97 v -0.98044 h 0.8128 v -3.50012 h -0.8128 v -5.00888 h 0.8128 v -3.50012 h -0.8128 v -0.98044 z"
       style="display:inline;fill:none;stroke:#000000;stroke-width:0.26458332;stroke-linecap:round"
       id="path6071" />
    <path
       inkscape:connector-curvature="0"
       d="m 131.2542,159.49762 v 0.98045 h -0.8128 v 3.50011 h 0.8128 v 5.00888 h -0.8128 v 3.50012 h 0.8128 v 0.98044 h 13.97001 v -0.98044 h 0.8128 v -3.50012 h -0.8128 v -5.00888 h 0.8128 v -3.50011 h -0.8128 v -0.98045 z"
       style="display:inline;fill:none;stroke:#000000;stroke-width:0.26458332;stroke-linecap:round"
       id="path6073" />
    <path
       inkscape:connector-curvature="0"
       d="m 93.154208,83.297627 v 0.98044 h -0.8128 v 3.50012 h 0.8128 v 5.00888 h -0.8128 v 3.50012 h 0.8128 v 0.98044 H 107.1242 v -0.98044 h 0.8128 v -3.50012 h -0.8128 v -5.00888 h 0.8128 v -3.50012 h -0.8128 v -0.98044 z"
       style="display:inline;fill:none;stroke:#000000;stroke-width:0.26458332;stroke-linecap:round"
       id="path6075" />
    <path
       inkscape:connector-curvature="0"
       d="m 112.2042,81.699967 v 0.98044 h -0.8128 v 3.50012 h 0.8128 v 5.00888 h -0.8128 v 3.50012 h 0.8128 v 0.98044 h 13.97 v -0.98044 h 0.8128 v -3.50012 h -0.8128 v -5.00888 h 0.8128 v -3.50012 h -0.8128 v -0.98044 z"
       style="display:inline;fill:none;stroke:#000000;stroke-width:0.26458332;stroke-linecap:round"
       id="path6077" />
    <path
       inkscape:connector-curvature="0"
       d="m 131.2542,83.297627 v 0.98044 h -0.8128 v 3.50012 h 0.8128 v 5.00888 h -0.8128 v 3.50012 h 0.8128 v 0.98044 h 13.97001 v -0.98044 h 0.8128 v -3.50012 h -0.8128 v -5.00888 h 0.8128 v -3.50012 h -0.8128 v -0.98044 z"
       style="display:inline;fill:none;stroke:#000000;stroke-width:0.26458332;stroke-linecap:round"
       id="path6079" />
    <path
       inkscape:connector-curvature="0"
       d="m 150.30421,86.475167 v 0.98044 h -0.8128 v 3.50012 h 0.8128 v 5.00888 h -0.8128 v 3.50012 h 0.8128 v 0.980443 h 13.97 v -0.980443 h 0.8128 v -3.50012 h -0.8128 v -5.00888 h 0.8128 v -3.50012 h -0.8128 v -0.98044 z"
       style="display:inline;fill:none;stroke:#000000;stroke-width:0.26458332;stroke-linecap:round"
       id="path6081" />
    <path
       inkscape:connector-curvature="0"
       d="m 32.328826,158.29621 0.41656,0.889 -0.7366,0.34289 1.47828,3.17246 0.7366,-0.3429 2.11582,4.53898 -0.7366,0.34291 1.48082,3.17246 0.7366,-0.34291 0.41402,0.88901 12.6619,-5.90551 -0.41656,-0.889 0.7366,-0.34289 -1.47828,-3.17247 -0.7366,0.34291 -2.11582,-4.53899 0.7366,-0.3429 -1.48082,-3.17245 -0.7366,0.34289 -0.41402,-0.889 z"
       style="display:inline;fill:none;stroke:#000000;stroke-width:0.26458332;stroke-linecap:round"
       id="path6083" />
    <path
       inkscape:connector-curvature="0"
       d="m 15.064445,166.34546 0.41656,0.889 -0.7366,0.3429 1.47828,3.17247 0.7366,-0.34291 2.11582,4.53899 -0.7366,0.34289 1.48082,3.17246 0.7366,-0.34289 0.41402,0.889 12.661901,-5.90551 -0.41656,-0.889 0.7366,-0.34289 -1.47828,-3.17246 -0.7366,0.34289 -2.11582,-4.53897 0.7366,-0.34291 -1.48082,-3.17246 -0.736601,0.34291 -0.41402,-0.88901 z"
       style="display:inline;fill:none;stroke:#000000;stroke-width:0.26458332;stroke-linecap:round"
       id="path6085" />
    <path
       inkscape:connector-curvature="0"
       d="m 31.165506,200.87676 0.41656,0.88901 -0.7366,0.34289 1.47828,3.17247 0.7366,-0.3429 2.11582,4.53898 -0.7366,0.3429 1.48082,3.17246 0.7366,-0.3429 0.41402,0.889 12.6619,-5.9055 -0.41656,-0.889 0.7366,-0.3429 -1.47828,-3.17247 -0.7366,0.34291 -2.11582,-4.53899 0.7366,-0.34289 -1.48082,-3.17246 -0.7366,0.34289 -0.41402,-0.889 z"
       style="display:inline;fill:none;stroke:#000000;stroke-width:0.26458332;stroke-linecap:round"
       id="path6087" />
    <path
       inkscape:connector-curvature="0"
       d="m 23.113705,183.60984 0.41656,0.889 -0.7366,0.34291 1.47828,3.17245 0.7366,-0.34289 2.11582,4.53897 -0.7366,0.3429 1.48082,3.17247 0.736601,-0.34291 0.41402,0.889 12.6619,-5.90549 -0.41656,-0.889 0.7366,-0.34291 -1.47828,-3.17246 -0.7366,0.3429 -2.11582,-4.53898 0.7366,-0.34289 -1.48082,-3.17246 -0.7366,0.34289 -0.41402,-0.88899 z"
       style="display:inline;fill:none;stroke:#000000;stroke-width:0.26458332;stroke-linecap:round"
       id="path6089" />
    <path
       inkscape:connector-curvature="0"
       d="m 74.104208,103.61763 v 0.98044 h -0.8128 v 3.50012 h 0.8128 v 5.00888 h -0.8128 v 3.50012 h 0.8128 v 0.98044 h 13.97 v -0.98044 h 0.8128 v -3.50012 h -0.8128 v -5.00888 h 0.8128 v -3.50012 h -0.8128 v -0.98044 z"
       style="display:inline;fill:none;stroke:#000000;stroke-width:0.26458332;stroke-linecap:round"
       id="path6091" />
    <path
       inkscape:connector-curvature="0"
       d="m 169.35421,162.67262 v 0.98045 h -0.8128 v 3.50011 h 0.8128 v 5.00888 h -0.8128 v 3.50012 h 0.8128 v 0.98044 h 13.97 v -0.98044 h 0.8128 v -3.50012 h -0.8128 v -5.00888 h 0.8128 v -3.50011 h -0.8128 v -0.98045 z"
       style="display:inline;fill:none;stroke:#000000;stroke-width:0.26458332;stroke-linecap:round"
       id="path6093" />
    <path
       inkscape:connector-curvature="0"
       d="m 55.054206,150.92513 h 0.98044 v 0.8128 h 3.500122 v -0.8128 h 5.00888 v 0.8128 h 3.50012 v -0.8128 h 0.98044 v -13.97 h -0.98044 v -0.8128 h -3.50012 v 0.8128 h -5.00888 v -0.8128 h -3.500122 v 0.8128 h -0.98044 z"
       style="display:inline;fill:none;stroke:#000000;stroke-width:0.26458332;stroke-linecap:round"
       id="path6095" />
    <path
       inkscape:connector-curvature="0"
       d="m 55.054206,122.35013 h 0.98044 v 0.8128 h 3.500122 v -0.8128 h 5.00888 v 0.8128 h 3.50012 v -0.8128 h 0.98044 v -13.97 h -0.98044 v -0.8128 h -3.50012 v 0.8128 h -5.00888 v -0.8128 h -3.500122 v 0.8128 h -0.98044 z"
       style="display:inline;fill:none;stroke:#000000;stroke-width:0.26458332;stroke-linecap:round"
       id="path6097" />
    <path
       style="display:inline;fill:none;stroke:#000000;stroke-width:0.26458332px;stroke-linecap:butt;stroke-linejoin:miter;stroke-opacity:1"
       d="m 82.420008,58.936763 -10e-4,12.076314"
       id="path1517"
       inkscape:connector-curvature="0"
       sodipodi:nodetypes="cc" />
    <path
       style="display:inline;fill:none;stroke:#000000;stroke-width:0.26458332px;stroke-linecap:butt;stroke-linejoin:miter;stroke-opacity:1"
       d="m 69.649198,59.979578 0.01,11.033499"
       id="path1519"
       inkscape:connector-curvature="0"
       sodipodi:nodetypes="cc" />
    <path
       style="display:inline;fill:none;stroke:#000000;stroke-width:0.26458332px;stroke-linecap:butt;stroke-linejoin:miter;stroke-opacity:1"
       d="M 97.023908,58.914099 V 78.471151"
       id="path1521"
       inkscape:connector-curvature="0" />
  </g>
</svg>
