  0
SECTION
  2
HEADER
  9
$ACADVER
  1
AC1014
  9
$HANDSEED
  5
FFFF
  9
$MEASUREMENT
 70
     1
  0
ENDSEC
  0
SECTION
  2
TABLES
  0
TABLE
  2
VPORT
  5
8
330
0
100
AcDbSymbolTable
 70
     4
  0
VPORT
  5
2E
330
8
100
AcDbSymbolTableRecord
100
AcDbViewportTableRecord
  2
*ACTIVE
 70
     0
 10
0.0
 20
0.0
 11
1.0
 21
1.0
 12
210.0
 22
148.5
 13
0.0
 23
0.0
 14
10.0
 24
10.0
 15
10.0
 25
10.0
 16
0.0
 26
0.0
 36
1.0
 17
0.0
 27
0.0
 37
0.0
 40
341.0
 41
1.24
 42
50.0
 43
0.0
 44
0.0
 50
0.0
 51
0.0
 71
     0
 72
   100
 73
     1
 74
     3
 75
     0
 76
     0
 77
     0
 78
     0
  0
ENDTAB
  0
TABLE
  2
LTYPE
  5
5
330
0
100
AcDbSymbolTable
 70
     1
  0
LTYPE
  5
14
330
5
100
AcDbSymbolTableRecord
100
AcDbLinetypeTableRecord
  2
BYBLOCK
 70
     0
  3

 72
    65
 73
     0
 40
0.0
  0
LTYPE
  5
15
330
5
100
AcDbSymbolTableRecord
100
AcDbLinetypeTableRecord
  2
BYLAYER
 70
     0
  3

 72
    65
 73
     0
 40
0.0
  0
LTYPE
  5
16
330
5
100
AcDbSymbolTableRecord
100
AcDbLinetypeTableRecord
  2
CONTINUOUS
 70
     0
  3
Solid line
 72
    65
 73
     0
 40
0.0
  0
ENDTAB
  0
TABLE
  2
LAYER
  5
2
100
AcDbSymbolTable
 70
2
  0
LAYER
  5
50
100
AcDbSymbolTableRecord
100
AcDbLayerTableRecord
  2
0
 70
0
  6
CONTINUOUS
  0
LAYER
  5
51
100
AcDbSymbolTableRecord
100
AcDbLayerTableRecord
  2
Plate
 70
0
  6
CONTINUOUS
  0
ENDTAB
  0
TABLE
  2
STYLE
  5
3
330
0
100
AcDbSymbolTable
 70
     1
  0
STYLE
  5
11
330
3
100
AcDbSymbolTableRecord
100
AcDbTextStyleTableRecord
  2
STANDARD
 70
     0
 40
0.0
 41
1.0
 50
0.0
 71
     0
 42
2.5
  3
txt
  4

  0
ENDTAB
  0
TABLE
  2
VIEW
  5
6
330
0
100
AcDbSymbolTable
 70
     0
  0
ENDTAB
  0
TABLE
  2
UCS
  5
7
330
0
100
AcDbSymbolTable
 70
     0
  0
ENDTAB
  0
TABLE
  2
APPID
  5
9
330
0
100
AcDbSymbolTable
 70
     2
  0
APPID
  5
12
330
9
100
AcDbSymbolTableRecord
100
AcDbRegAppTableRecord
  2
ACAD
 70
     0
  0
ENDTAB
  0
TABLE
  2
DIMSTYLE
  5
A
330
0
100
AcDbSymbolTable
 70
     1
  0
DIMSTYLE
105
27
330
A
100
AcDbSymbolTableRecord
100
AcDbDimStyleTableRecord
  2
ISO-25
 70
     0
  3

  4

  5

  6

  7

 40
1.0
 41
2.5
 42
0.625
 43
3.75
 44
1.25
 45
0.0
 46
0.0
 47
0.0
 48
0.0
140
2.5
141
2.5
142
0.0
143
0.03937007874016
144
1.0
145
0.0
146
1.0
147
0.625
 71
     0
 72
     0
 73
     0
 74
     0
 75
     0
 76
     0
 77
     1
 78
     8
170
     0
171
     3
172
     1
173
     0
174
     0
175
     0
176
     0
177
     0
178
     0
270
     2
271
     2
272
     2
273
     2
274
     3
340
11
275
     0
280
     0
281
     0
282
     0
283
     0
284
     8
285
     0
286
     0
287
     3
288
     0
  0
ENDTAB
  0
TABLE
  2
BLOCK_RECORD
  5
1
330
0
100
AcDbSymbolTable
 70
     1
  0
BLOCK_RECORD
  5
1F
330
1
100
AcDbSymbolTableRecord
100
AcDbBlockTableRecord
  2
*MODEL_SPACE
  0
BLOCK_RECORD
  5
1B
330
1
100
AcDbSymbolTableRecord
100
AcDbBlockTableRecord
  2
*PAPER_SPACE
  0
ENDTAB
  0
ENDSEC
  0
SECTION
  2
BLOCKS
  0
BLOCK
  5
20
330
1F
100
AcDbEntity
  8
0
100
AcDbBlockBegin
  2
*MODEL_SPACE
 70
     0
 10
0.0
 20
0.0
 30
0.0
  3
*MODEL_SPACE
  1

  0
ENDBLK
  5
21
330
1F
100
AcDbEntity
  8
0
100
AcDbBlockEnd
  0
BLOCK
  5
1C
330
1B
100
AcDbEntity
 67
     1
  8
0
100
AcDbBlockBegin
  2
*PAPER_SPACE
  1

  0
ENDBLK
  5
1D
330
1B
100
AcDbEntity
 67
     1
  8
0
100
AcDbBlockEnd
  0
ENDSEC
  0
SECTION
  2
ENTITIES
  0
LINE
  5
100
100
AcDbEntity
  8
Plate
 62
7
100
AcDbLine
 10
74.304576
 20
248.103544
 30
0.0
 11
74.304576
 21
246.602764
 31
0.0
  0
LINE
  5
101
100
AcDbEntity
  8
Plate
 62
7
100
AcDbLine
 10
74.304576
 20
246.602764
 30
0.0
 11
70.804578
 21
246.602764
 31
0.0
  0
LINE
  5
102
100
AcDbEntity
  8
Plate
 62
7
100
AcDbLine
 10
70.804578
 20
246.602764
 30
0.0
 11
70.804578
 21
243.059948
 31
0.0
  0
LINE
  5
103
100
AcDbEntity
  8
Plate
 62
7
100
AcDbLine
 10
70.804578
 20
243.059948
 30
0.0
 11
67.808235
 21
243.059948
 31
0.0
  0
LINE
  5
104
100
AcDbEntity
  8
Plate
 62
7
100
AcDbLine
 10
67.808235
 20
243.059948
 30
0.0
 11
67.809029
 21
235.100837
 31
0.0
  0
LINE
  5
105
100
AcDbEntity
  8
Plate
 62
7
100
AcDbLine
 10
67.809029
 20
235.100837
 30
0.0
 11
70.804583
 21
235.102737
 31
0.0
  0
LINE
  5
106
100
AcDbEntity
  8
Plate
 62
7
100
AcDbLine
 10
70.804583
 20
235.102737
 30
0.0
 11
70.804583
 21
232.248139
 31
0.0
  0
LINE
  5
107
100
AcDbEntity
  8
Plate
 62
7
100
AcDbLine
 10
70.804583
 20
232.248139
 30
0.0
 11
96.076652
 21
232.248139
 31
0.0
  0
LINE
  5
108
100
AcDbEntity
  8
Plate
 62
7
100
AcDbLine
 10
96.076652
 20
232.248139
 30
0.0
 11
96.114422
 21
236.145550
 31
0.0
  0
LINE
  5
109
100
AcDbEntity
  8
Plate
 62
7
100
AcDbLine
 10
96.114422
 20
236.145550
 30
0.0
 11
96.201822
 21
236.143650
 31
0.0
  0
LINE
  5
10a
100
AcDbEntity
  8
Plate
 62
7
100
AcDbLine
 10
96.201822
 20
236.143650
 30
0.0
 11
96.051544
 21
244.102763
 31
0.0
  0
LINE
  5
10b
100
AcDbEntity
  8
Plate
 62
7
100
AcDbLine
 10
96.051544
 20
244.102763
 30
0.0
 11
83.575384
 21
244.102763
 31
0.0
  0
LINE
  5
10c
100
AcDbEntity
  8
Plate
 62
7
100
AcDbLine
 10
83.575384
 20
244.102763
 30
0.0
 11
83.575384
 21
246.602764
 31
0.0
  0
LINE
  5
10d
100
AcDbEntity
  8
Plate
 62
7
100
AcDbLine
 10
83.575384
 20
246.602764
 30
0.0
 11
80.304586
 21
246.602764
 31
0.0
  0
LINE
  5
10e
100
AcDbEntity
  8
Plate
 62
7
100
AcDbLine
 10
80.304586
 20
246.602764
 30
0.0
 11
80.304586
 21
248.103544
 31
0.0
  0
LINE
  5
10f
100
AcDbEntity
  8
Plate
 62
7
100
AcDbLine
 10
80.304586
 20
248.103544
 30
0.0
 11
80.861685
 21
248.103544
 31
0.0
  0
LINE
  5
110
100
AcDbEntity
  8
Plate
 62
7
100
AcDbLine
 10
80.861685
 20
248.103544
 30
0.0
 11
94.741374
 21
253.216561
 31
0.0
  0
LINE
  5
111
100
AcDbEntity
  8
Plate
 62
7
100
AcDbLine
 10
94.741374
 20
253.216561
 30
0.0
 11
110.558630
 21
253.216561
 31
0.0
  0
LINE
  5
112
100
AcDbEntity
  8
Plate
 62
7
100
AcDbLine
 10
110.558630
 20
253.216561
 30
0.0
 11
118.930380
 21
248.103544
 31
0.0
  0
LINE
  5
113
100
AcDbEntity
  8
Plate
 62
7
100
AcDbLine
 10
118.930380
 20
248.103544
 30
0.0
 11
121.702550
 21
248.103544
 31
0.0
  0
LINE
  5
114
100
AcDbEntity
  8
Plate
 62
7
100
AcDbLine
 10
121.702550
 20
248.103544
 30
0.0
 11
121.683650
 21
244.102763
 31
0.0
  0
LINE
  5
115
100
AcDbEntity
  8
Plate
 62
7
100
AcDbLine
 10
121.683650
 20
244.102763
 30
0.0
 11
109.869810
 21
244.102763
 31
0.0
  0
LINE
  5
116
100
AcDbEntity
  8
Plate
 62
7
100
AcDbLine
 10
109.869810
 20
244.102763
 30
0.0
 11
109.804510
 21
239.449764
 31
0.0
  0
LINE
  5
117
100
AcDbEntity
  8
Plate
 62
7
100
AcDbLine
 10
109.804510
 20
239.449764
 30
0.0
 11
109.804510
 21
239.449764
 31
0.0
  0
LINE
  5
118
100
AcDbEntity
  8
Plate
 62
7
100
AcDbLine
 10
109.804510
 20
239.449764
 30
0.0
 11
109.804510
 21
226.602762
 31
0.0
  0
LINE
  5
119
100
AcDbEntity
  8
Plate
 62
7
100
AcDbLine
 10
109.804510
 20
226.602762
 30
0.0
 11
150.023630
 21
226.602762
 31
0.0
  0
LINE
  5
11a
100
AcDbEntity
  8
Plate
 62
7
100
AcDbLine
 10
150.023630
 20
226.602762
 30
0.0
 11
150.023630
 21
224.602763
 31
0.0
  0
LINE
  5
11b
100
AcDbEntity
  8
Plate
 62
7
100
AcDbLine
 10
150.023630
 20
224.602763
 30
0.0
 11
196.831270
 21
224.602763
 31
0.0
  0
LINE
  5
11c
100
AcDbEntity
  8
Plate
 62
7
100
AcDbLine
 10
196.831270
 20
224.602763
 30
0.0
 11
196.844770
 21
244.102763
 31
0.0
  0
LINE
  5
11d
100
AcDbEntity
  8
Plate
 62
7
100
AcDbLine
 10
196.844770
 20
244.102763
 30
0.0
 11
135.621350
 21
244.102763
 31
0.0
  0
LINE
  5
11e
100
AcDbEntity
  8
Plate
 62
7
100
AcDbLine
 10
135.621350
 20
244.102763
 30
0.0
 11
135.621350
 21
248.103544
 31
0.0
  0
LINE
  5
11f
100
AcDbEntity
  8
Plate
 62
7
100
AcDbLine
 10
135.621350
 20
248.103544
 30
0.0
 11
139.614050
 21
248.103544
 31
0.0
  0
LINE
  5
120
100
AcDbEntity
  8
Plate
 62
7
100
AcDbLine
 10
139.614050
 20
248.103544
 30
0.0
 11
145.239400
 21
253.216561
 31
0.0
  0
LINE
  5
121
100
AcDbEntity
  8
Plate
 62
7
100
AcDbLine
 10
145.239400
 20
253.216561
 30
0.0
 11
198.612350
 21
253.216466
 31
0.0
  0
SPLINE
  5
122
100
AcDbEntity
  8
Plate
 62
7
100
AcDbSpline
 70
8
 71
3
 72
8
 73
4
 74
0
 40
0
 40
0
 40
0
 40
0
 40
1
 40
1
 40
1
 40
1
 10
198.612350
 20
253.216466
 30
0.0
 10
202.478350
 20
253.216466
 30
0.0
 10
205.612350
 20
250.082460
 30
0.0
 10
205.612350
 20
246.216467
 30
0.0
  0
LINE
  5
123
100
AcDbEntity
  8
Plate
 62
7
100
AcDbLine
 10
205.612350
 20
246.216467
 30
0.0
 11
205.612350
 21
121.786470
 31
0.0
  0
SPLINE
  5
124
100
AcDbEntity
  8
Plate
 62
7
100
AcDbSpline
 70
8
 71
3
 72
8
 73
4
 74
0
 40
0
 40
0
 40
0
 40
0
 40
1
 40
1
 40
1
 40
1
 10
205.612350
 20
121.786470
 30
0.0
 10
205.612350
 20
117.920470
 30
0.0
 10
202.478350
 20
114.786470
 30
0.0
 10
198.612350
 20
114.786470
 30
0.0
  0
LINE
  5
125
100
AcDbEntity
  8
Plate
 62
7
100
AcDbLine
 10
198.612350
 20
114.786470
 30
0.0
 11
121.479600
 21
114.786470
 31
0.0
  0
SPLINE
  5
126
100
AcDbEntity
  8
Plate
 62
7
100
AcDbSpline
 70
8
 71
3
 72
8
 73
4
 74
0
 40
0
 40
0
 40
0
 40
0
 40
1
 40
1
 40
1
 40
1
 10
121.479600
 20
114.786470
 30
0.0
 10
120.458580
 20
114.777470
 30
0.0
 10
119.450800
 20
114.554490
 30
0.0
 10
118.521780
 20
114.130860
 30
0.0
  0
LINE
  5
127
100
AcDbEntity
  8
Plate
 62
7
100
AcDbLine
 10
118.521780
 20
114.130860
 30
0.0
 11
38.953801
 21
77.035470
 31
0.0
  0
SPLINE
  5
128
100
AcDbEntity
  8
Plate
 62
7
100
AcDbSpline
 70
8
 71
3
 72
8
 73
4
 74
0
 40
0
 40
0
 40
0
 40
0
 40
1
 40
1
 40
1
 40
1
 10
38.953801
 20
77.035470
 30
0.0
 10
35.450080
 20
75.402010
 30
0.0
 10
31.285557
 20
76.917970
 30
0.0
 10
29.651819
 20
80.421550
 30
0.0
  0
LINE
  5
129
100
AcDbEntity
  8
Plate
 62
7
100
AcDbLine
 10
29.651819
 20
80.421550
 30
0.0
 11
3.687464
 21
136.102840
 31
0.0
  0
SPLINE
  5
12a
100
AcDbEntity
  8
Plate
 62
7
100
AcDbSpline
 70
8
 71
3
 72
8
 73
4
 74
0
 40
0
 40
0
 40
0
 40
0
 40
1
 40
1
 40
1
 40
1
 10
3.687464
 20
136.102840
 30
0.0
 10
2.053602
 20
139.606700
 30
0.0
 10
3.569601
 20
143.771640
 30
0.0
 10
7.073508
 20
145.405400
 30
0.0
  0
LINE
  5
12b
100
AcDbEntity
  8
Plate
 62
7
100
AcDbLine
 10
7.073508
 20
145.405400
 30
0.0
 11
40.483741
 21
160.983520
 31
0.0
  0
SPLINE
  5
12c
100
AcDbEntity
  8
Plate
 62
7
100
AcDbSpline
 70
8
 71
3
 72
8
 73
4
 74
0
 40
0
 40
0
 40
0
 40
0
 40
1
 40
1
 40
1
 40
1
 10
40.483741
 20
160.983520
 30
0.0
 10
42.949391
 20
162.133170
 30
0.0
 10
44.525622
 20
164.607270
 30
0.0
 10
44.525622
 20
167.327770
 30
0.0
  0
LINE
  5
12d
100
AcDbEntity
  8
Plate
 62
7
100
AcDbLine
 10
44.525622
 20
167.327770
 30
0.0
 11
44.525622
 21
246.216467
 31
0.0
  0
SPLINE
  5
12e
100
AcDbEntity
  8
Plate
 62
7
100
AcDbSpline
 70
8
 71
3
 72
8
 73
4
 74
0
 40
0
 40
0
 40
0
 40
0
 40
1
 40
1
 40
1
 40
1
 10
44.525622
 20
246.216467
 30
0.0
 10
44.525622
 20
250.082460
 30
0.0
 10
47.659628
 20
253.216466
 30
0.0
 10
51.525621
 20
253.216466
 30
0.0
  0
LINE
  5
12f
100
AcDbEntity
  8
Plate
 62
7
100
AcDbLine
 10
51.525621
 20
253.216466
 30
0.0
 11
59.638577
 21
253.216561
 31
0.0
  0
LINE
  5
130
100
AcDbEntity
  8
Plate
 62
7
100
AcDbLine
 10
59.638577
 20
253.216561
 30
0.0
 11
73.518277
 21
248.103544
 31
0.0
  0
LINE
  5
131
100
AcDbEntity
  8
Plate
 62
7
100
AcDbLine
 10
73.518277
 20
248.103544
 30
0.0
 11
74.304576
 21
248.103544
 31
0.0
  0
LINE
  5
132
100
AcDbEntity
  8
Plate
 62
7
100
AcDbLine
 10
70.179577
 20
217.488924
 30
0.0
 11
70.179577
 21
218.469364
 31
0.0
  0
LINE
  5
133
100
AcDbEntity
  8
Plate
 62
7
100
AcDbLine
 10
70.179577
 20
218.469364
 30
0.0
 11
56.209577
 21
218.469364
 31
0.0
  0
LINE
  5
134
100
AcDbEntity
  8
Plate
 62
7
100
AcDbLine
 10
56.209577
 20
218.469364
 30
0.0
 11
56.209577
 21
217.488924
 31
0.0
  0
LINE
  5
135
100
AcDbEntity
  8
Plate
 62
7
100
AcDbLine
 10
56.209577
 20
217.488924
 30
0.0
 11
55.396777
 21
217.488924
 31
0.0
  0
LINE
  5
136
100
AcDbEntity
  8
Plate
 62
7
100
AcDbLine
 10
55.396777
 20
217.488924
 30
0.0
 11
55.396777
 21
213.988802
 31
0.0
  0
LINE
  5
137
100
AcDbEntity
  8
Plate
 62
7
100
AcDbLine
 10
55.396777
 20
213.988802
 30
0.0
 11
56.209577
 21
213.988802
 31
0.0
  0
LINE
  5
138
100
AcDbEntity
  8
Plate
 62
7
100
AcDbLine
 10
56.209577
 20
213.988802
 30
0.0
 11
56.209577
 21
208.979922
 31
0.0
  0
LINE
  5
139
100
AcDbEntity
  8
Plate
 62
7
100
AcDbLine
 10
56.209577
 20
208.979922
 30
0.0
 11
55.396777
 21
208.979922
 31
0.0
  0
LINE
  5
13a
100
AcDbEntity
  8
Plate
 62
7
100
AcDbLine
 10
55.396777
 20
208.979922
 30
0.0
 11
55.396777
 21
205.479804
 31
0.0
  0
LINE
  5
13b
100
AcDbEntity
  8
Plate
 62
7
100
AcDbLine
 10
55.396777
 20
205.479804
 30
0.0
 11
56.209577
 21
205.479804
 31
0.0
  0
LINE
  5
13c
100
AcDbEntity
  8
Plate
 62
7
100
AcDbLine
 10
56.209577
 20
205.479804
 30
0.0
 11
56.209577
 21
204.499364
 31
0.0
  0
LINE
  5
13d
100
AcDbEntity
  8
Plate
 62
7
100
AcDbLine
 10
56.209577
 20
204.499364
 30
0.0
 11
70.179577
 21
204.499364
 31
0.0
  0
LINE
  5
13e
100
AcDbEntity
  8
Plate
 62
7
100
AcDbLine
 10
70.179577
 20
204.499364
 30
0.0
 11
70.179577
 21
205.479804
 31
0.0
  0
LINE
  5
13f
100
AcDbEntity
  8
Plate
 62
7
100
AcDbLine
 10
70.179577
 20
205.479804
 30
0.0
 11
70.992377
 21
205.479804
 31
0.0
  0
LINE
  5
140
100
AcDbEntity
  8
Plate
 62
7
100
AcDbLine
 10
70.992377
 20
205.479804
 30
0.0
 11
70.992377
 21
208.979922
 31
0.0
  0
LINE
  5
141
100
AcDbEntity
  8
Plate
 62
7
100
AcDbLine
 10
70.992377
 20
208.979922
 30
0.0
 11
70.179577
 21
208.979922
 31
0.0
  0
LINE
  5
142
100
AcDbEntity
  8
Plate
 62
7
100
AcDbLine
 10
70.179577
 20
208.979922
 30
0.0
 11
70.179577
 21
213.988802
 31
0.0
  0
LINE
  5
143
100
AcDbEntity
  8
Plate
 62
7
100
AcDbLine
 10
70.179577
 20
213.988802
 30
0.0
 11
70.992377
 21
213.988802
 31
0.0
  0
LINE
  5
144
100
AcDbEntity
  8
Plate
 62
7
100
AcDbLine
 10
70.992377
 20
213.988802
 30
0.0
 11
70.992377
 21
217.488924
 31
0.0
  0
LINE
  5
145
100
AcDbEntity
  8
Plate
 62
7
100
AcDbLine
 10
70.992377
 20
217.488924
 30
0.0
 11
70.179577
 21
217.488924
 31
0.0
  0
SPLINE
  5
146
100
AcDbEntity
  8
Plate
 62
7
100
AcDbSpline
 70
8
 71
3
 72
8
 73
4
 74
0
 40
0
 40
0
 40
0
 40
0
 40
1
 40
1
 40
1
 40
1
 10
52.295847
 20
246.952590
 30
0.0
 10
52.296285
 20
247.488780
 30
0.0
 10
52.010482
 20
247.984427
 30
0.0
 10
51.546201
 20
248.252649
 30
0.0
  0
SPLINE
  5
147
100
AcDbEntity
  8
Plate
 62
7
100
AcDbSpline
 70
8
 71
3
 72
8
 73
4
 74
0
 40
0
 40
0
 40
0
 40
0
 40
1
 40
1
 40
1
 40
1
 10
51.546201
 20
248.252649
 30
0.0
 10
51.081920
 20
248.520870
 30
0.0
 10
50.509775
 20
248.520870
 30
0.0
 10
50.045494
 20
248.252649
 30
0.0
  0
SPLINE
  5
148
100
AcDbEntity
  8
Plate
 62
7
100
AcDbSpline
 70
8
 71
3
 72
8
 73
4
 74
0
 40
0
 40
0
 40
0
 40
0
 40
1
 40
1
 40
1
 40
1
 10
50.045494
 20
248.252649
 30
0.0
 10
49.581213
 20
247.984427
 30
0.0
 10
49.295410
 20
247.488780
 30
0.0
 10
49.295848
 20
246.952590
 30
0.0
  0
SPLINE
  5
149
100
AcDbEntity
  8
Plate
 62
7
100
AcDbSpline
 70
8
 71
3
 72
8
 73
4
 74
0
 40
0
 40
0
 40
0
 40
0
 40
1
 40
1
 40
1
 40
1
 10
49.295848
 20
246.952590
 30
0.0
 10
49.295410
 20
246.416400
 30
0.0
 10
49.581213
 20
245.920753
 30
0.0
 10
50.045494
 20
245.652531
 30
0.0
  0
SPLINE
  5
14a
100
AcDbEntity
  8
Plate
 62
7
100
AcDbSpline
 70
8
 71
3
 72
8
 73
4
 74
0
 40
0
 40
0
 40
0
 40
0
 40
1
 40
1
 40
1
 40
1
 10
50.045494
 20
245.652531
 30
0.0
 10
50.509775
 20
245.384310
 30
0.0
 10
51.081920
 20
245.384310
 30
0.0
 10
51.546201
 20
245.652531
 30
0.0
  0
SPLINE
  5
14b
100
AcDbEntity
  8
Plate
 62
7
100
AcDbSpline
 70
8
 71
3
 72
8
 73
4
 74
0
 40
0
 40
0
 40
0
 40
0
 40
1
 40
1
 40
1
 40
1
 10
51.546201
 20
245.652531
 30
0.0
 10
52.010482
 20
245.920753
 30
0.0
 10
52.296285
 20
246.416400
 30
0.0
 10
52.295847
 20
246.952590
 30
0.0
  0
LINE
  5
14c
100
AcDbEntity
  8
Plate
 62
7
100
AcDbLine
 10
52.295847
 20
246.952590
 30
0.0
 11
52.295847
 21
246.952590
 31
0.0
  0
SPLINE
  5
14d
100
AcDbEntity
  8
Plate
 62
7
100
AcDbSpline
 70
8
 71
3
 72
8
 73
4
 74
0
 40
0
 40
0
 40
0
 40
0
 40
1
 40
1
 40
1
 40
1
 10
105.779120
 20
248.771466
 30
0.0
 10
105.779120
 20
249.307364
 30
0.0
 10
105.493222
 20
249.802555
 30
0.0
 10
105.029120
 20
250.070504
 30
0.0
  0
SPLINE
  5
14e
100
AcDbEntity
  8
Plate
 62
7
100
AcDbSpline
 70
8
 71
3
 72
8
 73
4
 74
0
 40
0
 40
0
 40
0
 40
0
 40
1
 40
1
 40
1
 40
1
 10
105.029120
 20
250.070504
 30
0.0
 10
104.565018
 20
250.338453
 30
0.0
 10
103.993222
 20
250.338453
 30
0.0
 10
103.529120
 20
250.070504
 30
0.0
  0
SPLINE
  5
14f
100
AcDbEntity
  8
Plate
 62
7
100
AcDbSpline
 70
8
 71
3
 72
8
 73
4
 74
0
 40
0
 40
0
 40
0
 40
0
 40
1
 40
1
 40
1
 40
1
 10
103.529120
 20
250.070504
 30
0.0
 10
103.065018
 20
249.802555
 30
0.0
 10
102.779120
 20
249.307364
 30
0.0
 10
102.779120
 20
248.771466
 30
0.0
  0
SPLINE
  5
150
100
AcDbEntity
  8
Plate
 62
7
100
AcDbSpline
 70
8
 71
3
 72
8
 73
4
 74
0
 40
0
 40
0
 40
0
 40
0
 40
1
 40
1
 40
1
 40
1
 10
102.779120
 20
248.771466
 30
0.0
 10
102.779120
 20
248.235568
 30
0.0
 10
103.065018
 20
247.740377
 30
0.0
 10
103.529120
 20
247.472428
 30
0.0
  0
SPLINE
  5
151
100
AcDbEntity
  8
Plate
 62
7
100
AcDbSpline
 70
8
 71
3
 72
8
 73
4
 74
0
 40
0
 40
0
 40
0
 40
0
 40
1
 40
1
 40
1
 40
1
 10
103.529120
 20
247.472428
 30
0.0
 10
103.993222
 20
247.204479
 30
0.0
 10
104.565018
 20
247.204479
 30
0.0
 10
105.029120
 20
247.472428
 30
0.0
  0
SPLINE
  5
152
100
AcDbEntity
  8
Plate
 62
7
100
AcDbSpline
 70
8
 71
3
 72
8
 73
4
 74
0
 40
0
 40
0
 40
0
 40
0
 40
1
 40
1
 40
1
 40
1
 10
105.029120
 20
247.472428
 30
0.0
 10
105.493222
 20
247.740377
 30
0.0
 10
105.779120
 20
248.235568
 30
0.0
 10
105.779120
 20
248.771466
 30
0.0
  0
LINE
  5
153
100
AcDbEntity
  8
Plate
 62
7
100
AcDbLine
 10
105.779120
 20
248.771466
 30
0.0
 11
105.779120
 21
248.771466
 31
0.0
  0
SPLINE
  5
154
100
AcDbEntity
  8
Plate
 62
7
100
AcDbSpline
 70
8
 71
3
 72
8
 73
4
 74
0
 40
0
 40
0
 40
0
 40
0
 40
1
 40
1
 40
1
 40
1
 10
200.848540
 20
246.952590
 30
0.0
 10
200.849926
 20
247.489409
 30
0.0
 10
200.564332
 20
247.986045
 30
0.0
 10
200.099663
 20
248.254855
 30
0.0
  0
SPLINE
  5
155
100
AcDbEntity
  8
Plate
 62
7
100
AcDbSpline
 70
8
 71
3
 72
8
 73
4
 74
0
 40
0
 40
0
 40
0
 40
0
 40
1
 40
1
 40
1
 40
1
 10
200.099663
 20
248.254855
 30
0.0
 10
199.634993
 20
248.523666
 30
0.0
 10
199.062097
 20
248.523666
 30
0.0
 10
198.597427
 20
248.254855
 30
0.0
  0
SPLINE
  5
156
100
AcDbEntity
  8
Plate
 62
7
100
AcDbSpline
 70
8
 71
3
 72
8
 73
4
 74
0
 40
0
 40
0
 40
0
 40
0
 40
1
 40
1
 40
1
 40
1
 10
198.597427
 20
248.254855
 30
0.0
 10
198.132758
 20
247.986045
 30
0.0
 10
197.847164
 20
247.489409
 30
0.0
 10
197.848550
 20
246.952590
 30
0.0
  0
SPLINE
  5
157
100
AcDbEntity
  8
Plate
 62
7
100
AcDbSpline
 70
8
 71
3
 72
8
 73
4
 74
0
 40
0
 40
0
 40
0
 40
0
 40
1
 40
1
 40
1
 40
1
 10
197.848550
 20
246.952590
 30
0.0
 10
197.847164
 20
246.415771
 30
0.0
 10
198.132758
 20
245.919135
 30
0.0
 10
198.597427
 20
245.650325
 30
0.0
  0
SPLINE
  5
158
100
AcDbEntity
  8
Plate
 62
7
100
AcDbSpline
 70
8
 71
3
 72
8
 73
4
 74
0
 40
0
 40
0
 40
0
 40
0
 40
1
 40
1
 40
1
 40
1
 10
198.597427
 20
245.650325
 30
0.0
 10
199.062097
 20
245.381514
 30
0.0
 10
199.634993
 20
245.381514
 30
0.0
 10
200.099663
 20
245.650325
 30
0.0
  0
SPLINE
  5
159
100
AcDbEntity
  8
Plate
 62
7
100
AcDbSpline
 70
8
 71
3
 72
8
 73
4
 74
0
 40
0
 40
0
 40
0
 40
0
 40
1
 40
1
 40
1
 40
1
 10
200.099663
 20
245.650325
 30
0.0
 10
200.564332
 20
245.919135
 30
0.0
 10
200.849926
 20
246.415771
 30
0.0
 10
200.848540
 20
246.952590
 30
0.0
  0
LINE
  5
15a
100
AcDbEntity
  8
Plate
 62
7
100
AcDbLine
 10
200.848540
 20
246.952590
 30
0.0
 11
200.848540
 21
246.952590
 31
0.0
  0
SPLINE
  5
15b
100
AcDbEntity
  8
Plate
 62
7
100
AcDbSpline
 70
8
 71
3
 72
8
 73
4
 74
0
 40
0
 40
0
 40
0
 40
0
 40
1
 40
1
 40
1
 40
1
 10
200.848540
 20
122.637840
 30
0.0
 10
200.849926
 20
123.174659
 30
0.0
 10
200.564332
 20
123.671295
 30
0.0
 10
200.099663
 20
123.940105
 30
0.0
  0
SPLINE
  5
15c
100
AcDbEntity
  8
Plate
 62
7
100
AcDbSpline
 70
8
 71
3
 72
8
 73
4
 74
0
 40
0
 40
0
 40
0
 40
0
 40
1
 40
1
 40
1
 40
1
 10
200.099663
 20
123.940105
 30
0.0
 10
199.634993
 20
124.208916
 30
0.0
 10
199.062097
 20
124.208916
 30
0.0
 10
198.597427
 20
123.940105
 30
0.0
  0
SPLINE
  5
15d
100
AcDbEntity
  8
Plate
 62
7
100
AcDbSpline
 70
8
 71
3
 72
8
 73
4
 74
0
 40
0
 40
0
 40
0
 40
0
 40
1
 40
1
 40
1
 40
1
 10
198.597427
 20
123.940105
 30
0.0
 10
198.132758
 20
123.671295
 30
0.0
 10
197.847164
 20
123.174659
 30
0.0
 10
197.848550
 20
122.637840
 30
0.0
  0
SPLINE
  5
15e
100
AcDbEntity
  8
Plate
 62
7
100
AcDbSpline
 70
8
 71
3
 72
8
 73
4
 74
0
 40
0
 40
0
 40
0
 40
0
 40
1
 40
1
 40
1
 40
1
 10
197.848550
 20
122.637840
 30
0.0
 10
197.847164
 20
122.101021
 30
0.0
 10
198.132758
 20
121.604385
 30
0.0
 10
198.597427
 20
121.335575
 30
0.0
  0
SPLINE
  5
15f
100
AcDbEntity
  8
Plate
 62
7
100
AcDbSpline
 70
8
 71
3
 72
8
 73
4
 74
0
 40
0
 40
0
 40
0
 40
0
 40
1
 40
1
 40
1
 40
1
 10
198.597427
 20
121.335575
 30
0.0
 10
199.062097
 20
121.066764
 30
0.0
 10
199.634993
 20
121.066764
 30
0.0
 10
200.099663
 20
121.335575
 30
0.0
  0
SPLINE
  5
160
100
AcDbEntity
  8
Plate
 62
7
100
AcDbSpline
 70
8
 71
3
 72
8
 73
4
 74
0
 40
0
 40
0
 40
0
 40
0
 40
1
 40
1
 40
1
 40
1
 10
200.099663
 20
121.335575
 30
0.0
 10
200.564332
 20
121.604385
 30
0.0
 10
200.849926
 20
122.101021
 30
0.0
 10
200.848540
 20
122.637840
 30
0.0
  0
LINE
  5
161
100
AcDbEntity
  8
Plate
 62
7
100
AcDbLine
 10
200.848540
 20
122.637840
 30
0.0
 11
200.848540
 21
122.637840
 31
0.0
  0
SPLINE
  5
162
100
AcDbEntity
  8
Plate
 62
7
100
AcDbSpline
 70
8
 71
3
 72
8
 73
4
 74
0
 40
0
 40
0
 40
0
 40
0
 40
1
 40
1
 40
1
 40
1
 10
120.442540
 20
119.231470
 30
0.0
 10
120.442540
 20
119.767368
 30
0.0
 10
120.156642
 20
120.262559
 30
0.0
 10
119.692540
 20
120.530508
 30
0.0
  0
SPLINE
  5
163
100
AcDbEntity
  8
Plate
 62
7
100
AcDbSpline
 70
8
 71
3
 72
8
 73
4
 74
0
 40
0
 40
0
 40
0
 40
0
 40
1
 40
1
 40
1
 40
1
 10
119.692540
 20
120.530508
 30
0.0
 10
119.228438
 20
120.798457
 30
0.0
 10
118.656642
 20
120.798457
 30
0.0
 10
118.192540
 20
120.530508
 30
0.0
  0
SPLINE
  5
164
100
AcDbEntity
  8
Plate
 62
7
100
AcDbSpline
 70
8
 71
3
 72
8
 73
4
 74
0
 40
0
 40
0
 40
0
 40
0
 40
1
 40
1
 40
1
 40
1
 10
118.192540
 20
120.530508
 30
0.0
 10
117.728438
 20
120.262559
 30
0.0
 10
117.442540
 20
119.767368
 30
0.0
 10
117.442540
 20
119.231470
 30
0.0
  0
SPLINE
  5
165
100
AcDbEntity
  8
Plate
 62
7
100
AcDbSpline
 70
8
 71
3
 72
8
 73
4
 74
0
 40
0
 40
0
 40
0
 40
0
 40
1
 40
1
 40
1
 40
1
 10
117.442540
 20
119.231470
 30
0.0
 10
117.442540
 20
118.695572
 30
0.0
 10
117.728438
 20
118.200381
 30
0.0
 10
118.192540
 20
117.932432
 30
0.0
  0
SPLINE
  5
166
100
AcDbEntity
  8
Plate
 62
7
100
AcDbSpline
 70
8
 71
3
 72
8
 73
4
 74
0
 40
0
 40
0
 40
0
 40
0
 40
1
 40
1
 40
1
 40
1
 10
118.192540
 20
117.932432
 30
0.0
 10
118.656642
 20
117.664483
 30
0.0
 10
119.228438
 20
117.664483
 30
0.0
 10
119.692540
 20
117.932432
 30
0.0
  0
SPLINE
  5
167
100
AcDbEntity
  8
Plate
 62
7
100
AcDbSpline
 70
8
 71
3
 72
8
 73
4
 74
0
 40
0
 40
0
 40
0
 40
0
 40
1
 40
1
 40
1
 40
1
 10
119.692540
 20
117.932432
 30
0.0
 10
120.156642
 20
118.200381
 30
0.0
 10
120.442540
 20
118.695572
 30
0.0
 10
120.442540
 20
119.231470
 30
0.0
  0
LINE
  5
168
100
AcDbEntity
  8
Plate
 62
7
100
AcDbLine
 10
120.442540
 20
119.231470
 30
0.0
 11
120.442540
 21
119.231470
 31
0.0
  0
SPLINE
  5
169
100
AcDbEntity
  8
Plate
 62
7
100
AcDbSpline
 70
8
 71
3
 72
8
 73
4
 74
0
 40
0
 40
0
 40
0
 40
0
 40
1
 40
1
 40
1
 40
1
 10
37.140326
 20
82.400870
 30
0.0
 10
37.140326
 20
82.936769
 30
0.0
 10
36.854427
 20
83.431960
 30
0.0
 10
36.390326
 20
83.699909
 30
0.0
  0
SPLINE
  5
16a
100
AcDbEntity
  8
Plate
 62
7
100
AcDbSpline
 70
8
 71
3
 72
8
 73
4
 74
0
 40
0
 40
0
 40
0
 40
0
 40
1
 40
1
 40
1
 40
1
 10
36.390326
 20
83.699909
 30
0.0
 10
35.926224
 20
83.967858
 30
0.0
 10
35.354426
 20
83.967858
 30
0.0
 10
34.890325
 20
83.699909
 30
0.0
  0
SPLINE
  5
16b
100
AcDbEntity
  8
Plate
 62
7
100
AcDbSpline
 70
8
 71
3
 72
8
 73
4
 74
0
 40
0
 40
0
 40
0
 40
0
 40
1
 40
1
 40
1
 40
1
 10
34.890325
 20
83.699909
 30
0.0
 10
34.426223
 20
83.431960
 30
0.0
 10
34.140324
 20
82.936769
 30
0.0
 10
34.140324
 20
82.400870
 30
0.0
  0
SPLINE
  5
16c
100
AcDbEntity
  8
Plate
 62
7
100
AcDbSpline
 70
8
 71
3
 72
8
 73
4
 74
0
 40
0
 40
0
 40
0
 40
0
 40
1
 40
1
 40
1
 40
1
 10
34.140324
 20
82.400870
 30
0.0
 10
34.140324
 20
81.864971
 30
0.0
 10
34.426223
 20
81.369780
 30
0.0
 10
34.890325
 20
81.101831
 30
0.0
  0
SPLINE
  5
16d
100
AcDbEntity
  8
Plate
 62
7
100
AcDbSpline
 70
8
 71
3
 72
8
 73
4
 74
0
 40
0
 40
0
 40
0
 40
0
 40
1
 40
1
 40
1
 40
1
 10
34.890325
 20
81.101831
 30
0.0
 10
35.354426
 20
80.833882
 30
0.0
 10
35.926224
 20
80.833882
 30
0.0
 10
36.390326
 20
81.101831
 30
0.0
  0
SPLINE
  5
16e
100
AcDbEntity
  8
Plate
 62
7
100
AcDbSpline
 70
8
 71
3
 72
8
 73
4
 74
0
 40
0
 40
0
 40
0
 40
0
 40
1
 40
1
 40
1
 40
1
 10
36.390326
 20
81.101831
 30
0.0
 10
36.854427
 20
81.369780
 30
0.0
 10
37.140326
 20
81.864971
 30
0.0
 10
37.140326
 20
82.400870
 30
0.0
  0
LINE
  5
16f
100
AcDbEntity
  8
Plate
 62
7
100
AcDbLine
 10
37.140326
 20
82.400870
 30
0.0
 11
37.140326
 21
82.400870
 31
0.0
  0
SPLINE
  5
170
100
AcDbEntity
  8
Plate
 62
7
100
AcDbSpline
 70
8
 71
3
 72
8
 73
4
 74
0
 40
0
 40
0
 40
0
 40
0
 40
1
 40
1
 40
1
 40
1
 10
10.553888
 20
139.416950
 30
0.0
 10
10.554026
 20
139.952941
 30
0.0
 10
10.268158
 20
140.448276
 30
0.0
 10
9.804000
 20
140.716311
 30
0.0
  0
SPLINE
  5
171
100
AcDbEntity
  8
Plate
 62
7
100
AcDbSpline
 70
8
 71
3
 72
8
 73
4
 74
0
 40
0
 40
0
 40
0
 40
0
 40
1
 40
1
 40
1
 40
1
 10
9.804000
 20
140.716311
 30
0.0
 10
9.339841
 20
140.984346
 30
0.0
 10
8.767935
 20
140.984346
 30
0.0
 10
8.303776
 20
140.716311
 30
0.0
  0
SPLINE
  5
172
100
AcDbEntity
  8
Plate
 62
7
100
AcDbSpline
 70
8
 71
3
 72
8
 73
4
 74
0
 40
0
 40
0
 40
0
 40
0
 40
1
 40
1
 40
1
 40
1
 10
8.303776
 20
140.716311
 30
0.0
 10
7.839618
 20
140.448276
 30
0.0
 10
7.553750
 20
139.952941
 30
0.0
 10
7.553888
 20
139.416950
 30
0.0
  0
SPLINE
  5
173
100
AcDbEntity
  8
Plate
 62
7
100
AcDbSpline
 70
8
 71
3
 72
8
 73
4
 74
0
 40
0
 40
0
 40
0
 40
0
 40
1
 40
1
 40
1
 40
1
 10
7.553888
 20
139.416950
 30
0.0
 10
7.553888
 20
138.881052
 30
0.0
 10
7.839786
 20
138.385861
 30
0.0
 10
8.303888
 20
138.117912
 30
0.0
  0
SPLINE
  5
174
100
AcDbEntity
  8
Plate
 62
7
100
AcDbSpline
 70
8
 71
3
 72
8
 73
4
 74
0
 40
0
 40
0
 40
0
 40
0
 40
1
 40
1
 40
1
 40
1
 10
8.303888
 20
138.117912
 30
0.0
 10
8.767990
 20
137.849963
 30
0.0
 10
9.339786
 20
137.849963
 30
0.0
 10
9.803888
 20
138.117912
 30
0.0
  0
SPLINE
  5
175
100
AcDbEntity
  8
Plate
 62
7
100
AcDbSpline
 70
8
 71
3
 72
8
 73
4
 74
0
 40
0
 40
0
 40
0
 40
0
 40
1
 40
1
 40
1
 40
1
 10
9.803888
 20
138.117912
 30
0.0
 10
10.267990
 20
138.385861
 30
0.0
 10
10.553888
 20
138.881052
 30
0.0
 10
10.553888
 20
139.416950
 30
0.0
  0
LINE
  5
176
100
AcDbEntity
  8
Plate
 62
7
100
AcDbLine
 10
10.553888
 20
139.416950
 30
0.0
 11
10.553888
 21
139.416950
 31
0.0
  0
LINE
  5
177
100
AcDbEntity
  8
Plate
 62
7
100
AcDbLine
 10
175.272080
 20
159.416900
 30
0.0
 11
175.272080
 21
158.436460
 31
0.0
  0
LINE
  5
178
100
AcDbEntity
  8
Plate
 62
7
100
AcDbLine
 10
175.272080
 20
158.436460
 30
0.0
 11
174.459280
 21
158.436460
 31
0.0
  0
LINE
  5
179
100
AcDbEntity
  8
Plate
 62
7
100
AcDbLine
 10
174.459280
 20
158.436460
 30
0.0
 11
174.459280
 21
154.936340
 31
0.0
  0
LINE
  5
17a
100
AcDbEntity
  8
Plate
 62
7
100
AcDbLine
 10
174.459280
 20
154.936340
 30
0.0
 11
175.272080
 21
154.936340
 31
0.0
  0
LINE
  5
17b
100
AcDbEntity
  8
Plate
 62
7
100
AcDbLine
 10
175.272080
 20
154.936340
 30
0.0
 11
175.272080
 21
149.927470
 31
0.0
  0
LINE
  5
17c
100
AcDbEntity
  8
Plate
 62
7
100
AcDbLine
 10
175.272080
 20
149.927470
 30
0.0
 11
174.459280
 21
149.927470
 31
0.0
  0
LINE
  5
17d
100
AcDbEntity
  8
Plate
 62
7
100
AcDbLine
 10
174.459280
 20
149.927470
 30
0.0
 11
174.459280
 21
146.427350
 31
0.0
  0
LINE
  5
17e
100
AcDbEntity
  8
Plate
 62
7
100
AcDbLine
 10
174.459280
 20
146.427350
 30
0.0
 11
175.272080
 21
146.427350
 31
0.0
  0
LINE
  5
17f
100
AcDbEntity
  8
Plate
 62
7
100
AcDbLine
 10
175.272080
 20
146.427350
 30
0.0
 11
175.272080
 21
145.446910
 31
0.0
  0
LINE
  5
180
100
AcDbEntity
  8
Plate
 62
7
100
AcDbLine
 10
175.272080
 20
145.446910
 30
0.0
 11
189.242080
 21
145.446910
 31
0.0
  0
LINE
  5
181
100
AcDbEntity
  8
Plate
 62
7
100
AcDbLine
 10
189.242080
 20
145.446910
 30
0.0
 11
189.242080
 21
146.427350
 31
0.0
  0
LINE
  5
182
100
AcDbEntity
  8
Plate
 62
7
100
AcDbLine
 10
189.242080
 20
146.427350
 30
0.0
 11
190.054880
 21
146.427350
 31
0.0
  0
LINE
  5
183
100
AcDbEntity
  8
Plate
 62
7
100
AcDbLine
 10
190.054880
 20
146.427350
 30
0.0
 11
190.054880
 21
149.927470
 31
0.0
  0
LINE
  5
184
100
AcDbEntity
  8
Plate
 62
7
100
AcDbLine
 10
190.054880
 20
149.927470
 30
0.0
 11
189.242080
 21
149.927470
 31
0.0
  0
LINE
  5
185
100
AcDbEntity
  8
Plate
 62
7
100
AcDbLine
 10
189.242080
 20
149.927470
 30
0.0
 11
189.242080
 21
154.936340
 31
0.0
  0
LINE
  5
186
100
AcDbEntity
  8
Plate
 62
7
100
AcDbLine
 10
189.242080
 20
154.936340
 30
0.0
 11
190.054880
 21
154.936340
 31
0.0
  0
LINE
  5
187
100
AcDbEntity
  8
Plate
 62
7
100
AcDbLine
 10
190.054880
 20
154.936340
 30
0.0
 11
190.054880
 21
158.436460
 31
0.0
  0
LINE
  5
188
100
AcDbEntity
  8
Plate
 62
7
100
AcDbLine
 10
190.054880
 20
158.436460
 30
0.0
 11
189.242080
 21
158.436460
 31
0.0
  0
LINE
  5
189
100
AcDbEntity
  8
Plate
 62
7
100
AcDbLine
 10
189.242080
 20
158.436460
 30
0.0
 11
189.242080
 21
159.416900
 31
0.0
  0
LINE
  5
18a
100
AcDbEntity
  8
Plate
 62
7
100
AcDbLine
 10
189.242080
 20
159.416900
 30
0.0
 11
175.272080
 21
159.416900
 31
0.0
  0
LINE
  5
18b
100
AcDbEntity
  8
Plate
 62
7
100
AcDbLine
 10
175.272080
 20
178.466900
 30
0.0
 11
175.272080
 21
177.486460
 31
0.0
  0
LINE
  5
18c
100
AcDbEntity
  8
Plate
 62
7
100
AcDbLine
 10
175.272080
 20
177.486460
 30
0.0
 11
174.459280
 21
177.486460
 31
0.0
  0
LINE
  5
18d
100
AcDbEntity
  8
Plate
 62
7
100
AcDbLine
 10
174.459280
 20
177.486460
 30
0.0
 11
174.459280
 21
173.986340
 31
0.0
  0
LINE
  5
18e
100
AcDbEntity
  8
Plate
 62
7
100
AcDbLine
 10
174.459280
 20
173.986340
 30
0.0
 11
175.272080
 21
173.986340
 31
0.0
  0
LINE
  5
18f
100
AcDbEntity
  8
Plate
 62
7
100
AcDbLine
 10
175.272080
 20
173.986340
 30
0.0
 11
175.272080
 21
168.977460
 31
0.0
  0
LINE
  5
190
100
AcDbEntity
  8
Plate
 62
7
100
AcDbLine
 10
175.272080
 20
168.977460
 30
0.0
 11
174.459280
 21
168.977460
 31
0.0
  0
LINE
  5
191
100
AcDbEntity
  8
Plate
 62
7
100
AcDbLine
 10
174.459280
 20
168.977460
 30
0.0
 11
174.459280
 21
165.477340
 31
0.0
  0
LINE
  5
192
100
AcDbEntity
  8
Plate
 62
7
100
AcDbLine
 10
174.459280
 20
165.477340
 30
0.0
 11
175.272080
 21
165.477340
 31
0.0
  0
LINE
  5
193
100
AcDbEntity
  8
Plate
 62
7
100
AcDbLine
 10
175.272080
 20
165.477340
 30
0.0
 11
175.272080
 21
164.496900
 31
0.0
  0
LINE
  5
194
100
AcDbEntity
  8
Plate
 62
7
100
AcDbLine
 10
175.272080
 20
164.496900
 30
0.0
 11
189.242080
 21
164.496900
 31
0.0
  0
LINE
  5
195
100
AcDbEntity
  8
Plate
 62
7
100
AcDbLine
 10
189.242080
 20
164.496900
 30
0.0
 11
189.242080
 21
165.477340
 31
0.0
  0
LINE
  5
196
100
AcDbEntity
  8
Plate
 62
7
100
AcDbLine
 10
189.242080
 20
165.477340
 30
0.0
 11
190.054880
 21
165.477340
 31
0.0
  0
LINE
  5
197
100
AcDbEntity
  8
Plate
 62
7
100
AcDbLine
 10
190.054880
 20
165.477340
 30
0.0
 11
190.054880
 21
168.977460
 31
0.0
  0
LINE
  5
198
100
AcDbEntity
  8
Plate
 62
7
100
AcDbLine
 10
190.054880
 20
168.977460
 30
0.0
 11
189.242080
 21
168.977460
 31
0.0
  0
LINE
  5
199
100
AcDbEntity
  8
Plate
 62
7
100
AcDbLine
 10
189.242080
 20
168.977460
 30
0.0
 11
189.242080
 21
173.986340
 31
0.0
  0
LINE
  5
19a
100
AcDbEntity
  8
Plate
 62
7
100
AcDbLine
 10
189.242080
 20
173.986340
 30
0.0
 11
190.054880
 21
173.986340
 31
0.0
  0
LINE
  5
19b
100
AcDbEntity
  8
Plate
 62
7
100
AcDbLine
 10
190.054880
 20
173.986340
 30
0.0
 11
190.054880
 21
177.486460
 31
0.0
  0
LINE
  5
19c
100
AcDbEntity
  8
Plate
 62
7
100
AcDbLine
 10
190.054880
 20
177.486460
 30
0.0
 11
189.242080
 21
177.486460
 31
0.0
  0
LINE
  5
19d
100
AcDbEntity
  8
Plate
 62
7
100
AcDbLine
 10
189.242080
 20
177.486460
 30
0.0
 11
189.242080
 21
178.466900
 31
0.0
  0
LINE
  5
19e
100
AcDbEntity
  8
Plate
 62
7
100
AcDbLine
 10
189.242080
 20
178.466900
 30
0.0
 11
175.272080
 21
178.466900
 31
0.0
  0
LINE
  5
19f
100
AcDbEntity
  8
Plate
 62
7
100
AcDbLine
 10
175.272080
 20
197.516904
 30
0.0
 11
175.272080
 21
196.536460
 31
0.0
  0
LINE
  5
1a0
100
AcDbEntity
  8
Plate
 62
7
100
AcDbLine
 10
175.272080
 20
196.536460
 30
0.0
 11
174.459280
 21
196.536460
 31
0.0
  0
LINE
  5
1a1
100
AcDbEntity
  8
Plate
 62
7
100
AcDbLine
 10
174.459280
 20
196.536460
 30
0.0
 11
174.459280
 21
193.036340
 31
0.0
  0
LINE
  5
1a2
100
AcDbEntity
  8
Plate
 62
7
100
AcDbLine
 10
174.459280
 20
193.036340
 30
0.0
 11
175.272080
 21
193.036340
 31
0.0
  0
LINE
  5
1a3
100
AcDbEntity
  8
Plate
 62
7
100
AcDbLine
 10
175.272080
 20
193.036340
 30
0.0
 11
175.272080
 21
188.027460
 31
0.0
  0
LINE
  5
1a4
100
AcDbEntity
  8
Plate
 62
7
100
AcDbLine
 10
175.272080
 20
188.027460
 30
0.0
 11
174.459280
 21
188.027460
 31
0.0
  0
LINE
  5
1a5
100
AcDbEntity
  8
Plate
 62
7
100
AcDbLine
 10
174.459280
 20
188.027460
 30
0.0
 11
174.459280
 21
184.527340
 31
0.0
  0
LINE
  5
1a6
100
AcDbEntity
  8
Plate
 62
7
100
AcDbLine
 10
174.459280
 20
184.527340
 30
0.0
 11
175.272080
 21
184.527340
 31
0.0
  0
LINE
  5
1a7
100
AcDbEntity
  8
Plate
 62
7
100
AcDbLine
 10
175.272080
 20
184.527340
 30
0.0
 11
175.272080
 21
183.546900
 31
0.0
  0
LINE
  5
1a8
100
AcDbEntity
  8
Plate
 62
7
100
AcDbLine
 10
175.272080
 20
183.546900
 30
0.0
 11
189.242080
 21
183.546900
 31
0.0
  0
LINE
  5
1a9
100
AcDbEntity
  8
Plate
 62
7
100
AcDbLine
 10
189.242080
 20
183.546900
 30
0.0
 11
189.242080
 21
184.527340
 31
0.0
  0
LINE
  5
1aa
100
AcDbEntity
  8
Plate
 62
7
100
AcDbLine
 10
189.242080
 20
184.527340
 30
0.0
 11
190.054880
 21
184.527340
 31
0.0
  0
LINE
  5
1ab
100
AcDbEntity
  8
Plate
 62
7
100
AcDbLine
 10
190.054880
 20
184.527340
 30
0.0
 11
190.054880
 21
188.027460
 31
0.0
  0
LINE
  5
1ac
100
AcDbEntity
  8
Plate
 62
7
100
AcDbLine
 10
190.054880
 20
188.027460
 30
0.0
 11
189.242080
 21
188.027460
 31
0.0
  0
LINE
  5
1ad
100
AcDbEntity
  8
Plate
 62
7
100
AcDbLine
 10
189.242080
 20
188.027460
 30
0.0
 11
189.242080
 21
193.036340
 31
0.0
  0
LINE
  5
1ae
100
AcDbEntity
  8
Plate
 62
7
100
AcDbLine
 10
189.242080
 20
193.036340
 30
0.0
 11
190.054880
 21
193.036340
 31
0.0
  0
LINE
  5
1af
100
AcDbEntity
  8
Plate
 62
7
100
AcDbLine
 10
190.054880
 20
193.036340
 30
0.0
 11
190.054880
 21
196.536460
 31
0.0
  0
LINE
  5
1b0
100
AcDbEntity
  8
Plate
 62
7
100
AcDbLine
 10
190.054880
 20
196.536460
 30
0.0
 11
189.242080
 21
196.536460
 31
0.0
  0
LINE
  5
1b1
100
AcDbEntity
  8
Plate
 62
7
100
AcDbLine
 10
189.242080
 20
196.536460
 30
0.0
 11
189.242080
 21
197.516904
 31
0.0
  0
LINE
  5
1b2
100
AcDbEntity
  8
Plate
 62
7
100
AcDbLine
 10
189.242080
 20
197.516904
 30
0.0
 11
175.272080
 21
197.516904
 31
0.0
  0
LINE
  5
1b3
100
AcDbEntity
  8
Plate
 62
7
100
AcDbLine
 10
175.272080
 20
216.564364
 30
0.0
 11
175.272080
 21
215.583924
 31
0.0
  0
LINE
  5
1b4
100
AcDbEntity
  8
Plate
 62
7
100
AcDbLine
 10
175.272080
 20
215.583924
 30
0.0
 11
174.459280
 21
215.583924
 31
0.0
  0
LINE
  5
1b5
100
AcDbEntity
  8
Plate
 62
7
100
AcDbLine
 10
174.459280
 20
215.583924
 30
0.0
 11
174.459280
 21
212.083804
 31
0.0
  0
LINE
  5
1b6
100
AcDbEntity
  8
Plate
 62
7
100
AcDbLine
 10
174.459280
 20
212.083804
 30
0.0
 11
175.272080
 21
212.083804
 31
0.0
  0
LINE
  5
1b7
100
AcDbEntity
  8
Plate
 62
7
100
AcDbLine
 10
175.272080
 20
212.083804
 30
0.0
 11
175.272080
 21
207.074924
 31
0.0
  0
LINE
  5
1b8
100
AcDbEntity
  8
Plate
 62
7
100
AcDbLine
 10
175.272080
 20
207.074924
 30
0.0
 11
174.459280
 21
207.074924
 31
0.0
  0
LINE
  5
1b9
100
AcDbEntity
  8
Plate
 62
7
100
AcDbLine
 10
174.459280
 20
207.074924
 30
0.0
 11
174.459280
 21
203.574802
 31
0.0
  0
LINE
  5
1ba
100
AcDbEntity
  8
Plate
 62
7
100
AcDbLine
 10
174.459280
 20
203.574802
 30
0.0
 11
175.272080
 21
203.574802
 31
0.0
  0
LINE
  5
1bb
100
AcDbEntity
  8
Plate
 62
7
100
AcDbLine
 10
175.272080
 20
203.574802
 30
0.0
 11
175.272080
 21
202.594364
 31
0.0
  0
LINE
  5
1bc
100
AcDbEntity
  8
Plate
 62
7
100
AcDbLine
 10
175.272080
 20
202.594364
 30
0.0
 11
189.242080
 21
202.594364
 31
0.0
  0
LINE
  5
1bd
100
AcDbEntity
  8
Plate
 62
7
100
AcDbLine
 10
189.242080
 20
202.594364
 30
0.0
 11
189.242080
 21
203.574802
 31
0.0
  0
LINE
  5
1be
100
AcDbEntity
  8
Plate
 62
7
100
AcDbLine
 10
189.242080
 20
203.574802
 30
0.0
 11
190.054880
 21
203.574802
 31
0.0
  0
LINE
  5
1bf
100
AcDbEntity
  8
Plate
 62
7
100
AcDbLine
 10
190.054880
 20
203.574802
 30
0.0
 11
190.054880
 21
207.074924
 31
0.0
  0
LINE
  5
1c0
100
AcDbEntity
  8
Plate
 62
7
100
AcDbLine
 10
190.054880
 20
207.074924
 30
0.0
 11
189.242080
 21
207.074924
 31
0.0
  0
LINE
  5
1c1
100
AcDbEntity
  8
Plate
 62
7
100
AcDbLine
 10
189.242080
 20
207.074924
 30
0.0
 11
189.242080
 21
212.083804
 31
0.0
  0
LINE
  5
1c2
100
AcDbEntity
  8
Plate
 62
7
100
AcDbLine
 10
189.242080
 20
212.083804
 30
0.0
 11
190.054880
 21
212.083804
 31
0.0
  0
LINE
  5
1c3
100
AcDbEntity
  8
Plate
 62
7
100
AcDbLine
 10
190.054880
 20
212.083804
 30
0.0
 11
190.054880
 21
215.583924
 31
0.0
  0
LINE
  5
1c4
100
AcDbEntity
  8
Plate
 62
7
100
AcDbLine
 10
190.054880
 20
215.583924
 30
0.0
 11
189.242080
 21
215.583924
 31
0.0
  0
LINE
  5
1c5
100
AcDbEntity
  8
Plate
 62
7
100
AcDbLine
 10
189.242080
 20
215.583924
 30
0.0
 11
189.242080
 21
216.564364
 31
0.0
  0
LINE
  5
1c6
100
AcDbEntity
  8
Plate
 62
7
100
AcDbLine
 10
189.242080
 20
216.564364
 30
0.0
 11
175.272080
 21
216.564364
 31
0.0
  0
LINE
  5
1c7
100
AcDbEntity
  8
Plate
 62
7
100
AcDbLine
 10
75.259577
 20
218.469364
 30
0.0
 11
75.259577
 21
217.488924
 31
0.0
  0
LINE
  5
1c8
100
AcDbEntity
  8
Plate
 62
7
100
AcDbLine
 10
75.259577
 20
217.488924
 30
0.0
 11
74.446777
 21
217.488924
 31
0.0
  0
LINE
  5
1c9
100
AcDbEntity
  8
Plate
 62
7
100
AcDbLine
 10
74.446777
 20
217.488924
 30
0.0
 11
74.446777
 21
213.988802
 31
0.0
  0
LINE
  5
1ca
100
AcDbEntity
  8
Plate
 62
7
100
AcDbLine
 10
74.446777
 20
213.988802
 30
0.0
 11
75.259577
 21
213.988802
 31
0.0
  0
LINE
  5
1cb
100
AcDbEntity
  8
Plate
 62
7
100
AcDbLine
 10
75.259577
 20
213.988802
 30
0.0
 11
75.259577
 21
208.979922
 31
0.0
  0
LINE
  5
1cc
100
AcDbEntity
  8
Plate
 62
7
100
AcDbLine
 10
75.259577
 20
208.979922
 30
0.0
 11
74.446777
 21
208.979922
 31
0.0
  0
LINE
  5
1cd
100
AcDbEntity
  8
Plate
 62
7
100
AcDbLine
 10
74.446777
 20
208.979922
 30
0.0
 11
74.446777
 21
205.479804
 31
0.0
  0
LINE
  5
1ce
100
AcDbEntity
  8
Plate
 62
7
100
AcDbLine
 10
74.446777
 20
205.479804
 30
0.0
 11
75.259577
 21
205.479804
 31
0.0
  0
LINE
  5
1cf
100
AcDbEntity
  8
Plate
 62
7
100
AcDbLine
 10
75.259577
 20
205.479804
 30
0.0
 11
75.259577
 21
204.499364
 31
0.0
  0
LINE
  5
1d0
100
AcDbEntity
  8
Plate
 62
7
100
AcDbLine
 10
75.259577
 20
204.499364
 30
0.0
 11
89.229577
 21
204.499364
 31
0.0
  0
LINE
  5
1d1
100
AcDbEntity
  8
Plate
 62
7
100
AcDbLine
 10
89.229577
 20
204.499364
 30
0.0
 11
89.229577
 21
205.479804
 31
0.0
  0
LINE
  5
1d2
100
AcDbEntity
  8
Plate
 62
7
100
AcDbLine
 10
89.229577
 20
205.479804
 30
0.0
 11
90.042377
 21
205.479804
 31
0.0
  0
LINE
  5
1d3
100
AcDbEntity
  8
Plate
 62
7
100
AcDbLine
 10
90.042377
 20
205.479804
 30
0.0
 11
90.042377
 21
208.979922
 31
0.0
  0
LINE
  5
1d4
100
AcDbEntity
  8
Plate
 62
7
100
AcDbLine
 10
90.042377
 20
208.979922
 30
0.0
 11
89.229577
 21
208.979922
 31
0.0
  0
LINE
  5
1d5
100
AcDbEntity
  8
Plate
 62
7
100
AcDbLine
 10
89.229577
 20
208.979922
 30
0.0
 11
89.229577
 21
213.988802
 31
0.0
  0
LINE
  5
1d6
100
AcDbEntity
  8
Plate
 62
7
100
AcDbLine
 10
89.229577
 20
213.988802
 30
0.0
 11
90.042377
 21
213.988802
 31
0.0
  0
LINE
  5
1d7
100
AcDbEntity
  8
Plate
 62
7
100
AcDbLine
 10
90.042377
 20
213.988802
 30
0.0
 11
90.042377
 21
217.488924
 31
0.0
  0
LINE
  5
1d8
100
AcDbEntity
  8
Plate
 62
7
100
AcDbLine
 10
90.042377
 20
217.488924
 30
0.0
 11
89.229577
 21
217.488924
 31
0.0
  0
LINE
  5
1d9
100
AcDbEntity
  8
Plate
 62
7
100
AcDbLine
 10
89.229577
 20
217.488924
 30
0.0
 11
89.229577
 21
218.469364
 31
0.0
  0
LINE
  5
1da
100
AcDbEntity
  8
Plate
 62
7
100
AcDbLine
 10
89.229577
 20
218.469364
 30
0.0
 11
75.259577
 21
218.469364
 31
0.0
  0
LINE
  5
1db
100
AcDbEntity
  8
Plate
 62
7
100
AcDbLine
 10
132.409580
 20
200.691904
 30
0.0
 11
132.409580
 21
199.711462
 31
0.0
  0
LINE
  5
1dc
100
AcDbEntity
  8
Plate
 62
7
100
AcDbLine
 10
132.409580
 20
199.711462
 30
0.0
 11
131.596780
 21
199.711462
 31
0.0
  0
LINE
  5
1dd
100
AcDbEntity
  8
Plate
 62
7
100
AcDbLine
 10
131.596780
 20
199.711462
 30
0.0
 11
131.596780
 21
196.211340
 31
0.0
  0
LINE
  5
1de
100
AcDbEntity
  8
Plate
 62
7
100
AcDbLine
 10
131.596780
 20
196.211340
 30
0.0
 11
132.409580
 21
196.211340
 31
0.0
  0
LINE
  5
1df
100
AcDbEntity
  8
Plate
 62
7
100
AcDbLine
 10
132.409580
 20
196.211340
 30
0.0
 11
132.409580
 21
191.202460
 31
0.0
  0
LINE
  5
1e0
100
AcDbEntity
  8
Plate
 62
7
100
AcDbLine
 10
132.409580
 20
191.202460
 30
0.0
 11
131.596780
 21
191.202460
 31
0.0
  0
LINE
  5
1e1
100
AcDbEntity
  8
Plate
 62
7
100
AcDbLine
 10
131.596780
 20
191.202460
 30
0.0
 11
131.596780
 21
187.702340
 31
0.0
  0
LINE
  5
1e2
100
AcDbEntity
  8
Plate
 62
7
100
AcDbLine
 10
131.596780
 20
187.702340
 30
0.0
 11
132.409580
 21
187.702340
 31
0.0
  0
LINE
  5
1e3
100
AcDbEntity
  8
Plate
 62
7
100
AcDbLine
 10
132.409580
 20
187.702340
 30
0.0
 11
132.409580
 21
186.721900
 31
0.0
  0
LINE
  5
1e4
100
AcDbEntity
  8
Plate
 62
7
100
AcDbLine
 10
132.409580
 20
186.721900
 30
0.0
 11
146.379580
 21
186.721900
 31
0.0
  0
LINE
  5
1e5
100
AcDbEntity
  8
Plate
 62
7
100
AcDbLine
 10
146.379580
 20
186.721900
 30
0.0
 11
146.379580
 21
187.702340
 31
0.0
  0
LINE
  5
1e6
100
AcDbEntity
  8
Plate
 62
7
100
AcDbLine
 10
146.379580
 20
187.702340
 30
0.0
 11
147.192380
 21
187.702340
 31
0.0
  0
LINE
  5
1e7
100
AcDbEntity
  8
Plate
 62
7
100
AcDbLine
 10
147.192380
 20
187.702340
 30
0.0
 11
147.192380
 21
191.202460
 31
0.0
  0
LINE
  5
1e8
100
AcDbEntity
  8
Plate
 62
7
100
AcDbLine
 10
147.192380
 20
191.202460
 30
0.0
 11
146.379580
 21
191.202460
 31
0.0
  0
LINE
  5
1e9
100
AcDbEntity
  8
Plate
 62
7
100
AcDbLine
 10
146.379580
 20
191.202460
 30
0.0
 11
146.379580
 21
196.211340
 31
0.0
  0
LINE
  5
1ea
100
AcDbEntity
  8
Plate
 62
7
100
AcDbLine
 10
146.379580
 20
196.211340
 30
0.0
 11
147.192380
 21
196.211340
 31
0.0
  0
LINE
  5
1eb
100
AcDbEntity
  8
Plate
 62
7
100
AcDbLine
 10
147.192380
 20
196.211340
 30
0.0
 11
147.192380
 21
199.711462
 31
0.0
  0
LINE
  5
1ec
100
AcDbEntity
  8
Plate
 62
7
100
AcDbLine
 10
147.192380
 20
199.711462
 30
0.0
 11
146.379580
 21
199.711462
 31
0.0
  0
LINE
  5
1ed
100
AcDbEntity
  8
Plate
 62
7
100
AcDbLine
 10
146.379580
 20
199.711462
 30
0.0
 11
146.379580
 21
200.691904
 31
0.0
  0
LINE
  5
1ee
100
AcDbEntity
  8
Plate
 62
7
100
AcDbLine
 10
146.379580
 20
200.691904
 30
0.0
 11
132.409580
 21
200.691904
 31
0.0
  0
LINE
  5
1ef
100
AcDbEntity
  8
Plate
 62
7
100
AcDbLine
 10
51.464857
 20
106.183590
 30
0.0
 11
52.353857
 21
106.600150
 31
0.0
  0
LINE
  5
1f0
100
AcDbEntity
  8
Plate
 62
7
100
AcDbLine
 10
52.353857
 20
106.600150
 30
0.0
 11
52.696757
 21
105.863550
 31
0.0
  0
LINE
  5
1f1
100
AcDbEntity
  8
Plate
 62
7
100
AcDbLine
 10
52.696757
 20
105.863550
 30
0.0
 11
55.869217
 21
107.341820
 31
0.0
  0
LINE
  5
1f2
100
AcDbEntity
  8
Plate
 62
7
100
AcDbLine
 10
55.869217
 20
107.341820
 30
0.0
 11
55.526317
 21
108.078420
 31
0.0
  0
LINE
  5
1f3
100
AcDbEntity
  8
Plate
 62
7
100
AcDbLine
 10
55.526317
 20
108.078420
 30
0.0
 11
60.065297
 21
110.194240
 31
0.0
  0
LINE
  5
1f4
100
AcDbEntity
  8
Plate
 62
7
100
AcDbLine
 10
60.065297
 20
110.194240
 30
0.0
 11
60.408197
 21
109.457640
 31
0.0
  0
LINE
  5
1f5
100
AcDbEntity
  8
Plate
 62
7
100
AcDbLine
 10
60.408197
 20
109.457640
 30
0.0
 11
63.580657
 21
110.938470
 31
0.0
  0
LINE
  5
1f6
100
AcDbEntity
  8
Plate
 62
7
100
AcDbLine
 10
63.580657
 20
110.938470
 30
0.0
 11
63.237757
 21
111.675070
 31
0.0
  0
LINE
  5
1f7
100
AcDbEntity
  8
Plate
 62
7
100
AcDbLine
 10
63.237757
 20
111.675070
 30
0.0
 11
64.126757
 21
112.089080
 31
0.0
  0
LINE
  5
1f8
100
AcDbEntity
  8
Plate
 62
7
100
AcDbLine
 10
64.126757
 20
112.089080
 30
0.0
 11
58.221257
 21
124.750980
 31
0.0
  0
LINE
  5
1f9
100
AcDbEntity
  8
Plate
 62
7
100
AcDbLine
 10
58.221257
 20
124.750980
 30
0.0
 11
57.332257
 21
124.334430
 31
0.0
  0
LINE
  5
1fa
100
AcDbEntity
  8
Plate
 62
7
100
AcDbLine
 10
57.332257
 20
124.334430
 30
0.0
 11
56.989357
 21
125.071030
 31
0.0
  0
LINE
  5
1fb
100
AcDbEntity
  8
Plate
 62
7
100
AcDbLine
 10
56.989357
 20
125.071030
 30
0.0
 11
53.816897
 21
123.592740
 31
0.0
  0
LINE
  5
1fc
100
AcDbEntity
  8
Plate
 62
7
100
AcDbLine
 10
53.816897
 20
123.592740
 30
0.0
 11
54.159797
 21
122.856140
 31
0.0
  0
LINE
  5
1fd
100
AcDbEntity
  8
Plate
 62
7
100
AcDbLine
 10
54.159797
 20
122.856140
 30
0.0
 11
49.620817
 21
120.740320
 31
0.0
  0
LINE
  5
1fe
100
AcDbEntity
  8
Plate
 62
7
100
AcDbLine
 10
49.620817
 20
120.740320
 30
0.0
 11
49.277917
 21
121.476930
 31
0.0
  0
LINE
  5
1ff
100
AcDbEntity
  8
Plate
 62
7
100
AcDbLine
 10
49.277917
 20
121.476930
 30
0.0
 11
46.105457
 21
119.996110
 31
0.0
  0
LINE
  5
200
100
AcDbEntity
  8
Plate
 62
7
100
AcDbLine
 10
46.105457
 20
119.996110
 30
0.0
 11
46.448357
 21
119.259510
 31
0.0
  0
LINE
  5
201
100
AcDbEntity
  8
Plate
 62
7
100
AcDbLine
 10
46.448357
 20
119.259510
 30
0.0
 11
45.559357
 21
118.845490
 31
0.0
  0
LINE
  5
202
100
AcDbEntity
  8
Plate
 62
7
100
AcDbLine
 10
45.559357
 20
118.845490
 30
0.0
 11
51.464857
 21
106.183590
 31
0.0
  0
LINE
  5
203
100
AcDbEntity
  8
Plate
 62
7
100
AcDbLine
 10
68.729237
 20
114.235380
 30
0.0
 11
69.618237
 21
114.651950
 31
0.0
  0
LINE
  5
204
100
AcDbEntity
  8
Plate
 62
7
100
AcDbLine
 10
69.618237
 20
114.651950
 30
0.0
 11
69.961137
 21
113.915350
 31
0.0
  0
LINE
  5
205
100
AcDbEntity
  8
Plate
 62
7
100
AcDbLine
 10
69.961137
 20
113.915350
 30
0.0
 11
73.133597
 21
115.393620
 31
0.0
  0
LINE
  5
206
100
AcDbEntity
  8
Plate
 62
7
100
AcDbLine
 10
73.133597
 20
115.393620
 30
0.0
 11
72.790697
 21
116.130220
 31
0.0
  0
LINE
  5
207
100
AcDbEntity
  8
Plate
 62
7
100
AcDbLine
 10
72.790697
 20
116.130220
 30
0.0
 11
77.329677
 21
118.246040
 31
0.0
  0
LINE
  5
208
100
AcDbEntity
  8
Plate
 62
7
100
AcDbLine
 10
77.329677
 20
118.246040
 30
0.0
 11
77.672577
 21
117.509450
 31
0.0
  0
LINE
  5
209
100
AcDbEntity
  8
Plate
 62
7
100
AcDbLine
 10
77.672577
 20
117.509450
 30
0.0
 11
80.845037
 21
118.990270
 31
0.0
  0
LINE
  5
20a
100
AcDbEntity
  8
Plate
 62
7
100
AcDbLine
 10
80.845037
 20
118.990270
 30
0.0
 11
80.502137
 21
119.726870
 31
0.0
  0
LINE
  5
20b
100
AcDbEntity
  8
Plate
 62
7
100
AcDbLine
 10
80.502137
 20
119.726870
 30
0.0
 11
81.391137
 21
120.140890
 31
0.0
  0
LINE
  5
20c
100
AcDbEntity
  8
Plate
 62
7
100
AcDbLine
 10
81.391137
 20
120.140890
 30
0.0
 11
75.485637
 21
132.802790
 31
0.0
  0
LINE
  5
20d
100
AcDbEntity
  8
Plate
 62
7
100
AcDbLine
 10
75.485637
 20
132.802790
 30
0.0
 11
74.596637
 21
132.386230
 31
0.0
  0
LINE
  5
20e
100
AcDbEntity
  8
Plate
 62
7
100
AcDbLine
 10
74.596637
 20
132.386230
 30
0.0
 11
74.253737
 21
133.122830
 31
0.0
  0
LINE
  5
20f
100
AcDbEntity
  8
Plate
 62
7
100
AcDbLine
 10
74.253737
 20
133.122830
 30
0.0
 11
71.081277
 21
131.644540
 31
0.0
  0
LINE
  5
210
100
AcDbEntity
  8
Plate
 62
7
100
AcDbLine
 10
71.081277
 20
131.644540
 30
0.0
 11
71.424177
 21
130.907940
 31
0.0
  0
LINE
  5
211
100
AcDbEntity
  8
Plate
 62
7
100
AcDbLine
 10
71.424177
 20
130.907940
 30
0.0
 11
66.885197
 21
128.792120
 31
0.0
  0
LINE
  5
212
100
AcDbEntity
  8
Plate
 62
7
100
AcDbLine
 10
66.885197
 20
128.792120
 30
0.0
 11
66.542297
 21
129.528720
 31
0.0
  0
LINE
  5
213
100
AcDbEntity
  8
Plate
 62
7
100
AcDbLine
 10
66.542297
 20
129.528720
 30
0.0
 11
63.369837
 21
128.047910
 31
0.0
  0
LINE
  5
214
100
AcDbEntity
  8
Plate
 62
7
100
AcDbLine
 10
63.369837
 20
128.047910
 30
0.0
 11
63.712737
 21
127.311310
 31
0.0
  0
LINE
  5
215
100
AcDbEntity
  8
Plate
 62
7
100
AcDbLine
 10
63.712737
 20
127.311310
 30
0.0
 11
62.823737
 21
126.897280
 31
0.0
  0
LINE
  5
216
100
AcDbEntity
  8
Plate
 62
7
100
AcDbLine
 10
62.823737
 20
126.897280
 30
0.0
 11
68.729237
 21
114.235380
 31
0.0
  0
LINE
  5
217
100
AcDbEntity
  8
Plate
 62
7
100
AcDbLine
 10
94.309576
 20
143.541910
 30
0.0
 11
94.309576
 21
142.561460
 31
0.0
  0
LINE
  5
218
100
AcDbEntity
  8
Plate
 62
7
100
AcDbLine
 10
94.309576
 20
142.561460
 30
0.0
 11
93.496777
 21
142.561460
 31
0.0
  0
LINE
  5
219
100
AcDbEntity
  8
Plate
 62
7
100
AcDbLine
 10
93.496777
 20
142.561460
 30
0.0
 11
93.496777
 21
139.061350
 31
0.0
  0
LINE
  5
21a
100
AcDbEntity
  8
Plate
 62
7
100
AcDbLine
 10
93.496777
 20
139.061350
 30
0.0
 11
94.309576
 21
139.061350
 31
0.0
  0
LINE
  5
21b
100
AcDbEntity
  8
Plate
 62
7
100
AcDbLine
 10
94.309576
 20
139.061350
 30
0.0
 11
94.309576
 21
134.052470
 31
0.0
  0
LINE
  5
21c
100
AcDbEntity
  8
Plate
 62
7
100
AcDbLine
 10
94.309576
 20
134.052470
 30
0.0
 11
93.496777
 21
134.052470
 31
0.0
  0
LINE
  5
21d
100
AcDbEntity
  8
Plate
 62
7
100
AcDbLine
 10
93.496777
 20
134.052470
 30
0.0
 11
93.496777
 21
130.552350
 31
0.0
  0
LINE
  5
21e
100
AcDbEntity
  8
Plate
 62
7
100
AcDbLine
 10
93.496777
 20
130.552350
 30
0.0
 11
94.309576
 21
130.552350
 31
0.0
  0
LINE
  5
21f
100
AcDbEntity
  8
Plate
 62
7
100
AcDbLine
 10
94.309576
 20
130.552350
 30
0.0
 11
94.309576
 21
129.571910
 31
0.0
  0
LINE
  5
220
100
AcDbEntity
  8
Plate
 62
7
100
AcDbLine
 10
94.309576
 20
129.571910
 30
0.0
 11
108.279580
 21
129.571910
 31
0.0
  0
LINE
  5
221
100
AcDbEntity
  8
Plate
 62
7
100
AcDbLine
 10
108.279580
 20
129.571910
 30
0.0
 11
108.279580
 21
130.552350
 31
0.0
  0
LINE
  5
222
100
AcDbEntity
  8
Plate
 62
7
100
AcDbLine
 10
108.279580
 20
130.552350
 30
0.0
 11
109.092380
 21
130.552350
 31
0.0
  0
LINE
  5
223
100
AcDbEntity
  8
Plate
 62
7
100
AcDbLine
 10
109.092380
 20
130.552350
 30
0.0
 11
109.092380
 21
134.052470
 31
0.0
  0
LINE
  5
224
100
AcDbEntity
  8
Plate
 62
7
100
AcDbLine
 10
109.092380
 20
134.052470
 30
0.0
 11
108.279580
 21
134.052470
 31
0.0
  0
LINE
  5
225
100
AcDbEntity
  8
Plate
 62
7
100
AcDbLine
 10
108.279580
 20
134.052470
 30
0.0
 11
108.279580
 21
139.061350
 31
0.0
  0
LINE
  5
226
100
AcDbEntity
  8
Plate
 62
7
100
AcDbLine
 10
108.279580
 20
139.061350
 30
0.0
 11
109.092380
 21
139.061350
 31
0.0
  0
LINE
  5
227
100
AcDbEntity
  8
Plate
 62
7
100
AcDbLine
 10
109.092380
 20
139.061350
 30
0.0
 11
109.092380
 21
142.561460
 31
0.0
  0
LINE
  5
228
100
AcDbEntity
  8
Plate
 62
7
100
AcDbLine
 10
109.092380
 20
142.561460
 30
0.0
 11
108.279580
 21
142.561460
 31
0.0
  0
LINE
  5
229
100
AcDbEntity
  8
Plate
 62
7
100
AcDbLine
 10
108.279580
 20
142.561460
 30
0.0
 11
108.279580
 21
143.541910
 31
0.0
  0
LINE
  5
22a
100
AcDbEntity
  8
Plate
 62
7
100
AcDbLine
 10
108.279580
 20
143.541910
 30
0.0
 11
94.309576
 21
143.541910
 31
0.0
  0
LINE
  5
22b
100
AcDbEntity
  8
Plate
 62
7
100
AcDbLine
 10
113.359580
 20
145.139570
 30
0.0
 11
113.359580
 21
144.159130
 31
0.0
  0
LINE
  5
22c
100
AcDbEntity
  8
Plate
 62
7
100
AcDbLine
 10
113.359580
 20
144.159130
 30
0.0
 11
112.546780
 21
144.159130
 31
0.0
  0
LINE
  5
22d
100
AcDbEntity
  8
Plate
 62
7
100
AcDbLine
 10
112.546780
 20
144.159130
 30
0.0
 11
112.546780
 21
140.659010
 31
0.0
  0
LINE
  5
22e
100
AcDbEntity
  8
Plate
 62
7
100
AcDbLine
 10
112.546780
 20
140.659010
 30
0.0
 11
113.359580
 21
140.659010
 31
0.0
  0
LINE
  5
22f
100
AcDbEntity
  8
Plate
 62
7
100
AcDbLine
 10
113.359580
 20
140.659010
 30
0.0
 11
113.359580
 21
135.650130
 31
0.0
  0
LINE
  5
230
100
AcDbEntity
  8
Plate
 62
7
100
AcDbLine
 10
113.359580
 20
135.650130
 30
0.0
 11
112.546780
 21
135.650130
 31
0.0
  0
LINE
  5
231
100
AcDbEntity
  8
Plate
 62
7
100
AcDbLine
 10
112.546780
 20
135.650130
 30
0.0
 11
112.546780
 21
132.150000
 31
0.0
  0
LINE
  5
232
100
AcDbEntity
  8
Plate
 62
7
100
AcDbLine
 10
112.546780
 20
132.150000
 30
0.0
 11
113.359580
 21
132.150000
 31
0.0
  0
LINE
  5
233
100
AcDbEntity
  8
Plate
 62
7
100
AcDbLine
 10
113.359580
 20
132.150000
 30
0.0
 11
113.359580
 21
131.169560
 31
0.0
  0
LINE
  5
234
100
AcDbEntity
  8
Plate
 62
7
100
AcDbLine
 10
113.359580
 20
131.169560
 30
0.0
 11
127.329580
 21
131.169560
 31
0.0
  0
LINE
  5
235
100
AcDbEntity
  8
Plate
 62
7
100
AcDbLine
 10
127.329580
 20
131.169560
 30
0.0
 11
127.329580
 21
132.150000
 31
0.0
  0
LINE
  5
236
100
AcDbEntity
  8
Plate
 62
7
100
AcDbLine
 10
127.329580
 20
132.150000
 30
0.0
 11
128.142380
 21
132.150000
 31
0.0
  0
LINE
  5
237
100
AcDbEntity
  8
Plate
 62
7
100
AcDbLine
 10
128.142380
 20
132.150000
 30
0.0
 11
128.142380
 21
135.650130
 31
0.0
  0
LINE
  5
238
100
AcDbEntity
  8
Plate
 62
7
100
AcDbLine
 10
128.142380
 20
135.650130
 30
0.0
 11
127.329580
 21
135.650130
 31
0.0
  0
LINE
  5
239
100
AcDbEntity
  8
Plate
 62
7
100
AcDbLine
 10
127.329580
 20
135.650130
 30
0.0
 11
127.329580
 21
140.659010
 31
0.0
  0
LINE
  5
23a
100
AcDbEntity
  8
Plate
 62
7
100
AcDbLine
 10
127.329580
 20
140.659010
 30
0.0
 11
128.142380
 21
140.659010
 31
0.0
  0
LINE
  5
23b
100
AcDbEntity
  8
Plate
 62
7
100
AcDbLine
 10
128.142380
 20
140.659010
 30
0.0
 11
128.142380
 21
144.159130
 31
0.0
  0
LINE
  5
23c
100
AcDbEntity
  8
Plate
 62
7
100
AcDbLine
 10
128.142380
 20
144.159130
 30
0.0
 11
127.329580
 21
144.159130
 31
0.0
  0
LINE
  5
23d
100
AcDbEntity
  8
Plate
 62
7
100
AcDbLine
 10
127.329580
 20
144.159130
 30
0.0
 11
127.329580
 21
145.139570
 31
0.0
  0
LINE
  5
23e
100
AcDbEntity
  8
Plate
 62
7
100
AcDbLine
 10
127.329580
 20
145.139570
 30
0.0
 11
113.359580
 21
145.139570
 31
0.0
  0
LINE
  5
23f
100
AcDbEntity
  8
Plate
 62
7
100
AcDbLine
 10
151.459580
 20
140.366910
 30
0.0
 11
151.459580
 21
139.386460
 31
0.0
  0
LINE
  5
240
100
AcDbEntity
  8
Plate
 62
7
100
AcDbLine
 10
151.459580
 20
139.386460
 30
0.0
 11
150.646780
 21
139.386460
 31
0.0
  0
LINE
  5
241
100
AcDbEntity
  8
Plate
 62
7
100
AcDbLine
 10
150.646780
 20
139.386460
 30
0.0
 11
150.646780
 21
135.886350
 31
0.0
  0
LINE
  5
242
100
AcDbEntity
  8
Plate
 62
7
100
AcDbLine
 10
150.646780
 20
135.886350
 30
0.0
 11
151.459580
 21
135.886350
 31
0.0
  0
LINE
  5
243
100
AcDbEntity
  8
Plate
 62
7
100
AcDbLine
 10
151.459580
 20
135.886350
 30
0.0
 11
151.459580
 21
130.877470
 31
0.0
  0
LINE
  5
244
100
AcDbEntity
  8
Plate
 62
7
100
AcDbLine
 10
151.459580
 20
130.877470
 30
0.0
 11
150.646780
 21
130.877470
 31
0.0
  0
LINE
  5
245
100
AcDbEntity
  8
Plate
 62
7
100
AcDbLine
 10
150.646780
 20
130.877470
 30
0.0
 11
150.646780
 21
127.377350
 31
0.0
  0
LINE
  5
246
100
AcDbEntity
  8
Plate
 62
7
100
AcDbLine
 10
150.646780
 20
127.377350
 30
0.0
 11
151.459580
 21
127.377350
 31
0.0
  0
LINE
  5
247
100
AcDbEntity
  8
Plate
 62
7
100
AcDbLine
 10
151.459580
 20
127.377350
 30
0.0
 11
151.459580
 21
126.396910
 31
0.0
  0
LINE
  5
248
100
AcDbEntity
  8
Plate
 62
7
100
AcDbLine
 10
151.459580
 20
126.396910
 30
0.0
 11
165.429580
 21
126.396910
 31
0.0
  0
LINE
  5
249
100
AcDbEntity
  8
Plate
 62
7
100
AcDbLine
 10
165.429580
 20
126.396910
 30
0.0
 11
165.429580
 21
127.377350
 31
0.0
  0
LINE
  5
24a
100
AcDbEntity
  8
Plate
 62
7
100
AcDbLine
 10
165.429580
 20
127.377350
 30
0.0
 11
166.242380
 21
127.377350
 31
0.0
  0
LINE
  5
24b
100
AcDbEntity
  8
Plate
 62
7
100
AcDbLine
 10
166.242380
 20
127.377350
 30
0.0
 11
166.242380
 21
130.877470
 31
0.0
  0
LINE
  5
24c
100
AcDbEntity
  8
Plate
 62
7
100
AcDbLine
 10
166.242380
 20
130.877470
 30
0.0
 11
165.429580
 21
130.877470
 31
0.0
  0
LINE
  5
24d
100
AcDbEntity
  8
Plate
 62
7
100
AcDbLine
 10
165.429580
 20
130.877470
 30
0.0
 11
165.429580
 21
135.886350
 31
0.0
  0
LINE
  5
24e
100
AcDbEntity
  8
Plate
 62
7
100
AcDbLine
 10
165.429580
 20
135.886350
 30
0.0
 11
166.242380
 21
135.886350
 31
0.0
  0
LINE
  5
24f
100
AcDbEntity
  8
Plate
 62
7
100
AcDbLine
 10
166.242380
 20
135.886350
 30
0.0
 11
166.242380
 21
139.386460
 31
0.0
  0
LINE
  5
250
100
AcDbEntity
  8
Plate
 62
7
100
AcDbLine
 10
166.242380
 20
139.386460
 30
0.0
 11
165.429580
 21
139.386460
 31
0.0
  0
LINE
  5
251
100
AcDbEntity
  8
Plate
 62
7
100
AcDbLine
 10
165.429580
 20
139.386460
 30
0.0
 11
165.429580
 21
140.366910
 31
0.0
  0
LINE
  5
252
100
AcDbEntity
  8
Plate
 62
7
100
AcDbLine
 10
165.429580
 20
140.366910
 30
0.0
 11
151.459580
 21
140.366910
 31
0.0
  0
LINE
  5
253
100
AcDbEntity
  8
Plate
 62
7
100
AcDbLine
 10
75.259577
 20
161.321900
 30
0.0
 11
75.259577
 21
160.341460
 31
0.0
  0
LINE
  5
254
100
AcDbEntity
  8
Plate
 62
7
100
AcDbLine
 10
75.259577
 20
160.341460
 30
0.0
 11
74.446777
 21
160.341460
 31
0.0
  0
LINE
  5
255
100
AcDbEntity
  8
Plate
 62
7
100
AcDbLine
 10
74.446777
 20
160.341460
 30
0.0
 11
74.446777
 21
156.841340
 31
0.0
  0
LINE
  5
256
100
AcDbEntity
  8
Plate
 62
7
100
AcDbLine
 10
74.446777
 20
156.841340
 30
0.0
 11
75.259577
 21
156.841340
 31
0.0
  0
LINE
  5
257
100
AcDbEntity
  8
Plate
 62
7
100
AcDbLine
 10
75.259577
 20
156.841340
 30
0.0
 11
75.259577
 21
151.832460
 31
0.0
  0
LINE
  5
258
100
AcDbEntity
  8
Plate
 62
7
100
AcDbLine
 10
75.259577
 20
151.832460
 30
0.0
 11
74.446777
 21
151.832460
 31
0.0
  0
LINE
  5
259
100
AcDbEntity
  8
Plate
 62
7
100
AcDbLine
 10
74.446777
 20
151.832460
 30
0.0
 11
74.446777
 21
148.332340
 31
0.0
  0
LINE
  5
25a
100
AcDbEntity
  8
Plate
 62
7
100
AcDbLine
 10
74.446777
 20
148.332340
 30
0.0
 11
75.259577
 21
148.332340
 31
0.0
  0
LINE
  5
25b
100
AcDbEntity
  8
Plate
 62
7
100
AcDbLine
 10
75.259577
 20
148.332340
 30
0.0
 11
75.259577
 21
147.351900
 31
0.0
  0
LINE
  5
25c
100
AcDbEntity
  8
Plate
 62
7
100
AcDbLine
 10
75.259577
 20
147.351900
 30
0.0
 11
89.229577
 21
147.351900
 31
0.0
  0
LINE
  5
25d
100
AcDbEntity
  8
Plate
 62
7
100
AcDbLine
 10
89.229577
 20
147.351900
 30
0.0
 11
89.229577
 21
148.332340
 31
0.0
  0
LINE
  5
25e
100
AcDbEntity
  8
Plate
 62
7
100
AcDbLine
 10
89.229577
 20
148.332340
 30
0.0
 11
90.042377
 21
148.332340
 31
0.0
  0
LINE
  5
25f
100
AcDbEntity
  8
Plate
 62
7
100
AcDbLine
 10
90.042377
 20
148.332340
 30
0.0
 11
90.042377
 21
151.832460
 31
0.0
  0
LINE
  5
260
100
AcDbEntity
  8
Plate
 62
7
100
AcDbLine
 10
90.042377
 20
151.832460
 30
0.0
 11
89.229577
 21
151.832460
 31
0.0
  0
LINE
  5
261
100
AcDbEntity
  8
Plate
 62
7
100
AcDbLine
 10
89.229577
 20
151.832460
 30
0.0
 11
89.229577
 21
156.841340
 31
0.0
  0
LINE
  5
262
100
AcDbEntity
  8
Plate
 62
7
100
AcDbLine
 10
89.229577
 20
156.841340
 30
0.0
 11
90.042377
 21
156.841340
 31
0.0
  0
LINE
  5
263
100
AcDbEntity
  8
Plate
 62
7
100
AcDbLine
 10
90.042377
 20
156.841340
 30
0.0
 11
90.042377
 21
160.341460
 31
0.0
  0
LINE
  5
264
100
AcDbEntity
  8
Plate
 62
7
100
AcDbLine
 10
90.042377
 20
160.341460
 30
0.0
 11
89.229577
 21
160.341460
 31
0.0
  0
LINE
  5
265
100
AcDbEntity
  8
Plate
 62
7
100
AcDbLine
 10
89.229577
 20
160.341460
 30
0.0
 11
89.229577
 21
161.321900
 31
0.0
  0
LINE
  5
266
100
AcDbEntity
  8
Plate
 62
7
100
AcDbLine
 10
89.229577
 20
161.321900
 30
0.0
 11
75.259577
 21
161.321900
 31
0.0
  0
LINE
  5
267
100
AcDbEntity
  8
Plate
 62
7
100
AcDbLine
 10
94.309576
 20
162.591900
 30
0.0
 11
94.309576
 21
161.611460
 31
0.0
  0
LINE
  5
268
100
AcDbEntity
  8
Plate
 62
7
100
AcDbLine
 10
94.309576
 20
161.611460
 30
0.0
 11
93.496777
 21
161.611460
 31
0.0
  0
LINE
  5
269
100
AcDbEntity
  8
Plate
 62
7
100
AcDbLine
 10
93.496777
 20
161.611460
 30
0.0
 11
93.496777
 21
158.111340
 31
0.0
  0
LINE
  5
26a
100
AcDbEntity
  8
Plate
 62
7
100
AcDbLine
 10
93.496777
 20
158.111340
 30
0.0
 11
94.309576
 21
158.111340
 31
0.0
  0
LINE
  5
26b
100
AcDbEntity
  8
Plate
 62
7
100
AcDbLine
 10
94.309576
 20
158.111340
 30
0.0
 11
94.309576
 21
153.102460
 31
0.0
  0
LINE
  5
26c
100
AcDbEntity
  8
Plate
 62
7
100
AcDbLine
 10
94.309576
 20
153.102460
 30
0.0
 11
93.496777
 21
153.102460
 31
0.0
  0
LINE
  5
26d
100
AcDbEntity
  8
Plate
 62
7
100
AcDbLine
 10
93.496777
 20
153.102460
 30
0.0
 11
93.496777
 21
149.602350
 31
0.0
  0
LINE
  5
26e
100
AcDbEntity
  8
Plate
 62
7
100
AcDbLine
 10
93.496777
 20
149.602350
 30
0.0
 11
94.309576
 21
149.602350
 31
0.0
  0
LINE
  5
26f
100
AcDbEntity
  8
Plate
 62
7
100
AcDbLine
 10
94.309576
 20
149.602350
 30
0.0
 11
94.309576
 21
148.621910
 31
0.0
  0
LINE
  5
270
100
AcDbEntity
  8
Plate
 62
7
100
AcDbLine
 10
94.309576
 20
148.621910
 30
0.0
 11
108.279580
 21
148.621910
 31
0.0
  0
LINE
  5
271
100
AcDbEntity
  8
Plate
 62
7
100
AcDbLine
 10
108.279580
 20
148.621910
 30
0.0
 11
108.279580
 21
149.602350
 31
0.0
  0
LINE
  5
272
100
AcDbEntity
  8
Plate
 62
7
100
AcDbLine
 10
108.279580
 20
149.602350
 30
0.0
 11
109.092380
 21
149.602350
 31
0.0
  0
LINE
  5
273
100
AcDbEntity
  8
Plate
 62
7
100
AcDbLine
 10
109.092380
 20
149.602350
 30
0.0
 11
109.092380
 21
153.102460
 31
0.0
  0
LINE
  5
274
100
AcDbEntity
  8
Plate
 62
7
100
AcDbLine
 10
109.092380
 20
153.102460
 30
0.0
 11
108.279580
 21
153.102460
 31
0.0
  0
LINE
  5
275
100
AcDbEntity
  8
Plate
 62
7
100
AcDbLine
 10
108.279580
 20
153.102460
 30
0.0
 11
108.279580
 21
158.111340
 31
0.0
  0
LINE
  5
276
100
AcDbEntity
  8
Plate
 62
7
100
AcDbLine
 10
108.279580
 20
158.111340
 30
0.0
 11
109.092380
 21
158.111340
 31
0.0
  0
LINE
  5
277
100
AcDbEntity
  8
Plate
 62
7
100
AcDbLine
 10
109.092380
 20
158.111340
 30
0.0
 11
109.092380
 21
161.611460
 31
0.0
  0
LINE
  5
278
100
AcDbEntity
  8
Plate
 62
7
100
AcDbLine
 10
109.092380
 20
161.611460
 30
0.0
 11
108.279580
 21
161.611460
 31
0.0
  0
LINE
  5
279
100
AcDbEntity
  8
Plate
 62
7
100
AcDbLine
 10
108.279580
 20
161.611460
 30
0.0
 11
108.279580
 21
162.591900
 31
0.0
  0
LINE
  5
27a
100
AcDbEntity
  8
Plate
 62
7
100
AcDbLine
 10
108.279580
 20
162.591900
 30
0.0
 11
94.309576
 21
162.591900
 31
0.0
  0
LINE
  5
27b
100
AcDbEntity
  8
Plate
 62
7
100
AcDbLine
 10
113.359580
 20
164.189560
 30
0.0
 11
113.359580
 21
163.209120
 31
0.0
  0
LINE
  5
27c
100
AcDbEntity
  8
Plate
 62
7
100
AcDbLine
 10
113.359580
 20
163.209120
 30
0.0
 11
112.546780
 21
163.209120
 31
0.0
  0
LINE
  5
27d
100
AcDbEntity
  8
Plate
 62
7
100
AcDbLine
 10
112.546780
 20
163.209120
 30
0.0
 11
112.546780
 21
159.709000
 31
0.0
  0
LINE
  5
27e
100
AcDbEntity
  8
Plate
 62
7
100
AcDbLine
 10
112.546780
 20
159.709000
 30
0.0
 11
113.359580
 21
159.709000
 31
0.0
  0
LINE
  5
27f
100
AcDbEntity
  8
Plate
 62
7
100
AcDbLine
 10
113.359580
 20
159.709000
 30
0.0
 11
113.359580
 21
154.700120
 31
0.0
  0
LINE
  5
280
100
AcDbEntity
  8
Plate
 62
7
100
AcDbLine
 10
113.359580
 20
154.700120
 30
0.0
 11
112.546780
 21
154.700120
 31
0.0
  0
LINE
  5
281
100
AcDbEntity
  8
Plate
 62
7
100
AcDbLine
 10
112.546780
 20
154.700120
 30
0.0
 11
112.546780
 21
151.200000
 31
0.0
  0
LINE
  5
282
100
AcDbEntity
  8
Plate
 62
7
100
AcDbLine
 10
112.546780
 20
151.200000
 30
0.0
 11
113.359580
 21
151.200000
 31
0.0
  0
LINE
  5
283
100
AcDbEntity
  8
Plate
 62
7
100
AcDbLine
 10
113.359580
 20
151.200000
 30
0.0
 11
113.359580
 21
150.219560
 31
0.0
  0
LINE
  5
284
100
AcDbEntity
  8
Plate
 62
7
100
AcDbLine
 10
113.359580
 20
150.219560
 30
0.0
 11
127.329580
 21
150.219560
 31
0.0
  0
LINE
  5
285
100
AcDbEntity
  8
Plate
 62
7
100
AcDbLine
 10
127.329580
 20
150.219560
 30
0.0
 11
127.329580
 21
151.200000
 31
0.0
  0
LINE
  5
286
100
AcDbEntity
  8
Plate
 62
7
100
AcDbLine
 10
127.329580
 20
151.200000
 30
0.0
 11
128.142380
 21
151.200000
 31
0.0
  0
LINE
  5
287
100
AcDbEntity
  8
Plate
 62
7
100
AcDbLine
 10
128.142380
 20
151.200000
 30
0.0
 11
128.142380
 21
154.700120
 31
0.0
  0
LINE
  5
288
100
AcDbEntity
  8
Plate
 62
7
100
AcDbLine
 10
128.142380
 20
154.700120
 30
0.0
 11
127.329580
 21
154.700120
 31
0.0
  0
LINE
  5
289
100
AcDbEntity
  8
Plate
 62
7
100
AcDbLine
 10
127.329580
 20
154.700120
 30
0.0
 11
127.329580
 21
159.709000
 31
0.0
  0
LINE
  5
28a
100
AcDbEntity
  8
Plate
 62
7
100
AcDbLine
 10
127.329580
 20
159.709000
 30
0.0
 11
128.142380
 21
159.709000
 31
0.0
  0
LINE
  5
28b
100
AcDbEntity
  8
Plate
 62
7
100
AcDbLine
 10
128.142380
 20
159.709000
 30
0.0
 11
128.142380
 21
163.209120
 31
0.0
  0
LINE
  5
28c
100
AcDbEntity
  8
Plate
 62
7
100
AcDbLine
 10
128.142380
 20
163.209120
 30
0.0
 11
127.329580
 21
163.209120
 31
0.0
  0
LINE
  5
28d
100
AcDbEntity
  8
Plate
 62
7
100
AcDbLine
 10
127.329580
 20
163.209120
 30
0.0
 11
127.329580
 21
164.189560
 31
0.0
  0
LINE
  5
28e
100
AcDbEntity
  8
Plate
 62
7
100
AcDbLine
 10
127.329580
 20
164.189560
 30
0.0
 11
113.359580
 21
164.189560
 31
0.0
  0
LINE
  5
28f
100
AcDbEntity
  8
Plate
 62
7
100
AcDbLine
 10
132.409580
 20
162.591900
 30
0.0
 11
132.409580
 21
161.611460
 31
0.0
  0
LINE
  5
290
100
AcDbEntity
  8
Plate
 62
7
100
AcDbLine
 10
132.409580
 20
161.611460
 30
0.0
 11
131.596780
 21
161.611460
 31
0.0
  0
LINE
  5
291
100
AcDbEntity
  8
Plate
 62
7
100
AcDbLine
 10
131.596780
 20
161.611460
 30
0.0
 11
131.596780
 21
158.111340
 31
0.0
  0
LINE
  5
292
100
AcDbEntity
  8
Plate
 62
7
100
AcDbLine
 10
131.596780
 20
158.111340
 30
0.0
 11
132.409580
 21
158.111340
 31
0.0
  0
LINE
  5
293
100
AcDbEntity
  8
Plate
 62
7
100
AcDbLine
 10
132.409580
 20
158.111340
 30
0.0
 11
132.409580
 21
153.102460
 31
0.0
  0
LINE
  5
294
100
AcDbEntity
  8
Plate
 62
7
100
AcDbLine
 10
132.409580
 20
153.102460
 30
0.0
 11
131.596780
 21
153.102460
 31
0.0
  0
LINE
  5
295
100
AcDbEntity
  8
Plate
 62
7
100
AcDbLine
 10
131.596780
 20
153.102460
 30
0.0
 11
131.596780
 21
149.602350
 31
0.0
  0
LINE
  5
296
100
AcDbEntity
  8
Plate
 62
7
100
AcDbLine
 10
131.596780
 20
149.602350
 30
0.0
 11
132.409580
 21
149.602350
 31
0.0
  0
LINE
  5
297
100
AcDbEntity
  8
Plate
 62
7
100
AcDbLine
 10
132.409580
 20
149.602350
 30
0.0
 11
132.409580
 21
148.621910
 31
0.0
  0
LINE
  5
298
100
AcDbEntity
  8
Plate
 62
7
100
AcDbLine
 10
132.409580
 20
148.621910
 30
0.0
 11
146.379580
 21
148.621910
 31
0.0
  0
LINE
  5
299
100
AcDbEntity
  8
Plate
 62
7
100
AcDbLine
 10
146.379580
 20
148.621910
 30
0.0
 11
146.379580
 21
149.602350
 31
0.0
  0
LINE
  5
29a
100
AcDbEntity
  8
Plate
 62
7
100
AcDbLine
 10
146.379580
 20
149.602350
 30
0.0
 11
147.192380
 21
149.602350
 31
0.0
  0
LINE
  5
29b
100
AcDbEntity
  8
Plate
 62
7
100
AcDbLine
 10
147.192380
 20
149.602350
 30
0.0
 11
147.192380
 21
153.102460
 31
0.0
  0
LINE
  5
29c
100
AcDbEntity
  8
Plate
 62
7
100
AcDbLine
 10
147.192380
 20
153.102460
 30
0.0
 11
146.379580
 21
153.102460
 31
0.0
  0
LINE
  5
29d
100
AcDbEntity
  8
Plate
 62
7
100
AcDbLine
 10
146.379580
 20
153.102460
 30
0.0
 11
146.379580
 21
158.111340
 31
0.0
  0
LINE
  5
29e
100
AcDbEntity
  8
Plate
 62
7
100
AcDbLine
 10
146.379580
 20
158.111340
 30
0.0
 11
147.192380
 21
158.111340
 31
0.0
  0
LINE
  5
29f
100
AcDbEntity
  8
Plate
 62
7
100
AcDbLine
 10
147.192380
 20
158.111340
 30
0.0
 11
147.192380
 21
161.611460
 31
0.0
  0
LINE
  5
2a0
100
AcDbEntity
  8
Plate
 62
7
100
AcDbLine
 10
147.192380
 20
161.611460
 30
0.0
 11
146.379580
 21
161.611460
 31
0.0
  0
LINE
  5
2a1
100
AcDbEntity
  8
Plate
 62
7
100
AcDbLine
 10
146.379580
 20
161.611460
 30
0.0
 11
146.379580
 21
162.591900
 31
0.0
  0
LINE
  5
2a2
100
AcDbEntity
  8
Plate
 62
7
100
AcDbLine
 10
146.379580
 20
162.591900
 30
0.0
 11
132.409580
 21
162.591900
 31
0.0
  0
LINE
  5
2a3
100
AcDbEntity
  8
Plate
 62
7
100
AcDbLine
 10
151.459580
 20
159.416900
 30
0.0
 11
151.459580
 21
158.436460
 31
0.0
  0
LINE
  5
2a4
100
AcDbEntity
  8
Plate
 62
7
100
AcDbLine
 10
151.459580
 20
158.436460
 30
0.0
 11
150.646780
 21
158.436460
 31
0.0
  0
LINE
  5
2a5
100
AcDbEntity
  8
Plate
 62
7
100
AcDbLine
 10
150.646780
 20
158.436460
 30
0.0
 11
150.646780
 21
154.936340
 31
0.0
  0
LINE
  5
2a6
100
AcDbEntity
  8
Plate
 62
7
100
AcDbLine
 10
150.646780
 20
154.936340
 30
0.0
 11
151.459580
 21
154.936340
 31
0.0
  0
LINE
  5
2a7
100
AcDbEntity
  8
Plate
 62
7
100
AcDbLine
 10
151.459580
 20
154.936340
 30
0.0
 11
151.459580
 21
149.927470
 31
0.0
  0
LINE
  5
2a8
100
AcDbEntity
  8
Plate
 62
7
100
AcDbLine
 10
151.459580
 20
149.927470
 30
0.0
 11
150.646780
 21
149.927470
 31
0.0
  0
LINE
  5
2a9
100
AcDbEntity
  8
Plate
 62
7
100
AcDbLine
 10
150.646780
 20
149.927470
 30
0.0
 11
150.646780
 21
146.427350
 31
0.0
  0
LINE
  5
2aa
100
AcDbEntity
  8
Plate
 62
7
100
AcDbLine
 10
150.646780
 20
146.427350
 30
0.0
 11
151.459580
 21
146.427350
 31
0.0
  0
LINE
  5
2ab
100
AcDbEntity
  8
Plate
 62
7
100
AcDbLine
 10
151.459580
 20
146.427350
 30
0.0
 11
151.459580
 21
145.446910
 31
0.0
  0
LINE
  5
2ac
100
AcDbEntity
  8
Plate
 62
7
100
AcDbLine
 10
151.459580
 20
145.446910
 30
0.0
 11
165.429580
 21
145.446910
 31
0.0
  0
LINE
  5
2ad
100
AcDbEntity
  8
Plate
 62
7
100
AcDbLine
 10
165.429580
 20
145.446910
 30
0.0
 11
165.429580
 21
146.427350
 31
0.0
  0
LINE
  5
2ae
100
AcDbEntity
  8
Plate
 62
7
100
AcDbLine
 10
165.429580
 20
146.427350
 30
0.0
 11
166.242380
 21
146.427350
 31
0.0
  0
LINE
  5
2af
100
AcDbEntity
  8
Plate
 62
7
100
AcDbLine
 10
166.242380
 20
146.427350
 30
0.0
 11
166.242380
 21
149.927470
 31
0.0
  0
LINE
  5
2b0
100
AcDbEntity
  8
Plate
 62
7
100
AcDbLine
 10
166.242380
 20
149.927470
 30
0.0
 11
165.429580
 21
149.927470
 31
0.0
  0
LINE
  5
2b1
100
AcDbEntity
  8
Plate
 62
7
100
AcDbLine
 10
165.429580
 20
149.927470
 30
0.0
 11
165.429580
 21
154.936340
 31
0.0
  0
LINE
  5
2b2
100
AcDbEntity
  8
Plate
 62
7
100
AcDbLine
 10
165.429580
 20
154.936340
 30
0.0
 11
166.242380
 21
154.936340
 31
0.0
  0
LINE
  5
2b3
100
AcDbEntity
  8
Plate
 62
7
100
AcDbLine
 10
166.242380
 20
154.936340
 30
0.0
 11
166.242380
 21
158.436460
 31
0.0
  0
LINE
  5
2b4
100
AcDbEntity
  8
Plate
 62
7
100
AcDbLine
 10
166.242380
 20
158.436460
 30
0.0
 11
165.429580
 21
158.436460
 31
0.0
  0
LINE
  5
2b5
100
AcDbEntity
  8
Plate
 62
7
100
AcDbLine
 10
165.429580
 20
158.436460
 30
0.0
 11
165.429580
 21
159.416900
 31
0.0
  0
LINE
  5
2b6
100
AcDbEntity
  8
Plate
 62
7
100
AcDbLine
 10
165.429580
 20
159.416900
 30
0.0
 11
151.459580
 21
159.416900
 31
0.0
  0
LINE
  5
2b7
100
AcDbEntity
  8
Plate
 62
7
100
AcDbLine
 10
75.259577
 20
180.371900
 30
0.0
 11
75.259577
 21
179.391460
 31
0.0
  0
LINE
  5
2b8
100
AcDbEntity
  8
Plate
 62
7
100
AcDbLine
 10
75.259577
 20
179.391460
 30
0.0
 11
74.446777
 21
179.391460
 31
0.0
  0
LINE
  5
2b9
100
AcDbEntity
  8
Plate
 62
7
100
AcDbLine
 10
74.446777
 20
179.391460
 30
0.0
 11
74.446777
 21
175.891340
 31
0.0
  0
LINE
  5
2ba
100
AcDbEntity
  8
Plate
 62
7
100
AcDbLine
 10
74.446777
 20
175.891340
 30
0.0
 11
75.259577
 21
175.891340
 31
0.0
  0
LINE
  5
2bb
100
AcDbEntity
  8
Plate
 62
7
100
AcDbLine
 10
75.259577
 20
175.891340
 30
0.0
 11
75.259577
 21
170.882460
 31
0.0
  0
LINE
  5
2bc
100
AcDbEntity
  8
Plate
 62
7
100
AcDbLine
 10
75.259577
 20
170.882460
 30
0.0
 11
74.446777
 21
170.882460
 31
0.0
  0
LINE
  5
2bd
100
AcDbEntity
  8
Plate
 62
7
100
AcDbLine
 10
74.446777
 20
170.882460
 30
0.0
 11
74.446777
 21
167.382340
 31
0.0
  0
LINE
  5
2be
100
AcDbEntity
  8
Plate
 62
7
100
AcDbLine
 10
74.446777
 20
167.382340
 30
0.0
 11
75.259577
 21
167.382340
 31
0.0
  0
LINE
  5
2bf
100
AcDbEntity
  8
Plate
 62
7
100
AcDbLine
 10
75.259577
 20
167.382340
 30
0.0
 11
75.259577
 21
166.401900
 31
0.0
  0
LINE
  5
2c0
100
AcDbEntity
  8
Plate
 62
7
100
AcDbLine
 10
75.259577
 20
166.401900
 30
0.0
 11
89.229577
 21
166.401900
 31
0.0
  0
LINE
  5
2c1
100
AcDbEntity
  8
Plate
 62
7
100
AcDbLine
 10
89.229577
 20
166.401900
 30
0.0
 11
89.229577
 21
167.382340
 31
0.0
  0
LINE
  5
2c2
100
AcDbEntity
  8
Plate
 62
7
100
AcDbLine
 10
89.229577
 20
167.382340
 30
0.0
 11
90.042377
 21
167.382340
 31
0.0
  0
LINE
  5
2c3
100
AcDbEntity
  8
Plate
 62
7
100
AcDbLine
 10
90.042377
 20
167.382340
 30
0.0
 11
90.042377
 21
170.882460
 31
0.0
  0
LINE
  5
2c4
100
AcDbEntity
  8
Plate
 62
7
100
AcDbLine
 10
90.042377
 20
170.882460
 30
0.0
 11
89.229577
 21
170.882460
 31
0.0
  0
LINE
  5
2c5
100
AcDbEntity
  8
Plate
 62
7
100
AcDbLine
 10
89.229577
 20
170.882460
 30
0.0
 11
89.229577
 21
175.891340
 31
0.0
  0
LINE
  5
2c6
100
AcDbEntity
  8
Plate
 62
7
100
AcDbLine
 10
89.229577
 20
175.891340
 30
0.0
 11
90.042377
 21
175.891340
 31
0.0
  0
LINE
  5
2c7
100
AcDbEntity
  8
Plate
 62
7
100
AcDbLine
 10
90.042377
 20
175.891340
 30
0.0
 11
90.042377
 21
179.391460
 31
0.0
  0
LINE
  5
2c8
100
AcDbEntity
  8
Plate
 62
7
100
AcDbLine
 10
90.042377
 20
179.391460
 30
0.0
 11
89.229577
 21
179.391460
 31
0.0
  0
LINE
  5
2c9
100
AcDbEntity
  8
Plate
 62
7
100
AcDbLine
 10
89.229577
 20
179.391460
 30
0.0
 11
89.229577
 21
180.371900
 31
0.0
  0
LINE
  5
2ca
100
AcDbEntity
  8
Plate
 62
7
100
AcDbLine
 10
89.229577
 20
180.371900
 30
0.0
 11
75.259577
 21
180.371900
 31
0.0
  0
LINE
  5
2cb
100
AcDbEntity
  8
Plate
 62
7
100
AcDbLine
 10
94.309576
 20
181.641900
 30
0.0
 11
94.309576
 21
180.661460
 31
0.0
  0
LINE
  5
2cc
100
AcDbEntity
  8
Plate
 62
7
100
AcDbLine
 10
94.309576
 20
180.661460
 30
0.0
 11
93.496777
 21
180.661460
 31
0.0
  0
LINE
  5
2cd
100
AcDbEntity
  8
Plate
 62
7
100
AcDbLine
 10
93.496777
 20
180.661460
 30
0.0
 11
93.496777
 21
177.161340
 31
0.0
  0
LINE
  5
2ce
100
AcDbEntity
  8
Plate
 62
7
100
AcDbLine
 10
93.496777
 20
177.161340
 30
0.0
 11
94.309576
 21
177.161340
 31
0.0
  0
LINE
  5
2cf
100
AcDbEntity
  8
Plate
 62
7
100
AcDbLine
 10
94.309576
 20
177.161340
 30
0.0
 11
94.309576
 21
172.152460
 31
0.0
  0
LINE
  5
2d0
100
AcDbEntity
  8
Plate
 62
7
100
AcDbLine
 10
94.309576
 20
172.152460
 30
0.0
 11
93.496777
 21
172.152460
 31
0.0
  0
LINE
  5
2d1
100
AcDbEntity
  8
Plate
 62
7
100
AcDbLine
 10
93.496777
 20
172.152460
 30
0.0
 11
93.496777
 21
168.652340
 31
0.0
  0
LINE
  5
2d2
100
AcDbEntity
  8
Plate
 62
7
100
AcDbLine
 10
93.496777
 20
168.652340
 30
0.0
 11
94.309576
 21
168.652340
 31
0.0
  0
LINE
  5
2d3
100
AcDbEntity
  8
Plate
 62
7
100
AcDbLine
 10
94.309576
 20
168.652340
 30
0.0
 11
94.309576
 21
167.671900
 31
0.0
  0
LINE
  5
2d4
100
AcDbEntity
  8
Plate
 62
7
100
AcDbLine
 10
94.309576
 20
167.671900
 30
0.0
 11
108.279580
 21
167.671900
 31
0.0
  0
LINE
  5
2d5
100
AcDbEntity
  8
Plate
 62
7
100
AcDbLine
 10
108.279580
 20
167.671900
 30
0.0
 11
108.279580
 21
168.652340
 31
0.0
  0
LINE
  5
2d6
100
AcDbEntity
  8
Plate
 62
7
100
AcDbLine
 10
108.279580
 20
168.652340
 30
0.0
 11
109.092380
 21
168.652340
 31
0.0
  0
LINE
  5
2d7
100
AcDbEntity
  8
Plate
 62
7
100
AcDbLine
 10
109.092380
 20
168.652340
 30
0.0
 11
109.092380
 21
172.152460
 31
0.0
  0
LINE
  5
2d8
100
AcDbEntity
  8
Plate
 62
7
100
AcDbLine
 10
109.092380
 20
172.152460
 30
0.0
 11
108.279580
 21
172.152460
 31
0.0
  0
LINE
  5
2d9
100
AcDbEntity
  8
Plate
 62
7
100
AcDbLine
 10
108.279580
 20
172.152460
 30
0.0
 11
108.279580
 21
177.161340
 31
0.0
  0
LINE
  5
2da
100
AcDbEntity
  8
Plate
 62
7
100
AcDbLine
 10
108.279580
 20
177.161340
 30
0.0
 11
109.092380
 21
177.161340
 31
0.0
  0
LINE
  5
2db
100
AcDbEntity
  8
Plate
 62
7
100
AcDbLine
 10
109.092380
 20
177.161340
 30
0.0
 11
109.092380
 21
180.661460
 31
0.0
  0
LINE
  5
2dc
100
AcDbEntity
  8
Plate
 62
7
100
AcDbLine
 10
109.092380
 20
180.661460
 30
0.0
 11
108.279580
 21
180.661460
 31
0.0
  0
LINE
  5
2dd
100
AcDbEntity
  8
Plate
 62
7
100
AcDbLine
 10
108.279580
 20
180.661460
 30
0.0
 11
108.279580
 21
181.641900
 31
0.0
  0
LINE
  5
2de
100
AcDbEntity
  8
Plate
 62
7
100
AcDbLine
 10
108.279580
 20
181.641900
 30
0.0
 11
94.309576
 21
181.641900
 31
0.0
  0
LINE
  5
2df
100
AcDbEntity
  8
Plate
 62
7
100
AcDbLine
 10
113.359580
 20
183.239560
 30
0.0
 11
113.359580
 21
182.259120
 31
0.0
  0
LINE
  5
2e0
100
AcDbEntity
  8
Plate
 62
7
100
AcDbLine
 10
113.359580
 20
182.259120
 30
0.0
 11
112.546780
 21
182.259120
 31
0.0
  0
LINE
  5
2e1
100
AcDbEntity
  8
Plate
 62
7
100
AcDbLine
 10
112.546780
 20
182.259120
 30
0.0
 11
112.546780
 21
178.759000
 31
0.0
  0
LINE
  5
2e2
100
AcDbEntity
  8
Plate
 62
7
100
AcDbLine
 10
112.546780
 20
178.759000
 30
0.0
 11
113.359580
 21
178.759000
 31
0.0
  0
LINE
  5
2e3
100
AcDbEntity
  8
Plate
 62
7
100
AcDbLine
 10
113.359580
 20
178.759000
 30
0.0
 11
113.359580
 21
173.750120
 31
0.0
  0
LINE
  5
2e4
100
AcDbEntity
  8
Plate
 62
7
100
AcDbLine
 10
113.359580
 20
173.750120
 30
0.0
 11
112.546780
 21
173.750120
 31
0.0
  0
LINE
  5
2e5
100
AcDbEntity
  8
Plate
 62
7
100
AcDbLine
 10
112.546780
 20
173.750120
 30
0.0
 11
112.546780
 21
170.250000
 31
0.0
  0
LINE
  5
2e6
100
AcDbEntity
  8
Plate
 62
7
100
AcDbLine
 10
112.546780
 20
170.250000
 30
0.0
 11
113.359580
 21
170.250000
 31
0.0
  0
LINE
  5
2e7
100
AcDbEntity
  8
Plate
 62
7
100
AcDbLine
 10
113.359580
 20
170.250000
 30
0.0
 11
113.359580
 21
169.269560
 31
0.0
  0
LINE
  5
2e8
100
AcDbEntity
  8
Plate
 62
7
100
AcDbLine
 10
113.359580
 20
169.269560
 30
0.0
 11
127.329580
 21
169.269560
 31
0.0
  0
LINE
  5
2e9
100
AcDbEntity
  8
Plate
 62
7
100
AcDbLine
 10
127.329580
 20
169.269560
 30
0.0
 11
127.329580
 21
170.250000
 31
0.0
  0
LINE
  5
2ea
100
AcDbEntity
  8
Plate
 62
7
100
AcDbLine
 10
127.329580
 20
170.250000
 30
0.0
 11
128.142380
 21
170.250000
 31
0.0
  0
LINE
  5
2eb
100
AcDbEntity
  8
Plate
 62
7
100
AcDbLine
 10
128.142380
 20
170.250000
 30
0.0
 11
128.142380
 21
173.750120
 31
0.0
  0
LINE
  5
2ec
100
AcDbEntity
  8
Plate
 62
7
100
AcDbLine
 10
128.142380
 20
173.750120
 30
0.0
 11
127.329580
 21
173.750120
 31
0.0
  0
LINE
  5
2ed
100
AcDbEntity
  8
Plate
 62
7
100
AcDbLine
 10
127.329580
 20
173.750120
 30
0.0
 11
127.329580
 21
178.759000
 31
0.0
  0
LINE
  5
2ee
100
AcDbEntity
  8
Plate
 62
7
100
AcDbLine
 10
127.329580
 20
178.759000
 30
0.0
 11
128.142380
 21
178.759000
 31
0.0
  0
LINE
  5
2ef
100
AcDbEntity
  8
Plate
 62
7
100
AcDbLine
 10
128.142380
 20
178.759000
 30
0.0
 11
128.142380
 21
182.259120
 31
0.0
  0
LINE
  5
2f0
100
AcDbEntity
  8
Plate
 62
7
100
AcDbLine
 10
128.142380
 20
182.259120
 30
0.0
 11
127.329580
 21
182.259120
 31
0.0
  0
LINE
  5
2f1
100
AcDbEntity
  8
Plate
 62
7
100
AcDbLine
 10
127.329580
 20
182.259120
 30
0.0
 11
127.329580
 21
183.239560
 31
0.0
  0
LINE
  5
2f2
100
AcDbEntity
  8
Plate
 62
7
100
AcDbLine
 10
127.329580
 20
183.239560
 30
0.0
 11
113.359580
 21
183.239560
 31
0.0
  0
LINE
  5
2f3
100
AcDbEntity
  8
Plate
 62
7
100
AcDbLine
 10
132.409580
 20
181.641900
 30
0.0
 11
132.409580
 21
180.661460
 31
0.0
  0
LINE
  5
2f4
100
AcDbEntity
  8
Plate
 62
7
100
AcDbLine
 10
132.409580
 20
180.661460
 30
0.0
 11
131.596780
 21
180.661460
 31
0.0
  0
LINE
  5
2f5
100
AcDbEntity
  8
Plate
 62
7
100
AcDbLine
 10
131.596780
 20
180.661460
 30
0.0
 11
131.596780
 21
177.161340
 31
0.0
  0
LINE
  5
2f6
100
AcDbEntity
  8
Plate
 62
7
100
AcDbLine
 10
131.596780
 20
177.161340
 30
0.0
 11
132.409580
 21
177.161340
 31
0.0
  0
LINE
  5
2f7
100
AcDbEntity
  8
Plate
 62
7
100
AcDbLine
 10
132.409580
 20
177.161340
 30
0.0
 11
132.409580
 21
172.152460
 31
0.0
  0
LINE
  5
2f8
100
AcDbEntity
  8
Plate
 62
7
100
AcDbLine
 10
132.409580
 20
172.152460
 30
0.0
 11
131.596780
 21
172.152460
 31
0.0
  0
LINE
  5
2f9
100
AcDbEntity
  8
Plate
 62
7
100
AcDbLine
 10
131.596780
 20
172.152460
 30
0.0
 11
131.596780
 21
168.652340
 31
0.0
  0
LINE
  5
2fa
100
AcDbEntity
  8
Plate
 62
7
100
AcDbLine
 10
131.596780
 20
168.652340
 30
0.0
 11
132.409580
 21
168.652340
 31
0.0
  0
LINE
  5
2fb
100
AcDbEntity
  8
Plate
 62
7
100
AcDbLine
 10
132.409580
 20
168.652340
 30
0.0
 11
132.409580
 21
167.671900
 31
0.0
  0
LINE
  5
2fc
100
AcDbEntity
  8
Plate
 62
7
100
AcDbLine
 10
132.409580
 20
167.671900
 30
0.0
 11
146.379580
 21
167.671900
 31
0.0
  0
LINE
  5
2fd
100
AcDbEntity
  8
Plate
 62
7
100
AcDbLine
 10
146.379580
 20
167.671900
 30
0.0
 11
146.379580
 21
168.652340
 31
0.0
  0
LINE
  5
2fe
100
AcDbEntity
  8
Plate
 62
7
100
AcDbLine
 10
146.379580
 20
168.652340
 30
0.0
 11
147.192380
 21
168.652340
 31
0.0
  0
LINE
  5
2ff
100
AcDbEntity
  8
Plate
 62
7
100
AcDbLine
 10
147.192380
 20
168.652340
 30
0.0
 11
147.192380
 21
172.152460
 31
0.0
  0
LINE
  5
300
100
AcDbEntity
  8
Plate
 62
7
100
AcDbLine
 10
147.192380
 20
172.152460
 30
0.0
 11
146.379580
 21
172.152460
 31
0.0
  0
LINE
  5
301
100
AcDbEntity
  8
Plate
 62
7
100
AcDbLine
 10
146.379580
 20
172.152460
 30
0.0
 11
146.379580
 21
177.161340
 31
0.0
  0
LINE
  5
302
100
AcDbEntity
  8
Plate
 62
7
100
AcDbLine
 10
146.379580
 20
177.161340
 30
0.0
 11
147.192380
 21
177.161340
 31
0.0
  0
LINE
  5
303
100
AcDbEntity
  8
Plate
 62
7
100
AcDbLine
 10
147.192380
 20
177.161340
 30
0.0
 11
147.192380
 21
180.661460
 31
0.0
  0
LINE
  5
304
100
AcDbEntity
  8
Plate
 62
7
100
AcDbLine
 10
147.192380
 20
180.661460
 30
0.0
 11
146.379580
 21
180.661460
 31
0.0
  0
LINE
  5
305
100
AcDbEntity
  8
Plate
 62
7
100
AcDbLine
 10
146.379580
 20
180.661460
 30
0.0
 11
146.379580
 21
181.641900
 31
0.0
  0
LINE
  5
306
100
AcDbEntity
  8
Plate
 62
7
100
AcDbLine
 10
146.379580
 20
181.641900
 30
0.0
 11
132.409580
 21
181.641900
 31
0.0
  0
LINE
  5
307
100
AcDbEntity
  8
Plate
 62
7
100
AcDbLine
 10
151.459580
 20
178.466900
 30
0.0
 11
151.459580
 21
177.486460
 31
0.0
  0
LINE
  5
308
100
AcDbEntity
  8
Plate
 62
7
100
AcDbLine
 10
151.459580
 20
177.486460
 30
0.0
 11
150.646780
 21
177.486460
 31
0.0
  0
LINE
  5
309
100
AcDbEntity
  8
Plate
 62
7
100
AcDbLine
 10
150.646780
 20
177.486460
 30
0.0
 11
150.646780
 21
173.986340
 31
0.0
  0
LINE
  5
30a
100
AcDbEntity
  8
Plate
 62
7
100
AcDbLine
 10
150.646780
 20
173.986340
 30
0.0
 11
151.459580
 21
173.986340
 31
0.0
  0
LINE
  5
30b
100
AcDbEntity
  8
Plate
 62
7
100
AcDbLine
 10
151.459580
 20
173.986340
 30
0.0
 11
151.459580
 21
168.977460
 31
0.0
  0
LINE
  5
30c
100
AcDbEntity
  8
Plate
 62
7
100
AcDbLine
 10
151.459580
 20
168.977460
 30
0.0
 11
150.646780
 21
168.977460
 31
0.0
  0
LINE
  5
30d
100
AcDbEntity
  8
Plate
 62
7
100
AcDbLine
 10
150.646780
 20
168.977460
 30
0.0
 11
150.646780
 21
165.477340
 31
0.0
  0
LINE
  5
30e
100
AcDbEntity
  8
Plate
 62
7
100
AcDbLine
 10
150.646780
 20
165.477340
 30
0.0
 11
151.459580
 21
165.477340
 31
0.0
  0
LINE
  5
30f
100
AcDbEntity
  8
Plate
 62
7
100
AcDbLine
 10
151.459580
 20
165.477340
 30
0.0
 11
151.459580
 21
164.496900
 31
0.0
  0
LINE
  5
310
100
AcDbEntity
  8
Plate
 62
7
100
AcDbLine
 10
151.459580
 20
164.496900
 30
0.0
 11
165.429580
 21
164.496900
 31
0.0
  0
LINE
  5
311
100
AcDbEntity
  8
Plate
 62
7
100
AcDbLine
 10
165.429580
 20
164.496900
 30
0.0
 11
165.429580
 21
165.477340
 31
0.0
  0
LINE
  5
312
100
AcDbEntity
  8
Plate
 62
7
100
AcDbLine
 10
165.429580
 20
165.477340
 30
0.0
 11
166.242380
 21
165.477340
 31
0.0
  0
LINE
  5
313
100
AcDbEntity
  8
Plate
 62
7
100
AcDbLine
 10
166.242380
 20
165.477340
 30
0.0
 11
166.242380
 21
168.977460
 31
0.0
  0
LINE
  5
314
100
AcDbEntity
  8
Plate
 62
7
100
AcDbLine
 10
166.242380
 20
168.977460
 30
0.0
 11
165.429580
 21
168.977460
 31
0.0
  0
LINE
  5
315
100
AcDbEntity
  8
Plate
 62
7
100
AcDbLine
 10
165.429580
 20
168.977460
 30
0.0
 11
165.429580
 21
173.986340
 31
0.0
  0
LINE
  5
316
100
AcDbEntity
  8
Plate
 62
7
100
AcDbLine
 10
165.429580
 20
173.986340
 30
0.0
 11
166.242380
 21
173.986340
 31
0.0
  0
LINE
  5
317
100
AcDbEntity
  8
Plate
 62
7
100
AcDbLine
 10
166.242380
 20
173.986340
 30
0.0
 11
166.242380
 21
177.486460
 31
0.0
  0
LINE
  5
318
100
AcDbEntity
  8
Plate
 62
7
100
AcDbLine
 10
166.242380
 20
177.486460
 30
0.0
 11
165.429580
 21
177.486460
 31
0.0
  0
LINE
  5
319
100
AcDbEntity
  8
Plate
 62
7
100
AcDbLine
 10
165.429580
 20
177.486460
 30
0.0
 11
165.429580
 21
178.466900
 31
0.0
  0
LINE
  5
31a
100
AcDbEntity
  8
Plate
 62
7
100
AcDbLine
 10
165.429580
 20
178.466900
 30
0.0
 11
151.459580
 21
178.466900
 31
0.0
  0
LINE
  5
31b
100
AcDbEntity
  8
Plate
 62
7
100
AcDbLine
 10
94.309576
 20
200.691904
 30
0.0
 11
94.309576
 21
199.711462
 31
0.0
  0
LINE
  5
31c
100
AcDbEntity
  8
Plate
 62
7
100
AcDbLine
 10
94.309576
 20
199.711462
 30
0.0
 11
93.496777
 21
199.711462
 31
0.0
  0
LINE
  5
31d
100
AcDbEntity
  8
Plate
 62
7
100
AcDbLine
 10
93.496777
 20
199.711462
 30
0.0
 11
93.496777
 21
196.211340
 31
0.0
  0
LINE
  5
31e
100
AcDbEntity
  8
Plate
 62
7
100
AcDbLine
 10
93.496777
 20
196.211340
 30
0.0
 11
94.309576
 21
196.211340
 31
0.0
  0
LINE
  5
31f
100
AcDbEntity
  8
Plate
 62
7
100
AcDbLine
 10
94.309576
 20
196.211340
 30
0.0
 11
94.309576
 21
191.202460
 31
0.0
  0
LINE
  5
320
100
AcDbEntity
  8
Plate
 62
7
100
AcDbLine
 10
94.309576
 20
191.202460
 30
0.0
 11
93.496777
 21
191.202460
 31
0.0
  0
LINE
  5
321
100
AcDbEntity
  8
Plate
 62
7
100
AcDbLine
 10
93.496777
 20
191.202460
 30
0.0
 11
93.496777
 21
187.702340
 31
0.0
  0
LINE
  5
322
100
AcDbEntity
  8
Plate
 62
7
100
AcDbLine
 10
93.496777
 20
187.702340
 30
0.0
 11
94.309576
 21
187.702340
 31
0.0
  0
LINE
  5
323
100
AcDbEntity
  8
Plate
 62
7
100
AcDbLine
 10
94.309576
 20
187.702340
 30
0.0
 11
94.309576
 21
186.721900
 31
0.0
  0
LINE
  5
324
100
AcDbEntity
  8
Plate
 62
7
100
AcDbLine
 10
94.309576
 20
186.721900
 30
0.0
 11
108.279580
 21
186.721900
 31
0.0
  0
LINE
  5
325
100
AcDbEntity
  8
Plate
 62
7
100
AcDbLine
 10
108.279580
 20
186.721900
 30
0.0
 11
108.279580
 21
187.702340
 31
0.0
  0
LINE
  5
326
100
AcDbEntity
  8
Plate
 62
7
100
AcDbLine
 10
108.279580
 20
187.702340
 30
0.0
 11
109.092380
 21
187.702340
 31
0.0
  0
LINE
  5
327
100
AcDbEntity
  8
Plate
 62
7
100
AcDbLine
 10
109.092380
 20
187.702340
 30
0.0
 11
109.092380
 21
191.202460
 31
0.0
  0
LINE
  5
328
100
AcDbEntity
  8
Plate
 62
7
100
AcDbLine
 10
109.092380
 20
191.202460
 30
0.0
 11
108.279580
 21
191.202460
 31
0.0
  0
LINE
  5
329
100
AcDbEntity
  8
Plate
 62
7
100
AcDbLine
 10
108.279580
 20
191.202460
 30
0.0
 11
108.279580
 21
196.211340
 31
0.0
  0
LINE
  5
32a
100
AcDbEntity
  8
Plate
 62
7
100
AcDbLine
 10
108.279580
 20
196.211340
 30
0.0
 11
109.092380
 21
196.211340
 31
0.0
  0
LINE
  5
32b
100
AcDbEntity
  8
Plate
 62
7
100
AcDbLine
 10
109.092380
 20
196.211340
 30
0.0
 11
109.092380
 21
199.711462
 31
0.0
  0
LINE
  5
32c
100
AcDbEntity
  8
Plate
 62
7
100
AcDbLine
 10
109.092380
 20
199.711462
 30
0.0
 11
108.279580
 21
199.711462
 31
0.0
  0
LINE
  5
32d
100
AcDbEntity
  8
Plate
 62
7
100
AcDbLine
 10
108.279580
 20
199.711462
 30
0.0
 11
108.279580
 21
200.691904
 31
0.0
  0
LINE
  5
32e
100
AcDbEntity
  8
Plate
 62
7
100
AcDbLine
 10
108.279580
 20
200.691904
 30
0.0
 11
94.309576
 21
200.691904
 31
0.0
  0
LINE
  5
32f
100
AcDbEntity
  8
Plate
 62
7
100
AcDbLine
 10
113.359580
 20
202.289564
 30
0.0
 11
113.359580
 21
201.309124
 31
0.0
  0
LINE
  5
330
100
AcDbEntity
  8
Plate
 62
7
100
AcDbLine
 10
113.359580
 20
201.309124
 30
0.0
 11
112.546780
 21
201.309124
 31
0.0
  0
LINE
  5
331
100
AcDbEntity
  8
Plate
 62
7
100
AcDbLine
 10
112.546780
 20
201.309124
 30
0.0
 11
112.546780
 21
197.809004
 31
0.0
  0
LINE
  5
332
100
AcDbEntity
  8
Plate
 62
7
100
AcDbLine
 10
112.546780
 20
197.809004
 30
0.0
 11
113.359580
 21
197.809004
 31
0.0
  0
LINE
  5
333
100
AcDbEntity
  8
Plate
 62
7
100
AcDbLine
 10
113.359580
 20
197.809004
 30
0.0
 11
113.359580
 21
192.800120
 31
0.0
  0
LINE
  5
334
100
AcDbEntity
  8
Plate
 62
7
100
AcDbLine
 10
113.359580
 20
192.800120
 30
0.0
 11
112.546780
 21
192.800120
 31
0.0
  0
LINE
  5
335
100
AcDbEntity
  8
Plate
 62
7
100
AcDbLine
 10
112.546780
 20
192.800120
 30
0.0
 11
112.546780
 21
189.300000
 31
0.0
  0
LINE
  5
336
100
AcDbEntity
  8
Plate
 62
7
100
AcDbLine
 10
112.546780
 20
189.300000
 30
0.0
 11
113.359580
 21
189.300000
 31
0.0
  0
LINE
  5
337
100
AcDbEntity
  8
Plate
 62
7
100
AcDbLine
 10
113.359580
 20
189.300000
 30
0.0
 11
113.359580
 21
188.319560
 31
0.0
  0
LINE
  5
338
100
AcDbEntity
  8
Plate
 62
7
100
AcDbLine
 10
113.359580
 20
188.319560
 30
0.0
 11
127.329580
 21
188.319560
 31
0.0
  0
LINE
  5
339
100
AcDbEntity
  8
Plate
 62
7
100
AcDbLine
 10
127.329580
 20
188.319560
 30
0.0
 11
127.329580
 21
189.300000
 31
0.0
  0
LINE
  5
33a
100
AcDbEntity
  8
Plate
 62
7
100
AcDbLine
 10
127.329580
 20
189.300000
 30
0.0
 11
128.142380
 21
189.300000
 31
0.0
  0
LINE
  5
33b
100
AcDbEntity
  8
Plate
 62
7
100
AcDbLine
 10
128.142380
 20
189.300000
 30
0.0
 11
128.142380
 21
192.800120
 31
0.0
  0
LINE
  5
33c
100
AcDbEntity
  8
Plate
 62
7
100
AcDbLine
 10
128.142380
 20
192.800120
 30
0.0
 11
127.329580
 21
192.800120
 31
0.0
  0
LINE
  5
33d
100
AcDbEntity
  8
Plate
 62
7
100
AcDbLine
 10
127.329580
 20
192.800120
 30
0.0
 11
127.329580
 21
197.809004
 31
0.0
  0
LINE
  5
33e
100
AcDbEntity
  8
Plate
 62
7
100
AcDbLine
 10
127.329580
 20
197.809004
 30
0.0
 11
128.142380
 21
197.809004
 31
0.0
  0
LINE
  5
33f
100
AcDbEntity
  8
Plate
 62
7
100
AcDbLine
 10
128.142380
 20
197.809004
 30
0.0
 11
128.142380
 21
201.309124
 31
0.0
  0
LINE
  5
340
100
AcDbEntity
  8
Plate
 62
7
100
AcDbLine
 10
128.142380
 20
201.309124
 30
0.0
 11
127.329580
 21
201.309124
 31
0.0
  0
LINE
  5
341
100
AcDbEntity
  8
Plate
 62
7
100
AcDbLine
 10
127.329580
 20
201.309124
 30
0.0
 11
127.329580
 21
202.289564
 31
0.0
  0
LINE
  5
342
100
AcDbEntity
  8
Plate
 62
7
100
AcDbLine
 10
127.329580
 20
202.289564
 30
0.0
 11
113.359580
 21
202.289564
 31
0.0
  0
LINE
  5
343
100
AcDbEntity
  8
Plate
 62
7
100
AcDbLine
 10
151.459580
 20
197.516904
 30
0.0
 11
151.459580
 21
196.536460
 31
0.0
  0
LINE
  5
344
100
AcDbEntity
  8
Plate
 62
7
100
AcDbLine
 10
151.459580
 20
196.536460
 30
0.0
 11
150.646780
 21
196.536460
 31
0.0
  0
LINE
  5
345
100
AcDbEntity
  8
Plate
 62
7
100
AcDbLine
 10
150.646780
 20
196.536460
 30
0.0
 11
150.646780
 21
193.036340
 31
0.0
  0
LINE
  5
346
100
AcDbEntity
  8
Plate
 62
7
100
AcDbLine
 10
150.646780
 20
193.036340
 30
0.0
 11
151.459580
 21
193.036340
 31
0.0
  0
LINE
  5
347
100
AcDbEntity
  8
Plate
 62
7
100
AcDbLine
 10
151.459580
 20
193.036340
 30
0.0
 11
151.459580
 21
188.027460
 31
0.0
  0
LINE
  5
348
100
AcDbEntity
  8
Plate
 62
7
100
AcDbLine
 10
151.459580
 20
188.027460
 30
0.0
 11
150.646780
 21
188.027460
 31
0.0
  0
LINE
  5
349
100
AcDbEntity
  8
Plate
 62
7
100
AcDbLine
 10
150.646780
 20
188.027460
 30
0.0
 11
150.646780
 21
184.527340
 31
0.0
  0
LINE
  5
34a
100
AcDbEntity
  8
Plate
 62
7
100
AcDbLine
 10
150.646780
 20
184.527340
 30
0.0
 11
151.459580
 21
184.527340
 31
0.0
  0
LINE
  5
34b
100
AcDbEntity
  8
Plate
 62
7
100
AcDbLine
 10
151.459580
 20
184.527340
 30
0.0
 11
151.459580
 21
183.546900
 31
0.0
  0
LINE
  5
34c
100
AcDbEntity
  8
Plate
 62
7
100
AcDbLine
 10
151.459580
 20
183.546900
 30
0.0
 11
165.429580
 21
183.546900
 31
0.0
  0
LINE
  5
34d
100
AcDbEntity
  8
Plate
 62
7
100
AcDbLine
 10
165.429580
 20
183.546900
 30
0.0
 11
165.429580
 21
184.527340
 31
0.0
  0
LINE
  5
34e
100
AcDbEntity
  8
Plate
 62
7
100
AcDbLine
 10
165.429580
 20
184.527340
 30
0.0
 11
166.242380
 21
184.527340
 31
0.0
  0
LINE
  5
34f
100
AcDbEntity
  8
Plate
 62
7
100
AcDbLine
 10
166.242380
 20
184.527340
 30
0.0
 11
166.242380
 21
188.027460
 31
0.0
  0
LINE
  5
350
100
AcDbEntity
  8
Plate
 62
7
100
AcDbLine
 10
166.242380
 20
188.027460
 30
0.0
 11
165.429580
 21
188.027460
 31
0.0
  0
LINE
  5
351
100
AcDbEntity
  8
Plate
 62
7
100
AcDbLine
 10
165.429580
 20
188.027460
 30
0.0
 11
165.429580
 21
193.036340
 31
0.0
  0
LINE
  5
352
100
AcDbEntity
  8
Plate
 62
7
100
AcDbLine
 10
165.429580
 20
193.036340
 30
0.0
 11
166.242380
 21
193.036340
 31
0.0
  0
LINE
  5
353
100
AcDbEntity
  8
Plate
 62
7
100
AcDbLine
 10
166.242380
 20
193.036340
 30
0.0
 11
166.242380
 21
196.536460
 31
0.0
  0
LINE
  5
354
100
AcDbEntity
  8
Plate
 62
7
100
AcDbLine
 10
166.242380
 20
196.536460
 30
0.0
 11
165.429580
 21
196.536460
 31
0.0
  0
LINE
  5
355
100
AcDbEntity
  8
Plate
 62
7
100
AcDbLine
 10
165.429580
 20
196.536460
 30
0.0
 11
165.429580
 21
197.516904
 31
0.0
  0
LINE
  5
356
100
AcDbEntity
  8
Plate
 62
7
100
AcDbLine
 10
165.429580
 20
197.516904
 30
0.0
 11
151.459580
 21
197.516904
 31
0.0
  0
LINE
  5
357
100
AcDbEntity
  8
Plate
 62
7
100
AcDbLine
 10
132.409580
 20
143.541910
 30
0.0
 11
132.409580
 21
142.561460
 31
0.0
  0
LINE
  5
358
100
AcDbEntity
  8
Plate
 62
7
100
AcDbLine
 10
132.409580
 20
142.561460
 30
0.0
 11
131.596780
 21
142.561460
 31
0.0
  0
LINE
  5
359
100
AcDbEntity
  8
Plate
 62
7
100
AcDbLine
 10
131.596780
 20
142.561460
 30
0.0
 11
131.596780
 21
139.061350
 31
0.0
  0
LINE
  5
35a
100
AcDbEntity
  8
Plate
 62
7
100
AcDbLine
 10
131.596780
 20
139.061350
 30
0.0
 11
132.409580
 21
139.061350
 31
0.0
  0
LINE
  5
35b
100
AcDbEntity
  8
Plate
 62
7
100
AcDbLine
 10
132.409580
 20
139.061350
 30
0.0
 11
132.409580
 21
134.052470
 31
0.0
  0
LINE
  5
35c
100
AcDbEntity
  8
Plate
 62
7
100
AcDbLine
 10
132.409580
 20
134.052470
 30
0.0
 11
131.596780
 21
134.052470
 31
0.0
  0
LINE
  5
35d
100
AcDbEntity
  8
Plate
 62
7
100
AcDbLine
 10
131.596780
 20
134.052470
 30
0.0
 11
131.596780
 21
130.552350
 31
0.0
  0
LINE
  5
35e
100
AcDbEntity
  8
Plate
 62
7
100
AcDbLine
 10
131.596780
 20
130.552350
 30
0.0
 11
132.409580
 21
130.552350
 31
0.0
  0
LINE
  5
35f
100
AcDbEntity
  8
Plate
 62
7
100
AcDbLine
 10
132.409580
 20
130.552350
 30
0.0
 11
132.409580
 21
129.571910
 31
0.0
  0
LINE
  5
360
100
AcDbEntity
  8
Plate
 62
7
100
AcDbLine
 10
132.409580
 20
129.571910
 30
0.0
 11
146.379580
 21
129.571910
 31
0.0
  0
LINE
  5
361
100
AcDbEntity
  8
Plate
 62
7
100
AcDbLine
 10
146.379580
 20
129.571910
 30
0.0
 11
146.379580
 21
130.552350
 31
0.0
  0
LINE
  5
362
100
AcDbEntity
  8
Plate
 62
7
100
AcDbLine
 10
146.379580
 20
130.552350
 30
0.0
 11
147.192380
 21
130.552350
 31
0.0
  0
LINE
  5
363
100
AcDbEntity
  8
Plate
 62
7
100
AcDbLine
 10
147.192380
 20
130.552350
 30
0.0
 11
147.192380
 21
134.052470
 31
0.0
  0
LINE
  5
364
100
AcDbEntity
  8
Plate
 62
7
100
AcDbLine
 10
147.192380
 20
134.052470
 30
0.0
 11
146.379580
 21
134.052470
 31
0.0
  0
LINE
  5
365
100
AcDbEntity
  8
Plate
 62
7
100
AcDbLine
 10
146.379580
 20
134.052470
 30
0.0
 11
146.379580
 21
139.061350
 31
0.0
  0
LINE
  5
366
100
AcDbEntity
  8
Plate
 62
7
100
AcDbLine
 10
146.379580
 20
139.061350
 30
0.0
 11
147.192380
 21
139.061350
 31
0.0
  0
LINE
  5
367
100
AcDbEntity
  8
Plate
 62
7
100
AcDbLine
 10
147.192380
 20
139.061350
 30
0.0
 11
147.192380
 21
142.561460
 31
0.0
  0
LINE
  5
368
100
AcDbEntity
  8
Plate
 62
7
100
AcDbLine
 10
147.192380
 20
142.561460
 30
0.0
 11
146.379580
 21
142.561460
 31
0.0
  0
LINE
  5
369
100
AcDbEntity
  8
Plate
 62
7
100
AcDbLine
 10
146.379580
 20
142.561460
 30
0.0
 11
146.379580
 21
143.541910
 31
0.0
  0
LINE
  5
36a
100
AcDbEntity
  8
Plate
 62
7
100
AcDbLine
 10
146.379580
 20
143.541910
 30
0.0
 11
132.409580
 21
143.541910
 31
0.0
  0
LINE
  5
36b
100
AcDbEntity
  8
Plate
 62
7
100
AcDbLine
 10
94.309576
 20
219.741904
 30
0.0
 11
94.309576
 21
218.761462
 31
0.0
  0
LINE
  5
36c
100
AcDbEntity
  8
Plate
 62
7
100
AcDbLine
 10
94.309576
 20
218.761462
 30
0.0
 11
93.496777
 21
218.761462
 31
0.0
  0
LINE
  5
36d
100
AcDbEntity
  8
Plate
 62
7
100
AcDbLine
 10
93.496777
 20
218.761462
 30
0.0
 11
93.496777
 21
215.261344
 31
0.0
  0
LINE
  5
36e
100
AcDbEntity
  8
Plate
 62
7
100
AcDbLine
 10
93.496777
 20
215.261344
 30
0.0
 11
94.309576
 21
215.261344
 31
0.0
  0
LINE
  5
36f
100
AcDbEntity
  8
Plate
 62
7
100
AcDbLine
 10
94.309576
 20
215.261344
 30
0.0
 11
94.309576
 21
210.252464
 31
0.0
  0
LINE
  5
370
100
AcDbEntity
  8
Plate
 62
7
100
AcDbLine
 10
94.309576
 20
210.252464
 30
0.0
 11
93.496777
 21
210.252464
 31
0.0
  0
LINE
  5
371
100
AcDbEntity
  8
Plate
 62
7
100
AcDbLine
 10
93.496777
 20
210.252464
 30
0.0
 11
93.496777
 21
206.752344
 31
0.0
  0
LINE
  5
372
100
AcDbEntity
  8
Plate
 62
7
100
AcDbLine
 10
93.496777
 20
206.752344
 30
0.0
 11
94.309576
 21
206.752344
 31
0.0
  0
LINE
  5
373
100
AcDbEntity
  8
Plate
 62
7
100
AcDbLine
 10
94.309576
 20
206.752344
 30
0.0
 11
94.309576
 21
205.771904
 31
0.0
  0
LINE
  5
374
100
AcDbEntity
  8
Plate
 62
7
100
AcDbLine
 10
94.309576
 20
205.771904
 30
0.0
 11
108.279580
 21
205.771904
 31
0.0
  0
LINE
  5
375
100
AcDbEntity
  8
Plate
 62
7
100
AcDbLine
 10
108.279580
 20
205.771904
 30
0.0
 11
108.279580
 21
206.752344
 31
0.0
  0
LINE
  5
376
100
AcDbEntity
  8
Plate
 62
7
100
AcDbLine
 10
108.279580
 20
206.752344
 30
0.0
 11
109.092380
 21
206.752344
 31
0.0
  0
LINE
  5
377
100
AcDbEntity
  8
Plate
 62
7
100
AcDbLine
 10
109.092380
 20
206.752344
 30
0.0
 11
109.092380
 21
210.252464
 31
0.0
  0
LINE
  5
378
100
AcDbEntity
  8
Plate
 62
7
100
AcDbLine
 10
109.092380
 20
210.252464
 30
0.0
 11
108.279580
 21
210.252464
 31
0.0
  0
LINE
  5
379
100
AcDbEntity
  8
Plate
 62
7
100
AcDbLine
 10
108.279580
 20
210.252464
 30
0.0
 11
108.279580
 21
215.261344
 31
0.0
  0
LINE
  5
37a
100
AcDbEntity
  8
Plate
 62
7
100
AcDbLine
 10
108.279580
 20
215.261344
 30
0.0
 11
109.092380
 21
215.261344
 31
0.0
  0
LINE
  5
37b
100
AcDbEntity
  8
Plate
 62
7
100
AcDbLine
 10
109.092380
 20
215.261344
 30
0.0
 11
109.092380
 21
218.761462
 31
0.0
  0
LINE
  5
37c
100
AcDbEntity
  8
Plate
 62
7
100
AcDbLine
 10
109.092380
 20
218.761462
 30
0.0
 11
108.279580
 21
218.761462
 31
0.0
  0
LINE
  5
37d
100
AcDbEntity
  8
Plate
 62
7
100
AcDbLine
 10
108.279580
 20
218.761462
 30
0.0
 11
108.279580
 21
219.741904
 31
0.0
  0
LINE
  5
37e
100
AcDbEntity
  8
Plate
 62
7
100
AcDbLine
 10
108.279580
 20
219.741904
 30
0.0
 11
94.309576
 21
219.741904
 31
0.0
  0
LINE
  5
37f
100
AcDbEntity
  8
Plate
 62
7
100
AcDbLine
 10
113.359580
 20
221.339564
 30
0.0
 11
113.359580
 21
220.359124
 31
0.0
  0
LINE
  5
380
100
AcDbEntity
  8
Plate
 62
7
100
AcDbLine
 10
113.359580
 20
220.359124
 30
0.0
 11
112.546780
 21
220.359124
 31
0.0
  0
LINE
  5
381
100
AcDbEntity
  8
Plate
 62
7
100
AcDbLine
 10
112.546780
 20
220.359124
 30
0.0
 11
112.546780
 21
216.859004
 31
0.0
  0
LINE
  5
382
100
AcDbEntity
  8
Plate
 62
7
100
AcDbLine
 10
112.546780
 20
216.859004
 30
0.0
 11
113.359580
 21
216.859004
 31
0.0
  0
LINE
  5
383
100
AcDbEntity
  8
Plate
 62
7
100
AcDbLine
 10
113.359580
 20
216.859004
 30
0.0
 11
113.359580
 21
211.850124
 31
0.0
  0
LINE
  5
384
100
AcDbEntity
  8
Plate
 62
7
100
AcDbLine
 10
113.359580
 20
211.850124
 30
0.0
 11
112.546780
 21
211.850124
 31
0.0
  0
LINE
  5
385
100
AcDbEntity
  8
Plate
 62
7
100
AcDbLine
 10
112.546780
 20
211.850124
 30
0.0
 11
112.546780
 21
208.350002
 31
0.0
  0
LINE
  5
386
100
AcDbEntity
  8
Plate
 62
7
100
AcDbLine
 10
112.546780
 20
208.350002
 30
0.0
 11
113.359580
 21
208.350002
 31
0.0
  0
LINE
  5
387
100
AcDbEntity
  8
Plate
 62
7
100
AcDbLine
 10
113.359580
 20
208.350002
 30
0.0
 11
113.359580
 21
207.369562
 31
0.0
  0
LINE
  5
388
100
AcDbEntity
  8
Plate
 62
7
100
AcDbLine
 10
113.359580
 20
207.369562
 30
0.0
 11
127.329580
 21
207.369562
 31
0.0
  0
LINE
  5
389
100
AcDbEntity
  8
Plate
 62
7
100
AcDbLine
 10
127.329580
 20
207.369562
 30
0.0
 11
127.329580
 21
208.350002
 31
0.0
  0
LINE
  5
38a
100
AcDbEntity
  8
Plate
 62
7
100
AcDbLine
 10
127.329580
 20
208.350002
 30
0.0
 11
128.142380
 21
208.350002
 31
0.0
  0
LINE
  5
38b
100
AcDbEntity
  8
Plate
 62
7
100
AcDbLine
 10
128.142380
 20
208.350002
 30
0.0
 11
128.142380
 21
211.850124
 31
0.0
  0
LINE
  5
38c
100
AcDbEntity
  8
Plate
 62
7
100
AcDbLine
 10
128.142380
 20
211.850124
 30
0.0
 11
127.329580
 21
211.850124
 31
0.0
  0
LINE
  5
38d
100
AcDbEntity
  8
Plate
 62
7
100
AcDbLine
 10
127.329580
 20
211.850124
 30
0.0
 11
127.329580
 21
216.859004
 31
0.0
  0
LINE
  5
38e
100
AcDbEntity
  8
Plate
 62
7
100
AcDbLine
 10
127.329580
 20
216.859004
 30
0.0
 11
128.142380
 21
216.859004
 31
0.0
  0
LINE
  5
38f
100
AcDbEntity
  8
Plate
 62
7
100
AcDbLine
 10
128.142380
 20
216.859004
 30
0.0
 11
128.142380
 21
220.359124
 31
0.0
  0
LINE
  5
390
100
AcDbEntity
  8
Plate
 62
7
100
AcDbLine
 10
128.142380
 20
220.359124
 30
0.0
 11
127.329580
 21
220.359124
 31
0.0
  0
LINE
  5
391
100
AcDbEntity
  8
Plate
 62
7
100
AcDbLine
 10
127.329580
 20
220.359124
 30
0.0
 11
127.329580
 21
221.339564
 31
0.0
  0
LINE
  5
392
100
AcDbEntity
  8
Plate
 62
7
100
AcDbLine
 10
127.329580
 20
221.339564
 30
0.0
 11
113.359580
 21
221.339564
 31
0.0
  0
LINE
  5
393
100
AcDbEntity
  8
Plate
 62
7
100
AcDbLine
 10
132.409580
 20
219.741904
 30
0.0
 11
132.409580
 21
218.761462
 31
0.0
  0
LINE
  5
394
100
AcDbEntity
  8
Plate
 62
7
100
AcDbLine
 10
132.409580
 20
218.761462
 30
0.0
 11
131.596780
 21
218.761462
 31
0.0
  0
LINE
  5
395
100
AcDbEntity
  8
Plate
 62
7
100
AcDbLine
 10
131.596780
 20
218.761462
 30
0.0
 11
131.596780
 21
215.261344
 31
0.0
  0
LINE
  5
396
100
AcDbEntity
  8
Plate
 62
7
100
AcDbLine
 10
131.596780
 20
215.261344
 30
0.0
 11
132.409580
 21
215.261344
 31
0.0
  0
LINE
  5
397
100
AcDbEntity
  8
Plate
 62
7
100
AcDbLine
 10
132.409580
 20
215.261344
 30
0.0
 11
132.409580
 21
210.252464
 31
0.0
  0
LINE
  5
398
100
AcDbEntity
  8
Plate
 62
7
100
AcDbLine
 10
132.409580
 20
210.252464
 30
0.0
 11
131.596780
 21
210.252464
 31
0.0
  0
LINE
  5
399
100
AcDbEntity
  8
Plate
 62
7
100
AcDbLine
 10
131.596780
 20
210.252464
 30
0.0
 11
131.596780
 21
206.752344
 31
0.0
  0
LINE
  5
39a
100
AcDbEntity
  8
Plate
 62
7
100
AcDbLine
 10
131.596780
 20
206.752344
 30
0.0
 11
132.409580
 21
206.752344
 31
0.0
  0
LINE
  5
39b
100
AcDbEntity
  8
Plate
 62
7
100
AcDbLine
 10
132.409580
 20
206.752344
 30
0.0
 11
132.409580
 21
205.771904
 31
0.0
  0
LINE
  5
39c
100
AcDbEntity
  8
Plate
 62
7
100
AcDbLine
 10
132.409580
 20
205.771904
 30
0.0
 11
146.379580
 21
205.771904
 31
0.0
  0
LINE
  5
39d
100
AcDbEntity
  8
Plate
 62
7
100
AcDbLine
 10
146.379580
 20
205.771904
 30
0.0
 11
146.379580
 21
206.752344
 31
0.0
  0
LINE
  5
39e
100
AcDbEntity
  8
Plate
 62
7
100
AcDbLine
 10
146.379580
 20
206.752344
 30
0.0
 11
147.192380
 21
206.752344
 31
0.0
  0
LINE
  5
39f
100
AcDbEntity
  8
Plate
 62
7
100
AcDbLine
 10
147.192380
 20
206.752344
 30
0.0
 11
147.192380
 21
210.252464
 31
0.0
  0
LINE
  5
3a0
100
AcDbEntity
  8
Plate
 62
7
100
AcDbLine
 10
147.192380
 20
210.252464
 30
0.0
 11
146.379580
 21
210.252464
 31
0.0
  0
LINE
  5
3a1
100
AcDbEntity
  8
Plate
 62
7
100
AcDbLine
 10
146.379580
 20
210.252464
 30
0.0
 11
146.379580
 21
215.261344
 31
0.0
  0
LINE
  5
3a2
100
AcDbEntity
  8
Plate
 62
7
100
AcDbLine
 10
146.379580
 20
215.261344
 30
0.0
 11
147.192380
 21
215.261344
 31
0.0
  0
LINE
  5
3a3
100
AcDbEntity
  8
Plate
 62
7
100
AcDbLine
 10
147.192380
 20
215.261344
 30
0.0
 11
147.192380
 21
218.761462
 31
0.0
  0
LINE
  5
3a4
100
AcDbEntity
  8
Plate
 62
7
100
AcDbLine
 10
147.192380
 20
218.761462
 30
0.0
 11
146.379580
 21
218.761462
 31
0.0
  0
LINE
  5
3a5
100
AcDbEntity
  8
Plate
 62
7
100
AcDbLine
 10
146.379580
 20
218.761462
 30
0.0
 11
146.379580
 21
219.741904
 31
0.0
  0
LINE
  5
3a6
100
AcDbEntity
  8
Plate
 62
7
100
AcDbLine
 10
146.379580
 20
219.741904
 30
0.0
 11
132.409580
 21
219.741904
 31
0.0
  0
LINE
  5
3a7
100
AcDbEntity
  8
Plate
 62
7
100
AcDbLine
 10
151.459580
 20
216.564364
 30
0.0
 11
151.459580
 21
215.583924
 31
0.0
  0
LINE
  5
3a8
100
AcDbEntity
  8
Plate
 62
7
100
AcDbLine
 10
151.459580
 20
215.583924
 30
0.0
 11
150.646780
 21
215.583924
 31
0.0
  0
LINE
  5
3a9
100
AcDbEntity
  8
Plate
 62
7
100
AcDbLine
 10
150.646780
 20
215.583924
 30
0.0
 11
150.646780
 21
212.083804
 31
0.0
  0
LINE
  5
3aa
100
AcDbEntity
  8
Plate
 62
7
100
AcDbLine
 10
150.646780
 20
212.083804
 30
0.0
 11
151.459580
 21
212.083804
 31
0.0
  0
LINE
  5
3ab
100
AcDbEntity
  8
Plate
 62
7
100
AcDbLine
 10
151.459580
 20
212.083804
 30
0.0
 11
151.459580
 21
207.074924
 31
0.0
  0
LINE
  5
3ac
100
AcDbEntity
  8
Plate
 62
7
100
AcDbLine
 10
151.459580
 20
207.074924
 30
0.0
 11
150.646780
 21
207.074924
 31
0.0
  0
LINE
  5
3ad
100
AcDbEntity
  8
Plate
 62
7
100
AcDbLine
 10
150.646780
 20
207.074924
 30
0.0
 11
150.646780
 21
203.574802
 31
0.0
  0
LINE
  5
3ae
100
AcDbEntity
  8
Plate
 62
7
100
AcDbLine
 10
150.646780
 20
203.574802
 30
0.0
 11
151.459580
 21
203.574802
 31
0.0
  0
LINE
  5
3af
100
AcDbEntity
  8
Plate
 62
7
100
AcDbLine
 10
151.459580
 20
203.574802
 30
0.0
 11
151.459580
 21
202.594364
 31
0.0
  0
LINE
  5
3b0
100
AcDbEntity
  8
Plate
 62
7
100
AcDbLine
 10
151.459580
 20
202.594364
 30
0.0
 11
165.429580
 21
202.594364
 31
0.0
  0
LINE
  5
3b1
100
AcDbEntity
  8
Plate
 62
7
100
AcDbLine
 10
165.429580
 20
202.594364
 30
0.0
 11
165.429580
 21
203.574802
 31
0.0
  0
LINE
  5
3b2
100
AcDbEntity
  8
Plate
 62
7
100
AcDbLine
 10
165.429580
 20
203.574802
 30
0.0
 11
166.242380
 21
203.574802
 31
0.0
  0
LINE
  5
3b3
100
AcDbEntity
  8
Plate
 62
7
100
AcDbLine
 10
166.242380
 20
203.574802
 30
0.0
 11
166.242380
 21
207.074924
 31
0.0
  0
LINE
  5
3b4
100
AcDbEntity
  8
Plate
 62
7
100
AcDbLine
 10
166.242380
 20
207.074924
 30
0.0
 11
165.429580
 21
207.074924
 31
0.0
  0
LINE
  5
3b5
100
AcDbEntity
  8
Plate
 62
7
100
AcDbLine
 10
165.429580
 20
207.074924
 30
0.0
 11
165.429580
 21
212.083804
 31
0.0
  0
LINE
  5
3b6
100
AcDbEntity
  8
Plate
 62
7
100
AcDbLine
 10
165.429580
 20
212.083804
 30
0.0
 11
166.242380
 21
212.083804
 31
0.0
  0
LINE
  5
3b7
100
AcDbEntity
  8
Plate
 62
7
100
AcDbLine
 10
166.242380
 20
212.083804
 30
0.0
 11
166.242380
 21
215.583924
 31
0.0
  0
LINE
  5
3b8
100
AcDbEntity
  8
Plate
 62
7
100
AcDbLine
 10
166.242380
 20
215.583924
 30
0.0
 11
165.429580
 21
215.583924
 31
0.0
  0
LINE
  5
3b9
100
AcDbEntity
  8
Plate
 62
7
100
AcDbLine
 10
165.429580
 20
215.583924
 30
0.0
 11
165.429580
 21
216.564364
 31
0.0
  0
LINE
  5
3ba
100
AcDbEntity
  8
Plate
 62
7
100
AcDbLine
 10
165.429580
 20
216.564364
 30
0.0
 11
151.459580
 21
216.564364
 31
0.0
  0
LINE
  5
3bb
100
AcDbEntity
  8
Plate
 62
7
100
AcDbLine
 10
33.484197
 20
144.743320
 30
0.0
 11
33.900757
 21
143.854320
 31
0.0
  0
LINE
  5
3bc
100
AcDbEntity
  8
Plate
 62
7
100
AcDbLine
 10
33.900757
 20
143.854320
 30
0.0
 11
33.164157
 21
143.511430
 31
0.0
  0
LINE
  5
3bd
100
AcDbEntity
  8
Plate
 62
7
100
AcDbLine
 10
33.164157
 20
143.511430
 30
0.0
 11
34.642437
 21
140.338970
 31
0.0
  0
LINE
  5
3be
100
AcDbEntity
  8
Plate
 62
7
100
AcDbLine
 10
34.642437
 20
140.338970
 30
0.0
 11
35.379037
 21
140.681870
 31
0.0
  0
LINE
  5
3bf
100
AcDbEntity
  8
Plate
 62
7
100
AcDbLine
 10
35.379037
 20
140.681870
 30
0.0
 11
37.494857
 21
136.142890
 31
0.0
  0
LINE
  5
3c0
100
AcDbEntity
  8
Plate
 62
7
100
AcDbLine
 10
37.494857
 20
136.142890
 30
0.0
 11
36.758257
 21
135.799980
 31
0.0
  0
LINE
  5
3c1
100
AcDbEntity
  8
Plate
 62
7
100
AcDbLine
 10
36.758257
 20
135.799980
 30
0.0
 11
38.239077
 21
132.627520
 31
0.0
  0
LINE
  5
3c2
100
AcDbEntity
  8
Plate
 62
7
100
AcDbLine
 10
38.239077
 20
132.627520
 30
0.0
 11
38.975677
 21
132.970430
 31
0.0
  0
LINE
  5
3c3
100
AcDbEntity
  8
Plate
 62
7
100
AcDbLine
 10
38.975677
 20
132.970430
 30
0.0
 11
39.389697
 21
132.081420
 31
0.0
  0
LINE
  5
3c4
100
AcDbEntity
  8
Plate
 62
7
100
AcDbLine
 10
39.389697
 20
132.081420
 30
0.0
 11
52.051597
 21
137.986930
 31
0.0
  0
LINE
  5
3c5
100
AcDbEntity
  8
Plate
 62
7
100
AcDbLine
 10
52.051597
 20
137.986930
 30
0.0
 11
51.635037
 21
138.875930
 31
0.0
  0
LINE
  5
3c6
100
AcDbEntity
  8
Plate
 62
7
100
AcDbLine
 10
51.635037
 20
138.875930
 30
0.0
 11
52.371637
 21
139.218820
 31
0.0
  0
LINE
  5
3c7
100
AcDbEntity
  8
Plate
 62
7
100
AcDbLine
 10
52.371637
 20
139.218820
 30
0.0
 11
50.893357
 21
142.391290
 31
0.0
  0
LINE
  5
3c8
100
AcDbEntity
  8
Plate
 62
7
100
AcDbLine
 10
50.893357
 20
142.391290
 30
0.0
 11
50.156757
 21
142.048380
 31
0.0
  0
LINE
  5
3c9
100
AcDbEntity
  8
Plate
 62
7
100
AcDbLine
 10
50.156757
 20
142.048380
 30
0.0
 11
48.040937
 21
146.587370
 31
0.0
  0
LINE
  5
3ca
100
AcDbEntity
  8
Plate
 62
7
100
AcDbLine
 10
48.040937
 20
146.587370
 30
0.0
 11
48.777537
 21
146.930270
 31
0.0
  0
LINE
  5
3cb
100
AcDbEntity
  8
Plate
 62
7
100
AcDbLine
 10
48.777537
 20
146.930270
 30
0.0
 11
47.296717
 21
150.102720
 31
0.0
  0
LINE
  5
3cc
100
AcDbEntity
  8
Plate
 62
7
100
AcDbLine
 10
47.296717
 20
150.102720
 30
0.0
 11
46.560117
 21
149.759830
 31
0.0
  0
LINE
  5
3cd
100
AcDbEntity
  8
Plate
 62
7
100
AcDbLine
 10
46.560117
 20
149.759830
 30
0.0
 11
46.146097
 21
150.648830
 31
0.0
  0
LINE
  5
3ce
100
AcDbEntity
  8
Plate
 62
7
100
AcDbLine
 10
46.146097
 20
150.648830
 30
0.0
 11
33.484197
 21
144.743320
 31
0.0
  0
LINE
  5
3cf
100
AcDbEntity
  8
Plate
 62
7
100
AcDbLine
 10
16.219817
 20
136.694070
 30
0.0
 11
16.636377
 21
135.805070
 31
0.0
  0
LINE
  5
3d0
100
AcDbEntity
  8
Plate
 62
7
100
AcDbLine
 10
16.636377
 20
135.805070
 30
0.0
 11
15.899777
 21
135.462170
 31
0.0
  0
LINE
  5
3d1
100
AcDbEntity
  8
Plate
 62
7
100
AcDbLine
 10
15.899777
 20
135.462170
 30
0.0
 11
17.378057
 21
132.289700
 31
0.0
  0
LINE
  5
3d2
100
AcDbEntity
  8
Plate
 62
7
100
AcDbLine
 10
17.378057
 20
132.289700
 30
0.0
 11
18.114657
 21
132.632610
 31
0.0
  0
LINE
  5
3d3
100
AcDbEntity
  8
Plate
 62
7
100
AcDbLine
 10
18.114657
 20
132.632610
 30
0.0
 11
20.230477
 21
128.093620
 31
0.0
  0
LINE
  5
3d4
100
AcDbEntity
  8
Plate
 62
7
100
AcDbLine
 10
20.230477
 20
128.093620
 30
0.0
 11
19.493877
 21
127.750730
 31
0.0
  0
LINE
  5
3d5
100
AcDbEntity
  8
Plate
 62
7
100
AcDbLine
 10
19.493877
 20
127.750730
 30
0.0
 11
20.974697
 21
124.578270
 31
0.0
  0
LINE
  5
3d6
100
AcDbEntity
  8
Plate
 62
7
100
AcDbLine
 10
20.974697
 20
124.578270
 30
0.0
 11
21.711297
 21
124.921160
 31
0.0
  0
LINE
  5
3d7
100
AcDbEntity
  8
Plate
 62
7
100
AcDbLine
 10
21.711297
 20
124.921160
 30
0.0
 11
22.125317
 21
124.032160
 31
0.0
  0
LINE
  5
3d8
100
AcDbEntity
  8
Plate
 62
7
100
AcDbLine
 10
22.125317
 20
124.032160
 30
0.0
 11
34.787217
 21
129.937670
 31
0.0
  0
LINE
  5
3d9
100
AcDbEntity
  8
Plate
 62
7
100
AcDbLine
 10
34.787217
 20
129.937670
 30
0.0
 11
34.370657
 21
130.826670
 31
0.0
  0
LINE
  5
3da
100
AcDbEntity
  8
Plate
 62
7
100
AcDbLine
 10
34.370657
 20
130.826670
 30
0.0
 11
35.107257
 21
131.169560
 31
0.0
  0
LINE
  5
3db
100
AcDbEntity
  8
Plate
 62
7
100
AcDbLine
 10
35.107257
 20
131.169560
 30
0.0
 11
33.628977
 21
134.342020
 31
0.0
  0
LINE
  5
3dc
100
AcDbEntity
  8
Plate
 62
7
100
AcDbLine
 10
33.628977
 20
134.342020
 30
0.0
 11
32.892377
 21
133.999130
 31
0.0
  0
LINE
  5
3dd
100
AcDbEntity
  8
Plate
 62
7
100
AcDbLine
 10
32.892377
 20
133.999130
 30
0.0
 11
30.776557
 21
138.538100
 31
0.0
  0
LINE
  5
3de
100
AcDbEntity
  8
Plate
 62
7
100
AcDbLine
 10
30.776557
 20
138.538100
 30
0.0
 11
31.513157
 21
138.881010
 31
0.0
  0
LINE
  5
3df
100
AcDbEntity
  8
Plate
 62
7
100
AcDbLine
 10
31.513157
 20
138.881010
 30
0.0
 11
30.032337
 21
142.053470
 31
0.0
  0
LINE
  5
3e0
100
AcDbEntity
  8
Plate
 62
7
100
AcDbLine
 10
30.032337
 20
142.053470
 30
0.0
 11
29.295737
 21
141.710560
 31
0.0
  0
LINE
  5
3e1
100
AcDbEntity
  8
Plate
 62
7
100
AcDbLine
 10
29.295737
 20
141.710560
 30
0.0
 11
28.881717
 21
142.599570
 31
0.0
  0
LINE
  5
3e2
100
AcDbEntity
  8
Plate
 62
7
100
AcDbLine
 10
28.881717
 20
142.599570
 30
0.0
 11
16.219817
 21
136.694070
 31
0.0
  0
LINE
  5
3e3
100
AcDbEntity
  8
Plate
 62
7
100
AcDbLine
 10
32.320877
 20
102.162770
 30
0.0
 11
32.737437
 21
101.273760
 31
0.0
  0
LINE
  5
3e4
100
AcDbEntity
  8
Plate
 62
7
100
AcDbLine
 10
32.737437
 20
101.273760
 30
0.0
 11
32.000837
 21
100.930870
 31
0.0
  0
LINE
  5
3e5
100
AcDbEntity
  8
Plate
 62
7
100
AcDbLine
 10
32.000837
 20
100.930870
 30
0.0
 11
33.479117
 21
97.758400
 31
0.0
  0
LINE
  5
3e6
100
AcDbEntity
  8
Plate
 62
7
100
AcDbLine
 10
33.479117
 20
97.758400
 30
0.0
 11
34.215717
 21
98.101300
 31
0.0
  0
LINE
  5
3e7
100
AcDbEntity
  8
Plate
 62
7
100
AcDbLine
 10
34.215717
 20
98.101300
 30
0.0
 11
36.331537
 21
93.562320
 31
0.0
  0
LINE
  5
3e8
100
AcDbEntity
  8
Plate
 62
7
100
AcDbLine
 10
36.331537
 20
93.562320
 30
0.0
 11
35.594937
 21
93.219420
 31
0.0
  0
LINE
  5
3e9
100
AcDbEntity
  8
Plate
 62
7
100
AcDbLine
 10
35.594937
 20
93.219420
 30
0.0
 11
37.075757
 21
90.046960
 31
0.0
  0
LINE
  5
3ea
100
AcDbEntity
  8
Plate
 62
7
100
AcDbLine
 10
37.075757
 20
90.046960
 30
0.0
 11
37.812357
 21
90.389860
 31
0.0
  0
LINE
  5
3eb
100
AcDbEntity
  8
Plate
 62
7
100
AcDbLine
 10
37.812357
 20
90.389860
 30
0.0
 11
38.226377
 21
89.500860
 31
0.0
  0
LINE
  5
3ec
100
AcDbEntity
  8
Plate
 62
7
100
AcDbLine
 10
38.226377
 20
89.500860
 30
0.0
 11
50.888277
 21
95.406360
 31
0.0
  0
LINE
  5
3ed
100
AcDbEntity
  8
Plate
 62
7
100
AcDbLine
 10
50.888277
 20
95.406360
 30
0.0
 11
50.471717
 21
96.295360
 31
0.0
  0
LINE
  5
3ee
100
AcDbEntity
  8
Plate
 62
7
100
AcDbLine
 10
50.471717
 20
96.295360
 30
0.0
 11
51.208317
 21
96.638260
 31
0.0
  0
LINE
  5
3ef
100
AcDbEntity
  8
Plate
 62
7
100
AcDbLine
 10
51.208317
 20
96.638260
 30
0.0
 11
49.730037
 21
99.810730
 31
0.0
  0
LINE
  5
3f0
100
AcDbEntity
  8
Plate
 62
7
100
AcDbLine
 10
49.730037
 20
99.810730
 30
0.0
 11
48.993437
 21
99.467820
 31
0.0
  0
LINE
  5
3f1
100
AcDbEntity
  8
Plate
 62
7
100
AcDbLine
 10
48.993437
 20
99.467820
 30
0.0
 11
46.877617
 21
104.006810
 31
0.0
  0
LINE
  5
3f2
100
AcDbEntity
  8
Plate
 62
7
100
AcDbLine
 10
46.877617
 20
104.006810
 30
0.0
 11
47.614217
 21
104.349700
 31
0.0
  0
LINE
  5
3f3
100
AcDbEntity
  8
Plate
 62
7
100
AcDbLine
 10
47.614217
 20
104.349700
 30
0.0
 11
46.133397
 21
107.522160
 31
0.0
  0
LINE
  5
3f4
100
AcDbEntity
  8
Plate
 62
7
100
AcDbLine
 10
46.133397
 20
107.522160
 30
0.0
 11
45.396797
 21
107.179270
 31
0.0
  0
LINE
  5
3f5
100
AcDbEntity
  8
Plate
 62
7
100
AcDbLine
 10
45.396797
 20
107.179270
 30
0.0
 11
44.982777
 21
108.068270
 31
0.0
  0
LINE
  5
3f6
100
AcDbEntity
  8
Plate
 62
7
100
AcDbLine
 10
44.982777
 20
108.068270
 30
0.0
 11
32.320877
 21
102.162770
 31
0.0
  0
LINE
  5
3f7
100
AcDbEntity
  8
Plate
 62
7
100
AcDbLine
 10
24.269077
 20
119.429690
 30
0.0
 11
24.685637
 21
118.540690
 31
0.0
  0
LINE
  5
3f8
100
AcDbEntity
  8
Plate
 62
7
100
AcDbLine
 10
24.685637
 20
118.540690
 30
0.0
 11
23.949037
 21
118.197780
 31
0.0
  0
LINE
  5
3f9
100
AcDbEntity
  8
Plate
 62
7
100
AcDbLine
 10
23.949037
 20
118.197780
 30
0.0
 11
25.427317
 21
115.025330
 31
0.0
  0
LINE
  5
3fa
100
AcDbEntity
  8
Plate
 62
7
100
AcDbLine
 10
25.427317
 20
115.025330
 30
0.0
 11
26.163917
 21
115.368220
 31
0.0
  0
LINE
  5
3fb
100
AcDbEntity
  8
Plate
 62
7
100
AcDbLine
 10
26.163917
 20
115.368220
 30
0.0
 11
28.279737
 21
110.829250
 31
0.0
  0
LINE
  5
3fc
100
AcDbEntity
  8
Plate
 62
7
100
AcDbLine
 10
28.279737
 20
110.829250
 30
0.0
 11
27.543137
 21
110.486350
 31
0.0
  0
LINE
  5
3fd
100
AcDbEntity
  8
Plate
 62
7
100
AcDbLine
 10
27.543137
 20
110.486350
 30
0.0
 11
29.023957
 21
107.313880
 31
0.0
  0
LINE
  5
3fe
100
AcDbEntity
  8
Plate
 62
7
100
AcDbLine
 10
29.023957
 20
107.313880
 30
0.0
 11
29.760557
 21
107.656790
 31
0.0
  0
LINE
  5
3ff
100
AcDbEntity
  8
Plate
 62
7
100
AcDbLine
 10
29.760557
 20
107.656790
 30
0.0
 11
30.174577
 21
106.767790
 31
0.0
  0
LINE
  5
400
100
AcDbEntity
  8
Plate
 62
7
100
AcDbLine
 10
30.174577
 20
106.767790
 30
0.0
 11
42.836477
 21
112.673280
 31
0.0
  0
LINE
  5
401
100
AcDbEntity
  8
Plate
 62
7
100
AcDbLine
 10
42.836477
 20
112.673280
 30
0.0
 11
42.419917
 21
113.562280
 31
0.0
  0
LINE
  5
402
100
AcDbEntity
  8
Plate
 62
7
100
AcDbLine
 10
42.419917
 20
113.562280
 30
0.0
 11
43.156517
 21
113.905190
 31
0.0
  0
LINE
  5
403
100
AcDbEntity
  8
Plate
 62
7
100
AcDbLine
 10
43.156517
 20
113.905190
 30
0.0
 11
41.678237
 21
117.077650
 31
0.0
  0
LINE
  5
404
100
AcDbEntity
  8
Plate
 62
7
100
AcDbLine
 10
41.678237
 20
117.077650
 30
0.0
 11
40.941637
 21
116.734750
 31
0.0
  0
LINE
  5
405
100
AcDbEntity
  8
Plate
 62
7
100
AcDbLine
 10
40.941637
 20
116.734750
 30
0.0
 11
38.825817
 21
121.273730
 31
0.0
  0
LINE
  5
406
100
AcDbEntity
  8
Plate
 62
7
100
AcDbLine
 10
38.825817
 20
121.273730
 30
0.0
 11
39.562417
 21
121.616620
 31
0.0
  0
LINE
  5
407
100
AcDbEntity
  8
Plate
 62
7
100
AcDbLine
 10
39.562417
 20
121.616620
 30
0.0
 11
38.081597
 21
124.789080
 31
0.0
  0
LINE
  5
408
100
AcDbEntity
  8
Plate
 62
7
100
AcDbLine
 10
38.081597
 20
124.789080
 30
0.0
 11
37.344997
 21
124.446190
 31
0.0
  0
LINE
  5
409
100
AcDbEntity
  8
Plate
 62
7
100
AcDbLine
 10
37.344997
 20
124.446190
 30
0.0
 11
36.930977
 21
125.335180
 31
0.0
  0
LINE
  5
40a
100
AcDbEntity
  8
Plate
 62
7
100
AcDbLine
 10
36.930977
 20
125.335180
 30
0.0
 11
24.269077
 21
119.429690
 31
0.0
  0
LINE
  5
40b
100
AcDbEntity
  8
Plate
 62
7
100
AcDbLine
 10
75.259577
 20
199.421904
 30
0.0
 11
75.259577
 21
198.441464
 31
0.0
  0
LINE
  5
40c
100
AcDbEntity
  8
Plate
 62
7
100
AcDbLine
 10
75.259577
 20
198.441464
 30
0.0
 11
74.446777
 21
198.441464
 31
0.0
  0
LINE
  5
40d
100
AcDbEntity
  8
Plate
 62
7
100
AcDbLine
 10
74.446777
 20
198.441464
 30
0.0
 11
74.446777
 21
194.941340
 31
0.0
  0
LINE
  5
40e
100
AcDbEntity
  8
Plate
 62
7
100
AcDbLine
 10
74.446777
 20
194.941340
 30
0.0
 11
75.259577
 21
194.941340
 31
0.0
  0
LINE
  5
40f
100
AcDbEntity
  8
Plate
 62
7
100
AcDbLine
 10
75.259577
 20
194.941340
 30
0.0
 11
75.259577
 21
189.932460
 31
0.0
  0
LINE
  5
410
100
AcDbEntity
  8
Plate
 62
7
100
AcDbLine
 10
75.259577
 20
189.932460
 30
0.0
 11
74.446777
 21
189.932460
 31
0.0
  0
LINE
  5
411
100
AcDbEntity
  8
Plate
 62
7
100
AcDbLine
 10
74.446777
 20
189.932460
 30
0.0
 11
74.446777
 21
186.432340
 31
0.0
  0
LINE
  5
412
100
AcDbEntity
  8
Plate
 62
7
100
AcDbLine
 10
74.446777
 20
186.432340
 30
0.0
 11
75.259577
 21
186.432340
 31
0.0
  0
LINE
  5
413
100
AcDbEntity
  8
Plate
 62
7
100
AcDbLine
 10
75.259577
 20
186.432340
 30
0.0
 11
75.259577
 21
185.451900
 31
0.0
  0
LINE
  5
414
100
AcDbEntity
  8
Plate
 62
7
100
AcDbLine
 10
75.259577
 20
185.451900
 30
0.0
 11
89.229577
 21
185.451900
 31
0.0
  0
LINE
  5
415
100
AcDbEntity
  8
Plate
 62
7
100
AcDbLine
 10
89.229577
 20
185.451900
 30
0.0
 11
89.229577
 21
186.432340
 31
0.0
  0
LINE
  5
416
100
AcDbEntity
  8
Plate
 62
7
100
AcDbLine
 10
89.229577
 20
186.432340
 30
0.0
 11
90.042377
 21
186.432340
 31
0.0
  0
LINE
  5
417
100
AcDbEntity
  8
Plate
 62
7
100
AcDbLine
 10
90.042377
 20
186.432340
 30
0.0
 11
90.042377
 21
189.932460
 31
0.0
  0
LINE
  5
418
100
AcDbEntity
  8
Plate
 62
7
100
AcDbLine
 10
90.042377
 20
189.932460
 30
0.0
 11
89.229577
 21
189.932460
 31
0.0
  0
LINE
  5
419
100
AcDbEntity
  8
Plate
 62
7
100
AcDbLine
 10
89.229577
 20
189.932460
 30
0.0
 11
89.229577
 21
194.941340
 31
0.0
  0
LINE
  5
41a
100
AcDbEntity
  8
Plate
 62
7
100
AcDbLine
 10
89.229577
 20
194.941340
 30
0.0
 11
90.042377
 21
194.941340
 31
0.0
  0
LINE
  5
41b
100
AcDbEntity
  8
Plate
 62
7
100
AcDbLine
 10
90.042377
 20
194.941340
 30
0.0
 11
90.042377
 21
198.441464
 31
0.0
  0
LINE
  5
41c
100
AcDbEntity
  8
Plate
 62
7
100
AcDbLine
 10
90.042377
 20
198.441464
 30
0.0
 11
89.229577
 21
198.441464
 31
0.0
  0
LINE
  5
41d
100
AcDbEntity
  8
Plate
 62
7
100
AcDbLine
 10
89.229577
 20
198.441464
 30
0.0
 11
89.229577
 21
199.421904
 31
0.0
  0
LINE
  5
41e
100
AcDbEntity
  8
Plate
 62
7
100
AcDbLine
 10
89.229577
 20
199.421904
 30
0.0
 11
75.259577
 21
199.421904
 31
0.0
  0
LINE
  5
41f
100
AcDbEntity
  8
Plate
 62
7
100
AcDbLine
 10
170.509580
 20
140.366910
 30
0.0
 11
170.509580
 21
139.386460
 31
0.0
  0
LINE
  5
420
100
AcDbEntity
  8
Plate
 62
7
100
AcDbLine
 10
170.509580
 20
139.386460
 30
0.0
 11
169.696780
 21
139.386460
 31
0.0
  0
LINE
  5
421
100
AcDbEntity
  8
Plate
 62
7
100
AcDbLine
 10
169.696780
 20
139.386460
 30
0.0
 11
169.696780
 21
135.886350
 31
0.0
  0
LINE
  5
422
100
AcDbEntity
  8
Plate
 62
7
100
AcDbLine
 10
169.696780
 20
135.886350
 30
0.0
 11
170.509580
 21
135.886350
 31
0.0
  0
LINE
  5
423
100
AcDbEntity
  8
Plate
 62
7
100
AcDbLine
 10
170.509580
 20
135.886350
 30
0.0
 11
170.509580
 21
130.877470
 31
0.0
  0
LINE
  5
424
100
AcDbEntity
  8
Plate
 62
7
100
AcDbLine
 10
170.509580
 20
130.877470
 30
0.0
 11
169.696780
 21
130.877470
 31
0.0
  0
LINE
  5
425
100
AcDbEntity
  8
Plate
 62
7
100
AcDbLine
 10
169.696780
 20
130.877470
 30
0.0
 11
169.696780
 21
127.377350
 31
0.0
  0
LINE
  5
426
100
AcDbEntity
  8
Plate
 62
7
100
AcDbLine
 10
169.696780
 20
127.377350
 30
0.0
 11
170.509580
 21
127.377350
 31
0.0
  0
LINE
  5
427
100
AcDbEntity
  8
Plate
 62
7
100
AcDbLine
 10
170.509580
 20
127.377350
 30
0.0
 11
170.509580
 21
126.396910
 31
0.0
  0
LINE
  5
428
100
AcDbEntity
  8
Plate
 62
7
100
AcDbLine
 10
170.509580
 20
126.396910
 30
0.0
 11
184.479580
 21
126.396910
 31
0.0
  0
LINE
  5
429
100
AcDbEntity
  8
Plate
 62
7
100
AcDbLine
 10
184.479580
 20
126.396910
 30
0.0
 11
184.479580
 21
127.377350
 31
0.0
  0
LINE
  5
42a
100
AcDbEntity
  8
Plate
 62
7
100
AcDbLine
 10
184.479580
 20
127.377350
 30
0.0
 11
185.292380
 21
127.377350
 31
0.0
  0
LINE
  5
42b
100
AcDbEntity
  8
Plate
 62
7
100
AcDbLine
 10
185.292380
 20
127.377350
 30
0.0
 11
185.292380
 21
130.877470
 31
0.0
  0
LINE
  5
42c
100
AcDbEntity
  8
Plate
 62
7
100
AcDbLine
 10
185.292380
 20
130.877470
 30
0.0
 11
184.479580
 21
130.877470
 31
0.0
  0
LINE
  5
42d
100
AcDbEntity
  8
Plate
 62
7
100
AcDbLine
 10
184.479580
 20
130.877470
 30
0.0
 11
184.479580
 21
135.886350
 31
0.0
  0
LINE
  5
42e
100
AcDbEntity
  8
Plate
 62
7
100
AcDbLine
 10
184.479580
 20
135.886350
 30
0.0
 11
185.292380
 21
135.886350
 31
0.0
  0
LINE
  5
42f
100
AcDbEntity
  8
Plate
 62
7
100
AcDbLine
 10
185.292380
 20
135.886350
 30
0.0
 11
185.292380
 21
139.386460
 31
0.0
  0
LINE
  5
430
100
AcDbEntity
  8
Plate
 62
7
100
AcDbLine
 10
185.292380
 20
139.386460
 30
0.0
 11
184.479580
 21
139.386460
 31
0.0
  0
LINE
  5
431
100
AcDbEntity
  8
Plate
 62
7
100
AcDbLine
 10
184.479580
 20
139.386460
 30
0.0
 11
184.479580
 21
140.366910
 31
0.0
  0
LINE
  5
432
100
AcDbEntity
  8
Plate
 62
7
100
AcDbLine
 10
184.479580
 20
140.366910
 30
0.0
 11
170.509580
 21
140.366910
 31
0.0
  0
LINE
  5
433
100
AcDbEntity
  8
Plate
 62
7
100
AcDbLine
 10
56.209577
 20
152.114400
 30
0.0
 11
57.190017
 21
152.114400
 31
0.0
  0
LINE
  5
434
100
AcDbEntity
  8
Plate
 62
7
100
AcDbLine
 10
57.190017
 20
152.114400
 30
0.0
 11
57.190017
 21
151.301600
 31
0.0
  0
LINE
  5
435
100
AcDbEntity
  8
Plate
 62
7
100
AcDbLine
 10
57.190017
 20
151.301600
 30
0.0
 11
60.690137
 21
151.301600
 31
0.0
  0
LINE
  5
436
100
AcDbEntity
  8
Plate
 62
7
100
AcDbLine
 10
60.690137
 20
151.301600
 30
0.0
 11
60.690137
 21
152.114400
 31
0.0
  0
LINE
  5
437
100
AcDbEntity
  8
Plate
 62
7
100
AcDbLine
 10
60.690137
 20
152.114400
 30
0.0
 11
65.699017
 21
152.114400
 31
0.0
  0
LINE
  5
438
100
AcDbEntity
  8
Plate
 62
7
100
AcDbLine
 10
65.699017
 20
152.114400
 30
0.0
 11
65.699017
 21
151.301600
 31
0.0
  0
LINE
  5
439
100
AcDbEntity
  8
Plate
 62
7
100
AcDbLine
 10
65.699017
 20
151.301600
 30
0.0
 11
69.199137
 21
151.301600
 31
0.0
  0
LINE
  5
43a
100
AcDbEntity
  8
Plate
 62
7
100
AcDbLine
 10
69.199137
 20
151.301600
 30
0.0
 11
69.199137
 21
152.114400
 31
0.0
  0
LINE
  5
43b
100
AcDbEntity
  8
Plate
 62
7
100
AcDbLine
 10
69.199137
 20
152.114400
 30
0.0
 11
70.179577
 21
152.114400
 31
0.0
  0
LINE
  5
43c
100
AcDbEntity
  8
Plate
 62
7
100
AcDbLine
 10
70.179577
 20
152.114400
 30
0.0
 11
70.179577
 21
166.084400
 31
0.0
  0
LINE
  5
43d
100
AcDbEntity
  8
Plate
 62
7
100
AcDbLine
 10
70.179577
 20
166.084400
 30
0.0
 11
69.199137
 21
166.084400
 31
0.0
  0
LINE
  5
43e
100
AcDbEntity
  8
Plate
 62
7
100
AcDbLine
 10
69.199137
 20
166.084400
 30
0.0
 11
69.199137
 21
166.897200
 31
0.0
  0
LINE
  5
43f
100
AcDbEntity
  8
Plate
 62
7
100
AcDbLine
 10
69.199137
 20
166.897200
 30
0.0
 11
65.699017
 21
166.897200
 31
0.0
  0
LINE
  5
440
100
AcDbEntity
  8
Plate
 62
7
100
AcDbLine
 10
65.699017
 20
166.897200
 30
0.0
 11
65.699017
 21
166.084400
 31
0.0
  0
LINE
  5
441
100
AcDbEntity
  8
Plate
 62
7
100
AcDbLine
 10
65.699017
 20
166.084400
 30
0.0
 11
60.690137
 21
166.084400
 31
0.0
  0
LINE
  5
442
100
AcDbEntity
  8
Plate
 62
7
100
AcDbLine
 10
60.690137
 20
166.084400
 30
0.0
 11
60.690137
 21
166.897200
 31
0.0
  0
LINE
  5
443
100
AcDbEntity
  8
Plate
 62
7
100
AcDbLine
 10
60.690137
 20
166.897200
 30
0.0
 11
57.190017
 21
166.897200
 31
0.0
  0
LINE
  5
444
100
AcDbEntity
  8
Plate
 62
7
100
AcDbLine
 10
57.190017
 20
166.897200
 30
0.0
 11
57.190017
 21
166.084400
 31
0.0
  0
LINE
  5
445
100
AcDbEntity
  8
Plate
 62
7
100
AcDbLine
 10
57.190017
 20
166.084400
 30
0.0
 11
56.209577
 21
166.084400
 31
0.0
  0
LINE
  5
446
100
AcDbEntity
  8
Plate
 62
7
100
AcDbLine
 10
56.209577
 20
166.084400
 30
0.0
 11
56.209577
 21
152.114400
 31
0.0
  0
LINE
  5
447
100
AcDbEntity
  8
Plate
 62
7
100
AcDbLine
 10
56.209577
 20
180.689400
 30
0.0
 11
57.190017
 21
180.689400
 31
0.0
  0
LINE
  5
448
100
AcDbEntity
  8
Plate
 62
7
100
AcDbLine
 10
57.190017
 20
180.689400
 30
0.0
 11
57.190017
 21
179.876600
 31
0.0
  0
LINE
  5
449
100
AcDbEntity
  8
Plate
 62
7
100
AcDbLine
 10
57.190017
 20
179.876600
 30
0.0
 11
60.690137
 21
179.876600
 31
0.0
  0
LINE
  5
44a
100
AcDbEntity
  8
Plate
 62
7
100
AcDbLine
 10
60.690137
 20
179.876600
 30
0.0
 11
60.690137
 21
180.689400
 31
0.0
  0
LINE
  5
44b
100
AcDbEntity
  8
Plate
 62
7
100
AcDbLine
 10
60.690137
 20
180.689400
 30
0.0
 11
65.699017
 21
180.689400
 31
0.0
  0
LINE
  5
44c
100
AcDbEntity
  8
Plate
 62
7
100
AcDbLine
 10
65.699017
 20
180.689400
 30
0.0
 11
65.699017
 21
179.876600
 31
0.0
  0
LINE
  5
44d
100
AcDbEntity
  8
Plate
 62
7
100
AcDbLine
 10
65.699017
 20
179.876600
 30
0.0
 11
69.199137
 21
179.876600
 31
0.0
  0
LINE
  5
44e
100
AcDbEntity
  8
Plate
 62
7
100
AcDbLine
 10
69.199137
 20
179.876600
 30
0.0
 11
69.199137
 21
180.689400
 31
0.0
  0
LINE
  5
44f
100
AcDbEntity
  8
Plate
 62
7
100
AcDbLine
 10
69.199137
 20
180.689400
 30
0.0
 11
70.179577
 21
180.689400
 31
0.0
  0
LINE
  5
450
100
AcDbEntity
  8
Plate
 62
7
100
AcDbLine
 10
70.179577
 20
180.689400
 30
0.0
 11
70.179577
 21
194.659400
 31
0.0
  0
LINE
  5
451
100
AcDbEntity
  8
Plate
 62
7
100
AcDbLine
 10
70.179577
 20
194.659400
 30
0.0
 11
69.199137
 21
194.659400
 31
0.0
  0
LINE
  5
452
100
AcDbEntity
  8
Plate
 62
7
100
AcDbLine
 10
69.199137
 20
194.659400
 30
0.0
 11
69.199137
 21
195.472200
 31
0.0
  0
LINE
  5
453
100
AcDbEntity
  8
Plate
 62
7
100
AcDbLine
 10
69.199137
 20
195.472200
 30
0.0
 11
65.699017
 21
195.472200
 31
0.0
  0
LINE
  5
454
100
AcDbEntity
  8
Plate
 62
7
100
AcDbLine
 10
65.699017
 20
195.472200
 30
0.0
 11
65.699017
 21
194.659400
 31
0.0
  0
LINE
  5
455
100
AcDbEntity
  8
Plate
 62
7
100
AcDbLine
 10
65.699017
 20
194.659400
 30
0.0
 11
60.690137
 21
194.659400
 31
0.0
  0
LINE
  5
456
100
AcDbEntity
  8
Plate
 62
7
100
AcDbLine
 10
60.690137
 20
194.659400
 30
0.0
 11
60.690137
 21
195.472200
 31
0.0
  0
LINE
  5
457
100
AcDbEntity
  8
Plate
 62
7
100
AcDbLine
 10
60.690137
 20
195.472200
 30
0.0
 11
57.190017
 21
195.472200
 31
0.0
  0
LINE
  5
458
100
AcDbEntity
  8
Plate
 62
7
100
AcDbLine
 10
57.190017
 20
195.472200
 30
0.0
 11
57.190017
 21
194.659400
 31
0.0
  0
LINE
  5
459
100
AcDbEntity
  8
Plate
 62
7
100
AcDbLine
 10
57.190017
 20
194.659400
 30
0.0
 11
56.209577
 21
194.659400
 31
0.0
  0
LINE
  5
45a
100
AcDbEntity
  8
Plate
 62
7
100
AcDbLine
 10
56.209577
 20
194.659400
 30
0.0
 11
56.209577
 21
180.689400
 31
0.0
  0
ENDSEC
  0
SECTION
  2
OBJECTS
  0
DICTIONARY
  5
C
330
0
100
AcDbDictionary
  3
ACAD_GROUP
350
D
  3
ACAD_MLINESTYLE
350
17
  0
DICTIONARY
  5
D
330
C
100
AcDbDictionary
  0
DICTIONARY
  5
1A
330
C
100
AcDbDictionary
  0
DICTIONARY
  5
17
330
C
100
AcDbDictionary
  3
STANDARD
350
18
  0
DICTIONARY
  5
19
330
C
100
AcDbDictionary
  0
ENDSEC
  0
EOF
