<?xml version="1.0" encoding="UTF-8" standalone="no"?>
<!-- Created with Inkscape (http://www.inkscape.org/) -->

<svg
   xmlns:dc="http://purl.org/dc/elements/1.1/"
   xmlns:cc="http://creativecommons.org/ns#"
   xmlns:rdf="http://www.w3.org/1999/02/22-rdf-syntax-ns#"
   xmlns:svg="http://www.w3.org/2000/svg"
   xmlns="http://www.w3.org/2000/svg"
   xmlns:sodipodi="http://sodipodi.sourceforge.net/DTD/sodipodi-0.dtd"
   xmlns:inkscape="http://www.inkscape.org/namespaces/inkscape"
   width="210mm"
   height="297mm"
   viewBox="0 0 210 297"
   version="1.1"
   id="svg1557"
   inkscape:version="0.92.3 (2405546, 2018-03-11)"
   sodipodi:docname="plate_left_temp.svg">
  <defs
     id="defs1551" />
  <sodipodi:namedview
     id="base"
     pagecolor="#ffffff"
     bordercolor="#666666"
     borderopacity="1.0"
     inkscape:pageopacity="0.0"
     inkscape:pageshadow="2"
     inkscape:zoom="0.98994949"
     inkscape:cx="333.46232"
     inkscape:cy="737.23901"
     inkscape:document-units="mm"
     inkscape:current-layer="layer1"
     showgrid="false"
     inkscape:window-width="1366"
     inkscape:window-height="705"
     inkscape:window-x="-8"
     inkscape:window-y="-8"
     inkscape:window-maximized="1" />
  <metadata
     id="metadata1554">
    <rdf:RDF>
      <cc:Work
         rdf:about="">
        <dc:format>image/svg+xml</dc:format>
        <dc:type
           rdf:resource="http://purl.org/dc/dcmitype/StillImage" />
        <dc:title></dc:title>
      </cc:Work>
    </rdf:RDF>
  </metadata>
  <g
     inkscape:label="Layer 1"
     inkscape:groupmode="layer"
     id="layer1">
    <path
       sodipodi:nodetypes="cccccccccccccccsssccssssssscccccccccccccccccccc"
       inkscape:connector-curvature="0"
       d="m 88.47112,57.432957 h 11.81384 13.81823 12.47616 v -2.500001 h 2.70822 l 0.006,-0.971613 v 0 L 115.4134,48.319159 H 99.59614 l -8.37175,6.17135 h -2.77217 m -13.91884,-5e-6 h -3.9927 l -5.62535,-6.17135 -53.37295,9.5e-5 c -3.866,0 -7,3.134006 -7,6.999999 V 179.74925 c 0,3.866 3.134,7 7,7 h 77.13275 c 1.02102,0.009 2.0288,0.23198 2.95782,0.65561 l 79.56798,37.09539 c 3.50372,1.63346 7.66824,0.1175 9.30198,-3.38608 l 25.96436,-55.68129 c 1.63386,-3.50386 0.11786,-7.6688 -3.38605,-9.30256 L 169.67099,140.5522 c -2.46565,-1.14965 -4.04188,-3.62375 -4.04188,-6.34425 V 55.319253 c 0,-3.865993 -3.13401,-6.999999 -7,-6.999999 l -8.11296,-9.5e-5 -13.8797,5.642184 v 0 l 0.0101,0.971613 h 2.70357 v 3.542816 h 2.99634 l -8e-4,7.959111 -0.0103,-0.0019 V 76.917604 H 114.07808 100.3054 l 0.0448,0.0038 H 60.13108 v 0.01159 H 13.32344 l -0.0135,-19.5 h 61.22342"
       style="fill:none;stroke:#000000;stroke-width:0.26458332;stroke-linecap:round"
       id="path5993" />
    <path
       inkscape:connector-curvature="0"
       d="m 156.88632,54.58313 a 2.47256,2.47256 0 1 1 4.94512,0 2.47256,2.47256 0 1 1 -4.94512,0 z"
       style="fill:none;stroke:#000000;stroke-width:0.43613192;stroke-linecap:round"
       id="path5997" />
    <path
       inkscape:connector-curvature="0"
       d="m 103.40305,52.764254 a 2.47256,2.47256 0 1 1 4.94512,0 2.47256,2.47256 0 1 1 -4.94512,0 z"
       style="fill:none;stroke:#000000;stroke-width:0.43613192;stroke-linecap:round"
       id="path5999" />
    <path
       style="fill:none;stroke:#000000;stroke-width:0.43506894;stroke-linecap:round"
       d="m 10.872175,52.107224 a 2.4665328,2.4665328 0 0 0 -2.5322404,2.471904 2.4665328,2.4665328 0 1 0 4.9327664,0 2.4665328,2.4665328 0 0 0 -2.400526,-2.471904 z"
       id="path6001"
       inkscape:connector-curvature="0" />
    <path
       inkscape:connector-curvature="0"
       d="m 8.3359051,178.89788 a 2.470288,2.470288 0 1 1 4.9405599,0 2.470288,2.470288 0 1 1 -4.9405599,0 z"
       style="fill:none;stroke:#000000;stroke-width:0.43573135;stroke-linecap:round"
       id="path6003" />
    <path
       inkscape:connector-curvature="0"
       d="m 88.73963,182.30425 a 2.47256,2.47256 0 1 1 4.94512,0 2.47256,2.47256 0 1 1 -4.94512,0 z"
       style="fill:none;stroke:#000000;stroke-width:0.43613192;stroke-linecap:round"
       id="path6005" />
    <path
       inkscape:connector-curvature="0"
       d="m 172.04184,219.13485 a 2.472565,2.472565 0 1 1 4.94513,0 2.472565,2.472565 0 1 1 -4.94513,0 z"
       style="fill:none;stroke:#000000;stroke-width:0.43613136;stroke-linecap:round"
       id="path6007" />
    <path
       inkscape:connector-curvature="0"
       d="m 198.62832,162.11881 a 2.47252,2.47252 0 1 1 4.94504,0 2.47252,2.47252 0 1 1 -4.94504,0 z"
       style="fill:none;stroke:#000000;stroke-width:0.43612465;stroke-linecap:round"
       id="path6009" />
    <path
       style="fill:none;stroke:#000000;stroke-width:0.26458332px;stroke-linecap:butt;stroke-linejoin:miter;stroke-opacity:1"
       d="m 74.533378,54.490503 13.91884,5e-6"
       id="path1657"
       inkscape:connector-curvature="0" />
    <path
       style="fill:none;stroke:#000000;stroke-width:0.26458332px;stroke-linecap:butt;stroke-linejoin:miter;stroke-opacity:1"
       d="m 74.53336,57.432992 13.93776,-3.7e-5"
       id="path1659"
       inkscape:connector-curvature="0" />
    <g
       transform="matrix(-1,0,0,1,210.35488,20.401497)"
       style="display:inline"
       id="g9893">
      <polygon
         id="polygon8983"
         style="fill:none;stroke:#000000;stroke-width:0.26499999;stroke-miterlimit:4;stroke-dasharray:none"
         points="6.726,8.126 6.726,20.926 22.326,20.926 22.326,8.126 "
         transform="translate(48.85373,55.138859)" />
      <polygon
         id="polygon8983-0"
         style="fill:none;stroke:#000000;stroke-width:0.26499999;stroke-miterlimit:4;stroke-dasharray:none"
         points="6.726,8.126 6.726,20.926 22.326,20.926 22.326,8.126 "
         transform="translate(67.90373,55.138859)" />
      <polygon
         id="polygon8983-6"
         style="fill:none;stroke:#000000;stroke-width:0.26499999;stroke-miterlimit:4;stroke-dasharray:none"
         points="6.726,8.126 6.726,20.926 22.326,20.926 22.326,8.126 "
         transform="translate(86.95373,53.866319)" />
      <polygon
         id="polygon8983-1"
         style="fill:none;stroke:#000000;stroke-width:0.26499999;stroke-miterlimit:4;stroke-dasharray:none"
         points="6.726,8.126 6.726,20.926 22.326,20.926 22.326,8.126 "
         transform="translate(106.00373,52.268659)" />
      <polygon
         id="polygon8983-60"
         style="fill:none;stroke:#000000;stroke-width:0.26499999;stroke-miterlimit:4;stroke-dasharray:none"
         points="6.726,8.126 6.726,20.926 22.326,20.926 22.326,8.126 "
         transform="translate(125.05373,53.866319)" />
      <polygon
         id="polygon8983-2"
         style="fill:none;stroke:#000000;stroke-width:0.26499999;stroke-miterlimit:4;stroke-dasharray:none"
         points="6.726,8.126 6.726,20.926 22.326,20.926 22.326,8.126 "
         transform="translate(144.10373,57.043859)" />
      <polygon
         id="polygon8983-3"
         style="fill:none;stroke:#000000;stroke-width:0.26499999;stroke-miterlimit:4;stroke-dasharray:none"
         points="6.726,8.126 6.726,20.926 22.326,20.926 22.326,8.126 "
         transform="translate(167.91623,57.043859)" />
      <polygon
         id="polygon8983-9"
         style="fill:none;stroke:#000000;stroke-width:0.26499999;stroke-miterlimit:4;stroke-dasharray:none"
         points="6.726,8.126 6.726,20.926 22.326,20.926 22.326,8.126 "
         transform="translate(167.91623,76.091323)" />
      <polygon
         id="polygon8983-4"
         style="fill:none;stroke:#000000;stroke-width:0.26499999;stroke-miterlimit:4;stroke-dasharray:none"
         points="6.726,8.126 6.726,20.926 22.326,20.926 22.326,8.126 "
         transform="translate(144.10373,76.091323)" />
      <polygon
         id="polygon8983-62"
         style="fill:none;stroke:#000000;stroke-width:0.26499999;stroke-miterlimit:4;stroke-dasharray:none"
         points="6.726,8.126 6.726,20.926 22.326,20.926 22.326,8.126 "
         transform="translate(125.05373,72.916323)" />
      <polygon
         id="polygon8983-28"
         style="fill:none;stroke:#000000;stroke-width:0.26499999;stroke-miterlimit:4;stroke-dasharray:none"
         points="6.726,8.126 6.726,20.926 22.326,20.926 22.326,8.126 "
         transform="translate(106.00373,71.318659)" />
      <polygon
         id="polygon8983-8"
         style="fill:none;stroke:#000000;stroke-width:0.26499999;stroke-miterlimit:4;stroke-dasharray:none"
         points="6.726,8.126 6.726,20.926 22.326,20.926 22.326,8.126 "
         transform="translate(86.95373,72.916323)" />
      <polygon
         id="polygon8983-03"
         style="fill:none;stroke:#000000;stroke-width:0.26499999;stroke-miterlimit:4;stroke-dasharray:none"
         points="6.726,8.126 6.726,20.926 22.326,20.926 22.326,8.126 "
         transform="translate(67.90373,74.186323)" />
      <polygon
         id="polygon8983-38"
         style="fill:none;stroke:#000000;stroke-width:0.26499999;stroke-miterlimit:4;stroke-dasharray:none"
         points="6.726,20.926 22.326,20.926 22.326,8.126 6.726,8.126 "
         transform="rotate(90,-0.5215515,78.427277)" />
      <polygon
         id="polygon8983-43"
         style="fill:none;stroke:#000000;stroke-width:0.26499999;stroke-miterlimit:4;stroke-dasharray:none"
         points="6.726,8.126 6.726,20.926 22.326,20.926 22.326,8.126 "
         transform="translate(67.90373,93.236323)" />
      <polygon
         id="polygon8983-21"
         style="fill:none;stroke:#000000;stroke-width:0.26499999;stroke-miterlimit:4;stroke-dasharray:none"
         points="6.726,8.126 6.726,20.926 22.326,20.926 22.326,8.126 "
         transform="translate(86.95373,91.966323)" />
      <polygon
         id="polygon8983-5"
         style="fill:none;stroke:#000000;stroke-width:0.26499999;stroke-miterlimit:4;stroke-dasharray:none"
         points="6.726,8.126 6.726,20.926 22.326,20.926 22.326,8.126 "
         transform="translate(106.00373,90.368663)" />
      <polygon
         id="polygon8983-15"
         style="fill:none;stroke:#000000;stroke-width:0.26499999;stroke-miterlimit:4;stroke-dasharray:none"
         points="6.726,8.126 6.726,20.926 22.326,20.926 22.326,8.126 "
         transform="translate(125.05373,91.966323)" />
      <polygon
         id="polygon8983-7"
         style="fill:none;stroke:#000000;stroke-width:0.26499999;stroke-miterlimit:4;stroke-dasharray:none"
         points="6.726,8.126 6.726,20.926 22.326,20.926 22.326,8.126 "
         transform="translate(144.10373,95.141323)" />
      <polygon
         id="polygon8983-58"
         style="fill:none;stroke:#000000;stroke-width:0.26499999;stroke-miterlimit:4;stroke-dasharray:none"
         points="6.726,8.126 6.726,20.926 22.326,20.926 22.326,8.126 "
         transform="translate(167.91623,95.141323)" />
      <polygon
         id="polygon8983-41"
         style="fill:none;stroke:#000000;stroke-width:0.26499999;stroke-miterlimit:4;stroke-dasharray:none"
         points="6.726,8.126 6.726,20.926 22.326,20.926 22.326,8.126 "
         transform="translate(167.91623,114.19132)" />
      <polygon
         id="polygon8983-69"
         style="fill:none;stroke:#000000;stroke-width:0.26499999;stroke-miterlimit:4;stroke-dasharray:none"
         points="6.726,8.126 6.726,20.926 22.326,20.926 22.326,8.126 "
         transform="translate(144.10373,114.19132)" />
      <polygon
         id="polygon8983-81"
         style="fill:none;stroke:#000000;stroke-width:0.26499999;stroke-miterlimit:4;stroke-dasharray:none"
         points="6.726,8.126 6.726,20.926 22.326,20.926 22.326,8.126 "
         transform="translate(125.05373,111.01632)" />
      <polygon
         id="polygon8983-73"
         style="fill:none;stroke:#000000;stroke-width:0.26499999;stroke-miterlimit:4;stroke-dasharray:none"
         points="6.726,8.126 6.726,20.926 22.326,20.926 22.326,8.126 "
         transform="translate(106.00373,109.41866)" />
      <polygon
         id="polygon8983-56"
         style="fill:none;stroke:#000000;stroke-width:0.26499999;stroke-miterlimit:4;stroke-dasharray:none"
         points="6.726,8.126 6.726,20.926 22.326,20.926 22.326,8.126 "
         transform="translate(86.95373,111.01632)" />
      <polygon
         id="polygon8983-66"
         style="fill:none;stroke:#000000;stroke-width:0.26499999;stroke-miterlimit:4;stroke-dasharray:none"
         points="6.726,8.126 6.726,20.926 22.326,20.926 22.326,8.126 "
         transform="translate(67.90373,112.28632)" />
      <polygon
         id="polygon8983-72"
         style="fill:none;stroke:#000000;stroke-width:0.26499999;stroke-miterlimit:4;stroke-dasharray:none"
         points="6.726,20.926 22.326,20.926 22.326,8.126 6.726,8.126 "
         transform="rotate(90,-14.809052,92.714777)" />
      <polygon
         id="polygon8983-68"
         style="fill:none;stroke:#000000;stroke-width:0.26499999;stroke-miterlimit:4;stroke-dasharray:none"
         points="6.726,20.926 22.326,20.926 22.326,8.126 6.726,8.126 "
         transform="translate(86.95373,130.06631)" />
      <polygon
         id="polygon8983-04"
         style="fill:none;stroke:#000000;stroke-width:0.26499999;stroke-miterlimit:4;stroke-dasharray:none"
         points="6.726,8.126 6.726,20.926 22.326,20.926 22.326,8.126 "
         transform="translate(106.00373,128.46865)" />
      <polygon
         id="polygon8983-02"
         style="fill:none;stroke:#000000;stroke-width:0.26499999;stroke-miterlimit:4;stroke-dasharray:none"
         points="6.726,8.126 6.726,20.926 22.326,20.926 22.326,8.126 "
         transform="translate(125.05373,130.06631)" />
      <polygon
         id="polygon8983-55"
         style="fill:none;stroke:#000000;stroke-width:0.26499999;stroke-miterlimit:4;stroke-dasharray:none"
         points="6.726,8.126 6.726,20.926 22.326,20.926 22.326,8.126 "
         transform="translate(144.10373,133.24131)" />
      <polygon
         id="polygon8983-86"
         style="fill:none;stroke:#000000;stroke-width:0.26499999;stroke-miterlimit:4;stroke-dasharray:none"
         points="6.726,8.126 6.726,20.926 22.326,20.926 22.326,8.126 "
         transform="translate(163.15373,133.24131)" />
      <polygon
         id="polygon8983-50"
         style="fill:none;stroke:#000000;stroke-width:0.26499999;stroke-miterlimit:4;stroke-dasharray:none"
         points="6.726,20.926 22.326,20.926 22.326,8.126 6.726,8.126 "
         transform="rotate(-25,320.77486,55.98916)" />
      <polygon
         id="polygon8983-50-0"
         style="display:inline;fill:none;stroke:#000000;stroke-width:0.26499999;stroke-miterlimit:4;stroke-dasharray:none"
         points="22.326,20.926 22.326,8.126 6.726,8.126 6.726,20.926 "
         transform="rotate(-25,311.25312,13.02724)" />
      <polygon
         id="polygon8983-50-9"
         style="display:inline;fill:none;stroke:#000000;stroke-width:0.26499999;stroke-miterlimit:4;stroke-dasharray:none"
         points="22.326,20.926 22.326,8.126 6.726,8.126 6.726,20.926 "
         transform="rotate(-25,363.73681,46.46742)" />
      <polygon
         id="polygon8983-50-8"
         style="display:inline;fill:none;stroke:#000000;stroke-width:0.26499999;stroke-miterlimit:4;stroke-dasharray:none"
         points="22.326,20.926 22.326,8.126 6.726,8.126 6.726,20.926 "
         transform="rotate(-25,406.7057,36.94122)" />
      <polygon
         id="polygon8983-50-95"
         style="display:inline;fill:none;stroke:#000000;stroke-width:0.26499999;stroke-miterlimit:4;stroke-dasharray:none"
         points="6.726,8.126 6.726,20.926 22.326,20.926 22.326,8.126 "
         transform="rotate(-115,89.007534,67.662935)" />
      <polygon
         id="polygon8983-50-95-7"
         style="display:inline;fill:none;stroke:#000000;stroke-width:0.26499999;stroke-miterlimit:4;stroke-dasharray:none"
         points="6.726,20.926 22.326,20.926 22.326,8.126 6.726,8.126 "
         transform="rotate(-115,82.930474,77.202135)" />
    </g>
  </g>
</svg>
