<?xml version="1.0" encoding="UTF-8" standalone="no"?>
<!-- Created with Inkscape (http://www.inkscape.org/) -->

<svg
   xmlns:dc="http://purl.org/dc/elements/1.1/"
   xmlns:cc="http://creativecommons.org/ns#"
   xmlns:rdf="http://www.w3.org/1999/02/22-rdf-syntax-ns#"
   xmlns:svg="http://www.w3.org/2000/svg"
   xmlns="http://www.w3.org/2000/svg"
   xmlns:sodipodi="http://sodipodi.sourceforge.net/DTD/sodipodi-0.dtd"
   xmlns:inkscape="http://www.inkscape.org/namespaces/inkscape"
   width="210mm"
   height="297mm"
   viewBox="0 0 210 297"
   version="1.1"
   id="svg1557"
   inkscape:version="0.92.3 (2405546, 2018-03-11)"
   sodipodi:docname="plate_left.svg">
  <defs
     id="defs1551" />
  <sodipodi:namedview
     id="base"
     pagecolor="#ffffff"
     bordercolor="#666666"
     borderopacity="1.0"
     inkscape:pageopacity="0.0"
     inkscape:pageshadow="2"
     inkscape:zoom="3.44"
     inkscape:cx="512.97933"
     inkscape:cy="888.03493"
     inkscape:document-units="mm"
     inkscape:current-layer="layer1"
     showgrid="false"
     inkscape:window-width="1366"
     inkscape:window-height="705"
     inkscape:window-x="-8"
     inkscape:window-y="-8"
     inkscape:window-maximized="1" />
  <metadata
     id="metadata1554">
    <rdf:RDF>
      <cc:Work
         rdf:about="">
        <dc:format>image/svg+xml</dc:format>
        <dc:type
           rdf:resource="http://purl.org/dc/dcmitype/StillImage" />
        <dc:title />
      </cc:Work>
    </rdf:RDF>
  </metadata>
  <g
     inkscape:label="Layer 1"
     inkscape:groupmode="layer"
     id="layer1">
    <path
       sodipodi:nodetypes="ccccccccsssccsssssssccccccccccccccccccc"
       inkscape:connector-curvature="0"
       d="m 64.91533,48.319151 -53.37295,9.5e-5 c -3.866,0 -7,3.134006 -7,6.999999 V 179.74925 c 0,3.866 3.134,7 7,7 h 77.13275 c 1.02102,0.009 2.0288,0.23198 2.95782,0.65561 l 79.56798,37.09539 c 3.50372,1.63346 7.66824,0.1175 9.30198,-3.38608 l 25.96436,-55.68129 c 1.63386,-3.50386 0.11786,-7.6688 -3.38605,-9.30256 L 169.67099,140.5522 c -2.46565,-1.14965 -4.04188,-3.62375 -4.04188,-6.34425 V 55.319253 c 0,-3.865993 -3.13401,-6.999999 -7,-6.999999 l -8.11296,-9.5e-5 -13.8797,5.642184 v 0 l 0.0101,0.971613 h 2.70357 v 3.542816 0 l -0.045,5.94492 v 0 M 64.357589,76.921404 H 60.13108 v 0.01159 H 13.32344 l -0.0135,-19.5 H 64.347974 M 99.59614,48.319159 h 15.81726 l 13.88017,5.642184 v 0 l -0.006,0.971613 h -2.70822 v 2.500001 10.70974 l 12.72577,0.05439"
       style="fill:none;stroke:#000000;stroke-width:0.26458332;stroke-linecap:round"
       id="path5993" />
    <path
       inkscape:connector-curvature="0"
       d="m 139.97515,84.046796 v -0.98044 h 13.97 v 0.98044 h 0.8128 v 3.500122 h -0.8128 v 5.00888 h 0.8128 v 3.500118 h -0.8128 v 0.98044 h -13.97 v -0.98044 h -0.8128 v -3.500118 h 0.8128 v -5.00888 h -0.8128 v -3.500122 z"
       style="fill:none;stroke:#000000;stroke-width:0.26458332;stroke-linecap:round"
       id="path5995"
       sodipodi:nodetypes="ccccccccccccccccccccc" />
    <path
       inkscape:connector-curvature="0"
       d="m 156.88632,54.58313 c 0,-3.296746 4.94512,-3.296746 4.94512,0 0,3.296745 -4.94512,3.296745 -4.94512,0 z"
       style="fill:none;stroke:#000000;stroke-width:0.43613192;stroke-linecap:round"
       id="path5997"
       sodipodi:nodetypes="sss" />
    <path
       inkscape:connector-curvature="0"
       d="m 103.40305,52.764254 c 0,-3.296745 4.94512,-3.296745 4.94512,0 0,3.296745 -4.94512,3.296745 -4.94512,0 z"
       style="fill:none;stroke:#000000;stroke-width:0.43613192;stroke-linecap:round"
       id="path5999"
       sodipodi:nodetypes="sss" />
    <path
       style="fill:none;stroke:#000000;stroke-width:0.43506894;stroke-linecap:round"
       d="m 10.872175,52.107224 c -1.3899266,-0.03704 -2.5357618,1.081488 -2.5322404,2.471904 -0.036622,3.32493 4.9693884,3.32493 4.9327664,0 0.0034,-1.338947 -1.062054,-2.436077 -2.400526,-2.471904 z"
       id="path6001"
       inkscape:connector-curvature="0"
       sodipodi:nodetypes="cccc" />
    <path
       inkscape:connector-curvature="0"
       d="m 8.3359051,178.89788 c -0.00843,-3.30212 4.9489899,-3.30212 4.9405599,0 0.0084,3.30212 -4.94899,3.30212 -4.9405599,0 z"
       style="fill:none;stroke:#000000;stroke-width:0.43573135;stroke-linecap:round"
       id="path6003"
       sodipodi:nodetypes="ccc" />
    <path
       inkscape:connector-curvature="0"
       d="m 88.73963,182.30425 c 0,-3.29675 4.94512,-3.29675 4.94512,0 0,3.29675 -4.94512,3.29675 -4.94512,0 z"
       style="fill:none;stroke:#000000;stroke-width:0.43613192;stroke-linecap:round"
       id="path6005"
       sodipodi:nodetypes="sss" />
    <path
       inkscape:connector-curvature="0"
       d="m 172.04184,219.13485 c 0,-3.29675 4.94513,-3.29675 4.94513,0 0,3.29675 -4.94513,3.29675 -4.94513,0 z"
       style="fill:none;stroke:#000000;stroke-width:0.43613136;stroke-linecap:round"
       id="path6007"
       sodipodi:nodetypes="sss" />
    <path
       inkscape:connector-curvature="0"
       d="m 198.62832,162.11881 c 0,-3.29669 4.94504,-3.29669 4.94504,0 0,3.29669 -4.94504,3.29669 -4.94504,0 z"
       style="fill:none;stroke:#000000;stroke-width:0.43612465;stroke-linecap:round"
       id="path6009"
       sodipodi:nodetypes="sss" />
    <path
       inkscape:connector-curvature="0"
       d="m 34.88265,142.11882 v 0.98044 h 0.8128 v 3.50012 h -0.8128 v 5.00887 h 0.8128 v 3.50012 h -0.8128 v 0.98044 h -13.97 v -0.98044 h -0.8128 v -3.50012 h 0.8128 v -5.00887 h -0.8128 v -3.50012 h 0.8128 v -0.98044 z"
       style="fill:none;stroke:#000000;stroke-width:0.26458332;stroke-linecap:round"
       id="path6025"
       sodipodi:nodetypes="ccccccccccccccccccccc" />
    <path
       inkscape:connector-curvature="0"
       d="m 34.88265,123.06882 v 0.98044 h 0.8128 v 3.50012 h -0.8128 v 5.00888 h 0.8128 v 3.50012 h -0.8128 v 0.98044 h -13.97 v -0.98044 h -0.8128 v -3.50012 h 0.8128 v -5.00888 h -0.8128 v -3.50012 h 0.8128 v -0.98044 z"
       style="fill:none;stroke:#000000;stroke-width:0.26458332;stroke-linecap:round"
       id="path6027"
       sodipodi:nodetypes="ccccccccccccccccccccc" />
    <path
       inkscape:connector-curvature="0"
       d="m 34.88265,104.01882 v 0.98044 h 0.8128 v 3.50012 h -0.8128 v 5.00888 h 0.8128 v 3.50012 h -0.8128 v 0.98044 h -13.97 v -0.98044 h -0.8128 v -3.50012 h 0.8128 v -5.00888 h -0.8128 v -3.50012 h 0.8128 v -0.98044 z"
       style="fill:none;stroke:#000000;stroke-width:0.26458332;stroke-linecap:round"
       id="path6029"
       sodipodi:nodetypes="ccccccccccccccccccccc" />
    <path
       inkscape:connector-curvature="0"
       d="m 34.88265,84.971356 v 0.98044 h 0.8128 v 3.50012 h -0.8128 v 5.00888 h 0.8128 v 3.500122 h -0.8128 v 0.980438 h -13.97 v -0.980438 h -0.8128 v -3.500122 h 0.8128 v -5.00888 h -0.8128 v -3.50012 h 0.8128 v -0.98044 z"
       style="fill:none;stroke:#000000;stroke-width:0.26458332;stroke-linecap:round"
       id="path6031"
       sodipodi:nodetypes="ccccccccccccccccccccc" />
    <path
       inkscape:connector-curvature="0"
       d="m 134.89515,83.066356 v 0.98044 h 0.8128 v 3.500122 h -0.8128 v 5.00888 h 0.8128 v 3.500118 h -0.8128 v 0.98044 h -13.97 v -0.98044 h -0.8128 v -3.500118 h 0.8128 v -5.00888 h -0.8128 v -3.500122 h 0.8128 v -0.98044 z"
       style="fill:none;stroke:#000000;stroke-width:0.26458332;stroke-linecap:round"
       id="path6033"
       sodipodi:nodetypes="ccccccccccccccccccccc" />
    <path
       inkscape:connector-curvature="0"
       d="m 77.74515,100.84382 v 0.98044 h 0.8128 v 3.50012 h -0.8128 v 5.00888 h 0.8128 v 3.50012 h -0.8128 v 0.98044 h -13.97 v -0.98044 h -0.8128 v -3.50012 h 0.8128 v -5.00888 h -0.8128 v -3.50012 h 0.8128 v -0.98044 z"
       style="fill:none;stroke:#000000;stroke-width:0.26458332;stroke-linecap:round"
       id="path6035"
       sodipodi:nodetypes="ccccccccccccccccccccc" />
    <path
       inkscape:connector-curvature="0"
       d="m 158.68987,195.35213 -0.889,-0.41656 -0.3429,0.7366 -3.17246,-1.47827 0.3429,-0.7366 -4.53898,-2.11582 -0.3429,0.7366 -3.17246,-1.48083 0.3429,-0.7366 -0.889,-0.41401 5.9055,-12.6619 0.889,0.41655 0.3429,-0.7366 3.17246,1.47829 -0.3429,0.7366 4.53898,2.11582 0.3429,-0.73661 3.17246,1.48082 -0.3429,0.7366 0.889,0.41402 z"
       style="fill:none;stroke:#000000;stroke-width:0.26458332;stroke-linecap:round"
       id="path6037"
       sodipodi:nodetypes="ccccccccccccccccccccc" />
    <path
       inkscape:connector-curvature="0"
       d="m 141.42549,187.30034 -0.889,-0.41657 -0.3429,0.7366 -3.17246,-1.47827 0.3429,-0.7366 -4.53898,-2.11582 -0.3429,0.73659 -3.17246,-1.48082 0.3429,-0.7366 -0.889,-0.41402 5.9055,-12.6619 0.889,0.41656 0.3429,-0.7366 3.17246,1.47829 -0.3429,0.7366 4.53898,2.11582 0.3429,-0.7366 3.17246,1.48081 -0.3429,0.7366 0.889,0.41403 z"
       style="fill:none;stroke:#000000;stroke-width:0.26458332;stroke-linecap:round"
       id="path6039"
       sodipodi:nodetypes="ccccccccccccccccccccc" />
    <path
       inkscape:connector-curvature="0"
       d="m 115.84515,157.99381 v 0.98045 h 0.8128 v 3.50011 h -0.8128 v 5.00888 h 0.8128 v 3.50012 h -0.8128 v 0.98044 h -13.97 v -0.98044 h -0.8128 v -3.50012 h 0.8128 v -5.00888 h -0.8128 v -3.50011 h 0.8128 v -0.98045 z"
       style="fill:none;stroke:#000000;stroke-width:0.26458332;stroke-linecap:round"
       id="path6041"
       sodipodi:nodetypes="ccccccccccccccccccccc" />
    <path
       inkscape:connector-curvature="0"
       d="m 96.79515,156.39615 v 0.98044 h 0.8128 v 3.50012 h -0.8128 v 5.00888 h 0.8128 v 3.50013 h -0.8128 v 0.98044 h -13.97 v -0.98044 h -0.8128 v -3.50013 h 0.8128 v -5.00888 h -0.8128 v -3.50012 h 0.8128 v -0.98044 z"
       style="fill:none;stroke:#000000;stroke-width:0.26458332;stroke-linecap:round"
       id="path6043"
       sodipodi:nodetypes="ccccccccccccccccccccc" />
    <path
       inkscape:connector-curvature="0"
       d="m 58.69515,161.16881 v 0.98045 h 0.8128 v 3.50011 h -0.8128 v 5.00888 h 0.8128 v 3.50012 h -0.8128 v 0.98044 h -13.97 v -0.98044 h -0.8128 v -3.50012 h 0.8128 v -5.00888 h -0.8128 v -3.50011 h 0.8128 v -0.98045 z"
       style="fill:none;stroke:#000000;stroke-width:0.26458332;stroke-linecap:round"
       id="path6045"
       sodipodi:nodetypes="ccccccccccccccccccccc" />
    <path
       inkscape:connector-curvature="0"
       d="m 134.89515,140.21382 v 0.98044 h 0.8128 v 3.50012 h -0.8128 v 5.00888 h 0.8128 v 3.50012 h -0.8128 v 0.98044 h -13.97 v -0.98044 h -0.8128 v -3.50012 h 0.8128 v -5.00888 h -0.8128 v -3.50012 h 0.8128 v -0.98044 z"
       style="fill:none;stroke:#000000;stroke-width:0.26458332;stroke-linecap:round"
       id="path6047"
       sodipodi:nodetypes="ccccccccccccccccccccc" />
    <path
       inkscape:connector-curvature="0"
       d="m 115.84515,138.94382 v 0.98044 h 0.8128 v 3.50012 h -0.8128 v 5.00888 h 0.8128 v 3.50011 h -0.8128 v 0.98044 h -13.97 v -0.98044 h -0.8128 v -3.50011 h 0.8128 v -5.00888 h -0.8128 v -3.50012 h 0.8128 v -0.98044 z"
       style="fill:none;stroke:#000000;stroke-width:0.26458332;stroke-linecap:round"
       id="path6049"
       sodipodi:nodetypes="ccccccccccccccccccccc" />
    <path
       inkscape:connector-curvature="0"
       d="m 96.79515,137.34616 v 0.98044 h 0.8128 v 3.50012 h -0.8128 v 5.00888 h 0.8128 v 3.50012 h -0.8128 v 0.98044 h -13.97 v -0.98044 h -0.8128 v -3.50012 h 0.8128 v -5.00888 h -0.8128 v -3.50012 h 0.8128 v -0.98044 z"
       style="fill:none;stroke:#000000;stroke-width:0.26458332;stroke-linecap:round"
       id="path6051"
       sodipodi:nodetypes="ccccccccccccccccccccc" />
    <path
       inkscape:connector-curvature="0"
       d="m 77.74515,138.94382 v 0.98044 h 0.8128 v 3.50012 h -0.8128 v 5.00888 h 0.8128 v 3.50011 h -0.8128 v 0.98044 h -13.97 v -0.98044 h -0.8128 v -3.50011 h 0.8128 v -5.00888 h -0.8128 v -3.50012 h 0.8128 v -0.98044 z"
       style="fill:none;stroke:#000000;stroke-width:0.26458332;stroke-linecap:round"
       id="path6053"
       sodipodi:nodetypes="ccccccccccccccccccccc" />
    <path
       inkscape:connector-curvature="0"
       d="m 58.69515,142.11882 v 0.98044 h 0.8128 v 3.50012 h -0.8128 v 5.00887 h 0.8128 v 3.50012 h -0.8128 v 0.98044 h -13.97 v -0.98044 h -0.8128 v -3.50012 h 0.8128 v -5.00887 h -0.8128 v -3.50012 h 0.8128 v -0.98044 z"
       style="fill:none;stroke:#000000;stroke-width:0.26458332;stroke-linecap:round"
       id="path6055"
       sodipodi:nodetypes="ccccccccccccccccccccc" />
    <path
       inkscape:connector-curvature="0"
       d="m 134.89515,121.16382 v 0.98044 h 0.8128 v 3.50012 h -0.8128 v 5.00888 h 0.8128 v 3.50012 h -0.8128 v 0.98044 h -13.97 v -0.98044 h -0.8128 v -3.50012 h 0.8128 v -5.00888 h -0.8128 v -3.50012 h 0.8128 v -0.98044 z"
       style="fill:none;stroke:#000000;stroke-width:0.26458332;stroke-linecap:round"
       id="path6057"
       sodipodi:nodetypes="ccccccccccccccccccccc" />
    <path
       inkscape:connector-curvature="0"
       d="m 115.84515,119.89382 v 0.98044 h 0.8128 v 3.50012 h -0.8128 v 5.00888 h 0.8128 v 3.50012 h -0.8128 v 0.98044 h -13.97 v -0.98044 h -0.8128 v -3.50012 h 0.8128 v -5.00888 h -0.8128 v -3.50012 h 0.8128 v -0.98044 z"
       style="fill:none;stroke:#000000;stroke-width:0.26458332;stroke-linecap:round"
       id="path6059"
       sodipodi:nodetypes="ccccccccccccccccccccc" />
    <path
       inkscape:connector-curvature="0"
       d="m 96.79515,118.29616 v 0.98044 h 0.8128 v 3.50012 h -0.8128 v 5.00888 h 0.8128 v 3.50012 h -0.8128 v 0.98044 h -13.97 v -0.98044 h -0.8128 v -3.50012 h 0.8128 v -5.00888 h -0.8128 v -3.50012 h 0.8128 v -0.98044 z"
       style="fill:none;stroke:#000000;stroke-width:0.26458332;stroke-linecap:round"
       id="path6061"
       sodipodi:nodetypes="ccccccccccccccccccccc" />
    <path
       inkscape:connector-curvature="0"
       d="m 77.74515,119.89382 v 0.98044 h 0.8128 v 3.50012 h -0.8128 v 5.00888 h 0.8128 v 3.50012 h -0.8128 v 0.98044 h -13.97 v -0.98044 h -0.8128 v -3.50012 h 0.8128 v -5.00888 h -0.8128 v -3.50012 h 0.8128 v -0.98044 z"
       style="fill:none;stroke:#000000;stroke-width:0.26458332;stroke-linecap:round"
       id="path6063"
       sodipodi:nodetypes="ccccccccccccccccccccc" />
    <path
       inkscape:connector-curvature="0"
       d="m 58.69515,123.06882 v 0.98044 h 0.8128 v 3.50012 h -0.8128 v 5.00888 h 0.8128 v 3.50012 h -0.8128 v 0.98044 h -13.97 v -0.98044 h -0.8128 v -3.50012 h 0.8128 v -5.00888 h -0.8128 v -3.50012 h 0.8128 v -0.98044 z"
       style="fill:none;stroke:#000000;stroke-width:0.26458332;stroke-linecap:round"
       id="path6065"
       sodipodi:nodetypes="ccccccccccccccccccccc" />
    <path
       inkscape:connector-curvature="0"
       d="m 115.84515,100.84382 v 0.98044 h 0.8128 v 3.50012 h -0.8128 v 5.00888 h 0.8128 v 3.50012 h -0.8128 v 0.98044 h -13.97 v -0.98044 h -0.8128 v -3.50012 h 0.8128 v -5.00888 h -0.8128 v -3.50012 h 0.8128 v -0.98044 z"
       style="fill:none;stroke:#000000;stroke-width:0.26458332;stroke-linecap:round"
       id="path6067"
       sodipodi:nodetypes="ccccccccccccccccccccc" />
    <path
       inkscape:connector-curvature="0"
       d="m 96.79515,99.246156 v 0.980444 h 0.8128 v 3.50012 h -0.8128 v 5.00888 h 0.8128 v 3.50012 h -0.8128 v 0.98044 h -13.97 v -0.98044 h -0.8128 v -3.50012 h 0.8128 v -5.00888 h -0.8128 v -3.50012 h 0.8128 v -0.980444 z"
       style="fill:none;stroke:#000000;stroke-width:0.26458332;stroke-linecap:round"
       id="path6069"
       sodipodi:nodetypes="ccccccccccccccccccccc" />
    <path
       inkscape:connector-curvature="0"
       d="m 58.69515,104.01882 v 0.98044 h 0.8128 v 3.50012 h -0.8128 v 5.00888 h 0.8128 v 3.50012 h -0.8128 v 0.98044 h -13.97 v -0.98044 h -0.8128 v -3.50012 h 0.8128 v -5.00888 h -0.8128 v -3.50012 h 0.8128 v -0.98044 z"
       style="fill:none;stroke:#000000;stroke-width:0.26458332;stroke-linecap:round"
       id="path6071"
       sodipodi:nodetypes="ccccccccccccccccccccc" />
    <path
       inkscape:connector-curvature="0"
       d="m 77.74515,157.99381 v 0.98045 h 0.8128 v 3.50011 h -0.8128 v 5.00888 h 0.8128 v 3.50012 h -0.8128 v 0.98044 h -13.97 v -0.98044 h -0.8128 v -3.50012 h 0.8128 v -5.00888 h -0.8128 v -3.50011 h 0.8128 v -0.98045 z"
       style="fill:none;stroke:#000000;stroke-width:0.26458332;stroke-linecap:round"
       id="path6073"
       sodipodi:nodetypes="ccccccccccccccccccccc" />
    <path
       inkscape:connector-curvature="0"
       d="m 115.84515,81.793816 v 0.980442 h 0.8128 v 3.500118 h -0.8128 v 5.00888 h 0.8128 v 3.50012 h -0.8128 v 0.98044 h -13.97 v -0.98044 h -0.8128 v -3.50012 h 0.8128 v -5.00888 h -0.8128 v -3.500118 h 0.8128 v -0.980442 z"
       style="fill:none;stroke:#000000;stroke-width:0.26458332;stroke-linecap:round"
       id="path6075"
       sodipodi:nodetypes="ccccccccccccccccccccc" />
    <path
       inkscape:connector-curvature="0"
       d="m 96.79515,80.196156 v 0.98044 h 0.8128 v 3.50012 h -0.8128 v 5.00888 h 0.8128 v 3.500122 h -0.8128 v 0.98044 h -13.97 v -0.98044 h -0.8128 v -3.500122 h 0.8128 v -5.00888 h -0.8128 v -3.50012 h 0.8128 v -0.98044 z"
       style="fill:none;stroke:#000000;stroke-width:0.26458332;stroke-linecap:round"
       id="path6077"
       sodipodi:nodetypes="ccccccccccccccccccccc" />
    <path
       inkscape:connector-curvature="0"
       d="m 77.74515,81.793816 v 0.980442 h 0.8128 v 3.500118 h -0.8128 v 5.00888 h 0.8128 v 3.50012 h -0.8128 v 0.98044 h -13.97 v -0.98044 h -0.8128 v -3.50012 h 0.8128 v -5.00888 h -0.8128 v -3.500118 h 0.8128 v -0.980442 z"
       style="fill:none;stroke:#000000;stroke-width:0.26458332;stroke-linecap:round"
       id="path6079"
       sodipodi:nodetypes="ccccccccccccccccccccc" />
    <path
       inkscape:connector-curvature="0"
       d="m 58.69515,84.971356 v 0.98044 h 0.8128 v 3.50012 h -0.8128 v 5.00888 h 0.8128 v 3.500122 h -0.8128 v 0.980438 h -13.97 v -0.980438 h -0.8128 v -3.500122 h 0.8128 v -5.00888 h -0.8128 v -3.50012 h 0.8128 v -0.98044 z"
       style="fill:none;stroke:#000000;stroke-width:0.26458332;stroke-linecap:round"
       id="path6081"
       sodipodi:nodetypes="ccccccccccccccccccccc" />
    <path
       inkscape:connector-curvature="0"
       d="m 176.67053,156.7924 -0.41656,0.889 0.7366,0.34289 -1.47828,3.17246 -0.7366,-0.3429 -2.11582,4.53898 0.7366,0.34291 -1.48082,3.17246 -0.7366,-0.34291 -0.41402,0.88901 -12.6619,-5.90551 0.41656,-0.889 -0.7366,-0.34289 1.47828,-3.17247 0.7366,0.34291 2.11582,-4.53899 -0.7366,-0.3429 1.48082,-3.17245 0.7366,0.34289 0.41402,-0.889 z"
       style="fill:none;stroke:#000000;stroke-width:0.26458332;stroke-linecap:round"
       id="path6083"
       sodipodi:nodetypes="ccccccccccccccccccccc" />
    <path
       inkscape:connector-curvature="0"
       d="m 193.93491,164.84165 -0.41656,0.889 0.7366,0.3429 -1.47828,3.17247 -0.7366,-0.34291 -2.11582,4.53899 0.7366,0.34289 -1.48082,3.17246 -0.7366,-0.34289 -0.41402,0.889 -12.6619,-5.90551 0.41656,-0.889 -0.7366,-0.34289 1.47828,-3.17246 0.7366,0.34289 2.11582,-4.53897 -0.7366,-0.34291 1.48082,-3.17246 0.7366,0.34291 0.41402,-0.88901 z"
       style="fill:none;stroke:#000000;stroke-width:0.26458332;stroke-linecap:round"
       id="path6085"
       sodipodi:nodetypes="ccccccccccccccccccccc" />
    <path
       inkscape:connector-curvature="0"
       d="m 177.83385,199.37295 -0.41656,0.88901 0.7366,0.34289 -1.47828,3.17247 -0.7366,-0.3429 -2.11582,4.53898 0.7366,0.3429 -1.48082,3.17246 -0.7366,-0.3429 -0.41402,0.889 -12.6619,-5.9055 0.41656,-0.889 -0.7366,-0.3429 1.47828,-3.17247 0.7366,0.34291 2.11582,-4.53899 -0.7366,-0.34289 1.48082,-3.17246 0.7366,0.34289 0.41402,-0.889 z"
       style="fill:none;stroke:#000000;stroke-width:0.26458332;stroke-linecap:round"
       id="path6087"
       sodipodi:nodetypes="ccccccccccccccccccccc" />
    <path
       inkscape:connector-curvature="0"
       d="m 185.88565,182.10603 -0.41656,0.889 0.7366,0.34291 -1.47828,3.17245 -0.7366,-0.34289 -2.11582,4.53897 0.7366,0.3429 -1.48082,3.17247 -0.7366,-0.34291 -0.41402,0.889 -12.6619,-5.90549 0.41656,-0.889 -0.7366,-0.34291 1.47828,-3.17246 0.7366,0.3429 2.11582,-4.53898 -0.7366,-0.34289 1.48082,-3.17246 0.7366,0.34289 0.41402,-0.88899 z"
       style="fill:none;stroke:#000000;stroke-width:0.26458332;stroke-linecap:round"
       id="path6089"
       sodipodi:nodetypes="ccccccccccccccccccccc" />
    <path
       inkscape:connector-curvature="0"
       d="m 134.89515,102.11382 v 0.98044 h 0.8128 v 3.50012 h -0.8128 v 5.00888 h 0.8128 v 3.50012 h -0.8128 v 0.98044 h -13.97 v -0.98044 h -0.8128 v -3.50012 h 0.8128 v -5.00888 h -0.8128 v -3.50012 h 0.8128 v -0.98044 z"
       style="fill:none;stroke:#000000;stroke-width:0.26458332;stroke-linecap:round"
       id="path6091"
       sodipodi:nodetypes="ccccccccccccccccccccc" />
    <path
       inkscape:connector-curvature="0"
       d="m 39.64515,161.16881 v 0.98045 h 0.8128 v 3.50011 h -0.8128 v 5.00888 h 0.8128 v 3.50012 h -0.8128 v 0.98044 h -13.97 v -0.98044 h -0.8128 v -3.50012 h 0.8128 v -5.00888 h -0.8128 v -3.50011 h 0.8128 v -0.98045 z"
       style="fill:none;stroke:#000000;stroke-width:0.26458332;stroke-linecap:round"
       id="path6093"
       sodipodi:nodetypes="ccccccccccccccccccccc" />
    <path
       inkscape:connector-curvature="0"
       d="m 153.94515,149.42132 h -0.98044 v 0.8128 h -3.50012 v -0.8128 h -5.00888 v 0.8128 h -3.50012 v -0.8128 h -0.98044 v -13.97 h 0.98044 v -0.8128 h 3.50012 v 0.8128 h 5.00888 v -0.8128 h 3.50012 v 0.8128 h 0.98044 z"
       style="fill:none;stroke:#000000;stroke-width:0.26458332;stroke-linecap:round"
       id="path6095"
       sodipodi:nodetypes="ccccccccccccccccccccc" />
    <path
       inkscape:connector-curvature="0"
       d="m 153.94515,120.84632 h -0.98044 v 0.8128 h -3.50012 v -0.8128 h -5.00888 v 0.8128 h -3.50012 v -0.8128 h -0.98044 v -13.97 h 0.98044 v -0.8128 h 3.50012 v 0.8128 h 5.00888 v -0.8128 h 3.50012 v 0.8128 h 0.98044 z"
       style="fill:none;stroke:#000000;stroke-width:0.26458332;stroke-linecap:round"
       id="path6097"
       sodipodi:nodetypes="ccccccccccccccccccccc" />
    <path
       style="fill:none;stroke:#000000;stroke-width:0.26458332px;stroke-linecap:butt;stroke-linejoin:miter;stroke-opacity:1"
       d="m 64.91533,48.31915 34.68081,8e-6"
       id="path55"
       inkscape:connector-curvature="0" />
    <path
       style="fill:none;stroke:#000000;stroke-width:0.26458332px;stroke-linecap:butt;stroke-linejoin:miter;stroke-opacity:1"
       d="M 64.338922,76.953268 V 57.455799"
       id="path57"
       inkscape:connector-curvature="0" />
    <path
       style="fill:none;stroke:#000000;stroke-width:0.26458332px;stroke-linecap:butt;stroke-linejoin:miter;stroke-opacity:1"
       d="m 139.30512,64.420691 v 3.776393"
       id="path61"
       inkscape:connector-curvature="0" />
  </g>
</svg>
