<?xml version="1.0" encoding="UTF-8" standalone="no"?>
<!-- Created with Inkscape (http://www.inkscape.org/) -->

<svg
   xmlns:dc="http://purl.org/dc/elements/1.1/"
   xmlns:cc="http://creativecommons.org/ns#"
   xmlns:rdf="http://www.w3.org/1999/02/22-rdf-syntax-ns#"
   xmlns:svg="http://www.w3.org/2000/svg"
   xmlns="http://www.w3.org/2000/svg"
   xmlns:sodipodi="http://sodipodi.sourceforge.net/DTD/sodipodi-0.dtd"
   xmlns:inkscape="http://www.inkscape.org/namespaces/inkscape"
   width="210mm"
   height="297mm"
   viewBox="0 0 210 297"
   version="1.1"
   id="svg7628"
   sodipodi:docname="spacer_top.svg"
   inkscape:version="0.92.3 (2405546, 2018-03-11)">
  <defs
     id="defs7622" />
  <sodipodi:namedview
     id="base"
     pagecolor="#ffffff"
     bordercolor="#666666"
     borderopacity="1.0"
     inkscape:pageopacity="0.0"
     inkscape:pageshadow="2"
     inkscape:zoom="2.8"
     inkscape:cx="311.94958"
     inkscape:cy="894.9355"
     inkscape:document-units="mm"
     inkscape:current-layer="layer1"
     showgrid="false"
     inkscape:window-width="1366"
     inkscape:window-height="705"
     inkscape:window-x="-8"
     inkscape:window-y="-8"
     inkscape:window-maximized="1" />
  <metadata
     id="metadata7625">
    <rdf:RDF>
      <cc:Work
         rdf:about="">
        <dc:format>image/svg+xml</dc:format>
        <dc:type
           rdf:resource="http://purl.org/dc/dcmitype/StillImage" />
      </cc:Work>
    </rdf:RDF>
  </metadata>
  <g
     inkscape:label="Layer 1"
     inkscape:groupmode="layer"
     id="layer1">
    <g
       style="display:inline"
       id="g6450"
       inkscape:label="0"
       transform="matrix(0.26458333,0,0,0.26458333,-12.219191,-60.555091)">
      <path
         id="path6426"
         style="fill:none;stroke:#000000;stroke-linecap:round"
         d="m 340.35814,442.20472 h 10.27165 v 51.02363 h -48.26758 v -51.02363 h 10.23251"
         inkscape:connector-curvature="0"
         sodipodi:nodetypes="cccccc" />
      <path
         id="path6428"
         style="fill:none;stroke:#000000;stroke-linecap:round"
         d="M 738.89196,451.65354 H 495.11811 450.01037 l -0.24659,17.58614 v 48.5556 h 152.00927 v 7.55905 h 136.4643 z"
         inkscape:connector-curvature="0"
         sodipodi:nodetypes="ccccccccc" />
      <path
         id="path6430"
         style="fill:none;stroke:#000000;stroke-linecap:round"
         d="m 289.6193,835.26356 a 3.84,3.84 0 0 0 -1.62286,-7.32022 h -47.4686 a 3.84,3.84 0 0 1 -3.84,-3.84 v -282.24 a 3.84,3.84 0 0 1 3.84,-3.84 h 134.4 a 5.76,5.76 0 0 0 4.98831,-2.88 3.84,3.84 0 0 1 3.32554,-1.92 h 63.68615 a 5.76,5.76 0 0 0 5.33967,-3.6 3.84,3.84 0 0 1 3.55977,-2.4 h 67.64113 a 3.84,3.84 0 0 1 3.55977,2.4 5.76,5.76 0 0 0 5.33966,3.6 h 62.4 a 3.84,3.84 0 0 1 3.84,3.84 v 2.4 a 5.76,5.76 0 0 0 5.76,5.76 h 170.12463 a 3.779528,3.779528 0 0 1 3.77953,3.77953 v 282.36094 a 3.779528,3.779528 0 0 1 -3.77953,3.77953 h -26.12463 a 5.76,5.76 0 0 0 -5.76,5.76 v 62.4 a 3.84,3.84 0 0 1 -3.84,3.84 h -138.24 a 3.84,3.84 0 0 1 -3.84,-3.84 v -2.4 a 5.76,5.76 0 0 0 -5.76,-5.76 h -63.10056 a 3.84,3.84 0 0 1 -3.55977,-2.4 5.76,5.76 0 0 0 -5.33967,-3.6 h -58.56 a 5.76,5.76 0 0 0 -5.33966,3.6 3.84,3.84 0 0 1 -3.55977,2.4 h -66.94057 a 3.84,3.84 0 0 1 -3.84,-3.84 v -57.6 a 5.76,5.76 0 0 0 -5.76,-5.76 h -54.73171 a 5.76,5.76 0 0 0 -5.22033,8.19428 l 55.18199,118.33816 a 3.84,3.84 0 0 1 -1.85737,5.10308 l -190.54215,88.85124 a 3.84,3.84 0 0 1 -5.10307,-1.8573 L 83.803932,856.0306 a 3.84,3.84 0 0 1 1.857368,-5.10307 l 125.28799,-58.42275 a 3.84,3.84 0 0 1 5.10307,1.85737 l 26.37138,56.5536 a 5.76,5.76 0 0 0 7.65462,2.78605 z"
         inkscape:connector-curvature="0" />
      <path
         id="path6432"
         style="fill:none;stroke:#000000;stroke-linecap:round"
         d="m 312.59472,442.20472 0.024,-5.67224 L 260.16,417.20769 h -30.66331 c -14.61163,0 -26.45669,11.84506 -26.45669,26.45669 v 298.162 c 0,10.28221 -5.95741,19.63314 -15.2764,23.97828 L 61.488701,824.68259 c -13.243107,6.17484 -18.972868,21.91634 -12.797646,35.15927 l 98.133115,210.44894 c 6.17476,13.2419 21.91469,18.9715 35.1571,12.7978 L 482.71064,942.88557 c 3.50082,-1.63212 7.31656,-2.47788 11.17915,-2.47788 h 291.52552 c 14.61163,0 26.45669,-11.84507 26.45669,-26.4567 V 443.66438 c 0,-14.61163 -11.84506,-26.45669 -26.45669,-26.45669 H 583.6909 l -21.26117,19.32479 H 484.255 L 452.61373,417.20769 H 392.832 l -52.45871,19.32479 c -0.004,1.89075 0.0149,3.78172 -0.0152,5.67224"
         inkscape:connector-curvature="0"
         sodipodi:nodetypes="ccccccsssssssssssssscccc" />
      <path
         id="path6434"
         style="fill:none;stroke:#000000;stroke-linecap:round"
         d="m 434.54946,434.00805 a 5.6692915,5.6692915 0 1 0 -11.33858,0 5.6692915,5.6692915 0 1 0 11.33858,0 z"
         inkscape:connector-curvature="0" />
      <path
         id="path6436"
         style="fill:none;stroke:#000000;stroke-linecap:round"
         d="m 793.8668,440.88218 a 5.669291,5.669291 0 1 0 -11.33858,0 5.669291,5.669291 0 1 0 11.33858,0 z"
         inkscape:connector-curvature="0" />
      <path
         id="path6438"
         style="fill:none;stroke:#000000;stroke-linecap:round"
         d="m 793.8668,910.73319 a 5.669291,5.669291 0 1 0 -11.33858,0 5.669291,5.669291 0 1 0 11.33858,0 z"
         inkscape:connector-curvature="0" />
      <path
         id="path6440"
         style="fill:none;stroke:#000000;stroke-linecap:round"
         d="m 489.97026,923.60805 a 5.669291,5.669291 0 1 0 -11.33858,0 5.669291,5.669291 0 1 0 11.33858,0 z"
         inkscape:connector-curvature="0" />
      <path
         id="path6442"
         style="fill:none;stroke:#000000;stroke-linecap:round"
         d="m 434.54929,434.00768 a 5.669291,5.669291 0 1 0 -11.33858,0 5.669291,5.669291 0 1 0 11.33858,0 z"
         inkscape:connector-curvature="0" />
      <path
         id="path6444"
         style="fill:none;stroke:#000000;stroke-linecap:round"
         d="m 232.40778,440.88218 a 5.669291,5.669291 0 1 0 -11.33858,0 5.669291,5.669291 0 1 0 11.33858,0 z"
         inkscape:connector-curvature="0" />
      <path
         id="path6446"
         style="fill:none;stroke:#000000;stroke-linecap:round"
         d="m 74.642892,847.31609 a 5.669291,5.669291 0 1 0 -11.338582,0 5.669291,5.669291 0 1 0 11.338582,0 z"
         inkscape:connector-curvature="0" />
      <path
         id="path6448"
         style="fill:none;stroke:#000000;stroke-linecap:round"
         d="m 175.12707,1062.8099 a 5.669295,5.669295 0 1 0 -11.33859,0 5.669295,5.669295 0 1 0 11.33859,0 z"
         inkscape:connector-curvature="0" />
    </g>
  </g>
</svg>
