  0
SECTION
  2
HEADER
  9
$ACADVER
  1
AC1014
  9
$HANDSEED
  5
FFFF
  9
$MEASUREMENT
 70
     1
  0
ENDSEC
  0
SECTION
  2
TABLES
  0
TABLE
  2
VPORT
  5
8
330
0
100
AcDbSymbolTable
 70
     4
  0
VPORT
  5
2E
330
8
100
AcDbSymbolTableRecord
100
AcDbViewportTableRecord
  2
*ACTIVE
 70
     0
 10
0.0
 20
0.0
 11
1.0
 21
1.0
 12
210.0
 22
148.5
 13
0.0
 23
0.0
 14
10.0
 24
10.0
 15
10.0
 25
10.0
 16
0.0
 26
0.0
 36
1.0
 17
0.0
 27
0.0
 37
0.0
 40
341.0
 41
1.24
 42
50.0
 43
0.0
 44
0.0
 50
0.0
 51
0.0
 71
     0
 72
   100
 73
     1
 74
     3
 75
     0
 76
     0
 77
     0
 78
     0
  0
ENDTAB
  0
TABLE
  2
LTYPE
  5
5
330
0
100
AcDbSymbolTable
 70
     1
  0
LTYPE
  5
14
330
5
100
AcDbSymbolTableRecord
100
AcDbLinetypeTableRecord
  2
BYBLOCK
 70
     0
  3

 72
    65
 73
     0
 40
0.0
  0
LTYPE
  5
15
330
5
100
AcDbSymbolTableRecord
100
AcDbLinetypeTableRecord
  2
BYLAYER
 70
     0
  3

 72
    65
 73
     0
 40
0.0
  0
LTYPE
  5
16
330
5
100
AcDbSymbolTableRecord
100
AcDbLinetypeTableRecord
  2
CONTINUOUS
 70
     0
  3
Solid line
 72
    65
 73
     0
 40
0.0
  0
ENDTAB
  0
TABLE
  2
LAYER
  5
2
100
AcDbSymbolTable
 70
2
  0
LAYER
  5
50
100
AcDbSymbolTableRecord
100
AcDbLayerTableRecord
  2
0
 70
0
  6
CONTINUOUS
  0
LAYER
  5
51
100
AcDbSymbolTableRecord
100
AcDbLayerTableRecord
  2
Layer_1
 70
0
  6
CONTINUOUS
  0
ENDTAB
  0
TABLE
  2
STYLE
  5
3
330
0
100
AcDbSymbolTable
 70
     1
  0
STYLE
  5
11
330
3
100
AcDbSymbolTableRecord
100
AcDbTextStyleTableRecord
  2
STANDARD
 70
     0
 40
0.0
 41
1.0
 50
0.0
 71
     0
 42
2.5
  3
txt
  4

  0
ENDTAB
  0
TABLE
  2
VIEW
  5
6
330
0
100
AcDbSymbolTable
 70
     0
  0
ENDTAB
  0
TABLE
  2
UCS
  5
7
330
0
100
AcDbSymbolTable
 70
     0
  0
ENDTAB
  0
TABLE
  2
APPID
  5
9
330
0
100
AcDbSymbolTable
 70
     2
  0
APPID
  5
12
330
9
100
AcDbSymbolTableRecord
100
AcDbRegAppTableRecord
  2
ACAD
 70
     0
  0
ENDTAB
  0
TABLE
  2
DIMSTYLE
  5
A
330
0
100
AcDbSymbolTable
 70
     1
  0
DIMSTYLE
105
27
330
A
100
AcDbSymbolTableRecord
100
AcDbDimStyleTableRecord
  2
ISO-25
 70
     0
  3

  4

  5

  6

  7

 40
1.0
 41
2.5
 42
0.625
 43
3.75
 44
1.25
 45
0.0
 46
0.0
 47
0.0
 48
0.0
140
2.5
141
2.5
142
0.0
143
0.03937007874016
144
1.0
145
0.0
146
1.0
147
0.625
 71
     0
 72
     0
 73
     0
 74
     0
 75
     0
 76
     0
 77
     1
 78
     8
170
     0
171
     3
172
     1
173
     0
174
     0
175
     0
176
     0
177
     0
178
     0
270
     2
271
     2
272
     2
273
     2
274
     3
340
11
275
     0
280
     0
281
     0
282
     0
283
     0
284
     8
285
     0
286
     0
287
     3
288
     0
  0
ENDTAB
  0
TABLE
  2
BLOCK_RECORD
  5
1
330
0
100
AcDbSymbolTable
 70
     1
  0
BLOCK_RECORD
  5
1F
330
1
100
AcDbSymbolTableRecord
100
AcDbBlockTableRecord
  2
*MODEL_SPACE
  0
BLOCK_RECORD
  5
1B
330
1
100
AcDbSymbolTableRecord
100
AcDbBlockTableRecord
  2
*PAPER_SPACE
  0
ENDTAB
  0
ENDSEC
  0
SECTION
  2
BLOCKS
  0
BLOCK
  5
20
330
1F
100
AcDbEntity
  8
0
100
AcDbBlockBegin
  2
*MODEL_SPACE
 70
     0
 10
0.0
 20
0.0
 30
0.0
  3
*MODEL_SPACE
  1

  0
ENDBLK
  5
21
330
1F
100
AcDbEntity
  8
0
100
AcDbBlockEnd
  0
BLOCK
  5
1C
330
1B
100
AcDbEntity
 67
     1
  8
0
100
AcDbBlockBegin
  2
*PAPER_SPACE
  1

  0
ENDBLK
  5
1D
330
1B
100
AcDbEntity
 67
     1
  8
0
100
AcDbBlockEnd
  0
ENDSEC
  0
SECTION
  2
ENTITIES
  0
LINE
  5
100
100
AcDbEntity
  8
Layer_1
 62
7
100
AcDbLine
 10
77.833899
 20
240.555094
 30
0.0
 11
80.551606
 21
240.555094
 31
0.0
  0
LINE
  5
101
100
AcDbEntity
  8
Layer_1
 62
7
100
AcDbLine
 10
80.551606
 20
240.555094
 30
0.0
 11
80.551606
 21
227.055092
 31
0.0
  0
LINE
  5
102
100
AcDbEntity
  8
Layer_1
 62
7
100
AcDbLine
 10
80.551606
 20
227.055092
 30
0.0
 11
67.780809
 21
227.055092
 31
0.0
  0
LINE
  5
103
100
AcDbEntity
  8
Layer_1
 62
7
100
AcDbLine
 10
67.780809
 20
227.055092
 30
0.0
 11
67.780809
 21
240.555094
 31
0.0
  0
LINE
  5
104
100
AcDbEntity
  8
Layer_1
 62
7
100
AcDbLine
 10
67.780809
 20
240.555094
 30
0.0
 11
70.488161
 21
240.555094
 31
0.0
  0
LINE
  5
105
100
AcDbEntity
  8
Layer_1
 62
7
100
AcDbLine
 10
183.279304
 20
238.055093
 30
0.0
 11
118.780807
 21
238.055093
 31
0.0
  0
LINE
  5
106
100
AcDbEntity
  8
Layer_1
 62
7
100
AcDbLine
 10
118.780807
 20
238.055093
 30
0.0
 11
106.846051
 21
238.055093
 31
0.0
  0
LINE
  5
107
100
AcDbEntity
  8
Layer_1
 62
7
100
AcDbLine
 10
106.846051
 20
238.055093
 30
0.0
 11
106.780808
 21
233.402094
 31
0.0
  0
LINE
  5
108
100
AcDbEntity
  8
Layer_1
 62
7
100
AcDbLine
 10
106.780808
 20
233.402094
 30
0.0
 11
106.780808
 21
220.555092
 31
0.0
  0
LINE
  5
109
100
AcDbEntity
  8
Layer_1
 62
7
100
AcDbLine
 10
106.780808
 20
220.555092
 30
0.0
 11
146.999926
 21
220.555092
 31
0.0
  0
LINE
  5
10a
100
AcDbEntity
  8
Layer_1
 62
7
100
AcDbLine
 10
146.999926
 20
220.555092
 30
0.0
 11
146.999926
 21
218.555093
 31
0.0
  0
LINE
  5
10b
100
AcDbEntity
  8
Layer_1
 62
7
100
AcDbLine
 10
146.999926
 20
218.555093
 30
0.0
 11
183.106105
 21
218.555093
 31
0.0
  0
LINE
  5
10c
100
AcDbEntity
  8
Layer_1
 62
7
100
AcDbLine
 10
183.106105
 20
218.555093
 30
0.0
 11
183.279304
 21
238.055093
 31
0.0
  0
SPLINE
  5
10d
100
AcDbEntity
  8
Layer_1
 62
7
100
AcDbSpline
 70
8
 71
3
 72
8
 73
4
 74
0
 40
0
 40
0
 40
0
 40
0
 40
1
 40
1
 40
1
 40
1
 10
64.409248
 20
136.558277
 30
0.0
 10
64.841003
 20
136.759608
 30
0.0
 10
65.074893
 20
137.233892
 30
0.0
 10
64.971783
 20
137.698989
 30
0.0
  0
SPLINE
  5
10e
100
AcDbEntity
  8
Layer_1
 62
7
100
AcDbSpline
 70
8
 71
3
 72
8
 73
4
 74
0
 40
0
 40
0
 40
0
 40
0
 40
1
 40
1
 40
1
 40
1
 10
64.971783
 20
137.698989
 30
0.0
 10
64.868673
 20
138.164085
 30
0.0
 10
64.456255
 20
138.495085
 30
0.0
 10
63.979866
 20
138.495085
 30
0.0
  0
LINE
  5
10f
100
AcDbEntity
  8
Layer_1
 62
7
100
AcDbLine
 10
63.979866
 20
138.495085
 30
0.0
 11
51.420466
 21
138.495085
 31
0.0
  0
SPLINE
  5
110
100
AcDbEntity
  8
Layer_1
 62
7
100
AcDbSpline
 70
8
 71
3
 72
8
 73
4
 74
0
 40
0
 40
0
 40
0
 40
0
 40
1
 40
1
 40
1
 40
1
 10
51.420466
 20
138.495085
 30
0.0
 10
51.151006
 20
138.495085
 30
0.0
 10
50.892582
 20
138.602128
 30
0.0
 10
50.702045
 20
138.792665
 30
0.0
  0
SPLINE
  5
111
100
AcDbEntity
  8
Layer_1
 62
7
100
AcDbSpline
 70
8
 71
3
 72
8
 73
4
 74
0
 40
0
 40
0
 40
0
 40
0
 40
1
 40
1
 40
1
 40
1
 10
50.702045
 20
138.792665
 30
0.0
 10
50.511508
 20
138.983202
 30
0.0
 10
50.404466
 20
139.241625
 30
0.0
 10
50.404466
 20
139.511085
 30
0.0
  0
LINE
  5
112
100
AcDbEntity
  8
Layer_1
 62
7
100
AcDbLine
 10
50.404466
 20
139.511085
 30
0.0
 11
50.404466
 21
214.187084
 31
0.0
  0
SPLINE
  5
113
100
AcDbEntity
  8
Layer_1
 62
7
100
AcDbSpline
 70
8
 71
3
 72
8
 73
4
 74
0
 40
0
 40
0
 40
0
 40
0
 40
1
 40
1
 40
1
 40
1
 10
50.404466
 20
214.187084
 30
0.0
 10
50.404466
 20
214.456544
 30
0.0
 10
50.511508
 20
214.714968
 30
0.0
 10
50.702045
 20
214.905505
 30
0.0
  0
SPLINE
  5
114
100
AcDbEntity
  8
Layer_1
 62
7
100
AcDbSpline
 70
8
 71
3
 72
8
 73
4
 74
0
 40
0
 40
0
 40
0
 40
0
 40
1
 40
1
 40
1
 40
1
 10
50.702045
 20
214.905505
 30
0.0
 10
50.892582
 20
215.096042
 30
0.0
 10
51.151006
 20
215.203084
 30
0.0
 10
51.420466
 20
215.203084
 30
0.0
  0
SPLINE
  5
115
100
AcDbEntity
  8
Layer_1
 62
7
100
AcDbSpline
 70
8
 71
3
 72
8
 73
4
 74
0
 40
0
 40
0
 40
0
 40
0
 40
1
 40
1
 40
1
 40
1
 10
51.420466
 20
215.203084
 30
0.0
 10
51.420466
 20
215.203084
 30
0.0
 10
86.980465
 20
215.203084
 30
0.0
 10
86.980465
 20
215.203084
 30
0.0
  0
SPLINE
  5
116
100
AcDbEntity
  8
Layer_1
 62
7
100
AcDbSpline
 70
8
 71
3
 72
8
 73
4
 74
0
 40
0
 40
0
 40
0
 40
0
 40
1
 40
1
 40
1
 40
1
 10
86.980465
 20
215.203084
 30
0.0
 10
87.524939
 20
215.203084
 30
0.0
 10
88.028053
 20
215.493557
 30
0.0
 10
88.300289
 20
215.965084
 30
0.0
  0
SPLINE
  5
117
100
AcDbEntity
  8
Layer_1
 62
7
100
AcDbSpline
 70
8
 71
3
 72
8
 73
4
 74
0
 40
0
 40
0
 40
0
 40
0
 40
1
 40
1
 40
1
 40
1
 10
88.300289
 20
215.965084
 30
0.0
 10
88.481780
 20
216.279436
 30
0.0
 10
88.817189
 20
216.473084
 30
0.0
 10
89.180172
 20
216.473084
 30
0.0
  0
SPLINE
  5
118
100
AcDbEntity
  8
Layer_1
 62
7
100
AcDbSpline
 70
8
 71
3
 72
8
 73
4
 74
0
 40
0
 40
0
 40
0
 40
0
 40
1
 40
1
 40
1
 40
1
 10
89.180172
 20
216.473084
 30
0.0
 10
89.180172
 20
216.473084
 30
0.0
 10
106.030465
 20
216.473084
 30
0.0
 10
106.030465
 20
216.473084
 30
0.0
  0
SPLINE
  5
119
100
AcDbEntity
  8
Layer_1
 62
7
100
AcDbSpline
 70
8
 71
3
 72
8
 73
4
 74
0
 40
0
 40
0
 40
0
 40
0
 40
1
 40
1
 40
1
 40
1
 10
106.030465
 20
216.473084
 30
0.0
 10
106.651475
 20
216.473083
 30
0.0
 10
107.210374
 20
216.849893
 30
0.0
 10
107.443253
 20
217.425584
 30
0.0
  0
SPLINE
  5
11a
100
AcDbEntity
  8
Layer_1
 62
7
100
AcDbSpline
 70
8
 71
3
 72
8
 73
4
 74
0
 40
0
 40
0
 40
0
 40
0
 40
1
 40
1
 40
1
 40
1
 10
107.443253
 20
217.425584
 30
0.0
 10
107.598505
 20
217.809377
 30
0.0
 10
107.971103
 20
218.060583
 30
0.0
 10
108.385109
 20
218.060584
 30
0.0
  0
LINE
  5
11b
100
AcDbEntity
  8
Layer_1
 62
7
100
AcDbLine
 10
108.385109
 20
218.060584
 30
0.0
 11
126.281824
 21
218.060584
 31
0.0
  0
SPLINE
  5
11c
100
AcDbEntity
  8
Layer_1
 62
7
100
AcDbSpline
 70
8
 71
3
 72
8
 73
4
 74
0
 40
0
 40
0
 40
0
 40
0
 40
1
 40
1
 40
1
 40
1
 10
126.281824
 20
218.060584
 30
0.0
 10
126.695830
 20
218.060583
 30
0.0
 10
127.068428
 20
217.809377
 30
0.0
 10
127.223680
 20
217.425584
 30
0.0
  0
SPLINE
  5
11d
100
AcDbEntity
  8
Layer_1
 62
7
100
AcDbSpline
 70
8
 71
3
 72
8
 73
4
 74
0
 40
0
 40
0
 40
0
 40
0
 40
1
 40
1
 40
1
 40
1
 10
127.223680
 20
217.425584
 30
0.0
 10
127.456558
 20
216.849894
 30
0.0
 10
128.015456
 20
216.473084
 30
0.0
 10
128.636465
 20
216.473084
 30
0.0
  0
LINE
  5
11e
100
AcDbEntity
  8
Layer_1
 62
7
100
AcDbLine
 10
128.636465
 20
216.473084
 30
0.0
 11
145.146465
 21
216.473084
 31
0.0
  0
SPLINE
  5
11f
100
AcDbEntity
  8
Layer_1
 62
7
100
AcDbSpline
 70
8
 71
3
 72
8
 73
4
 74
0
 40
0
 40
0
 40
0
 40
0
 40
1
 40
1
 40
1
 40
1
 10
145.146465
 20
216.473084
 30
0.0
 10
145.415925
 20
216.473084
 30
0.0
 10
145.674348
 20
216.366042
 30
0.0
 10
145.864885
 20
216.175505
 30
0.0
  0
SPLINE
  5
120
100
AcDbEntity
  8
Layer_1
 62
7
100
AcDbSpline
 70
8
 71
3
 72
8
 73
4
 74
0
 40
0
 40
0
 40
0
 40
0
 40
1
 40
1
 40
1
 40
1
 10
145.864885
 20
216.175505
 30
0.0
 10
146.055422
 20
215.984968
 30
0.0
 10
146.162465
 20
215.726544
 30
0.0
 10
146.162465
 20
215.457084
 30
0.0
  0
SPLINE
  5
121
100
AcDbEntity
  8
Layer_1
 62
7
100
AcDbSpline
 70
8
 71
3
 72
8
 73
4
 74
0
 40
0
 40
0
 40
0
 40
0
 40
1
 40
1
 40
1
 40
1
 10
146.162465
 20
215.457084
 30
0.0
 10
146.162465
 20
215.457084
 30
0.0
 10
146.162465
 20
214.822084
 30
0.0
 10
146.162465
 20
214.822084
 30
0.0
  0
SPLINE
  5
122
100
AcDbEntity
  8
Layer_1
 62
7
100
AcDbSpline
 70
8
 71
3
 72
8
 73
4
 74
0
 40
0
 40
0
 40
0
 40
0
 40
1
 40
1
 40
1
 40
1
 10
146.162465
 20
214.822084
 30
0.0
 10
146.162465
 20
214.417894
 30
0.0
 10
146.323028
 20
214.030259
 30
0.0
 10
146.608834
 20
213.744453
 30
0.0
  0
SPLINE
  5
123
100
AcDbEntity
  8
Layer_1
 62
7
100
AcDbSpline
 70
8
 71
3
 72
8
 73
4
 74
0
 40
0
 40
0
 40
0
 40
0
 40
1
 40
1
 40
1
 40
1
 10
146.608834
 20
213.744453
 30
0.0
 10
146.894639
 20
213.458648
 30
0.0
 10
147.282275
 20
213.298084
 30
0.0
 10
147.686465
 20
213.298084
 30
0.0
  0
SPLINE
  5
124
100
AcDbEntity
  8
Layer_1
 62
7
100
AcDbSpline
 70
8
 71
3
 72
8
 73
4
 74
0
 40
0
 40
0
 40
0
 40
0
 40
1
 40
1
 40
1
 40
1
 10
147.686465
 20
213.298084
 30
0.0
 10
147.686465
 20
213.298084
 30
0.0
 10
192.698606
 20
213.298084
 30
0.0
 10
192.698606
 20
213.298084
 30
0.0
  0
SPLINE
  5
125
100
AcDbEntity
  8
Layer_1
 62
7
100
AcDbSpline
 70
8
 71
3
 72
8
 73
4
 74
0
 40
0
 40
0
 40
0
 40
0
 40
1
 40
1
 40
1
 40
1
 10
192.698606
 20
213.298084
 30
0.0
 10
192.963822
 20
213.298084
 30
0.0
 10
193.218177
 20
213.192727
 30
0.0
 10
193.405713
 20
213.005191
 30
0.0
  0
SPLINE
  5
126
100
AcDbEntity
  8
Layer_1
 62
7
100
AcDbSpline
 70
8
 71
3
 72
8
 73
4
 74
0
 40
0
 40
0
 40
0
 40
0
 40
1
 40
1
 40
1
 40
1
 10
193.405713
 20
213.005191
 30
0.0
 10
193.593250
 20
212.817654
 30
0.0
 10
193.698607
 20
212.563300
 30
0.0
 10
193.698606
 20
212.298083
 30
0.0
  0
SPLINE
  5
127
100
AcDbEntity
  8
Layer_1
 62
7
100
AcDbSpline
 70
8
 71
3
 72
8
 73
4
 74
0
 40
0
 40
0
 40
0
 40
0
 40
1
 40
1
 40
1
 40
1
 10
193.698606
 20
212.298083
 30
0.0
 10
193.698606
 20
212.298083
 30
0.0
 10
193.698606
 20
137.590086
 30
0.0
 10
193.698606
 20
137.590086
 30
0.0
  0
SPLINE
  5
128
100
AcDbEntity
  8
Layer_1
 62
7
100
AcDbSpline
 70
8
 71
3
 72
8
 73
4
 74
0
 40
0
 40
0
 40
0
 40
0
 40
1
 40
1
 40
1
 40
1
 10
193.698606
 20
137.590086
 30
0.0
 10
193.698607
 20
137.324869
 30
0.0
 10
193.593250
 20
137.070515
 30
0.0
 10
193.405713
 20
136.882978
 30
0.0
  0
SPLINE
  5
129
100
AcDbEntity
  8
Layer_1
 62
7
100
AcDbSpline
 70
8
 71
3
 72
8
 73
4
 74
0
 40
0
 40
0
 40
0
 40
0
 40
1
 40
1
 40
1
 40
1
 10
193.405713
 20
136.882978
 30
0.0
 10
193.218177
 20
136.695442
 30
0.0
 10
192.963822
 20
136.590085
 30
0.0
 10
192.698606
 20
136.590085
 30
0.0
  0
SPLINE
  5
12a
100
AcDbEntity
  8
Layer_1
 62
7
100
AcDbSpline
 70
8
 71
3
 72
8
 73
4
 74
0
 40
0
 40
0
 40
0
 40
0
 40
1
 40
1
 40
1
 40
1
 10
192.698606
 20
136.590085
 30
0.0
 10
192.698606
 20
136.590085
 30
0.0
 10
185.786464
 20
136.590085
 30
0.0
 10
185.786464
 20
136.590085
 30
0.0
  0
SPLINE
  5
12b
100
AcDbEntity
  8
Layer_1
 62
7
100
AcDbSpline
 70
8
 71
3
 72
8
 73
4
 74
0
 40
0
 40
0
 40
0
 40
0
 40
1
 40
1
 40
1
 40
1
 10
185.786464
 20
136.590085
 30
0.0
 10
185.382274
 20
136.590085
 30
0.0
 10
184.994639
 20
136.429521
 30
0.0
 10
184.708833
 20
136.143716
 30
0.0
  0
SPLINE
  5
12c
100
AcDbEntity
  8
Layer_1
 62
7
100
AcDbSpline
 70
8
 71
3
 72
8
 73
4
 74
0
 40
0
 40
0
 40
0
 40
0
 40
1
 40
1
 40
1
 40
1
 10
184.708833
 20
136.143716
 30
0.0
 10
184.423028
 20
135.857910
 30
0.0
 10
184.262464
 20
135.470275
 30
0.0
 10
184.262464
 20
135.066085
 30
0.0
  0
LINE
  5
12d
100
AcDbEntity
  8
Layer_1
 62
7
100
AcDbLine
 10
184.262464
 20
135.066085
 30
0.0
 11
184.262464
 21
118.556085
 31
0.0
  0
SPLINE
  5
12e
100
AcDbEntity
  8
Layer_1
 62
7
100
AcDbSpline
 70
8
 71
3
 72
8
 73
4
 74
0
 40
0
 40
0
 40
0
 40
0
 40
1
 40
1
 40
1
 40
1
 10
184.262464
 20
118.556085
 30
0.0
 10
184.262464
 20
118.286625
 30
0.0
 10
184.155422
 20
118.028202
 30
0.0
 10
183.964885
 20
117.837665
 30
0.0
  0
SPLINE
  5
12f
100
AcDbEntity
  8
Layer_1
 62
7
100
AcDbSpline
 70
8
 71
3
 72
8
 73
4
 74
0
 40
0
 40
0
 40
0
 40
0
 40
1
 40
1
 40
1
 40
1
 10
183.964885
 20
117.837665
 30
0.0
 10
183.774348
 20
117.647128
 30
0.0
 10
183.515924
 20
117.540085
 30
0.0
 10
183.246464
 20
117.540085
 30
0.0
  0
LINE
  5
130
100
AcDbEntity
  8
Layer_1
 62
7
100
AcDbLine
 10
183.246464
 20
117.540085
 30
0.0
 11
146.670465
 21
117.540085
 31
0.0
  0
SPLINE
  5
131
100
AcDbEntity
  8
Layer_1
 62
7
100
AcDbSpline
 70
8
 71
3
 72
8
 73
4
 74
0
 40
0
 40
0
 40
0
 40
0
 40
1
 40
1
 40
1
 40
1
 10
146.670465
 20
117.540085
 30
0.0
 10
146.401005
 20
117.540085
 30
0.0
 10
146.142581
 20
117.647128
 30
0.0
 10
145.952044
 20
117.837665
 30
0.0
  0
SPLINE
  5
132
100
AcDbEntity
  8
Layer_1
 62
7
100
AcDbSpline
 70
8
 71
3
 72
8
 73
4
 74
0
 40
0
 40
0
 40
0
 40
0
 40
1
 40
1
 40
1
 40
1
 10
145.952044
 20
117.837665
 30
0.0
 10
145.761507
 20
118.028202
 30
0.0
 10
145.654465
 20
118.286625
 30
0.0
 10
145.654465
 20
118.556085
 30
0.0
  0
SPLINE
  5
133
100
AcDbEntity
  8
Layer_1
 62
7
100
AcDbSpline
 70
8
 71
3
 72
8
 73
4
 74
0
 40
0
 40
0
 40
0
 40
0
 40
1
 40
1
 40
1
 40
1
 10
145.654465
 20
118.556085
 30
0.0
 10
145.654465
 20
118.556085
 30
0.0
 10
145.654465
 20
119.191085
 30
0.0
 10
145.654465
 20
119.191085
 30
0.0
  0
SPLINE
  5
134
100
AcDbEntity
  8
Layer_1
 62
7
100
AcDbSpline
 70
8
 71
3
 72
8
 73
4
 74
0
 40
0
 40
0
 40
0
 40
0
 40
1
 40
1
 40
1
 40
1
 10
145.654465
 20
119.191085
 30
0.0
 10
145.654465
 20
119.595275
 30
0.0
 10
145.493901
 20
119.982911
 30
0.0
 10
145.208095
 20
120.268716
 30
0.0
  0
SPLINE
  5
135
100
AcDbEntity
  8
Layer_1
 62
7
100
AcDbSpline
 70
8
 71
3
 72
8
 73
4
 74
0
 40
0
 40
0
 40
0
 40
0
 40
1
 40
1
 40
1
 40
1
 10
145.208095
 20
120.268716
 30
0.0
 10
144.922290
 20
120.554521
 30
0.0
 10
144.534655
 20
120.715085
 30
0.0
 10
144.130465
 20
120.715085
 30
0.0
  0
SPLINE
  5
136
100
AcDbEntity
  8
Layer_1
 62
7
100
AcDbSpline
 70
8
 71
3
 72
8
 73
4
 74
0
 40
0
 40
0
 40
0
 40
0
 40
1
 40
1
 40
1
 40
1
 10
144.130465
 20
120.715085
 30
0.0
 10
144.130465
 20
120.715085
 30
0.0
 10
127.435108
 20
120.715085
 30
0.0
 10
127.435108
 20
120.715085
 30
0.0
  0
SPLINE
  5
137
100
AcDbEntity
  8
Layer_1
 62
7
100
AcDbSpline
 70
8
 71
3
 72
8
 73
4
 74
0
 40
0
 40
0
 40
0
 40
0
 40
1
 40
1
 40
1
 40
1
 10
127.435108
 20
120.715085
 30
0.0
 10
127.021103
 20
120.715086
 30
0.0
 10
126.648505
 20
120.966292
 30
0.0
 10
126.493253
 20
121.350085
 30
0.0
  0
SPLINE
  5
138
100
AcDbEntity
  8
Layer_1
 62
7
100
AcDbSpline
 70
8
 71
3
 72
8
 73
4
 74
0
 40
0
 40
0
 40
0
 40
0
 40
1
 40
1
 40
1
 40
1
 10
126.493253
 20
121.350085
 30
0.0
 10
126.260374
 20
121.925777
 30
0.0
 10
125.701475
 20
122.302586
 30
0.0
 10
125.080465
 20
122.302585
 30
0.0
  0
SPLINE
  5
139
100
AcDbEntity
  8
Layer_1
 62
7
100
AcDbSpline
 70
8
 71
3
 72
8
 73
4
 74
0
 40
0
 40
0
 40
0
 40
0
 40
1
 40
1
 40
1
 40
1
 10
125.080465
 20
122.302585
 30
0.0
 10
125.080465
 20
122.302585
 30
0.0
 10
109.586465
 20
122.302585
 30
0.0
 10
109.586465
 20
122.302585
 30
0.0
  0
SPLINE
  5
13a
100
AcDbEntity
  8
Layer_1
 62
7
100
AcDbSpline
 70
8
 71
3
 72
8
 73
4
 74
0
 40
0
 40
0
 40
0
 40
0
 40
1
 40
1
 40
1
 40
1
 10
109.586465
 20
122.302585
 30
0.0
 10
108.965456
 20
122.302585
 30
0.0
 10
108.406558
 20
121.925776
 30
0.0
 10
108.173680
 20
121.350085
 30
0.0
  0
SPLINE
  5
13b
100
AcDbEntity
  8
Layer_1
 62
7
100
AcDbSpline
 70
8
 71
3
 72
8
 73
4
 74
0
 40
0
 40
0
 40
0
 40
0
 40
1
 40
1
 40
1
 40
1
 10
108.173680
 20
121.350085
 30
0.0
 10
108.018428
 20
120.966292
 30
0.0
 10
107.645830
 20
120.715086
 30
0.0
 10
107.231824
 20
120.715085
 30
0.0
  0
LINE
  5
13c
100
AcDbEntity
  8
Layer_1
 62
7
100
AcDbLine
 10
107.231824
 20
120.715085
 30
0.0
 11
89.520465
 21
120.715085
 31
0.0
  0
SPLINE
  5
13d
100
AcDbEntity
  8
Layer_1
 62
7
100
AcDbSpline
 70
8
 71
3
 72
8
 73
4
 74
0
 40
0
 40
0
 40
0
 40
0
 40
1
 40
1
 40
1
 40
1
 10
89.520465
 20
120.715085
 30
0.0
 10
88.959344
 20
120.715085
 30
0.0
 10
88.504465
 20
121.169964
 30
0.0
 10
88.504465
 20
121.731085
 30
0.0
  0
LINE
  5
13e
100
AcDbEntity
  8
Layer_1
 62
7
100
AcDbLine
 10
88.504465
 20
121.731085
 30
0.0
 11
88.504465
 21
136.971085
 31
0.0
  0
SPLINE
  5
13f
100
AcDbEntity
  8
Layer_1
 62
7
100
AcDbSpline
 70
8
 71
3
 72
8
 73
4
 74
0
 40
0
 40
0
 40
0
 40
0
 40
1
 40
1
 40
1
 40
1
 10
88.504465
 20
136.971085
 30
0.0
 10
88.504465
 20
137.375275
 30
0.0
 10
88.343902
 20
137.762910
 30
0.0
 10
88.058096
 20
138.048716
 30
0.0
  0
SPLINE
  5
140
100
AcDbEntity
  8
Layer_1
 62
7
100
AcDbSpline
 70
8
 71
3
 72
8
 73
4
 74
0
 40
0
 40
0
 40
0
 40
0
 40
1
 40
1
 40
1
 40
1
 10
88.058096
 20
138.048716
 30
0.0
 10
87.772291
 20
138.334521
 30
0.0
 10
87.384655
 20
138.495085
 30
0.0
 10
86.980465
 20
138.495085
 30
0.0
  0
SPLINE
  5
141
100
AcDbEntity
  8
Layer_1
 62
7
100
AcDbSpline
 70
8
 71
3
 72
8
 73
4
 74
0
 40
0
 40
0
 40
0
 40
0
 40
1
 40
1
 40
1
 40
1
 10
86.980465
 20
138.495085
 30
0.0
 10
86.980465
 20
138.495085
 30
0.0
 10
72.499367
 20
138.495085
 30
0.0
 10
72.499367
 20
138.495085
 30
0.0
  0
SPLINE
  5
142
100
AcDbEntity
  8
Layer_1
 62
7
100
AcDbSpline
 70
8
 71
3
 72
8
 73
4
 74
0
 40
0
 40
0
 40
0
 40
0
 40
1
 40
1
 40
1
 40
1
 10
72.499367
 20
138.495085
 30
0.0
 10
71.978584
 20
138.495085
 30
0.0
 10
71.493856
 20
138.229154
 30
0.0
 10
71.214040
 20
137.789929
 30
0.0
  0
SPLINE
  5
143
100
AcDbEntity
  8
Layer_1
 62
7
100
AcDbSpline
 70
8
 71
3
 72
8
 73
4
 74
0
 40
0
 40
0
 40
0
 40
0
 40
1
 40
1
 40
1
 40
1
 10
71.214040
 20
137.789929
 30
0.0
 10
70.934223
 20
137.350705
 30
0.0
 10
70.898062
 20
136.799006
 30
0.0
 10
71.118155
 20
136.327015
 30
0.0
  0
LINE
  5
144
100
AcDbEntity
  8
Layer_1
 62
7
100
AcDbLine
 10
71.118155
 20
136.327015
 30
0.0
 11
85.718390
 21
105.016711
 31
0.0
  0
SPLINE
  5
145
100
AcDbEntity
  8
Layer_1
 62
7
100
AcDbSpline
 70
8
 71
3
 72
8
 73
4
 74
0
 40
0
 40
0
 40
0
 40
0
 40
1
 40
1
 40
1
 40
1
 10
85.718390
 20
105.016711
 30
0.0
 10
85.832269
 20
104.772497
 30
0.0
 10
85.844470
 20
104.493047
 30
0.0
 10
85.752309
 20
104.239837
 30
0.0
  0
SPLINE
  5
146
100
AcDbEntity
  8
Layer_1
 62
7
100
AcDbSpline
 70
8
 71
3
 72
8
 73
4
 74
0
 40
0
 40
0
 40
0
 40
0
 40
1
 40
1
 40
1
 40
1
 10
85.752309
 20
104.239837
 30
0.0
 10
85.660148
 20
103.986628
 30
0.0
 10
85.471175
 20
103.780399
 30
0.0
 10
85.226961
 20
103.666521
 30
0.0
  0
SPLINE
  5
147
100
AcDbEntity
  8
Layer_1
 62
7
100
AcDbSpline
 70
8
 71
3
 72
8
 73
4
 74
0
 40
0
 40
0
 40
0
 40
0
 40
1
 40
1
 40
1
 40
1
 10
85.226961
 20
103.666521
 30
0.0
 10
85.226961
 20
103.666521
 30
0.0
 10
34.812684
 20
80.157964
 30
0.0
 10
34.812684
 20
80.157964
 30
0.0
  0
SPLINE
  5
148
100
AcDbEntity
  8
Layer_1
 62
7
100
AcDbSpline
 70
8
 71
3
 72
8
 73
4
 74
0
 40
0
 40
0
 40
0
 40
0
 40
1
 40
1
 40
1
 40
1
 10
34.812684
 20
80.157964
 30
0.0
 10
34.304141
 20
79.920822
 30
0.0
 10
33.699644
 20
80.140834
 30
0.0
 10
33.462497
 20
80.649374
 30
0.0
  0
SPLINE
  5
149
100
AcDbEntity
  8
Layer_1
 62
7
100
AcDbSpline
 70
8
 71
3
 72
8
 73
4
 74
0
 40
0
 40
0
 40
0
 40
0
 40
1
 40
1
 40
1
 40
1
 10
33.462497
 20
80.649374
 30
0.0
 10
33.462497
 20
80.649374
 30
0.0
 10
9.953932
 20
131.063664
 30
0.0
 10
9.953932
 20
131.063664
 30
0.0
  0
SPLINE
  5
14a
100
AcDbEntity
  8
Layer_1
 62
7
100
AcDbSpline
 70
8
 71
3
 72
8
 73
4
 74
0
 40
0
 40
0
 40
0
 40
0
 40
1
 40
1
 40
1
 40
1
 10
9.953932
 20
131.063664
 30
0.0
 10
9.716793
 20
131.572212
 30
0.0
 10
9.936813
 20
132.176711
 30
0.0
 10
10.445361
 20
132.413852
 30
0.0
  0
SPLINE
  5
14b
100
AcDbEntity
  8
Layer_1
 62
7
100
AcDbSpline
 70
8
 71
3
 72
8
 73
4
 74
0
 40
0
 40
0
 40
0
 40
0
 40
1
 40
1
 40
1
 40
1
 10
10.445361
 20
132.413852
 30
0.0
 10
10.445361
 20
132.413852
 30
0.0
 10
43.594475
 20
147.871537
 30
0.0
 10
43.594475
 20
147.871537
 30
0.0
  0
SPLINE
  5
14c
100
AcDbEntity
  8
Layer_1
 62
7
100
AcDbSpline
 70
8
 71
3
 72
8
 73
4
 74
0
 40
0
 40
0
 40
0
 40
0
 40
1
 40
1
 40
1
 40
1
 10
43.594475
 20
147.871537
 30
0.0
 10
44.103023
 20
148.108676
 30
0.0
 10
44.707522
 20
147.888656
 30
0.0
 10
44.944662
 20
147.380108
 30
0.0
  0
LINE
  5
14d
100
AcDbEntity
  8
Layer_1
 62
7
100
AcDbLine
 10
44.944662
 20
147.380108
 30
0.0
 11
51.922089
 21
132.416968
 31
0.0
  0
SPLINE
  5
14e
100
AcDbEntity
  8
Layer_1
 62
7
100
AcDbSpline
 70
8
 71
3
 72
8
 73
4
 74
0
 40
0
 40
0
 40
0
 40
0
 40
1
 40
1
 40
1
 40
1
 10
51.922089
 20
132.416968
 30
0.0
 10
52.092908
 20
132.050648
 30
0.0
 10
52.402250
 20
131.767188
 30
0.0
 10
52.782065
 20
131.628947
 30
0.0
  0
SPLINE
  5
14f
100
AcDbEntity
  8
Layer_1
 62
7
100
AcDbSpline
 70
8
 71
3
 72
8
 73
4
 74
0
 40
0
 40
0
 40
0
 40
0
 40
1
 40
1
 40
1
 40
1
 10
52.782065
 20
131.628947
 30
0.0
 10
53.161879
 20
131.490705
 30
0.0
 10
53.581054
 20
131.509007
 30
0.0
 10
53.947374
 20
131.679826
 30
0.0
  0
LINE
  5
150
100
AcDbEntity
  8
Layer_1
 62
7
100
AcDbLine
 10
53.947374
 20
131.679826
 30
0.0
 11
64.409248
 21
136.558277
 31
0.0
  0
LINE
  5
151
100
AcDbEntity
  8
Layer_1
 62
7
100
AcDbLine
 10
70.488161
 20
240.555094
 30
0.0
 11
70.494511
 21
242.055874
 31
0.0
  0
LINE
  5
152
100
AcDbEntity
  8
Layer_1
 62
7
100
AcDbLine
 10
70.494511
 20
242.055874
 30
0.0
 11
56.614808
 21
247.168891
 31
0.0
  0
LINE
  5
153
100
AcDbEntity
  8
Layer_1
 62
7
100
AcDbLine
 10
56.614808
 20
247.168891
 30
0.0
 11
48.501807
 21
247.168891
 31
0.0
  0
SPLINE
  5
154
100
AcDbEntity
  8
Layer_1
 62
7
100
AcDbSpline
 70
8
 71
3
 72
8
 73
4
 74
0
 40
0
 40
0
 40
0
 40
0
 40
1
 40
1
 40
1
 40
1
 10
48.501807
 20
247.168891
 30
0.0
 10
44.635814
 20
247.168891
 30
0.0
 10
41.501808
 20
244.034886
 30
0.0
 10
41.501808
 20
240.168892
 30
0.0
  0
LINE
  5
155
100
AcDbEntity
  8
Layer_1
 62
7
100
AcDbLine
 10
41.501808
 20
240.168892
 30
0.0
 11
41.501808
 21
161.280197
 31
0.0
  0
SPLINE
  5
156
100
AcDbEntity
  8
Layer_1
 62
7
100
AcDbSpline
 70
8
 71
3
 72
8
 73
4
 74
0
 40
0
 40
0
 40
0
 40
0
 40
1
 40
1
 40
1
 40
1
 10
41.501808
 20
161.280197
 30
0.0
 10
41.501808
 20
158.559696
 30
0.0
 10
39.925577
 20
156.085596
 30
0.0
 10
37.459928
 20
154.935944
 30
0.0
  0
LINE
  5
157
100
AcDbEntity
  8
Layer_1
 62
7
100
AcDbLine
 10
37.459928
 20
154.935944
 30
0.0
 11
4.049694
 21
139.357825
 31
0.0
  0
SPLINE
  5
158
100
AcDbEntity
  8
Layer_1
 62
7
100
AcDbSpline
 70
8
 71
3
 72
8
 73
4
 74
0
 40
0
 40
0
 40
0
 40
0
 40
1
 40
1
 40
1
 40
1
 10
4.049694
 20
139.357825
 30
0.0
 10
0.545789
 20
137.724065
 30
0.0
 10
-0.970210
 20
133.559127
 30
0.0
 10
0.663650
 20
130.055268
 30
0.0
  0
LINE
  5
159
100
AcDbEntity
  8
Layer_1
 62
7
100
AcDbLine
 10
0.663650
 20
130.055268
 30
0.0
 11
26.628037
 21
74.373987
 31
0.0
  0
SPLINE
  5
15a
100
AcDbEntity
  8
Layer_1
 62
7
100
AcDbSpline
 70
8
 71
3
 72
8
 73
4
 74
0
 40
0
 40
0
 40
0
 40
0
 40
1
 40
1
 40
1
 40
1
 10
26.628037
 20
74.373987
 30
0.0
 10
28.261775
 20
70.870401
 30
0.0
 10
32.426298
 20
69.354444
 30
0.0
 10
35.930019
 20
70.987903
 30
0.0
  0
LINE
  5
15b
100
AcDbEntity
  8
Layer_1
 62
7
100
AcDbLine
 10
35.930019
 20
70.987903
 30
0.0
 11
115.497998
 21
108.083287
 31
0.0
  0
SPLINE
  5
15c
100
AcDbEntity
  8
Layer_1
 62
7
100
AcDbSpline
 70
8
 71
3
 72
8
 73
4
 74
0
 40
0
 40
0
 40
0
 40
0
 40
1
 40
1
 40
1
 40
1
 10
115.497998
 20
108.083287
 30
0.0
 10
116.424256
 20
108.515119
 30
0.0
 10
117.433837
 20
108.738893
 30
0.0
 10
118.455814
 20
108.738893
 30
0.0
  0
LINE
  5
15d
100
AcDbEntity
  8
Layer_1
 62
7
100
AcDbLine
 10
118.455814
 20
108.738893
 30
0.0
 11
195.588607
 21
108.738893
 31
0.0
  0
SPLINE
  5
15e
100
AcDbEntity
  8
Layer_1
 62
7
100
AcDbSpline
 70
8
 71
3
 72
8
 73
4
 74
0
 40
0
 40
0
 40
0
 40
0
 40
1
 40
1
 40
1
 40
1
 10
195.588607
 20
108.738893
 30
0.0
 10
199.454601
 20
108.738893
 30
0.0
 10
202.588606
 20
111.872901
 30
0.0
 10
202.588606
 20
115.738895
 30
0.0
  0
LINE
  5
15f
100
AcDbEntity
  8
Layer_1
 62
7
100
AcDbLine
 10
202.588606
 20
115.738895
 30
0.0
 11
202.588606
 21
240.168892
 31
0.0
  0
SPLINE
  5
160
100
AcDbEntity
  8
Layer_1
 62
7
100
AcDbSpline
 70
8
 71
3
 72
8
 73
4
 74
0
 40
0
 40
0
 40
0
 40
0
 40
1
 40
1
 40
1
 40
1
 10
202.588606
 20
240.168892
 30
0.0
 10
202.588606
 20
244.034886
 30
0.0
 10
199.454601
 20
247.168891
 30
0.0
 10
195.588607
 20
247.168891
 30
0.0
  0
LINE
  5
161
100
AcDbEntity
  8
Layer_1
 62
7
100
AcDbLine
 10
195.588607
 20
247.168891
 30
0.0
 11
142.215691
 21
247.168891
 31
0.0
  0
LINE
  5
162
100
AcDbEntity
  8
Layer_1
 62
7
100
AcDbLine
 10
142.215691
 20
247.168891
 30
0.0
 11
136.590340
 21
242.055874
 31
0.0
  0
LINE
  5
163
100
AcDbEntity
  8
Layer_1
 62
7
100
AcDbLine
 10
136.590340
 20
242.055874
 30
0.0
 11
115.906609
 21
242.055874
 31
0.0
  0
LINE
  5
164
100
AcDbEntity
  8
Layer_1
 62
7
100
AcDbLine
 10
115.906609
 20
242.055874
 30
0.0
 11
107.534857
 21
247.168891
 31
0.0
  0
LINE
  5
165
100
AcDbEntity
  8
Layer_1
 62
7
100
AcDbLine
 10
107.534857
 20
247.168891
 30
0.0
 11
91.717608
 21
247.168891
 31
0.0
  0
LINE
  5
166
100
AcDbEntity
  8
Layer_1
 62
7
100
AcDbLine
 10
91.717608
 20
247.168891
 30
0.0
 11
77.837908
 21
242.055874
 31
0.0
  0
SPLINE
  5
167
100
AcDbEntity
  8
Layer_1
 62
7
100
AcDbSpline
 70
8
 71
3
 72
8
 73
4
 74
0
 40
0
 40
0
 40
0
 40
0
 40
1
 40
1
 40
1
 40
1
 10
77.837908
 20
242.055874
 30
0.0
 10
77.836849
 20
241.555613
 30
0.0
 10
77.841850
 20
241.055294
 30
0.0
 10
77.833886
 20
240.555094
 30
0.0
  0
SPLINE
  5
168
100
AcDbEntity
  8
Layer_1
 62
7
100
AcDbSpline
 70
8
 71
3
 72
8
 73
4
 74
0
 40
0
 40
0
 40
0
 40
0
 40
1
 40
1
 40
1
 40
1
 10
102.755352
 20
242.723796
 30
0.0
 10
102.755742
 20
243.259954
 30
0.0
 10
102.469929
 20
243.755552
 30
0.0
 10
102.005668
 20
244.023743
 30
0.0
  0
SPLINE
  5
169
100
AcDbEntity
  8
Layer_1
 62
7
100
AcDbSpline
 70
8
 71
3
 72
8
 73
4
 74
0
 40
0
 40
0
 40
0
 40
0
 40
1
 40
1
 40
1
 40
1
 10
102.005668
 20
244.023743
 30
0.0
 10
101.541406
 20
244.291935
 30
0.0
 10
100.969299
 20
244.291935
 30
0.0
 10
100.505038
 20
244.023743
 30
0.0
  0
SPLINE
  5
16a
100
AcDbEntity
  8
Layer_1
 62
7
100
AcDbSpline
 70
8
 71
3
 72
8
 73
4
 74
0
 40
0
 40
0
 40
0
 40
0
 40
1
 40
1
 40
1
 40
1
 10
100.505038
 20
244.023743
 30
0.0
 10
100.040776
 20
243.755552
 30
0.0
 10
99.754963
 20
243.259954
 30
0.0
 10
99.755353
 20
242.723796
 30
0.0
  0
SPLINE
  5
16b
100
AcDbEntity
  8
Layer_1
 62
7
100
AcDbSpline
 70
8
 71
3
 72
8
 73
4
 74
0
 40
0
 40
0
 40
0
 40
0
 40
1
 40
1
 40
1
 40
1
 10
99.755353
 20
242.723796
 30
0.0
 10
99.754963
 20
242.187638
 30
0.0
 10
100.040776
 20
241.692040
 30
0.0
 10
100.505038
 20
241.423849
 30
0.0
  0
SPLINE
  5
16c
100
AcDbEntity
  8
Layer_1
 62
7
100
AcDbSpline
 70
8
 71
3
 72
8
 73
4
 74
0
 40
0
 40
0
 40
0
 40
0
 40
1
 40
1
 40
1
 40
1
 10
100.505038
 20
241.423849
 30
0.0
 10
100.969299
 20
241.155657
 30
0.0
 10
101.541406
 20
241.155657
 30
0.0
 10
102.005668
 20
241.423849
 30
0.0
  0
SPLINE
  5
16d
100
AcDbEntity
  8
Layer_1
 62
7
100
AcDbSpline
 70
8
 71
3
 72
8
 73
4
 74
0
 40
0
 40
0
 40
0
 40
0
 40
1
 40
1
 40
1
 40
1
 10
102.005668
 20
241.423849
 30
0.0
 10
102.469929
 20
241.692040
 30
0.0
 10
102.755742
 20
242.187638
 30
0.0
 10
102.755352
 20
242.723796
 30
0.0
  0
LINE
  5
16e
100
AcDbEntity
  8
Layer_1
 62
7
100
AcDbLine
 10
102.755352
 20
242.723796
 30
0.0
 11
102.755352
 21
242.723796
 31
0.0
  0
SPLINE
  5
16f
100
AcDbEntity
  8
Layer_1
 62
7
100
AcDbSpline
 70
8
 71
3
 72
8
 73
4
 74
0
 40
0
 40
0
 40
0
 40
0
 40
1
 40
1
 40
1
 40
1
 10
197.824731
 20
240.905016
 30
0.0
 10
197.825049
 20
241.441126
 30
0.0
 10
197.539220
 20
241.936649
 30
0.0
 10
197.074988
 20
242.204796
 30
0.0
  0
SPLINE
  5
170
100
AcDbEntity
  8
Layer_1
 62
7
100
AcDbSpline
 70
8
 71
3
 72
8
 73
4
 74
0
 40
0
 40
0
 40
0
 40
0
 40
1
 40
1
 40
1
 40
1
 10
197.074988
 20
242.204796
 30
0.0
 10
196.610756
 20
242.472943
 30
0.0
 10
196.038706
 20
242.472943
 30
0.0
 10
195.574474
 20
242.204796
 30
0.0
  0
SPLINE
  5
171
100
AcDbEntity
  8
Layer_1
 62
7
100
AcDbSpline
 70
8
 71
3
 72
8
 73
4
 74
0
 40
0
 40
0
 40
0
 40
0
 40
1
 40
1
 40
1
 40
1
 10
195.574474
 20
242.204796
 30
0.0
 10
195.110242
 20
241.936649
 30
0.0
 10
194.824413
 20
241.441126
 30
0.0
 10
194.824731
 20
240.905016
 30
0.0
  0
SPLINE
  5
172
100
AcDbEntity
  8
Layer_1
 62
7
100
AcDbSpline
 70
8
 71
3
 72
8
 73
4
 74
0
 40
0
 40
0
 40
0
 40
0
 40
1
 40
1
 40
1
 40
1
 10
194.824731
 20
240.905016
 30
0.0
 10
194.824413
 20
240.368905
 30
0.0
 10
195.110242
 20
239.873382
 30
0.0
 10
195.574474
 20
239.605235
 30
0.0
  0
SPLINE
  5
173
100
AcDbEntity
  8
Layer_1
 62
7
100
AcDbSpline
 70
8
 71
3
 72
8
 73
4
 74
0
 40
0
 40
0
 40
0
 40
0
 40
1
 40
1
 40
1
 40
1
 10
195.574474
 20
239.605235
 30
0.0
 10
196.038706
 20
239.337088
 30
0.0
 10
196.610756
 20
239.337088
 30
0.0
 10
197.074988
 20
239.605235
 30
0.0
  0
SPLINE
  5
174
100
AcDbEntity
  8
Layer_1
 62
7
100
AcDbSpline
 70
8
 71
3
 72
8
 73
4
 74
0
 40
0
 40
0
 40
0
 40
0
 40
1
 40
1
 40
1
 40
1
 10
197.074988
 20
239.605235
 30
0.0
 10
197.539220
 20
239.873382
 30
0.0
 10
197.825049
 20
240.368905
 30
0.0
 10
197.824731
 20
240.905016
 30
0.0
  0
LINE
  5
175
100
AcDbEntity
  8
Layer_1
 62
7
100
AcDbLine
 10
197.824731
 20
240.905016
 30
0.0
 11
197.824731
 21
240.905016
 31
0.0
  0
SPLINE
  5
176
100
AcDbEntity
  8
Layer_1
 62
7
100
AcDbSpline
 70
8
 71
3
 72
8
 73
4
 74
0
 40
0
 40
0
 40
0
 40
0
 40
1
 40
1
 40
1
 40
1
 10
197.824731
 20
116.590271
 30
0.0
 10
197.825049
 20
117.126381
 30
0.0
 10
197.539220
 20
117.621904
 30
0.0
 10
197.074988
 20
117.890051
 30
0.0
  0
SPLINE
  5
177
100
AcDbEntity
  8
Layer_1
 62
7
100
AcDbSpline
 70
8
 71
3
 72
8
 73
4
 74
0
 40
0
 40
0
 40
0
 40
0
 40
1
 40
1
 40
1
 40
1
 10
197.074988
 20
117.890051
 30
0.0
 10
196.610756
 20
118.158198
 30
0.0
 10
196.038706
 20
118.158198
 30
0.0
 10
195.574474
 20
117.890051
 30
0.0
  0
SPLINE
  5
178
100
AcDbEntity
  8
Layer_1
 62
7
100
AcDbSpline
 70
8
 71
3
 72
8
 73
4
 74
0
 40
0
 40
0
 40
0
 40
0
 40
1
 40
1
 40
1
 40
1
 10
195.574474
 20
117.890051
 30
0.0
 10
195.110242
 20
117.621904
 30
0.0
 10
194.824413
 20
117.126381
 30
0.0
 10
194.824731
 20
116.590271
 30
0.0
  0
SPLINE
  5
179
100
AcDbEntity
  8
Layer_1
 62
7
100
AcDbSpline
 70
8
 71
3
 72
8
 73
4
 74
0
 40
0
 40
0
 40
0
 40
0
 40
1
 40
1
 40
1
 40
1
 10
194.824731
 20
116.590271
 30
0.0
 10
194.824413
 20
116.054160
 30
0.0
 10
195.110242
 20
115.558638
 30
0.0
 10
195.574474
 20
115.290490
 30
0.0
  0
SPLINE
  5
17a
100
AcDbEntity
  8
Layer_1
 62
7
100
AcDbSpline
 70
8
 71
3
 72
8
 73
4
 74
0
 40
0
 40
0
 40
0
 40
0
 40
1
 40
1
 40
1
 40
1
 10
195.574474
 20
115.290490
 30
0.0
 10
196.038706
 20
115.022343
 30
0.0
 10
196.610756
 20
115.022343
 30
0.0
 10
197.074988
 20
115.290490
 30
0.0
  0
SPLINE
  5
17b
100
AcDbEntity
  8
Layer_1
 62
7
100
AcDbSpline
 70
8
 71
3
 72
8
 73
4
 74
0
 40
0
 40
0
 40
0
 40
0
 40
1
 40
1
 40
1
 40
1
 10
197.074988
 20
115.290490
 30
0.0
 10
197.539220
 20
115.558638
 30
0.0
 10
197.825049
 20
116.054160
 30
0.0
 10
197.824731
 20
116.590271
 30
0.0
  0
LINE
  5
17c
100
AcDbEntity
  8
Layer_1
 62
7
100
AcDbLine
 10
197.824731
 20
116.590271
 30
0.0
 11
197.824731
 21
116.590271
 31
0.0
  0
SPLINE
  5
17d
100
AcDbEntity
  8
Layer_1
 62
7
100
AcDbSpline
 70
8
 71
3
 72
8
 73
4
 74
0
 40
0
 40
0
 40
0
 40
0
 40
1
 40
1
 40
1
 40
1
 10
117.418772
 20
113.183798
 30
0.0
 10
117.419090
 20
113.719908
 30
0.0
 10
117.133262
 20
114.215431
 30
0.0
 10
116.669029
 20
114.483578
 30
0.0
  0
SPLINE
  5
17e
100
AcDbEntity
  8
Layer_1
 62
7
100
AcDbSpline
 70
8
 71
3
 72
8
 73
4
 74
0
 40
0
 40
0
 40
0
 40
0
 40
1
 40
1
 40
1
 40
1
 10
116.669029
 20
114.483578
 30
0.0
 10
116.204797
 20
114.751725
 30
0.0
 10
115.632748
 20
114.751725
 30
0.0
 10
115.168515
 20
114.483578
 30
0.0
  0
SPLINE
  5
17f
100
AcDbEntity
  8
Layer_1
 62
7
100
AcDbSpline
 70
8
 71
3
 72
8
 73
4
 74
0
 40
0
 40
0
 40
0
 40
0
 40
1
 40
1
 40
1
 40
1
 10
115.168515
 20
114.483578
 30
0.0
 10
114.704283
 20
114.215431
 30
0.0
 10
114.418454
 20
113.719908
 30
0.0
 10
114.418773
 20
113.183798
 30
0.0
  0
SPLINE
  5
180
100
AcDbEntity
  8
Layer_1
 62
7
100
AcDbSpline
 70
8
 71
3
 72
8
 73
4
 74
0
 40
0
 40
0
 40
0
 40
0
 40
1
 40
1
 40
1
 40
1
 10
114.418773
 20
113.183798
 30
0.0
 10
114.418454
 20
112.647687
 30
0.0
 10
114.704283
 20
112.152164
 30
0.0
 10
115.168515
 20
111.884017
 30
0.0
  0
SPLINE
  5
181
100
AcDbEntity
  8
Layer_1
 62
7
100
AcDbSpline
 70
8
 71
3
 72
8
 73
4
 74
0
 40
0
 40
0
 40
0
 40
0
 40
1
 40
1
 40
1
 40
1
 10
115.168515
 20
111.884017
 30
0.0
 10
115.632748
 20
111.615870
 30
0.0
 10
116.204797
 20
111.615870
 30
0.0
 10
116.669029
 20
111.884017
 30
0.0
  0
SPLINE
  5
182
100
AcDbEntity
  8
Layer_1
 62
7
100
AcDbSpline
 70
8
 71
3
 72
8
 73
4
 74
0
 40
0
 40
0
 40
0
 40
0
 40
1
 40
1
 40
1
 40
1
 10
116.669029
 20
111.884017
 30
0.0
 10
117.133262
 20
112.152164
 30
0.0
 10
117.419090
 20
112.647687
 30
0.0
 10
117.418772
 20
113.183798
 30
0.0
  0
LINE
  5
183
100
AcDbEntity
  8
Layer_1
 62
7
100
AcDbLine
 10
117.418772
 20
113.183798
 30
0.0
 11
117.418772
 21
113.183798
 31
0.0
  0
SPLINE
  5
184
100
AcDbEntity
  8
Layer_1
 62
7
100
AcDbSpline
 70
8
 71
3
 72
8
 73
4
 74
0
 40
0
 40
0
 40
0
 40
0
 40
1
 40
1
 40
1
 40
1
 10
102.755307
 20
242.723894
 30
0.0
 10
102.755626
 20
243.260004
 30
0.0
 10
102.469797
 20
243.755527
 30
0.0
 10
102.005565
 20
244.023674
 30
0.0
  0
SPLINE
  5
185
100
AcDbEntity
  8
Layer_1
 62
7
100
AcDbSpline
 70
8
 71
3
 72
8
 73
4
 74
0
 40
0
 40
0
 40
0
 40
0
 40
1
 40
1
 40
1
 40
1
 10
102.005565
 20
244.023674
 30
0.0
 10
101.541332
 20
244.291821
 30
0.0
 10
100.969283
 20
244.291821
 30
0.0
 10
100.505050
 20
244.023674
 30
0.0
  0
SPLINE
  5
186
100
AcDbEntity
  8
Layer_1
 62
7
100
AcDbSpline
 70
8
 71
3
 72
8
 73
4
 74
0
 40
0
 40
0
 40
0
 40
0
 40
1
 40
1
 40
1
 40
1
 10
100.505050
 20
244.023674
 30
0.0
 10
100.040818
 20
243.755527
 30
0.0
 10
99.754990
 20
243.260004
 30
0.0
 10
99.755308
 20
242.723894
 30
0.0
  0
SPLINE
  5
187
100
AcDbEntity
  8
Layer_1
 62
7
100
AcDbSpline
 70
8
 71
3
 72
8
 73
4
 74
0
 40
0
 40
0
 40
0
 40
0
 40
1
 40
1
 40
1
 40
1
 10
99.755308
 20
242.723894
 30
0.0
 10
99.754990
 20
242.187783
 30
0.0
 10
100.040818
 20
241.692261
 30
0.0
 10
100.505050
 20
241.424113
 30
0.0
  0
SPLINE
  5
188
100
AcDbEntity
  8
Layer_1
 62
7
100
AcDbSpline
 70
8
 71
3
 72
8
 73
4
 74
0
 40
0
 40
0
 40
0
 40
0
 40
1
 40
1
 40
1
 40
1
 10
100.505050
 20
241.424113
 30
0.0
 10
100.969283
 20
241.155966
 30
0.0
 10
101.541332
 20
241.155966
 30
0.0
 10
102.005565
 20
241.424113
 30
0.0
  0
SPLINE
  5
189
100
AcDbEntity
  8
Layer_1
 62
7
100
AcDbSpline
 70
8
 71
3
 72
8
 73
4
 74
0
 40
0
 40
0
 40
0
 40
0
 40
1
 40
1
 40
1
 40
1
 10
102.005565
 20
241.424113
 30
0.0
 10
102.469797
 20
241.692261
 30
0.0
 10
102.755626
 20
242.187783
 30
0.0
 10
102.755307
 20
242.723894
 30
0.0
  0
LINE
  5
18a
100
AcDbEntity
  8
Layer_1
 62
7
100
AcDbLine
 10
102.755307
 20
242.723894
 30
0.0
 11
102.755307
 21
242.723894
 31
0.0
  0
SPLINE
  5
18b
100
AcDbEntity
  8
Layer_1
 62
7
100
AcDbSpline
 70
8
 71
3
 72
8
 73
4
 74
0
 40
0
 40
0
 40
0
 40
0
 40
1
 40
1
 40
1
 40
1
 10
49.272033
 20
240.905016
 30
0.0
 10
49.272352
 20
241.441126
 30
0.0
 10
48.986523
 20
241.936649
 30
0.0
 10
48.522291
 20
242.204796
 30
0.0
  0
SPLINE
  5
18c
100
AcDbEntity
  8
Layer_1
 62
7
100
AcDbSpline
 70
8
 71
3
 72
8
 73
4
 74
0
 40
0
 40
0
 40
0
 40
0
 40
1
 40
1
 40
1
 40
1
 10
48.522291
 20
242.204796
 30
0.0
 10
48.058059
 20
242.472943
 30
0.0
 10
47.486009
 20
242.472943
 30
0.0
 10
47.021777
 20
242.204796
 30
0.0
  0
SPLINE
  5
18d
100
AcDbEntity
  8
Layer_1
 62
7
100
AcDbSpline
 70
8
 71
3
 72
8
 73
4
 74
0
 40
0
 40
0
 40
0
 40
0
 40
1
 40
1
 40
1
 40
1
 10
47.021777
 20
242.204796
 30
0.0
 10
46.557544
 20
241.936649
 30
0.0
 10
46.271716
 20
241.441126
 30
0.0
 10
46.272034
 20
240.905016
 30
0.0
  0
SPLINE
  5
18e
100
AcDbEntity
  8
Layer_1
 62
7
100
AcDbSpline
 70
8
 71
3
 72
8
 73
4
 74
0
 40
0
 40
0
 40
0
 40
0
 40
1
 40
1
 40
1
 40
1
 10
46.272034
 20
240.905016
 30
0.0
 10
46.271716
 20
240.368905
 30
0.0
 10
46.557544
 20
239.873382
 30
0.0
 10
47.021777
 20
239.605235
 30
0.0
  0
SPLINE
  5
18f
100
AcDbEntity
  8
Layer_1
 62
7
100
AcDbSpline
 70
8
 71
3
 72
8
 73
4
 74
0
 40
0
 40
0
 40
0
 40
0
 40
1
 40
1
 40
1
 40
1
 10
47.021777
 20
239.605235
 30
0.0
 10
47.486009
 20
239.337088
 30
0.0
 10
48.058059
 20
239.337088
 30
0.0
 10
48.522291
 20
239.605235
 30
0.0
  0
SPLINE
  5
190
100
AcDbEntity
  8
Layer_1
 62
7
100
AcDbSpline
 70
8
 71
3
 72
8
 73
4
 74
0
 40
0
 40
0
 40
0
 40
0
 40
1
 40
1
 40
1
 40
1
 10
48.522291
 20
239.605235
 30
0.0
 10
48.986523
 20
239.873382
 30
0.0
 10
49.272352
 20
240.368905
 30
0.0
 10
49.272033
 20
240.905016
 30
0.0
  0
LINE
  5
191
100
AcDbEntity
  8
Layer_1
 62
7
100
AcDbLine
 10
49.272033
 20
240.905016
 30
0.0
 11
49.272033
 21
240.905016
 31
0.0
  0
SPLINE
  5
192
100
AcDbEntity
  8
Layer_1
 62
7
100
AcDbSpline
 70
8
 71
3
 72
8
 73
4
 74
0
 40
0
 40
0
 40
0
 40
0
 40
1
 40
1
 40
1
 40
1
 10
7.530074
 20
133.369378
 30
0.0
 10
7.530074
 20
133.905277
 30
0.0
 10
7.244176
 20
134.400467
 30
0.0
 10
6.780074
 20
134.668416
 30
0.0
  0
SPLINE
  5
193
100
AcDbEntity
  8
Layer_1
 62
7
100
AcDbSpline
 70
8
 71
3
 72
8
 73
4
 74
0
 40
0
 40
0
 40
0
 40
0
 40
1
 40
1
 40
1
 40
1
 10
6.780074
 20
134.668416
 30
0.0
 10
6.315972
 20
134.936366
 30
0.0
 10
5.744176
 20
134.936366
 30
0.0
 10
5.280074
 20
134.668416
 30
0.0
  0
SPLINE
  5
194
100
AcDbEntity
  8
Layer_1
 62
7
100
AcDbSpline
 70
8
 71
3
 72
8
 73
4
 74
0
 40
0
 40
0
 40
0
 40
0
 40
1
 40
1
 40
1
 40
1
 10
5.280074
 20
134.668416
 30
0.0
 10
4.815973
 20
134.400467
 30
0.0
 10
4.530074
 20
133.905277
 30
0.0
 10
4.530074
 20
133.369378
 30
0.0
  0
SPLINE
  5
195
100
AcDbEntity
  8
Layer_1
 62
7
100
AcDbSpline
 70
8
 71
3
 72
8
 73
4
 74
0
 40
0
 40
0
 40
0
 40
0
 40
1
 40
1
 40
1
 40
1
 10
4.530074
 20
133.369378
 30
0.0
 10
4.530074
 20
132.833480
 30
0.0
 10
4.815972
 20
132.338289
 30
0.0
 10
5.280074
 20
132.070340
 30
0.0
  0
SPLINE
  5
196
100
AcDbEntity
  8
Layer_1
 62
7
100
AcDbSpline
 70
8
 71
3
 72
8
 73
4
 74
0
 40
0
 40
0
 40
0
 40
0
 40
1
 40
1
 40
1
 40
1
 10
5.280074
 20
132.070340
 30
0.0
 10
5.744176
 20
131.802391
 30
0.0
 10
6.315972
 20
131.802391
 30
0.0
 10
6.780074
 20
132.070340
 30
0.0
  0
SPLINE
  5
197
100
AcDbEntity
  8
Layer_1
 62
7
100
AcDbSpline
 70
8
 71
3
 72
8
 73
4
 74
0
 40
0
 40
0
 40
0
 40
0
 40
1
 40
1
 40
1
 40
1
 10
6.780074
 20
132.070340
 30
0.0
 10
7.244176
 20
132.338289
 30
0.0
 10
7.530074
 20
132.833480
 30
0.0
 10
7.530074
 20
133.369378
 30
0.0
  0
LINE
  5
198
100
AcDbEntity
  8
Layer_1
 62
7
100
AcDbLine
 10
7.530074
 20
133.369378
 30
0.0
 11
7.530074
 21
133.369378
 31
0.0
  0
SPLINE
  5
199
100
AcDbEntity
  8
Layer_1
 62
7
100
AcDbSpline
 70
8
 71
3
 72
8
 73
4
 74
0
 40
0
 40
0
 40
0
 40
0
 40
1
 40
1
 40
1
 40
1
 10
34.116512
 20
76.353309
 30
0.0
 10
34.116512
 20
76.889207
 30
0.0
 10
33.830614
 20
77.384398
 30
0.0
 10
33.366512
 20
77.652347
 30
0.0
  0
SPLINE
  5
19a
100
AcDbEntity
  8
Layer_1
 62
7
100
AcDbSpline
 70
8
 71
3
 72
8
 73
4
 74
0
 40
0
 40
0
 40
0
 40
0
 40
1
 40
1
 40
1
 40
1
 10
33.366512
 20
77.652347
 30
0.0
 10
32.902410
 20
77.920297
 30
0.0
 10
32.330613
 20
77.920297
 30
0.0
 10
31.866511
 20
77.652347
 30
0.0
  0
SPLINE
  5
19b
100
AcDbEntity
  8
Layer_1
 62
7
100
AcDbSpline
 70
8
 71
3
 72
8
 73
4
 74
0
 40
0
 40
0
 40
0
 40
0
 40
1
 40
1
 40
1
 40
1
 10
31.866511
 20
77.652347
 30
0.0
 10
31.402409
 20
77.384398
 30
0.0
 10
31.116510
 20
76.889207
 30
0.0
 10
31.116510
 20
76.353309
 30
0.0
  0
SPLINE
  5
19c
100
AcDbEntity
  8
Layer_1
 62
7
100
AcDbSpline
 70
8
 71
3
 72
8
 73
4
 74
0
 40
0
 40
0
 40
0
 40
0
 40
1
 40
1
 40
1
 40
1
 10
31.116510
 20
76.353309
 30
0.0
 10
31.116510
 20
75.817410
 30
0.0
 10
31.402409
 20
75.322219
 30
0.0
 10
31.866511
 20
75.054270
 30
0.0
  0
SPLINE
  5
19d
100
AcDbEntity
  8
Layer_1
 62
7
100
AcDbSpline
 70
8
 71
3
 72
8
 73
4
 74
0
 40
0
 40
0
 40
0
 40
0
 40
1
 40
1
 40
1
 40
1
 10
31.866511
 20
75.054270
 30
0.0
 10
32.330613
 20
74.786320
 30
0.0
 10
32.902410
 20
74.786320
 30
0.0
 10
33.366512
 20
75.054270
 30
0.0
  0
SPLINE
  5
19e
100
AcDbEntity
  8
Layer_1
 62
7
100
AcDbSpline
 70
8
 71
3
 72
8
 73
4
 74
0
 40
0
 40
0
 40
0
 40
0
 40
1
 40
1
 40
1
 40
1
 10
33.366512
 20
75.054270
 30
0.0
 10
33.830614
 20
75.322219
 30
0.0
 10
34.116512
 20
75.817410
 30
0.0
 10
34.116512
 20
76.353309
 30
0.0
  0
LINE
  5
19f
100
AcDbEntity
  8
Layer_1
 62
7
100
AcDbLine
 10
34.116512
 20
76.353309
 30
0.0
 11
34.116512
 21
76.353309
 31
0.0
  0
ENDSEC
  0
SECTION
  2
OBJECTS
  0
DICTIONARY
  5
C
330
0
100
AcDbDictionary
  3
ACAD_GROUP
350
D
  3
ACAD_MLINESTYLE
350
17
  0
DICTIONARY
  5
D
330
C
100
AcDbDictionary
  0
DICTIONARY
  5
1A
330
C
100
AcDbDictionary
  0
DICTIONARY
  5
17
330
C
100
AcDbDictionary
  3
STANDARD
350
18
  0
DICTIONARY
  5
19
330
C
100
AcDbDictionary
  0
ENDSEC
  0
EOF
