<?xml version="1.0" encoding="UTF-8" standalone="no"?>
<!-- Created with Inkscape (http://www.inkscape.org/) -->

<svg
   xmlns:dc="http://purl.org/dc/elements/1.1/"
   xmlns:cc="http://creativecommons.org/ns#"
   xmlns:rdf="http://www.w3.org/1999/02/22-rdf-syntax-ns#"
   xmlns:svg="http://www.w3.org/2000/svg"
   xmlns="http://www.w3.org/2000/svg"
   xmlns:sodipodi="http://sodipodi.sourceforge.net/DTD/sodipodi-0.dtd"
   xmlns:inkscape="http://www.inkscape.org/namespaces/inkscape"
   width="210mm"
   height="297mm"
   viewBox="0 0 210 297"
   version="1.1"
   id="svg7278"
   inkscape:version="0.92.3 (2405546, 2018-03-11)"
   sodipodi:docname="spacer_bottom.svg">
  <defs
     id="defs7272" />
  <sodipodi:namedview
     id="base"
     pagecolor="#ffffff"
     bordercolor="#666666"
     borderopacity="1.0"
     inkscape:pageopacity="0.0"
     inkscape:pageshadow="2"
     inkscape:zoom="0.35"
     inkscape:cx="727.45436"
     inkscape:cy="1018.9229"
     inkscape:document-units="mm"
     inkscape:current-layer="layer1"
     showgrid="false"
     inkscape:window-width="1366"
     inkscape:window-height="705"
     inkscape:window-x="-8"
     inkscape:window-y="-8"
     inkscape:window-maximized="1" />
  <metadata
     id="metadata7275">
    <rdf:RDF>
      <cc:Work
         rdf:about="">
        <dc:format>image/svg+xml</dc:format>
        <dc:type
           rdf:resource="http://purl.org/dc/dcmitype/StillImage" />
        <dc:title />
      </cc:Work>
    </rdf:RDF>
  </metadata>
  <g
     inkscape:label="Layer 1"
     inkscape:groupmode="layer"
     id="layer1">
    <g
       style="display:inline"
       id="g6940"
       inkscape:label="0"
       transform="matrix(0.26458333,0,0,0.26458333,-6.9275247,-56.775327)">
      <path
         id="path6922"
         style="fill:none;stroke:#000000;stroke-linecap:round"
         d="m 793.8668,910.73319 a 5.669291,5.669291 0 1 0 -11.33858,0 5.669291,5.669291 0 1 0 11.33858,0 z"
         inkscape:connector-curvature="0" />
      <path
         id="path6924"
         style="fill:none;stroke:#000000;stroke-linecap:round"
         d="m 169.1904,1038.7501 -81.9552,-175.75681 5.808,-15.94561 125.0688,-58.32 h 18.528 v -325.92 l 12.096,-12 h 45.6 v -6.71999 h 64.896 v 6.71999 h 125.36743 v -6.71999 h 77.59514 l 0.17857,6.0057 203.89886,0.71429 12,12 v 408 l -36,36 H 480.576 l -295.44,137.74082 z"
         inkscape:connector-curvature="0"
         sodipodi:nodetypes="cccccccccccccccccccccc" />
      <path
         id="path6926"
         style="fill:none;stroke:#000000;stroke-linecap:round"
         d="m 793.8668,440.88218 a 5.669291,5.669291 0 1 0 -11.33858,0 5.669291,5.669291 0 1 0 11.33858,0 z"
         inkscape:connector-curvature="0" />
      <path
         id="path6928"
         style="fill:none;stroke:#000000;stroke-linecap:round"
         d="m 583.6909,417.20769 h 201.72441 c 14.61163,0 26.45669,11.84506 26.45669,26.45669 v 470.28661 c 0,14.61163 -11.84506,26.4567 -26.45669,26.4567 H 493.88979 c -3.86259,0 -7.67833,0.84576 -11.17915,2.47788 L 181.98127,1083.0886 c -13.24241,6.1737 -28.98234,0.4441 -35.1571,-12.7978 L 48.691055,859.84186 C 42.515833,846.59893 48.245594,830.85743 61.488701,824.68259 L 187.7636,765.80466 c 9.31899,-4.34514 15.2764,-13.69607 15.2764,-23.97828 v -298.162 c 0,-14.61163 11.84506,-26.45669 26.45669,-26.45669 H 260.16 l 52.45871,21.32479 h 27.75458 L 392.832,417.20769 h 59.78173 l 31.64127,23.32479 h 78.17473 z"
         inkscape:connector-curvature="0"
         sodipodi:nodetypes="csssssssssssssscccccccc" />
      <path
         id="path6930"
         style="fill:none;stroke:#000000;stroke-linecap:round"
         d="m 175.12707,1062.8099 a 5.669295,5.669295 0 1 0 -11.33859,0 5.669295,5.669295 0 1 0 11.33859,0 z"
         inkscape:connector-curvature="0" />
      <path
         id="path6932"
         style="fill:none;stroke:#000000;stroke-linecap:round"
         d="m 489.97009,923.60768 a 5.669291,5.669291 0 1 0 -11.33858,0 5.669291,5.669291 0 1 0 11.33858,0 z"
         inkscape:connector-curvature="0" />
      <path
         id="path6934"
         style="fill:none;stroke:#000000;stroke-linecap:round"
         d="m 74.642892,847.31609 a 5.669291,5.669291 0 1 0 -11.338582,0 5.669291,5.669291 0 1 0 11.338582,0 z"
         inkscape:connector-curvature="0" />
      <path
         id="path6936"
         style="fill:none;stroke:#000000;stroke-linecap:round"
         d="m 434.54929,434.00768 a 5.669291,5.669291 0 1 0 -11.33858,0 5.669291,5.669291 0 1 0 11.33858,0 z"
         inkscape:connector-curvature="0" />
      <path
         id="path6938"
         style="fill:none;stroke:#000000;stroke-linecap:round"
         d="m 232.40778,440.88218 a 5.669291,5.669291 0 1 0 -11.33858,0 5.669291,5.669291 0 1 0 11.33858,0 z"
         inkscape:connector-curvature="0" />
    </g>
  </g>
</svg>
