<?xml version="1.0" encoding="UTF-8" standalone="no"?>
<!-- Created with Inkscape (http://www.inkscape.org/) -->

<svg
   xmlns:dc="http://purl.org/dc/elements/1.1/"
   xmlns:cc="http://creativecommons.org/ns#"
   xmlns:rdf="http://www.w3.org/1999/02/22-rdf-syntax-ns#"
   xmlns:svg="http://www.w3.org/2000/svg"
   xmlns="http://www.w3.org/2000/svg"
   xmlns:sodipodi="http://sodipodi.sourceforge.net/DTD/sodipodi-0.dtd"
   xmlns:inkscape="http://www.inkscape.org/namespaces/inkscape"
   width="210mm"
   height="297mm"
   viewBox="0 0 210 297"
   version="1.1"
   id="svg7628"
   sodipodi:docname="spacer_top.svg"
   inkscape:version="0.92.3 (2405546, 2018-03-11)">
  <defs
     id="defs7622" />
  <sodipodi:namedview
     id="base"
     pagecolor="#ffffff"
     bordercolor="#666666"
     borderopacity="1.0"
     inkscape:pageopacity="0.0"
     inkscape:pageshadow="2"
     inkscape:zoom="0.49497475"
     inkscape:cx="179.95517"
     inkscape:cy="774.48832"
     inkscape:document-units="mm"
     inkscape:current-layer="layer1"
     showgrid="false"
     inkscape:window-width="1366"
     inkscape:window-height="705"
     inkscape:window-x="-8"
     inkscape:window-y="-8"
     inkscape:window-maximized="1"
     inkscape:measure-start="0,0"
     inkscape:measure-end="0,0" />
  <metadata
     id="metadata7625">
    <rdf:RDF>
      <cc:Work
         rdf:about="">
        <dc:format>image/svg+xml</dc:format>
        <dc:type
           rdf:resource="http://purl.org/dc/dcmitype/StillImage" />
      </cc:Work>
    </rdf:RDF>
  </metadata>
  <g
     inkscape:label="Layer 1"
     inkscape:groupmode="layer"
     id="layer1">
    <path
       sodipodi:nodetypes="ccccc"
       inkscape:connector-curvature="0"
       d="m 83.697941,39.801087 -0.04724,2.512873 m -12.777985,0 v -2.43019 l 2.639261,-0.06981"
       style="fill:none;stroke:#000000;stroke-width:0.26458332;stroke-linecap:round"
       id="path6426" />
    <path
       sodipodi:nodetypes="cccccccccccc"
       inkscape:connector-curvature="0"
       d="M 70.872709,42.31396 H 67.85987 l -0.06524,4.652999 v 14.835407 h 43.65294 m 17.74001,0 h 20.83616 v 0.01159 h 36.10617 l 0.1732,-19.499995 H 121.80462 83.650695"
       style="fill:none;stroke:#000000;stroke-width:0.26458332;stroke-linecap:round"
       id="path6428" />
    <path
       sodipodi:nodetypes="csssssssssssssssssscscsscsssssssscccscssccsssssssscsc"
       inkscape:connector-curvature="0"
       d="m 129.30563,62.308469 c 0.41401,0 0.78661,0.251206 0.94186,0.635 0.23288,0.575691 0.79178,0.9525 1.41278,0.9525 h 16.51 c 0.56112,0 1.016,0.45488 1.016,1.016 v 0.635 c 0,0.841682 0.68232,1.524 1.524,1.524 h 45.01214 c 0.55229,0 1.00001,0.447715 1.00001,1.000001 v 74.708 c 0,0.55228 -0.44772,1 -1.00001,1 h -6.91214 c -0.84168,0 -1.524,0.68232 -1.524,1.524 v 16.51 c 0,0.56112 -0.45488,1.016 -1.016,1.016 h -36.576 c -0.56112,0 -1.016,-0.45488 -1.016,-1.016 v -0.635 c 0,-0.84168 -0.68231,-1.524 -1.524,-1.524 h -16.69535 c -0.41401,0 -0.78661,-0.25121 -0.94186,-0.635 -0.23288,-0.57569 -0.79178,-0.9525 -1.41279,-0.9525 h -15.494 c -0.621,0 -1.1799,0.37681 -1.41278,0.9525 -0.15525,0.38379 -0.52785,0.635 -0.94186,0.635 H 92.544274 c -0.56112,0 -1.016,-0.45488 -1.016,-1.016 v -15.24 c 0,-0.84168 -0.682318,-1.524 -1.523999,-1.524 H 75.523176 c -1.114792,0 -1.852342,1.15772 -1.381212,2.16807 l 14.600235,31.3103 c 0.237141,0.50855 0.01712,1.11305 -0.491429,1.35019 l -50.414277,23.50856 c -0.508542,0.23715 -1.113041,0.0172 -1.350187,-0.49141 L 12.977741,149.30539 c -0.237138,-0.50855 -0.01712,-1.11305 0.491429,-1.35019 l 33.149114,-15.45768 c 0.508547,-0.23714 1.113046,-0.0171 1.350187,0.49142 l 6.977428,14.96314 c 0.355711,0.76283 1.262462,1.09286 2.025284,0.73715 l 10.461874,-4.87845 c 0.985369,-0.45949 0.657852,-1.93681 -0.429382,-1.93681 h -12.5594 c -0.56112,0 -1.016,-0.45488 -1.016,-1.016 V 66.181969 c 0,-0.56112 0.45488,-1.016 1.016,-1.016 h 35.56 c 0.544472,0 1.047585,-0.290473 1.319823,-0.762 0.181491,-0.314352 0.516901,-0.508 0.879883,-0.508 h 16.850289 c 0.62101,0 1.17991,-0.376809 1.41279,-0.9525 0.15525,-0.383794 0.52785,-0.635 0.94186,-0.635"
       style="fill:none;stroke:#000000;stroke-width:0.26458332;stroke-linecap:round"
       id="path6430" />
    <path
       sodipodi:nodetypes="ccccccsssssssssssssscccc"
       inkscape:connector-curvature="0"
       d="m 73.51197,39.813959 0.0065,-0.971513 -13.879809,-5.642284 h -8.113 c -3.865994,0 -7,3.134005 -7,6.999999 v 78.888699 c 0,2.7205 -1.576231,5.1946 -4.04188,6.34425 L 7.0735034,141.01123 c -3.5039054,1.63376 -5.0199046,5.7987 -3.3860438,9.30255 l 25.9643864,55.68129 c 1.633738,3.50358 5.798262,5.01954 9.301983,3.38608 l 79.567981,-37.09538 c 0.92626,-0.43184 1.93584,-0.65561 2.95781,-0.65561 h 77.1328 c 3.86599,0 7,-3.13401 7,-7 V 40.200161 c 0,-3.865994 -3.13401,-6.999999 -7,-6.999999 H 145.2395 l -5.62535,6.171351 h -20.68373 l -8.37175,-6.171351 H 94.741417 l -13.879595,5.642284 c -0.0011,0.500261 0.0038,0.471313 -0.0041,0.971513"
       style="fill:none;stroke:#000000;stroke-width:0.26458332;stroke-linecap:round"
       id="path6432" />
    <path
       inkscape:connector-curvature="0"
       d="m 106.75172,37.645257 a 2.47256,2.47256 0 1 0 -4.94512,0 2.47256,2.47256 0 1 0 4.94512,0 z"
       style="fill:none;stroke:#000000;stroke-width:0.43613192;stroke-linecap:round"
       id="path6434" />
    <path
       inkscape:connector-curvature="0"
       d="m 201.8211,39.464037 a 2.47256,2.47256 0 1 0 -4.94512,0 2.47256,2.47256 0 1 0 4.94512,0 z"
       style="fill:none;stroke:#000000;stroke-width:0.43613192;stroke-linecap:round"
       id="path6436" />
    <path
       inkscape:connector-curvature="0"
       d="m 201.8211,163.77878 a 2.47256,2.47256 0 1 0 -4.94512,0 2.47256,2.47256 0 1 0 4.94512,0 z"
       style="fill:none;stroke:#000000;stroke-width:0.43613192;stroke-linecap:round"
       id="path6438" />
    <path
       inkscape:connector-curvature="0"
       d="m 121.41514,167.18526 a 2.47256,2.47256 0 1 0 -4.94512,0 2.47256,2.47256 0 1 0 4.94512,0 z"
       style="fill:none;stroke:#000000;stroke-width:0.43613192;stroke-linecap:round"
       id="path6440" />
    <path
       inkscape:connector-curvature="0"
       d="m 106.75168,37.645159 a 2.47256,2.47256 0 1 0 -4.94512,0 2.47256,2.47256 0 1 0 4.94512,0 z"
       style="fill:none;stroke:#000000;stroke-width:0.43613192;stroke-linecap:round"
       id="path6442" />
    <path
       inkscape:connector-curvature="0"
       d="m 53.268008,39.464037 a 2.4721655,2.4721655 0 1 0 -4.944331,0 2.4721655,2.4721655 0 1 0 4.944331,0 z"
       style="fill:none;stroke:#000000;stroke-width:0.43606248;stroke-linecap:round"
       id="path6444" />
    <path
       inkscape:connector-curvature="0"
       d="m 11.526443,146.99967 a 2.4725595,2.4725595 0 1 0 -4.945119,0 2.4725595,2.4725595 0 1 0 4.945119,0 z"
       style="fill:none;stroke:#000000;stroke-width:0.43613192;stroke-linecap:round"
       id="path6446" />
    <path
       inkscape:connector-curvature="0"
       d="m 38.112487,204.01574 a 2.4721665,2.4721665 0 1 0 -4.944333,0 2.4721665,2.4721665 0 1 0 4.944333,0 z"
       style="fill:none;stroke:#000000;stroke-width:0.43606237;stroke-linecap:round"
       id="path6448" />
    <path
       style="display:inline;fill:none;stroke:#000000;stroke-width:0.26458332px;stroke-linecap:butt;stroke-linejoin:miter;stroke-opacity:1"
       d="M 80.857688,39.813961 Z"
       id="path6216"
       inkscape:connector-curvature="0" />
    <path
       style="display:inline;fill:none;stroke:#000000;stroke-width:0.26458332px;stroke-linecap:butt;stroke-linejoin:miter;stroke-opacity:1"
       d="m 80.857688,39.813961 2.84025,-0.01289"
       id="path6218"
       inkscape:connector-curvature="0" />
    <path
       style="display:inline;fill:none;stroke:#000000;stroke-width:0.26458332px;stroke-linecap:butt;stroke-linejoin:miter;stroke-opacity:1"
       d="m 111.44756,61.802365 -0.0386,0.506103"
       id="path8810"
       inkscape:connector-curvature="0" />
    <path
       style="display:inline;fill:none;stroke:#000000;stroke-width:0.26458332px;stroke-linecap:butt;stroke-linejoin:miter;stroke-opacity:1"
       d="m 129.18758,61.802365 0.11805,0.506103"
       id="path8814"
       inkscape:connector-curvature="0" />
  </g>
</svg>
