  0
SECTION
  2
HEADER
  9
$ACADVER
  1
AC1014
  9
$HANDSEED
  5
FFFF
  9
$MEASUREMENT
 70
     1
  0
ENDSEC
  0
SECTION
  2
TABLES
  0
TABLE
  2
VPORT
  5
8
330
0
100
AcDbSymbolTable
 70
     4
  0
VPORT
  5
2E
330
8
100
AcDbSymbolTableRecord
100
AcDbViewportTableRecord
  2
*ACTIVE
 70
     0
 10
0.0
 20
0.0
 11
1.0
 21
1.0
 12
210.0
 22
148.5
 13
0.0
 23
0.0
 14
10.0
 24
10.0
 15
10.0
 25
10.0
 16
0.0
 26
0.0
 36
1.0
 17
0.0
 27
0.0
 37
0.0
 40
341.0
 41
1.24
 42
50.0
 43
0.0
 44
0.0
 50
0.0
 51
0.0
 71
     0
 72
   100
 73
     1
 74
     3
 75
     0
 76
     0
 77
     0
 78
     0
  0
ENDTAB
  0
TABLE
  2
LTYPE
  5
5
330
0
100
AcDbSymbolTable
 70
     1
  0
LTYPE
  5
14
330
5
100
AcDbSymbolTableRecord
100
AcDbLinetypeTableRecord
  2
BYBLOCK
 70
     0
  3

 72
    65
 73
     0
 40
0.0
  0
LTYPE
  5
15
330
5
100
AcDbSymbolTableRecord
100
AcDbLinetypeTableRecord
  2
BYLAYER
 70
     0
  3

 72
    65
 73
     0
 40
0.0
  0
LTYPE
  5
16
330
5
100
AcDbSymbolTableRecord
100
AcDbLinetypeTableRecord
  2
CONTINUOUS
 70
     0
  3
Solid line
 72
    65
 73
     0
 40
0.0
  0
ENDTAB
  0
TABLE
  2
LAYER
  5
2
100
AcDbSymbolTable
 70
2
  0
LAYER
  5
50
100
AcDbSymbolTableRecord
100
AcDbLayerTableRecord
  2
0
 70
0
  6
CONTINUOUS
  0
LAYER
  5
51
100
AcDbSymbolTableRecord
100
AcDbLayerTableRecord
  2
Layer_1
 70
0
  6
CONTINUOUS
  0
ENDTAB
  0
TABLE
  2
STYLE
  5
3
330
0
100
AcDbSymbolTable
 70
     1
  0
STYLE
  5
11
330
3
100
AcDbSymbolTableRecord
100
AcDbTextStyleTableRecord
  2
STANDARD
 70
     0
 40
0.0
 41
1.0
 50
0.0
 71
     0
 42
2.5
  3
txt
  4

  0
ENDTAB
  0
TABLE
  2
VIEW
  5
6
330
0
100
AcDbSymbolTable
 70
     0
  0
ENDTAB
  0
TABLE
  2
UCS
  5
7
330
0
100
AcDbSymbolTable
 70
     0
  0
ENDTAB
  0
TABLE
  2
APPID
  5
9
330
0
100
AcDbSymbolTable
 70
     2
  0
APPID
  5
12
330
9
100
AcDbSymbolTableRecord
100
AcDbRegAppTableRecord
  2
ACAD
 70
     0
  0
ENDTAB
  0
TABLE
  2
DIMSTYLE
  5
A
330
0
100
AcDbSymbolTable
 70
     1
  0
DIMSTYLE
105
27
330
A
100
AcDbSymbolTableRecord
100
AcDbDimStyleTableRecord
  2
ISO-25
 70
     0
  3

  4

  5

  6

  7

 40
1.0
 41
2.5
 42
0.625
 43
3.75
 44
1.25
 45
0.0
 46
0.0
 47
0.0
 48
0.0
140
2.5
141
2.5
142
0.0
143
0.03937007874016
144
1.0
145
0.0
146
1.0
147
0.625
 71
     0
 72
     0
 73
     0
 74
     0
 75
     0
 76
     0
 77
     1
 78
     8
170
     0
171
     3
172
     1
173
     0
174
     0
175
     0
176
     0
177
     0
178
     0
270
     2
271
     2
272
     2
273
     2
274
     3
340
11
275
     0
280
     0
281
     0
282
     0
283
     0
284
     8
285
     0
286
     0
287
     3
288
     0
  0
ENDTAB
  0
TABLE
  2
BLOCK_RECORD
  5
1
330
0
100
AcDbSymbolTable
 70
     1
  0
BLOCK_RECORD
  5
1F
330
1
100
AcDbSymbolTableRecord
100
AcDbBlockTableRecord
  2
*MODEL_SPACE
  0
BLOCK_RECORD
  5
1B
330
1
100
AcDbSymbolTableRecord
100
AcDbBlockTableRecord
  2
*PAPER_SPACE
  0
ENDTAB
  0
ENDSEC
  0
SECTION
  2
BLOCKS
  0
BLOCK
  5
20
330
1F
100
AcDbEntity
  8
0
100
AcDbBlockBegin
  2
*MODEL_SPACE
 70
     0
 10
0.0
 20
0.0
 30
0.0
  3
*MODEL_SPACE
  1

  0
ENDBLK
  5
21
330
1F
100
AcDbEntity
  8
0
100
AcDbBlockEnd
  0
BLOCK
  5
1C
330
1B
100
AcDbEntity
 67
     1
  8
0
100
AcDbBlockBegin
  2
*PAPER_SPACE
  1

  0
ENDBLK
  5
1D
330
1B
100
AcDbEntity
 67
     1
  8
0
100
AcDbBlockEnd
  0
ENDSEC
  0
SECTION
  2
ENTITIES
  0
SPLINE
  5
100
100
AcDbEntity
  8
Layer_1
 62
7
100
AcDbSpline
 70
8
 71
3
 72
8
 73
4
 74
0
 40
0
 40
0
 40
0
 40
0
 40
1
 40
1
 40
1
 40
1
 10
198.580682
 20
129.441457
 30
0.0
 10
198.581000
 20
129.977567
 30
0.0
 10
198.295171
 20
130.473090
 30
0.0
 10
197.830939
 20
130.741237
 30
0.0
  0
SPLINE
  5
101
100
AcDbEntity
  8
Layer_1
 62
7
100
AcDbSpline
 70
8
 71
3
 72
8
 73
4
 74
0
 40
0
 40
0
 40
0
 40
0
 40
1
 40
1
 40
1
 40
1
 10
197.830939
 20
130.741237
 30
0.0
 10
197.366707
 20
131.009384
 30
0.0
 10
196.794657
 20
131.009384
 30
0.0
 10
196.330425
 20
130.741237
 30
0.0
  0
SPLINE
  5
102
100
AcDbEntity
  8
Layer_1
 62
7
100
AcDbSpline
 70
8
 71
3
 72
8
 73
4
 74
0
 40
0
 40
0
 40
0
 40
0
 40
1
 40
1
 40
1
 40
1
 10
196.330425
 20
130.741237
 30
0.0
 10
195.866193
 20
130.473090
 30
0.0
 10
195.580364
 20
129.977567
 30
0.0
 10
195.580682
 20
129.441457
 30
0.0
  0
SPLINE
  5
103
100
AcDbEntity
  8
Layer_1
 62
7
100
AcDbSpline
 70
8
 71
3
 72
8
 73
4
 74
0
 40
0
 40
0
 40
0
 40
0
 40
1
 40
1
 40
1
 40
1
 10
195.580682
 20
129.441457
 30
0.0
 10
195.580364
 20
128.905346
 30
0.0
 10
195.866193
 20
128.409824
 30
0.0
 10
196.330425
 20
128.141676
 30
0.0
  0
SPLINE
  5
104
100
AcDbEntity
  8
Layer_1
 62
7
100
AcDbSpline
 70
8
 71
3
 72
8
 73
4
 74
0
 40
0
 40
0
 40
0
 40
0
 40
1
 40
1
 40
1
 40
1
 10
196.330425
 20
128.141676
 30
0.0
 10
196.794657
 20
127.873529
 30
0.0
 10
197.366707
 20
127.873529
 30
0.0
 10
197.830939
 20
128.141676
 30
0.0
  0
SPLINE
  5
105
100
AcDbEntity
  8
Layer_1
 62
7
100
AcDbSpline
 70
8
 71
3
 72
8
 73
4
 74
0
 40
0
 40
0
 40
0
 40
0
 40
1
 40
1
 40
1
 40
1
 10
197.830939
 20
128.141676
 30
0.0
 10
198.295171
 20
128.409824
 30
0.0
 10
198.581000
 20
128.905346
 30
0.0
 10
198.580682
 20
129.441457
 30
0.0
  0
LINE
  5
106
100
AcDbEntity
  8
Layer_1
 62
7
100
AcDbLine
 10
198.580682
 20
129.441457
 30
0.0
 11
198.580682
 21
129.441457
 31
0.0
  0
LINE
  5
107
100
AcDbEntity
  8
Layer_1
 62
7
100
AcDbLine
 10
33.301719
 20
95.570317
 30
0.0
 11
11.617740
 21
142.072639
 31
0.0
  0
LINE
  5
108
100
AcDbEntity
  8
Layer_1
 62
7
100
AcDbLine
 10
11.617740
 20
142.072639
 30
0.0
 11
13.154440
 21
146.291581
 31
0.0
  0
LINE
  5
109
100
AcDbEntity
  8
Layer_1
 62
7
100
AcDbLine
 10
13.154440
 20
146.291581
 30
0.0
 11
46.245559
 21
161.722081
 31
0.0
  0
LINE
  5
10a
100
AcDbEntity
  8
Layer_1
 62
7
100
AcDbLine
 10
46.245559
 20
161.722081
 30
0.0
 11
51.147759
 21
161.722081
 31
0.0
  0
LINE
  5
10b
100
AcDbEntity
  8
Layer_1
 62
7
100
AcDbLine
 10
51.147759
 20
161.722081
 30
0.0
 11
51.147759
 21
247.955080
 31
0.0
  0
LINE
  5
10c
100
AcDbEntity
  8
Layer_1
 62
7
100
AcDbLine
 10
51.147759
 20
247.955080
 30
0.0
 11
54.348159
 21
251.130080
 31
0.0
  0
LINE
  5
10d
100
AcDbEntity
  8
Layer_1
 62
7
100
AcDbLine
 10
54.348159
 20
251.130080
 30
0.0
 11
66.413159
 21
251.130080
 31
0.0
  0
LINE
  5
10e
100
AcDbEntity
  8
Layer_1
 62
7
100
AcDbLine
 10
66.413159
 20
251.130080
 30
0.0
 11
66.413159
 21
252.908077
 31
0.0
  0
LINE
  5
10f
100
AcDbEntity
  8
Layer_1
 62
7
100
AcDbLine
 10
66.413159
 20
252.908077
 30
0.0
 11
83.583559
 21
252.908077
 31
0.0
  0
LINE
  5
110
100
AcDbEntity
  8
Layer_1
 62
7
100
AcDbLine
 10
83.583559
 20
252.908077
 30
0.0
 11
83.583559
 21
251.130080
 31
0.0
  0
LINE
  5
111
100
AcDbEntity
  8
Layer_1
 62
7
100
AcDbLine
 10
83.583559
 20
251.130080
 30
0.0
 11
116.753691
 21
251.130080
 31
0.0
  0
LINE
  5
112
100
AcDbEntity
  8
Layer_1
 62
7
100
AcDbLine
 10
116.753691
 20
251.130080
 30
0.0
 11
116.753691
 21
252.908077
 31
0.0
  0
LINE
  5
113
100
AcDbEntity
  8
Layer_1
 62
7
100
AcDbLine
 10
116.753691
 20
252.908077
 30
0.0
 11
137.284071
 21
252.908077
 31
0.0
  0
LINE
  5
114
100
AcDbEntity
  8
Layer_1
 62
7
100
AcDbLine
 10
137.284071
 20
252.908077
 30
0.0
 11
137.331318
 21
251.319069
 31
0.0
  0
LINE
  5
115
100
AcDbEntity
  8
Layer_1
 62
7
100
AcDbLine
 10
137.331318
 20
251.319069
 30
0.0
 11
191.279557
 21
251.130080
 31
0.0
  0
LINE
  5
116
100
AcDbEntity
  8
Layer_1
 62
7
100
AcDbLine
 10
191.279557
 20
251.130080
 30
0.0
 11
194.454557
 21
247.955080
 31
0.0
  0
LINE
  5
117
100
AcDbEntity
  8
Layer_1
 62
7
100
AcDbLine
 10
194.454557
 20
247.955080
 30
0.0
 11
194.454557
 21
140.005081
 31
0.0
  0
LINE
  5
118
100
AcDbEntity
  8
Layer_1
 62
7
100
AcDbLine
 10
194.454557
 20
140.005081
 30
0.0
 11
184.929558
 21
130.480081
 31
0.0
  0
LINE
  5
119
100
AcDbEntity
  8
Layer_1
 62
7
100
AcDbLine
 10
184.929558
 20
130.480081
 30
0.0
 11
115.689158
 21
130.480081
 31
0.0
  0
LINE
  5
11a
100
AcDbEntity
  8
Layer_1
 62
7
100
AcDbLine
 10
115.689158
 20
130.480081
 30
0.0
 11
37.520659
 21
94.036157
 31
0.0
  0
LINE
  5
11b
100
AcDbEntity
  8
Layer_1
 62
7
100
AcDbLine
 10
37.520659
 20
94.036157
 30
0.0
 11
33.301719
 21
95.570317
 31
0.0
  0
SPLINE
  5
11c
100
AcDbEntity
  8
Layer_1
 62
7
100
AcDbSpline
 70
8
 71
3
 72
8
 73
4
 74
0
 40
0
 40
0
 40
0
 40
0
 40
1
 40
1
 40
1
 40
1
 10
198.580682
 20
253.756202
 30
0.0
 10
198.581000
 20
254.292312
 30
0.0
 10
198.295171
 20
254.787835
 30
0.0
 10
197.830939
 20
255.055982
 30
0.0
  0
SPLINE
  5
11d
100
AcDbEntity
  8
Layer_1
 62
7
100
AcDbSpline
 70
8
 71
3
 72
8
 73
4
 74
0
 40
0
 40
0
 40
0
 40
0
 40
1
 40
1
 40
1
 40
1
 10
197.830939
 20
255.055982
 30
0.0
 10
197.366707
 20
255.324129
 30
0.0
 10
196.794657
 20
255.324129
 30
0.0
 10
196.330425
 20
255.055982
 30
0.0
  0
SPLINE
  5
11e
100
AcDbEntity
  8
Layer_1
 62
7
100
AcDbSpline
 70
8
 71
3
 72
8
 73
4
 74
0
 40
0
 40
0
 40
0
 40
0
 40
1
 40
1
 40
1
 40
1
 10
196.330425
 20
255.055982
 30
0.0
 10
195.866193
 20
254.787835
 30
0.0
 10
195.580364
 20
254.292312
 30
0.0
 10
195.580682
 20
253.756202
 30
0.0
  0
SPLINE
  5
11f
100
AcDbEntity
  8
Layer_1
 62
7
100
AcDbSpline
 70
8
 71
3
 72
8
 73
4
 74
0
 40
0
 40
0
 40
0
 40
0
 40
1
 40
1
 40
1
 40
1
 10
195.580682
 20
253.756202
 30
0.0
 10
195.580364
 20
253.220091
 30
0.0
 10
195.866193
 20
252.724568
 30
0.0
 10
196.330425
 20
252.456421
 30
0.0
  0
SPLINE
  5
120
100
AcDbEntity
  8
Layer_1
 62
7
100
AcDbSpline
 70
8
 71
3
 72
8
 73
4
 74
0
 40
0
 40
0
 40
0
 40
0
 40
1
 40
1
 40
1
 40
1
 10
196.330425
 20
252.456421
 30
0.0
 10
196.794657
 20
252.188274
 30
0.0
 10
197.366707
 20
252.188274
 30
0.0
 10
197.830939
 20
252.456421
 30
0.0
  0
SPLINE
  5
121
100
AcDbEntity
  8
Layer_1
 62
7
100
AcDbSpline
 70
8
 71
3
 72
8
 73
4
 74
0
 40
0
 40
0
 40
0
 40
0
 40
1
 40
1
 40
1
 40
1
 10
197.830939
 20
252.456421
 30
0.0
 10
198.295171
 20
252.724568
 30
0.0
 10
198.581000
 20
253.220091
 30
0.0
 10
198.580682
 20
253.756202
 30
0.0
  0
LINE
  5
122
100
AcDbEntity
  8
Layer_1
 62
7
100
AcDbLine
 10
198.580682
 20
253.756202
 30
0.0
 11
198.580682
 21
253.756202
 31
0.0
  0
LINE
  5
123
100
AcDbEntity
  8
Layer_1
 62
7
100
AcDbLine
 10
142.971642
 20
260.020077
 30
0.0
 11
196.344558
 21
260.020077
 31
0.0
  0
SPLINE
  5
124
100
AcDbEntity
  8
Layer_1
 62
7
100
AcDbSpline
 70
8
 71
3
 72
8
 73
4
 74
0
 40
0
 40
0
 40
0
 40
0
 40
1
 40
1
 40
1
 40
1
 10
196.344558
 20
260.020077
 30
0.0
 10
200.210552
 20
260.020077
 30
0.0
 10
203.344557
 20
256.886072
 30
0.0
 10
203.344557
 20
253.020078
 30
0.0
  0
LINE
  5
125
100
AcDbEntity
  8
Layer_1
 62
7
100
AcDbLine
 10
203.344557
 20
253.020078
 30
0.0
 11
203.344557
 21
128.590081
 31
0.0
  0
SPLINE
  5
126
100
AcDbEntity
  8
Layer_1
 62
7
100
AcDbSpline
 70
8
 71
3
 72
8
 73
4
 74
0
 40
0
 40
0
 40
0
 40
0
 40
1
 40
1
 40
1
 40
1
 10
203.344557
 20
128.590081
 30
0.0
 10
203.344557
 20
124.724087
 30
0.0
 10
200.210552
 20
121.590079
 30
0.0
 10
196.344558
 20
121.590079
 30
0.0
  0
LINE
  5
127
100
AcDbEntity
  8
Layer_1
 62
7
100
AcDbLine
 10
196.344558
 20
121.590079
 30
0.0
 11
119.211765
 21
121.590079
 31
0.0
  0
SPLINE
  5
128
100
AcDbEntity
  8
Layer_1
 62
7
100
AcDbSpline
 70
8
 71
3
 72
8
 73
4
 74
0
 40
0
 40
0
 40
0
 40
0
 40
1
 40
1
 40
1
 40
1
 10
119.211765
 20
121.590079
 30
0.0
 10
118.189788
 20
121.590079
 30
0.0
 10
117.180207
 20
121.366305
 30
0.0
 10
116.253949
 20
120.934473
 30
0.0
  0
LINE
  5
129
100
AcDbEntity
  8
Layer_1
 62
7
100
AcDbLine
 10
116.253949
 20
120.934473
 30
0.0
 11
36.685970
 21
83.839089
 31
0.0
  0
SPLINE
  5
12a
100
AcDbEntity
  8
Layer_1
 62
7
100
AcDbSpline
 70
8
 71
3
 72
8
 73
4
 74
0
 40
0
 40
0
 40
0
 40
0
 40
1
 40
1
 40
1
 40
1
 10
36.685970
 20
83.839089
 30
0.0
 10
33.182249
 20
82.205630
 30
0.0
 10
29.017726
 20
83.721587
 30
0.0
 10
27.383988
 20
87.225173
 30
0.0
  0
LINE
  5
12b
100
AcDbEntity
  8
Layer_1
 62
7
100
AcDbLine
 10
27.383988
 20
87.225173
 30
0.0
 11
1.419601
 21
142.906454
 31
0.0
  0
SPLINE
  5
12c
100
AcDbEntity
  8
Layer_1
 62
7
100
AcDbSpline
 70
8
 71
3
 72
8
 73
4
 74
0
 40
0
 40
0
 40
0
 40
0
 40
1
 40
1
 40
1
 40
1
 10
1.419601
 20
142.906454
 30
0.0
 10
-0.214259
 20
146.410313
 30
0.0
 10
1.301740
 20
150.575251
 30
0.0
 10
4.805645
 20
152.209011
 30
0.0
  0
LINE
  5
12d
100
AcDbEntity
  8
Layer_1
 62
7
100
AcDbLine
 10
4.805645
 20
152.209011
 30
0.0
 11
38.215879
 21
167.787130
 31
0.0
  0
SPLINE
  5
12e
100
AcDbEntity
  8
Layer_1
 62
7
100
AcDbSpline
 70
8
 71
3
 72
8
 73
4
 74
0
 40
0
 40
0
 40
0
 40
0
 40
1
 40
1
 40
1
 40
1
 10
38.215879
 20
167.787130
 30
0.0
 10
40.681528
 20
168.936782
 30
0.0
 10
42.257759
 20
171.410882
 30
0.0
 10
42.257759
 20
174.131383
 30
0.0
  0
LINE
  5
12f
100
AcDbEntity
  8
Layer_1
 62
7
100
AcDbLine
 10
42.257759
 20
174.131383
 30
0.0
 11
42.257759
 21
253.020078
 31
0.0
  0
SPLINE
  5
130
100
AcDbEntity
  8
Layer_1
 62
7
100
AcDbSpline
 70
8
 71
3
 72
8
 73
4
 74
0
 40
0
 40
0
 40
0
 40
0
 40
1
 40
1
 40
1
 40
1
 10
42.257759
 20
253.020078
 30
0.0
 10
42.257759
 20
256.886072
 30
0.0
 10
45.391765
 20
260.020077
 30
0.0
 10
49.257758
 20
260.020077
 30
0.0
  0
LINE
  5
131
100
AcDbEntity
  8
Layer_1
 62
7
100
AcDbLine
 10
49.257758
 20
260.020077
 30
0.0
 11
57.370759
 21
260.020077
 31
0.0
  0
LINE
  5
132
100
AcDbEntity
  8
Layer_1
 62
7
100
AcDbLine
 10
57.370759
 20
260.020077
 30
0.0
 11
71.250459
 21
254.907060
 31
0.0
  0
LINE
  5
133
100
AcDbEntity
  8
Layer_1
 62
7
100
AcDbLine
 10
71.250459
 20
254.907060
 30
0.0
 11
78.593859
 21
254.907060
 31
0.0
  0
LINE
  5
134
100
AcDbEntity
  8
Layer_1
 62
7
100
AcDbLine
 10
78.593859
 20
254.907060
 30
0.0
 11
92.473559
 21
260.020077
 31
0.0
  0
LINE
  5
135
100
AcDbEntity
  8
Layer_1
 62
7
100
AcDbLine
 10
92.473559
 20
260.020077
 30
0.0
 11
108.290808
 21
260.020077
 31
0.0
  0
LINE
  5
136
100
AcDbEntity
  8
Layer_1
 62
7
100
AcDbLine
 10
108.290808
 20
260.020077
 30
0.0
 11
116.662560
 21
254.907060
 31
0.0
  0
LINE
  5
137
100
AcDbEntity
  8
Layer_1
 62
7
100
AcDbLine
 10
116.662560
 20
254.907060
 30
0.0
 11
137.346291
 21
254.907060
 31
0.0
  0
LINE
  5
138
100
AcDbEntity
  8
Layer_1
 62
7
100
AcDbLine
 10
137.346291
 20
254.907060
 30
0.0
 11
142.971642
 21
260.020077
 31
0.0
  0
SPLINE
  5
139
100
AcDbEntity
  8
Layer_1
 62
7
100
AcDbSpline
 70
8
 71
3
 72
8
 73
4
 74
0
 40
0
 40
0
 40
0
 40
0
 40
1
 40
1
 40
1
 40
1
 10
34.872463
 20
89.204495
 30
0.0
 10
34.872463
 20
89.740393
 30
0.0
 10
34.586565
 20
90.235584
 30
0.0
 10
34.122463
 20
90.503533
 30
0.0
  0
SPLINE
  5
13a
100
AcDbEntity
  8
Layer_1
 62
7
100
AcDbSpline
 70
8
 71
3
 72
8
 73
4
 74
0
 40
0
 40
0
 40
0
 40
0
 40
1
 40
1
 40
1
 40
1
 10
34.122463
 20
90.503533
 30
0.0
 10
33.658361
 20
90.771483
 30
0.0
 10
33.086564
 20
90.771483
 30
0.0
 10
32.622462
 20
90.503533
 30
0.0
  0
SPLINE
  5
13b
100
AcDbEntity
  8
Layer_1
 62
7
100
AcDbSpline
 70
8
 71
3
 72
8
 73
4
 74
0
 40
0
 40
0
 40
0
 40
0
 40
1
 40
1
 40
1
 40
1
 10
32.622462
 20
90.503533
 30
0.0
 10
32.158360
 20
90.235584
 30
0.0
 10
31.872461
 20
89.740393
 30
0.0
 10
31.872461
 20
89.204495
 30
0.0
  0
SPLINE
  5
13c
100
AcDbEntity
  8
Layer_1
 62
7
100
AcDbSpline
 70
8
 71
3
 72
8
 73
4
 74
0
 40
0
 40
0
 40
0
 40
0
 40
1
 40
1
 40
1
 40
1
 10
31.872461
 20
89.204495
 30
0.0
 10
31.872461
 20
88.668596
 30
0.0
 10
32.158360
 20
88.173405
 30
0.0
 10
32.622462
 20
87.905456
 30
0.0
  0
SPLINE
  5
13d
100
AcDbEntity
  8
Layer_1
 62
7
100
AcDbSpline
 70
8
 71
3
 72
8
 73
4
 74
0
 40
0
 40
0
 40
0
 40
0
 40
1
 40
1
 40
1
 40
1
 10
32.622462
 20
87.905456
 30
0.0
 10
33.086564
 20
87.637506
 30
0.0
 10
33.658361
 20
87.637506
 30
0.0
 10
34.122463
 20
87.905456
 30
0.0
  0
SPLINE
  5
13e
100
AcDbEntity
  8
Layer_1
 62
7
100
AcDbSpline
 70
8
 71
3
 72
8
 73
4
 74
0
 40
0
 40
0
 40
0
 40
0
 40
1
 40
1
 40
1
 40
1
 10
34.122463
 20
87.905456
 30
0.0
 10
34.586565
 20
88.173405
 30
0.0
 10
34.872463
 20
88.668596
 30
0.0
 10
34.872463
 20
89.204495
 30
0.0
  0
LINE
  5
13f
100
AcDbEntity
  8
Layer_1
 62
7
100
AcDbLine
 10
34.872463
 20
89.204495
 30
0.0
 11
34.872463
 21
89.204495
 31
0.0
  0
SPLINE
  5
140
100
AcDbEntity
  8
Layer_1
 62
7
100
AcDbSpline
 70
8
 71
3
 72
8
 73
4
 74
0
 40
0
 40
0
 40
0
 40
0
 40
1
 40
1
 40
1
 40
1
 10
118.174678
 20
126.035081
 30
0.0
 10
118.174996
 20
126.571192
 30
0.0
 10
117.889168
 20
127.066715
 30
0.0
 10
117.424936
 20
127.334862
 30
0.0
  0
SPLINE
  5
141
100
AcDbEntity
  8
Layer_1
 62
7
100
AcDbSpline
 70
8
 71
3
 72
8
 73
4
 74
0
 40
0
 40
0
 40
0
 40
0
 40
1
 40
1
 40
1
 40
1
 10
117.424936
 20
127.334862
 30
0.0
 10
116.960703
 20
127.603009
 30
0.0
 10
116.388654
 20
127.603009
 30
0.0
 10
115.924421
 20
127.334862
 30
0.0
  0
SPLINE
  5
142
100
AcDbEntity
  8
Layer_1
 62
7
100
AcDbSpline
 70
8
 71
3
 72
8
 73
4
 74
0
 40
0
 40
0
 40
0
 40
0
 40
1
 40
1
 40
1
 40
1
 10
115.924421
 20
127.334862
 30
0.0
 10
115.460189
 20
127.066715
 30
0.0
 10
115.174360
 20
126.571192
 30
0.0
 10
115.174679
 20
126.035081
 30
0.0
  0
SPLINE
  5
143
100
AcDbEntity
  8
Layer_1
 62
7
100
AcDbSpline
 70
8
 71
3
 72
8
 73
4
 74
0
 40
0
 40
0
 40
0
 40
0
 40
1
 40
1
 40
1
 40
1
 10
115.174679
 20
126.035081
 30
0.0
 10
115.174360
 20
125.498971
 30
0.0
 10
115.460189
 20
125.003448
 30
0.0
 10
115.924421
 20
124.735301
 30
0.0
  0
SPLINE
  5
144
100
AcDbEntity
  8
Layer_1
 62
7
100
AcDbSpline
 70
8
 71
3
 72
8
 73
4
 74
0
 40
0
 40
0
 40
0
 40
0
 40
1
 40
1
 40
1
 40
1
 10
115.924421
 20
124.735301
 30
0.0
 10
116.388654
 20
124.467154
 30
0.0
 10
116.960703
 20
124.467154
 30
0.0
 10
117.424936
 20
124.735301
 30
0.0
  0
SPLINE
  5
145
100
AcDbEntity
  8
Layer_1
 62
7
100
AcDbSpline
 70
8
 71
3
 72
8
 73
4
 74
0
 40
0
 40
0
 40
0
 40
0
 40
1
 40
1
 40
1
 40
1
 10
117.424936
 20
124.735301
 30
0.0
 10
117.889168
 20
125.003448
 30
0.0
 10
118.174996
 20
125.498971
 30
0.0
 10
118.174678
 20
126.035081
 30
0.0
  0
LINE
  5
146
100
AcDbEntity
  8
Layer_1
 62
7
100
AcDbLine
 10
118.174678
 20
126.035081
 30
0.0
 11
118.174678
 21
126.035081
 31
0.0
  0
SPLINE
  5
147
100
AcDbEntity
  8
Layer_1
 62
7
100
AcDbSpline
 70
8
 71
3
 72
8
 73
4
 74
0
 40
0
 40
0
 40
0
 40
0
 40
1
 40
1
 40
1
 40
1
 10
8.286025
 20
146.220564
 30
0.0
 10
8.286025
 20
146.756463
 30
0.0
 10
8.000127
 20
147.251653
 30
0.0
 10
7.536025
 20
147.519602
 30
0.0
  0
SPLINE
  5
148
100
AcDbEntity
  8
Layer_1
 62
7
100
AcDbSpline
 70
8
 71
3
 72
8
 73
4
 74
0
 40
0
 40
0
 40
0
 40
0
 40
1
 40
1
 40
1
 40
1
 10
7.536025
 20
147.519602
 30
0.0
 10
7.071923
 20
147.787552
 30
0.0
 10
6.500127
 20
147.787552
 30
0.0
 10
6.036025
 20
147.519602
 30
0.0
  0
SPLINE
  5
149
100
AcDbEntity
  8
Layer_1
 62
7
100
AcDbSpline
 70
8
 71
3
 72
8
 73
4
 74
0
 40
0
 40
0
 40
0
 40
0
 40
1
 40
1
 40
1
 40
1
 10
6.036025
 20
147.519602
 30
0.0
 10
5.571924
 20
147.251653
 30
0.0
 10
5.286025
 20
146.756463
 30
0.0
 10
5.286025
 20
146.220564
 30
0.0
  0
SPLINE
  5
14a
100
AcDbEntity
  8
Layer_1
 62
7
100
AcDbSpline
 70
8
 71
3
 72
8
 73
4
 74
0
 40
0
 40
0
 40
0
 40
0
 40
1
 40
1
 40
1
 40
1
 10
5.286025
 20
146.220564
 30
0.0
 10
5.286025
 20
145.684666
 30
0.0
 10
5.571923
 20
145.189475
 30
0.0
 10
6.036025
 20
144.921526
 30
0.0
  0
SPLINE
  5
14b
100
AcDbEntity
  8
Layer_1
 62
7
100
AcDbSpline
 70
8
 71
3
 72
8
 73
4
 74
0
 40
0
 40
0
 40
0
 40
0
 40
1
 40
1
 40
1
 40
1
 10
6.036025
 20
144.921526
 30
0.0
 10
6.500127
 20
144.653577
 30
0.0
 10
7.071923
 20
144.653577
 30
0.0
 10
7.536025
 20
144.921526
 30
0.0
  0
SPLINE
  5
14c
100
AcDbEntity
  8
Layer_1
 62
7
100
AcDbSpline
 70
8
 71
3
 72
8
 73
4
 74
0
 40
0
 40
0
 40
0
 40
0
 40
1
 40
1
 40
1
 40
1
 10
7.536025
 20
144.921526
 30
0.0
 10
8.000127
 20
145.189475
 30
0.0
 10
8.286025
 20
145.684666
 30
0.0
 10
8.286025
 20
146.220564
 30
0.0
  0
LINE
  5
14d
100
AcDbEntity
  8
Layer_1
 62
7
100
AcDbLine
 10
8.286025
 20
146.220564
 30
0.0
 11
8.286025
 21
146.220564
 31
0.0
  0
SPLINE
  5
14e
100
AcDbEntity
  8
Layer_1
 62
7
100
AcDbSpline
 70
8
 71
3
 72
8
 73
4
 74
0
 40
0
 40
0
 40
0
 40
0
 40
1
 40
1
 40
1
 40
1
 10
103.511258
 20
255.575080
 30
0.0
 10
103.511577
 20
256.111190
 30
0.0
 10
103.225748
 20
256.606713
 30
0.0
 10
102.761516
 20
256.874860
 30
0.0
  0
SPLINE
  5
14f
100
AcDbEntity
  8
Layer_1
 62
7
100
AcDbSpline
 70
8
 71
3
 72
8
 73
4
 74
0
 40
0
 40
0
 40
0
 40
0
 40
1
 40
1
 40
1
 40
1
 10
102.761516
 20
256.874860
 30
0.0
 10
102.297283
 20
257.143007
 30
0.0
 10
101.725234
 20
257.143007
 30
0.0
 10
101.261001
 20
256.874860
 30
0.0
  0
SPLINE
  5
150
100
AcDbEntity
  8
Layer_1
 62
7
100
AcDbSpline
 70
8
 71
3
 72
8
 73
4
 74
0
 40
0
 40
0
 40
0
 40
0
 40
1
 40
1
 40
1
 40
1
 10
101.261001
 20
256.874860
 30
0.0
 10
100.796769
 20
256.606713
 30
0.0
 10
100.510941
 20
256.111190
 30
0.0
 10
100.511259
 20
255.575080
 30
0.0
  0
SPLINE
  5
151
100
AcDbEntity
  8
Layer_1
 62
7
100
AcDbSpline
 70
8
 71
3
 72
8
 73
4
 74
0
 40
0
 40
0
 40
0
 40
0
 40
1
 40
1
 40
1
 40
1
 10
100.511259
 20
255.575080
 30
0.0
 10
100.510941
 20
255.038969
 30
0.0
 10
100.796769
 20
254.543447
 30
0.0
 10
101.261001
 20
254.275299
 30
0.0
  0
SPLINE
  5
152
100
AcDbEntity
  8
Layer_1
 62
7
100
AcDbSpline
 70
8
 71
3
 72
8
 73
4
 74
0
 40
0
 40
0
 40
0
 40
0
 40
1
 40
1
 40
1
 40
1
 10
101.261001
 20
254.275299
 30
0.0
 10
101.725234
 20
254.007152
 30
0.0
 10
102.297283
 20
254.007152
 30
0.0
 10
102.761516
 20
254.275299
 30
0.0
  0
SPLINE
  5
153
100
AcDbEntity
  8
Layer_1
 62
7
100
AcDbSpline
 70
8
 71
3
 72
8
 73
4
 74
0
 40
0
 40
0
 40
0
 40
0
 40
1
 40
1
 40
1
 40
1
 10
102.761516
 20
254.275299
 30
0.0
 10
103.225748
 20
254.543447
 30
0.0
 10
103.511577
 20
255.038969
 30
0.0
 10
103.511258
 20
255.575080
 30
0.0
  0
LINE
  5
154
100
AcDbEntity
  8
Layer_1
 62
7
100
AcDbLine
 10
103.511258
 20
255.575080
 30
0.0
 11
103.511258
 21
255.575080
 31
0.0
  0
SPLINE
  5
155
100
AcDbEntity
  8
Layer_1
 62
7
100
AcDbSpline
 70
8
 71
3
 72
8
 73
4
 74
0
 40
0
 40
0
 40
0
 40
0
 40
1
 40
1
 40
1
 40
1
 10
50.027984
 20
253.756202
 30
0.0
 10
50.028303
 20
254.292312
 30
0.0
 10
49.742474
 20
254.787835
 30
0.0
 10
49.278242
 20
255.055982
 30
0.0
  0
SPLINE
  5
156
100
AcDbEntity
  8
Layer_1
 62
7
100
AcDbSpline
 70
8
 71
3
 72
8
 73
4
 74
0
 40
0
 40
0
 40
0
 40
0
 40
1
 40
1
 40
1
 40
1
 10
49.278242
 20
255.055982
 30
0.0
 10
48.814010
 20
255.324129
 30
0.0
 10
48.241960
 20
255.324129
 30
0.0
 10
47.777728
 20
255.055982
 30
0.0
  0
SPLINE
  5
157
100
AcDbEntity
  8
Layer_1
 62
7
100
AcDbSpline
 70
8
 71
3
 72
8
 73
4
 74
0
 40
0
 40
0
 40
0
 40
0
 40
1
 40
1
 40
1
 40
1
 10
47.777728
 20
255.055982
 30
0.0
 10
47.313495
 20
254.787835
 30
0.0
 10
47.027667
 20
254.292312
 30
0.0
 10
47.027985
 20
253.756202
 30
0.0
  0
SPLINE
  5
158
100
AcDbEntity
  8
Layer_1
 62
7
100
AcDbSpline
 70
8
 71
3
 72
8
 73
4
 74
0
 40
0
 40
0
 40
0
 40
0
 40
1
 40
1
 40
1
 40
1
 10
47.027985
 20
253.756202
 30
0.0
 10
47.027667
 20
253.220091
 30
0.0
 10
47.313495
 20
252.724568
 30
0.0
 10
47.777728
 20
252.456421
 30
0.0
  0
SPLINE
  5
159
100
AcDbEntity
  8
Layer_1
 62
7
100
AcDbSpline
 70
8
 71
3
 72
8
 73
4
 74
0
 40
0
 40
0
 40
0
 40
0
 40
1
 40
1
 40
1
 40
1
 10
47.777728
 20
252.456421
 30
0.0
 10
48.241960
 20
252.188274
 30
0.0
 10
48.814010
 20
252.188274
 30
0.0
 10
49.278242
 20
252.456421
 30
0.0
  0
SPLINE
  5
15a
100
AcDbEntity
  8
Layer_1
 62
7
100
AcDbSpline
 70
8
 71
3
 72
8
 73
4
 74
0
 40
0
 40
0
 40
0
 40
0
 40
1
 40
1
 40
1
 40
1
 10
49.278242
 20
252.456421
 30
0.0
 10
49.742474
 20
252.724568
 30
0.0
 10
50.028303
 20
253.220091
 30
0.0
 10
50.027984
 20
253.756202
 30
0.0
  0
LINE
  5
15b
100
AcDbEntity
  8
Layer_1
 62
7
100
AcDbLine
 10
50.027984
 20
253.756202
 30
0.0
 11
50.027984
 21
253.756202
 31
0.0
  0
ENDSEC
  0
SECTION
  2
OBJECTS
  0
DICTIONARY
  5
C
330
0
100
AcDbDictionary
  3
ACAD_GROUP
350
D
  3
ACAD_MLINESTYLE
350
17
  0
DICTIONARY
  5
D
330
C
100
AcDbDictionary
  0
DICTIONARY
  5
1A
330
C
100
AcDbDictionary
  0
DICTIONARY
  5
17
330
C
100
AcDbDictionary
  3
STANDARD
350
18
  0
DICTIONARY
  5
19
330
C
100
AcDbDictionary
  0
ENDSEC
  0
EOF
