<?xml version="1.0" encoding="UTF-8" standalone="no"?>
<!-- Created with Inkscape (http://www.inkscape.org/) -->

<svg
   xmlns:dc="http://purl.org/dc/elements/1.1/"
   xmlns:cc="http://creativecommons.org/ns#"
   xmlns:rdf="http://www.w3.org/1999/02/22-rdf-syntax-ns#"
   xmlns:svg="http://www.w3.org/2000/svg"
   xmlns="http://www.w3.org/2000/svg"
   xmlns:sodipodi="http://sodipodi.sourceforge.net/DTD/sodipodi-0.dtd"
   xmlns:inkscape="http://www.inkscape.org/namespaces/inkscape"
   width="210mm"
   height="297mm"
   viewBox="0 0 210 297"
   version="1.1"
   id="svg7628"
   sodipodi:docname="spacer_top.svg"
   inkscape:version="0.92.3 (2405546, 2018-03-11)">
  <defs
     id="defs7622" />
  <sodipodi:namedview
     id="base"
     pagecolor="#ffffff"
     bordercolor="#666666"
     borderopacity="1.0"
     inkscape:pageopacity="0.0"
     inkscape:pageshadow="2"
     inkscape:zoom="0.49497475"
     inkscape:cx="742.94215"
     inkscape:cy="798.79954"
     inkscape:document-units="mm"
     inkscape:current-layer="layer1"
     showgrid="false"
     inkscape:window-width="1366"
     inkscape:window-height="705"
     inkscape:window-x="-8"
     inkscape:window-y="-8"
     inkscape:window-maximized="1"
     inkscape:measure-start="0,0"
     inkscape:measure-end="0,0" />
  <metadata
     id="metadata7625">
    <rdf:RDF>
      <cc:Work
         rdf:about="">
        <dc:format>image/svg+xml</dc:format>
        <dc:type
           rdf:resource="http://purl.org/dc/dcmitype/StillImage" />
      </cc:Work>
    </rdf:RDF>
  </metadata>
  <g
     inkscape:label="Layer 1"
     inkscape:groupmode="layer"
     id="layer1">
    <g
       style="display:inline"
       id="g6450"
       inkscape:label="0"
       transform="matrix(0.26458333,0,0,0.26458333,-9.1953819,-77.186038)">
      <path
         id="path6426"
         style="fill:none;stroke:#000000;stroke-linecap:round"
         d="m 351.09288,442.15607 -0.17853,9.49747 m -48.29475,0 v -9.18497 l 9.97516,-0.26385"
         inkscape:connector-curvature="0"
         sodipodi:nodetypes="ccccc" />
      <path
         id="path6428"
         style="fill:none;stroke:#000000;stroke-linecap:round"
         d="m 302.61956,451.65354 h -11.38711 l -0.24659,17.58614 v 56.07083 h 164.98749 m 67.04888,0 h 78.75082 v 0.0438 h 136.4643 l 0.65461,-73.70077 H 495.11811 350.91431"
         inkscape:connector-curvature="0"
         sodipodi:nodetypes="cccccccccccc" />
      <path
         id="path6430"
         style="fill:none;stroke:#000000;stroke-linecap:round"
         d="m 523.46841,527.22334 c 1.56475,0 2.97299,0.94944 3.55977,2.4 0.88017,2.17584 2.99254,3.6 5.33966,3.6 h 62.4 c 2.12077,0 3.84,1.71923 3.84,3.84 v 2.4 c 0,3.18116 2.57884,5.76 5.76,5.76 h 170.12463 c 2.08738,0 3.77953,1.69215 3.77953,3.77953 v 282.36094 c 0,2.08738 -1.69215,3.77953 -3.77953,3.77953 h -26.12463 c -3.18116,0 -5.76,2.57884 -5.76,5.76 v 62.4 c 0,2.12077 -1.71923,3.84 -3.84,3.84 h -138.24 c -2.12077,0 -3.84,-1.71923 -3.84,-3.84 v -2.4 c 0,-3.18116 -2.57884,-5.76 -5.76,-5.76 h -63.10056 c -1.56475,0 -2.97299,-0.94944 -3.55977,-2.4 -0.88017,-2.17584 -2.99255,-3.6 -5.33967,-3.6 h -58.56 c -2.34712,0 -4.45949,1.42416 -5.33966,3.6 -0.58678,1.45056 -1.99502,2.4 -3.55977,2.4 h -66.94057 c -2.12077,0 -3.84,-1.71923 -3.84,-3.84 v -57.6 c 0,-3.18116 -2.57884,-5.76 -5.76,-5.76 h -54.73171 c -4.21339,0 -7.00098,4.37565 -5.22033,8.19428 l 55.18199,118.33816 c 0.89628,1.92208 0.0647,4.2068 -1.85737,5.10308 l -190.54215,88.85124 c -1.92205,0.8963 -4.20677,0.065 -5.10307,-1.8573 L 83.803932,856.0306 c -0.896273,-1.92207 -0.0647,-4.20679 1.857368,-5.10307 l 125.28799,-58.42275 c 1.92207,-0.89627 4.20679,-0.0647 5.10307,1.85737 l 26.37138,56.5536 c 1.34442,2.88311 4.77151,4.13047 7.65462,2.78605 l 39.54094,-18.43824 c 3.72423,-1.73664 2.48637,-7.32022 -1.62286,-7.32022 h -47.4686 c -2.12077,0 -3.84,-1.71923 -3.84,-3.84 v -282.24 c 0,-2.12077 1.71923,-3.84 3.84,-3.84 h 134.4 c 2.05785,0 3.95938,-1.09785 4.98831,-2.88 0.68595,-1.1881 1.95364,-1.92 3.32554,-1.92 h 63.68615 c 2.34712,0 4.4595,-1.42416 5.33967,-3.6 0.58678,-1.45056 1.99502,-2.4 3.55977,-2.4"
         inkscape:connector-curvature="0"
         sodipodi:nodetypes="csssssssssssssssssscscsscsssssssscccscssccsssssssscsc" />
      <path
         id="path6432"
         style="fill:none;stroke:#000000;stroke-linecap:round"
         d="m 312.59472,442.20472 0.0244,-3.67186 L 260.16,417.20769 h -30.66331 c -14.61163,0 -26.45669,11.84506 -26.45669,26.45669 v 298.162 c 0,10.28221 -5.95741,19.63314 -15.2764,23.97828 L 61.488701,824.68259 c -13.243107,6.17484 -18.972868,21.91634 -12.797646,35.15927 l 98.133115,210.44894 c 6.17476,13.2419 21.91469,18.9715 35.1571,12.7978 L 482.71064,942.88557 c 3.50082,-1.63212 7.31656,-2.47788 11.17915,-2.47788 h 291.52552 c 14.61163,0 26.45669,-11.84507 26.45669,-26.4567 V 443.66438 c 0,-14.61163 -11.84506,-26.45669 -26.45669,-26.45669 H 583.6909 l -21.26117,23.32479 H 484.255 L 452.61373,417.20769 H 392.832 l -52.45831,21.32517 c -0.004,1.89075 0.0145,1.78134 -0.0156,3.67186"
         inkscape:connector-curvature="0"
         sodipodi:nodetypes="ccccccsssssssssssssscccc" />
      <path
         id="path6434"
         style="fill:none;stroke:#000000;stroke-linecap:round"
         d="m 434.54946,434.00805 a 5.6692915,5.6692915 0 1 0 -11.33858,0 5.6692915,5.6692915 0 1 0 11.33858,0 z"
         inkscape:connector-curvature="0" />
      <path
         id="path6436"
         style="fill:none;stroke:#000000;stroke-linecap:round"
         d="m 793.8668,440.88218 a 5.669291,5.669291 0 1 0 -11.33858,0 5.669291,5.669291 0 1 0 11.33858,0 z"
         inkscape:connector-curvature="0" />
      <path
         id="path6438"
         style="fill:none;stroke:#000000;stroke-linecap:round"
         d="m 793.8668,910.73319 a 5.669291,5.669291 0 1 0 -11.33858,0 5.669291,5.669291 0 1 0 11.33858,0 z"
         inkscape:connector-curvature="0" />
      <path
         id="path6440"
         style="fill:none;stroke:#000000;stroke-linecap:round"
         d="m 489.97026,923.60805 a 5.669291,5.669291 0 1 0 -11.33858,0 5.669291,5.669291 0 1 0 11.33858,0 z"
         inkscape:connector-curvature="0" />
      <path
         id="path6442"
         style="fill:none;stroke:#000000;stroke-linecap:round"
         d="m 434.54929,434.00768 a 5.669291,5.669291 0 1 0 -11.33858,0 5.669291,5.669291 0 1 0 11.33858,0 z"
         inkscape:connector-curvature="0" />
      <path
         id="path6444"
         style="fill:none;stroke:#000000;stroke-linecap:round"
         d="m 232.40778,440.88218 a 5.669291,5.669291 0 1 0 -11.33858,0 5.669291,5.669291 0 1 0 11.33858,0 z"
         inkscape:connector-curvature="0" />
      <path
         id="path6446"
         style="fill:none;stroke:#000000;stroke-linecap:round"
         d="m 74.642892,847.31609 a 5.669291,5.669291 0 1 0 -11.338582,0 5.669291,5.669291 0 1 0 11.338582,0 z"
         inkscape:connector-curvature="0" />
      <path
         id="path6448"
         style="fill:none;stroke:#000000;stroke-linecap:round"
         d="m 175.12707,1062.8099 a 5.669295,5.669295 0 1 0 -11.33859,0 5.669295,5.669295 0 1 0 11.33859,0 z"
         inkscape:connector-curvature="0" />
    </g>
    <path
       style="display:inline;fill:none;stroke:#000000;stroke-width:0.26458332px;stroke-linecap:butt;stroke-linejoin:miter;stroke-opacity:1"
       d="M 80.857688,39.813961 Z"
       id="path6216"
       inkscape:connector-curvature="0" />
    <path
       style="display:inline;fill:none;stroke:#000000;stroke-width:0.26458332px;stroke-linecap:butt;stroke-linejoin:miter;stroke-opacity:1"
       d="m 80.857688,39.813961 2.84025,-0.01289"
       id="path6218"
       inkscape:connector-curvature="0" />
    <path
       style="display:inline;fill:none;stroke:#000000;stroke-width:0.26458332px;stroke-linecap:butt;stroke-linejoin:miter;stroke-opacity:1"
       d="m 111.44756,61.802365 -0.0386,0.506103"
       id="path8810"
       inkscape:connector-curvature="0" />
    <path
       style="display:inline;fill:none;stroke:#000000;stroke-width:0.26458332px;stroke-linecap:butt;stroke-linejoin:miter;stroke-opacity:1"
       d="m 129.18758,61.802365 0.11805,0.506103"
       id="path8814"
       inkscape:connector-curvature="0" />
  </g>
</svg>
