<?xml version="1.0" encoding="UTF-8" standalone="no"?>
<!-- Created with Inkscape (http://www.inkscape.org/) -->

<svg
   xmlns:dc="http://purl.org/dc/elements/1.1/"
   xmlns:cc="http://creativecommons.org/ns#"
   xmlns:rdf="http://www.w3.org/1999/02/22-rdf-syntax-ns#"
   xmlns:svg="http://www.w3.org/2000/svg"
   xmlns="http://www.w3.org/2000/svg"
   xmlns:sodipodi="http://sodipodi.sourceforge.net/DTD/sodipodi-0.dtd"
   xmlns:inkscape="http://www.inkscape.org/namespaces/inkscape"
   width="210mm"
   height="297mm"
   viewBox="0 0 210 297"
   version="1.1"
   id="svg7278"
   inkscape:version="0.92.3 (2405546, 2018-03-11)"
   sodipodi:docname="spacer_bottom.svg">
  <defs
     id="defs7272" />
  <sodipodi:namedview
     id="base"
     pagecolor="#ffffff"
     bordercolor="#666666"
     borderopacity="1.0"
     inkscape:pageopacity="0.0"
     inkscape:pageshadow="2"
     inkscape:zoom="0.24748737"
     inkscape:cx="627.44975"
     inkscape:cy="-116.01852"
     inkscape:document-units="mm"
     inkscape:current-layer="layer1"
     showgrid="false"
     inkscape:window-width="1366"
     inkscape:window-height="705"
     inkscape:window-x="-8"
     inkscape:window-y="-8"
     inkscape:window-maximized="1" />
  <metadata
     id="metadata7275">
    <rdf:RDF>
      <cc:Work
         rdf:about="">
        <dc:format>image/svg+xml</dc:format>
        <dc:type
           rdf:resource="http://purl.org/dc/dcmitype/StillImage" />
        <dc:title />
      </cc:Work>
    </rdf:RDF>
  </metadata>
  <g
     inkscape:label="Layer 1"
     inkscape:groupmode="layer"
     id="layer1">
    <path
       inkscape:connector-curvature="0"
       d="m 204.08896,184.18949 a 2.47256,2.47256 0 1 0 -4.94512,0 2.47256,2.47256 0 1 0 4.94512,0 z"
       style="fill:none;stroke:#000000;stroke-width:0.43613192;stroke-linecap:round"
       id="path6922" />
    <path
       sodipodi:nodetypes="cccccccccccccccccccccc"
       inkscape:connector-curvature="0"
       d="m 37.837435,218.06063 -21.68398,-46.50232 1.5367,-4.21894 33.09112,-15.4305 h 4.9022 v -86.233 l 3.200399,-3.175 h 12.065 v -1.777997 h 17.1704 v 1.777997 h 33.170136 v -1.777997 h 20.53038 l 0.0472,1.589008 53.94824,0.188989 3.175,3.175 v 107.95 l -9.525,9.525 h -69.2404 l -78.168495,36.44392 z"
       style="fill:none;stroke:#000000;stroke-width:0.26458332;stroke-linecap:round"
       id="path6924" />
    <path
       inkscape:connector-curvature="0"
       d="m 204.08896,59.874748 a 2.47256,2.47256 0 1 0 -4.94512,0 2.47256,2.47256 0 1 0 4.94512,0 z"
       style="fill:none;stroke:#000000;stroke-width:0.43613192;stroke-linecap:round"
       id="path6926" />
    <path
       sodipodi:nodetypes="csssssssssssssscccccccc"
       inkscape:connector-curvature="0"
       d="m 147.50736,53.610873 h 53.37291 c 3.866,0 7,3.134005 7,6.999999 V 185.04087 c 0,3.86599 -3.134,7 -7,7 h -77.13279 c -1.02198,0 -2.03156,0.22378 -2.95782,0.65561 l -79.567974,37.09538 c -3.503721,1.63346 -7.668244,0.1175 -9.301983,-3.38608 L 5.9553168,170.7245 C 4.321456,167.22064 5.8374552,163.0557 9.3413606,161.42194 L 42.751594,145.84382 c 2.465649,-1.14965 4.041881,-3.62375 4.041881,-6.34425 V 60.610872 c 0,-3.865994 3.134005,-6.999999 6.999999,-6.999999 h 8.113 l 13.879701,5.642184 h 7.343399 l 13.8797,-5.642184 h 15.817246 l 8.37176,6.171351 h 20.68373 z"
       style="fill:none;stroke:#000000;stroke-width:0.26458332;stroke-linecap:round"
       id="path6928" />
    <path
       inkscape:connector-curvature="0"
       d="m 40.380739,224.42646 a 2.472561,2.472561 0 1 0 -4.945122,0 2.472561,2.472561 0 1 0 4.945122,0 z"
       style="fill:none;stroke:#000000;stroke-width:0.43613181;stroke-linecap:round"
       id="path6930" />
    <path
       inkscape:connector-curvature="0"
       d="m 123.68295,187.59587 a 2.47256,2.47256 0 1 0 -4.94512,0 2.47256,2.47256 0 1 0 4.94512,0 z"
       style="fill:none;stroke:#000000;stroke-width:0.43613192;stroke-linecap:round"
       id="path6932" />
    <path
       inkscape:connector-curvature="0"
       d="m 13.793806,167.41039 a 2.4720671,2.4720671 0 1 0 -4.9441327,0 2.4720671,2.4720671 0 1 0 4.9441327,0 z"
       style="fill:none;stroke:#000000;stroke-width:0.43604517;stroke-linecap:round"
       id="path6934" />
    <path
       inkscape:connector-curvature="0"
       d="m 109.01953,58.05587 a 2.47256,2.47256 0 1 0 -4.94512,0 2.47256,2.47256 0 1 0 4.94512,0 z"
       style="fill:none;stroke:#000000;stroke-width:0.43613192;stroke-linecap:round"
       id="path6936" />
    <path
       inkscape:connector-curvature="0"
       d="m 55.53626,59.874748 a 2.47256,2.47256 0 1 0 -4.94512,0 2.47256,2.47256 0 1 0 4.94512,0 z"
       style="fill:none;stroke:#000000;stroke-width:0.43613192;stroke-linecap:round"
       id="path6938" />
  </g>
</svg>
