  0
SECTION
  2
HEADER
  9
$ACADVER
  1
AC1014
  9
$HANDSEED
  5
FFFF
  9
$MEASUREMENT
 70
     1
  0
ENDSEC
  0
SECTION
  2
TABLES
  0
TABLE
  2
VPORT
  5
8
330
0
100
AcDbSymbolTable
 70
     4
  0
VPORT
  5
2E
330
8
100
AcDbSymbolTableRecord
100
AcDbViewportTableRecord
  2
*ACTIVE
 70
     0
 10
0.0
 20
0.0
 11
1.0
 21
1.0
 12
210.0
 22
148.5
 13
0.0
 23
0.0
 14
10.0
 24
10.0
 15
10.0
 25
10.0
 16
0.0
 26
0.0
 36
1.0
 17
0.0
 27
0.0
 37
0.0
 40
341.0
 41
1.24
 42
50.0
 43
0.0
 44
0.0
 50
0.0
 51
0.0
 71
     0
 72
   100
 73
     1
 74
     3
 75
     0
 76
     0
 77
     0
 78
     0
  0
ENDTAB
  0
TABLE
  2
LTYPE
  5
5
330
0
100
AcDbSymbolTable
 70
     1
  0
LTYPE
  5
14
330
5
100
AcDbSymbolTableRecord
100
AcDbLinetypeTableRecord
  2
BYBLOCK
 70
     0
  3

 72
    65
 73
     0
 40
0.0
  0
LTYPE
  5
15
330
5
100
AcDbSymbolTableRecord
100
AcDbLinetypeTableRecord
  2
BYLAYER
 70
     0
  3

 72
    65
 73
     0
 40
0.0
  0
LTYPE
  5
16
330
5
100
AcDbSymbolTableRecord
100
AcDbLinetypeTableRecord
  2
CONTINUOUS
 70
     0
  3
Solid line
 72
    65
 73
     0
 40
0.0
  0
ENDTAB
  0
TABLE
  2
LAYER
  5
2
100
AcDbSymbolTable
 70
2
  0
LAYER
  5
50
100
AcDbSymbolTableRecord
100
AcDbLayerTableRecord
  2
0
 70
0
  6
CONTINUOUS
  0
LAYER
  5
51
100
AcDbSymbolTableRecord
100
AcDbLayerTableRecord
  2
Layer_1
 70
0
  6
CONTINUOUS
  0
ENDTAB
  0
TABLE
  2
STYLE
  5
3
330
0
100
AcDbSymbolTable
 70
     1
  0
STYLE
  5
11
330
3
100
AcDbSymbolTableRecord
100
AcDbTextStyleTableRecord
  2
STANDARD
 70
     0
 40
0.0
 41
1.0
 50
0.0
 71
     0
 42
2.5
  3
txt
  4

  0
ENDTAB
  0
TABLE
  2
VIEW
  5
6
330
0
100
AcDbSymbolTable
 70
     0
  0
ENDTAB
  0
TABLE
  2
UCS
  5
7
330
0
100
AcDbSymbolTable
 70
     0
  0
ENDTAB
  0
TABLE
  2
APPID
  5
9
330
0
100
AcDbSymbolTable
 70
     2
  0
APPID
  5
12
330
9
100
AcDbSymbolTableRecord
100
AcDbRegAppTableRecord
  2
ACAD
 70
     0
  0
ENDTAB
  0
TABLE
  2
DIMSTYLE
  5
A
330
0
100
AcDbSymbolTable
 70
     1
  0
DIMSTYLE
105
27
330
A
100
AcDbSymbolTableRecord
100
AcDbDimStyleTableRecord
  2
ISO-25
 70
     0
  3

  4

  5

  6

  7

 40
1.0
 41
2.5
 42
0.625
 43
3.75
 44
1.25
 45
0.0
 46
0.0
 47
0.0
 48
0.0
140
2.5
141
2.5
142
0.0
143
0.03937007874016
144
1.0
145
0.0
146
1.0
147
0.625
 71
     0
 72
     0
 73
     0
 74
     0
 75
     0
 76
     0
 77
     1
 78
     8
170
     0
171
     3
172
     1
173
     0
174
     0
175
     0
176
     0
177
     0
178
     0
270
     2
271
     2
272
     2
273
     2
274
     3
340
11
275
     0
280
     0
281
     0
282
     0
283
     0
284
     8
285
     0
286
     0
287
     3
288
     0
  0
ENDTAB
  0
TABLE
  2
BLOCK_RECORD
  5
1
330
0
100
AcDbSymbolTable
 70
     1
  0
BLOCK_RECORD
  5
1F
330
1
100
AcDbSymbolTableRecord
100
AcDbBlockTableRecord
  2
*MODEL_SPACE
  0
BLOCK_RECORD
  5
1B
330
1
100
AcDbSymbolTableRecord
100
AcDbBlockTableRecord
  2
*PAPER_SPACE
  0
ENDTAB
  0
ENDSEC
  0
SECTION
  2
BLOCKS
  0
BLOCK
  5
20
330
1F
100
AcDbEntity
  8
0
100
AcDbBlockBegin
  2
*MODEL_SPACE
 70
     0
 10
0.0
 20
0.0
 30
0.0
  3
*MODEL_SPACE
  1

  0
ENDBLK
  5
21
330
1F
100
AcDbEntity
  8
0
100
AcDbBlockEnd
  0
BLOCK
  5
1C
330
1B
100
AcDbEntity
 67
     1
  8
0
100
AcDbBlockBegin
  2
*PAPER_SPACE
  1

  0
ENDBLK
  5
1D
330
1B
100
AcDbEntity
 67
     1
  8
0
100
AcDbBlockEnd
  0
ENDSEC
  0
SECTION
  2
ENTITIES
  0
SPLINE
  5
100
100
AcDbEntity
  8
Layer_1
 62
7
100
AcDbSpline
 70
8
 71
3
 72
8
 73
4
 74
0
 40
0
 40
0
 40
0
 40
0
 40
1
 40
1
 40
1
 40
1
 10
198.234320
 20
219.857606
 30
0.0
 10
198.234320
 20
220.122823
 30
0.0
 10
198.128964
 20
220.377177
 30
0.0
 10
197.941427
 20
220.564713
 30
0.0
  0
SPLINE
  5
101
100
AcDbEntity
  8
Layer_1
 62
7
100
AcDbSpline
 70
8
 71
3
 72
8
 73
4
 74
0
 40
0
 40
0
 40
0
 40
0
 40
1
 40
1
 40
1
 40
1
 10
197.941427
 20
220.564713
 30
0.0
 10
197.753891
 20
220.752250
 30
0.0
 10
197.499537
 20
220.857607
 30
0.0
 10
197.234320
 20
220.857607
 30
0.0
  0
SPLINE
  5
102
100
AcDbEntity
  8
Layer_1
 62
7
100
AcDbSpline
 70
8
 71
3
 72
8
 73
4
 74
0
 40
0
 40
0
 40
0
 40
0
 40
1
 40
1
 40
1
 40
1
 10
197.234320
 20
144.149610
 30
0.0
 10
197.786605
 20
144.149610
 30
0.0
 10
198.234320
 20
144.597325
 30
0.0
 10
198.234320
 20
145.149610
 30
0.0
  0
SPLINE
  5
103
100
AcDbEntity
  8
Layer_1
 62
7
100
AcDbSpline
 70
8
 71
3
 72
8
 73
4
 74
0
 40
0
 40
0
 40
0
 40
0
 40
1
 40
1
 40
1
 40
1
 10
46.037520
 20
168.839720
 30
0.0
 10
46.037519
 20
166.119219
 30
0.0
 10
44.461288
 20
163.645122
 30
0.0
 10
41.995639
 20
162.495470
 30
0.0
  0
SPLINE
  5
104
100
AcDbEntity
  8
Layer_1
 62
7
100
AcDbSpline
 70
8
 71
3
 72
8
 73
4
 74
0
 40
0
 40
0
 40
0
 40
0
 40
1
 40
1
 40
1
 40
1
 10
41.995639
 20
162.495470
 30
0.0
 10
41.995639
 20
162.495470
 30
0.0
 10
8.585408
 20
146.917350
 30
0.0
 10
8.585408
 20
146.917350
 30
0.0
  0
SPLINE
  5
105
100
AcDbEntity
  8
Layer_1
 62
7
100
AcDbSpline
 70
8
 71
3
 72
8
 73
4
 74
0
 40
0
 40
0
 40
0
 40
0
 40
1
 40
1
 40
1
 40
1
 10
8.585408
 20
146.917350
 30
0.0
 10
6.902775
 20
146.132793
 30
0.0
 10
5.600731
 20
144.711934
 30
0.0
 10
4.965722
 20
142.967357
 30
0.0
  0
SPLINE
  5
106
100
AcDbEntity
  8
Layer_1
 62
7
100
AcDbSpline
 70
8
 71
3
 72
8
 73
4
 74
0
 40
0
 40
0
 40
0
 40
0
 40
1
 40
1
 40
1
 40
1
 10
4.965722
 20
142.967357
 30
0.0
 10
4.330712
 20
141.222781
 30
0.0
 10
4.414756
 20
139.297400
 30
0.0
 10
5.199364
 20
137.614790
 30
0.0
  0
SPLINE
  5
107
100
AcDbEntity
  8
Layer_1
 62
7
100
AcDbSpline
 70
8
 71
3
 72
8
 73
4
 74
0
 40
0
 40
0
 40
0
 40
0
 40
1
 40
1
 40
1
 40
1
 10
5.199364
 20
137.614790
 30
0.0
 10
5.199364
 20
137.614790
 30
0.0
 10
31.163749
 20
81.933510
 30
0.0
 10
31.163749
 20
81.933510
 30
0.0
  0
SPLINE
  5
108
100
AcDbEntity
  8
Layer_1
 62
7
100
AcDbSpline
 70
8
 71
3
 72
8
 73
4
 74
0
 40
0
 40
0
 40
0
 40
0
 40
1
 40
1
 40
1
 40
1
 10
31.163749
 20
81.933510
 30
0.0
 10
32.797490
 20
78.429918
 30
0.0
 10
36.962012
 20
76.913961
 30
0.0
 10
40.465731
 20
78.547430
 30
0.0
  0
SPLINE
  5
109
100
AcDbEntity
  8
Layer_1
 62
7
100
AcDbSpline
 70
8
 71
3
 72
8
 73
4
 74
0
 40
0
 40
0
 40
0
 40
0
 40
1
 40
1
 40
1
 40
1
 10
40.465731
 20
78.547430
 30
0.0
 10
40.465731
 20
78.547430
 30
0.0
 10
120.033710
 20
115.642810
 30
0.0
 10
120.033710
 20
115.642810
 30
0.0
  0
SPLINE
  5
10a
100
AcDbEntity
  8
Layer_1
 62
7
100
AcDbSpline
 70
8
 71
3
 72
8
 73
4
 74
0
 40
0
 40
0
 40
0
 40
0
 40
1
 40
1
 40
1
 40
1
 10
120.033710
 20
115.642810
 30
0.0
 10
120.959967
 20
116.074641
 30
0.0
 10
121.969546
 20
116.298418
 30
0.0
 10
122.991520
 20
116.298420
 30
0.0
  0
LINE
  5
10b
100
AcDbEntity
  8
Layer_1
 62
7
100
AcDbLine
 10
122.991520
 20
116.298420
 30
0.0
 11
200.124320
 21
116.298420
 31
0.0
  0
SPLINE
  5
10c
100
AcDbEntity
  8
Layer_1
 62
7
100
AcDbSpline
 70
8
 71
3
 72
8
 73
4
 74
0
 40
0
 40
0
 40
0
 40
0
 40
1
 40
1
 40
1
 40
1
 10
200.124320
 20
116.298420
 30
0.0
 10
201.980835
 20
116.298420
 30
0.0
 10
203.761313
 20
117.035918
 30
0.0
 10
205.074067
 20
118.348673
 30
0.0
  0
SPLINE
  5
10d
100
AcDbEntity
  8
Layer_1
 62
7
100
AcDbSpline
 70
8
 71
3
 72
8
 73
4
 74
0
 40
0
 40
0
 40
0
 40
0
 40
1
 40
1
 40
1
 40
1
 10
205.074067
 20
118.348673
 30
0.0
 10
206.386822
 20
119.661427
 30
0.0
 10
207.124320
 20
121.441905
 30
0.0
 10
207.124320
 20
123.298420
 30
0.0
  0
SPLINE
  5
10e
100
AcDbEntity
  8
Layer_1
 62
7
100
AcDbSpline
 70
8
 71
3
 72
8
 73
4
 74
0
 40
0
 40
0
 40
0
 40
0
 40
1
 40
1
 40
1
 40
1
 10
207.124320
 20
123.298420
 30
0.0
 10
207.124320
 20
123.298420
 30
0.0
 10
207.124320
 20
247.728415
 30
0.0
 10
207.124320
 20
247.728415
 30
0.0
  0
SPLINE
  5
10f
100
AcDbEntity
  8
Layer_1
 62
7
100
AcDbSpline
 70
8
 71
3
 72
8
 73
4
 74
0
 40
0
 40
0
 40
0
 40
0
 40
1
 40
1
 40
1
 40
1
 10
207.124320
 20
247.728415
 30
0.0
 10
207.124319
 20
251.594408
 30
0.0
 10
203.990313
 20
254.728414
 30
0.0
 10
200.124320
 20
254.728414
 30
0.0
  0
SPLINE
  5
110
100
AcDbEntity
  8
Layer_1
 62
7
100
AcDbSpline
 70
8
 71
3
 72
8
 73
4
 74
0
 40
0
 40
0
 40
0
 40
0
 40
1
 40
1
 40
1
 40
1
 10
200.124320
 20
254.728414
 30
0.0
 10
200.124320
 20
254.728414
 30
0.0
 10
53.037520
 20
254.728414
 30
0.0
 10
53.037520
 20
254.728414
 30
0.0
  0
SPLINE
  5
111
100
AcDbEntity
  8
Layer_1
 62
7
100
AcDbSpline
 70
8
 71
3
 72
8
 73
4
 74
0
 40
0
 40
0
 40
0
 40
0
 40
1
 40
1
 40
1
 40
1
 10
53.037520
 20
254.728414
 30
0.0
 10
49.171527
 20
254.728414
 30
0.0
 10
46.037521
 20
251.594408
 30
0.0
 10
46.037520
 20
247.728415
 30
0.0
  0
LINE
  5
112
100
AcDbEntity
  8
Layer_1
 62
7
100
AcDbLine
 10
46.037520
 20
247.728415
 30
0.0
 11
46.037520
 21
168.839720
 31
0.0
  0
LINE
  5
113
100
AcDbEntity
  8
Layer_1
 62
7
100
AcDbLine
 10
55.956178
 20
146.054610
 30
0.0
 11
68.515578
 21
146.054610
 31
0.0
  0
SPLINE
  5
114
100
AcDbEntity
  8
Layer_1
 62
7
100
AcDbSpline
 70
8
 71
3
 72
8
 73
4
 74
0
 40
0
 40
0
 40
0
 40
0
 40
1
 40
1
 40
1
 40
1
 10
107.291060
 20
250.283319
 30
0.0
 10
107.292446
 20
250.820138
 30
0.0
 10
107.006852
 20
251.316774
 30
0.0
 10
106.542183
 20
251.585584
 30
0.0
  0
SPLINE
  5
115
100
AcDbEntity
  8
Layer_1
 62
7
100
AcDbSpline
 70
8
 71
3
 72
8
 73
4
 74
0
 40
0
 40
0
 40
0
 40
0
 40
1
 40
1
 40
1
 40
1
 10
106.542183
 20
251.585584
 30
0.0
 10
106.077513
 20
251.854395
 30
0.0
 10
105.504617
 20
251.854395
 30
0.0
 10
105.039947
 20
251.585584
 30
0.0
  0
SPLINE
  5
116
100
AcDbEntity
  8
Layer_1
 62
7
100
AcDbSpline
 70
8
 71
3
 72
8
 73
4
 74
0
 40
0
 40
0
 40
0
 40
0
 40
1
 40
1
 40
1
 40
1
 10
105.039947
 20
251.585584
 30
0.0
 10
104.575278
 20
251.316774
 30
0.0
 10
104.289684
 20
250.820138
 30
0.0
 10
104.291070
 20
250.283319
 30
0.0
  0
SPLINE
  5
117
100
AcDbEntity
  8
Layer_1
 62
7
100
AcDbSpline
 70
8
 71
3
 72
8
 73
4
 74
0
 40
0
 40
0
 40
0
 40
0
 40
1
 40
1
 40
1
 40
1
 10
104.291070
 20
250.283319
 30
0.0
 10
104.289684
 20
249.746500
 30
0.0
 10
104.575278
 20
249.249864
 30
0.0
 10
105.039947
 20
248.981054
 30
0.0
  0
SPLINE
  5
118
100
AcDbEntity
  8
Layer_1
 62
7
100
AcDbSpline
 70
8
 71
3
 72
8
 73
4
 74
0
 40
0
 40
0
 40
0
 40
0
 40
1
 40
1
 40
1
 40
1
 10
105.039947
 20
248.981054
 30
0.0
 10
105.504617
 20
248.712243
 30
0.0
 10
106.077513
 20
248.712243
 30
0.0
 10
106.542183
 20
248.981054
 30
0.0
  0
SPLINE
  5
119
100
AcDbEntity
  8
Layer_1
 62
7
100
AcDbSpline
 70
8
 71
3
 72
8
 73
4
 74
0
 40
0
 40
0
 40
0
 40
0
 40
1
 40
1
 40
1
 40
1
 10
106.542183
 20
248.981054
 30
0.0
 10
107.006852
 20
249.249864
 30
0.0
 10
107.292446
 20
249.746500
 30
0.0
 10
107.291060
 20
250.283319
 30
0.0
  0
LINE
  5
11a
100
AcDbEntity
  8
Layer_1
 62
7
100
AcDbLine
 10
107.291060
 20
250.283319
 30
0.0
 11
107.291060
 21
250.283319
 31
0.0
  0
SPLINE
  5
11b
100
AcDbEntity
  8
Layer_1
 62
7
100
AcDbSpline
 70
8
 71
3
 72
8
 73
4
 74
0
 40
0
 40
0
 40
0
 40
0
 40
1
 40
1
 40
1
 40
1
 10
54.940178
 20
147.070610
 30
0.0
 10
54.940178
 20
146.801150
 30
0.0
 10
55.047221
 20
146.542726
 30
0.0
 10
55.237758
 20
146.352190
 30
0.0
  0
SPLINE
  5
11c
100
AcDbEntity
  8
Layer_1
 62
7
100
AcDbSpline
 70
8
 71
3
 72
8
 73
4
 74
0
 40
0
 40
0
 40
0
 40
0
 40
1
 40
1
 40
1
 40
1
 10
55.237758
 20
146.352190
 30
0.0
 10
55.428294
 20
146.161653
 30
0.0
 10
55.686718
 20
146.054610
 30
0.0
 10
55.956178
 20
146.054610
 30
0.0
  0
SPLINE
  5
11d
100
AcDbEntity
  8
Layer_1
 62
7
100
AcDbSpline
 70
8
 71
3
 72
8
 73
4
 74
0
 40
0
 40
0
 40
0
 40
0
 40
1
 40
1
 40
1
 40
1
 10
55.956178
 20
222.762607
 30
0.0
 10
55.686718
 20
222.762607
 30
0.0
 10
55.428294
 20
222.655564
 30
0.0
 10
55.237758
 20
222.465027
 30
0.0
  0
SPLINE
  5
11e
100
AcDbEntity
  8
Layer_1
 62
7
100
AcDbSpline
 70
8
 71
3
 72
8
 73
4
 74
0
 40
0
 40
0
 40
0
 40
0
 40
1
 40
1
 40
1
 40
1
 10
55.237758
 20
222.465027
 30
0.0
 10
55.047221
 20
222.274491
 30
0.0
 10
54.940178
 20
222.016067
 30
0.0
 10
54.940178
 20
221.746607
 30
0.0
  0
LINE
  5
11f
100
AcDbEntity
  8
Layer_1
 62
7
100
AcDbLine
 10
54.940178
 20
221.746607
 30
0.0
 11
54.940178
 21
147.070610
 31
0.0
  0
LINE
  5
120
100
AcDbEntity
  8
Layer_1
 62
7
100
AcDbLine
 10
91.516178
 20
222.762607
 30
0.0
 11
55.956178
 21
222.762607
 31
0.0
  0
SPLINE
  5
121
100
AcDbEntity
  8
Layer_1
 62
7
100
AcDbSpline
 70
8
 71
3
 72
8
 73
4
 74
0
 40
0
 40
0
 40
0
 40
0
 40
1
 40
1
 40
1
 40
1
 10
93.715884
 20
224.032607
 30
0.0
 10
93.352902
 20
224.032607
 30
0.0
 10
93.017493
 20
223.838959
 30
0.0
 10
92.836002
 20
223.524607
 30
0.0
  0
SPLINE
  5
122
100
AcDbEntity
  8
Layer_1
 62
7
100
AcDbSpline
 70
8
 71
3
 72
8
 73
4
 74
0
 40
0
 40
0
 40
0
 40
0
 40
1
 40
1
 40
1
 40
1
 10
91.516178
 20
222.762607
 30
0.0
 10
92.059002
 20
222.768694
 30
0.0
 10
92.559318
 20
223.057552
 30
0.0
 10
92.836002
 20
223.524607
 30
0.0
  0
LINE
  5
123
100
AcDbEntity
  8
Layer_1
 62
7
100
AcDbLine
 10
110.566170
 20
224.032607
 30
0.0
 11
93.715884
 21
224.032607
 31
0.0
  0
SPLINE
  5
124
100
AcDbEntity
  8
Layer_1
 62
7
100
AcDbSpline
 70
8
 71
3
 72
8
 73
4
 74
0
 40
0
 40
0
 40
0
 40
0
 40
1
 40
1
 40
1
 40
1
 10
112.920820
 20
225.620107
 30
0.0
 10
112.507951
 20
225.616413
 30
0.0
 10
112.137211
 20
225.366461
 30
0.0
 10
111.978960
 20
224.985107
 30
0.0
  0
SPLINE
  5
125
100
AcDbEntity
  8
Layer_1
 62
7
100
AcDbSpline
 70
8
 71
3
 72
8
 73
4
 74
0
 40
0
 40
0
 40
0
 40
0
 40
1
 40
1
 40
1
 40
1
 10
110.566170
 20
224.032607
 30
0.0
 10
111.187181
 20
224.032605
 30
0.0
 10
111.746081
 20
224.409415
 30
0.0
 10
111.978960
 20
224.985107
 30
0.0
  0
LINE
  5
126
100
AcDbEntity
  8
Layer_1
 62
7
100
AcDbLine
 10
130.817530
 20
225.620107
 30
0.0
 11
112.920820
 21
225.620107
 31
0.0
  0
SPLINE
  5
127
100
AcDbEntity
  8
Layer_1
 62
7
100
AcDbSpline
 70
8
 71
3
 72
8
 73
4
 74
0
 40
0
 40
0
 40
0
 40
0
 40
1
 40
1
 40
1
 40
1
 10
131.759390
 20
224.985107
 30
0.0
 10
131.992935
 20
224.409959
 30
0.0
 10
132.551414
 20
224.033431
 30
0.0
 10
133.172170
 20
224.032607
 30
0.0
  0
SPLINE
  5
128
100
AcDbEntity
  8
Layer_1
 62
7
100
AcDbSpline
 70
8
 71
3
 72
8
 73
4
 74
0
 40
0
 40
0
 40
0
 40
0
 40
1
 40
1
 40
1
 40
1
 10
131.759390
 20
224.985107
 30
0.0
 10
131.604137
 20
225.368902
 30
0.0
 10
131.231537
 20
225.620108
 30
0.0
 10
130.817530
 20
225.620107
 30
0.0
  0
LINE
  5
129
100
AcDbEntity
  8
Layer_1
 62
7
100
AcDbLine
 10
149.682170
 20
224.032607
 30
0.0
 11
133.172170
 21
224.032607
 31
0.0
  0
LINE
  5
12a
100
AcDbEntity
  8
Layer_1
 62
7
100
AcDbLine
 10
150.698170
 20
222.381607
 30
0.0
 11
150.698170
 21
223.016607
 31
0.0
  0
SPLINE
  5
12b
100
AcDbEntity
  8
Layer_1
 62
7
100
AcDbSpline
 70
8
 71
3
 72
8
 73
4
 74
0
 40
0
 40
0
 40
0
 40
0
 40
1
 40
1
 40
1
 40
1
 10
150.698170
 20
223.016607
 30
0.0
 10
150.698170
 20
223.286067
 30
0.0
 10
150.591127
 20
223.544491
 30
0.0
 10
150.400590
 20
223.735027
 30
0.0
  0
SPLINE
  5
12c
100
AcDbEntity
  8
Layer_1
 62
7
100
AcDbSpline
 70
8
 71
3
 72
8
 73
4
 74
0
 40
0
 40
0
 40
0
 40
0
 40
1
 40
1
 40
1
 40
1
 10
150.400590
 20
223.735027
 30
0.0
 10
150.210054
 20
223.925564
 30
0.0
 10
149.951630
 20
224.032607
 30
0.0
 10
149.682170
 20
224.032607
 30
0.0
  0
SPLINE
  5
12d
100
AcDbEntity
  8
Layer_1
 62
7
100
AcDbSpline
 70
8
 71
3
 72
8
 73
4
 74
0
 40
0
 40
0
 40
0
 40
0
 40
1
 40
1
 40
1
 40
1
 10
150.698170
 20
222.381607
 30
0.0
 10
150.698170
 20
221.977417
 30
0.0
 10
150.858734
 20
221.589782
 30
0.0
 10
151.144539
 20
221.303976
 30
0.0
  0
SPLINE
  5
12e
100
AcDbEntity
  8
Layer_1
 62
7
100
AcDbSpline
 70
8
 71
3
 72
8
 73
4
 74
0
 40
0
 40
0
 40
0
 40
0
 40
1
 40
1
 40
1
 40
1
 10
151.144539
 20
221.303976
 30
0.0
 10
151.430345
 20
221.018171
 30
0.0
 10
151.817980
 20
220.857607
 30
0.0
 10
152.222170
 20
220.857607
 30
0.0
  0
LINE
  5
12f
100
AcDbEntity
  8
Layer_1
 62
7
100
AcDbLine
 10
190.322170
 20
144.149610
 30
0.0
 11
197.234320
 21
144.149610
 31
0.0
  0
LINE
  5
130
100
AcDbEntity
  8
Layer_1
 62
7
100
AcDbLine
 10
197.234320
 20
220.857607
 30
0.0
 11
152.222170
 21
220.857607
 31
0.0
  0
SPLINE
  5
131
100
AcDbEntity
  8
Layer_1
 62
7
100
AcDbSpline
 70
8
 71
3
 72
8
 73
4
 74
0
 40
0
 40
0
 40
0
 40
0
 40
1
 40
1
 40
1
 40
1
 10
190.322170
 20
144.149610
 30
0.0
 10
189.917980
 20
144.149610
 30
0.0
 10
189.530345
 20
143.989046
 30
0.0
 10
189.244539
 20
143.703241
 30
0.0
  0
SPLINE
  5
132
100
AcDbEntity
  8
Layer_1
 62
7
100
AcDbSpline
 70
8
 71
3
 72
8
 73
4
 74
0
 40
0
 40
0
 40
0
 40
0
 40
1
 40
1
 40
1
 40
1
 10
189.244539
 20
143.703241
 30
0.0
 10
188.958734
 20
143.417435
 30
0.0
 10
188.798170
 20
143.029800
 30
0.0
 10
188.798170
 20
142.625610
 30
0.0
  0
SPLINE
  5
133
100
AcDbEntity
  8
Layer_1
 62
7
100
AcDbSpline
 70
8
 71
3
 72
8
 73
4
 74
0
 40
0
 40
0
 40
0
 40
0
 40
1
 40
1
 40
1
 40
1
 10
187.782170
 20
125.099610
 30
0.0
 10
188.051630
 20
125.099610
 30
0.0
 10
188.310054
 20
125.206653
 30
0.0
 10
188.500590
 20
125.397190
 30
0.0
  0
SPLINE
  5
134
100
AcDbEntity
  8
Layer_1
 62
7
100
AcDbSpline
 70
8
 71
3
 72
8
 73
4
 74
0
 40
0
 40
0
 40
0
 40
0
 40
1
 40
1
 40
1
 40
1
 10
188.500590
 20
125.397190
 30
0.0
 10
188.691127
 20
125.587726
 30
0.0
 10
188.798170
 20
125.846150
 30
0.0
 10
188.798170
 20
126.115610
 30
0.0
  0
LINE
  5
135
100
AcDbEntity
  8
Layer_1
 62
7
100
AcDbLine
 10
188.798170
 20
126.115610
 30
0.0
 11
188.798170
 21
142.625610
 31
0.0
  0
LINE
  5
136
100
AcDbEntity
  8
Layer_1
 62
7
100
AcDbLine
 10
151.206170
 20
125.099610
 30
0.0
 11
187.782170
 21
125.099610
 31
0.0
  0
SPLINE
  5
137
100
AcDbEntity
  8
Layer_1
 62
7
100
AcDbSpline
 70
8
 71
3
 72
8
 73
4
 74
0
 40
0
 40
0
 40
0
 40
0
 40
1
 40
1
 40
1
 40
1
 10
150.190170
 20
126.115610
 30
0.0
 10
150.190170
 20
125.554489
 30
0.0
 10
150.645049
 20
125.099610
 30
0.0
 10
151.206170
 20
125.099610
 30
0.0
  0
LINE
  5
138
100
AcDbEntity
  8
Layer_1
 62
7
100
AcDbLine
 10
150.190170
 20
126.750610
 30
0.0
 11
150.190170
 21
126.115610
 31
0.0
  0
LINE
  5
139
100
AcDbEntity
  8
Layer_1
 62
7
100
AcDbLine
 10
131.970820
 20
128.274610
 30
0.0
 11
148.666170
 21
128.274610
 31
0.0
  0
SPLINE
  5
13a
100
AcDbEntity
  8
Layer_1
 62
7
100
AcDbSpline
 70
8
 71
3
 72
8
 73
4
 74
0
 40
0
 40
0
 40
0
 40
0
 40
1
 40
1
 40
1
 40
1
 10
150.190170
 20
126.750610
 30
0.0
 10
150.190170
 20
127.154800
 30
0.0
 10
150.029606
 20
127.542435
 30
0.0
 10
149.743801
 20
127.828241
 30
0.0
  0
SPLINE
  5
13b
100
AcDbEntity
  8
Layer_1
 62
7
100
AcDbSpline
 70
8
 71
3
 72
8
 73
4
 74
0
 40
0
 40
0
 40
0
 40
0
 40
1
 40
1
 40
1
 40
1
 10
149.743801
 20
127.828241
 30
0.0
 10
149.457995
 20
128.114046
 30
0.0
 10
149.070360
 20
128.274610
 30
0.0
 10
148.666170
 20
128.274610
 30
0.0
  0
SPLINE
  5
13c
100
AcDbEntity
  8
Layer_1
 62
7
100
AcDbSpline
 70
8
 71
3
 72
8
 73
4
 74
0
 40
0
 40
0
 40
0
 40
0
 40
1
 40
1
 40
1
 40
1
 10
131.028960
 20
128.909610
 30
0.0
 10
131.183499
 20
128.525237
 30
0.0
 10
131.556545
 20
128.273730
 30
0.0
 10
131.970820
 20
128.274610
 30
0.0
  0
SPLINE
  5
13d
100
AcDbEntity
  8
Layer_1
 62
7
100
AcDbSpline
 70
8
 71
3
 72
8
 73
4
 74
0
 40
0
 40
0
 40
0
 40
0
 40
1
 40
1
 40
1
 40
1
 10
131.028960
 20
128.909610
 30
0.0
 10
130.796081
 20
129.485302
 30
0.0
 10
130.237181
 20
129.862112
 30
0.0
 10
129.616170
 20
129.862110
 30
0.0
  0
LINE
  5
13e
100
AcDbEntity
  8
Layer_1
 62
7
100
AcDbLine
 10
114.122170
 20
129.862110
 30
0.0
 11
129.616170
 21
129.862110
 31
0.0
  0
SPLINE
  5
13f
100
AcDbEntity
  8
Layer_1
 62
7
100
AcDbSpline
 70
8
 71
3
 72
8
 73
4
 74
0
 40
0
 40
0
 40
0
 40
0
 40
1
 40
1
 40
1
 40
1
 10
111.767530
 20
128.274610
 30
0.0
 10
112.181537
 20
128.274609
 30
0.0
 10
112.554137
 20
128.525815
 30
0.0
 10
112.709390
 20
128.909610
 30
0.0
  0
SPLINE
  5
140
100
AcDbEntity
  8
Layer_1
 62
7
100
AcDbSpline
 70
8
 71
3
 72
8
 73
4
 74
0
 40
0
 40
0
 40
0
 40
0
 40
1
 40
1
 40
1
 40
1
 10
114.122170
 20
129.862110
 30
0.0
 10
113.501155
 20
129.862134
 30
0.0
 10
112.942246
 20
129.485316
 30
0.0
 10
112.709390
 20
128.909610
 30
0.0
  0
LINE
  5
141
100
AcDbEntity
  8
Layer_1
 62
7
100
AcDbLine
 10
94.056178
 20
128.274610
 30
0.0
 11
111.767530
 21
128.274610
 31
0.0
  0
SPLINE
  5
142
100
AcDbEntity
  8
Layer_1
 62
7
100
AcDbSpline
 70
8
 71
3
 72
8
 73
4
 74
0
 40
0
 40
0
 40
0
 40
0
 40
1
 40
1
 40
1
 40
1
 10
93.040178
 20
129.290610
 30
0.0
 10
93.040178
 20
129.021150
 30
0.0
 10
93.147221
 20
128.762726
 30
0.0
 10
93.337758
 20
128.572190
 30
0.0
  0
SPLINE
  5
143
100
AcDbEntity
  8
Layer_1
 62
7
100
AcDbSpline
 70
8
 71
3
 72
8
 73
4
 74
0
 40
0
 40
0
 40
0
 40
0
 40
1
 40
1
 40
1
 40
1
 10
93.337758
 20
128.572190
 30
0.0
 10
93.528294
 20
128.381653
 30
0.0
 10
93.786718
 20
128.274610
 30
0.0
 10
94.056178
 20
128.274610
 30
0.0
  0
LINE
  5
144
100
AcDbEntity
  8
Layer_1
 62
7
100
AcDbLine
 10
93.040178
 20
144.530610
 30
0.0
 11
93.040178
 21
129.290610
 31
0.0
  0
LINE
  5
145
100
AcDbEntity
  8
Layer_1
 62
7
100
AcDbLine
 10
77.035080
 20
146.054610
 30
0.0
 11
91.516178
 21
146.054610
 31
0.0
  0
SPLINE
  5
146
100
AcDbEntity
  8
Layer_1
 62
7
100
AcDbSpline
 70
8
 71
3
 72
8
 73
4
 74
0
 40
0
 40
0
 40
0
 40
0
 40
1
 40
1
 40
1
 40
1
 10
93.040178
 20
144.530610
 30
0.0
 10
93.040178
 20
144.934800
 30
0.0
 10
92.879614
 20
145.322435
 30
0.0
 10
92.593809
 20
145.608241
 30
0.0
  0
SPLINE
  5
147
100
AcDbEntity
  8
Layer_1
 62
7
100
AcDbSpline
 70
8
 71
3
 72
8
 73
4
 74
0
 40
0
 40
0
 40
0
 40
0
 40
1
 40
1
 40
1
 40
1
 10
92.593809
 20
145.608241
 30
0.0
 10
92.308003
 20
145.894046
 30
0.0
 10
91.920368
 20
146.054610
 30
0.0
 10
91.516178
 20
146.054610
 30
0.0
  0
SPLINE
  5
148
100
AcDbEntity
  8
Layer_1
 62
7
100
AcDbSpline
 70
8
 71
3
 72
8
 73
4
 74
0
 40
0
 40
0
 40
0
 40
0
 40
1
 40
1
 40
1
 40
1
 10
77.035080
 20
146.054610
 30
0.0
 10
76.516560
 20
146.049037
 30
0.0
 10
76.035924
 20
145.781982
 30
0.0
 10
75.757307
 20
145.344641
 30
0.0
  0
SPLINE
  5
149
100
AcDbEntity
  8
Layer_1
 62
7
100
AcDbSpline
 70
8
 71
3
 72
8
 73
4
 74
0
 40
0
 40
0
 40
0
 40
0
 40
1
 40
1
 40
1
 40
1
 10
75.757307
 20
145.344641
 30
0.0
 10
75.478691
 20
144.907300
 30
0.0
 10
75.439781
 20
144.358834
 30
0.0
 10
75.653867
 20
143.886540
 30
0.0
  0
LINE
  5
14a
100
AcDbEntity
  8
Layer_1
 62
7
100
AcDbLine
 10
90.254102
 20
112.576240
 30
0.0
 11
75.653867
 21
143.886540
 31
0.0
  0
SPLINE
  5
14b
100
AcDbEntity
  8
Layer_1
 62
7
100
AcDbSpline
 70
8
 71
3
 72
8
 73
4
 74
0
 40
0
 40
0
 40
0
 40
0
 40
1
 40
1
 40
1
 40
1
 10
89.762673
 20
111.226050
 30
0.0
 10
90.267013
 20
111.467029
 30
0.0
 10
90.485550
 20
112.067456
 30
0.0
 10
90.254102
 20
112.576240
 30
0.0
  0
SPLINE
  5
14c
100
AcDbEntity
  8
Layer_1
 62
7
100
AcDbSpline
 70
8
 71
3
 72
8
 73
4
 74
0
 40
0
 40
0
 40
0
 40
0
 40
1
 40
1
 40
1
 40
1
 10
37.998209
 20
88.208900
 30
0.0
 10
38.111995
 20
87.964603
 30
0.0
 10
38.318218
 20
87.775553
 30
0.0
 10
38.571463
 20
87.683383
 30
0.0
  0
SPLINE
  5
14d
100
AcDbEntity
  8
Layer_1
 62
7
100
AcDbSpline
 70
8
 71
3
 72
8
 73
4
 74
0
 40
0
 40
0
 40
0
 40
0
 40
1
 40
1
 40
1
 40
1
 10
38.571463
 20
87.683383
 30
0.0
 10
38.824707
 20
87.591213
 30
0.0
 10
39.104203
 20
87.603482
 30
0.0
 10
39.348396
 20
87.717490
 30
0.0
  0
LINE
  5
14e
100
AcDbEntity
  8
Layer_1
 62
7
100
AcDbLine
 10
39.348396
 20
87.717490
 30
0.0
 11
89.762673
 21
111.226050
 31
0.0
  0
SPLINE
  5
14f
100
AcDbEntity
  8
Layer_1
 62
7
100
AcDbSpline
 70
8
 71
3
 72
8
 73
4
 74
0
 40
0
 40
0
 40
0
 40
0
 40
1
 40
1
 40
1
 40
1
 10
53.807745
 20
248.464539
 30
0.0
 10
53.808137
 20
249.000698
 30
0.0
 10
53.522324
 20
249.496297
 30
0.0
 10
53.058062
 20
249.764490
 30
0.0
  0
SPLINE
  5
150
100
AcDbEntity
  8
Layer_1
 62
7
100
AcDbSpline
 70
8
 71
3
 72
8
 73
4
 74
0
 40
0
 40
0
 40
0
 40
0
 40
1
 40
1
 40
1
 40
1
 10
53.058062
 20
249.764490
 30
0.0
 10
52.593799
 20
250.032683
 30
0.0
 10
52.021692
 20
250.032683
 30
0.0
 10
51.557429
 20
249.764490
 30
0.0
  0
SPLINE
  5
151
100
AcDbEntity
  8
Layer_1
 62
7
100
AcDbSpline
 70
8
 71
3
 72
8
 73
4
 74
0
 40
0
 40
0
 40
0
 40
0
 40
1
 40
1
 40
1
 40
1
 10
51.557429
 20
249.764490
 30
0.0
 10
51.093167
 20
249.496297
 30
0.0
 10
50.807354
 20
249.000698
 30
0.0
 10
50.807746
 20
248.464539
 30
0.0
  0
SPLINE
  5
152
100
AcDbEntity
  8
Layer_1
 62
7
100
AcDbSpline
 70
8
 71
3
 72
8
 73
4
 74
0
 40
0
 40
0
 40
0
 40
0
 40
1
 40
1
 40
1
 40
1
 10
50.807746
 20
248.464539
 30
0.0
 10
50.807354
 20
247.928380
 30
0.0
 10
51.093167
 20
247.432781
 30
0.0
 10
51.557429
 20
247.164588
 30
0.0
  0
SPLINE
  5
153
100
AcDbEntity
  8
Layer_1
 62
7
100
AcDbSpline
 70
8
 71
3
 72
8
 73
4
 74
0
 40
0
 40
0
 40
0
 40
0
 40
1
 40
1
 40
1
 40
1
 10
51.557429
 20
247.164588
 30
0.0
 10
52.021692
 20
246.896395
 30
0.0
 10
52.593799
 20
246.896395
 30
0.0
 10
53.058062
 20
247.164588
 30
0.0
  0
SPLINE
  5
154
100
AcDbEntity
  8
Layer_1
 62
7
100
AcDbSpline
 70
8
 71
3
 72
8
 73
4
 74
0
 40
0
 40
0
 40
0
 40
0
 40
1
 40
1
 40
1
 40
1
 10
53.058062
 20
247.164588
 30
0.0
 10
53.522324
 20
247.432781
 30
0.0
 10
53.808137
 20
247.928380
 30
0.0
 10
53.807745
 20
248.464539
 30
0.0
  0
LINE
  5
155
100
AcDbEntity
  8
Layer_1
 62
7
100
AcDbLine
 10
53.807745
 20
248.464539
 30
0.0
 11
53.807745
 21
248.464539
 31
0.0
  0
SPLINE
  5
156
100
AcDbEntity
  8
Layer_1
 62
7
100
AcDbSpline
 70
8
 71
3
 72
8
 73
4
 74
0
 40
0
 40
0
 40
0
 40
0
 40
1
 40
1
 40
1
 40
1
 10
12.065786
 20
140.928900
 30
0.0
 10
12.066285
 20
141.465131
 30
0.0
 10
11.780496
 20
141.960842
 30
0.0
 10
11.316190
 20
142.229102
 30
0.0
  0
SPLINE
  5
157
100
AcDbEntity
  8
Layer_1
 62
7
100
AcDbSpline
 70
8
 71
3
 72
8
 73
4
 74
0
 40
0
 40
0
 40
0
 40
0
 40
1
 40
1
 40
1
 40
1
 10
11.316190
 20
142.229102
 30
0.0
 10
10.851883
 20
142.497361
 30
0.0
 10
10.279690
 20
142.497361
 30
0.0
 10
9.815384
 20
142.229102
 30
0.0
  0
SPLINE
  5
158
100
AcDbEntity
  8
Layer_1
 62
7
100
AcDbSpline
 70
8
 71
3
 72
8
 73
4
 74
0
 40
0
 40
0
 40
0
 40
0
 40
1
 40
1
 40
1
 40
1
 10
9.815384
 20
142.229102
 30
0.0
 10
9.351077
 20
141.960842
 30
0.0
 10
9.065288
 20
141.465131
 30
0.0
 10
9.065788
 20
140.928900
 30
0.0
  0
SPLINE
  5
159
100
AcDbEntity
  8
Layer_1
 62
7
100
AcDbSpline
 70
8
 71
3
 72
8
 73
4
 74
0
 40
0
 40
0
 40
0
 40
0
 40
1
 40
1
 40
1
 40
1
 10
9.065788
 20
140.928900
 30
0.0
 10
9.065288
 20
140.392669
 30
0.0
 10
9.351077
 20
139.896958
 30
0.0
 10
9.815384
 20
139.628698
 30
0.0
  0
SPLINE
  5
15a
100
AcDbEntity
  8
Layer_1
 62
7
100
AcDbSpline
 70
8
 71
3
 72
8
 73
4
 74
0
 40
0
 40
0
 40
0
 40
0
 40
1
 40
1
 40
1
 40
1
 10
9.815384
 20
139.628698
 30
0.0
 10
10.279690
 20
139.360439
 30
0.0
 10
10.851883
 20
139.360439
 30
0.0
 10
11.316190
 20
139.628698
 30
0.0
  0
SPLINE
  5
15b
100
AcDbEntity
  8
Layer_1
 62
7
100
AcDbSpline
 70
8
 71
3
 72
8
 73
4
 74
0
 40
0
 40
0
 40
0
 40
0
 40
1
 40
1
 40
1
 40
1
 10
11.316190
 20
139.628698
 30
0.0
 10
11.780496
 20
139.896958
 30
0.0
 10
12.066285
 20
140.392669
 30
0.0
 10
12.065786
 20
140.928900
 30
0.0
  0
LINE
  5
15c
100
AcDbEntity
  8
Layer_1
 62
7
100
AcDbLine
 10
12.065786
 20
140.928900
 30
0.0
 11
12.065786
 21
140.928900
 31
0.0
  0
SPLINE
  5
15d
100
AcDbEntity
  8
Layer_1
 62
7
100
AcDbSpline
 70
8
 71
3
 72
8
 73
4
 74
0
 40
0
 40
0
 40
0
 40
0
 40
1
 40
1
 40
1
 40
1
 10
38.652224
 20
83.912830
 30
0.0
 10
38.652224
 20
84.448729
 30
0.0
 10
38.366325
 20
84.943920
 30
0.0
 10
37.902224
 20
85.211869
 30
0.0
  0
SPLINE
  5
15e
100
AcDbEntity
  8
Layer_1
 62
7
100
AcDbSpline
 70
8
 71
3
 72
8
 73
4
 74
0
 40
0
 40
0
 40
0
 40
0
 40
1
 40
1
 40
1
 40
1
 10
37.902224
 20
85.211869
 30
0.0
 10
37.438122
 20
85.479818
 30
0.0
 10
36.866324
 20
85.479818
 30
0.0
 10
36.402223
 20
85.211869
 30
0.0
  0
SPLINE
  5
15f
100
AcDbEntity
  8
Layer_1
 62
7
100
AcDbSpline
 70
8
 71
3
 72
8
 73
4
 74
0
 40
0
 40
0
 40
0
 40
0
 40
1
 40
1
 40
1
 40
1
 10
36.402223
 20
85.211869
 30
0.0
 10
35.938121
 20
84.943920
 30
0.0
 10
35.652222
 20
84.448729
 30
0.0
 10
35.652222
 20
83.912830
 30
0.0
  0
SPLINE
  5
160
100
AcDbEntity
  8
Layer_1
 62
7
100
AcDbSpline
 70
8
 71
3
 72
8
 73
4
 74
0
 40
0
 40
0
 40
0
 40
0
 40
1
 40
1
 40
1
 40
1
 10
35.652222
 20
83.912830
 30
0.0
 10
35.652222
 20
83.376931
 30
0.0
 10
35.938121
 20
82.881740
 30
0.0
 10
36.402223
 20
82.613791
 30
0.0
  0
SPLINE
  5
161
100
AcDbEntity
  8
Layer_1
 62
7
100
AcDbSpline
 70
8
 71
3
 72
8
 73
4
 74
0
 40
0
 40
0
 40
0
 40
0
 40
1
 40
1
 40
1
 40
1
 10
36.402223
 20
82.613791
 30
0.0
 10
36.866324
 20
82.345842
 30
0.0
 10
37.438122
 20
82.345842
 30
0.0
 10
37.902224
 20
82.613791
 30
0.0
  0
SPLINE
  5
162
100
AcDbEntity
  8
Layer_1
 62
7
100
AcDbSpline
 70
8
 71
3
 72
8
 73
4
 74
0
 40
0
 40
0
 40
0
 40
0
 40
1
 40
1
 40
1
 40
1
 10
37.902224
 20
82.613791
 30
0.0
 10
38.366325
 20
82.881740
 30
0.0
 10
38.652224
 20
83.376931
 30
0.0
 10
38.652224
 20
83.912830
 30
0.0
  0
LINE
  5
163
100
AcDbEntity
  8
Layer_1
 62
7
100
AcDbLine
 10
38.652224
 20
83.912830
 30
0.0
 11
38.652224
 21
83.912830
 31
0.0
  0
SPLINE
  5
164
100
AcDbEntity
  8
Layer_1
 62
7
100
AcDbSpline
 70
8
 71
3
 72
8
 73
4
 74
0
 40
0
 40
0
 40
0
 40
0
 40
1
 40
1
 40
1
 40
1
 10
121.954440
 20
120.743420
 30
0.0
 10
121.954440
 20
121.279318
 30
0.0
 10
121.668542
 20
121.774509
 30
0.0
 10
121.204440
 20
122.042458
 30
0.0
  0
SPLINE
  5
165
100
AcDbEntity
  8
Layer_1
 62
7
100
AcDbSpline
 70
8
 71
3
 72
8
 73
4
 74
0
 40
0
 40
0
 40
0
 40
0
 40
1
 40
1
 40
1
 40
1
 10
121.204440
 20
122.042458
 30
0.0
 10
120.740338
 20
122.310407
 30
0.0
 10
120.168542
 20
122.310407
 30
0.0
 10
119.704440
 20
122.042458
 30
0.0
  0
SPLINE
  5
166
100
AcDbEntity
  8
Layer_1
 62
7
100
AcDbSpline
 70
8
 71
3
 72
8
 73
4
 74
0
 40
0
 40
0
 40
0
 40
0
 40
1
 40
1
 40
1
 40
1
 10
119.704440
 20
122.042458
 30
0.0
 10
119.240338
 20
121.774509
 30
0.0
 10
118.954440
 20
121.279318
 30
0.0
 10
118.954440
 20
120.743420
 30
0.0
  0
SPLINE
  5
167
100
AcDbEntity
  8
Layer_1
 62
7
100
AcDbSpline
 70
8
 71
3
 72
8
 73
4
 74
0
 40
0
 40
0
 40
0
 40
0
 40
1
 40
1
 40
1
 40
1
 10
118.954440
 20
120.743420
 30
0.0
 10
118.954440
 20
120.207522
 30
0.0
 10
119.240338
 20
119.712331
 30
0.0
 10
119.704440
 20
119.444382
 30
0.0
  0
SPLINE
  5
168
100
AcDbEntity
  8
Layer_1
 62
7
100
AcDbSpline
 70
8
 71
3
 72
8
 73
4
 74
0
 40
0
 40
0
 40
0
 40
0
 40
1
 40
1
 40
1
 40
1
 10
119.704440
 20
119.444382
 30
0.0
 10
120.168542
 20
119.176433
 30
0.0
 10
120.740338
 20
119.176433
 30
0.0
 10
121.204440
 20
119.444382
 30
0.0
  0
SPLINE
  5
169
100
AcDbEntity
  8
Layer_1
 62
7
100
AcDbSpline
 70
8
 71
3
 72
8
 73
4
 74
0
 40
0
 40
0
 40
0
 40
0
 40
1
 40
1
 40
1
 40
1
 10
121.204440
 20
119.444382
 30
0.0
 10
121.668542
 20
119.712331
 30
0.0
 10
121.954440
 20
120.207522
 30
0.0
 10
121.954440
 20
120.743420
 30
0.0
  0
LINE
  5
16a
100
AcDbEntity
  8
Layer_1
 62
7
100
AcDbLine
 10
121.954440
 20
120.743420
 30
0.0
 11
121.954440
 21
120.743420
 31
0.0
  0
SPLINE
  5
16b
100
AcDbEntity
  8
Layer_1
 62
7
100
AcDbSpline
 70
8
 71
3
 72
8
 73
4
 74
0
 40
0
 40
0
 40
0
 40
0
 40
1
 40
1
 40
1
 40
1
 10
202.360440
 20
124.149800
 30
0.0
 10
202.360440
 20
124.685698
 30
0.0
 10
202.074542
 20
125.180889
 30
0.0
 10
201.610440
 20
125.448838
 30
0.0
  0
SPLINE
  5
16c
100
AcDbEntity
  8
Layer_1
 62
7
100
AcDbSpline
 70
8
 71
3
 72
8
 73
4
 74
0
 40
0
 40
0
 40
0
 40
0
 40
1
 40
1
 40
1
 40
1
 10
201.610440
 20
125.448838
 30
0.0
 10
201.146338
 20
125.716787
 30
0.0
 10
200.574542
 20
125.716787
 30
0.0
 10
200.110440
 20
125.448838
 30
0.0
  0
SPLINE
  5
16d
100
AcDbEntity
  8
Layer_1
 62
7
100
AcDbSpline
 70
8
 71
3
 72
8
 73
4
 74
0
 40
0
 40
0
 40
0
 40
0
 40
1
 40
1
 40
1
 40
1
 10
200.110440
 20
125.448838
 30
0.0
 10
199.646338
 20
125.180889
 30
0.0
 10
199.360440
 20
124.685698
 30
0.0
 10
199.360440
 20
124.149800
 30
0.0
  0
SPLINE
  5
16e
100
AcDbEntity
  8
Layer_1
 62
7
100
AcDbSpline
 70
8
 71
3
 72
8
 73
4
 74
0
 40
0
 40
0
 40
0
 40
0
 40
1
 40
1
 40
1
 40
1
 10
199.360440
 20
124.149800
 30
0.0
 10
199.360440
 20
123.613902
 30
0.0
 10
199.646338
 20
123.118711
 30
0.0
 10
200.110440
 20
122.850762
 30
0.0
  0
SPLINE
  5
16f
100
AcDbEntity
  8
Layer_1
 62
7
100
AcDbSpline
 70
8
 71
3
 72
8
 73
4
 74
0
 40
0
 40
0
 40
0
 40
0
 40
1
 40
1
 40
1
 40
1
 10
200.110440
 20
122.850762
 30
0.0
 10
200.574542
 20
122.582813
 30
0.0
 10
201.146338
 20
122.582813
 30
0.0
 10
201.610440
 20
122.850762
 30
0.0
  0
SPLINE
  5
170
100
AcDbEntity
  8
Layer_1
 62
7
100
AcDbSpline
 70
8
 71
3
 72
8
 73
4
 74
0
 40
0
 40
0
 40
0
 40
0
 40
1
 40
1
 40
1
 40
1
 10
201.610440
 20
122.850762
 30
0.0
 10
202.074542
 20
123.118711
 30
0.0
 10
202.360440
 20
123.613902
 30
0.0
 10
202.360440
 20
124.149800
 30
0.0
  0
LINE
  5
171
100
AcDbEntity
  8
Layer_1
 62
7
100
AcDbLine
 10
202.360440
 20
124.149800
 30
0.0
 11
202.360440
 21
124.149800
 31
0.0
  0
LINE
  5
172
100
AcDbEntity
  8
Layer_1
 62
7
100
AcDbLine
 10
198.234320
 20
145.149610
 30
0.0
 11
198.234320
 21
219.857606
 31
0.0
  0
SPLINE
  5
173
100
AcDbEntity
  8
Layer_1
 62
7
100
AcDbSpline
 70
8
 71
3
 72
8
 73
4
 74
0
 40
0
 40
0
 40
0
 40
0
 40
1
 40
1
 40
1
 40
1
 10
68.944960
 20
144.117800
 30
0.0
 10
69.415817
 20
144.290246
 30
0.0
 10
69.686357
 20
144.784549
 30
0.0
 10
69.577824
 20
145.274104
 30
0.0
  0
SPLINE
  5
174
100
AcDbEntity
  8
Layer_1
 62
7
100
AcDbSpline
 70
8
 71
3
 72
8
 73
4
 74
0
 40
0
 40
0
 40
0
 40
0
 40
1
 40
1
 40
1
 40
1
 10
69.577824
 20
145.274104
 30
0.0
 10
69.469292
 20
145.763660
 30
0.0
 10
69.015198
 20
146.097314
 30
0.0
 10
68.515578
 20
146.054610
 30
0.0
  0
SPLINE
  5
175
100
AcDbEntity
  8
Layer_1
 62
7
100
AcDbSpline
 70
8
 71
3
 72
8
 73
4
 74
0
 40
0
 40
0
 40
0
 40
0
 40
1
 40
1
 40
1
 40
1
 10
202.360440
 20
248.464539
 30
0.0
 10
202.360440
 20
249.000437
 30
0.0
 10
202.074542
 20
249.495628
 30
0.0
 10
201.610440
 20
249.763577
 30
0.0
  0
SPLINE
  5
176
100
AcDbEntity
  8
Layer_1
 62
7
100
AcDbSpline
 70
8
 71
3
 72
8
 73
4
 74
0
 40
0
 40
0
 40
0
 40
0
 40
1
 40
1
 40
1
 40
1
 10
201.610440
 20
249.763577
 30
0.0
 10
201.146338
 20
250.031526
 30
0.0
 10
200.574542
 20
250.031526
 30
0.0
 10
200.110440
 20
249.763577
 30
0.0
  0
SPLINE
  5
177
100
AcDbEntity
  8
Layer_1
 62
7
100
AcDbSpline
 70
8
 71
3
 72
8
 73
4
 74
0
 40
0
 40
0
 40
0
 40
0
 40
1
 40
1
 40
1
 40
1
 10
200.110440
 20
249.763577
 30
0.0
 10
199.646338
 20
249.495628
 30
0.0
 10
199.360440
 20
249.000437
 30
0.0
 10
199.360440
 20
248.464539
 30
0.0
  0
SPLINE
  5
178
100
AcDbEntity
  8
Layer_1
 62
7
100
AcDbSpline
 70
8
 71
3
 72
8
 73
4
 74
0
 40
0
 40
0
 40
0
 40
0
 40
1
 40
1
 40
1
 40
1
 10
199.360440
 20
248.464539
 30
0.0
 10
199.360440
 20
247.928641
 30
0.0
 10
199.646338
 20
247.433450
 30
0.0
 10
200.110440
 20
247.165501
 30
0.0
  0
SPLINE
  5
179
100
AcDbEntity
  8
Layer_1
 62
7
100
AcDbSpline
 70
8
 71
3
 72
8
 73
4
 74
0
 40
0
 40
0
 40
0
 40
0
 40
1
 40
1
 40
1
 40
1
 10
200.110440
 20
247.165501
 30
0.0
 10
200.574542
 20
246.897552
 30
0.0
 10
201.146338
 20
246.897552
 30
0.0
 10
201.610440
 20
247.165501
 30
0.0
  0
SPLINE
  5
17a
100
AcDbEntity
  8
Layer_1
 62
7
100
AcDbSpline
 70
8
 71
3
 72
8
 73
4
 74
0
 40
0
 40
0
 40
0
 40
0
 40
1
 40
1
 40
1
 40
1
 10
201.610440
 20
247.165501
 30
0.0
 10
202.074542
 20
247.433450
 30
0.0
 10
202.360440
 20
247.928641
 30
0.0
 10
202.360440
 20
248.464539
 30
0.0
  0
LINE
  5
17b
100
AcDbEntity
  8
Layer_1
 62
7
100
AcDbLine
 10
202.360440
 20
248.464539
 30
0.0
 11
202.360440
 21
248.464539
 31
0.0
  0
LINE
  5
17c
100
AcDbEntity
  8
Layer_1
 62
7
100
AcDbLine
 10
68.944960
 20
144.117800
 30
0.0
 11
58.483086
 21
139.239350
 31
0.0
  0
SPLINE
  5
17d
100
AcDbEntity
  8
Layer_1
 62
7
100
AcDbSpline
 70
8
 71
3
 72
8
 73
4
 74
0
 40
0
 40
0
 40
0
 40
0
 40
1
 40
1
 40
1
 40
1
 10
56.457802
 20
139.976490
 30
0.0
 10
56.834277
 20
139.236722
 30
0.0
 10
57.719176
 20
138.914646
 30
0.0
 10
58.483086
 20
139.239350
 30
0.0
  0
LINE
  5
17e
100
AcDbEntity
  8
Layer_1
 62
7
100
AcDbLine
 10
56.457802
 20
139.976490
 30
0.0
 11
49.480374
 21
154.939630
 31
0.0
  0
LINE
  5
17f
100
AcDbEntity
  8
Layer_1
 62
7
100
AcDbLine
 10
48.154457
 20
155.423990
 30
0.0
 11
14.981074
 21
139.973380
 31
0.0
  0
SPLINE
  5
180
100
AcDbEntity
  8
Layer_1
 62
7
100
AcDbSpline
 70
8
 71
3
 72
8
 73
4
 74
0
 40
0
 40
0
 40
0
 40
0
 40
1
 40
1
 40
1
 40
1
 10
49.480374
 20
154.939630
 30
0.0
 10
49.225903
 20
155.414795
 30
0.0
 10
48.655293
 20
155.623240
 30
0.0
 10
48.154457
 20
155.423990
 30
0.0
  0
SPLINE
  5
181
100
AcDbEntity
  8
Layer_1
 62
7
100
AcDbSpline
 70
8
 71
3
 72
8
 73
4
 74
0
 40
0
 40
0
 40
0
 40
0
 40
1
 40
1
 40
1
 40
1
 10
14.981074
 20
139.973380
 30
0.0
 10
14.482925
 20
139.726820
 30
0.0
 10
14.266526
 20
139.132270
 30
0.0
 10
14.489645
 20
138.623190
 30
0.0
  0
LINE
  5
182
100
AcDbEntity
  8
Layer_1
 62
7
100
AcDbLine
 10
14.489645
 20
138.623190
 30
0.0
 11
37.998209
 21
88.208900
 31
0.0
  0
SPLINE
  5
183
100
AcDbEntity
  8
Layer_1
 62
7
100
AcDbSpline
 70
8
 71
3
 72
8
 73
4
 74
0
 40
0
 40
0
 40
0
 40
0
 40
1
 40
1
 40
1
 40
1
 10
107.291020
 20
250.283417
 30
0.0
 10
107.291639
 20
250.819728
 30
0.0
 10
107.005876
 20
251.315565
 30
0.0
 10
106.541520
 20
251.583899
 30
0.0
  0
SPLINE
  5
184
100
AcDbEntity
  8
Layer_1
 62
7
100
AcDbSpline
 70
8
 71
3
 72
8
 73
4
 74
0
 40
0
 40
0
 40
0
 40
0
 40
1
 40
1
 40
1
 40
1
 10
106.541520
 20
251.583899
 30
0.0
 10
106.077164
 20
251.852234
 30
0.0
 10
105.504876
 20
251.852234
 30
0.0
 10
105.040520
 20
251.583899
 30
0.0
  0
SPLINE
  5
185
100
AcDbEntity
  8
Layer_1
 62
7
100
AcDbSpline
 70
8
 71
3
 72
8
 73
4
 74
0
 40
0
 40
0
 40
0
 40
0
 40
1
 40
1
 40
1
 40
1
 10
105.040520
 20
251.583899
 30
0.0
 10
104.576164
 20
251.315565
 30
0.0
 10
104.290401
 20
250.819728
 30
0.0
 10
104.291020
 20
250.283417
 30
0.0
  0
SPLINE
  5
186
100
AcDbEntity
  8
Layer_1
 62
7
100
AcDbSpline
 70
8
 71
3
 72
8
 73
4
 74
0
 40
0
 40
0
 40
0
 40
0
 40
1
 40
1
 40
1
 40
1
 10
104.291020
 20
250.283417
 30
0.0
 10
104.290401
 20
249.747106
 30
0.0
 10
104.576164
 20
249.251269
 30
0.0
 10
105.040520
 20
248.982935
 30
0.0
  0
SPLINE
  5
187
100
AcDbEntity
  8
Layer_1
 62
7
100
AcDbSpline
 70
8
 71
3
 72
8
 73
4
 74
0
 40
0
 40
0
 40
0
 40
0
 40
1
 40
1
 40
1
 40
1
 10
105.040520
 20
248.982935
 30
0.0
 10
105.504876
 20
248.714600
 30
0.0
 10
106.077164
 20
248.714600
 30
0.0
 10
106.541520
 20
248.982935
 30
0.0
  0
SPLINE
  5
188
100
AcDbEntity
  8
Layer_1
 62
7
100
AcDbSpline
 70
8
 71
3
 72
8
 73
4
 74
0
 40
0
 40
0
 40
0
 40
0
 40
1
 40
1
 40
1
 40
1
 10
106.541520
 20
248.982935
 30
0.0
 10
107.005876
 20
249.251269
 30
0.0
 10
107.291639
 20
249.747106
 30
0.0
 10
107.291020
 20
250.283417
 30
0.0
  0
LINE
  5
189
100
AcDbEntity
  8
Layer_1
 62
7
100
AcDbLine
 10
107.291020
 20
250.283417
 30
0.0
 11
107.291020
 21
250.283417
 31
0.0
  0
ENDSEC
  0
SECTION
  2
OBJECTS
  0
DICTIONARY
  5
C
330
0
100
AcDbDictionary
  3
ACAD_GROUP
350
D
  3
ACAD_MLINESTYLE
350
17
  0
DICTIONARY
  5
D
330
C
100
AcDbDictionary
  0
DICTIONARY
  5
1A
330
C
100
AcDbDictionary
  0
DICTIONARY
  5
17
330
C
100
AcDbDictionary
  3
STANDARD
350
18
  0
DICTIONARY
  5
19
330
C
100
AcDbDictionary
  0
ENDSEC
  0
EOF
