<?xml version="1.0" standalone="no"?>
 <!DOCTYPE svg PUBLIC "-//W3C//DTD SVG 1.1//EN" 
 "http://www.w3.org/Graphics/SVG/1.1/DTD/svg11.dtd"> 
<svg xmlns="http://www.w3.org/2000/svg" version="1.1" 
    width="29.7002cm" height="21.0007cm" viewBox="0 0 116930 82680 ">
<title>SVG Picture created as ErgodoxBle-F.SilkS.svg date 2019/04/21 14:06:36 </title>
  <desc>Picture generated by PCBNEW </desc>
<g style="fill:#000000; fill-opacity:1;stroke:#000000; stroke-opacity:1;
stroke-linecap:round; stroke-linejoin:round; "
 transform="translate(0 0) scale(1 1)">
</g>
<g style="fill:#000000; fill-opacity:0.0; 
stroke:#000000; stroke-width:-0.000393701; stroke-opacity:1; 
stroke-linecap:round; stroke-linejoin:round;">
</g>
<g style="fill:#000000; fill-opacity:0.0; 
stroke:#000000; stroke-width:51.5748; stroke-opacity:1; 
stroke-linecap:round; stroke-linejoin:round;">
<path d="M48171 15541
L48577 15541
L48577 15619
L48558 15639
L48538 15649
L48500 15659
L48442 15659
L48403 15649
L48384 15639
L48364 15619
L48364 15541
" />
<path d="M48171 15865
L48364 15796
" />
<path d="M48171 15747
L48577 15747
L48577 15826
L48558 15845
L48538 15855
L48500 15865
L48442 15865
L48403 15855
L48384 15845
L48364 15826
L48364 15747
" />
<path d="M48577 15993
L48577 16032
L48558 16052
L48519 16071
L48442 16081
L48306 16081
L48229 16071
L48190 16052
L48171 16032
L48171 15993
L48190 15973
L48229 15953
L48306 15944
L48442 15944
L48519 15953
L48558 15973
L48577 15993
" />
<path d="M48577 16140
L48577 16258
" />
<path d="M48171 16199
L48577 16199
" />
<path d="M48577 16366
L48577 16405
L48558 16425
L48519 16445
L48442 16454
L48306 16454
L48229 16445
L48190 16425
L48171 16405
L48171 16366
L48190 16346
L48229 16327
L48306 16317
L48442 16317
L48519 16327
L48558 16346
L48577 16366
" />
<path d="M48171 16543
L48577 16543
L48171 16661
L48577 16661
" />
<path d="M48209 16877
L48190 16867
L48171 16838
L48171 16818
L48190 16788
L48229 16769
L48267 16759
L48345 16749
L48403 16749
L48480 16759
L48519 16769
L48558 16788
L48577 16818
L48577 16838
L48558 16867
L48538 16877
" />
<path d="M48577 17162
L48577 17201
L48558 17221
L48519 17240
L48442 17250
L48306 17250
L48229 17240
L48190 17221
L48171 17201
L48171 17162
L48190 17142
L48229 17122
L48306 17113
L48442 17113
L48519 17122
L48558 17142
L48577 17162
" />
<path d="M48171 17339
L48577 17339
L48171 17456
L48577 17456
" />
<path d="M48171 17653
L48171 17555
L48577 17555
" />
<path d="M48364 17761
L48171 17761
" />
<path d="M48577 17692
L48364 17761
L48577 17830
" />
<path d="M45513 15328
L45493 15358
L45474 15368
L45435 15377
L45377 15377
L45338 15368
L45319 15358
L45300 15338
L45300 15260
L45706 15260
L45706 15328
L45687 15348
L45667 15358
L45629 15368
L45590 15368
L45551 15358
L45532 15348
L45513 15328
L45513 15260
" />
<path d="M45300 15564
L45300 15466
L45706 15466
" />
<path d="M45706 15633
L45377 15633
L45338 15643
L45319 15653
L45300 15672
L45300 15711
L45319 15731
L45338 15741
L45377 15751
L45706 15751
" />
<path d="M45513 15849
L45513 15918
" />
<path d="M45300 15947
L45300 15849
L45706 15849
L45706 15947
" />
<path d="M45300 16036
L45706 16036
L45416 16104
L45706 16173
L45300 16173
" />
<path d="M45300 16271
L45706 16271
" />
<path d="M45338 16488
L45319 16478
L45300 16448
L45300 16429
L45319 16399
L45358 16379
L45396 16370
L45474 16360
L45532 16360
L45609 16370
L45648 16379
L45687 16399
L45706 16429
L45706 16448
L45687 16478
L45667 16488
" />
<path d="M45300 16694
L45493 16625
" />
<path d="M45300 16576
L45706 16576
L45706 16655
L45687 16674
L45667 16684
L45629 16694
L45571 16694
L45532 16684
L45513 16674
L45493 16655
L45493 16576
" />
<path d="M45706 16822
L45706 16861
L45687 16881
L45648 16900
L45571 16910
L45435 16910
L45358 16900
L45319 16881
L45300 16861
L45300 16822
L45319 16802
L45358 16782
L45435 16772
L45571 16772
L45648 16782
L45687 16802
L45706 16822
" />
<path d="M45706 17195
L45706 17234
L45687 17254
L45648 17273
L45571 17283
L45435 17283
L45358 17273
L45319 17254
L45300 17234
L45300 17195
L45319 17175
L45358 17156
L45435 17146
L45571 17146
L45648 17156
L45687 17175
L45706 17195
" />
<path d="M45300 17372
L45706 17372
L45300 17490
L45706 17490
" />
<path d="M45300 17686
L45300 17588
L45706 17588
" />
<path d="M45493 17794
L45300 17794
" />
<path d="M45706 17725
L45493 17794
L45706 17863
" />
</g>
<g style="fill:#000000; fill-opacity:0.0; 
stroke:#000000; stroke-width:120; stroke-opacity:1; 
stroke-linecap:round; stroke-linejoin:round;">
<path d="M43559 19449
L43759 20249
L43959 19449
" />
<path d="M44474 20249
L44131 20249
" />
<path d="M44302 20249
L44302 19449
L44245 19564
L44188 19640
L44131 19678
" />
<path d="M44731 20173
L44759 20211
L44731 20249
L44702 20211
L44731 20173
L44731 20249
" />
<path d="M44959 19449
L45331 19449
L45131 19754
L45216 19754
L45274 19792
L45302 19830
L45331 19907
L45331 20097
L45302 20173
L45274 20211
L45216 20249
L45045 20249
L44988 20211
L44959 20173
" />
<path d="M79017 16925
L78217 16925
L78217 16782
L78256 16697
L78332 16639
L78408 16611
L78560 16582
L78675 16582
L78827 16611
L78903 16639
L78979 16697
L79017 16782
L79017 16925
" />
<path d="M78713 16325
L78713 15868
" />
<path d="M79017 16097
L78408 16097
" />
<path d="M78931 15210
L78131 15210
L78131 15067
L78170 14982
L78246 14924
L78322 14896
L78474 14867
L78589 14867
L78741 14896
L78817 14924
L78893 14982
L78931 15067
L78931 15210
" />
<path d="M78627 14610
L78627 14153
" />
</g>
<g style="fill:#000000; fill-opacity:0.0; 
stroke:#000000; stroke-width:150; stroke-opacity:1; 
stroke-linecap:round; stroke-linejoin:round;">
<path d="M32750 12020
L32180 12700
" />
<path d="M30670 12700
L32170 12700
" />
<path d="M35760 12700
L35180 12020
" />
<path d="M37420 12700
L35760 12700
" />
<path d="M32760 12020
L35170 12020
" />
<path d="M81070 13940
L79820 12700
" />
</g>
<g style="fill:#000000; fill-opacity:0.0; 
stroke:#000000; stroke-width:200; stroke-opacity:1; 
stroke-linecap:round; stroke-linejoin:round;">
<path d="M27439 39292
L27106 38721
" />
<path d="M26868 39292
L26868 38092
L27249 38092
L27344 38150
L27391 38207
L27439 38321
L27439 38492
L27391 38607
L27344 38664
L27249 38721
L26868 38721
" />
<path d="M27868 39292
L27868 38092
" />
<path d="M28868 38150
L28772 38092
L28630 38092
L28487 38150
L28391 38264
L28344 38378
L28296 38607
L28296 38778
L28344 39007
L28391 39121
L28487 39235
L28630 39292
L28725 39292
L28868 39235
L28915 39178
L28915 38778
L28725 38778
" />
<path d="M29344 39292
L29344 38092
" />
<path d="M29344 38664
L29915 38664
" />
<path d="M29915 39292
L29915 38092
" />
<path d="M30249 38092
L30820 38092
" />
<path d="M30534 39292
L30534 38092
" />
<path d="M26868 41292
L26868 40092
" />
<path d="M26868 40664
L27439 40664
" />
<path d="M27439 41292
L27439 40092
" />
<path d="M27868 40950
L28344 40950
" />
<path d="M27772 41292
L28106 40092
L28439 41292
" />
<path d="M28772 41292
L28772 40092
L29344 41292
L29344 40092
" />
<path d="M29820 41292
L29820 40092
L30058 40092
L30201 40150
L30296 40264
L30344 40378
L30391 40607
L30391 40778
L30344 41007
L30296 41121
L30201 41235
L30058 41292
L29820 41292
" />
</g>
<g style="fill:#000000; fill-opacity:0.0; 
stroke:#000000; stroke-width:120; stroke-opacity:1; 
stroke-linecap:round; stroke-linejoin:round;">
<path d="M63670 20782
L63470 20782
" />
<path d="M63470 21201
L63470 20401
L63756 20401
" />
<path d="M64328 21201
L64128 20820
" />
<path d="M63985 21201
L63985 20401
L64213 20401
L64270 20440
L64299 20478
L64328 20554
L64328 20668
L64299 20744
L64270 20782
L64213 20820
L63985 20820
" />
<path d="M64842 20668
L64842 21201
" />
<path d="M64699 20363
L64556 20935
L64928 20935
" />
<path d="M65528 20401
L65870 20401
" />
<path d="M65699 21201
L65699 20401
" />
<path d="M66328 20668
L66328 21316
L66299 21392
L66270 21430
L66213 21468
L66128 21468
L66070 21430
" />
<path d="M66328 21163
L66270 21201
L66156 21201
L66099 21163
L66070 21125
L66042 21049
L66042 20820
L66070 20744
L66099 20706
L66156 20668
L66270 20668
L66328 20706
" />
<path d="M66928 21201
L66585 21201
" />
<path d="M66756 21201
L66756 20401
L66699 20516
L66642 20592
L66585 20630
" />
<path d="M67128 20401
L67528 20401
L67270 21201
" />
<path d="M67870 20401
L67928 20401
L67985 20440
L68013 20478
L68042 20554
L68070 20706
L68070 20897
L68042 21049
L68013 21125
L67985 21163
L67928 21201
L67870 21201
L67813 21163
L67785 21125
L67756 21049
L67728 20897
L67728 20706
L67756 20554
L67785 20478
L67813 20440
L67870 20401
" />
<path d="M68413 20401
L68356 20440
L68328 20516
L68356 20592
L68413 20630
L68470 20592
L68499 20516
L68470 20440
L68413 20401
" />
<path d="M69528 21201
L69242 21201
L69242 20401
" />
<path d="M69985 21201
L69985 20782
L69956 20706
L69899 20668
L69785 20668
L69728 20706
" />
<path d="M69985 21163
L69928 21201
L69785 21201
L69728 21163
L69699 21087
L69699 21011
L69728 20935
L69785 20897
L69928 20897
L69985 20859
" />
<path d="M70270 21201
L70270 20668
" />
<path d="M70270 20744
L70299 20706
L70356 20668
L70442 20668
L70499 20706
L70528 20782
L70528 21201
" />
<path d="M70528 20782
L70556 20706
L70613 20668
L70699 20668
L70756 20706
L70785 20782
L70785 21201
" />
<path d="M71070 21201
L71070 20668
" />
<path d="M71070 20401
L71042 20440
L71070 20478
L71099 20440
L71070 20401
L71070 20478
" />
<path d="M71356 20668
L71356 21201
" />
<path d="M71356 20744
L71385 20706
L71442 20668
L71528 20668
L71585 20706
L71613 20782
L71613 21201
" />
<path d="M72156 21201
L72156 20782
L72128 20706
L72070 20668
L71956 20668
L71899 20706
" />
<path d="M72156 21163
L72099 21201
L71956 21201
L71899 21163
L71870 21087
L71870 21011
L71899 20935
L71956 20897
L72099 20897
L72156 20859
" />
<path d="M72356 20668
L72585 20668
" />
<path d="M72442 20401
L72442 21087
L72470 21163
L72528 21201
L72585 21201
" />
<path d="M73013 21163
L72956 21201
L72842 21201
L72785 21163
L72756 21087
L72756 20782
L72785 20706
L72842 20668
L72956 20668
L73013 20706
L73042 20782
L73042 20859
L72756 20935
" />
<path d="M63442 21798
L63470 21760
L63528 21721
L63670 21721
L63728 21760
L63756 21798
L63785 21874
L63785 21950
L63756 22064
L63413 22521
L63785 22521
" />
<path d="M64299 21988
L64299 22521
" />
<path d="M64156 21683
L64013 22255
L64385 22255
" />
<path d="M64613 22521
L64613 21988
" />
<path d="M64613 22064
L64642 22026
L64699 21988
L64785 21988
L64842 22026
L64870 22102
L64870 22521
" />
<path d="M64870 22102
L64899 22026
L64956 21988
L65042 21988
L65099 22026
L65128 22102
L65128 22521
" />
<path d="M65413 22521
L65413 21988
" />
<path d="M65413 21721
L65385 21760
L65413 21798
L65442 21760
L65413 21721
L65413 21798
" />
<path d="M65785 22521
L65728 22483
L65699 22407
L65699 21721
" />
<path d="M66385 21988
L66613 21988
" />
<path d="M66470 21721
L66470 22407
L66499 22483
L66556 22521
L66613 22521
" />
<path d="M66813 22521
L66813 21988
" />
<path d="M66813 22140
L66842 22064
L66870 22026
L66928 21988
L66985 21988
" />
<path d="M67442 22521
L67442 22102
L67413 22026
L67356 21988
L67242 21988
L67185 22026
" />
<path d="M67442 22483
L67385 22521
L67242 22521
L67185 22483
L67156 22407
L67156 22331
L67185 22255
L67242 22217
L67385 22217
L67442 22179
" />
<path d="M67985 22483
L67928 22521
L67813 22521
L67756 22483
L67728 22445
L67699 22369
L67699 22140
L67728 22064
L67756 22026
L67813 21988
L67928 21988
L67985 22026
" />
<path d="M68470 22483
L68413 22521
L68299 22521
L68242 22483
L68213 22407
L68213 22102
L68242 22026
L68299 21988
L68413 21988
L68470 22026
L68499 22102
L68499 22179
L68213 22255
" />
<path d="M68728 22483
L68785 22521
L68899 22521
L68956 22483
L68985 22407
L68985 22369
L68956 22293
L68899 22255
L68813 22255
L68756 22217
L68728 22140
L68728 22102
L68756 22026
L68813 21988
L68899 21988
L68956 22026
" />
<path d="M69785 22521
L69728 22483
L69699 22445
L69670 22369
L69670 22140
L69699 22064
L69728 22026
L69785 21988
L69870 21988
L69928 22026
L69956 22064
L69985 22140
L69985 22369
L69956 22445
L69928 22483
L69870 22521
L69785 22521
" />
<path d="M70242 21988
L70242 22521
" />
<path d="M70242 22064
L70270 22026
L70328 21988
L70413 21988
L70470 22026
L70499 22102
L70499 22521
" />
<path d="M71556 22521
L71213 22521
" />
<path d="M71385 22521
L71385 21721
L71328 21836
L71270 21912
L71213 21950
" />
<path d="M71899 22521
L71842 22483
L71813 22445
L71785 22369
L71785 22140
L71813 22064
L71842 22026
L71899 21988
L71985 21988
L72042 22026
L72070 22064
L72099 22140
L72099 22369
L72070 22445
L72042 22483
L71985 22521
L71899 22521
" />
<path d="M72299 21988
L72613 21988
L72299 22521
L72613 22521
" />
<path d="M73556 22483
L73499 22521
L73385 22521
L73328 22483
L73299 22445
L73270 22369
L73270 22140
L73299 22064
L73328 22026
L73385 21988
L73499 21988
L73556 22026
" />
<path d="M73899 22521
L73842 22483
L73813 22445
L73785 22369
L73785 22140
L73813 22064
L73842 22026
L73899 21988
L73985 21988
L74042 22026
L74070 22064
L74099 22140
L74099 22369
L74070 22445
L74042 22483
L73985 22521
L73899 22521
" />
<path d="M74356 21988
L74356 22788
" />
<path d="M74356 22026
L74413 21988
L74528 21988
L74585 22026
L74613 22064
L74642 22140
L74642 22369
L74613 22445
L74585 22483
L74528 22521
L74413 22521
L74356 22483
" />
<path d="M74899 21988
L74899 22788
" />
<path d="M74899 22026
L74956 21988
L75070 21988
L75128 22026
L75156 22064
L75185 22140
L75185 22369
L75156 22445
L75128 22483
L75070 22521
L74956 22521
L74899 22483
" />
<path d="M75670 22483
L75613 22521
L75499 22521
L75442 22483
L75413 22407
L75413 22102
L75442 22026
L75499 21988
L75613 21988
L75670 22026
L75699 22102
L75699 22179
L75413 22255
" />
<path d="M75956 22521
L75956 21988
" />
<path d="M75956 22140
L75985 22064
L76013 22026
L76070 21988
L76128 21988
" />
</g>
<g style="fill:#000000; fill-opacity:0.0; 
stroke:#000000; stroke-width:150; stroke-opacity:1; 
stroke-linecap:round; stroke-linejoin:round;">
<path d="M50060 60200
L77320 60200
" />
<path d="M77320 60200
L81070 56450
" />
<path d="M81070 56450
L81070 13950
" />
<path d="M79820 12700
L56460 12700
" />
<path d="M56460 12700
L56460 12000
" />
<path d="M56460 12000
L51930 12000
" />
<path d="M51930 12000
L51930 12700
" />
<path d="M51930 12700
L37420 12700
" />
<path d="M30660 12700
L25910 12700
" />
<path d="M25910 12700
L24650 13950
" />
<path d="M24650 13950
L24650 47900
" />
<path d="M24650 47900
L22720 47900
" />
<path d="M22720 47900
L9692 53975
" />
<path d="M9692 53975
L9087 55636
" />
<path d="M9087 55636
L17624 73944
" />
<path d="M17624 73944
L19285 74548
" />
<path d="M19285 74548
L50060 60200
" />
<path d="M76805 12917
L64805 12917
" />
<path d="M64805 12917
L64805 19917
" />
<path d="M64805 19917
L76805 19917
" />
<path d="M76805 13917
L75805 13917
" />
<path d="M75805 13917
L75805 12917
" />
</g>
<g style="fill:#000000; fill-opacity:1.0; 
stroke:#000000; stroke-width:59.0551; stroke-opacity:1; 
stroke-linecap:round; stroke-linejoin:round;">
<polyline style="fill-rule:evenodd;"
points="74490,18358
74372,18358
74372,18319
74490,18319
74490,18358
" /> 
<polyline style="fill-rule:evenodd;"
points="74332,18279
74293,18279
74293,18240
74332,18240
74332,18279
" /> 
<polyline style="fill-rule:evenodd;"
points="74490,18358
74450,18358
74450,18161
74490,18161
74490,18358
" /> 
<polyline style="fill-rule:evenodd;"
points="74490,18201
74175,18201
74175,18161
74490,18161
74490,18201
" /> 
<polyline style="fill-rule:evenodd;"
points="74254,18358
74175,18358
74175,18319
74254,18319
74254,18358
" /> 
</g>
<g style="fill:#000000; fill-opacity:1.0; 
stroke:#000000; stroke-width:150; stroke-opacity:1; 
stroke-linecap:round; stroke-linejoin:round;">
</g>
<g style="fill:#000000; fill-opacity:0.0; 
stroke:#000000; stroke-width:150; stroke-opacity:1; 
stroke-linecap:round; stroke-linejoin:round;">
<path d="M76805 19917
L77805 19917
" />
<path d="M77805 19917
L77805 12917
" />
<path d="M77805 12917
L76805 12917
" />
<path d="M76805 13917
L76805 12917
" />
</g>
<g style="fill:#000000; fill-opacity:0.0; 
stroke:#000000; stroke-width:59.0551; stroke-opacity:1; 
stroke-linecap:round; stroke-linejoin:round;">
<path d="M20547 73351
L22360 72506
" />
<path d="M22360 72506
L22106 71962
" />
<path d="M22106 71962
L20293 72807
" />
<path d="M20293 72807
L20547 73351
" />
<path d="M20547 73351
L20728 73266
" />
<path d="M22224 72569
L21970 72025
" />
<path d="M22015 72004
L22269 72548
" />
<path d="M22314 72527
L22061 71983
" />
<path d="M21925 72047
L22178 72590
" />
<path d="M22133 72611
L21879 72068
" />
<path d="M22088 72633
L21834 72089
" />
<path d="M27960 61386
L27416 61640
" />
<path d="M27938 61341
L27395 61595
" />
<path d="M27374 61549
L27917 61296
" />
<path d="M27854 61160
L27310 61413
" />
<path d="M27331 61459
L27875 61205
" />
<path d="M27896 61250
L27352 61504
" />
<path d="M28678 62927
L28594 62746
" />
<path d="M28134 63181
L28678 62927
" />
<path d="M27289 61368
L28134 63181
" />
<path d="M27833 61114
L27289 61368
" />
<path d="M28678 62927
L27833 61114
" />
<path d="M35494 59779
L34649 57966
" />
<path d="M34649 57966
L34105 58220
" />
<path d="M34105 58220
L34950 60033
" />
<path d="M34950 60033
L35494 59779
" />
<path d="M35494 59779
L35409 59598
" />
<path d="M34712 58102
L34168 58356
" />
<path d="M34147 58311
L34691 58057
" />
<path d="M34670 58012
L34126 58265
" />
<path d="M34190 58401
L34733 58148
" />
<path d="M34754 58193
L34211 58447
" />
<path d="M34776 58238
L34232 58492
" />
<path d="M18953 66060
L18699 65516
" />
<path d="M18998 66038
L18744 65495
" />
<path d="M18790 65474
L19043 66017
" />
<path d="M19179 65954
L18926 65410
" />
<path d="M18880 65431
L19134 65975
" />
<path d="M19089 65996
L18835 65452
" />
<path d="M17412 66778
L17593 66694
" />
<path d="M17158 66234
L17412 66778
" />
<path d="M18971 65389
L17158 66234
" />
<path d="M19225 65933
L18971 65389
" />
<path d="M17412 66778
L19225 65933
" />
<path d="M20942 56668
L22755 55823
" />
<path d="M22755 55823
L22501 55279
" />
<path d="M22501 55279
L20688 56124
" />
<path d="M20688 56124
L20942 56668
" />
<path d="M20942 56668
L21123 56584
" />
<path d="M22619 55886
L22365 55342
" />
<path d="M22410 55321
L22664 55865
" />
<path d="M22709 55844
L22456 55300
" />
<path d="M22320 55364
L22573 55907
" />
<path d="M22528 55928
L22274 55385
" />
<path d="M22483 55950
L22229 55406
" />
<path d="M15711 59026
L15457 58482
" />
<path d="M15756 59004
L15502 58461
" />
<path d="M15548 58440
L15801 58983
" />
<path d="M15937 58920
L15684 58376
" />
<path d="M15638 58397
L15892 58941
" />
<path d="M15847 58962
L15593 58418
" />
<path d="M14170 59744
L14351 59659
" />
<path d="M13916 59200
L14170 59744
" />
<path d="M15729 58355
L13916 59200
" />
<path d="M15983 58899
L15729 58355
" />
<path d="M14170 59744
L15983 58899
" />
<path d="M74237 59587
L74237 58987
" />
<path d="M74287 59587
L74287 58987
" />
<path d="M74337 58987
L74337 59587
" />
<path d="M74487 59587
L74487 58987
" />
<path d="M74437 58987
L74437 59587
" />
<path d="M74387 59587
L74387 58987
" />
<path d="M72537 59587
L72737 59587
" />
<path d="M72537 58987
L72537 59587
" />
<path d="M74537 58987
L72537 58987
" />
<path d="M74537 59587
L74537 58987
" />
<path d="M72537 59587
L74537 59587
" />
<path d="M59250 58650
L59250 58050
" />
<path d="M59300 58650
L59300 58050
" />
<path d="M59350 58050
L59350 58650
" />
<path d="M59500 58650
L59500 58050
" />
<path d="M59450 58050
L59450 58650
" />
<path d="M59400 58650
L59400 58050
" />
<path d="M57550 58650
L57750 58650
" />
<path d="M57550 58050
L57550 58650
" />
<path d="M59550 58050
L57550 58050
" />
<path d="M59550 58650
L59550 58050
" />
<path d="M57550 58650
L59550 58650
" />
<path d="M50000 57800
L52000 57800
" />
<path d="M52000 57800
L52000 57200
" />
<path d="M52000 57200
L50000 57200
" />
<path d="M50000 57200
L50000 57800
" />
<path d="M50000 57800
L50200 57800
" />
<path d="M51850 57800
L51850 57200
" />
<path d="M51900 57200
L51900 57800
" />
<path d="M51950 57800
L51950 57200
" />
<path d="M51800 57200
L51800 57800
" />
<path d="M51750 57800
L51750 57200
" />
<path d="M51700 57800
L51700 57200
" />
<path d="M44150 58350
L44150 57750
" />
<path d="M44200 58350
L44200 57750
" />
<path d="M44250 57750
L44250 58350
" />
<path d="M44400 58350
L44400 57750
" />
<path d="M44350 57750
L44350 58350
" />
<path d="M44300 58350
L44300 57750
" />
<path d="M42450 58350
L42650 58350
" />
<path d="M42450 57750
L42450 58350
" />
<path d="M44450 57750
L42450 57750
" />
<path d="M44450 58350
L44450 57750
" />
<path d="M42450 58350
L44450 58350
" />
<path d="M29911 53943
L29657 53399
" />
<path d="M29956 53921
L29702 53378
" />
<path d="M29748 53357
L30001 53900
" />
<path d="M30137 53837
L29884 53293
" />
<path d="M29838 53314
L30092 53858
" />
<path d="M30047 53879
L29793 53335
" />
<path d="M28370 54661
L28551 54577
" />
<path d="M28116 54117
L28370 54661
" />
<path d="M29929 53272
L28116 54117
" />
<path d="M30183 53816
L29929 53272
" />
<path d="M28370 54661
L30183 53816
" />
<path d="M21570 57844
L23383 56999
" />
<path d="M23383 56999
L23129 56455
" />
<path d="M23129 56455
L21316 57300
" />
<path d="M21316 57300
L21570 57844
" />
<path d="M21570 57844
L21751 57759
" />
<path d="M23247 57062
L22993 56518
" />
<path d="M23038 56497
L23292 57041
" />
<path d="M23337 57020
L23084 56476
" />
<path d="M22948 56540
L23201 57083
" />
<path d="M23156 57104
L22902 56561
" />
<path d="M23111 57126
L22857 56582
" />
<path d="M66700 59577
L66700 58977
" />
<path d="M66750 59577
L66750 58977
" />
<path d="M66800 58977
L66800 59577
" />
<path d="M66950 59577
L66950 58977
" />
<path d="M66900 58977
L66900 59577
" />
<path d="M66850 59577
L66850 58977
" />
<path d="M65000 59577
L65200 59577
" />
<path d="M65000 58977
L65000 59577
" />
<path d="M67000 58977
L65000 58977
" />
<path d="M67000 59577
L67000 58977
" />
<path d="M65000 59577
L67000 59577
" />
<path d="M74350 52350
L76350 52350
" />
<path d="M76350 52350
L76350 51750
" />
<path d="M76350 51750
L74350 51750
" />
<path d="M74350 51750
L74350 52350
" />
<path d="M74350 52350
L74550 52350
" />
<path d="M76200 52350
L76200 51750
" />
<path d="M76250 51750
L76250 52350
" />
<path d="M76300 52350
L76300 51750
" />
<path d="M76150 51750
L76150 52350
" />
<path d="M76100 52350
L76100 51750
" />
<path d="M76050 52350
L76050 51750
" />
<path d="M65000 52400
L67000 52400
" />
<path d="M67000 52400
L67000 51800
" />
<path d="M67000 51800
L65000 51800
" />
<path d="M65000 51800
L65000 52400
" />
<path d="M65000 52400
L65200 52400
" />
<path d="M66850 52400
L66850 51800
" />
<path d="M66900 51800
L66900 52400
" />
<path d="M66950 52400
L66950 51800
" />
<path d="M66800 51800
L66800 52400
" />
<path d="M66750 52400
L66750 51800
" />
<path d="M66700 52400
L66700 51800
" />
<path d="M59200 51150
L59200 50550
" />
<path d="M59250 51150
L59250 50550
" />
<path d="M59300 50550
L59300 51150
" />
<path d="M59450 51150
L59450 50550
" />
<path d="M59400 50550
L59400 51150
" />
<path d="M59350 51150
L59350 50550
" />
<path d="M57500 51150
L57700 51150
" />
<path d="M57500 50550
L57500 51150
" />
<path d="M59500 50550
L57500 50550
" />
<path d="M59500 51150
L59500 50550
" />
<path d="M57500 51150
L59500 51150
" />
<path d="M50000 50500
L52000 50500
" />
<path d="M52000 50500
L52000 49900
" />
<path d="M52000 49900
L50000 49900
" />
<path d="M50000 49900
L50000 50500
" />
<path d="M50000 50500
L50200 50500
" />
<path d="M51850 50500
L51850 49900
" />
<path d="M51900 49900
L51900 50500
" />
<path d="M51950 50500
L51950 49900
" />
<path d="M51800 49900
L51800 50500
" />
<path d="M51750 50500
L51750 49900
" />
<path d="M51700 50500
L51700 49900
" />
<path d="M44200 51150
L44200 50550
" />
<path d="M44250 51150
L44250 50550
" />
<path d="M44300 50550
L44300 51150
" />
<path d="M44450 51150
L44450 50550
" />
<path d="M44400 50550
L44400 51150
" />
<path d="M44350 51150
L44350 50550
" />
<path d="M42500 51150
L42700 51150
" />
<path d="M42500 50550
L42500 51150
" />
<path d="M44500 50550
L42500 50550
" />
<path d="M44500 51150
L44500 50550
" />
<path d="M42500 51150
L44500 51150
" />
<path d="M35000 51600
L37000 51600
" />
<path d="M37000 51600
L37000 51000
" />
<path d="M37000 51000
L35000 51000
" />
<path d="M35000 51000
L35000 51600
" />
<path d="M35000 51600
L35200 51600
" />
<path d="M36850 51600
L36850 51000
" />
<path d="M36900 51000
L36900 51600
" />
<path d="M36950 51600
L36950 51000
" />
<path d="M36800 51000
L36800 51600
" />
<path d="M36750 51600
L36750 51000
" />
<path d="M36700 51600
L36700 51000
" />
<path d="M31780 45540
L31180 45540
" />
<path d="M31780 45490
L31180 45490
" />
<path d="M31180 45440
L31780 45440
" />
<path d="M31780 45290
L31180 45290
" />
<path d="M31180 45340
L31780 45340
" />
<path d="M31780 45390
L31180 45390
" />
<path d="M31780 47240
L31780 47040
" />
<path d="M31180 47240
L31780 47240
" />
<path d="M31180 45240
L31180 47240
" />
<path d="M31780 45240
L31180 45240
" />
<path d="M31780 47240
L31780 45240
" />
<path d="M76100 44900
L76100 44300
" />
<path d="M76150 44900
L76150 44300
" />
<path d="M76200 44300
L76200 44900
" />
<path d="M76350 44900
L76350 44300
" />
<path d="M76300 44300
L76300 44900
" />
<path d="M76250 44900
L76250 44300
" />
<path d="M74400 44900
L74600 44900
" />
<path d="M74400 44300
L74400 44900
" />
<path d="M76400 44300
L74400 44300
" />
<path d="M76400 44900
L76400 44300
" />
<path d="M74400 44900
L76400 44900
" />
<path d="M64950 44800
L66950 44800
" />
<path d="M66950 44800
L66950 44200
" />
<path d="M66950 44200
L64950 44200
" />
<path d="M64950 44200
L64950 44800
" />
<path d="M64950 44800
L65150 44800
" />
<path d="M66800 44800
L66800 44200
" />
<path d="M66850 44200
L66850 44800
" />
<path d="M66900 44800
L66900 44200
" />
<path d="M66750 44200
L66750 44800
" />
<path d="M66700 44800
L66700 44200
" />
<path d="M66650 44800
L66650 44200
" />
<path d="M59200 43650
L59200 43050
" />
<path d="M59250 43650
L59250 43050
" />
<path d="M59300 43050
L59300 43650
" />
<path d="M59450 43650
L59450 43050
" />
<path d="M59400 43050
L59400 43650
" />
<path d="M59350 43650
L59350 43050
" />
<path d="M57500 43650
L57700 43650
" />
<path d="M57500 43050
L57500 43650
" />
<path d="M59500 43050
L57500 43050
" />
<path d="M59500 43650
L59500 43050
" />
<path d="M57500 43650
L59500 43650
" />
<path d="M50000 43000
L52000 43000
" />
<path d="M52000 43000
L52000 42400
" />
<path d="M52000 42400
L50000 42400
" />
<path d="M50000 42400
L50000 43000
" />
<path d="M50000 43000
L50200 43000
" />
<path d="M51850 43000
L51850 42400
" />
<path d="M51900 42400
L51900 43000
" />
<path d="M51950 43000
L51950 42400
" />
<path d="M51800 42400
L51800 43000
" />
<path d="M51750 43000
L51750 42400
" />
<path d="M51700 43000
L51700 42400
" />
<path d="M44250 43650
L44250 43050
" />
<path d="M44300 43650
L44300 43050
" />
<path d="M44350 43050
L44350 43650
" />
<path d="M44500 43650
L44500 43050
" />
<path d="M44450 43050
L44450 43650
" />
<path d="M44400 43650
L44400 43050
" />
<path d="M42550 43650
L42750 43650
" />
<path d="M42550 43050
L42550 43650
" />
<path d="M44550 43050
L42550 43050
" />
<path d="M44550 43650
L44550 43050
" />
<path d="M42550 43650
L44550 43650
" />
<path d="M35000 44100
L37000 44100
" />
<path d="M37000 44100
L37000 43500
" />
<path d="M37000 43500
L35000 43500
" />
<path d="M35000 43500
L35000 44100
" />
<path d="M35000 44100
L35200 44100
" />
<path d="M36850 44100
L36850 43500
" />
<path d="M36900 43500
L36900 44100
" />
<path d="M36950 44100
L36950 43500
" />
<path d="M36800 43500
L36800 44100
" />
<path d="M36750 44100
L36750 43500
" />
<path d="M36700 44100
L36700 43500
" />
<path d="M76040 37150
L76040 36550
" />
<path d="M76090 37150
L76090 36550
" />
<path d="M76140 36550
L76140 37150
" />
<path d="M76290 37150
L76290 36550
" />
<path d="M76240 36550
L76240 37150
" />
<path d="M76190 37150
L76190 36550
" />
<path d="M74340 37150
L74540 37150
" />
<path d="M74340 36550
L74340 37150
" />
<path d="M76340 36550
L74340 36550
" />
<path d="M76340 37150
L76340 36550
" />
<path d="M74340 37150
L76340 37150
" />
<path d="M65000 37350
L67000 37350
" />
<path d="M67000 37350
L67000 36750
" />
<path d="M67000 36750
L65000 36750
" />
<path d="M65000 36750
L65000 37350
" />
<path d="M65000 37350
L65200 37350
" />
<path d="M66850 37350
L66850 36750
" />
<path d="M66900 36750
L66900 37350
" />
<path d="M66950 37350
L66950 36750
" />
<path d="M66800 36750
L66800 37350
" />
<path d="M66750 37350
L66750 36750
" />
<path d="M66700 37350
L66700 36750
" />
<path d="M59250 36150
L59250 35550
" />
<path d="M59300 36150
L59300 35550
" />
<path d="M59350 35550
L59350 36150
" />
<path d="M59500 36150
L59500 35550
" />
<path d="M59450 35550
L59450 36150
" />
<path d="M59400 36150
L59400 35550
" />
<path d="M57550 36150
L57750 36150
" />
<path d="M57550 35550
L57550 36150
" />
<path d="M59550 35550
L57550 35550
" />
<path d="M59550 36150
L59550 35550
" />
<path d="M57550 36150
L59550 36150
" />
<path d="M49950 35500
L51950 35500
" />
<path d="M51950 35500
L51950 34900
" />
<path d="M51950 34900
L49950 34900
" />
<path d="M49950 34900
L49950 35500
" />
<path d="M49950 35500
L50150 35500
" />
<path d="M51800 35500
L51800 34900
" />
<path d="M51850 34900
L51850 35500
" />
<path d="M51900 35500
L51900 34900
" />
<path d="M51750 34900
L51750 35500
" />
<path d="M51700 35500
L51700 34900
" />
<path d="M51650 35500
L51650 34900
" />
<path d="M44200 36100
L44200 35500
" />
<path d="M44250 36100
L44250 35500
" />
<path d="M44300 35500
L44300 36100
" />
<path d="M44450 36100
L44450 35500
" />
<path d="M44400 35500
L44400 36100
" />
<path d="M44350 36100
L44350 35500
" />
<path d="M42500 36100
L42700 36100
" />
<path d="M42500 35500
L42500 36100
" />
<path d="M44500 35500
L42500 35500
" />
<path d="M44500 36100
L44500 35500
" />
<path d="M42500 36100
L44500 36100
" />
<path d="M35000 36650
L37000 36650
" />
<path d="M37000 36650
L37000 36050
" />
<path d="M37000 36050
L35000 36050
" />
<path d="M35000 36050
L35000 36650
" />
<path d="M35000 36650
L35200 36650
" />
<path d="M36850 36650
L36850 36050
" />
<path d="M36900 36050
L36900 36650
" />
<path d="M36950 36650
L36950 36050
" />
<path d="M36800 36050
L36800 36650
" />
<path d="M36750 36650
L36750 36050
" />
<path d="M36700 36650
L36700 36050
" />
<path d="M31800 34260
L31200 34260
" />
<path d="M31800 34210
L31200 34210
" />
<path d="M31200 34160
L31800 34160
" />
<path d="M31800 34010
L31200 34010
" />
<path d="M31200 34060
L31800 34060
" />
<path d="M31800 34110
L31200 34110
" />
<path d="M31800 35960
L31800 35760
" />
<path d="M31200 35960
L31800 35960
" />
<path d="M31200 33960
L31200 35960
" />
<path d="M31800 33960
L31200 33960
" />
<path d="M31800 35960
L31800 33960
" />
<path d="M74350 29900
L76350 29900
" />
<path d="M76350 29900
L76350 29300
" />
<path d="M76350 29300
L74350 29300
" />
<path d="M74350 29300
L74350 29900
" />
<path d="M74350 29900
L74550 29900
" />
<path d="M76200 29900
L76200 29300
" />
<path d="M76250 29300
L76250 29900
" />
<path d="M76300 29900
L76300 29300
" />
<path d="M76150 29300
L76150 29900
" />
<path d="M76100 29900
L76100 29300
" />
<path d="M76050 29900
L76050 29300
" />
<path d="M66650 29800
L66650 29200
" />
<path d="M66700 29800
L66700 29200
" />
<path d="M66750 29200
L66750 29800
" />
<path d="M66900 29800
L66900 29200
" />
<path d="M66850 29200
L66850 29800
" />
<path d="M66800 29800
L66800 29200
" />
<path d="M64950 29800
L65150 29800
" />
<path d="M64950 29200
L64950 29800
" />
<path d="M66950 29200
L64950 29200
" />
<path d="M66950 29800
L66950 29200
" />
<path d="M64950 29800
L66950 29800
" />
<path d="M57500 28600
L59500 28600
" />
<path d="M59500 28600
L59500 28000
" />
<path d="M59500 28000
L57500 28000
" />
<path d="M57500 28000
L57500 28600
" />
<path d="M57500 28600
L57700 28600
" />
<path d="M59350 28600
L59350 28000
" />
<path d="M59400 28000
L59400 28600
" />
<path d="M59450 28600
L59450 28000
" />
<path d="M59300 28000
L59300 28600
" />
<path d="M59250 28600
L59250 28000
" />
<path d="M59200 28600
L59200 28000
" />
<path d="M51700 28000
L51700 27400
" />
<path d="M51750 28000
L51750 27400
" />
<path d="M51800 27400
L51800 28000
" />
<path d="M51950 28000
L51950 27400
" />
<path d="M51900 27400
L51900 28000
" />
<path d="M51850 28000
L51850 27400
" />
<path d="M50000 28000
L50200 28000
" />
<path d="M50000 27400
L50000 28000
" />
<path d="M52000 27400
L50000 27400
" />
<path d="M52000 28000
L52000 27400
" />
<path d="M50000 28000
L52000 28000
" />
<path d="M42450 28600
L44450 28600
" />
<path d="M44450 28600
L44450 28000
" />
<path d="M44450 28000
L42450 28000
" />
<path d="M42450 28000
L42450 28600
" />
<path d="M42450 28600
L42650 28600
" />
<path d="M44300 28600
L44300 28000
" />
<path d="M44350 28000
L44350 28600
" />
<path d="M44400 28600
L44400 28000
" />
<path d="M44250 28000
L44250 28600
" />
<path d="M44200 28600
L44200 28000
" />
<path d="M44150 28600
L44150 28000
" />
<path d="M36700 29150
L36700 28550
" />
<path d="M36750 29150
L36750 28550
" />
<path d="M36800 28550
L36800 29150
" />
<path d="M36950 29150
L36950 28550
" />
<path d="M36900 28550
L36900 29150
" />
<path d="M36850 29150
L36850 28550
" />
<path d="M35000 29150
L35200 29150
" />
<path d="M35000 28550
L35000 29150
" />
<path d="M37000 28550
L35000 28550
" />
<path d="M37000 29150
L37000 28550
" />
<path d="M35000 29150
L37000 29150
" />
<path d="M27500 28850
L29500 28850
" />
<path d="M29500 28850
L29500 28250
" />
<path d="M29500 28250
L27500 28250
" />
<path d="M27500 28250
L27500 28850
" />
<path d="M27500 28850
L27700 28850
" />
<path d="M29350 28850
L29350 28250
" />
<path d="M29400 28250
L29400 28850
" />
<path d="M29450 28850
L29450 28250
" />
<path d="M29300 28250
L29300 28850
" />
<path d="M29250 28850
L29250 28250
" />
<path d="M29200 28850
L29200 28250
" />
<path d="M59643 13838
L59843 13838
" />
<path d="M57243 13838
L57443 13838
" />
<path d="M57443 14138
L57443 13538
" />
<path d="M57543 14238
L57443 14138
" />
<path d="M57643 14238
L57543 14238
" />
<path d="M57743 14138
L57643 14238
" />
<path d="M59343 14138
L57743 14138
" />
<path d="M59443 14238
L59343 14138
" />
<path d="M59543 14238
L59443 14238
" />
<path d="M59643 14138
L59543 14238
" />
<path d="M59643 13538
L59643 14138
" />
<path d="M59543 13438
L59643 13538
" />
<path d="M59443 13438
L59543 13438
" />
<path d="M59343 13538
L59443 13438
" />
<path d="M57743 13538
L59343 13538
" />
<path d="M57643 13438
L57743 13538
" />
<path d="M57543 13438
L57643 13438
" />
<path d="M57443 13538
L57543 13438
" />
<path d="M51270 13980
L51170 14080
" />
<path d="M51170 14080
L51070 14080
" />
<path d="M51070 14080
L50970 13980
" />
<path d="M50970 13980
L49370 13980
" />
<path d="M49370 13980
L49270 14080
" />
<path d="M49270 14080
L49170 14080
" />
<path d="M49170 14080
L49070 13980
" />
<path d="M49070 13980
L49070 13380
" />
<path d="M49070 13380
L49170 13280
" />
<path d="M49170 13280
L49270 13280
" />
<path d="M49270 13280
L49370 13380
" />
<path d="M49370 13380
L50970 13380
" />
<path d="M50970 13380
L51070 13280
" />
<path d="M51070 13280
L51170 13280
" />
<path d="M51170 13280
L51270 13380
" />
<path d="M51270 13380
L51270 13980
" />
<path d="M51470 13680
L51270 13680
" />
<path d="M49070 13680
L48870 13680
" />
</g>
<g style="fill:#000000; fill-opacity:0.0; 
stroke:#000000; stroke-width:47.2441; stroke-opacity:1; 
stroke-linecap:round; stroke-linejoin:round;">
<path d="M32958 12112
L32958 11324
" />
<path d="M34927 12112
L34927 11324
" />
<path d="M34927 11324
L32958 11324
" />
<path d="M32958 12112
L32722 12112
" />
<path d="M35163 12112
L34927 12112
" />
<path d="M32722 16875
L35163 16875
" />
<path d="M35163 12112
L35163 13047
" />
<path d="M35163 13696
L35163 14228
" />
<path d="M35163 14877
L35163 15822
" />
<path d="M35163 16433
L35163 16875
" />
<path d="M32722 16255
L32722 12112
" />
<path d="M35163 16433
L35714 16433
" />
<path d="M35163 15822
L35714 15822
" />
</g>
<g style="fill:#000000; fill-opacity:1.0; 
stroke:#000000; stroke-width:3.93701; stroke-opacity:1; 
stroke-linecap:round; stroke-linejoin:round;">
<polyline style="fill-rule:evenodd;"
points="37288,18055
37402,18086
37466,18151
37492,18257
37494,18331
37456,18543
37352,18777
37186,19026
37035,19206
36833,19401
36634,19548
36448,19640
36282,19674
36146,19646
36127,19635
36024,19543
35972,19421
35961,19291
35985,19130
36220,19130
36233,19264
36282,19346
36368,19397
36459,19420
36557,19404
36681,19346
36756,19301
36914,19171
37067,18989
37191,18781
37195,18773
37236,18647
37254,18506
37247,18380
37216,18296
37209,18289
37149,18267
37041,18254
36948,18253
36839,18258
36762,18275
36694,18317
36614,18395
36531,18488
36369,18695
36268,18881
36223,19058
36220,19130
35985,19130
35994,19071
36095,18837
36266,18586
36343,18493
36518,18305
36670,18176
36816,18097
36972,18057
37112,18047
37288,18055
" /> 
<polyline style="fill-rule:evenodd;"
points="33868,18051
33923,18070
33961,18108
33975,18128
34021,18233
34027,18353
33990,18505
33923,18675
33792,18913
33614,19148
33410,19359
33199,19523
33133,19562
32951,19646
32807,19677
32690,19656
32645,19633
32540,19540
32489,19413
32480,19302
32504,19145
32739,19145
32762,19273
32803,19330
32922,19407
33052,19417
33207,19359
33284,19313
33426,19193
33560,19029
33674,18844
33754,18660
33786,18499
33775,18372
33726,18294
33629,18258
33475,18253
33351,18263
33264,18289
33184,18346
33087,18442
32942,18620
32833,18805
32763,18985
32739,19145
32504,19145
32510,19106
32596,18889
32728,18665
32897,18450
33093,18258
33175,18193
33276,18126
33370,18085
33487,18063
33630,18053
33777,18047
33868,18051
" /> 
<polyline style="fill-rule:evenodd;"
points="36552,17145
36575,17211
36537,17316
36474,17413
36273,17688
36076,17969
35888,18248
35715,18514
35562,18761
35434,18979
35337,19160
35276,19296
35256,19373
35263,19417
35296,19435
35371,19434
35460,19423
35580,19411
35642,19417
35663,19445
35664,19453
35631,19485
35545,19533
35422,19591
35280,19650
35137,19704
35009,19747
34914,19771
34869,19770
34848,19695
34868,19572
34926,19417
34942,19384
35036,19194
34880,19337
34678,19498
34482,19604
34302,19651
34147,19639
34026,19565
34008,19544
33941,19401
33936,19262
34237,19262
34267,19377
34344,19438
34460,19441
34608,19383
34724,19308
34832,19214
34965,19075
35106,18913
35239,18747
35347,18596
35408,18494
35432,18400
35392,18339
35286,18310
35183,18307
34981,18350
34774,18453
34579,18604
34414,18787
34296,18987
34258,19095
34237,19262
33936,19262
33935,19229
33989,19036
34099,18833
34253,18639
34493,18425
34748,18276
35009,18198
35267,18192
35330,18203
35440,18225
35522,18238
35541,18240
35579,18210
35647,18128
35736,18010
35833,17872
35929,17728
36014,17594
36077,17485
36107,17417
36108,17409
36090,17372
36025,17372
35988,17379
35818,17416
35708,17433
35649,17433
35627,17415
35627,17408
35656,17356
35698,17323
35774,17292
35900,17252
36054,17209
36212,17169
36353,17138
36453,17123
36470,17122
36552,17145
" /> 
<polyline style="fill-rule:evenodd;"
points="38895,17847
38955,17880
38960,17902
38954,17955
38948,17962
38896,17969
38799,17988
38684,18013
38574,18038
38495,18058
38472,18066
38473,18107
38499,18197
38540,18312
38587,18429
38632,18526
38663,18576
38706,18572
38791,18534
38901,18474
39017,18402
39121,18330
39194,18269
39219,18232
39185,18212
39087,18212
39016,18220
38889,18228
38819,18213
38812,18179
38873,18129
38877,18127
38958,18098
39088,18069
39253,18042
39436,18019
39621,18002
39791,17991
39931,17989
40025,17997
40053,18009
40065,18059
40020,18102
39934,18121
39926,18122
39830,18131
39722,18162
39590,18221
39424,18314
39210,18445
39164,18474
39009,18573
38879,18657
38785,18717
38742,18747
38740,18748
38744,18791
38778,18882
38830,19001
38892,19126
38953,19239
39004,19317
39029,19342
39097,19350
39207,19347
39282,19339
39398,19327
39457,19333
39477,19362
39478,19376
39447,19433
39395,19458
39165,19512
38982,19560
38819,19613
38650,19677
38577,19706
38404,19776
38290,19818
38223,19834
38192,19826
38186,19796
38189,19772
38232,19716
38339,19647
38466,19586
38730,19470
38620,19207
38565,19076
38522,18977
38499,18931
38498,18930
38461,18940
38383,18988
38283,19059
38177,19140
38082,19219
38017,19281
37998,19312
38033,19346
38140,19361
38180,19362
38304,19373
38383,19403
38404,19446
38390,19471
38346,19484
38245,19500
38104,19516
38007,19525
37815,19548
37618,19583
37450,19624
37404,19638
37260,19687
37173,19712
37127,19714
37110,19696
37108,19664
37140,19619
37225,19564
37303,19528
37404,19477
37549,19391
37721,19280
37904,19156
37967,19111
38438,18773
38304,18467
38238,18328
38178,18222
38135,18166
38125,18162
38064,18174
37966,18205
37931,18218
37816,18253
37755,18244
37738,18196
37774,18148
37878,18090
38045,18025
38272,17955
38318,17942
38576,17879
38768,17847
38895,17847
" /> 
<polyline style="fill-rule:evenodd;"
points="44568,16552
44534,16647
44485,16731
44421,16843
44338,17000
44249,17178
44205,17272
44108,17468
44035,17592
43988,17641
43968,17618
43975,17522
44012,17353
44040,17248
44067,17138
44066,17075
44034,17031
44015,17014
43915,16976
43767,16973
43590,17003
43401,17064
43275,17122
42987,17299
42713,17522
42462,17780
42240,18062
42056,18356
41918,18652
41835,18938
41812,19160
41821,19302
41858,19405
41917,19487
41997,19569
42078,19605
42192,19612
42390,19576
42624,19478
42888,19320
43142,19132
43297,19011
43403,18933
43468,18895
43502,18891
43515,18917
43516,18934
43485,19005
43401,19105
43274,19225
43118,19354
42942,19483
42758,19603
42582,19702
42368,19794
42159,19853
41970,19875
41821,19857
41790,19845
41674,19755
41574,19612
41508,19447
41496,19386
41493,19109
41554,18818
41671,18520
41837,18224
42043,17936
42283,17664
42549,17417
42834,17202
43129,17026
43427,16898
43721,16824
44003,16813
44021,16815
44249,16838
44348,16683
44418,16585
44480,16519
44499,16506
44557,16502
44568,16552
" /> 
<polyline style="fill-rule:evenodd;"
points="30714,18053
30734,18099
30731,18131
30693,18210
30616,18290
30600,18301
30501,18400
30459,18522
30428,18666
30382,18747
30311,18779
30271,18782
30201,18775
30173,18739
30171,18651
30172,18632
30173,18535
30165,18484
30162,18482
30103,18502
30002,18554
29879,18628
29754,18710
29652,18784
29530,18900
29418,19038
29328,19179
29274,19304
29264,19382
29280,19426
29325,19453
29415,19467
29506,19473
29646,19489
29720,19516
29732,19548
29690,19581
29600,19611
29467,19633
29298,19641
29289,19642
29208,19654
29079,19686
28923,19733
28836,19762
28663,19821
28548,19858
28481,19874
28450,19870
28443,19847
28448,19814
28488,19761
28579,19699
28655,19662
28740,19622
28804,19580
28861,19521
28920,19431
28995,19295
29066,19159
29164,18972
29263,18788
29348,18632
29399,18544
29456,18433
29487,18348
29485,18313
29435,18305
29343,18324
29295,18341
29150,18387
29050,18399
29006,18376
29006,18352
29052,18307
29157,18250
29309,18188
29496,18126
29582,18100
29744,18066
29843,18074
29882,18127
29861,18226
29782,18373
29781,18374
29715,18480
29666,18562
29652,18586
29669,18592
29735,18566
29839,18514
29965,18446
30100,18368
30230,18289
30342,18216
30422,18157
30443,18138
30541,18069
30640,18042
30714,18053
" /> 
<polyline style="fill-rule:evenodd;"
points="29592,16464
29582,16536
29529,16655
29475,16747
29405,16869
29321,17034
29237,17212
29214,17265
29147,17411
29088,17526
29047,17592
29034,17602
28990,17579
28983,17507
29015,17379
29051,17277
29099,17142
29133,17032
29145,16975
29135,16947
29097,16930
29023,16924
28904,16927
28729,16940
28497,16963
28349,16976
28239,16989
28156,17009
28087,17046
28021,17109
27946,17207
27849,17349
27720,17544
27711,17557
27615,17704
27539,17831
27491,17921
27479,17955
27493,17978
27542,17991
27639,17993
27795,17985
27858,17981
28031,17967
28147,17952
28221,17931
28269,17900
28308,17853
28312,17848
28417,17711
28503,17627
28562,17600
28589,17634
28590,17649
28570,17702
28519,17804
28445,17935
28407,17999
28312,18163
28222,18328
28153,18465
28141,18492
28079,18605
28022,18670
27979,18680
27960,18628
27960,18620
27976,18548
28016,18441
28034,18402
28093,18266
28110,18181
28078,18137
27988,18125
27833,18133
27821,18134
27621,18152
27478,18173
27379,18203
27306,18251
27245,18325
27179,18434
27155,18475
27044,18681
26940,18886
26851,19077
26784,19239
26745,19356
26738,19401
26745,19445
26775,19471
26839,19479
26948,19469
27114,19441
27210,19423
27392,19393
27610,19365
27824,19343
27888,19337
28260,19310
28427,19076
28532,18942
28617,18862
28675,18840
28700,18879
28701,18892
28680,18945
28625,19044
28545,19173
28500,19242
28391,19411
28281,19591
28192,19748
28176,19778
28092,19923
28026,20011
27980,20036
27960,19995
27960,19982
27974,19910
28010,19795
28039,19718
28079,19603
28097,19520
28094,19493
28047,19485
27943,19489
27794,19501
27617,19520
27426,19545
27235,19573
27061,19604
26960,19625
26787,19669
26584,19730
26391,19794
26363,19804
26187,19867
26070,19904
26001,19916
25970,19903
25964,19869
25967,19853
26008,19796
26098,19738
26142,19719
26217,19685
26273,19645
26321,19583
26372,19483
26437,19329
26458,19278
26550,19062
26648,18851
26760,18631
26893,18389
27054,18111
27250,17784
27284,17728
27397,17539
27492,17374
27564,17244
27605,17160
27612,17133
27568,17129
27478,17144
27426,17156
27297,17189
27223,17198
27190,17182
27182,17143
27218,17092
27320,17040
27482,16988
27697,16938
27955,16891
28252,16849
28579,16814
28720,16801
29271,16757
29396,16599
29496,16490
29562,16447
29592,16464
" /> 
<polyline style="fill-rule:evenodd;"
points="32899,18013
32915,18042
32872,18083
32775,18129
32684,18159
32594,18188
32517,18224
32447,18277
32378,18353
32302,18463
32214,18614
32108,18814
31977,19073
31903,19221
31786,19454
31671,19676
31566,19872
31480,20027
31419,20127
31416,20132
31232,20340
31013,20480
30765,20549
30496,20546
30314,20504
30200,20470
30118,20451
30090,20449
30069,20489
30026,20578
29982,20672
29924,20794
29889,20857
29865,20876
29843,20862
29836,20855
29816,20812
29821,20744
29854,20638
29921,20482
29964,20388
30073,20162
30157,20004
30222,19908
30270,19869
30306,19879
30320,19932
30292,20025
30259,20096
30212,20204
30192,20286
30194,20310
30252,20354
30358,20393
30485,20420
30608,20431
30676,20425
30849,20354
31025,20213
31193,20012
31272,19890
31360,19736
31447,19573
31526,19418
31587,19289
31622,19201
31627,19178
31602,19188
31539,19242
31464,19314
31239,19501
31017,19616
30823,19655
30676,19636
30578,19562
30527,19428
30516,19285
30524,19232
30814,19232
30831,19353
30856,19394
30946,19438
31073,19430
31220,19372
31302,19320
31422,19219
31552,19085
31680,18932
31798,18774
31895,18625
31961,18497
31987,18405
31984,18382
31944,18343
31852,18325
31767,18322
31516,18362
31286,18475
31085,18656
30921,18897
30845,19075
30814,19232
30524,19232
30550,19078
30647,18873
30793,18679
30977,18505
31187,18361
31410,18256
31635,18198
31849,18199
31896,18208
32016,18226
32112,18205
32181,18168
32326,18102
32509,18047
32696,18011
32817,18002
32899,18013
" /> 
</g>
<g style="fill:#000000; fill-opacity:1.0; 
stroke:#000000; stroke-width:59.0551; stroke-opacity:1; 
stroke-linecap:round; stroke-linejoin:round;">
</g>
<g style="fill:#000000; fill-opacity:0.0; 
stroke:#000000; stroke-width:59.0551; stroke-opacity:1; 
stroke-linecap:round; stroke-linejoin:round;">
<path d="M47471 15905
L46871 15905
" />
<path d="M47471 15855
L46871 15855
" />
<path d="M46871 15805
L47471 15805
" />
<path d="M47471 15655
L46871 15655
" />
<path d="M46871 15705
L47471 15705
" />
<path d="M47471 15755
L46871 15755
" />
<path d="M47471 17605
L47471 17405
" />
<path d="M46871 17605
L47471 17605
" />
<path d="M46871 15605
L46871 17605
" />
<path d="M47471 15605
L46871 15605
" />
<path d="M47471 17605
L47471 15605
" />
<path d="M44661 16998
L44661 14998
" />
<path d="M44661 14998
L44061 14998
" />
<path d="M44061 14998
L44061 16998
" />
<path d="M44061 16998
L44661 16998
" />
<path d="M44661 16998
L44661 16798
" />
<path d="M44661 15148
L44061 15148
" />
<path d="M44061 15098
L44661 15098
" />
<path d="M44661 15048
L44061 15048
" />
<path d="M44061 15198
L44661 15198
" />
<path d="M44661 15248
L44061 15248
" />
<path d="M44661 15298
L44061 15298
" />
</g>
<g style="fill:#000000; fill-opacity:0.0; 
stroke:#000000; stroke-width:47.2441; stroke-opacity:1; 
stroke-linecap:round; stroke-linejoin:round;">
<path d="M58327 14938
L57618 14938
" />
<path d="M57618 16205
L58583 16205
" />
</g>
<g style="fill:#000000; fill-opacity:0.0; 
stroke:#000000; stroke-width:59.0551; stroke-opacity:1; 
stroke-linecap:round; stroke-linejoin:round;">
<path d="M66282 18694
L66297 18649
L66312 18634
L66342 18619
L66387 18619
L66417 18634
L66432 18649
L66447 18679
L66447 18799
L66132 18799
L66132 18694
L66147 18664
L66162 18649
L66192 18634
L66222 18634
L66252 18649
L66267 18664
L66282 18694
L66282 18799
" />
<path d="M66162 18499
L66147 18484
L66132 18454
L66132 18379
L66147 18349
L66162 18334
L66192 18319
L66222 18319
L66267 18334
L66447 18514
L66447 18319
" />
<path d="M69282 18671
L69282 18776
" />
<path d="M69447 18776
L69132 18776
L69132 18626
" />
<path d="M69132 18537
L69132 18327
L69447 18462
" />
<path d="M70282 18671
L70282 18776
" />
<path d="M70447 18776
L70132 18776
L70132 18626
" />
<path d="M70132 18372
L70132 18432
L70147 18462
L70162 18477
L70207 18507
L70267 18522
L70387 18522
L70417 18507
L70432 18492
L70447 18462
L70447 18402
L70432 18372
L70417 18357
L70387 18342
L70312 18342
L70282 18357
L70267 18372
L70252 18402
L70252 18462
L70267 18492
L70282 18507
L70312 18522
" />
<path d="M71282 18671
L71282 18776
" />
<path d="M71447 18776
L71132 18776
L71132 18626
" />
<path d="M71132 18357
L71132 18507
L71282 18522
L71267 18507
L71252 18477
L71252 18402
L71267 18372
L71282 18357
L71312 18342
L71387 18342
L71417 18357
L71432 18372
L71447 18402
L71447 18477
L71432 18507
L71417 18522
" />
<path d="M76447 18784
L76297 18889
" />
<path d="M76447 18964
L76132 18964
L76132 18844
L76147 18814
L76162 18799
L76192 18784
L76237 18784
L76267 18799
L76282 18814
L76297 18844
L76297 18964
" />
<path d="M76357 18664
L76357 18514
" />
<path d="M76447 18694
L76132 18589
L76447 18484
" />
<path d="M76132 18409
L76447 18334
L76222 18274
L76447 18214
L76132 18139
" />
<path d="M75147 18806
L75132 18836
L75132 18881
L75147 18926
L75177 18956
L75207 18971
L75267 18986
L75312 18986
L75372 18971
L75402 18956
L75432 18926
L75447 18881
L75447 18851
L75432 18806
L75417 18791
L75312 18791
L75312 18851
" />
<path d="M75447 18656
L75132 18656
L75447 18477
L75132 18477
" />
<path d="M75447 18327
L75132 18327
L75132 18252
L75147 18207
L75177 18177
L75207 18162
L75267 18147
L75312 18147
L75372 18162
L75402 18177
L75432 18207
L75447 18252
L75447 18327
" />
<path d="M74444 18884
L74459 18839
L74459 18764
L74444 18734
L74429 18719
L74399 18704
L74369 18704
L74339 18719
L74324 18734
L74309 18764
L74294 18824
L74279 18854
L74264 18869
L74234 18884
L74204 18884
L74174 18869
L74159 18854
L74144 18824
L74144 18749
L74159 18704
" />
<path d="M74144 18614
L74144 18434
" />
<path d="M74459 18524
L74144 18524
" />
<path d="M73132 18986
L73447 18881
L73132 18776
" />
<path d="M73417 18492
L73432 18507
L73447 18552
L73447 18581
L73432 18626
L73402 18656
L73372 18671
L73312 18686
L73267 18686
L73207 18671
L73177 18656
L73147 18626
L73132 18581
L73132 18552
L73147 18507
L73162 18492
" />
<path d="M73417 18177
L73432 18192
L73447 18237
L73447 18267
L73432 18312
L73402 18342
L73372 18357
L73312 18372
L73267 18372
L73207 18357
L73177 18342
L73147 18312
L73132 18267
L73132 18237
L73147 18192
L73162 18177
" />
<path d="M72282 18671
L72282 18776
" />
<path d="M72447 18776
L72132 18776
L72132 18626
" />
<path d="M72237 18372
L72447 18372
" />
<path d="M72117 18447
L72342 18522
L72342 18327
" />
<path d="M68282 18694
L68297 18649
L68312 18634
L68342 18619
L68387 18619
L68417 18634
L68432 18649
L68447 18679
L68447 18799
L68132 18799
L68132 18694
L68147 18664
L68162 18649
L68192 18634
L68222 18634
L68252 18649
L68267 18664
L68282 18694
L68282 18799
" />
<path d="M68447 18319
L68447 18499
" />
<path d="M68447 18409
L68132 18409
L68177 18439
L68207 18469
L68222 18499
" />
<path d="M67282 18694
L67297 18649
L67312 18634
L67342 18619
L67387 18619
L67417 18634
L67432 18649
L67447 18679
L67447 18799
L67132 18799
L67132 18694
L67147 18664
L67162 18649
L67192 18634
L67222 18634
L67252 18649
L67267 18664
L67282 18694
L67282 18799
" />
<path d="M67132 18514
L67132 18319
L67252 18424
L67252 18379
L67267 18349
L67282 18334
L67312 18319
L67387 18319
L67417 18334
L67432 18349
L67447 18379
L67447 18469
L67432 18499
L67417 18514
" />
<path d="M65282 18694
L65297 18649
L65312 18634
L65342 18619
L65387 18619
L65417 18634
L65432 18649
L65447 18679
L65447 18799
L65132 18799
L65132 18694
L65147 18664
L65162 18649
L65192 18634
L65222 18634
L65252 18649
L65267 18664
L65282 18694
L65282 18799
" />
<path d="M65132 18349
L65132 18409
L65147 18439
L65162 18454
L65207 18484
L65267 18499
L65387 18499
L65417 18484
L65432 18469
L65447 18439
L65447 18379
L65432 18349
L65417 18334
L65387 18319
L65312 18319
L65282 18334
L65267 18349
L65252 18379
L65252 18439
L65267 18469
L65282 18484
L65312 18499
" />
<path d="M65282 14394
L65297 14349
L65312 14334
L65342 14319
L65387 14319
L65417 14334
L65432 14349
L65447 14379
L65447 14499
L65132 14499
L65132 14394
L65147 14364
L65162 14349
L65192 14334
L65222 14334
L65252 14349
L65267 14364
L65282 14394
L65282 14499
" />
<path d="M65132 14034
L65132 14184
L65282 14199
L65267 14184
L65252 14154
L65252 14079
L65267 14049
L65282 14034
L65312 14019
L65387 14019
L65417 14034
L65432 14049
L65447 14079
L65447 14154
L65432 14184
L65417 14199
" />
<path d="M66282 14394
L66297 14349
L66312 14334
L66342 14319
L66387 14319
L66417 14334
L66432 14349
L66447 14379
L66447 14499
L66132 14499
L66132 14394
L66147 14364
L66162 14349
L66192 14334
L66222 14334
L66252 14349
L66267 14364
L66282 14394
L66282 14499
" />
<path d="M66237 14049
L66447 14049
" />
<path d="M66117 14124
L66342 14199
L66342 14004
" />
<path d="M67282 14484
L67282 14379
" />
<path d="M67447 14334
L67447 14484
L67132 14484
L67132 14334
" />
<path d="M67132 14064
L67132 14124
L67147 14154
L67162 14169
L67207 14199
L67267 14214
L67387 14214
L67417 14199
L67432 14184
L67447 14154
L67447 14094
L67432 14064
L67417 14049
L67387 14034
L67312 14034
L67282 14049
L67267 14064
L67252 14094
L67252 14154
L67267 14184
L67282 14199
L67312 14214
" />
<path d="M68447 14499
L68132 14499
L68132 14424
L68147 14379
L68177 14349
L68207 14334
L68267 14319
L68312 14319
L68372 14334
L68402 14349
L68432 14379
L68447 14424
L68447 14499
" />
<path d="M68132 14214
L68132 14004
L68447 14139
" />
<path d="M69417 14319
L69432 14334
L69447 14379
L69447 14409
L69432 14454
L69402 14484
L69372 14499
L69312 14514
L69267 14514
L69207 14499
L69177 14484
L69147 14454
L69132 14409
L69132 14379
L69147 14334
L69162 14319
" />
<path d="M69132 14049
L69132 14109
L69147 14139
L69162 14154
L69207 14184
L69267 14199
L69387 14199
L69417 14184
L69432 14169
L69447 14139
L69447 14079
L69432 14049
L69417 14034
L69387 14019
L69312 14019
L69282 14034
L69267 14049
L69252 14079
L69252 14139
L69267 14169
L69282 14184
L69312 14199
" />
<path d="M70447 14499
L70132 14499
L70132 14424
L70147 14379
L70177 14349
L70207 14334
L70267 14319
L70312 14319
L70372 14334
L70402 14349
L70432 14379
L70447 14424
L70447 14499
" />
<path d="M70237 14049
L70447 14049
" />
<path d="M70117 14124
L70342 14199
L70342 14004
" />
<path d="M74147 14506
L74132 14536
L74132 14581
L74147 14626
L74177 14656
L74207 14671
L74267 14686
L74312 14686
L74372 14671
L74402 14656
L74432 14626
L74447 14581
L74447 14551
L74432 14506
L74417 14491
L74312 14491
L74312 14551
" />
<path d="M74447 14356
L74132 14356
L74447 14177
L74132 14177
" />
<path d="M74447 14027
L74132 14027
L74132 13952
L74147 13907
L74177 13877
L74207 13862
L74267 13847
L74312 13847
L74372 13862
L74402 13877
L74432 13907
L74447 13952
L74447 14027
" />
<path d="M73147 14506
L73132 14536
L73132 14581
L73147 14626
L73177 14656
L73207 14671
L73267 14686
L73312 14686
L73372 14671
L73402 14656
L73432 14626
L73447 14581
L73447 14551
L73432 14506
L73417 14491
L73312 14491
L73312 14551
" />
<path d="M73447 14356
L73132 14356
L73447 14177
L73132 14177
" />
<path d="M73447 14027
L73132 14027
L73132 13952
L73147 13907
L73177 13877
L73207 13862
L73267 13847
L73312 13847
L73372 13862
L73402 13877
L73432 13907
L73447 13952
L73447 14027
" />
<path d="M72447 14499
L72132 14499
L72132 14424
L72147 14379
L72177 14349
L72207 14334
L72267 14319
L72312 14319
L72372 14334
L72402 14349
L72432 14379
L72447 14424
L72447 14499
" />
<path d="M72447 14019
L72447 14199
" />
<path d="M72447 14109
L72132 14109
L72177 14139
L72207 14169
L72222 14199
" />
<path d="M71447 14499
L71132 14499
L71132 14424
L71147 14379
L71177 14349
L71207 14334
L71267 14319
L71312 14319
L71372 14334
L71402 14349
L71432 14379
L71447 14424
L71447 14499
" />
<path d="M71132 14124
L71132 14094
L71147 14064
L71162 14049
L71192 14034
L71252 14019
L71327 14019
L71387 14034
L71417 14049
L71432 14064
L71447 14094
L71447 14124
L71432 14154
L71417 14169
L71387 14184
L71327 14199
L71252 14199
L71192 14184
L71162 14169
L71147 14154
L71132 14124
" />
<path d="M75447 14499
L75132 14499
L75132 14424
L75147 14379
L75177 14349
L75207 14334
L75267 14319
L75312 14319
L75372 14334
L75402 14349
L75432 14379
L75447 14424
L75447 14499
" />
<path d="M75162 14199
L75147 14184
L75132 14154
L75132 14079
L75147 14049
L75162 14034
L75192 14019
L75222 14019
L75267 14034
L75447 14214
L75447 14019
" />
<path d="M76132 15873
L76132 15693
" />
<path d="M76447 15783
L76132 15783
" />
<path d="M76132 15618
L76447 15408
" />
<path d="M76132 15408
L76447 15618
" />
<path d="M76132 15228
L76132 15198
L76147 15168
L76162 15153
L76192 15138
L76252 15123
L76327 15123
L76387 15138
L76417 15153
L76432 15168
L76447 15198
L76447 15228
L76432 15258
L76417 15273
L76387 15288
L76327 15303
L76252 15303
L76192 15288
L76162 15273
L76147 15258
L76132 15228
" />
<path d="M76117 14763
L76522 15033
" />
<path d="M76447 14658
L76132 14658
L76132 14583
L76147 14538
L76177 14508
L76207 14493
L76267 14478
L76312 14478
L76372 14493
L76402 14508
L76432 14538
L76447 14583
L76447 14658
" />
<path d="M76132 14373
L76132 14178
L76252 14283
L76252 14238
L76267 14208
L76282 14193
L76312 14178
L76387 14178
L76417 14193
L76432 14208
L76447 14238
L76447 14328
L76432 14358
L76417 14373
" />
<path d="M53132 14931
L53132 15249
L53151 15287
L53170 15306
L53207 15324
L53282 15324
L53320 15306
L53339 15287
L53357 15249
L53357 14931
" />
<path d="M53526 15306
L53582 15324
L53676 15324
L53714 15306
L53732 15287
L53751 15249
L53751 15212
L53732 15174
L53714 15156
L53676 15137
L53601 15118
L53564 15099
L53545 15081
L53526 15043
L53526 15006
L53545 14968
L53564 14949
L53601 14931
L53695 14931
L53751 14949
" />
<path d="M54051 15118
L54107 15137
L54126 15156
L54145 15193
L54145 15249
L54126 15287
L54107 15306
L54070 15324
L53920 15324
L53920 14931
L54051 14931
L54089 14949
L54107 14968
L54126 15006
L54126 15043
L54107 15081
L54089 15099
L54051 15118
L53920 15118
" />
<path d="M54220 15362
L54520 15362
" />
<path d="M54838 15287
L54820 15306
L54763 15324
L54726 15324
L54670 15306
L54632 15268
L54613 15231
L54595 15156
L54595 15099
L54613 15024
L54632 14987
L54670 14949
L54726 14931
L54763 14931
L54820 14949
L54838 14968
" />
<path d="M55213 15324
L54988 15324
" />
<path d="M55101 15324
L55101 14931
L55063 14987
L55026 15024
L54988 15043
" />
<path d="M21196 73483
L21063 73197
L21131 73166
L21178 73160
L21218 73175
L21244 73196
L21283 73244
L21302 73284
L21314 73345
L21313 73379
L21298 73418
L21264 73451
L21196 73483
" />
<path d="M21403 73039
L21430 73026
L21463 73027
L21483 73034
L21510 73055
L21549 73103
L21580 73171
L21592 73232
L21591 73265
L21584 73285
L21563 73312
L21536 73324
L21502 73323
L21482 73316
L21456 73295
L21417 73247
L21385 73179
L21374 73119
L21375 73085
L21382 73065
L21403 73039
" />
<path d="M21741 73196
L21761 73203
L21753 73223
L21733 73216
L21741 73196
L21753 73223
" />
<path d="M21671 73046
L21691 73053
L21684 73073
L21664 73066
L21671 73046
L21684 73073
" />
<path d="M22039 73090
L21876 73166
" />
<path d="M21957 73128
L21824 72842
L21816 72896
L21801 72936
L21781 72962
" />
<path d="M28165 61569
L28450 61436
L28482 61504
L28487 61551
L28473 61591
L28452 61617
L28404 61656
L28363 61675
L28303 61687
L28269 61686
L28229 61672
L28197 61637
L28165 61569
" />
<path d="M28609 61776
L28621 61803
L28621 61837
L28613 61857
L28592 61883
L28544 61922
L28476 61953
L28416 61965
L28382 61964
L28362 61957
L28336 61936
L28323 61909
L28324 61876
L28331 61856
L28352 61829
L28400 61790
L28468 61759
L28529 61747
L28563 61748
L28582 61755
L28609 61776
" />
<path d="M28452 62114
L28445 62134
L28425 62127
L28432 62107
L28452 62114
L28425 62127
" />
<path d="M28601 62044
L28594 62064
L28574 62057
L28582 62037
L28601 62044
L28574 62057
" />
<path d="M28740 62128
L28760 62136
L28786 62157
L28818 62225
L28817 62258
L28810 62278
L28789 62304
L28762 62317
L28715 62322
L28475 62235
L28558 62412
" />
<path d="M34981 58421
L35266 58288
L35298 58356
L35303 58403
L35289 58443
L35268 58469
L35220 58508
L35179 58527
L35118 58539
L35085 58538
L35045 58524
L35013 58489
L34981 58421
" />
<path d="M35425 58628
L35437 58655
L35436 58689
L35429 58709
L35408 58735
L35360 58774
L35292 58806
L35232 58817
L35198 58816
L35178 58809
L35152 58788
L35139 58761
L35140 58728
L35147 58708
L35168 58681
L35216 58642
L35284 58611
L35345 58599
L35379 58600
L35398 58607
L35425 58628
" />
<path d="M35268 58966
L35261 58986
L35241 58979
L35248 58959
L35268 58966
L35241 58979
" />
<path d="M35417 58896
L35410 58916
L35390 58909
L35397 58889
L35417 58896
L35390 58909
" />
<path d="M35577 58954
L35659 59131
L35506 59086
L35525 59127
L35524 59161
L35517 59181
L35496 59207
L35428 59239
L35395 59238
L35375 59230
L35348 59210
L35310 59128
L35311 59095
L35319 59075
" />
<path d="M18061 66910
L17928 66624
L17996 66593
L18043 66587
L18083 66602
L18109 66623
L18148 66671
L18167 66711
L18179 66772
L18178 66806
L18163 66845
L18129 66878
L18061 66910
" />
<path d="M18268 66466
L18295 66453
L18328 66454
L18348 66461
L18375 66482
L18414 66530
L18445 66598
L18457 66659
L18456 66692
L18449 66712
L18428 66739
L18401 66751
L18367 66750
L18347 66743
L18321 66722
L18282 66674
L18251 66606
L18239 66546
L18240 66512
L18247 66492
L18268 66466
" />
<path d="M18606 66623
L18626 66630
L18618 66650
L18598 66643
L18606 66623
L18618 66650
" />
<path d="M18536 66473
L18556 66480
L18549 66500
L18529 66493
L18536 66473
L18549 66500
" />
<path d="M18788 66339
L18877 66529
" />
<path d="M18669 66262
L18696 66498
L18873 66415
" />
<path d="M21591 56800
L21458 56514
L21526 56483
L21573 56477
L21613 56492
L21639 56513
L21678 56561
L21697 56601
L21709 56662
L21708 56696
L21693 56735
L21659 56768
L21591 56800
" />
<path d="M21798 56356
L21825 56343
L21858 56344
L21878 56351
L21905 56372
L21944 56420
L21975 56488
L21987 56549
L21986 56582
L21979 56602
L21958 56629
L21931 56641
L21897 56640
L21877 56633
L21851 56612
L21812 56564
L21781 56496
L21769 56436
L21770 56402
L21777 56382
L21798 56356
" />
<path d="M22136 56513
L22156 56520
L22148 56540
L22128 56533
L22136 56513
L22148 56540
" />
<path d="M22066 56363
L22086 56370
L22079 56390
L22059 56383
L22066 56363
L22079 56390
" />
<path d="M22287 56128
L22151 56191
L22201 56333
L22208 56313
L22229 56287
L22297 56255
L22331 56256
L22350 56264
L22377 56284
L22408 56352
L22408 56386
L22400 56406
L22379 56432
L22311 56464
L22278 56463
L22258 56456
" />
<path d="M14819 59876
L14686 59590
L14754 59559
L14801 59553
L14841 59568
L14867 59589
L14906 59637
L14925 59677
L14937 59738
L14936 59772
L14921 59811
L14887 59844
L14819 59876
" />
<path d="M15026 59432
L15053 59419
L15086 59420
L15106 59427
L15133 59448
L15172 59496
L15203 59564
L15215 59625
L15214 59658
L15207 59678
L15186 59705
L15159 59717
L15125 59716
L15105 59709
L15079 59688
L15040 59640
L15008 59572
L14997 59512
L14998 59478
L15005 59458
L15026 59432
" />
<path d="M15364 59589
L15384 59596
L15376 59616
L15356 59609
L15364 59589
L15376 59616
" />
<path d="M15294 59439
L15314 59446
L15307 59466
L15287 59459
L15294 59439
L15307 59466
" />
<path d="M15501 59210
L15447 59235
L15426 59262
L15419 59282
L15411 59335
L15423 59396
L15473 59504
L15500 59525
L15520 59533
L15553 59533
L15607 59508
L15628 59482
L15635 59462
L15636 59428
L15605 59360
L15578 59340
L15559 59332
L15525 59331
L15471 59357
L15450 59383
L15443 59403
L15442 59436
" />
<path d="M73069 59980
L73069 59665
L73144 59665
L73189 59680
L73219 59710
L73234 59740
L73249 59800
L73249 59845
L73234 59905
L73219 59935
L73189 59965
L73144 59980
L73069 59980
" />
<path d="M73549 59980
L73369 59980
" />
<path d="M73459 59980
L73459 59665
L73429 59710
L73399 59740
L73369 59755
" />
<path d="M73684 59950
L73699 59965
L73684 59980
L73669 59965
L73684 59950
L73684 59980
" />
<path d="M73684 59785
L73699 59800
L73684 59815
L73669 59800
L73684 59785
L73684 59815
" />
<path d="M73894 59665
L73924 59665
L73954 59680
L73969 59695
L73984 59725
L73999 59785
L73999 59860
L73984 59920
L73969 59950
L73954 59965
L73924 59980
L73894 59980
L73864 59965
L73849 59950
L73834 59920
L73819 59860
L73819 59785
L73834 59725
L73849 59695
L73864 59680
L73894 59665
" />
<path d="M58082 59043
L58082 58728
L58157 58728
L58202 58743
L58232 58773
L58247 58803
L58262 58863
L58262 58908
L58247 58968
L58232 58998
L58202 59028
L58157 59043
L58082 59043
" />
<path d="M58562 59043
L58382 59043
" />
<path d="M58472 59043
L58472 58728
L58442 58773
L58412 58803
L58382 58818
" />
<path d="M58697 59013
L58712 59028
L58697 59043
L58682 59028
L58697 59013
L58697 59043
" />
<path d="M58697 58848
L58712 58863
L58697 58878
L58682 58863
L58697 58848
L58697 58878
" />
<path d="M58832 58758
L58847 58743
L58877 58728
L58952 58728
L58982 58743
L58997 58758
L59012 58788
L59012 58818
L58997 58863
L58817 59043
L59012 59043
" />
<path d="M50532 58193
L50532 57878
L50607 57878
L50652 57893
L50682 57923
L50697 57953
L50712 58013
L50712 58058
L50697 58118
L50682 58148
L50652 58178
L50607 58193
L50532 58193
" />
<path d="M51012 58193
L50832 58193
" />
<path d="M50922 58193
L50922 57878
L50892 57923
L50862 57953
L50832 57968
" />
<path d="M51147 58163
L51162 58178
L51147 58193
L51132 58178
L51147 58163
L51147 58193
" />
<path d="M51147 57998
L51162 58013
L51147 58028
L51132 58013
L51147 57998
L51147 58028
" />
<path d="M51267 57878
L51462 57878
L51357 57998
L51402 57998
L51432 58013
L51447 58028
L51462 58058
L51462 58133
L51447 58163
L51432 58178
L51402 58193
L51312 58193
L51282 58178
L51267 58163
" />
<path d="M42982 58743
L42982 58428
L43057 58428
L43102 58443
L43132 58473
L43147 58503
L43162 58563
L43162 58608
L43147 58668
L43132 58698
L43102 58728
L43057 58743
L42982 58743
" />
<path d="M43462 58743
L43282 58743
" />
<path d="M43372 58743
L43372 58428
L43342 58473
L43312 58503
L43282 58518
" />
<path d="M43597 58713
L43612 58728
L43597 58743
L43582 58728
L43597 58713
L43597 58743
" />
<path d="M43597 58548
L43612 58563
L43597 58578
L43582 58563
L43597 58548
L43597 58578
" />
<path d="M43882 58533
L43882 58743
" />
<path d="M43807 58413
L43732 58638
L43927 58638
" />
<path d="M29019 54793
L28886 54507
L28954 54476
L29001 54470
L29041 54485
L29067 54506
L29106 54554
L29125 54594
L29137 54655
L29136 54689
L29121 54728
L29087 54761
L29019 54793
" />
<path d="M29454 54590
L29291 54666
" />
<path d="M29372 54628
L29239 54343
L29231 54396
L29217 54436
L29196 54462
" />
<path d="M29564 54506
L29584 54513
L29576 54533
L29556 54526
L29564 54506
L29576 54533
" />
<path d="M29494 54356
L29514 54363
L29507 54383
L29487 54376
L29494 54356
L29507 54383
" />
<path d="M29715 54121
L29579 54184
L29629 54326
L29636 54306
L29657 54280
L29725 54248
L29759 54249
L29778 54257
L29805 54277
L29836 54345
L29835 54379
L29828 54399
L29807 54425
L29739 54457
L29706 54456
L29686 54449
" />
<path d="M22219 57976
L22086 57690
L22154 57659
L22201 57653
L22241 57668
L22267 57689
L22306 57737
L22325 57777
L22337 57838
L22336 57872
L22321 57911
L22287 57944
L22219 57976
" />
<path d="M22654 57773
L22491 57849
" />
<path d="M22572 57811
L22439 57525
L22431 57579
L22417 57619
L22396 57645
" />
<path d="M22764 57689
L22784 57696
L22776 57716
L22756 57709
L22764 57689
L22776 57716
" />
<path d="M22694 57539
L22714 57546
L22707 57566
L22687 57559
L22694 57539
L22707 57566
" />
<path d="M22901 57310
L22847 57335
L22826 57362
L22819 57382
L22811 57435
L22823 57496
L22873 57604
L22900 57625
L22920 57633
L22953 57633
L23007 57608
L23028 57582
L23035 57562
L23036 57528
L23005 57460
L22978 57440
L22959 57432
L22925 57431
L22871 57457
L22850 57483
L22843 57503
L22842 57536
" />
<path d="M65457 59970
L65457 59655
L65532 59655
L65577 59670
L65607 59700
L65622 59730
L65637 59790
L65637 59835
L65622 59895
L65607 59925
L65577 59955
L65532 59970
L65457 59970
" />
<path d="M65937 59970
L65757 59970
" />
<path d="M65847 59970
L65847 59655
L65817 59700
L65787 59730
L65757 59745
" />
<path d="M66072 59940
L66087 59955
L66072 59970
L66057 59955
L66072 59940
L66072 59970
" />
<path d="M66072 59775
L66087 59790
L66072 59805
L66057 59790
L66072 59775
L66072 59805
" />
<path d="M66222 59940
L66237 59955
L66222 59970
L66207 59955
L66222 59940
L66222 59970
" />
<path d="M66222 59850
L66207 59670
L66222 59655
L66237 59670
L66222 59850
L66222 59655
" />
<path d="M66537 59970
L66357 59970
" />
<path d="M66447 59970
L66447 59655
L66417 59700
L66387 59730
L66357 59745
" />
<path d="M74882 52743
L74882 52428
L74957 52428
L75002 52443
L75032 52473
L75047 52503
L75062 52563
L75062 52608
L75047 52668
L75032 52698
L75002 52728
L74957 52743
L74882 52743
" />
<path d="M75182 52458
L75197 52443
L75227 52428
L75302 52428
L75332 52443
L75347 52458
L75362 52488
L75362 52518
L75347 52563
L75167 52743
L75362 52743
" />
<path d="M75497 52713
L75512 52728
L75497 52743
L75482 52728
L75497 52713
L75497 52743
" />
<path d="M75497 52548
L75512 52563
L75497 52578
L75482 52563
L75497 52548
L75497 52578
" />
<path d="M75707 52428
L75737 52428
L75767 52443
L75782 52458
L75797 52488
L75812 52548
L75812 52623
L75797 52683
L75782 52713
L75767 52728
L75737 52743
L75707 52743
L75677 52728
L75662 52713
L75647 52683
L75632 52623
L75632 52548
L75647 52488
L75662 52458
L75677 52443
L75707 52428
" />
<path d="M65532 52793
L65532 52478
L65607 52478
L65652 52493
L65682 52523
L65697 52553
L65712 52613
L65712 52658
L65697 52718
L65682 52748
L65652 52778
L65607 52793
L65532 52793
" />
<path d="M65832 52508
L65847 52493
L65877 52478
L65952 52478
L65982 52493
L65997 52508
L66012 52538
L66012 52568
L65997 52613
L65817 52793
L66012 52793
" />
<path d="M66147 52763
L66162 52778
L66147 52793
L66132 52778
L66147 52763
L66147 52793
" />
<path d="M66147 52598
L66162 52613
L66147 52628
L66132 52613
L66147 52598
L66147 52628
" />
<path d="M66462 52793
L66282 52793
" />
<path d="M66372 52793
L66372 52478
L66342 52523
L66312 52553
L66282 52568
" />
<path d="M58032 51543
L58032 51228
L58107 51228
L58152 51243
L58182 51273
L58197 51303
L58212 51363
L58212 51408
L58197 51468
L58182 51498
L58152 51528
L58107 51543
L58032 51543
" />
<path d="M58332 51258
L58347 51243
L58377 51228
L58452 51228
L58482 51243
L58497 51258
L58512 51288
L58512 51318
L58497 51363
L58317 51543
L58512 51543
" />
<path d="M58647 51513
L58662 51528
L58647 51543
L58632 51528
L58647 51513
L58647 51543
" />
<path d="M58647 51348
L58662 51363
L58647 51378
L58632 51363
L58647 51348
L58647 51378
" />
<path d="M58782 51258
L58797 51243
L58827 51228
L58902 51228
L58932 51243
L58947 51258
L58962 51288
L58962 51318
L58947 51363
L58767 51543
L58962 51543
" />
<path d="M50532 50893
L50532 50578
L50607 50578
L50652 50593
L50682 50623
L50697 50653
L50712 50713
L50712 50758
L50697 50818
L50682 50848
L50652 50878
L50607 50893
L50532 50893
" />
<path d="M50832 50608
L50847 50593
L50877 50578
L50952 50578
L50982 50593
L50997 50608
L51012 50638
L51012 50668
L50997 50713
L50817 50893
L51012 50893
" />
<path d="M51147 50863
L51162 50878
L51147 50893
L51132 50878
L51147 50863
L51147 50893
" />
<path d="M51147 50698
L51162 50713
L51147 50728
L51132 50713
L51147 50698
L51147 50728
" />
<path d="M51267 50578
L51462 50578
L51357 50698
L51402 50698
L51432 50713
L51447 50728
L51462 50758
L51462 50833
L51447 50863
L51432 50878
L51402 50893
L51312 50893
L51282 50878
L51267 50863
" />
<path d="M43032 51543
L43032 51228
L43107 51228
L43152 51243
L43182 51273
L43197 51303
L43212 51363
L43212 51408
L43197 51468
L43182 51498
L43152 51528
L43107 51543
L43032 51543
" />
<path d="M43332 51258
L43347 51243
L43377 51228
L43452 51228
L43482 51243
L43497 51258
L43512 51288
L43512 51318
L43497 51363
L43317 51543
L43512 51543
" />
<path d="M43647 51513
L43662 51528
L43647 51543
L43632 51528
L43647 51513
L43647 51543
" />
<path d="M43647 51348
L43662 51363
L43647 51378
L43632 51363
L43647 51348
L43647 51378
" />
<path d="M43932 51333
L43932 51543
" />
<path d="M43857 51213
L43782 51438
L43977 51438
" />
<path d="M35532 51993
L35532 51678
L35607 51678
L35652 51693
L35682 51723
L35697 51753
L35712 51813
L35712 51858
L35697 51918
L35682 51948
L35652 51978
L35607 51993
L35532 51993
" />
<path d="M35832 51708
L35847 51693
L35877 51678
L35952 51678
L35982 51693
L35997 51708
L36012 51738
L36012 51768
L35997 51813
L35817 51993
L36012 51993
" />
<path d="M36147 51963
L36162 51978
L36147 51993
L36132 51978
L36147 51963
L36147 51993
" />
<path d="M36147 51798
L36162 51813
L36147 51828
L36132 51813
L36147 51798
L36147 51828
" />
<path d="M36447 51678
L36297 51678
L36282 51828
L36297 51813
L36327 51798
L36402 51798
L36432 51813
L36447 51828
L36462 51858
L36462 51933
L36447 51963
L36432 51978
L36402 51993
L36327 51993
L36297 51978
L36282 51963
" />
<path d="M32173 46707
L31858 46707
L31858 46632
L31873 46587
L31903 46557
L31933 46542
L31993 46527
L32038 46527
L32098 46542
L32128 46557
L32158 46587
L32173 46632
L32173 46707
" />
<path d="M31888 46407
L31873 46392
L31858 46362
L31858 46287
L31873 46257
L31888 46242
L31918 46227
L31948 46227
L31993 46242
L32173 46422
L32173 46227
" />
<path d="M32143 46092
L32158 46077
L32173 46092
L32158 46107
L32143 46092
L32173 46092
" />
<path d="M31978 46092
L31993 46077
L32008 46092
L31993 46107
L31978 46092
L32008 46092
" />
<path d="M31858 45807
L31858 45867
L31873 45897
L31888 45912
L31933 45942
L31993 45957
L32113 45957
L32143 45942
L32158 45927
L32173 45897
L32173 45837
L32158 45807
L32143 45792
L32113 45777
L32038 45777
L32008 45792
L31993 45807
L31978 45837
L31978 45897
L31993 45927
L32008 45942
L32038 45957
" />
<path d="M74932 45293
L74932 44978
L75007 44978
L75052 44993
L75082 45023
L75097 45053
L75112 45113
L75112 45158
L75097 45218
L75082 45248
L75052 45278
L75007 45293
L74932 45293
" />
<path d="M75217 44978
L75412 44978
L75307 45098
L75352 45098
L75382 45113
L75397 45128
L75412 45158
L75412 45233
L75397 45263
L75382 45278
L75352 45293
L75262 45293
L75232 45278
L75217 45263
" />
<path d="M75547 45263
L75562 45278
L75547 45293
L75532 45278
L75547 45263
L75547 45293
" />
<path d="M75547 45098
L75562 45113
L75547 45128
L75532 45113
L75547 45098
L75547 45128
" />
<path d="M75757 44978
L75787 44978
L75817 44993
L75832 45008
L75847 45038
L75862 45098
L75862 45173
L75847 45233
L75832 45263
L75817 45278
L75787 45293
L75757 45293
L75727 45278
L75712 45263
L75697 45233
L75682 45173
L75682 45098
L75697 45038
L75712 45008
L75727 44993
L75757 44978
" />
<path d="M65482 45193
L65482 44878
L65557 44878
L65602 44893
L65632 44923
L65647 44953
L65662 45013
L65662 45058
L65647 45118
L65632 45148
L65602 45178
L65557 45193
L65482 45193
" />
<path d="M65767 44878
L65962 44878
L65857 44998
L65902 44998
L65932 45013
L65947 45028
L65962 45058
L65962 45133
L65947 45163
L65932 45178
L65902 45193
L65812 45193
L65782 45178
L65767 45163
" />
<path d="M66097 45163
L66112 45178
L66097 45193
L66082 45178
L66097 45163
L66097 45193
" />
<path d="M66097 44998
L66112 45013
L66097 45028
L66082 45013
L66097 44998
L66097 45028
" />
<path d="M66412 45193
L66232 45193
" />
<path d="M66322 45193
L66322 44878
L66292 44923
L66262 44953
L66232 44968
" />
<path d="M58032 44043
L58032 43728
L58107 43728
L58152 43743
L58182 43773
L58197 43803
L58212 43863
L58212 43908
L58197 43968
L58182 43998
L58152 44028
L58107 44043
L58032 44043
" />
<path d="M58317 43728
L58512 43728
L58407 43848
L58452 43848
L58482 43863
L58497 43878
L58512 43908
L58512 43983
L58497 44013
L58482 44028
L58452 44043
L58362 44043
L58332 44028
L58317 44013
" />
<path d="M58647 44013
L58662 44028
L58647 44043
L58632 44028
L58647 44013
L58647 44043
" />
<path d="M58647 43848
L58662 43863
L58647 43878
L58632 43863
L58647 43848
L58647 43878
" />
<path d="M58782 43758
L58797 43743
L58827 43728
L58902 43728
L58932 43743
L58947 43758
L58962 43788
L58962 43818
L58947 43863
L58767 44043
L58962 44043
" />
<path d="M50532 43393
L50532 43078
L50607 43078
L50652 43093
L50682 43123
L50697 43153
L50712 43213
L50712 43258
L50697 43318
L50682 43348
L50652 43378
L50607 43393
L50532 43393
" />
<path d="M50817 43078
L51012 43078
L50907 43198
L50952 43198
L50982 43213
L50997 43228
L51012 43258
L51012 43333
L50997 43363
L50982 43378
L50952 43393
L50862 43393
L50832 43378
L50817 43363
" />
<path d="M51147 43363
L51162 43378
L51147 43393
L51132 43378
L51147 43363
L51147 43393
" />
<path d="M51147 43198
L51162 43213
L51147 43228
L51132 43213
L51147 43198
L51147 43228
" />
<path d="M51267 43078
L51462 43078
L51357 43198
L51402 43198
L51432 43213
L51447 43228
L51462 43258
L51462 43333
L51447 43363
L51432 43378
L51402 43393
L51312 43393
L51282 43378
L51267 43363
" />
<path d="M43082 44043
L43082 43728
L43157 43728
L43202 43743
L43232 43773
L43247 43803
L43262 43863
L43262 43908
L43247 43968
L43232 43998
L43202 44028
L43157 44043
L43082 44043
" />
<path d="M43367 43728
L43562 43728
L43457 43848
L43502 43848
L43532 43863
L43547 43878
L43562 43908
L43562 43983
L43547 44013
L43532 44028
L43502 44043
L43412 44043
L43382 44028
L43367 44013
" />
<path d="M43697 44013
L43712 44028
L43697 44043
L43682 44028
L43697 44013
L43697 44043
" />
<path d="M43697 43848
L43712 43863
L43697 43878
L43682 43863
L43697 43848
L43697 43878
" />
<path d="M43982 43833
L43982 44043
" />
<path d="M43907 43713
L43832 43938
L44027 43938
" />
<path d="M35532 44493
L35532 44178
L35607 44178
L35652 44193
L35682 44223
L35697 44253
L35712 44313
L35712 44358
L35697 44418
L35682 44448
L35652 44478
L35607 44493
L35532 44493
" />
<path d="M35817 44178
L36012 44178
L35907 44298
L35952 44298
L35982 44313
L35997 44328
L36012 44358
L36012 44433
L35997 44463
L35982 44478
L35952 44493
L35862 44493
L35832 44478
L35817 44463
" />
<path d="M36147 44463
L36162 44478
L36147 44493
L36132 44478
L36147 44463
L36147 44493
" />
<path d="M36147 44298
L36162 44313
L36147 44328
L36132 44313
L36147 44298
L36147 44328
" />
<path d="M36447 44178
L36297 44178
L36282 44328
L36297 44313
L36327 44298
L36402 44298
L36432 44313
L36447 44328
L36462 44358
L36462 44433
L36447 44463
L36432 44478
L36402 44493
L36327 44493
L36297 44478
L36282 44463
" />
<path d="M74872 37543
L74872 37228
L74947 37228
L74992 37243
L75022 37273
L75037 37303
L75052 37363
L75052 37408
L75037 37468
L75022 37498
L74992 37528
L74947 37543
L74872 37543
" />
<path d="M75322 37333
L75322 37543
" />
<path d="M75247 37213
L75172 37438
L75367 37438
" />
<path d="M75487 37513
L75502 37528
L75487 37543
L75472 37528
L75487 37513
L75487 37543
" />
<path d="M75487 37348
L75502 37363
L75487 37378
L75472 37363
L75487 37348
L75487 37378
" />
<path d="M75697 37228
L75727 37228
L75757 37243
L75772 37258
L75787 37288
L75802 37348
L75802 37423
L75787 37483
L75772 37513
L75757 37528
L75727 37543
L75697 37543
L75667 37528
L75652 37513
L75637 37483
L75622 37423
L75622 37348
L75637 37288
L75652 37258
L75667 37243
L75697 37228
" />
<path d="M65532 37743
L65532 37428
L65607 37428
L65652 37443
L65682 37473
L65697 37503
L65712 37563
L65712 37608
L65697 37668
L65682 37698
L65652 37728
L65607 37743
L65532 37743
" />
<path d="M65982 37533
L65982 37743
" />
<path d="M65907 37413
L65832 37638
L66027 37638
" />
<path d="M66147 37713
L66162 37728
L66147 37743
L66132 37728
L66147 37713
L66147 37743
" />
<path d="M66147 37548
L66162 37563
L66147 37578
L66132 37563
L66147 37548
L66147 37578
" />
<path d="M66462 37743
L66282 37743
" />
<path d="M66372 37743
L66372 37428
L66342 37473
L66312 37503
L66282 37518
" />
<path d="M58082 36543
L58082 36228
L58157 36228
L58202 36243
L58232 36273
L58247 36303
L58262 36363
L58262 36408
L58247 36468
L58232 36498
L58202 36528
L58157 36543
L58082 36543
" />
<path d="M58532 36333
L58532 36543
" />
<path d="M58457 36213
L58382 36438
L58577 36438
" />
<path d="M58697 36513
L58712 36528
L58697 36543
L58682 36528
L58697 36513
L58697 36543
" />
<path d="M58697 36348
L58712 36363
L58697 36378
L58682 36363
L58697 36348
L58697 36378
" />
<path d="M58832 36258
L58847 36243
L58877 36228
L58952 36228
L58982 36243
L58997 36258
L59012 36288
L59012 36318
L58997 36363
L58817 36543
L59012 36543
" />
<path d="M50482 35893
L50482 35578
L50557 35578
L50602 35593
L50632 35623
L50647 35653
L50662 35713
L50662 35758
L50647 35818
L50632 35848
L50602 35878
L50557 35893
L50482 35893
" />
<path d="M50932 35683
L50932 35893
" />
<path d="M50857 35563
L50782 35788
L50977 35788
" />
<path d="M51097 35863
L51112 35878
L51097 35893
L51082 35878
L51097 35863
L51097 35893
" />
<path d="M51097 35698
L51112 35713
L51097 35728
L51082 35713
L51097 35698
L51097 35728
" />
<path d="M51217 35578
L51412 35578
L51307 35698
L51352 35698
L51382 35713
L51397 35728
L51412 35758
L51412 35833
L51397 35863
L51382 35878
L51352 35893
L51262 35893
L51232 35878
L51217 35863
" />
<path d="M43032 36493
L43032 36178
L43107 36178
L43152 36193
L43182 36223
L43197 36253
L43212 36313
L43212 36358
L43197 36418
L43182 36448
L43152 36478
L43107 36493
L43032 36493
" />
<path d="M43482 36283
L43482 36493
" />
<path d="M43407 36163
L43332 36388
L43527 36388
" />
<path d="M43647 36463
L43662 36478
L43647 36493
L43632 36478
L43647 36463
L43647 36493
" />
<path d="M43647 36298
L43662 36313
L43647 36328
L43632 36313
L43647 36298
L43647 36328
" />
<path d="M43932 36283
L43932 36493
" />
<path d="M43857 36163
L43782 36388
L43977 36388
" />
<path d="M35532 37043
L35532 36728
L35607 36728
L35652 36743
L35682 36773
L35697 36803
L35712 36863
L35712 36908
L35697 36968
L35682 36998
L35652 37028
L35607 37043
L35532 37043
" />
<path d="M35982 36833
L35982 37043
" />
<path d="M35907 36713
L35832 36938
L36027 36938
" />
<path d="M36147 37013
L36162 37028
L36147 37043
L36132 37028
L36147 37013
L36147 37043
" />
<path d="M36147 36848
L36162 36863
L36147 36878
L36132 36863
L36147 36848
L36147 36878
" />
<path d="M36447 36728
L36297 36728
L36282 36878
L36297 36863
L36327 36848
L36402 36848
L36432 36863
L36447 36878
L36462 36908
L36462 36983
L36447 37013
L36432 37028
L36402 37043
L36327 37043
L36297 37028
L36282 37013
" />
<path d="M32193 35427
L31878 35427
L31878 35352
L31893 35307
L31923 35277
L31953 35262
L32013 35247
L32058 35247
L32118 35262
L32148 35277
L32178 35307
L32193 35352
L32193 35427
" />
<path d="M31983 34977
L32193 34977
" />
<path d="M31863 35052
L32088 35127
L32088 34932
" />
<path d="M32163 34812
L32178 34797
L32193 34812
L32178 34827
L32163 34812
L32193 34812
" />
<path d="M31998 34812
L32013 34797
L32028 34812
L32013 34827
L31998 34812
L32028 34812
" />
<path d="M31878 34527
L31878 34587
L31893 34617
L31908 34632
L31953 34662
L32013 34677
L32133 34677
L32163 34662
L32178 34647
L32193 34617
L32193 34557
L32178 34527
L32163 34512
L32133 34497
L32058 34497
L32028 34512
L32013 34527
L31998 34557
L31998 34617
L32013 34647
L32028 34662
L32058 34677
" />
<path d="M74882 30293
L74882 29978
L74957 29978
L75002 29993
L75032 30023
L75047 30053
L75062 30113
L75062 30158
L75047 30218
L75032 30248
L75002 30278
L74957 30293
L74882 30293
" />
<path d="M75347 29978
L75197 29978
L75182 30128
L75197 30113
L75227 30098
L75302 30098
L75332 30113
L75347 30128
L75362 30158
L75362 30233
L75347 30263
L75332 30278
L75302 30293
L75227 30293
L75197 30278
L75182 30263
" />
<path d="M75497 30263
L75512 30278
L75497 30293
L75482 30278
L75497 30263
L75497 30293
" />
<path d="M75497 30098
L75512 30113
L75497 30128
L75482 30113
L75497 30098
L75497 30128
" />
<path d="M75707 29978
L75737 29978
L75767 29993
L75782 30008
L75797 30038
L75812 30098
L75812 30173
L75797 30233
L75782 30263
L75767 30278
L75737 30293
L75707 30293
L75677 30278
L75662 30263
L75647 30233
L75632 30173
L75632 30098
L75647 30038
L75662 30008
L75677 29993
L75707 29978
" />
<path d="M65482 30193
L65482 29878
L65557 29878
L65602 29893
L65632 29923
L65647 29953
L65662 30013
L65662 30058
L65647 30118
L65632 30148
L65602 30178
L65557 30193
L65482 30193
" />
<path d="M65947 29878
L65797 29878
L65782 30028
L65797 30013
L65827 29998
L65902 29998
L65932 30013
L65947 30028
L65962 30058
L65962 30133
L65947 30163
L65932 30178
L65902 30193
L65827 30193
L65797 30178
L65782 30163
" />
<path d="M66097 30163
L66112 30178
L66097 30193
L66082 30178
L66097 30163
L66097 30193
" />
<path d="M66097 29998
L66112 30013
L66097 30028
L66082 30013
L66097 29998
L66097 30028
" />
<path d="M66412 30193
L66232 30193
" />
<path d="M66322 30193
L66322 29878
L66292 29923
L66262 29953
L66232 29968
" />
<path d="M58032 28993
L58032 28678
L58107 28678
L58152 28693
L58182 28723
L58197 28753
L58212 28813
L58212 28858
L58197 28918
L58182 28948
L58152 28978
L58107 28993
L58032 28993
" />
<path d="M58497 28678
L58347 28678
L58332 28828
L58347 28813
L58377 28798
L58452 28798
L58482 28813
L58497 28828
L58512 28858
L58512 28933
L58497 28963
L58482 28978
L58452 28993
L58377 28993
L58347 28978
L58332 28963
" />
<path d="M58647 28963
L58662 28978
L58647 28993
L58632 28978
L58647 28963
L58647 28993
" />
<path d="M58647 28798
L58662 28813
L58647 28828
L58632 28813
L58647 28798
L58647 28828
" />
<path d="M58782 28708
L58797 28693
L58827 28678
L58902 28678
L58932 28693
L58947 28708
L58962 28738
L58962 28768
L58947 28813
L58767 28993
L58962 28993
" />
<path d="M50532 28393
L50532 28078
L50607 28078
L50652 28093
L50682 28123
L50697 28153
L50712 28213
L50712 28258
L50697 28318
L50682 28348
L50652 28378
L50607 28393
L50532 28393
" />
<path d="M50997 28078
L50847 28078
L50832 28228
L50847 28213
L50877 28198
L50952 28198
L50982 28213
L50997 28228
L51012 28258
L51012 28333
L50997 28363
L50982 28378
L50952 28393
L50877 28393
L50847 28378
L50832 28363
" />
<path d="M51147 28363
L51162 28378
L51147 28393
L51132 28378
L51147 28363
L51147 28393
" />
<path d="M51147 28198
L51162 28213
L51147 28228
L51132 28213
L51147 28198
L51147 28228
" />
<path d="M51267 28078
L51462 28078
L51357 28198
L51402 28198
L51432 28213
L51447 28228
L51462 28258
L51462 28333
L51447 28363
L51432 28378
L51402 28393
L51312 28393
L51282 28378
L51267 28363
" />
<path d="M42982 28993
L42982 28678
L43057 28678
L43102 28693
L43132 28723
L43147 28753
L43162 28813
L43162 28858
L43147 28918
L43132 28948
L43102 28978
L43057 28993
L42982 28993
" />
<path d="M43447 28678
L43297 28678
L43282 28828
L43297 28813
L43327 28798
L43402 28798
L43432 28813
L43447 28828
L43462 28858
L43462 28933
L43447 28963
L43432 28978
L43402 28993
L43327 28993
L43297 28978
L43282 28963
" />
<path d="M43597 28963
L43612 28978
L43597 28993
L43582 28978
L43597 28963
L43597 28993
" />
<path d="M43597 28798
L43612 28813
L43597 28828
L43582 28813
L43597 28798
L43597 28828
" />
<path d="M43882 28783
L43882 28993
" />
<path d="M43807 28663
L43732 28888
L43927 28888
" />
<path d="M35532 29543
L35532 29228
L35607 29228
L35652 29243
L35682 29273
L35697 29303
L35712 29363
L35712 29408
L35697 29468
L35682 29498
L35652 29528
L35607 29543
L35532 29543
" />
<path d="M35997 29228
L35847 29228
L35832 29378
L35847 29363
L35877 29348
L35952 29348
L35982 29363
L35997 29378
L36012 29408
L36012 29483
L35997 29513
L35982 29528
L35952 29543
L35877 29543
L35847 29528
L35832 29513
" />
<path d="M36147 29513
L36162 29528
L36147 29543
L36132 29528
L36147 29513
L36147 29543
" />
<path d="M36147 29348
L36162 29363
L36147 29378
L36132 29363
L36147 29348
L36147 29378
" />
<path d="M36447 29228
L36297 29228
L36282 29378
L36297 29363
L36327 29348
L36402 29348
L36432 29363
L36447 29378
L36462 29408
L36462 29483
L36447 29513
L36432 29528
L36402 29543
L36327 29543
L36297 29528
L36282 29513
" />
<path d="M28032 29243
L28032 28928
L28107 28928
L28152 28943
L28182 28973
L28197 29003
L28212 29063
L28212 29108
L28197 29168
L28182 29198
L28152 29228
L28107 29243
L28032 29243
" />
<path d="M28497 28928
L28347 28928
L28332 29078
L28347 29063
L28377 29048
L28452 29048
L28482 29063
L28497 29078
L28512 29108
L28512 29183
L28497 29213
L28482 29228
L28452 29243
L28377 29243
L28347 29228
L28332 29213
" />
<path d="M28647 29213
L28662 29228
L28647 29243
L28632 29228
L28647 29213
L28647 29243
" />
<path d="M28647 29048
L28662 29063
L28647 29078
L28632 29063
L28647 29048
L28647 29078
" />
<path d="M28932 28928
L28872 28928
L28842 28943
L28827 28958
L28797 29003
L28782 29063
L28782 29183
L28797 29213
L28812 29228
L28842 29243
L28902 29243
L28932 29228
L28947 29213
L28962 29183
L28962 29108
L28947 29078
L28932 29063
L28902 29048
L28842 29048
L28812 29063
L28797 29078
L28782 29108
" />
<path d="M58090 14571
L57985 14421
" />
<path d="M57910 14571
L57910 14256
L58030 14256
L58060 14271
L58075 14286
L58090 14316
L58090 14361
L58075 14391
L58060 14406
L58030 14421
L57910 14421
" />
<path d="M58150 14601
L58390 14601
" />
<path d="M58600 14556
L58570 14571
L58510 14571
L58480 14556
L58465 14541
L58450 14511
L58450 14421
L58465 14391
L58480 14376
L58510 14361
L58570 14361
L58600 14376
" />
<path d="M58870 14556
L58840 14571
L58780 14571
L58750 14556
L58735 14541
L58720 14511
L58720 14421
L58735 14391
L58750 14376
L58780 14361
L58840 14361
L58870 14376
" />
<path d="M59170 14571
L58990 14571
" />
<path d="M59080 14571
L59080 14256
L59050 14301
L59020 14331
L58990 14346
" />
<path d="M49737 13231
L49632 13081
" />
<path d="M49557 13231
L49557 12916
L49677 12916
L49707 12931
L49722 12946
L49737 12976
L49737 13021
L49722 13051
L49707 13066
L49677 13081
L49557 13081
" />
<path d="M49797 13261
L50037 13261
" />
<path d="M50247 13216
L50217 13231
L50157 13231
L50127 13216
L50112 13201
L50097 13171
L50097 13081
L50112 13051
L50127 13036
L50157 13021
L50217 13021
L50247 13036
" />
<path d="M50517 13216
L50487 13231
L50427 13231
L50397 13216
L50382 13201
L50367 13171
L50367 13081
L50382 13051
L50397 13036
L50427 13021
L50487 13021
L50517 13036
" />
<path d="M50637 12946
L50652 12931
L50682 12916
L50757 12916
L50787 12931
L50802 12946
L50817 12976
L50817 13006
L50802 13051
L50622 13231
L50817 13231
" />
<path d="M81907 14837
L81907 15118
L81889 15174
L81851 15212
L81795 15231
L81757 15231
" />
<path d="M82001 15268
L82301 15268
" />
<path d="M82395 14837
L82395 15156
L82414 15193
L82432 15212
L82470 15231
L82545 15231
L82582 15212
L82601 15193
L82620 15156
L82620 14837
" />
<path d="M82788 15212
L82845 15231
L82938 15231
L82976 15212
L82995 15193
L83013 15156
L83013 15118
L82995 15081
L82976 15062
L82938 15043
L82863 15024
L82826 15006
L82807 14987
L82788 14949
L82788 14912
L82807 14874
L82826 14856
L82863 14837
L82957 14837
L83013 14856
" />
<path d="M83313 15024
L83370 15043
L83388 15062
L83407 15099
L83407 15156
L83388 15193
L83370 15212
L83332 15231
L83182 15231
L83182 14837
L83313 14837
L83351 14856
L83370 14874
L83388 14912
L83388 14949
L83370 14987
L83351 15006
L83313 15024
L83182 15024
" />
<path d="M83482 15268
L83782 15268
" />
<path d="M83876 15231
L83876 14837
L84026 14837
L84063 14856
L84082 14874
L84101 14912
L84101 14968
L84082 15006
L84063 15024
L84026 15043
L83876 15043
" />
<path d="M84251 15118
L84438 15118
" />
<path d="M84213 15231
L84345 14837
L84476 15231
" />
<path d="M84607 15231
L84607 14837
L84701 14837
L84757 14856
L84794 14893
L84813 14931
L84832 15006
L84832 15062
L84813 15137
L84794 15174
L84757 15212
L84701 15231
L84607 15231
" />
<path d="M85207 15231
L84982 15231
" />
<path d="M85094 15231
L85094 14837
L85057 14893
L85019 14931
L84982 14949
" />
<path d="M35833 16066
L36114 16066
L36171 16085
L36208 16122
L36227 16178
L36227 16216
" />
<path d="M36264 15972
L36264 15672
" />
<path d="M36114 15597
L36114 15410
" />
<path d="M36227 15635
L35833 15504
L36227 15372
" />
<path d="M35964 15072
L36227 15072
" />
<path d="M35964 15241
L36171 15241
L36208 15222
L36227 15185
L36227 15129
L36208 15091
L36189 15072
" />
<path d="M36227 14716
L35833 14716
" />
<path d="M36208 14716
L36227 14754
L36227 14829
L36208 14866
L36189 14885
L36152 14904
L36039 14904
L36002 14885
L35983 14866
L35964 14829
L35964 14754
L35983 14716
" />
<path d="M36227 14529
L35964 14529
" />
<path d="M35833 14529
L35852 14547
L35871 14529
L35852 14510
L35833 14529
L35871 14529
" />
<path d="M36227 14285
L36208 14322
L36189 14341
L36152 14360
L36039 14360
L36002 14341
L35983 14322
L35964 14285
L35964 14229
L35983 14191
L36002 14172
L36039 14154
L36152 14154
L36189 14172
L36208 14191
L36227 14229
L36227 14285
" />
<path d="M36264 14079
L36264 13779
" />
<path d="M36021 13554
L36039 13498
L36058 13479
L36096 13460
L36152 13460
L36189 13479
L36208 13498
L36227 13535
L36227 13685
L35833 13685
L35833 13554
L35852 13516
L35871 13498
L35908 13479
L35946 13479
L35983 13498
L36002 13516
L36021 13554
L36021 13685
" />
<path d="M36227 13085
L36227 13310
" />
<path d="M36227 13198
L35833 13198
L35889 13235
L35927 13273
L35946 13310
" />
<path d="M71472 28137
L71753 28137
L71810 28156
L71847 28193
L71866 28249
L71866 28287
" />
<path d="M71903 28043
L71903 27743
" />
<path d="M71828 27424
L71847 27443
L71866 27499
L71866 27537
L71847 27593
L71810 27631
L71772 27649
L71697 27668
L71641 27668
L71566 27649
L71528 27631
L71491 27593
L71472 27537
L71472 27499
L71491 27443
L71510 27424
" />
<path d="M71866 27031
L71678 27162
" />
<path d="M71866 27256
L71472 27256
L71472 27106
L71491 27068
L71510 27049
L71547 27031
L71603 27031
L71641 27049
L71660 27068
L71678 27106
L71678 27256
" />
<path d="M71510 26881
L71491 26862
L71472 26825
L71472 26731
L71491 26693
L71510 26675
L71547 26656
L71585 26656
L71641 26675
L71866 26900
L71866 26656
" />
<path d="M71472 26412
L71472 26375
L71491 26337
L71510 26318
L71547 26300
L71622 26281
L71716 26281
L71791 26300
L71828 26318
L71847 26337
L71866 26375
L71866 26412
L71847 26450
L71828 26468
L71791 26487
L71716 26506
L71622 26506
L71547 26487
L71510 26468
L71491 26450
L71472 26412
" />
<path d="M71472 26150
L71472 25906
L71622 26037
L71622 25981
L71641 25943
L71660 25925
L71697 25906
L71791 25906
L71828 25925
L71847 25943
L71866 25981
L71866 26093
L71847 26131
L71828 26150
" />
<path d="M71510 25756
L71491 25737
L71472 25700
L71472 25606
L71491 25568
L71510 25550
L71547 25531
L71585 25531
L71641 25550
L71866 25775
L71866 25531
" />
<path d="M47864 17439
L47549 17439
L47549 17364
L47564 17319
L47594 17289
L47624 17274
L47684 17259
L47729 17259
L47789 17274
L47819 17289
L47849 17319
L47864 17364
L47864 17439
" />
<path d="M47894 17199
L47894 16959
" />
<path d="M47864 16704
L47714 16809
" />
<path d="M47864 16884
L47549 16884
L47549 16764
L47564 16734
L47579 16719
L47609 16704
L47654 16704
L47684 16719
L47699 16734
L47714 16764
L47714 16884
" />
<path d="M47774 16585
L47774 16435
" />
<path d="M47864 16615
L47549 16510
L47864 16405
" />
<path d="M47549 16330
L47864 16255
L47639 16195
L47864 16135
L47549 16060
" />
<path d="M47864 15775
L47864 15955
" />
<path d="M47864 15865
L47549 15865
L47594 15895
L47624 15925
L47639 15955
" />
<path d="M45054 17852
L44739 17852
L44739 17777
L44754 17732
L44784 17702
L44814 17687
L44874 17672
L44919 17672
L44979 17687
L45009 17702
L45039 17732
L45054 17777
L45054 17852
" />
<path d="M45084 17612
L45084 17372
" />
<path d="M44739 17297
L44994 17297
L45024 17282
L45039 17267
L45054 17237
L45054 17177
L45039 17147
L45024 17132
L44994 17117
L44739 17117
" />
<path d="M45039 16982
L45054 16937
L45054 16862
L45039 16832
L45024 16817
L44994 16802
L44964 16802
L44934 16817
L44919 16832
L44904 16862
L44889 16922
L44874 16952
L44859 16967
L44829 16982
L44799 16982
L44769 16967
L44754 16952
L44739 16922
L44739 16847
L44754 16802
" />
<path d="M44889 16562
L44904 16517
L44919 16502
L44949 16487
L44994 16487
L45024 16502
L45039 16517
L45054 16547
L45054 16667
L44739 16667
L44739 16562
L44754 16532
L44769 16517
L44799 16502
L44829 16502
L44859 16517
L44874 16532
L44889 16562
L44889 16667
" />
<path d="M45084 16427
L45084 16187
" />
<path d="M45054 16112
L44739 16112
" />
<path d="M44889 16112
L44889 15933
" />
<path d="M45054 15933
L44739 15933
" />
<path d="M44889 15783
L44889 15678
" />
<path d="M45054 15633
L45054 15783
L44739 15783
L44739 15633
" />
<path d="M44964 15513
L44964 15363
" />
<path d="M45054 15543
L44739 15438
L45054 15333
" />
<path d="M45054 15228
L44739 15228
L44739 15153
L44754 15108
L44784 15078
L44814 15063
L44874 15048
L44919 15048
L44979 15063
L45009 15078
L45039 15108
L45054 15153
L45054 15228
" />
<path d="M44889 14913
L44889 14808
" />
<path d="M45054 14763
L45054 14913
L44739 14913
L44739 14763
" />
<path d="M45054 14448
L44904 14553
" />
<path d="M45054 14628
L44739 14628
L44739 14508
L44754 14478
L44769 14463
L44799 14448
L44844 14448
L44874 14463
L44889 14478
L44904 14508
L44904 14628
" />
<path d="M45054 14148
L45054 14328
" />
<path d="M45054 14238
L44739 14238
L44784 14268
L44814 14298
L44829 14328
" />
<path d="M78429 19949
L78710 19949
L78766 19967
L78804 20005
L78822 20061
L78822 20099
" />
<path d="M78860 19855
L78860 19555
" />
<path d="M78860 19555
L78860 19255
" />
<path d="M78429 19161
L78747 19161
L78785 19143
L78804 19124
L78822 19086
L78822 19011
L78804 18974
L78785 18955
L78747 18936
L78429 18936
" />
<path d="M78804 18768
L78822 18711
L78822 18618
L78804 18580
L78785 18561
L78747 18543
L78710 18543
L78672 18561
L78654 18580
L78635 18618
L78616 18693
L78597 18730
L78579 18749
L78541 18768
L78504 18768
L78466 18749
L78447 18730
L78429 18693
L78429 18599
L78447 18543
" />
<path d="M78616 18243
L78635 18186
L78654 18168
L78691 18149
L78747 18149
L78785 18168
L78804 18186
L78822 18224
L78822 18374
L78429 18374
L78429 18243
L78447 18205
L78466 18186
L78504 18168
L78541 18168
L78579 18186
L78597 18205
L78616 18243
L78616 18374
" />
<path d="M78860 18074
L78860 17774
" />
<path d="M78429 17736
L78822 17605
L78429 17474
" />
<path d="M78785 17118
L78804 17137
L78822 17193
L78822 17230
L78804 17286
L78766 17324
L78729 17343
L78654 17361
L78597 17361
L78522 17343
L78485 17324
L78447 17286
L78429 17230
L78429 17193
L78447 17137
L78466 17118
" />
<path d="M78785 16724
L78804 16743
L78822 16799
L78822 16837
L78804 16893
L78766 16930
L78729 16949
L78654 16968
L78597 16968
L78522 16949
L78485 16930
L78447 16893
L78429 16837
L78429 16799
L78447 16743
L78466 16724
" />
<path d="M78822 16349
L78822 16574
" />
<path d="M78822 16462
L78429 16462
L78485 16499
L78522 16537
L78541 16574
" />
<path d="M56960 16498
L56960 16816
L56979 16854
L56998 16873
L57035 16891
L57110 16891
L57148 16873
L57166 16854
L57185 16816
L57185 16498
" />
<path d="M57279 16929
L57579 16929
" />
<path d="M57673 16685
L57804 16685
" />
<path d="M57860 16891
L57673 16891
L57673 16498
L57860 16498
" />
<path d="M58010 16873
L58066 16891
L58160 16891
L58197 16873
L58216 16854
L58235 16816
L58235 16779
L58216 16741
L58197 16723
L58160 16704
L58085 16685
L58047 16666
L58029 16648
L58010 16610
L58010 16573
L58029 16535
L58047 16516
L58085 16498
L58179 16498
L58235 16516
" />
<path d="M58404 16891
L58404 16498
L58497 16498
L58554 16516
L58591 16554
L58610 16591
L58629 16666
L58629 16723
L58610 16798
L58591 16835
L58554 16873
L58497 16891
L58404 16891
" />
<path d="M59004 16891
L58779 16891
" />
<path d="M58891 16891
L58891 16498
L58854 16554
L58816 16591
L58779 16610
" />
</g> 
</svg>
