<?xml version="1.0" standalone="no"?>
 <!DOCTYPE svg PUBLIC "-//W3C//DTD SVG 1.1//EN" 
 "http://www.w3.org/Graphics/SVG/1.1/DTD/svg11.dtd"> 
<svg xmlns="http://www.w3.org/2000/svg" version="1.1" 
    width="29.7002cm" height="21.0007cm" viewBox="0 0 116930 82680 ">
<title>SVG Picture created as ErgodoxBle-Edge.Cuts.svg date 2019/04/21 14:06:36 </title>
  <desc>Picture generated by PCBNEW </desc>
<g style="fill:#000000; fill-opacity:1;stroke:#000000; stroke-opacity:1;
stroke-linecap:round; stroke-linejoin:round; "
 transform="translate(0 0) scale(1 1)">
</g>
<g style="fill:#000000; fill-opacity:0.0; 
stroke:#000000; stroke-width:-0.000393701; stroke-opacity:1; 
stroke-linecap:round; stroke-linejoin:round;">
</g>
<g style="fill:#000000; fill-opacity:0.0; 
stroke:#000000; stroke-width:150; stroke-opacity:1; 
stroke-linecap:round; stroke-linejoin:round;">
<path d="M32750 12020
L32180 12700
" />
<path d="M30670 12700
L32170 12700
" />
<path d="M35760 12700
L35180 12020
" />
<path d="M37420 12700
L35760 12700
" />
<path d="M32760 12020
L35170 12020
" />
<path d="M81070 13940
L79820 12700
" />
<path d="M50060 60200
L77320 60200
" />
<path d="M77320 60200
L81070 56450
" />
<path d="M81070 56450
L81070 13950
" />
<path d="M79820 12700
L56460 12700
" />
<path d="M56460 12700
L56460 12000
" />
<path d="M56460 12000
L51930 12000
" />
<path d="M51930 12000
L51930 12700
" />
<path d="M51930 12700
L37420 12700
" />
<path d="M30660 12700
L25910 12700
" />
<path d="M25910 12700
L24650 13950
" />
<path d="M24650 13950
L24650 47900
" />
<path d="M24650 47900
L22720 47900
" />
<path d="M22720 47900
L9692 53975
" />
<path d="M9692 53975
L9087 55636
" />
<path d="M9087 55636
L17624 73944
" />
<path d="M17624 73944
L19285 74548
" />
<path d="M19285 74548
L50060 60200
" />
</g> 
</svg>
