<?xml version="1.0" standalone="no"?>
 <!DOCTYPE svg PUBLIC "-//W3C//DTD SVG 1.1//EN" 
 "http://www.w3.org/Graphics/SVG/1.1/DTD/svg11.dtd"> 
<svg xmlns="http://www.w3.org/2000/svg" version="1.1" 
    width="29.7002cm" height="21.0007cm" viewBox="0 0 116930 82680 ">
<title>SVG Picture created as ErgodoxBle-Dwgs.User.svg date 2019/04/21 14:06:36 </title>
  <desc>Picture generated by PCBNEW </desc>
<g style="fill:#000000; fill-opacity:1;stroke:#000000; stroke-opacity:1;
stroke-linecap:round; stroke-linejoin:round; "
 transform="translate(0 0) scale(1 1)">
</g>
<g style="fill:#000000; fill-opacity:0.0; 
stroke:#000000; stroke-width:-0.000393701; stroke-opacity:1; 
stroke-linecap:round; stroke-linejoin:round;">
</g>
<g style="fill:#000000; fill-opacity:0.0; 
stroke:#000000; stroke-width:150; stroke-opacity:1; 
stroke-linecap:round; stroke-linejoin:round;">
<path d="M32750 12020
L32180 12700
" />
<path d="M30670 12700
L32170 12700
" />
<path d="M35760 12700
L35180 12020
" />
<path d="M37420 12700
L35760 12700
" />
<path d="M32760 12020
L35170 12020
" />
<path d="M81070 13940
L79820 12700
" />
<path d="M50060 60200
L77320 60200
" />
<path d="M77320 60200
L81070 56450
" />
<path d="M81070 56450
L81070 13950
" />
<path d="M79820 12700
L56460 12700
" />
<path d="M56460 12700
L56460 12000
" />
<path d="M56460 12000
L51930 12000
" />
<path d="M51930 12000
L51930 12700
" />
<path d="M51930 12700
L37420 12700
" />
<path d="M30660 12700
L25910 12700
" />
<path d="M25910 12700
L24650 13950
" />
<path d="M24650 13950
L24650 47900
" />
<path d="M24650 47900
L22720 47900
" />
<path d="M22720 47900
L9692 53975
" />
<path d="M9692 53975
L9087 55636
" />
<path d="M9087 55636
L17624 73944
" />
<path d="M17624 73944
L19285 74548
" />
<path d="M19285 74548
L50060 60200
" />
</g>
<g style="fill:#000000; fill-opacity:0.0; 
stroke:#000000; stroke-width:78.7402; stroke-opacity:1; 
stroke-linecap:round; stroke-linejoin:round;">
<path d="M76405 17817
L76405 14917
" />
<path d="M76405 14917
L78405 14917
" />
<path d="M78405 14917
L78405 17817
" />
<path d="M78405 17817
L76405 17817
" />
</g>
<g style="fill:#000000; fill-opacity:0.0; 
stroke:#000000; stroke-width:59.0551; stroke-opacity:1; 
stroke-linecap:round; stroke-linejoin:round;">
<path d="M55923 14379
L52404 14379
" />
<path d="M52404 11505
L52404 14379
" />
<path d="M55923 11505
L55923 14379
" />
<path d="M55923 11505
L52404 11505
" />
</g>
<g style="fill:#000000; fill-opacity:0.0; 
stroke:#000000; stroke-width:60; stroke-opacity:1; 
stroke-linecap:round; stroke-linejoin:round;">
<path d="M71675 37679
L79075 37679
" />
<path d="M79075 37679
L79075 45079
" />
<path d="M79075 45079
L71675 45079
" />
<path d="M71675 45079
L71675 37679
" />
<path d="M71675 45179
L79075 45179
" />
<path d="M79075 45179
L79075 52579
" />
<path d="M79075 52579
L71675 52579
" />
<path d="M71675 52579
L71675 45179
" />
<path d="M8743 54615
L15450 51487
" />
<path d="M15450 51487
L18578 58194
" />
<path d="M18578 58194
L11871 61322
" />
<path d="M11871 61322
L8743 54615
" />
<path d="M15540 51446
L22247 48318
" />
<path d="M22247 48318
L25375 55025
" />
<path d="M25375 55025
L18668 58153
" />
<path d="M18668 58153
L15540 51446
" />
<path d="M15040 68119
L11912 61412
" />
<path d="M21747 64991
L15040 68119
" />
<path d="M18619 58284
L21747 64991
" />
<path d="M11912 61412
L18619 58284
" />
<path d="M36926 62051
L30219 65179
" />
<path d="M33798 55344
L36926 62051
" />
<path d="M27091 58472
L33798 55344
" />
<path d="M30219 65179
L27091 58472
" />
<path d="M23422 68349
L20294 61642
" />
<path d="M20294 61642
L27001 58514
" />
<path d="M27001 58514
L30129 65221
" />
<path d="M30129 65221
L23422 68349
" />
<path d="M18210 74917
L15082 68210
" />
<path d="M24917 71789
L18210 74917
" />
<path d="M21789 65082
L24917 71789
" />
<path d="M15082 68210
L21789 65082
" />
<path d="M39800 51429
L47200 51429
" />
<path d="M47200 51429
L47200 58829
" />
<path d="M47200 58829
L39800 58829
" />
<path d="M39800 58829
L39800 51429
" />
<path d="M47300 58200
L47300 50800
" />
<path d="M54700 58200
L47300 58200
" />
<path d="M54700 50800
L54700 58200
" />
<path d="M47300 50800
L54700 50800
" />
<path d="M54800 51429
L62200 51429
" />
<path d="M62200 51429
L62200 58829
" />
<path d="M62200 58829
L54800 58829
" />
<path d="M54800 58829
L54800 51429
" />
<path d="M62300 60079
L62300 52679
" />
<path d="M69700 60079
L62300 60079
" />
<path d="M69700 52679
L69700 60079
" />
<path d="M62300 52679
L69700 52679
" />
<path d="M69800 60079
L69800 52679
" />
<path d="M77200 60079
L69800 60079
" />
<path d="M77200 52679
L77200 60079
" />
<path d="M69800 52679
L77200 52679
" />
<path d="M32200 49954
L24800 49954
" />
<path d="M32200 42554
L32200 49954
" />
<path d="M24800 42554
L32200 42554
" />
<path d="M24800 49954
L24800 42554
" />
<path d="M32300 51829
L32300 44429
" />
<path d="M39700 51829
L32300 51829
" />
<path d="M39700 44429
L39700 51829
" />
<path d="M32300 44429
L39700 44429
" />
<path d="M39800 43929
L47200 43929
" />
<path d="M47200 43929
L47200 51329
" />
<path d="M47200 51329
L39800 51329
" />
<path d="M39800 51329
L39800 43929
" />
<path d="M47300 50700
L47300 43300
" />
<path d="M54700 50700
L47300 50700
" />
<path d="M54700 43300
L54700 50700
" />
<path d="M47300 43300
L54700 43300
" />
<path d="M54800 51329
L54800 43929
" />
<path d="M62200 51329
L54800 51329
" />
<path d="M62200 43929
L62200 51329
" />
<path d="M54800 43929
L62200 43929
" />
<path d="M62300 52579
L62300 45179
" />
<path d="M69700 52579
L62300 52579
" />
<path d="M69700 45179
L69700 52579
" />
<path d="M62300 45179
L69700 45179
" />
<path d="M32300 36929
L39700 36929
" />
<path d="M39700 36929
L39700 44329
" />
<path d="M39700 44329
L32300 44329
" />
<path d="M32300 44329
L32300 36929
" />
<path d="M39800 36429
L47200 36429
" />
<path d="M47200 36429
L47200 43829
" />
<path d="M47200 43829
L39800 43829
" />
<path d="M39800 43829
L39800 36429
" />
<path d="M47300 35800
L54700 35800
" />
<path d="M54700 35800
L54700 43200
" />
<path d="M54700 43200
L47300 43200
" />
<path d="M47300 43200
L47300 35800
" />
<path d="M54800 43829
L54800 36429
" />
<path d="M62200 43829
L54800 43829
" />
<path d="M62200 36429
L62200 43829
" />
<path d="M54800 36429
L62200 36429
" />
<path d="M62300 37679
L69700 37679
" />
<path d="M69700 37679
L69700 45079
" />
<path d="M69700 45079
L62300 45079
" />
<path d="M62300 45079
L62300 37679
" />
<path d="M32200 38704
L24800 38704
" />
<path d="M32200 31304
L32200 38704
" />
<path d="M24800 31304
L32200 31304
" />
<path d="M24800 38704
L24800 31304
" />
<path d="M32300 29429
L39700 29429
" />
<path d="M39700 29429
L39700 36829
" />
<path d="M39700 36829
L32300 36829
" />
<path d="M32300 36829
L32300 29429
" />
<path d="M39800 36329
L39800 28929
" />
<path d="M47200 36329
L39800 36329
" />
<path d="M47200 28929
L47200 36329
" />
<path d="M39800 28929
L47200 28929
" />
<path d="M47300 35700
L47300 28300
" />
<path d="M54700 35700
L47300 35700
" />
<path d="M54700 28300
L54700 35700
" />
<path d="M47300 28300
L54700 28300
" />
<path d="M54800 28929
L62200 28929
" />
<path d="M62200 28929
L62200 36329
" />
<path d="M62200 36329
L54800 36329
" />
<path d="M54800 36329
L54800 28929
" />
<path d="M62300 37579
L62300 30179
" />
<path d="M69700 37579
L62300 37579
" />
<path d="M69700 30179
L69700 37579
" />
<path d="M62300 30179
L69700 30179
" />
<path d="M71675 37579
L71675 30179
" />
<path d="M79075 37579
L71675 37579
" />
<path d="M79075 30179
L79075 37579
" />
<path d="M71675 30179
L79075 30179
" />
<path d="M24800 29330
L24800 21930
" />
<path d="M32200 29330
L24800 29330
" />
<path d="M32200 21930
L32200 29330
" />
<path d="M24800 21930
L32200 21930
" />
<path d="M32300 21930
L39700 21930
" />
<path d="M39700 21930
L39700 29330
" />
<path d="M39700 29330
L32300 29330
" />
<path d="M32300 29330
L32300 21930
" />
<path d="M39800 28829
L39800 21429
" />
<path d="M47200 28829
L39800 28829
" />
<path d="M47200 21429
L47200 28829
" />
<path d="M39800 21429
L47200 21429
" />
<path d="M47300 20800
L54700 20800
" />
<path d="M54700 20800
L54700 28200
" />
<path d="M54700 28200
L47300 28200
" />
<path d="M47300 28200
L47300 20800
" />
<path d="M54800 28829
L54800 21429
" />
<path d="M62200 28829
L54800 28829
" />
<path d="M62200 21429
L62200 28829
" />
<path d="M54800 21429
L62200 21429
" />
<path d="M62300 22680
L69700 22680
" />
<path d="M69700 22680
L69700 30080
" />
<path d="M69700 30080
L62300 30080
" />
<path d="M62300 30080
L62300 22680
" />
<path d="M71675 22680
L79075 22680
" />
<path d="M79075 22680
L79075 30080
" />
<path d="M79075 30080
L71675 30080
" />
<path d="M71675 30080
L71675 22680
" />
<path d="M38512 65450
L31805 68578
" />
<path d="M31805 68578
L28677 61871
" />
<path d="M28677 61871
L35384 58743
" />
<path d="M35384 58743
L38512 65450
" />
<path d="M28586 61912
L31714 68619
" />
<path d="M21879 65040
L28586 61912
" />
<path d="M25007 71747
L21879 65040
" />
<path d="M31714 68619
L25007 71747
" />
<path d="M21838 64950
L18710 58243
" />
<path d="M28545 61822
L21838 64950
" />
<path d="M25417 55115
L28545 61822
" />
<path d="M18710 58243
L25417 55115
" />
<path d="M25507 55073
L32214 51945
" />
<path d="M32214 51945
L35342 58652
" />
<path d="M35342 58652
L28635 61780
" />
<path d="M28635 61780
L25507 55073
" />
</g> 
</svg>
