M48
INCH,TZ
T1C0.0118
T2C0.0200
T3C0.0236
T4C0.0394
T5C0.0430
T6C0.0591
%
G90
G05
T1
X5.097Y-5.3217
X7.5373Y-4.7556
X4.0124Y-4.6478
X5.8653Y-2.7233
X3.7443Y-6.2609
X6.5821Y-2.8356
X5.3174Y-3.4251
X7.7182Y-1.425
X6.9725Y-1.8471
X5.0959Y-3.0707
X5.0993Y-2.3121
X7.351Y-5.5062
X4.5724Y-1.8328
X5.5956Y-5.786
X6.6086Y-5.0756
X4.7651Y-4.9507
X5.4958Y-4.6448
X6.1293Y-5.684
X3.6192Y-4.2576
X3.5984Y-2.4255
X3.5971Y-3.1859
X5.1008Y-3.8232
X4.7524Y-2.7562
X6.596Y-4.3526
X6.5869Y-3.5883
X6.0479Y-4.9241
X2.6665Y-5.7485
X6.3835Y-1.9096
X5.8518Y-3.8841
X3.4811Y-1.2621
X5.1006Y-4.5689
X4.7428Y-4.0739
X3.3Y-1.2681
X3.6054Y-4.9741
X5.6162Y-2.3835
X3.6028Y-5.7314
X6.0791Y-2.3677
X3.6003Y-4.6867
X7.506Y-1.6929
X7.1028Y-2.1319
X6.0106Y-2.5969
X3.5991Y-2.7535
X3.0243Y-6.7309
X5.9185Y-1.9379
X5.8474Y-2.3842
X7.5346Y-3.256
X5.8201Y-3.4757
X6.7265Y-5.6886
X5.429Y-2.2551
X6.7882Y-2.2779
X6.2899Y-1.4542
X6.6992Y-1.4497
X7.534Y-2.5006
X7.536Y-4.0066
X3.5862Y-3.4911
X6.4006Y-5.389
X3.644Y-2.211
X2.427Y-6.8943
X6.0531Y-4.1544
T2
X2.475Y-5.427
X3.3859Y-1.3364
X3.3892Y-1.4559
X3.3903Y-1.6115
X3.653Y-1.458
X5.1697Y-1.6513
X5.2539Y-1.5157
X5.2755Y-1.558
X5.3651Y-1.6065
X5.3744Y-1.901
X5.3883Y-1.5357
X5.3896Y-1.388
X5.4055Y-1.6276
X5.4282Y-1.5358
X5.5344Y-1.5596
X5.5953Y-1.5116
X5.67Y-1.977
X5.7047Y-1.5582
X5.7964Y-1.7646
X5.7971Y-1.6317
X5.8419Y-1.885
X5.9634Y-1.5583
X5.9837Y-1.6741
X6.0159Y-1.4553
X6.3913Y-1.9782
X6.663Y-1.843
X7.0695Y-2.2988
X7.1156Y-1.6753
T4
X4.2015Y-4.335
X4.5085Y-4.335
X5.6965Y-2.83
X6.0035Y-2.83
X2.033Y-5.6623
X2.3114Y-5.5325
X1.3558Y-5.9699
X1.6342Y-5.8401
X3.15Y-3.3425
X3.15Y-3.6495
X4.9465Y-4.27
X5.2535Y-4.27
X4.9465Y-2.77
X5.2535Y-2.77
X4.9465Y-5.02
X5.2535Y-5.02
X2.7335Y-6.0756
X2.8633Y-6.354
X7.3815Y-2.96
X7.6885Y-2.96
X4.1965Y-5.085
X4.5035Y-5.085
X2.7758Y-5.4616
X3.0542Y-5.3318
X4.8635Y-1.368
X5.1705Y-1.368
X7.3815Y-5.205
X7.6885Y-5.205
X3.148Y-4.4705
X3.148Y-4.7775
X3.4465Y-5.13
X3.7535Y-5.13
X4.1965Y-3.58
X4.5035Y-3.58
X3.4465Y-2.885
X3.7535Y-2.885
X3.4151Y-5.7608
X3.5449Y-6.0392
X5.6965Y-5.085
X6.0035Y-5.085
X1.9935Y-7.3306
X2.2719Y-7.2008
X5.7015Y-3.585
X6.0085Y-3.585
X7.3805Y-3.685
X7.6875Y-3.685
X6.4415Y-2.95
X6.7485Y-2.95
X2.6965Y-2.855
X3.0035Y-2.855
X1.68Y-6.6733
X1.9584Y-6.5435
X6.4465Y-5.21
X6.7535Y-5.21
X5.7008Y-1.3838
X6.0078Y-1.3838
X7.2002Y-5.9287
X7.5072Y-5.9287
X3.4465Y-4.38
X3.7535Y-4.38
X7.3865Y-4.46
X7.6935Y-4.46
X6.4415Y-4.45
X6.7485Y-4.45
X4.1915Y-2.83
X4.4985Y-2.83
X2.0958Y-5.7799
X2.3742Y-5.6501
X4.9465Y-5.75
X5.2535Y-5.75
X4.9415Y-3.52
X5.2485Y-3.52
X6.4465Y-3.705
X6.7535Y-3.705
X3.4465Y-3.635
X3.7535Y-3.635
X4.1915Y-5.805
X4.4985Y-5.805
X6.4465Y-5.9277
X6.7535Y-5.9277
X5.7015Y-5.835
X6.0085Y-5.835
X5.6965Y-4.335
X6.0035Y-4.335
T5
X7.9762Y-1.4405
X7.9762Y-1.5905
X7.9762Y-1.7405
X7.9762Y-1.8905
X7.0704Y-2.615
X7.0704Y-2.765
X6.5305Y-1.3417
X6.5305Y-1.9417
X6.6305Y-1.3417
X6.6305Y-1.9417
X6.7305Y-1.3417
X6.7305Y-1.9417
X6.8305Y-1.3417
X6.8305Y-1.9417
X6.9305Y-1.3417
X6.9305Y-1.9417
X7.0305Y-1.3417
X7.0305Y-1.9417
X7.1305Y-1.3417
X7.1305Y-1.9417
X7.2305Y-1.3417
X7.2305Y-1.9417
X7.3305Y-1.3417
X7.3305Y-1.9417
X7.4305Y-1.3417
X7.4305Y-1.9417
X7.5305Y-1.3417
X7.5305Y-1.9417
X7.6305Y-1.3417
X7.6305Y-1.9417
T6
X1.8676Y-5.2964
X1.8706Y-5.1846
X1.8817Y-5.2046
X1.89Y-5.2225
X2.0519Y-5.1001
X2.0601Y-5.1214
X2.0684Y-5.1393
X2.1395Y-5.1696
X4.2Y-5.4129
X4.25Y-5.3129
X4.2516Y-5.3357
X4.2516Y-5.3554
X4.4484Y-5.3357
X4.4484Y-5.3554
X4.45Y-5.3129
X4.5Y-5.4129
X4.2Y-4.6629
X4.25Y-4.5629
X4.2516Y-4.5857
X4.2516Y-4.6054
X4.4484Y-4.5857
X4.4484Y-4.6054
X4.45Y-4.5629
X4.5Y-4.6629
X3.2658Y-6.5201
X3.3369Y-6.5504
X3.3452Y-6.5683
X3.3534Y-6.5896
X3.5153Y-6.4672
X3.5236Y-6.4851
X3.5347Y-6.5051
X3.5377Y-6.3933
X6.45Y-3.2879
X6.5Y-3.1879
X6.5016Y-3.2107
X6.5016Y-3.2304
X6.6984Y-3.2107
X6.6984Y-3.2304
X6.7Y-3.1879
X6.75Y-3.2879
X3.45Y-4.7129
X3.5Y-4.6129
X3.5016Y-4.6357
X3.5016Y-4.6554
X3.6984Y-4.6357
X3.6984Y-4.6554
X3.7Y-4.6129
X3.75Y-4.7129
X7.3875Y-3.2879
X7.4375Y-3.1879
X7.4391Y-3.2107
X7.4391Y-3.2304
X7.6359Y-3.2107
X7.6359Y-3.2304
X7.6375Y-3.1879
X7.6875Y-3.2879
X5.7Y-3.1629
X5.75Y-3.0629
X5.7516Y-3.0857
X5.7516Y-3.1054
X5.9484Y-3.0857
X5.9484Y-3.1054
X5.95Y-3.0629
X6.Y-3.1629
X2.65Y-4.5254
X2.65Y-4.7254
X2.6728Y-4.527
X2.6728Y-4.7238
X2.6925Y-4.527
X2.6925Y-4.7238
X2.75Y-4.4754
X2.75Y-4.7754
X5.7Y-5.4129
X5.75Y-5.3129
X5.7516Y-5.3357
X5.7516Y-5.3554
X5.9484Y-5.3357
X5.9484Y-5.3554
X5.95Y-5.3129
X6.Y-5.4129
X7.3875Y-2.538
X7.4375Y-2.438
X7.4391Y-2.4608
X7.4391Y-2.4805
X7.6359Y-2.4608
X7.6359Y-2.4805
X7.6375Y-2.438
X7.6875Y-2.538
X4.95Y-4.6
X5.Y-4.5
X5.0016Y-4.5228
X5.0016Y-4.5425
X5.1984Y-4.5228
X5.1984Y-4.5425
X5.2Y-4.5
X5.25Y-4.6
X2.8643Y-5.6591
X2.8673Y-5.5473
X2.8784Y-5.5673
X2.8867Y-5.5852
X3.0486Y-5.4628
X3.0568Y-5.4841
X3.0651Y-5.502
X3.1362Y-5.5323
X4.95Y-3.1
X5.Y-3.
X5.0016Y-3.0228
X5.0016Y-3.0425
X5.1984Y-3.0228
X5.1984Y-3.0425
X5.2Y-3.
X5.25Y-3.1
X6.45Y-5.5379
X6.5Y-5.4379
X6.5016Y-5.4607
X6.5016Y-5.4804
X6.6984Y-5.4607
X6.6984Y-5.4804
X6.7Y-5.4379
X6.75Y-5.5379
X4.95Y-3.85
X5.Y-3.75
X5.0016Y-3.7728
X5.0016Y-3.7925
X5.1984Y-3.7728
X5.1984Y-3.7925
X5.2Y-3.75
X5.25Y-3.85
X2.586Y-6.837
X2.6571Y-6.8673
X2.6654Y-6.8852
X2.6736Y-6.9065
X2.8355Y-6.7841
X2.8438Y-6.802
X2.8549Y-6.822
X2.8579Y-6.7102
X2.65Y-3.4004
X2.65Y-3.6004
X2.6728Y-3.402
X2.6728Y-3.5988
X2.6925Y-3.402
X2.6925Y-3.5988
X2.75Y-3.3504
X2.75Y-3.6504
X4.95Y-2.35
X5.Y-2.25
X5.0016Y-2.2728
X5.0016Y-2.2925
X5.1984Y-2.2728
X5.1984Y-2.2925
X5.2Y-2.25
X5.25Y-2.35
X6.45Y-4.7879
X6.5Y-4.6879
X6.5016Y-4.7107
X6.5016Y-4.7304
X6.6984Y-4.7107
X6.6984Y-4.7304
X6.7Y-4.6879
X6.75Y-4.7879
X4.95Y-5.35
X5.Y-5.25
X5.0016Y-5.2728
X5.0016Y-5.2925
X5.1984Y-5.2728
X5.1984Y-5.2925
X5.2Y-5.25
X5.25Y-5.35
X7.2Y-5.5379
X7.25Y-5.4379
X7.2516Y-5.4607
X7.2516Y-5.4804
X7.4484Y-5.4607
X7.4484Y-5.4804
X7.45Y-5.4379
X7.5Y-5.5379
X6.45Y-2.538
X6.5Y-2.438
X6.5016Y-2.4608
X6.5016Y-2.4805
X6.6984Y-2.4608
X6.6984Y-2.4805
X6.7Y-2.438
X6.75Y-2.538
X4.2Y-3.9129
X4.25Y-3.8129
X4.2516Y-3.8357
X4.2516Y-3.8554
X4.4484Y-3.8357
X4.4484Y-3.8554
X4.45Y-3.8129
X4.5Y-3.9129
X3.45Y-3.9629
X3.5Y-3.8629
X3.5016Y-3.8857
X3.5016Y-3.9054
X3.6984Y-3.8857
X3.6984Y-3.9054
X3.7Y-3.8629
X3.75Y-3.9629
X3.45Y-3.2129
X3.5Y-3.1129
X3.5016Y-3.1357
X3.5016Y-3.1554
X3.6984Y-3.1357
X3.6984Y-3.1554
X3.7Y-3.1129
X3.75Y-3.2129
X2.2977Y-6.3371
X2.319Y-6.3289
X2.3369Y-6.3206
X2.3672Y-6.2495
X2.3822Y-6.5184
X2.4022Y-6.5073
X2.4201Y-6.499
X2.494Y-6.5214
X1.1879Y-5.6133
X1.1909Y-5.5015
X1.202Y-5.5215
X1.2103Y-5.5394
X1.3722Y-5.417
X1.3804Y-5.4383
X1.3887Y-5.4562
X1.4598Y-5.4865
X7.3875Y-4.7879
X7.4375Y-4.6879
X7.4391Y-4.7107
X7.4391Y-4.7304
X7.6359Y-4.7107
X7.6359Y-4.7304
X7.6375Y-4.6879
X7.6875Y-4.7879
X4.2Y-2.4129
X4.25Y-2.3129
X4.2516Y-2.3357
X4.2516Y-2.3554
X4.4484Y-2.3357
X4.4484Y-2.3554
X4.45Y-2.3129
X4.5Y-2.4129
X5.7Y-4.6629
X5.75Y-4.5629
X5.7516Y-4.5857
X5.7516Y-4.6054
X5.9484Y-4.5857
X5.9484Y-4.6054
X5.95Y-4.5629
X6.Y-4.6629
X5.7Y-2.4129
X5.75Y-2.3129
X5.7516Y-2.3357
X5.7516Y-2.3554
X5.9484Y-2.3357
X5.9484Y-2.3554
X5.95Y-2.3129
X6.Y-2.4129
X7.3875Y-4.0379
X7.4375Y-3.9379
X7.4391Y-3.9607
X7.4391Y-3.9804
X7.6359Y-3.9607
X7.6359Y-3.9804
X7.6375Y-3.9379
X7.6875Y-4.0379
X3.45Y-2.463
X3.5Y-2.363
X3.5016Y-2.3858
X3.5016Y-2.4055
X3.6984Y-2.3858
X3.6984Y-2.4055
X3.7Y-2.363
X3.75Y-2.463
X4.2Y-3.1629
X4.25Y-3.0629
X4.2516Y-3.0857
X4.2516Y-3.1054
X4.4484Y-3.0857
X4.4484Y-3.1054
X4.45Y-3.0629
X4.5Y-3.1629
X1.5048Y-6.293
X1.5078Y-6.1812
X1.5189Y-6.2012
X1.5272Y-6.2191
X1.6891Y-6.0967
X1.6973Y-6.118
X1.7056Y-6.1359
X1.7767Y-6.1662
X1.8218Y-6.9728
X1.8248Y-6.861
X1.8359Y-6.881
X1.8442Y-6.8989
X2.0061Y-6.7765
X2.0143Y-6.7978
X2.0226Y-6.8157
X2.0937Y-6.846
X2.9774Y-6.0201
X2.9987Y-6.0119
X3.0166Y-6.0036
X3.0469Y-5.9325
X3.0619Y-6.2014
X3.0819Y-6.1903
X3.0998Y-6.182
X3.1737Y-6.2044
X5.7Y-3.9129
X5.75Y-3.8129
X5.7516Y-3.8357
X5.7516Y-3.8554
X5.9484Y-3.8357
X5.9484Y-3.8554
X5.95Y-3.8129
X6.Y-3.9129
X2.1846Y-5.9761
X2.1876Y-5.8643
X2.1987Y-5.8843
X2.207Y-5.9022
X2.3689Y-5.7798
X2.3771Y-5.8011
X2.3854Y-5.819
X2.4565Y-5.8493
X2.7Y-2.463
X2.75Y-2.363
X2.7516Y-2.3858
X2.7516Y-2.4055
X2.9484Y-2.3858
X2.9484Y-2.4055
X2.95Y-2.363
X3.Y-2.463
X6.45Y-4.0379
X6.5Y-3.9379
X6.5016Y-3.9607
X6.5016Y-3.9804
X6.6984Y-3.9607
X6.6984Y-3.9804
X6.7Y-3.9379
X6.75Y-4.0379
T3
X5.2469Y-1.2642G85X5.2469Y-1.2406
G05
X5.2469Y-1.4386G85X5.2469Y-1.3953
G05
X5.5871Y-1.2642G85X5.5871Y-1.2406
G05
X5.5871Y-1.4386G85X5.5871Y-1.3953
G05
X5.247Y-1.2406G85X5.247Y-1.2642
G05
X5.247Y-1.3953G85X5.247Y-1.4386
G05
X5.5872Y-1.2406G85X5.5872Y-1.2642
G05
X5.5872Y-1.3953G85X5.5872Y-1.4386
G05
T0
M30
