G04 #@! TF.GenerationSoftware,KiCad,Pcbnew,(5.0.2)-1*
G04 #@! TF.CreationDate,2019-05-02T18:17:00+05:30*
G04 #@! TF.ProjectId,ErgodoxBle,4572676f-646f-4784-926c-652e6b696361,rev?*
G04 #@! TF.SameCoordinates,Original*
G04 #@! TF.FileFunction,Profile,NP*
%FSLAX46Y46*%
G04 Gerber Fmt 4.6, Leading zero omitted, Abs format (unit mm)*
G04 Created by KiCad (PCBNEW (5.0.2)-1) date 5/2/2019 6:17:00 PM*
%MOMM*%
%LPD*%
G01*
G04 APERTURE LIST*
%ADD10C,0.381000*%
G04 APERTURE END LIST*
D10*
X83185000Y-30530800D02*
X81737200Y-32258000D01*
X77901800Y-32258000D02*
X81711800Y-32258000D01*
X90830400Y-32258000D02*
X89357200Y-30530800D01*
X95046800Y-32258000D02*
X90830400Y-32258000D01*
X83210400Y-30530800D02*
X89331800Y-30530800D01*
X205917800Y-35407600D02*
X202742800Y-32258000D01*
X127152400Y-152908000D02*
X196392800Y-152908000D01*
X196392800Y-152908000D02*
X205917800Y-143383000D01*
X205917800Y-143383000D02*
X205917800Y-35433000D01*
X202742800Y-32258000D02*
X143408400Y-32258000D01*
X143408400Y-32258000D02*
X143408400Y-30480000D01*
X143408400Y-30480000D02*
X131902200Y-30480000D01*
X131902200Y-30480000D02*
X131902200Y-32258000D01*
X131902200Y-32258000D02*
X95046800Y-32258000D01*
X77876400Y-32258000D02*
X65811400Y-32258000D01*
X65811400Y-32258000D02*
X62611000Y-35433000D01*
X62611000Y-35433000D02*
X62611000Y-121666000D01*
X62611000Y-121666000D02*
X57708800Y-121666000D01*
X57708800Y-121666000D02*
X24617680Y-137096500D01*
X24617680Y-137096500D02*
X23080980Y-141315440D01*
X23080980Y-141315440D02*
X44764960Y-187817760D01*
X44764960Y-187817760D02*
X48983900Y-189351920D01*
X48983900Y-189351920D02*
X127152400Y-152908000D01*
M02*
