G04 #@! TF.GenerationSoftware,KiCad,Pcbnew,(5.0.2)-1*
G04 #@! TF.CreationDate,2019-01-20T13:42:41+05:30*
G04 #@! TF.ProjectId,ErgodoxBle,4572676f-646f-4784-926c-652e6b696361,rev?*
G04 #@! TF.SameCoordinates,Original*
G04 #@! TF.FileFunction,Profile,NP*
%FSLAX46Y46*%
G04 Gerber Fmt 4.6, Leading zero omitted, Abs format (unit mm)*
G04 Created by KiCad (PCBNEW (5.0.2)-1) date 1/20/2019 1:42:41 PM*
%MOMM*%
%LPD*%
G01*
G04 APERTURE LIST*
%ADD10C,0.150000*%
G04 APERTURE END LIST*
D10*
X177830480Y-175694340D02*
X160317180Y-167492680D01*
X202041760Y-124241560D02*
X165110160Y-106964480D01*
X178244500Y-175539400D02*
X202077320Y-124510800D01*
X178234934Y-175553953D02*
G75*
G02X177850801Y-175704499I-257134J90753D01*
G01*
X202071467Y-124249850D02*
G75*
G02X202082399Y-124498099I-217667J-133950D01*
G01*
X161010600Y-16040100D02*
G75*
G02X161328100Y-16357600I0J-317500D01*
G01*
X22783800Y-16535400D02*
X22707600Y-119049800D01*
X23253700Y-16052800D02*
X135851900Y-16065500D01*
X22783908Y-16519937D02*
G75*
G02X23241000Y-16052800I457092J9937D01*
G01*
X161048700Y-16040100D02*
X135851900Y-16065500D01*
X161328100Y-16294100D02*
X161328100Y-16319500D01*
X161328100Y-16903700D02*
X161328100Y-16294100D01*
X161391600Y-105244900D02*
X161328100Y-16941800D01*
X161391600Y-105232200D02*
X161391600Y-105244900D01*
X165110160Y-106964480D02*
X161391600Y-105232200D01*
X115354100Y-138074400D02*
X111160560Y-138074400D01*
X126631700Y-151752300D02*
X115354100Y-138074400D01*
X143776700Y-159778700D02*
X126631700Y-151752300D01*
X160317180Y-167492680D02*
X143776700Y-159778700D01*
X28308300Y-138099800D02*
X111160560Y-138074400D01*
X22707600Y-119062500D02*
X28308300Y-138099800D01*
M02*
