G04 #@! TF.GenerationSoftware,KiCad,Pcbnew,(5.0.2)-1*
G04 #@! TF.CreationDate,2019-01-20T13:42:40+05:30*
G04 #@! TF.ProjectId,ErgodoxBle,4572676f-646f-4784-926c-652e6b696361,rev?*
G04 #@! TF.SameCoordinates,Original*
G04 #@! TF.FileFunction,Paste,Bot*
G04 #@! TF.FilePolarity,Positive*
%FSLAX46Y46*%
G04 Gerber Fmt 4.6, Leading zero omitted, Abs format (unit mm)*
G04 Created by KiCad (PCBNEW (5.0.2)-1) date 1/20/2019 1:42:40 PM*
%MOMM*%
%LPD*%
G01*
G04 APERTURE LIST*
%ADD10R,1.200000X1.600000*%
%ADD11R,1.600000X1.200000*%
%ADD12C,1.200000*%
%ADD13C,0.100000*%
%ADD14R,1.500000X1.200000*%
%ADD15R,2.500000X1.200000*%
%ADD16R,1.700000X1.000000*%
G04 APERTURE END LIST*
D10*
G04 #@! TO.C,D0*
X42418000Y-51368500D03*
X42418000Y-54168500D03*
G04 #@! TD*
G04 #@! TO.C,D1*
X66217800Y-52860400D03*
X66217800Y-50060400D03*
G04 #@! TD*
G04 #@! TO.C,D2*
X85280500Y-45666200D03*
X85280500Y-48466200D03*
G04 #@! TD*
G04 #@! TO.C,D3*
X104254300Y-49837800D03*
X104254300Y-47037800D03*
G04 #@! TD*
G04 #@! TO.C,D4*
X123431300Y-46745700D03*
X123431300Y-49545700D03*
G04 #@! TD*
G04 #@! TO.C,D5*
X142519400Y-51463400D03*
X142519400Y-48663400D03*
G04 #@! TD*
D11*
G04 #@! TO.C,D6*
X150733300Y-59817000D03*
X153533300Y-59817000D03*
G04 #@! TD*
D10*
G04 #@! TO.C,D10*
X42570400Y-72126300D03*
X42570400Y-69326300D03*
G04 #@! TD*
G04 #@! TO.C,D11*
X66243200Y-69618400D03*
X66243200Y-72418400D03*
G04 #@! TD*
G04 #@! TO.C,D12*
X85293200Y-67833700D03*
X85293200Y-65033700D03*
G04 #@! TD*
G04 #@! TO.C,D13*
X104368600Y-65935400D03*
X104368600Y-68735400D03*
G04 #@! TD*
G04 #@! TO.C,D14*
X123380500Y-69713300D03*
X123380500Y-66913300D03*
G04 #@! TD*
G04 #@! TO.C,D15*
X142494000Y-66938700D03*
X142494000Y-69738700D03*
G04 #@! TD*
D11*
G04 #@! TO.C,D16*
X153876200Y-84836000D03*
X151076200Y-84836000D03*
G04 #@! TD*
D10*
G04 #@! TO.C,D20*
X42621200Y-88465200D03*
X42621200Y-91265200D03*
G04 #@! TD*
G04 #@! TO.C,D21*
X66306700Y-90185700D03*
X66306700Y-87385700D03*
G04 #@! TD*
G04 #@! TO.C,D22*
X85305900Y-85455300D03*
X85305900Y-88255300D03*
G04 #@! TD*
G04 #@! TO.C,D23*
X104317800Y-86782100D03*
X104317800Y-83982100D03*
G04 #@! TD*
G04 #@! TO.C,D24*
X123431300Y-88572800D03*
X123431300Y-85772800D03*
G04 #@! TD*
G04 #@! TO.C,D25*
X142468600Y-89677700D03*
X142468600Y-86877700D03*
G04 #@! TD*
D12*
G04 #@! TO.C,D26*
X164465000Y-115379500D03*
D13*
G36*
X164670690Y-116358117D02*
X163583121Y-115850975D01*
X164259310Y-114400883D01*
X165346879Y-114908025D01*
X164670690Y-116358117D01*
X164670690Y-116358117D01*
G37*
D12*
X163281668Y-117917162D03*
D13*
G36*
X163487358Y-118895779D02*
X162399789Y-118388637D01*
X163075978Y-116938545D01*
X164163547Y-117445687D01*
X163487358Y-118895779D01*
X163487358Y-118895779D01*
G37*
G04 #@! TD*
D10*
G04 #@! TO.C,D30*
X42595800Y-111051800D03*
X42595800Y-108251800D03*
G04 #@! TD*
G04 #@! TO.C,D31*
X66281300Y-107299300D03*
X66281300Y-110099300D03*
G04 #@! TD*
G04 #@! TO.C,D32*
X85344000Y-108232400D03*
X85344000Y-105432400D03*
G04 #@! TD*
G04 #@! TO.C,D33*
X104381300Y-103311500D03*
X104381300Y-106111500D03*
G04 #@! TD*
G04 #@! TO.C,D34*
X123418600Y-107940300D03*
X123418600Y-105140300D03*
G04 #@! TD*
G04 #@! TO.C,D35*
X142468600Y-105686400D03*
X142468600Y-108486400D03*
G04 #@! TD*
D11*
G04 #@! TO.C,D36*
X152999900Y-112560100D03*
X150199900Y-112560100D03*
G04 #@! TD*
D10*
G04 #@! TO.C,D40*
X47205900Y-126336600D03*
X47205900Y-129136600D03*
G04 #@! TD*
G04 #@! TO.C,D41*
X66294000Y-128171400D03*
X66294000Y-125371400D03*
G04 #@! TD*
G04 #@! TO.C,D42*
X85318600Y-121888600D03*
X85318600Y-124688600D03*
G04 #@! TD*
G04 #@! TO.C,D43*
X104279700Y-125212300D03*
X104279700Y-122412300D03*
G04 #@! TD*
G04 #@! TO.C,D44*
X123240800Y-123631500D03*
X123240800Y-126431500D03*
G04 #@! TD*
D12*
G04 #@! TO.C,D45*
X180439368Y-126070562D03*
D13*
G36*
X180645058Y-127049179D02*
X179557489Y-126542037D01*
X180233678Y-125091945D01*
X181321247Y-125599087D01*
X180645058Y-127049179D01*
X180645058Y-127049179D01*
G37*
D12*
X181622700Y-123532900D03*
D13*
G36*
X181828390Y-124511517D02*
X180740821Y-124004375D01*
X181417010Y-122554283D01*
X182504579Y-123061425D01*
X181828390Y-124511517D01*
X181828390Y-124511517D01*
G37*
G04 #@! TD*
D12*
G04 #@! TO.C,D46*
X185738669Y-137393834D03*
D13*
G36*
X186717286Y-137188144D02*
X186210144Y-138275713D01*
X184760052Y-137599524D01*
X185267194Y-136511955D01*
X186717286Y-137188144D01*
X186717286Y-137188144D01*
G37*
D12*
X188276331Y-138577166D03*
D13*
G36*
X189254948Y-138371476D02*
X188747806Y-139459045D01*
X187297714Y-138782856D01*
X187804856Y-137695287D01*
X189254948Y-138371476D01*
X189254948Y-138371476D01*
G37*
G04 #@! TD*
D10*
G04 #@! TO.C,D54*
X132880100Y-126730300D03*
X132880100Y-129530300D03*
G04 #@! TD*
G04 #@! TO.C,D55*
X128651000Y-128603200D03*
X128651000Y-125803200D03*
G04 #@! TD*
D12*
G04 #@! TO.C,D56*
X180161031Y-155988866D03*
D13*
G36*
X181139648Y-155783176D02*
X180632506Y-156870745D01*
X179182414Y-156194556D01*
X179689556Y-155106987D01*
X181139648Y-155783176D01*
X181139648Y-155783176D01*
G37*
D12*
X177623369Y-154805534D03*
D13*
G36*
X178601986Y-154599844D02*
X178094844Y-155687413D01*
X176644752Y-155011224D01*
X177151894Y-153923655D01*
X178601986Y-154599844D01*
X178601986Y-154599844D01*
G37*
G04 #@! TD*
D14*
G04 #@! TO.C,R1*
X82368400Y-25781000D03*
X85068400Y-25781000D03*
G04 #@! TD*
G04 #@! TO.C,R2*
X86186000Y-21018500D03*
X83486000Y-21018500D03*
G04 #@! TD*
D15*
G04 #@! TO.C,AudioJM1*
X141349800Y-27162700D03*
X134849800Y-26062700D03*
X134849800Y-22062700D03*
X134849800Y-19062700D03*
G04 #@! TD*
D16*
G04 #@! TO.C,SW2*
X65468100Y-21445300D03*
X71768100Y-21445300D03*
X65468100Y-17645300D03*
X71768100Y-17645300D03*
G04 #@! TD*
M02*
