M48
;DRILL file {KiCad (5.0.2)-1} date 1/20/2019 7:55:05 PM
;FORMAT={-:-/ absolute / inch / decimal}
FMAT,2
INCH,TZ
T1C0.0591
T2C0.0670
T3C0.1200
T4C0.1570
%
G90
G05
T1
X5.4375Y-0.688
X5.4375Y-0.9636
X5.437Y-0.6875
X5.437Y-0.9631
T2
X6.6059Y-4.6691
X6.9685Y-4.8381
X5.035Y-1.992
X5.435Y-1.992
X1.096Y-2.0681
X1.496Y-2.0681
X4.2836Y-4.1923
X4.6836Y-4.1923
X6.2285Y-5.9543
X6.2285Y-5.9543
X6.3975Y-5.5917
X6.3975Y-5.5917
X4.284Y-2.692
X4.684Y-2.692
X2.7835Y-3.4414
X3.1835Y-3.4414
X1.2851Y-5.0668
X1.6851Y-5.0668
X3.534Y-1.88
X3.934Y-1.88
X3.5342Y-4.1301
X3.9342Y-4.1301
X2.034Y-2.8181
X2.434Y-2.8181
X5.9848Y-3.8546
X5.9848Y-4.2546
X1.0973Y-3.5678
X1.4973Y-3.5678
X5.0335Y-4.2399
X5.4335Y-4.2399
X5.9836Y-2.7297
X5.9836Y-3.1297
X2.0344Y-4.3174
X2.4344Y-4.3174
X2.7844Y-4.9419
X3.1844Y-4.9419
X2.0344Y-5.0683
X2.4344Y-5.0683
X2.034Y-2.0675
X2.434Y-2.0675
X4.2838Y-3.4424
X4.6838Y-3.4424
X5.035Y-2.742
X5.435Y-2.742
X3.534Y-2.63
X3.934Y-2.63
X5.0349Y-3.4933
X5.4349Y-3.4933
X4.284Y-1.941
X4.684Y-1.941
X5.7836Y-1.9912
X6.1836Y-1.9912
X4.2841Y-4.9419
X4.6841Y-4.9419
X6.9726Y-5.6666
X7.3352Y-5.8356
X1.0968Y-2.8171
X1.4968Y-2.8171
X1.0971Y-4.3166
X1.4971Y-4.3166
X2.0337Y-3.5667
X2.4337Y-3.5667
X7.287Y-4.9876
X7.6496Y-5.1566
X3.5342Y-3.3781
X3.9342Y-3.3781
X2.783Y-2.692
X3.183Y-2.692
X2.784Y-1.9445
X3.184Y-1.9445
X3.5327Y-4.8794
X3.9327Y-4.8794
X6.6527Y-6.345
X7.0153Y-6.514
X5.5515Y-5.6368
X5.5515Y-5.6368
X5.7205Y-5.2742
X5.7205Y-5.2742
X2.7845Y-4.192
X3.1845Y-4.192
T3
X5.1881Y-5.7652
X5.1881Y-5.7652
X5.5854Y-4.9133
X5.5854Y-4.9133
X6.3636Y-6.3152
X6.3636Y-6.3152
X6.7609Y-5.4633
X6.7609Y-5.4633
T4
X2.9844Y-4.9419
X2.2344Y-5.0683
X2.234Y-2.0675
X4.4838Y-3.4424
X5.235Y-2.742
X3.734Y-2.63
X5.2349Y-3.4933
X4.484Y-1.941
X5.9836Y-1.9912
X4.4841Y-4.9419
X7.1539Y-5.7511
X1.2968Y-2.8171
X1.2971Y-4.3166
X2.2337Y-3.5667
X7.4683Y-5.0721
X3.7342Y-3.3781
X2.983Y-2.692
X2.984Y-1.9445
X3.7327Y-4.8794
X6.834Y-6.4295
X5.636Y-5.4555
X5.636Y-5.4555
X5.7319Y-6.0188
X5.7319Y-6.0188
X6.1292Y-5.1669
X6.1292Y-5.1669
X2.9845Y-4.192
X6.7872Y-4.7536
X5.235Y-1.992
X1.296Y-2.0681
X4.4836Y-4.1923
X5.8198Y-6.0616
X5.8198Y-6.0616
X6.2171Y-5.2097
X6.2171Y-5.2097
X6.313Y-5.773
X6.313Y-5.773
X4.484Y-2.692
X2.9835Y-3.4414
X1.4851Y-5.0668
X3.734Y-1.88
X3.7342Y-4.1301
X2.234Y-2.8181
X5.9848Y-4.0546
X1.2973Y-3.5678
X5.2335Y-4.2399
X5.9836Y-2.9297
X2.2344Y-4.3174
T0
M30
