G04 #@! TF.GenerationSoftware,KiCad,Pcbnew,(5.0.2)-1*
G04 #@! TF.CreationDate,2019-01-24T20:15:45+05:30*
G04 #@! TF.ProjectId,ErgodoxBle,4572676f-646f-4784-926c-652e6b696361,rev?*
G04 #@! TF.SameCoordinates,Original*
G04 #@! TF.FileFunction,Legend,Bot*
G04 #@! TF.FilePolarity,Positive*
%FSLAX46Y46*%
G04 Gerber Fmt 4.6, Leading zero omitted, Abs format (unit mm)*
G04 Created by KiCad (PCBNEW (5.0.2)-1) date 1/24/2019 8:15:45 PM*
%MOMM*%
%LPD*%
G01*
G04 APERTURE LIST*
%ADD10C,0.304800*%
%ADD11C,0.508000*%
%ADD12C,0.381000*%
%ADD13C,0.150000*%
%ADD14C,0.120000*%
G04 APERTURE END LIST*
D10*
X200753738Y-36246888D02*
X198721738Y-36246888D01*
X198721738Y-36609745D01*
X198818500Y-36827460D01*
X199012023Y-36972602D01*
X199205547Y-37045174D01*
X199592595Y-37117745D01*
X199882880Y-37117745D01*
X200269928Y-37045174D01*
X200463452Y-36972602D01*
X200656976Y-36827460D01*
X200753738Y-36609745D01*
X200753738Y-36246888D01*
X199979642Y-37770888D02*
X199979642Y-38932031D01*
X200705478Y-40305808D02*
X198673478Y-40305808D01*
X198673478Y-40668665D01*
X198770240Y-40886380D01*
X198963763Y-41031522D01*
X199157287Y-41104094D01*
X199544335Y-41176665D01*
X199834620Y-41176665D01*
X200221668Y-41104094D01*
X200415192Y-41031522D01*
X200608716Y-40886380D01*
X200705478Y-40668665D01*
X200705478Y-40305808D01*
X199931382Y-41829808D02*
X199931382Y-42990951D01*
X200705478Y-42410380D02*
X199157287Y-42410380D01*
D11*
X75960514Y-99803857D02*
X77170038Y-99803857D01*
X77170038Y-96755857D01*
X75113847Y-98207285D02*
X74267180Y-98207285D01*
X73904323Y-99803857D02*
X75113847Y-99803857D01*
X75113847Y-96755857D01*
X73904323Y-96755857D01*
X71969085Y-98207285D02*
X72815752Y-98207285D01*
X72815752Y-99803857D02*
X72815752Y-96755857D01*
X71606228Y-96755857D01*
X71001466Y-96755857D02*
X69550038Y-96755857D01*
X70275752Y-99803857D02*
X70275752Y-96755857D01*
X77170038Y-104883857D02*
X77170038Y-101835857D01*
X77170038Y-103287285D02*
X75718609Y-103287285D01*
X75718609Y-104883857D02*
X75718609Y-101835857D01*
X74630038Y-104013000D02*
X73420514Y-104013000D01*
X74871942Y-104883857D02*
X74025276Y-101835857D01*
X73178609Y-104883857D01*
X72331942Y-104883857D02*
X72331942Y-101835857D01*
X70880514Y-104883857D01*
X70880514Y-101835857D01*
X69670990Y-104883857D02*
X69670990Y-101835857D01*
X69066228Y-101835857D01*
X68703371Y-101981000D01*
X68461466Y-102271285D01*
X68340514Y-102561571D01*
X68219561Y-103142142D01*
X68219561Y-103577571D01*
X68340514Y-104158142D01*
X68461466Y-104448428D01*
X68703371Y-104738714D01*
X69066228Y-104883857D01*
X69670990Y-104883857D01*
D10*
X190701022Y-52788457D02*
X191209022Y-52788457D01*
X191209022Y-53852838D02*
X191209022Y-51820838D01*
X190483308Y-51820838D01*
X189031880Y-53852838D02*
X189539880Y-52885219D01*
X189902737Y-53852838D02*
X189902737Y-51820838D01*
X189322165Y-51820838D01*
X189177022Y-51917600D01*
X189104451Y-52014361D01*
X189031880Y-52207885D01*
X189031880Y-52498171D01*
X189104451Y-52691695D01*
X189177022Y-52788457D01*
X189322165Y-52885219D01*
X189902737Y-52885219D01*
X187725594Y-52498171D02*
X187725594Y-53852838D01*
X188088451Y-51724076D02*
X188451308Y-53175504D01*
X187507880Y-53175504D01*
X185983880Y-51820838D02*
X185113022Y-51820838D01*
X185548451Y-53852838D02*
X185548451Y-51820838D01*
X183951880Y-52498171D02*
X183951880Y-54143123D01*
X184024451Y-54336647D01*
X184097022Y-54433409D01*
X184242165Y-54530171D01*
X184459880Y-54530171D01*
X184605022Y-54433409D01*
X183951880Y-53756076D02*
X184097022Y-53852838D01*
X184387308Y-53852838D01*
X184532451Y-53756076D01*
X184605022Y-53659314D01*
X184677594Y-53465790D01*
X184677594Y-52885219D01*
X184605022Y-52691695D01*
X184532451Y-52594933D01*
X184387308Y-52498171D01*
X184097022Y-52498171D01*
X183951880Y-52594933D01*
X182427880Y-53852838D02*
X183298737Y-53852838D01*
X182863308Y-53852838D02*
X182863308Y-51820838D01*
X183008451Y-52111123D01*
X183153594Y-52304647D01*
X183298737Y-52401409D01*
X181919880Y-51820838D02*
X180903880Y-51820838D01*
X181557022Y-53852838D01*
X180033022Y-51820838D02*
X179887880Y-51820838D01*
X179742737Y-51917600D01*
X179670165Y-52014361D01*
X179597594Y-52207885D01*
X179525022Y-52594933D01*
X179525022Y-53078742D01*
X179597594Y-53465790D01*
X179670165Y-53659314D01*
X179742737Y-53756076D01*
X179887880Y-53852838D01*
X180033022Y-53852838D01*
X180178165Y-53756076D01*
X180250737Y-53659314D01*
X180323308Y-53465790D01*
X180395880Y-53078742D01*
X180395880Y-52594933D01*
X180323308Y-52207885D01*
X180250737Y-52014361D01*
X180178165Y-51917600D01*
X180033022Y-51820838D01*
X178654165Y-51820838D02*
X178799308Y-51917600D01*
X178871880Y-52111123D01*
X178799308Y-52304647D01*
X178654165Y-52401409D01*
X178509022Y-52304647D01*
X178436451Y-52111123D01*
X178509022Y-51917600D01*
X178654165Y-51820838D01*
X175823880Y-53852838D02*
X176549594Y-53852838D01*
X176549594Y-51820838D01*
X174662737Y-53852838D02*
X174662737Y-52788457D01*
X174735308Y-52594933D01*
X174880451Y-52498171D01*
X175170737Y-52498171D01*
X175315880Y-52594933D01*
X174662737Y-53756076D02*
X174807880Y-53852838D01*
X175170737Y-53852838D01*
X175315880Y-53756076D01*
X175388451Y-53562552D01*
X175388451Y-53369028D01*
X175315880Y-53175504D01*
X175170737Y-53078742D01*
X174807880Y-53078742D01*
X174662737Y-52981980D01*
X173937022Y-53852838D02*
X173937022Y-52498171D01*
X173937022Y-52691695D02*
X173864451Y-52594933D01*
X173719308Y-52498171D01*
X173501594Y-52498171D01*
X173356451Y-52594933D01*
X173283880Y-52788457D01*
X173283880Y-53852838D01*
X173283880Y-52788457D02*
X173211308Y-52594933D01*
X173066165Y-52498171D01*
X172848451Y-52498171D01*
X172703308Y-52594933D01*
X172630737Y-52788457D01*
X172630737Y-53852838D01*
X171905022Y-53852838D02*
X171905022Y-52498171D01*
X171905022Y-51820838D02*
X171977594Y-51917600D01*
X171905022Y-52014361D01*
X171832451Y-51917600D01*
X171905022Y-51820838D01*
X171905022Y-52014361D01*
X171179308Y-52498171D02*
X171179308Y-53852838D01*
X171179308Y-52691695D02*
X171106737Y-52594933D01*
X170961594Y-52498171D01*
X170743880Y-52498171D01*
X170598737Y-52594933D01*
X170526165Y-52788457D01*
X170526165Y-53852838D01*
X169147308Y-53852838D02*
X169147308Y-52788457D01*
X169219880Y-52594933D01*
X169365022Y-52498171D01*
X169655308Y-52498171D01*
X169800451Y-52594933D01*
X169147308Y-53756076D02*
X169292451Y-53852838D01*
X169655308Y-53852838D01*
X169800451Y-53756076D01*
X169873022Y-53562552D01*
X169873022Y-53369028D01*
X169800451Y-53175504D01*
X169655308Y-53078742D01*
X169292451Y-53078742D01*
X169147308Y-52981980D01*
X168639308Y-52498171D02*
X168058737Y-52498171D01*
X168421594Y-51820838D02*
X168421594Y-53562552D01*
X168349022Y-53756076D01*
X168203880Y-53852838D01*
X168058737Y-53852838D01*
X166970165Y-53756076D02*
X167115308Y-53852838D01*
X167405594Y-53852838D01*
X167550737Y-53756076D01*
X167623308Y-53562552D01*
X167623308Y-52788457D01*
X167550737Y-52594933D01*
X167405594Y-52498171D01*
X167115308Y-52498171D01*
X166970165Y-52594933D01*
X166897594Y-52788457D01*
X166897594Y-52981980D01*
X167623308Y-53175504D01*
X191281594Y-55367161D02*
X191209022Y-55270400D01*
X191063880Y-55173638D01*
X190701022Y-55173638D01*
X190555880Y-55270400D01*
X190483308Y-55367161D01*
X190410737Y-55560685D01*
X190410737Y-55754209D01*
X190483308Y-56044495D01*
X191354165Y-57205638D01*
X190410737Y-57205638D01*
X189104451Y-55850971D02*
X189104451Y-57205638D01*
X189467308Y-55076876D02*
X189830165Y-56528304D01*
X188886737Y-56528304D01*
X188306165Y-57205638D02*
X188306165Y-55850971D01*
X188306165Y-56044495D02*
X188233594Y-55947733D01*
X188088451Y-55850971D01*
X187870737Y-55850971D01*
X187725594Y-55947733D01*
X187653022Y-56141257D01*
X187653022Y-57205638D01*
X187653022Y-56141257D02*
X187580451Y-55947733D01*
X187435308Y-55850971D01*
X187217594Y-55850971D01*
X187072451Y-55947733D01*
X186999880Y-56141257D01*
X186999880Y-57205638D01*
X186274165Y-57205638D02*
X186274165Y-55850971D01*
X186274165Y-55173638D02*
X186346737Y-55270400D01*
X186274165Y-55367161D01*
X186201594Y-55270400D01*
X186274165Y-55173638D01*
X186274165Y-55367161D01*
X185330737Y-57205638D02*
X185475880Y-57108876D01*
X185548451Y-56915352D01*
X185548451Y-55173638D01*
X183806737Y-55850971D02*
X183226165Y-55850971D01*
X183589022Y-55173638D02*
X183589022Y-56915352D01*
X183516451Y-57108876D01*
X183371308Y-57205638D01*
X183226165Y-57205638D01*
X182718165Y-57205638D02*
X182718165Y-55850971D01*
X182718165Y-56238019D02*
X182645594Y-56044495D01*
X182573022Y-55947733D01*
X182427880Y-55850971D01*
X182282737Y-55850971D01*
X181121594Y-57205638D02*
X181121594Y-56141257D01*
X181194165Y-55947733D01*
X181339308Y-55850971D01*
X181629594Y-55850971D01*
X181774737Y-55947733D01*
X181121594Y-57108876D02*
X181266737Y-57205638D01*
X181629594Y-57205638D01*
X181774737Y-57108876D01*
X181847308Y-56915352D01*
X181847308Y-56721828D01*
X181774737Y-56528304D01*
X181629594Y-56431542D01*
X181266737Y-56431542D01*
X181121594Y-56334780D01*
X179742737Y-57108876D02*
X179887880Y-57205638D01*
X180178165Y-57205638D01*
X180323308Y-57108876D01*
X180395880Y-57012114D01*
X180468451Y-56818590D01*
X180468451Y-56238019D01*
X180395880Y-56044495D01*
X180323308Y-55947733D01*
X180178165Y-55850971D01*
X179887880Y-55850971D01*
X179742737Y-55947733D01*
X178509022Y-57108876D02*
X178654165Y-57205638D01*
X178944451Y-57205638D01*
X179089594Y-57108876D01*
X179162165Y-56915352D01*
X179162165Y-56141257D01*
X179089594Y-55947733D01*
X178944451Y-55850971D01*
X178654165Y-55850971D01*
X178509022Y-55947733D01*
X178436451Y-56141257D01*
X178436451Y-56334780D01*
X179162165Y-56528304D01*
X177855880Y-57108876D02*
X177710737Y-57205638D01*
X177420451Y-57205638D01*
X177275308Y-57108876D01*
X177202737Y-56915352D01*
X177202737Y-56818590D01*
X177275308Y-56625066D01*
X177420451Y-56528304D01*
X177638165Y-56528304D01*
X177783308Y-56431542D01*
X177855880Y-56238019D01*
X177855880Y-56141257D01*
X177783308Y-55947733D01*
X177638165Y-55850971D01*
X177420451Y-55850971D01*
X177275308Y-55947733D01*
X175170737Y-57205638D02*
X175315880Y-57108876D01*
X175388451Y-57012114D01*
X175461022Y-56818590D01*
X175461022Y-56238019D01*
X175388451Y-56044495D01*
X175315880Y-55947733D01*
X175170737Y-55850971D01*
X174953022Y-55850971D01*
X174807880Y-55947733D01*
X174735308Y-56044495D01*
X174662737Y-56238019D01*
X174662737Y-56818590D01*
X174735308Y-57012114D01*
X174807880Y-57108876D01*
X174953022Y-57205638D01*
X175170737Y-57205638D01*
X174009594Y-55850971D02*
X174009594Y-57205638D01*
X174009594Y-56044495D02*
X173937022Y-55947733D01*
X173791880Y-55850971D01*
X173574165Y-55850971D01*
X173429022Y-55947733D01*
X173356451Y-56141257D01*
X173356451Y-57205638D01*
X170671308Y-57205638D02*
X171542165Y-57205638D01*
X171106737Y-57205638D02*
X171106737Y-55173638D01*
X171251880Y-55463923D01*
X171397022Y-55657447D01*
X171542165Y-55754209D01*
X169800451Y-57205638D02*
X169945594Y-57108876D01*
X170018165Y-57012114D01*
X170090737Y-56818590D01*
X170090737Y-56238019D01*
X170018165Y-56044495D01*
X169945594Y-55947733D01*
X169800451Y-55850971D01*
X169582737Y-55850971D01*
X169437594Y-55947733D01*
X169365022Y-56044495D01*
X169292451Y-56238019D01*
X169292451Y-56818590D01*
X169365022Y-57012114D01*
X169437594Y-57108876D01*
X169582737Y-57205638D01*
X169800451Y-57205638D01*
X168784451Y-55850971D02*
X167986165Y-55850971D01*
X168784451Y-57205638D01*
X167986165Y-57205638D01*
X165591308Y-57108876D02*
X165736451Y-57205638D01*
X166026737Y-57205638D01*
X166171880Y-57108876D01*
X166244451Y-57012114D01*
X166317022Y-56818590D01*
X166317022Y-56238019D01*
X166244451Y-56044495D01*
X166171880Y-55947733D01*
X166026737Y-55850971D01*
X165736451Y-55850971D01*
X165591308Y-55947733D01*
X164720451Y-57205638D02*
X164865594Y-57108876D01*
X164938165Y-57012114D01*
X165010737Y-56818590D01*
X165010737Y-56238019D01*
X164938165Y-56044495D01*
X164865594Y-55947733D01*
X164720451Y-55850971D01*
X164502737Y-55850971D01*
X164357594Y-55947733D01*
X164285022Y-56044495D01*
X164212451Y-56238019D01*
X164212451Y-56818590D01*
X164285022Y-57012114D01*
X164357594Y-57108876D01*
X164502737Y-57205638D01*
X164720451Y-57205638D01*
X163559308Y-55850971D02*
X163559308Y-57882971D01*
X163559308Y-55947733D02*
X163414165Y-55850971D01*
X163123880Y-55850971D01*
X162978737Y-55947733D01*
X162906165Y-56044495D01*
X162833594Y-56238019D01*
X162833594Y-56818590D01*
X162906165Y-57012114D01*
X162978737Y-57108876D01*
X163123880Y-57205638D01*
X163414165Y-57205638D01*
X163559308Y-57108876D01*
X162180451Y-55850971D02*
X162180451Y-57882971D01*
X162180451Y-55947733D02*
X162035308Y-55850971D01*
X161745022Y-55850971D01*
X161599880Y-55947733D01*
X161527308Y-56044495D01*
X161454737Y-56238019D01*
X161454737Y-56818590D01*
X161527308Y-57012114D01*
X161599880Y-57108876D01*
X161745022Y-57205638D01*
X162035308Y-57205638D01*
X162180451Y-57108876D01*
X160221022Y-57108876D02*
X160366165Y-57205638D01*
X160656451Y-57205638D01*
X160801594Y-57108876D01*
X160874165Y-56915352D01*
X160874165Y-56141257D01*
X160801594Y-55947733D01*
X160656451Y-55850971D01*
X160366165Y-55850971D01*
X160221022Y-55947733D01*
X160148451Y-56141257D01*
X160148451Y-56334780D01*
X160874165Y-56528304D01*
X159495308Y-57205638D02*
X159495308Y-55850971D01*
X159495308Y-56238019D02*
X159422737Y-56044495D01*
X159350165Y-55947733D01*
X159205022Y-55850971D01*
X159059880Y-55850971D01*
D12*
G04 #@! TO.C,proMicro1*
X189280800Y-35661600D02*
X189280800Y-33121600D01*
X191820800Y-35661600D02*
X189280800Y-35661600D01*
D13*
G36*
X185531770Y-48056235D02*
X185431770Y-48056235D01*
X185431770Y-48156235D01*
X185531770Y-48156235D01*
X185531770Y-48056235D01*
G37*
X185531770Y-48056235D02*
X185431770Y-48056235D01*
X185431770Y-48156235D01*
X185531770Y-48156235D01*
X185531770Y-48056235D01*
G36*
X185931770Y-48256235D02*
X185131770Y-48256235D01*
X185131770Y-48356235D01*
X185931770Y-48356235D01*
X185931770Y-48256235D01*
G37*
X185931770Y-48256235D02*
X185131770Y-48256235D01*
X185131770Y-48356235D01*
X185931770Y-48356235D01*
X185931770Y-48256235D01*
G36*
X185331770Y-47856235D02*
X185131770Y-47856235D01*
X185131770Y-47956235D01*
X185331770Y-47956235D01*
X185331770Y-47856235D01*
G37*
X185331770Y-47856235D02*
X185131770Y-47856235D01*
X185131770Y-47956235D01*
X185331770Y-47956235D01*
X185331770Y-47856235D01*
G36*
X185931770Y-47856235D02*
X185631770Y-47856235D01*
X185631770Y-47956235D01*
X185931770Y-47956235D01*
X185931770Y-47856235D01*
G37*
X185931770Y-47856235D02*
X185631770Y-47856235D01*
X185631770Y-47956235D01*
X185931770Y-47956235D01*
X185931770Y-47856235D01*
G36*
X185931770Y-47856235D02*
X185831770Y-47856235D01*
X185831770Y-48356235D01*
X185931770Y-48356235D01*
X185931770Y-47856235D01*
G37*
X185931770Y-47856235D02*
X185831770Y-47856235D01*
X185831770Y-48356235D01*
X185931770Y-48356235D01*
X185931770Y-47856235D01*
D12*
X161340800Y-50901600D02*
X194360800Y-50901600D01*
X161340800Y-33121600D02*
X161340800Y-50901600D01*
X194360800Y-33121600D02*
X161340800Y-33121600D01*
X194360800Y-50901600D02*
X194360800Y-33121600D01*
X191820800Y-35661600D02*
X191820800Y-33121600D01*
D14*
G04 #@! TO.C,U_VR_IC1*
X122793840Y-46523960D02*
X122793840Y-45263960D01*
X122793840Y-39703960D02*
X122793840Y-40963960D01*
X126553840Y-46523960D02*
X122793840Y-46523960D01*
X128803840Y-39703960D02*
X122793840Y-39703960D01*
D13*
G04 #@! TO.C,J_Audio_F1*
X83254120Y-30474920D02*
X89354120Y-30474920D01*
X83254120Y-42574920D02*
X89354120Y-42574920D01*
X83254120Y-30474920D02*
X83254120Y-42574920D01*
X89354120Y-30474920D02*
X89354120Y-42574920D01*
X83504120Y-30474920D02*
X83504120Y-28474920D01*
X89104120Y-30474920D02*
X89104120Y-28474920D01*
X83504120Y-28474920D02*
X89104120Y-28474920D01*
G04 #@! TO.C,proMicro1*
X188372704Y-35960123D02*
X187572704Y-35960123D01*
X187572704Y-36150600D01*
X187610800Y-36264885D01*
X187686990Y-36341076D01*
X187763180Y-36379171D01*
X187915561Y-36417266D01*
X188029847Y-36417266D01*
X188182228Y-36379171D01*
X188258419Y-36341076D01*
X188334609Y-36264885D01*
X188372704Y-36150600D01*
X188372704Y-35960123D01*
X187648895Y-36722028D02*
X187610800Y-36760123D01*
X187572704Y-36836314D01*
X187572704Y-37026790D01*
X187610800Y-37102980D01*
X187648895Y-37141076D01*
X187725085Y-37179171D01*
X187801276Y-37179171D01*
X187915561Y-37141076D01*
X188372704Y-36683933D01*
X188372704Y-37179171D01*
X178212704Y-35960123D02*
X177412704Y-35960123D01*
X177412704Y-36150600D01*
X177450800Y-36264885D01*
X177526990Y-36341076D01*
X177603180Y-36379171D01*
X177755561Y-36417266D01*
X177869847Y-36417266D01*
X178022228Y-36379171D01*
X178098419Y-36341076D01*
X178174609Y-36264885D01*
X178212704Y-36150600D01*
X178212704Y-35960123D01*
X177412704Y-36912504D02*
X177412704Y-36988695D01*
X177450800Y-37064885D01*
X177488895Y-37102980D01*
X177565085Y-37141076D01*
X177717466Y-37179171D01*
X177907942Y-37179171D01*
X178060323Y-37141076D01*
X178136514Y-37102980D01*
X178174609Y-37064885D01*
X178212704Y-36988695D01*
X178212704Y-36912504D01*
X178174609Y-36836314D01*
X178136514Y-36798219D01*
X178060323Y-36760123D01*
X177907942Y-36722028D01*
X177717466Y-36722028D01*
X177565085Y-36760123D01*
X177488895Y-36798219D01*
X177450800Y-36836314D01*
X177412704Y-36912504D01*
X180752704Y-35960123D02*
X179952704Y-35960123D01*
X179952704Y-36150600D01*
X179990800Y-36264885D01*
X180066990Y-36341076D01*
X180143180Y-36379171D01*
X180295561Y-36417266D01*
X180409847Y-36417266D01*
X180562228Y-36379171D01*
X180638419Y-36341076D01*
X180714609Y-36264885D01*
X180752704Y-36150600D01*
X180752704Y-35960123D01*
X180752704Y-37179171D02*
X180752704Y-36722028D01*
X180752704Y-36950600D02*
X179952704Y-36950600D01*
X180066990Y-36874409D01*
X180143180Y-36798219D01*
X180181276Y-36722028D01*
X182530800Y-35941076D02*
X182492704Y-35864885D01*
X182492704Y-35750600D01*
X182530800Y-35636314D01*
X182606990Y-35560123D01*
X182683180Y-35522028D01*
X182835561Y-35483933D01*
X182949847Y-35483933D01*
X183102228Y-35522028D01*
X183178419Y-35560123D01*
X183254609Y-35636314D01*
X183292704Y-35750600D01*
X183292704Y-35826790D01*
X183254609Y-35941076D01*
X183216514Y-35979171D01*
X182949847Y-35979171D01*
X182949847Y-35826790D01*
X183292704Y-36322028D02*
X182492704Y-36322028D01*
X183292704Y-36779171D01*
X182492704Y-36779171D01*
X183292704Y-37160123D02*
X182492704Y-37160123D01*
X182492704Y-37350600D01*
X182530800Y-37464885D01*
X182606990Y-37541076D01*
X182683180Y-37579171D01*
X182835561Y-37617266D01*
X182949847Y-37617266D01*
X183102228Y-37579171D01*
X183178419Y-37541076D01*
X183254609Y-37464885D01*
X183292704Y-37350600D01*
X183292704Y-37160123D01*
X185070800Y-35941076D02*
X185032704Y-35864885D01*
X185032704Y-35750600D01*
X185070800Y-35636314D01*
X185146990Y-35560123D01*
X185223180Y-35522028D01*
X185375561Y-35483933D01*
X185489847Y-35483933D01*
X185642228Y-35522028D01*
X185718419Y-35560123D01*
X185794609Y-35636314D01*
X185832704Y-35750600D01*
X185832704Y-35826790D01*
X185794609Y-35941076D01*
X185756514Y-35979171D01*
X185489847Y-35979171D01*
X185489847Y-35826790D01*
X185832704Y-36322028D02*
X185032704Y-36322028D01*
X185832704Y-36779171D01*
X185032704Y-36779171D01*
X185832704Y-37160123D02*
X185032704Y-37160123D01*
X185032704Y-37350600D01*
X185070800Y-37464885D01*
X185146990Y-37541076D01*
X185223180Y-37579171D01*
X185375561Y-37617266D01*
X185489847Y-37617266D01*
X185642228Y-37579171D01*
X185718419Y-37541076D01*
X185794609Y-37464885D01*
X185832704Y-37350600D01*
X185832704Y-37160123D01*
X175672704Y-35960123D02*
X174872704Y-35960123D01*
X174872704Y-36150600D01*
X174910800Y-36264885D01*
X174986990Y-36341076D01*
X175063180Y-36379171D01*
X175215561Y-36417266D01*
X175329847Y-36417266D01*
X175482228Y-36379171D01*
X175558419Y-36341076D01*
X175634609Y-36264885D01*
X175672704Y-36150600D01*
X175672704Y-35960123D01*
X175139371Y-37102980D02*
X175672704Y-37102980D01*
X174834609Y-36912504D02*
X175406038Y-36722028D01*
X175406038Y-37217266D01*
X173056514Y-36417266D02*
X173094609Y-36379171D01*
X173132704Y-36264885D01*
X173132704Y-36188695D01*
X173094609Y-36074409D01*
X173018419Y-35998219D01*
X172942228Y-35960123D01*
X172789847Y-35922028D01*
X172675561Y-35922028D01*
X172523180Y-35960123D01*
X172446990Y-35998219D01*
X172370800Y-36074409D01*
X172332704Y-36188695D01*
X172332704Y-36264885D01*
X172370800Y-36379171D01*
X172408895Y-36417266D01*
X172332704Y-37102980D02*
X172332704Y-36950600D01*
X172370800Y-36874409D01*
X172408895Y-36836314D01*
X172523180Y-36760123D01*
X172675561Y-36722028D01*
X172980323Y-36722028D01*
X173056514Y-36760123D01*
X173094609Y-36798219D01*
X173132704Y-36874409D01*
X173132704Y-37026790D01*
X173094609Y-37102980D01*
X173056514Y-37141076D01*
X172980323Y-37179171D01*
X172789847Y-37179171D01*
X172713657Y-37141076D01*
X172675561Y-37102980D01*
X172637466Y-37026790D01*
X172637466Y-36874409D01*
X172675561Y-36798219D01*
X172713657Y-36760123D01*
X172789847Y-36722028D01*
X170592704Y-35960123D02*
X169792704Y-35960123D01*
X169792704Y-36150600D01*
X169830800Y-36264885D01*
X169906990Y-36341076D01*
X169983180Y-36379171D01*
X170135561Y-36417266D01*
X170249847Y-36417266D01*
X170402228Y-36379171D01*
X170478419Y-36341076D01*
X170554609Y-36264885D01*
X170592704Y-36150600D01*
X170592704Y-35960123D01*
X169792704Y-36683933D02*
X169792704Y-37217266D01*
X170592704Y-36874409D01*
X167633657Y-35998219D02*
X167633657Y-36264885D01*
X168052704Y-36379171D02*
X168052704Y-35998219D01*
X167252704Y-35998219D01*
X167252704Y-36379171D01*
X167252704Y-37064885D02*
X167252704Y-36912504D01*
X167290800Y-36836314D01*
X167328895Y-36798219D01*
X167443180Y-36722028D01*
X167595561Y-36683933D01*
X167900323Y-36683933D01*
X167976514Y-36722028D01*
X168014609Y-36760123D01*
X168052704Y-36836314D01*
X168052704Y-36988695D01*
X168014609Y-37064885D01*
X167976514Y-37102980D01*
X167900323Y-37141076D01*
X167709847Y-37141076D01*
X167633657Y-37102980D01*
X167595561Y-37064885D01*
X167557466Y-36988695D01*
X167557466Y-36836314D01*
X167595561Y-36760123D01*
X167633657Y-36722028D01*
X167709847Y-36683933D01*
X165093657Y-36226790D02*
X165131752Y-36341076D01*
X165169847Y-36379171D01*
X165246038Y-36417266D01*
X165360323Y-36417266D01*
X165436514Y-36379171D01*
X165474609Y-36341076D01*
X165512704Y-36264885D01*
X165512704Y-35960123D01*
X164712704Y-35960123D01*
X164712704Y-36226790D01*
X164750800Y-36302980D01*
X164788895Y-36341076D01*
X164865085Y-36379171D01*
X164941276Y-36379171D01*
X165017466Y-36341076D01*
X165055561Y-36302980D01*
X165093657Y-36226790D01*
X165093657Y-35960123D01*
X164979371Y-37102980D02*
X165512704Y-37102980D01*
X164674609Y-36912504D02*
X165246038Y-36722028D01*
X165246038Y-37217266D01*
X162553657Y-36226790D02*
X162591752Y-36341076D01*
X162629847Y-36379171D01*
X162706038Y-36417266D01*
X162820323Y-36417266D01*
X162896514Y-36379171D01*
X162934609Y-36341076D01*
X162972704Y-36264885D01*
X162972704Y-35960123D01*
X162172704Y-35960123D01*
X162172704Y-36226790D01*
X162210800Y-36302980D01*
X162248895Y-36341076D01*
X162325085Y-36379171D01*
X162401276Y-36379171D01*
X162477466Y-36341076D01*
X162515561Y-36302980D01*
X162553657Y-36226790D01*
X162553657Y-35960123D01*
X162172704Y-37141076D02*
X162172704Y-36760123D01*
X162553657Y-36722028D01*
X162515561Y-36760123D01*
X162477466Y-36836314D01*
X162477466Y-37026790D01*
X162515561Y-37102980D01*
X162553657Y-37141076D01*
X162629847Y-37179171D01*
X162820323Y-37179171D01*
X162896514Y-37141076D01*
X162934609Y-37102980D01*
X162972704Y-37026790D01*
X162972704Y-36836314D01*
X162934609Y-36760123D01*
X162896514Y-36722028D01*
X162553657Y-47148790D02*
X162591752Y-47263076D01*
X162629847Y-47301171D01*
X162706038Y-47339266D01*
X162820323Y-47339266D01*
X162896514Y-47301171D01*
X162934609Y-47263076D01*
X162972704Y-47186885D01*
X162972704Y-46882123D01*
X162172704Y-46882123D01*
X162172704Y-47148790D01*
X162210800Y-47224980D01*
X162248895Y-47263076D01*
X162325085Y-47301171D01*
X162401276Y-47301171D01*
X162477466Y-47263076D01*
X162515561Y-47224980D01*
X162553657Y-47148790D01*
X162553657Y-46882123D01*
X162172704Y-48024980D02*
X162172704Y-47872600D01*
X162210800Y-47796409D01*
X162248895Y-47758314D01*
X162363180Y-47682123D01*
X162515561Y-47644028D01*
X162820323Y-47644028D01*
X162896514Y-47682123D01*
X162934609Y-47720219D01*
X162972704Y-47796409D01*
X162972704Y-47948790D01*
X162934609Y-48024980D01*
X162896514Y-48063076D01*
X162820323Y-48101171D01*
X162629847Y-48101171D01*
X162553657Y-48063076D01*
X162515561Y-48024980D01*
X162477466Y-47948790D01*
X162477466Y-47796409D01*
X162515561Y-47720219D01*
X162553657Y-47682123D01*
X162629847Y-47644028D01*
X167633657Y-47148790D02*
X167671752Y-47263076D01*
X167709847Y-47301171D01*
X167786038Y-47339266D01*
X167900323Y-47339266D01*
X167976514Y-47301171D01*
X168014609Y-47263076D01*
X168052704Y-47186885D01*
X168052704Y-46882123D01*
X167252704Y-46882123D01*
X167252704Y-47148790D01*
X167290800Y-47224980D01*
X167328895Y-47263076D01*
X167405085Y-47301171D01*
X167481276Y-47301171D01*
X167557466Y-47263076D01*
X167595561Y-47224980D01*
X167633657Y-47148790D01*
X167633657Y-46882123D01*
X167252704Y-47605933D02*
X167252704Y-48101171D01*
X167557466Y-47834504D01*
X167557466Y-47948790D01*
X167595561Y-48024980D01*
X167633657Y-48063076D01*
X167709847Y-48101171D01*
X167900323Y-48101171D01*
X167976514Y-48063076D01*
X168014609Y-48024980D01*
X168052704Y-47948790D01*
X168052704Y-47720219D01*
X168014609Y-47644028D01*
X167976514Y-47605933D01*
X170173657Y-47148790D02*
X170211752Y-47263076D01*
X170249847Y-47301171D01*
X170326038Y-47339266D01*
X170440323Y-47339266D01*
X170516514Y-47301171D01*
X170554609Y-47263076D01*
X170592704Y-47186885D01*
X170592704Y-46882123D01*
X169792704Y-46882123D01*
X169792704Y-47148790D01*
X169830800Y-47224980D01*
X169868895Y-47263076D01*
X169945085Y-47301171D01*
X170021276Y-47301171D01*
X170097466Y-47263076D01*
X170135561Y-47224980D01*
X170173657Y-47148790D01*
X170173657Y-46882123D01*
X170592704Y-48101171D02*
X170592704Y-47644028D01*
X170592704Y-47872600D02*
X169792704Y-47872600D01*
X169906990Y-47796409D01*
X169983180Y-47720219D01*
X170021276Y-47644028D01*
X180333657Y-47205933D02*
X180333657Y-46939266D01*
X180752704Y-46939266D02*
X179952704Y-46939266D01*
X179952704Y-47320219D01*
X180219371Y-47967838D02*
X180752704Y-47967838D01*
X179914609Y-47777361D02*
X180486038Y-47586885D01*
X180486038Y-48082123D01*
X182492704Y-46405933D02*
X183292704Y-46672600D01*
X182492704Y-46939266D01*
X183216514Y-47663076D02*
X183254609Y-47624980D01*
X183292704Y-47510695D01*
X183292704Y-47434504D01*
X183254609Y-47320219D01*
X183178419Y-47244028D01*
X183102228Y-47205933D01*
X182949847Y-47167838D01*
X182835561Y-47167838D01*
X182683180Y-47205933D01*
X182606990Y-47244028D01*
X182530800Y-47320219D01*
X182492704Y-47434504D01*
X182492704Y-47510695D01*
X182530800Y-47624980D01*
X182568895Y-47663076D01*
X183216514Y-48463076D02*
X183254609Y-48424980D01*
X183292704Y-48310695D01*
X183292704Y-48234504D01*
X183254609Y-48120219D01*
X183178419Y-48044028D01*
X183102228Y-48005933D01*
X182949847Y-47967838D01*
X182835561Y-47967838D01*
X182683180Y-48005933D01*
X182606990Y-48044028D01*
X182530800Y-48120219D01*
X182492704Y-48234504D01*
X182492704Y-48310695D01*
X182530800Y-48424980D01*
X182568895Y-48463076D01*
X187610800Y-46863076D02*
X187572704Y-46786885D01*
X187572704Y-46672600D01*
X187610800Y-46558314D01*
X187686990Y-46482123D01*
X187763180Y-46444028D01*
X187915561Y-46405933D01*
X188029847Y-46405933D01*
X188182228Y-46444028D01*
X188258419Y-46482123D01*
X188334609Y-46558314D01*
X188372704Y-46672600D01*
X188372704Y-46748790D01*
X188334609Y-46863076D01*
X188296514Y-46901171D01*
X188029847Y-46901171D01*
X188029847Y-46748790D01*
X188372704Y-47244028D02*
X187572704Y-47244028D01*
X188372704Y-47701171D01*
X187572704Y-47701171D01*
X188372704Y-48082123D02*
X187572704Y-48082123D01*
X187572704Y-48272600D01*
X187610800Y-48386885D01*
X187686990Y-48463076D01*
X187763180Y-48501171D01*
X187915561Y-48539266D01*
X188029847Y-48539266D01*
X188182228Y-48501171D01*
X188258419Y-48463076D01*
X188334609Y-48386885D01*
X188372704Y-48272600D01*
X188372704Y-48082123D01*
X190912704Y-46920219D02*
X190531752Y-46653552D01*
X190912704Y-46463076D02*
X190112704Y-46463076D01*
X190112704Y-46767838D01*
X190150800Y-46844028D01*
X190188895Y-46882123D01*
X190265085Y-46920219D01*
X190379371Y-46920219D01*
X190455561Y-46882123D01*
X190493657Y-46844028D01*
X190531752Y-46767838D01*
X190531752Y-46463076D01*
X190684133Y-47224980D02*
X190684133Y-47605933D01*
X190912704Y-47148790D02*
X190112704Y-47415457D01*
X190912704Y-47682123D01*
X190112704Y-47872600D02*
X190912704Y-48063076D01*
X190341276Y-48215457D01*
X190912704Y-48367838D01*
X190112704Y-48558314D01*
X177793657Y-47205933D02*
X177793657Y-46939266D01*
X178212704Y-46939266D02*
X177412704Y-46939266D01*
X177412704Y-47320219D01*
X177412704Y-48005933D02*
X177412704Y-47624980D01*
X177793657Y-47586885D01*
X177755561Y-47624980D01*
X177717466Y-47701171D01*
X177717466Y-47891647D01*
X177755561Y-47967838D01*
X177793657Y-48005933D01*
X177869847Y-48044028D01*
X178060323Y-48044028D01*
X178136514Y-48005933D01*
X178174609Y-47967838D01*
X178212704Y-47891647D01*
X178212704Y-47701171D01*
X178174609Y-47624980D01*
X178136514Y-47586885D01*
X175253657Y-47205933D02*
X175253657Y-46939266D01*
X175672704Y-46939266D02*
X174872704Y-46939266D01*
X174872704Y-47320219D01*
X174872704Y-47967838D02*
X174872704Y-47815457D01*
X174910800Y-47739266D01*
X174948895Y-47701171D01*
X175063180Y-47624980D01*
X175215561Y-47586885D01*
X175520323Y-47586885D01*
X175596514Y-47624980D01*
X175634609Y-47663076D01*
X175672704Y-47739266D01*
X175672704Y-47891647D01*
X175634609Y-47967838D01*
X175596514Y-48005933D01*
X175520323Y-48044028D01*
X175329847Y-48044028D01*
X175253657Y-48005933D01*
X175215561Y-47967838D01*
X175177466Y-47891647D01*
X175177466Y-47739266D01*
X175215561Y-47663076D01*
X175253657Y-47624980D01*
X175329847Y-47586885D01*
X172713657Y-47205933D02*
X172713657Y-46939266D01*
X173132704Y-46939266D02*
X172332704Y-46939266D01*
X172332704Y-47320219D01*
X172332704Y-47548790D02*
X172332704Y-48082123D01*
X173132704Y-47739266D01*
X165093657Y-47148790D02*
X165131752Y-47263076D01*
X165169847Y-47301171D01*
X165246038Y-47339266D01*
X165360323Y-47339266D01*
X165436514Y-47301171D01*
X165474609Y-47263076D01*
X165512704Y-47186885D01*
X165512704Y-46882123D01*
X164712704Y-46882123D01*
X164712704Y-47148790D01*
X164750800Y-47224980D01*
X164788895Y-47263076D01*
X164865085Y-47301171D01*
X164941276Y-47301171D01*
X165017466Y-47263076D01*
X165055561Y-47224980D01*
X165093657Y-47148790D01*
X165093657Y-46882123D01*
X164788895Y-47644028D02*
X164750800Y-47682123D01*
X164712704Y-47758314D01*
X164712704Y-47948790D01*
X164750800Y-48024980D01*
X164788895Y-48063076D01*
X164865085Y-48101171D01*
X164941276Y-48101171D01*
X165055561Y-48063076D01*
X165512704Y-47605933D01*
X165512704Y-48101171D01*
X190112704Y-36249251D02*
X190112704Y-36706394D01*
X190912704Y-36477823D02*
X190112704Y-36477823D01*
X190112704Y-36896870D02*
X190912704Y-37430204D01*
X190112704Y-37430204D02*
X190912704Y-36896870D01*
X190112704Y-37887347D02*
X190112704Y-37963537D01*
X190150800Y-38039728D01*
X190188895Y-38077823D01*
X190265085Y-38115918D01*
X190417466Y-38154013D01*
X190607942Y-38154013D01*
X190760323Y-38115918D01*
X190836514Y-38077823D01*
X190874609Y-38039728D01*
X190912704Y-37963537D01*
X190912704Y-37887347D01*
X190874609Y-37811156D01*
X190836514Y-37773061D01*
X190760323Y-37734966D01*
X190607942Y-37696870D01*
X190417466Y-37696870D01*
X190265085Y-37734966D01*
X190188895Y-37773061D01*
X190150800Y-37811156D01*
X190112704Y-37887347D01*
X190074609Y-39068299D02*
X191103180Y-38382585D01*
X190912704Y-39334966D02*
X190112704Y-39334966D01*
X190112704Y-39525442D01*
X190150800Y-39639728D01*
X190226990Y-39715918D01*
X190303180Y-39754013D01*
X190455561Y-39792108D01*
X190569847Y-39792108D01*
X190722228Y-39754013D01*
X190798419Y-39715918D01*
X190874609Y-39639728D01*
X190912704Y-39525442D01*
X190912704Y-39334966D01*
X190112704Y-40058775D02*
X190112704Y-40554013D01*
X190417466Y-40287347D01*
X190417466Y-40401632D01*
X190455561Y-40477823D01*
X190493657Y-40515918D01*
X190569847Y-40554013D01*
X190760323Y-40554013D01*
X190836514Y-40515918D01*
X190874609Y-40477823D01*
X190912704Y-40401632D01*
X190912704Y-40173061D01*
X190874609Y-40096870D01*
X190836514Y-40058775D01*
X185814609Y-46518266D02*
X185852704Y-46632552D01*
X185852704Y-46823028D01*
X185814609Y-46899219D01*
X185776514Y-46937314D01*
X185700323Y-46975409D01*
X185624133Y-46975409D01*
X185547942Y-46937314D01*
X185509847Y-46899219D01*
X185471752Y-46823028D01*
X185433657Y-46670647D01*
X185395561Y-46594457D01*
X185357466Y-46556361D01*
X185281276Y-46518266D01*
X185205085Y-46518266D01*
X185128895Y-46556361D01*
X185090800Y-46594457D01*
X185052704Y-46670647D01*
X185052704Y-46861123D01*
X185090800Y-46975409D01*
X185052704Y-47203980D02*
X185052704Y-47661123D01*
X185852704Y-47432552D02*
X185052704Y-47432552D01*
G04 #@! TO.C,U_VR_IC1*
X127894316Y-38066340D02*
X127894316Y-38875864D01*
X127846697Y-38971102D01*
X127799078Y-39018721D01*
X127703840Y-39066340D01*
X127513363Y-39066340D01*
X127418125Y-39018721D01*
X127370506Y-38971102D01*
X127322887Y-38875864D01*
X127322887Y-38066340D01*
X127084792Y-39161579D02*
X126322887Y-39161579D01*
X126227649Y-38066340D02*
X125894316Y-39066340D01*
X125560982Y-38066340D01*
X124656220Y-39066340D02*
X124989554Y-38590150D01*
X125227649Y-39066340D02*
X125227649Y-38066340D01*
X124846697Y-38066340D01*
X124751459Y-38113960D01*
X124703840Y-38161579D01*
X124656220Y-38256817D01*
X124656220Y-38399674D01*
X124703840Y-38494912D01*
X124751459Y-38542531D01*
X124846697Y-38590150D01*
X125227649Y-38590150D01*
X124465744Y-39161579D02*
X123703840Y-39161579D01*
X123465744Y-39066340D02*
X123465744Y-38066340D01*
X122418125Y-38971102D02*
X122465744Y-39018721D01*
X122608601Y-39066340D01*
X122703840Y-39066340D01*
X122846697Y-39018721D01*
X122941935Y-38923483D01*
X122989554Y-38828245D01*
X123037173Y-38637769D01*
X123037173Y-38494912D01*
X122989554Y-38304436D01*
X122941935Y-38209198D01*
X122846697Y-38113960D01*
X122703840Y-38066340D01*
X122608601Y-38066340D01*
X122465744Y-38113960D01*
X122418125Y-38161579D01*
X121465744Y-39066340D02*
X122037173Y-39066340D01*
X121751459Y-39066340D02*
X121751459Y-38066340D01*
X121846697Y-38209198D01*
X121941935Y-38304436D01*
X122037173Y-38352055D01*
G04 #@! TD*
M02*
