G04 #@! TF.GenerationSoftware,KiCad,Pcbnew,(5.0.2)-1*
G04 #@! TF.CreationDate,2019-01-20T19:55:00+05:30*
G04 #@! TF.ProjectId,ErgodoxBle,4572676f-646f-4784-926c-652e6b696361,rev?*
G04 #@! TF.SameCoordinates,Original*
G04 #@! TF.FileFunction,Profile,NP*
%FSLAX46Y46*%
G04 Gerber Fmt 4.6, Leading zero omitted, Abs format (unit mm)*
G04 Created by KiCad (PCBNEW (5.0.2)-1) date 1/20/2019 7:55:00 PM*
%MOMM*%
%LPD*%
G01*
G04 APERTURE LIST*
%ADD10C,0.150000*%
G04 APERTURE END LIST*
D10*
X132080000Y-17653000D02*
X132969000Y-17653000D01*
X162560000Y-107315000D02*
G75*
G02X161290000Y-106045000I0J1270000D01*
G01*
X134493000Y-15875000D02*
X132969000Y-17653000D01*
X134493000Y-15875000D02*
X134620000Y-15875000D01*
X129413000Y-17653000D02*
X132080000Y-17653000D01*
X21844000Y-17653000D02*
X129413000Y-17653000D01*
X18923000Y-20701000D02*
X21844000Y-17653000D01*
X18923000Y-128397000D02*
X18923000Y-20701000D01*
X28067000Y-137541000D02*
X18923000Y-128397000D01*
X97282000Y-137541000D02*
X28067000Y-137541000D01*
X168275000Y-170815000D02*
X97282000Y-137541000D01*
X175260000Y-173990000D02*
X168275000Y-170815000D01*
X179070000Y-172720000D02*
X175260000Y-173990000D01*
X180340000Y-170180000D02*
X179070000Y-172720000D01*
X200660000Y-127000000D02*
X180340000Y-170180000D01*
X200660000Y-126365000D02*
X200660000Y-127000000D01*
X199390000Y-122555000D02*
X200660000Y-126365000D01*
X167005000Y-107315000D02*
X199390000Y-122555000D01*
X162560000Y-107315000D02*
X167005000Y-107315000D01*
X161290000Y-20955000D02*
X161290000Y-106045000D01*
X158115000Y-17780000D02*
X161290000Y-20955000D01*
X143510000Y-17780000D02*
X158115000Y-17780000D01*
X142240000Y-16510000D02*
X143510000Y-17780000D01*
X141605000Y-15875000D02*
X142240000Y-16510000D01*
X134620000Y-15875000D02*
X141605000Y-15875000D01*
M02*
