M48
;DRILL file {KiCad (5.0.2)-1} date 1/20/2019 1:43:31 PM
;FORMAT={-:-/ absolute / inch / decimal}
FMAT,2
INCH,TZ
T1C0.0118
T2C0.0157
T3C0.0394
T4C0.0430
T5C0.0591
%
G90
G05
T1
X3.2173Y-1.2195
X3.2527Y-1.2195
T2
X1.719Y-1.5695
X1.7975Y-0.961
X1.8015Y-0.8595
X2.099Y-1.134
X2.158Y-1.572
X2.6305Y-0.8175
X2.682Y-0.7295
X2.6945Y-1.0415
X2.8215Y-0.9705
X4.2125Y-5.3265
X4.609Y-0.917
X5.4295Y-1.0725
X5.4345Y-0.8635
X5.4385Y-0.758
X5.5615Y-0.9565
X5.592Y-4.5845
X5.6787Y-3.9068
X5.681Y-4.4862
X5.7715Y-0.927
X6.1195Y-4.7595
X6.5465Y-6.145
T3
X2.61Y-4.8375
X2.61Y-5.1445
X4.8595Y-1.742
X4.8595Y-2.049
X2.608Y-2.6425
X2.608Y-2.9495
X5.609Y-3.322
X5.609Y-3.629
X3.1425Y-1.015
X3.4495Y-1.015
X5.815Y-4.4315
X6.122Y-4.4315
X3.359Y-4.7003
X3.359Y-5.0074
X4.109Y-2.4975
X4.109Y-2.8045
X5.836Y-2.355
X6.143Y-2.355
X1.678Y-3.3845
X1.678Y-3.6915
X5.8495Y-3.34
X6.1565Y-3.34
X3.1865Y-0.8275
X3.4935Y-0.8275
X2.607Y-1.8725
X2.607Y-2.1795
X4.852Y-4.769
X4.852Y-5.076
X1.8585Y-4.8755
X1.8585Y-5.1825
X1.676Y-2.631
X1.676Y-2.938
X4.8595Y-3.2785
X4.8595Y-3.5855
X3.3585Y-3.266
X3.3585Y-3.573
X5.065Y-4.8545
X5.065Y-5.1615
X5.609Y-4.0625
X5.609Y-4.3695
X3.358Y-2.462
X3.358Y-2.769
X1.677Y-4.1635
X1.677Y-4.4705
X5.2315Y-4.891
X5.2315Y-5.198
X7.0623Y-5.0526
X7.1921Y-4.7743
X4.1045Y-1.7535
X4.1045Y-2.0605
X4.859Y-4.041
X4.859Y-4.348
X5.611Y-1.8175
X5.611Y-2.1245
X6.3868Y-4.7316
X6.5166Y-4.4533
X7.2233Y-5.3676
X7.5017Y-5.4974
X3.3575Y-1.6995
X3.3575Y-2.0065
X3.36Y-4.0525
X3.36Y-4.3595
X5.61Y-2.537
X5.61Y-2.844
X4.107Y-3.208
X4.107Y-3.515
X6.9038Y-6.0531
X7.1822Y-6.1829
X4.1055Y-4.721
X4.1055Y-5.028
X1.67Y-1.924
X1.67Y-2.231
X4.1095Y-3.969
X4.1095Y-4.276
X4.8575Y-2.536
X4.8575Y-2.843
X2.6105Y-3.342
X2.6105Y-3.649
X2.6095Y-4.126
X2.6095Y-4.433
T4
X1.039Y-0.775
X1.039Y-1.375
X1.139Y-0.775
X1.139Y-1.375
X1.239Y-0.775
X1.239Y-1.375
X1.339Y-0.775
X1.339Y-1.375
X1.439Y-0.775
X1.439Y-1.375
X1.539Y-0.775
X1.539Y-1.375
X1.639Y-0.775
X1.639Y-1.375
X1.739Y-0.775
X1.739Y-1.375
X1.839Y-0.775
X1.839Y-1.375
X1.939Y-0.775
X1.939Y-1.375
X2.039Y-0.775
X2.039Y-1.375
X2.139Y-0.775
X2.139Y-1.375
T5
X4.3659Y-1.7835G85X4.334Y-1.841
G05
X4.384Y-1.741G85X4.3856Y-1.7638
G05
X4.584Y-1.741G85X4.5824Y-1.7638
G05
X4.6021Y-1.7835G85X4.634Y-1.841
G05
X4.3657Y-3.2849G85X4.3338Y-3.3424
G05
X4.3838Y-3.2424G85X4.3854Y-3.2652
G05
X4.5838Y-3.2424G85X4.5822Y-3.2652
G05
X4.6019Y-3.2849G85X4.6338Y-3.3424
G05
X1.367Y-4.9093G85X1.3351Y-4.9668
G05
X1.3851Y-4.8668G85X1.3867Y-4.8896
G05
X1.5851Y-4.8668G85X1.5835Y-4.8896
G05
X1.6032Y-4.9093G85X1.6351Y-4.9668
G05
X6.7467Y-4.561G85X6.6935Y-4.5996
G05
X6.7811Y-4.5301G85X6.7729Y-4.5514
G05
X6.9623Y-4.6146G85X6.9513Y-4.6346
G05
X6.9608Y-4.6608G85X6.9654Y-4.7264
G05
X2.8664Y-4.0345G85X2.8345Y-4.092
G05
X2.8845Y-3.992G85X2.8861Y-4.0148
G05
X3.0845Y-3.992G85X3.0829Y-4.0148
G05
X3.1026Y-4.0345G85X3.1345Y-4.092
G05
X5.1154Y-4.0824G85X5.0835Y-4.1399
G05
X5.1335Y-4.0399G85X5.1351Y-4.0627
G05
X5.3335Y-4.0399G85X5.3319Y-4.0627
G05
X5.3516Y-4.0824G85X5.3835Y-4.1399
G05
X2.1159Y-1.91G85X2.084Y-1.9675
G05
X2.134Y-1.8675G85X2.1356Y-1.8903
G05
X2.334Y-1.8675G85X2.3324Y-1.8903
G05
X2.3521Y-1.91G85X2.384Y-1.9675
G05
X4.3659Y-2.5345G85X4.334Y-2.592
G05
X4.384Y-2.492G85X4.3856Y-2.5148
G05
X4.584Y-2.492G85X4.5824Y-2.5148
G05
X4.6021Y-2.5345G85X4.634Y-2.592
G05
X2.8654Y-3.2839G85X2.8335Y-3.3414
G05
X2.8835Y-3.2414G85X2.8851Y-3.2642
G05
X3.0835Y-3.2414G85X3.0819Y-3.2642
G05
X3.1016Y-3.2839G85X3.1335Y-3.3414
G05
X3.6161Y-3.9726G85X3.5842Y-4.0301
G05
X3.6342Y-3.9301G85X3.6358Y-3.9529
G05
X3.8342Y-3.9301G85X3.8326Y-3.9529
G05
X3.8523Y-3.9726G85X3.8842Y-4.0301
G05
X6.1411Y-2.8116G85X6.0836Y-2.7797
G05
X6.1411Y-3.0478G85X6.0836Y-3.0797
G05
X6.1836Y-2.8297G85X6.1608Y-2.8313
G05
X6.1836Y-3.0297G85X6.1608Y-3.0281
G05
X6.4058Y-5.9466G85X6.3402Y-5.9512
G05
X6.452Y-5.9481G85X6.432Y-5.9371
G05
X6.5056Y-5.7325G85X6.467Y-5.6793
G05
X6.5365Y-5.7669G85X6.5152Y-5.7587
G05
X6.1423Y-3.9365G85X6.0848Y-3.9046
G05
X6.1423Y-4.1727G85X6.0848Y-4.2046
G05
X6.1848Y-3.9546G85X6.162Y-3.9562
G05
X6.1848Y-4.1546G85X6.162Y-4.153
G05
X1.1779Y-1.9106G85X1.146Y-1.9681
G05
X1.196Y-1.8681G85X1.1976Y-1.8909
G05
X1.396Y-1.8681G85X1.3944Y-1.8909
G05
X1.4141Y-1.9106G85X1.446Y-1.9681
G05
X3.6159Y-2.4725G85X3.584Y-2.53
G05
X3.634Y-2.43G85X3.6356Y-2.4528
G05
X3.834Y-2.43G85X3.8324Y-2.4528
G05
X3.8521Y-2.4725G85X3.884Y-2.53
G05
X2.1156Y-3.4092G85X2.0837Y-3.4667
G05
X2.1337Y-3.3667G85X2.1353Y-3.3895
G05
X2.3337Y-3.3667G85X2.3321Y-3.3895
G05
X2.3518Y-3.4092G85X2.3837Y-3.4667
G05
X2.1163Y-4.9108G85X2.0844Y-4.9683
G05
X2.1344Y-4.8683G85X2.136Y-4.8911
G05
X2.3344Y-4.8683G85X2.3328Y-4.8911
G05
X2.3525Y-4.9108G85X2.3844Y-4.9683
G05
X3.6161Y-3.2206G85X3.5842Y-3.2781
G05
X3.6342Y-3.1781G85X3.6358Y-3.2009
G05
X3.8342Y-3.1781G85X3.8326Y-3.2009
G05
X3.8523Y-3.2206G85X3.8842Y-3.2781
G05
X7.4278Y-4.8795G85X7.3746Y-4.9181
G05
X7.4622Y-4.8486G85X7.454Y-4.8699
G05
X7.6434Y-4.9331G85X7.6324Y-4.9531
G05
X7.6419Y-4.9793G85X7.6465Y-5.0449
G05
X3.6159Y-1.7225G85X3.584Y-1.78
G05
X3.634Y-1.68G85X3.6356Y-1.7028
G05
X3.834Y-1.68G85X3.8324Y-1.7028
G05
X3.8521Y-1.7225G85X3.884Y-1.78
G05
X2.8649Y-2.5345G85X2.833Y-2.592
G05
X2.883Y-2.492G85X2.8846Y-2.5148
G05
X3.083Y-2.492G85X3.0814Y-2.5148
G05
X3.1011Y-2.5345G85X3.133Y-2.592
G05
X1.1792Y-3.4103G85X1.1473Y-3.4678
G05
X1.1973Y-3.3678G85X1.1989Y-3.3906
G05
X1.3973Y-3.3678G85X1.3957Y-3.3906
G05
X1.4154Y-3.4103G85X1.4473Y-3.4678
G05
X5.4125Y-5.4616G85X5.4338Y-5.4698
G05
X5.4434Y-5.496G85X5.482Y-5.5492
G05
X5.497Y-5.2804G85X5.517Y-5.2914
G05
X5.5432Y-5.2819G85X5.6088Y-5.2773
G05
X5.1169Y-1.8345G85X5.085Y-1.892
G05
X5.135Y-1.792G85X5.1366Y-1.8148
G05
X5.335Y-1.792G85X5.3334Y-1.8148
G05
X5.3531Y-1.8345G85X5.385Y-1.892
G05
X2.1159Y-2.6606G85X2.084Y-2.7181
G05
X2.134Y-2.6181G85X2.1356Y-2.6409
G05
X2.334Y-2.6181G85X2.3324Y-2.6409
G05
X2.3521Y-2.6606G85X2.384Y-2.7181
G05
X1.179Y-4.1591G85X1.1471Y-4.2166
G05
X1.1971Y-4.1166G85X1.1987Y-4.1394
G05
X1.3971Y-4.1166G85X1.3955Y-4.1394
G05
X1.4152Y-4.1591G85X1.4471Y-4.2166
G05
X7.1134Y-5.5585G85X7.0602Y-5.5971
G05
X7.1478Y-5.5276G85X7.1396Y-5.5489
G05
X7.329Y-5.6121G85X7.318Y-5.6321
G05
X7.3275Y-5.6583G85X7.3321Y-5.7239
G05
X2.8659Y-1.787G85X2.834Y-1.8445
G05
X2.884Y-1.7445G85X2.8856Y-1.7673
G05
X3.084Y-1.7445G85X3.0824Y-1.7673
G05
X3.1021Y-1.787G85X3.134Y-1.8445
G05
X5.8655Y-1.8337G85X5.8336Y-1.8912
G05
X5.8836Y-1.7912G85X5.8852Y-1.814
G05
X6.0836Y-1.7912G85X6.082Y-1.814
G05
X6.1017Y-1.8337G85X6.1336Y-1.8912
G05
X4.366Y-4.7845G85X4.3341Y-4.8419
G05
X4.3841Y-4.742G85X4.3857Y-4.7647
G05
X4.5841Y-4.742G85X4.5825Y-4.7647
G05
X4.6022Y-4.7845G85X4.6341Y-4.8419
G05
X5.1169Y-2.5845G85X5.085Y-2.642
G05
X5.135Y-2.542G85X5.1366Y-2.5648
G05
X5.335Y-2.542G85X5.3334Y-2.5648
G05
X5.3531Y-2.5845G85X5.385Y-2.642
G05
X4.3655Y-4.0348G85X4.3336Y-4.0923
G05
X4.3836Y-3.9923G85X4.3852Y-4.0151
G05
X4.5836Y-3.9923G85X4.582Y-4.0151
G05
X4.6017Y-4.0348G85X4.6336Y-4.0923
G05
X2.8663Y-4.7844G85X2.8344Y-4.8419
G05
X2.8844Y-4.7419G85X2.886Y-4.7647
G05
X3.0844Y-4.7419G85X3.0828Y-4.7647
G05
X3.1025Y-4.7844G85X3.1344Y-4.8419
G05
X5.1168Y-3.3358G85X5.0849Y-3.3933
G05
X5.1349Y-3.2933G85X5.1365Y-3.3161
G05
X5.3349Y-3.2933G85X5.3333Y-3.3161
G05
X5.353Y-3.3358G85X5.3849Y-3.3933
G05
X3.6146Y-4.7219G85X3.5827Y-4.7794
G05
X3.6327Y-4.6794G85X3.6343Y-4.7022
G05
X3.8327Y-4.6794G85X3.8311Y-4.7022
G05
X3.8508Y-4.7219G85X3.8827Y-4.7794
G05
X1.1787Y-2.6596G85X1.1468Y-2.7171
G05
X1.1968Y-2.6171G85X1.1984Y-2.6399
G05
X1.3968Y-2.6171G85X1.3952Y-2.6399
G05
X1.4149Y-2.6596G85X1.4468Y-2.7171
G05
X6.7935Y-6.2369G85X6.7403Y-6.2755
G05
X6.8279Y-6.206G85X6.8197Y-6.2273
G05
X7.0091Y-6.2905G85X6.9981Y-6.3105
G05
X7.0076Y-6.3367G85X7.0122Y-6.4023
G05
X2.1163Y-4.1599G85X2.0844Y-4.2174
G05
X2.1344Y-4.1174G85X2.136Y-4.1402
G05
X2.3344Y-4.1174G85X2.3328Y-4.1402
G05
X2.3525Y-4.1599G85X2.3844Y-4.2174
G05
T0
M30
