G04 #@! TF.GenerationSoftware,KiCad,Pcbnew,(5.0.2)-1*
G04 #@! TF.CreationDate,2019-01-22T23:05:01+05:30*
G04 #@! TF.ProjectId,ErgodoxBle,4572676f-646f-4784-926c-652e6b696361,rev?*
G04 #@! TF.SameCoordinates,Original*
G04 #@! TF.FileFunction,Other,ECO2*
%FSLAX46Y46*%
G04 Gerber Fmt 4.6, Leading zero omitted, Abs format (unit mm)*
G04 Created by KiCad (PCBNEW (5.0.2)-1) date 1/22/2019 11:05:01 PM*
%MOMM*%
%LPD*%
G01*
G04 APERTURE LIST*
%ADD10C,0.152400*%
G04 APERTURE END LIST*
D10*
G04 #@! TO.C,SW3:13*
X184467500Y-98117660D02*
X198437500Y-98117660D01*
X198437500Y-98117660D02*
X198437500Y-112087660D01*
X198437500Y-112087660D02*
X184467500Y-112087660D01*
X184467500Y-112087660D02*
X184467500Y-98117660D01*
G04 #@! TO.C,SW2:13*
X184467500Y-117167660D02*
X198437500Y-117167660D01*
X198437500Y-117167660D02*
X198437500Y-131137660D01*
X198437500Y-131137660D02*
X184467500Y-131137660D01*
X184467500Y-131137660D02*
X184467500Y-117167660D01*
G04 #@! TO.C,SW0:7*
X25416392Y-139890129D02*
X38077511Y-133986152D01*
X38077511Y-133986152D02*
X43981488Y-146647271D01*
X43981488Y-146647271D02*
X31320369Y-152551248D01*
X31320369Y-152551248D02*
X25416392Y-139890129D01*
G04 #@! TO.C,SW0:8*
X42680772Y-131840869D02*
X55341891Y-125936892D01*
X55341891Y-125936892D02*
X61245868Y-138598011D01*
X61245868Y-138598011D02*
X48584749Y-144501988D01*
X48584749Y-144501988D02*
X42680772Y-131840869D01*
G04 #@! TO.C,SW0:9*
X39369629Y-169815628D02*
X33465652Y-157154509D01*
X52030748Y-163911651D02*
X39369629Y-169815628D01*
X46126771Y-151250532D02*
X52030748Y-163911651D01*
X33465652Y-157154509D02*
X46126771Y-151250532D01*
G04 #@! TO.C,SW0:10*
X90585408Y-156444051D02*
X77924289Y-162348028D01*
X84681431Y-143782932D02*
X90585408Y-156444051D01*
X72020312Y-149686909D02*
X84681431Y-143782932D01*
X77924289Y-162348028D02*
X72020312Y-149686909D01*
G04 #@! TO.C,SW0:11*
X60659909Y-170399828D02*
X54755932Y-157738709D01*
X54755932Y-157738709D02*
X67417051Y-151834732D01*
X67417051Y-151834732D02*
X73321028Y-164495851D01*
X73321028Y-164495851D02*
X60659909Y-170399828D01*
G04 #@! TO.C,SW0:12*
X47421429Y-187082548D02*
X41517452Y-174421429D01*
X60082548Y-181178571D02*
X47421429Y-187082548D01*
X54178571Y-168517452D02*
X60082548Y-181178571D01*
X41517452Y-174421429D02*
X54178571Y-168517452D01*
G04 #@! TO.C,SW1:9*
X103505000Y-133042660D02*
X117475000Y-133042660D01*
X117475000Y-133042660D02*
X117475000Y-147012660D01*
X117475000Y-147012660D02*
X103505000Y-147012660D01*
X103505000Y-147012660D02*
X103505000Y-133042660D01*
G04 #@! TO.C,SW1:10*
X122555000Y-145415000D02*
X122555000Y-131445000D01*
X136525000Y-145415000D02*
X122555000Y-145415000D01*
X136525000Y-131445000D02*
X136525000Y-145415000D01*
X122555000Y-131445000D02*
X136525000Y-131445000D01*
G04 #@! TO.C,SW1:11*
X141605000Y-133042660D02*
X155575000Y-133042660D01*
X155575000Y-133042660D02*
X155575000Y-147012660D01*
X155575000Y-147012660D02*
X141605000Y-147012660D01*
X141605000Y-147012660D02*
X141605000Y-133042660D01*
G04 #@! TO.C,SW1:12*
X160655000Y-150187660D02*
X160655000Y-136217660D01*
X174625000Y-150187660D02*
X160655000Y-150187660D01*
X174625000Y-136217660D02*
X174625000Y-150187660D01*
X160655000Y-136217660D02*
X174625000Y-136217660D01*
G04 #@! TO.C,SW1:13*
X179705000Y-150187660D02*
X179705000Y-136217660D01*
X193675000Y-150187660D02*
X179705000Y-150187660D01*
X193675000Y-136217660D02*
X193675000Y-150187660D01*
X179705000Y-136217660D02*
X193675000Y-136217660D01*
G04 #@! TO.C,SW2:7*
X79375000Y-124470160D02*
X65405000Y-124470160D01*
X79375000Y-110500160D02*
X79375000Y-124470160D01*
X65405000Y-110500160D02*
X79375000Y-110500160D01*
X65405000Y-124470160D02*
X65405000Y-110500160D01*
G04 #@! TO.C,SW2:8*
X84455000Y-129232660D02*
X84455000Y-115262660D01*
X98425000Y-129232660D02*
X84455000Y-129232660D01*
X98425000Y-115262660D02*
X98425000Y-129232660D01*
X84455000Y-115262660D02*
X98425000Y-115262660D01*
G04 #@! TO.C,SW2:9*
X103505000Y-113992660D02*
X117475000Y-113992660D01*
X117475000Y-113992660D02*
X117475000Y-127962660D01*
X117475000Y-127962660D02*
X103505000Y-127962660D01*
X103505000Y-127962660D02*
X103505000Y-113992660D01*
G04 #@! TO.C,SW2:10*
X122555000Y-126365000D02*
X122555000Y-112395000D01*
X136525000Y-126365000D02*
X122555000Y-126365000D01*
X136525000Y-112395000D02*
X136525000Y-126365000D01*
X122555000Y-112395000D02*
X136525000Y-112395000D01*
G04 #@! TO.C,SW2:11*
X141605000Y-127962660D02*
X141605000Y-113992660D01*
X155575000Y-127962660D02*
X141605000Y-127962660D01*
X155575000Y-113992660D02*
X155575000Y-127962660D01*
X141605000Y-113992660D02*
X155575000Y-113992660D01*
G04 #@! TO.C,SW2:12*
X160655000Y-131137660D02*
X160655000Y-117167660D01*
X174625000Y-131137660D02*
X160655000Y-131137660D01*
X174625000Y-117167660D02*
X174625000Y-131137660D01*
X160655000Y-117167660D02*
X174625000Y-117167660D01*
G04 #@! TO.C,SW3:8*
X84455000Y-96212660D02*
X98425000Y-96212660D01*
X98425000Y-96212660D02*
X98425000Y-110182660D01*
X98425000Y-110182660D02*
X84455000Y-110182660D01*
X84455000Y-110182660D02*
X84455000Y-96212660D01*
G04 #@! TO.C,SW3:9*
X103505000Y-94942660D02*
X117475000Y-94942660D01*
X117475000Y-94942660D02*
X117475000Y-108912660D01*
X117475000Y-108912660D02*
X103505000Y-108912660D01*
X103505000Y-108912660D02*
X103505000Y-94942660D01*
G04 #@! TO.C,SW3:10*
X122555000Y-93345000D02*
X136525000Y-93345000D01*
X136525000Y-93345000D02*
X136525000Y-107315000D01*
X136525000Y-107315000D02*
X122555000Y-107315000D01*
X122555000Y-107315000D02*
X122555000Y-93345000D01*
G04 #@! TO.C,SW3:11*
X141605000Y-108912660D02*
X141605000Y-94942660D01*
X155575000Y-108912660D02*
X141605000Y-108912660D01*
X155575000Y-94942660D02*
X155575000Y-108912660D01*
X141605000Y-94942660D02*
X155575000Y-94942660D01*
G04 #@! TO.C,SW3:12*
X160655000Y-98117660D02*
X174625000Y-98117660D01*
X174625000Y-98117660D02*
X174625000Y-112087660D01*
X174625000Y-112087660D02*
X160655000Y-112087660D01*
X160655000Y-112087660D02*
X160655000Y-98117660D01*
G04 #@! TO.C,SW4:7*
X79375000Y-95895160D02*
X65405000Y-95895160D01*
X79375000Y-81925160D02*
X79375000Y-95895160D01*
X65405000Y-81925160D02*
X79375000Y-81925160D01*
X65405000Y-95895160D02*
X65405000Y-81925160D01*
G04 #@! TO.C,SW4:8*
X84455000Y-77162660D02*
X98425000Y-77162660D01*
X98425000Y-77162660D02*
X98425000Y-91132660D01*
X98425000Y-91132660D02*
X84455000Y-91132660D01*
X84455000Y-91132660D02*
X84455000Y-77162660D01*
G04 #@! TO.C,SW4:9*
X103505000Y-89862660D02*
X103505000Y-75892660D01*
X117475000Y-89862660D02*
X103505000Y-89862660D01*
X117475000Y-75892660D02*
X117475000Y-89862660D01*
X103505000Y-75892660D02*
X117475000Y-75892660D01*
G04 #@! TO.C,SW4:10*
X122555000Y-88265000D02*
X122555000Y-74295000D01*
X136525000Y-88265000D02*
X122555000Y-88265000D01*
X136525000Y-74295000D02*
X136525000Y-88265000D01*
X122555000Y-74295000D02*
X136525000Y-74295000D01*
G04 #@! TO.C,SW4:11*
X141605000Y-75892660D02*
X155575000Y-75892660D01*
X155575000Y-75892660D02*
X155575000Y-89862660D01*
X155575000Y-89862660D02*
X141605000Y-89862660D01*
X141605000Y-89862660D02*
X141605000Y-75892660D01*
G04 #@! TO.C,SW4:12*
X160655000Y-93037660D02*
X160655000Y-79067660D01*
X174625000Y-93037660D02*
X160655000Y-93037660D01*
X174625000Y-79067660D02*
X174625000Y-93037660D01*
X160655000Y-79067660D02*
X174625000Y-79067660D01*
G04 #@! TO.C,SW4:13*
X184467500Y-93037660D02*
X184467500Y-79067660D01*
X198437500Y-93037660D02*
X184467500Y-93037660D01*
X198437500Y-79067660D02*
X198437500Y-93037660D01*
X184467500Y-79067660D02*
X198437500Y-79067660D01*
G04 #@! TO.C,SW5:7*
X65405000Y-72085200D02*
X65405000Y-58115200D01*
X79375000Y-72085200D02*
X65405000Y-72085200D01*
X79375000Y-58115200D02*
X79375000Y-72085200D01*
X65405000Y-58115200D02*
X79375000Y-58115200D01*
G04 #@! TO.C,SW5:8*
X84455000Y-58115200D02*
X98425000Y-58115200D01*
X98425000Y-58115200D02*
X98425000Y-72085200D01*
X98425000Y-72085200D02*
X84455000Y-72085200D01*
X84455000Y-72085200D02*
X84455000Y-58115200D01*
G04 #@! TO.C,SW5:9*
X103505000Y-70812660D02*
X103505000Y-56842660D01*
X117475000Y-70812660D02*
X103505000Y-70812660D01*
X117475000Y-56842660D02*
X117475000Y-70812660D01*
X103505000Y-56842660D02*
X117475000Y-56842660D01*
G04 #@! TO.C,SW5:10*
X122555000Y-55245000D02*
X136525000Y-55245000D01*
X136525000Y-55245000D02*
X136525000Y-69215000D01*
X136525000Y-69215000D02*
X122555000Y-69215000D01*
X122555000Y-69215000D02*
X122555000Y-55245000D01*
G04 #@! TO.C,SW5:11*
X141605000Y-56842660D02*
X155575000Y-56842660D01*
X155575000Y-56842660D02*
X155575000Y-70812660D01*
X155575000Y-70812660D02*
X141605000Y-70812660D01*
X141605000Y-70812660D02*
X141605000Y-56842660D01*
G04 #@! TO.C,SW5:12*
X160655000Y-60020200D02*
X174625000Y-60020200D01*
X174625000Y-60020200D02*
X174625000Y-73990200D01*
X174625000Y-73990200D02*
X160655000Y-73990200D01*
X160655000Y-73990200D02*
X160655000Y-60020200D01*
G04 #@! TO.C,SW5:13*
X184467500Y-60020200D02*
X198437500Y-60020200D01*
X198437500Y-60020200D02*
X198437500Y-73990200D01*
X198437500Y-73990200D02*
X184467500Y-73990200D01*
X184467500Y-73990200D02*
X184467500Y-60020200D01*
G04 #@! TO.C,SX0:10*
X94613848Y-165077511D02*
X81952729Y-170981488D01*
X81952729Y-170981488D02*
X76048752Y-158320369D01*
X76048752Y-158320369D02*
X88709871Y-152416392D01*
X88709871Y-152416392D02*
X94613848Y-165077511D01*
G04 #@! TO.C,SX0:11*
X71442951Y-160465652D02*
X77346928Y-173126771D01*
X58781832Y-166369629D02*
X71442951Y-160465652D01*
X64685809Y-179030748D02*
X58781832Y-166369629D01*
X77346928Y-173126771D02*
X64685809Y-179030748D01*
G04 #@! TO.C,SX1:7*
X56636549Y-161766368D02*
X50732572Y-149105249D01*
X69297668Y-155862391D02*
X56636549Y-161766368D01*
X63393691Y-143201272D02*
X69297668Y-155862391D01*
X50732572Y-149105249D02*
X63393691Y-143201272D01*
G04 #@! TO.C,SX1:8*
X67996952Y-141053449D02*
X80658071Y-135149472D01*
X80658071Y-135149472D02*
X86562048Y-147810591D01*
X86562048Y-147810591D02*
X73900929Y-153714568D01*
X73900929Y-153714568D02*
X67996952Y-141053449D01*
G04 #@! TD*
M02*
