G04 #@! TF.GenerationSoftware,KiCad,Pcbnew,(5.0.2)-1*
G04 #@! TF.CreationDate,2019-01-20T19:55:00+05:30*
G04 #@! TF.ProjectId,ErgodoxBle,4572676f-646f-4784-926c-652e6b696361,rev?*
G04 #@! TF.SameCoordinates,Original*
G04 #@! TF.FileFunction,Legend,Top*
G04 #@! TF.FilePolarity,Positive*
%FSLAX46Y46*%
G04 Gerber Fmt 4.6, Leading zero omitted, Abs format (unit mm)*
G04 Created by KiCad (PCBNEW (5.0.2)-1) date 1/20/2019 7:55:00 PM*
%MOMM*%
%LPD*%
G01*
G04 APERTURE LIST*
%ADD10C,0.381000*%
%ADD11C,0.150000*%
%ADD12C,0.120000*%
%ADD13C,0.304800*%
G04 APERTURE END LIST*
D10*
G04 #@! TO.C,MCU1*
X21463000Y-38862000D02*
X51943000Y-38862000D01*
X51943000Y-38862000D02*
X51943000Y-21082000D01*
X51943000Y-21082000D02*
X21463000Y-21082000D01*
X21463000Y-36322000D02*
X24003000Y-36322000D01*
X24003000Y-36322000D02*
X24003000Y-38862000D01*
D11*
G36*
X27342360Y-25040432D02*
X27642360Y-25040432D01*
X27642360Y-25140432D01*
X27342360Y-25140432D01*
X27342360Y-25040432D01*
G37*
X27342360Y-25040432D02*
X27642360Y-25040432D01*
X27642360Y-25140432D01*
X27342360Y-25140432D01*
X27342360Y-25040432D01*
G36*
X27742360Y-25240432D02*
X27842360Y-25240432D01*
X27842360Y-25340432D01*
X27742360Y-25340432D01*
X27742360Y-25240432D01*
G37*
X27742360Y-25240432D02*
X27842360Y-25240432D01*
X27842360Y-25340432D01*
X27742360Y-25340432D01*
X27742360Y-25240432D01*
G36*
X27342360Y-25040432D02*
X27442360Y-25040432D01*
X27442360Y-25540432D01*
X27342360Y-25540432D01*
X27342360Y-25040432D01*
G37*
X27342360Y-25040432D02*
X27442360Y-25040432D01*
X27442360Y-25540432D01*
X27342360Y-25540432D01*
X27342360Y-25040432D01*
G36*
X27342360Y-25440432D02*
X28142360Y-25440432D01*
X28142360Y-25540432D01*
X27342360Y-25540432D01*
X27342360Y-25440432D01*
G37*
X27342360Y-25440432D02*
X28142360Y-25440432D01*
X28142360Y-25540432D01*
X27342360Y-25540432D01*
X27342360Y-25440432D01*
G36*
X27942360Y-25040432D02*
X28142360Y-25040432D01*
X28142360Y-25140432D01*
X27942360Y-25140432D01*
X27942360Y-25040432D01*
G37*
X27942360Y-25040432D02*
X28142360Y-25040432D01*
X28142360Y-25140432D01*
X27942360Y-25140432D01*
X27942360Y-25040432D01*
D10*
X21463000Y-21082000D02*
X18923000Y-21082000D01*
X18923000Y-21082000D02*
X18923000Y-38862000D01*
X18923000Y-38862000D02*
X21463000Y-38862000D01*
X21463000Y-36322000D02*
X21463000Y-38862000D01*
D12*
G04 #@! TO.C,SW1*
X96598000Y-33288000D02*
X97048000Y-33738000D01*
X99998000Y-33288000D02*
X99548000Y-33738000D01*
X99998000Y-28688000D02*
X99548000Y-28238000D01*
X96598000Y-28688000D02*
X97048000Y-28238000D01*
X101048000Y-29988000D02*
X101048000Y-31988000D01*
X97048000Y-33738000D02*
X99548000Y-33738000D01*
X95548000Y-29988000D02*
X95548000Y-31988000D01*
X97048000Y-28238000D02*
X99548000Y-28238000D01*
D11*
G04 #@! TO.C,D1*
X66979800Y-49682400D02*
X65455800Y-49682400D01*
X66979800Y-49555400D02*
X65455800Y-49555400D01*
X65455800Y-49428400D02*
X66979800Y-49428400D01*
X66979800Y-49047400D02*
X65455800Y-49047400D01*
X65455800Y-49174400D02*
X66979800Y-49174400D01*
X66979800Y-49301400D02*
X65455800Y-49301400D01*
X66979800Y-54000400D02*
X66979800Y-53492400D01*
X65455800Y-54000400D02*
X66979800Y-54000400D01*
X65455800Y-48920400D02*
X65455800Y-54000400D01*
X66979800Y-48920400D02*
X65455800Y-48920400D01*
X66979800Y-54000400D02*
X66979800Y-48920400D01*
G04 #@! TO.C,D0*
X43180000Y-55308500D02*
X43180000Y-50228500D01*
X43180000Y-50228500D02*
X41656000Y-50228500D01*
X41656000Y-50228500D02*
X41656000Y-55308500D01*
X41656000Y-55308500D02*
X43180000Y-55308500D01*
X43180000Y-55308500D02*
X43180000Y-54800500D01*
X43180000Y-50609500D02*
X41656000Y-50609500D01*
X41656000Y-50482500D02*
X43180000Y-50482500D01*
X43180000Y-50355500D02*
X41656000Y-50355500D01*
X41656000Y-50736500D02*
X43180000Y-50736500D01*
X43180000Y-50863500D02*
X41656000Y-50863500D01*
X43180000Y-50990500D02*
X41656000Y-50990500D01*
G04 #@! TO.C,D2*
X86042500Y-49606200D02*
X86042500Y-44526200D01*
X86042500Y-44526200D02*
X84518500Y-44526200D01*
X84518500Y-44526200D02*
X84518500Y-49606200D01*
X84518500Y-49606200D02*
X86042500Y-49606200D01*
X86042500Y-49606200D02*
X86042500Y-49098200D01*
X86042500Y-44907200D02*
X84518500Y-44907200D01*
X84518500Y-44780200D02*
X86042500Y-44780200D01*
X86042500Y-44653200D02*
X84518500Y-44653200D01*
X84518500Y-45034200D02*
X86042500Y-45034200D01*
X86042500Y-45161200D02*
X84518500Y-45161200D01*
X86042500Y-45288200D02*
X84518500Y-45288200D01*
G04 #@! TO.C,D3*
X105016300Y-46659800D02*
X103492300Y-46659800D01*
X105016300Y-46532800D02*
X103492300Y-46532800D01*
X103492300Y-46405800D02*
X105016300Y-46405800D01*
X105016300Y-46024800D02*
X103492300Y-46024800D01*
X103492300Y-46151800D02*
X105016300Y-46151800D01*
X105016300Y-46278800D02*
X103492300Y-46278800D01*
X105016300Y-50977800D02*
X105016300Y-50469800D01*
X103492300Y-50977800D02*
X105016300Y-50977800D01*
X103492300Y-45897800D02*
X103492300Y-50977800D01*
X105016300Y-45897800D02*
X103492300Y-45897800D01*
X105016300Y-50977800D02*
X105016300Y-45897800D01*
G04 #@! TO.C,D4*
X124193300Y-50685700D02*
X124193300Y-45605700D01*
X124193300Y-45605700D02*
X122669300Y-45605700D01*
X122669300Y-45605700D02*
X122669300Y-50685700D01*
X122669300Y-50685700D02*
X124193300Y-50685700D01*
X124193300Y-50685700D02*
X124193300Y-50177700D01*
X124193300Y-45986700D02*
X122669300Y-45986700D01*
X122669300Y-45859700D02*
X124193300Y-45859700D01*
X124193300Y-45732700D02*
X122669300Y-45732700D01*
X122669300Y-46113700D02*
X124193300Y-46113700D01*
X124193300Y-46240700D02*
X122669300Y-46240700D01*
X124193300Y-46367700D02*
X122669300Y-46367700D01*
D10*
G04 #@! TO.C,K41*
X50403760Y-124162820D02*
X50403760Y-122384820D01*
X50403760Y-135084820D02*
X50403760Y-133306820D01*
X52181760Y-135084820D02*
X50403760Y-135084820D01*
X63103760Y-135084820D02*
X61325760Y-135084820D01*
X63103760Y-133306820D02*
X63103760Y-135084820D01*
X63103760Y-122384820D02*
X63103760Y-124162820D01*
X61325760Y-122384820D02*
X63103760Y-122384820D01*
X50403760Y-122384820D02*
X52181760Y-122384820D01*
X61325760Y-135084820D02*
X63103760Y-135084820D01*
G04 #@! TO.C,K43*
X88460580Y-119364760D02*
X88460580Y-117586760D01*
X88460580Y-130286760D02*
X88460580Y-128508760D01*
X90238580Y-130286760D02*
X88460580Y-130286760D01*
X101160580Y-130286760D02*
X99382580Y-130286760D01*
X101160580Y-128508760D02*
X101160580Y-130286760D01*
X101160580Y-117586760D02*
X101160580Y-119364760D01*
X99382580Y-117586760D02*
X101160580Y-117586760D01*
X88460580Y-117586760D02*
X90238580Y-117586760D01*
X99382580Y-130286760D02*
X101160580Y-130286760D01*
G04 #@! TO.C,K30*
X26596340Y-105069640D02*
X26596340Y-103291640D01*
X26596340Y-115991640D02*
X26596340Y-114213640D01*
X28374340Y-115991640D02*
X26596340Y-115991640D01*
X39296340Y-115991640D02*
X37518340Y-115991640D01*
X39296340Y-114213640D02*
X39296340Y-115991640D01*
X39296340Y-103291640D02*
X39296340Y-105069640D01*
X37518340Y-103291640D02*
X39296340Y-103291640D01*
X26596340Y-103291640D02*
X28374340Y-103291640D01*
X37518340Y-115991640D02*
X39296340Y-115991640D01*
G04 #@! TO.C,K40*
X42293540Y-135046720D02*
X44071540Y-135046720D01*
X31371540Y-122346720D02*
X33149540Y-122346720D01*
X42293540Y-122346720D02*
X44071540Y-122346720D01*
X44071540Y-122346720D02*
X44071540Y-124124720D01*
X44071540Y-133268720D02*
X44071540Y-135046720D01*
X44071540Y-135046720D02*
X42293540Y-135046720D01*
X33149540Y-135046720D02*
X31371540Y-135046720D01*
X31371540Y-135046720D02*
X31371540Y-133268720D01*
X31371540Y-124124720D02*
X31371540Y-122346720D01*
G04 #@! TO.C,K25*
X126616460Y-84157820D02*
X126616460Y-82379820D01*
X126616460Y-95079820D02*
X126616460Y-93301820D01*
X128394460Y-95079820D02*
X126616460Y-95079820D01*
X139316460Y-95079820D02*
X137538460Y-95079820D01*
X139316460Y-93301820D02*
X139316460Y-95079820D01*
X139316460Y-82379820D02*
X139316460Y-84157820D01*
X137538460Y-82379820D02*
X139316460Y-82379820D01*
X126616460Y-82379820D02*
X128394460Y-82379820D01*
X137538460Y-95079820D02*
X139316460Y-95079820D01*
G04 #@! TO.C,K42*
X80375760Y-131874260D02*
X82153760Y-131874260D01*
X69453760Y-119174260D02*
X71231760Y-119174260D01*
X80375760Y-119174260D02*
X82153760Y-119174260D01*
X82153760Y-119174260D02*
X82153760Y-120952260D01*
X82153760Y-130096260D02*
X82153760Y-131874260D01*
X82153760Y-131874260D02*
X80375760Y-131874260D01*
X71231760Y-131874260D02*
X69453760Y-131874260D01*
X69453760Y-131874260D02*
X69453760Y-130096260D01*
X69453760Y-120952260D02*
X69453760Y-119174260D01*
G04 #@! TO.C,K26*
X173854893Y-128428705D02*
X175466308Y-129180120D01*
X169323452Y-112302760D02*
X170934867Y-113054175D01*
X179222145Y-116918596D02*
X180833560Y-117670012D01*
X180833560Y-117670012D02*
X180082145Y-119281427D01*
X176217724Y-127568705D02*
X175466308Y-129180120D01*
X175466308Y-129180120D02*
X173854893Y-128428705D01*
X165567615Y-124564284D02*
X163956200Y-123812868D01*
X163956200Y-123812868D02*
X164707615Y-122201453D01*
X168572036Y-113914175D02*
X169323452Y-112302760D01*
G04 #@! TO.C,K44*
X118468460Y-131875280D02*
X120246460Y-131875280D01*
X107546460Y-119175280D02*
X109324460Y-119175280D01*
X118468460Y-119175280D02*
X120246460Y-119175280D01*
X120246460Y-119175280D02*
X120246460Y-120953280D01*
X120246460Y-130097280D02*
X120246460Y-131875280D01*
X120246460Y-131875280D02*
X118468460Y-131875280D01*
X109324460Y-131875280D02*
X107546460Y-131875280D01*
X107546460Y-131875280D02*
X107546460Y-130097280D01*
X107546460Y-120953280D02*
X107546460Y-119175280D01*
G04 #@! TO.C,K35*
X137502900Y-114043460D02*
X139280900Y-114043460D01*
X126580900Y-101343460D02*
X128358900Y-101343460D01*
X137502900Y-101343460D02*
X139280900Y-101343460D01*
X139280900Y-101343460D02*
X139280900Y-103121460D01*
X139280900Y-112265460D02*
X139280900Y-114043460D01*
X139280900Y-114043460D02*
X137502900Y-114043460D01*
X128358900Y-114043460D02*
X126580900Y-114043460D01*
X126580900Y-114043460D02*
X126580900Y-112265460D01*
X126580900Y-103121460D02*
X126580900Y-101343460D01*
G04 #@! TO.C,K22*
X69430900Y-82839560D02*
X69430900Y-81061560D01*
X69430900Y-93761560D02*
X69430900Y-91983560D01*
X71208900Y-93761560D02*
X69430900Y-93761560D01*
X82130900Y-93761560D02*
X80352900Y-93761560D01*
X82130900Y-91983560D02*
X82130900Y-93761560D01*
X82130900Y-81061560D02*
X82130900Y-82839560D01*
X80352900Y-81061560D02*
X82130900Y-81061560D01*
X69430900Y-81061560D02*
X71208900Y-81061560D01*
X80352900Y-93761560D02*
X82130900Y-93761560D01*
G04 #@! TO.C,K32*
X69456300Y-101904800D02*
X69456300Y-100126800D01*
X69456300Y-112826800D02*
X69456300Y-111048800D01*
X71234300Y-112826800D02*
X69456300Y-112826800D01*
X82156300Y-112826800D02*
X80378300Y-112826800D01*
X82156300Y-111048800D02*
X82156300Y-112826800D01*
X82156300Y-100126800D02*
X82156300Y-101904800D01*
X80378300Y-100126800D02*
X82156300Y-100126800D01*
X69456300Y-100126800D02*
X71234300Y-100126800D01*
X80378300Y-112826800D02*
X82156300Y-112826800D01*
G04 #@! TO.C,K23*
X99420680Y-92153740D02*
X101198680Y-92153740D01*
X88498680Y-79453740D02*
X90276680Y-79453740D01*
X99420680Y-79453740D02*
X101198680Y-79453740D01*
X101198680Y-79453740D02*
X101198680Y-81231740D01*
X101198680Y-90375740D02*
X101198680Y-92153740D01*
X101198680Y-92153740D02*
X99420680Y-92153740D01*
X90276680Y-92153740D02*
X88498680Y-92153740D01*
X88498680Y-92153740D02*
X88498680Y-90375740D01*
X88498680Y-81231740D02*
X88498680Y-79453740D01*
G04 #@! TO.C,K24*
X107538520Y-82864960D02*
X107538520Y-81086960D01*
X107538520Y-93786960D02*
X107538520Y-92008960D01*
X109316520Y-93786960D02*
X107538520Y-93786960D01*
X120238520Y-93786960D02*
X118460520Y-93786960D01*
X120238520Y-92008960D02*
X120238520Y-93786960D01*
X120238520Y-81086960D02*
X120238520Y-82864960D01*
X118460520Y-81086960D02*
X120238520Y-81086960D01*
X107538520Y-81086960D02*
X109316520Y-81086960D01*
X118460520Y-93786960D02*
X120238520Y-93786960D01*
G04 #@! TO.C,K21*
X61307980Y-96944180D02*
X63085980Y-96944180D01*
X50385980Y-84244180D02*
X52163980Y-84244180D01*
X61307980Y-84244180D02*
X63085980Y-84244180D01*
X63085980Y-84244180D02*
X63085980Y-86022180D01*
X63085980Y-95166180D02*
X63085980Y-96944180D01*
X63085980Y-96944180D02*
X61307980Y-96944180D01*
X52163980Y-96944180D02*
X50385980Y-96944180D01*
X50385980Y-96944180D02*
X50385980Y-95166180D01*
X50385980Y-86022180D02*
X50385980Y-84244180D01*
G04 #@! TO.C,K31*
X61325760Y-116011960D02*
X63103760Y-116011960D01*
X50403760Y-103311960D02*
X52181760Y-103311960D01*
X61325760Y-103311960D02*
X63103760Y-103311960D01*
X63103760Y-103311960D02*
X63103760Y-105089960D01*
X63103760Y-114233960D02*
X63103760Y-116011960D01*
X63103760Y-116011960D02*
X61325760Y-116011960D01*
X52181760Y-116011960D02*
X50403760Y-116011960D01*
X50403760Y-116011960D02*
X50403760Y-114233960D01*
X50403760Y-105089960D02*
X50403760Y-103311960D01*
G04 #@! TO.C,K33*
X99420680Y-111254540D02*
X101198680Y-111254540D01*
X88498680Y-98554540D02*
X90276680Y-98554540D01*
X99420680Y-98554540D02*
X101198680Y-98554540D01*
X101198680Y-98554540D02*
X101198680Y-100332540D01*
X101198680Y-109476540D02*
X101198680Y-111254540D01*
X101198680Y-111254540D02*
X99420680Y-111254540D01*
X90276680Y-111254540D02*
X88498680Y-111254540D01*
X88498680Y-111254540D02*
X88498680Y-109476540D01*
X88498680Y-100332540D02*
X88498680Y-98554540D01*
G04 #@! TO.C,K34*
X107533440Y-101912420D02*
X107533440Y-100134420D01*
X107533440Y-112834420D02*
X107533440Y-111056420D01*
X109311440Y-112834420D02*
X107533440Y-112834420D01*
X120233440Y-112834420D02*
X118455440Y-112834420D01*
X120233440Y-111056420D02*
X120233440Y-112834420D01*
X120233440Y-100134420D02*
X120233440Y-101912420D01*
X118455440Y-100134420D02*
X120233440Y-100134420D01*
X107533440Y-100134420D02*
X109311440Y-100134420D01*
X118455440Y-112834420D02*
X120233440Y-112834420D01*
G04 #@! TO.C,K36*
X156585920Y-96636840D02*
X158363920Y-96636840D01*
X145663920Y-96636840D02*
X147441920Y-96636840D01*
X145663920Y-98414840D02*
X145663920Y-96636840D01*
X145663920Y-109336840D02*
X145663920Y-107558840D01*
X147441920Y-109336840D02*
X145663920Y-109336840D01*
X158363920Y-109336840D02*
X156585920Y-109336840D01*
X158363920Y-107558840D02*
X158363920Y-109336840D01*
X158363920Y-96636840D02*
X158363920Y-98414840D01*
X145663920Y-107558840D02*
X145663920Y-109336840D01*
G04 #@! TO.C,K55*
X168788880Y-143562772D02*
X168037465Y-145174187D01*
X164173044Y-153461465D02*
X163421628Y-155072880D01*
X163421628Y-155072880D02*
X161810213Y-154321465D01*
X153522935Y-150457044D02*
X151911520Y-149705628D01*
X151911520Y-149705628D02*
X152662935Y-148094213D01*
X156527356Y-139806935D02*
X157278772Y-138195520D01*
X157278772Y-138195520D02*
X158890187Y-138946935D01*
X167177465Y-142811356D02*
X168788880Y-143562772D01*
G04 #@! TO.C,K45*
X185871976Y-122004075D02*
X186623392Y-120392660D01*
X181256140Y-131902768D02*
X182007555Y-130291353D01*
X182867555Y-132654184D02*
X181256140Y-131902768D01*
X192766248Y-137270020D02*
X191154833Y-136518605D01*
X193517664Y-135658605D02*
X192766248Y-137270020D01*
X198133500Y-125759912D02*
X197382085Y-127371327D01*
X196522085Y-125008496D02*
X198133500Y-125759912D01*
X186623392Y-120392660D02*
X188234807Y-121144075D01*
X191154833Y-136518605D02*
X192766248Y-137270020D01*
G04 #@! TO.C,K46*
X183169073Y-153765205D02*
X184780488Y-154516620D01*
X178637632Y-137639260D02*
X180249047Y-138390675D01*
X188536325Y-142255096D02*
X190147740Y-143006512D01*
X190147740Y-143006512D02*
X189396325Y-144617927D01*
X185531904Y-152905205D02*
X184780488Y-154516620D01*
X184780488Y-154516620D02*
X183169073Y-153765205D01*
X174881795Y-149900784D02*
X173270380Y-149149368D01*
X173270380Y-149149368D02*
X174021795Y-147537953D01*
X177886216Y-139250675D02*
X178637632Y-137639260D01*
G04 #@! TO.C,K54*
X136327135Y-142392544D02*
X134715720Y-141641128D01*
X146225828Y-147008380D02*
X144614413Y-146256965D01*
X146977244Y-145396965D02*
X146225828Y-147008380D01*
X151593080Y-135498272D02*
X150841665Y-137109687D01*
X149981665Y-134746856D02*
X151593080Y-135498272D01*
X140082972Y-130131020D02*
X141694387Y-130882435D01*
X139331556Y-131742435D02*
X140082972Y-130131020D01*
X134715720Y-141641128D02*
X135467135Y-140029713D01*
G04 #@! TO.C,K56*
X169760756Y-156482035D02*
X170512172Y-154870620D01*
X165144920Y-166380728D02*
X165896335Y-164769313D01*
X166756335Y-167132144D02*
X165144920Y-166380728D01*
X176655028Y-171747980D02*
X175043613Y-170996565D01*
X177406444Y-170136565D02*
X176655028Y-171747980D01*
X182022280Y-160237872D02*
X181270865Y-161849287D01*
X180410865Y-159486456D02*
X182022280Y-160237872D01*
X170512172Y-154870620D02*
X172123587Y-155622035D01*
X175043613Y-170996565D02*
X176655028Y-171747980D01*
G04 #@! TO.C,K6*
X145633440Y-46004480D02*
X145633440Y-44226480D01*
X145633440Y-56926480D02*
X145633440Y-55148480D01*
X147411440Y-56926480D02*
X145633440Y-56926480D01*
X158333440Y-56926480D02*
X156555440Y-56926480D01*
X158333440Y-55148480D02*
X158333440Y-56926480D01*
X158333440Y-44226480D02*
X158333440Y-46004480D01*
X156555440Y-44226480D02*
X158333440Y-44226480D01*
X145633440Y-44226480D02*
X147411440Y-44226480D01*
X156555440Y-56926480D02*
X158333440Y-56926480D01*
G04 #@! TO.C,K13*
X99415600Y-73152000D02*
X101193600Y-73152000D01*
X88493600Y-60452000D02*
X90271600Y-60452000D01*
X99415600Y-60452000D02*
X101193600Y-60452000D01*
X101193600Y-60452000D02*
X101193600Y-62230000D01*
X101193600Y-71374000D02*
X101193600Y-73152000D01*
X101193600Y-73152000D02*
X99415600Y-73152000D01*
X90271600Y-73152000D02*
X88493600Y-73152000D01*
X88493600Y-73152000D02*
X88493600Y-71374000D01*
X88493600Y-62230000D02*
X88493600Y-60452000D01*
G04 #@! TO.C,K14*
X118465600Y-74726800D02*
X120243600Y-74726800D01*
X107543600Y-62026800D02*
X109321600Y-62026800D01*
X118465600Y-62026800D02*
X120243600Y-62026800D01*
X120243600Y-62026800D02*
X120243600Y-63804800D01*
X120243600Y-72948800D02*
X120243600Y-74726800D01*
X120243600Y-74726800D02*
X118465600Y-74726800D01*
X109321600Y-74726800D02*
X107543600Y-74726800D01*
X107543600Y-74726800D02*
X107543600Y-72948800D01*
X107543600Y-63804800D02*
X107543600Y-62026800D01*
G04 #@! TO.C,K15*
X126619000Y-65074800D02*
X126619000Y-63296800D01*
X126619000Y-75996800D02*
X126619000Y-74218800D01*
X128397000Y-75996800D02*
X126619000Y-75996800D01*
X139319000Y-75996800D02*
X137541000Y-75996800D01*
X139319000Y-74218800D02*
X139319000Y-75996800D01*
X139319000Y-63296800D02*
X139319000Y-65074800D01*
X137541000Y-63296800D02*
X139319000Y-63296800D01*
X126619000Y-63296800D02*
X128397000Y-63296800D01*
X137541000Y-75996800D02*
X139319000Y-75996800D01*
G04 #@! TO.C,K16*
X145633440Y-78986380D02*
X145633440Y-80764380D01*
X158333440Y-68064380D02*
X158333440Y-69842380D01*
X158333440Y-78986380D02*
X158333440Y-80764380D01*
X158333440Y-80764380D02*
X156555440Y-80764380D01*
X147411440Y-80764380D02*
X145633440Y-80764380D01*
X145633440Y-80764380D02*
X145633440Y-78986380D01*
X145633440Y-69842380D02*
X145633440Y-68064380D01*
X145633440Y-68064380D02*
X147411440Y-68064380D01*
X156555440Y-68064380D02*
X158333440Y-68064380D01*
G04 #@! TO.C,K12*
X69418200Y-63804800D02*
X69418200Y-62026800D01*
X69418200Y-74726800D02*
X69418200Y-72948800D01*
X71196200Y-74726800D02*
X69418200Y-74726800D01*
X82118200Y-74726800D02*
X80340200Y-74726800D01*
X82118200Y-72948800D02*
X82118200Y-74726800D01*
X82118200Y-62026800D02*
X82118200Y-63804800D01*
X80340200Y-62026800D02*
X82118200Y-62026800D01*
X69418200Y-62026800D02*
X71196200Y-62026800D01*
X80340200Y-74726800D02*
X82118200Y-74726800D01*
G04 #@! TO.C,K20*
X26601420Y-86050120D02*
X26601420Y-84272120D01*
X26601420Y-96972120D02*
X26601420Y-95194120D01*
X28379420Y-96972120D02*
X26601420Y-96972120D01*
X39301420Y-96972120D02*
X37523420Y-96972120D01*
X39301420Y-95194120D02*
X39301420Y-96972120D01*
X39301420Y-84272120D02*
X39301420Y-86050120D01*
X37523420Y-84272120D02*
X39301420Y-84272120D01*
X26601420Y-84272120D02*
X28379420Y-84272120D01*
X37523420Y-96972120D02*
X39301420Y-96972120D01*
G04 #@! TO.C,K10*
X37510720Y-77904340D02*
X39288720Y-77904340D01*
X26588720Y-65204340D02*
X28366720Y-65204340D01*
X37510720Y-65204340D02*
X39288720Y-65204340D01*
X39288720Y-65204340D02*
X39288720Y-66982340D01*
X39288720Y-76126340D02*
X39288720Y-77904340D01*
X39288720Y-77904340D02*
X37510720Y-77904340D01*
X28366720Y-77904340D02*
X26588720Y-77904340D01*
X26588720Y-77904340D02*
X26588720Y-76126340D01*
X26588720Y-66982340D02*
X26588720Y-65204340D01*
G04 #@! TO.C,K11*
X50393600Y-67007740D02*
X50393600Y-65229740D01*
X50393600Y-77929740D02*
X50393600Y-76151740D01*
X52171600Y-77929740D02*
X50393600Y-77929740D01*
X63093600Y-77929740D02*
X61315600Y-77929740D01*
X63093600Y-76151740D02*
X63093600Y-77929740D01*
X63093600Y-65229740D02*
X63093600Y-67007740D01*
X61315600Y-65229740D02*
X63093600Y-65229740D01*
X50393600Y-65229740D02*
X52171600Y-65229740D01*
X61315600Y-77929740D02*
X63093600Y-77929740D01*
D11*
G04 #@! TO.C,D34*
X124180600Y-104762300D02*
X122656600Y-104762300D01*
X124180600Y-104635300D02*
X122656600Y-104635300D01*
X122656600Y-104508300D02*
X124180600Y-104508300D01*
X124180600Y-104127300D02*
X122656600Y-104127300D01*
X122656600Y-104254300D02*
X124180600Y-104254300D01*
X124180600Y-104381300D02*
X122656600Y-104381300D01*
X124180600Y-109080300D02*
X124180600Y-108572300D01*
X122656600Y-109080300D02*
X124180600Y-109080300D01*
X122656600Y-104000300D02*
X122656600Y-109080300D01*
X124180600Y-104000300D02*
X122656600Y-104000300D01*
X124180600Y-109080300D02*
X124180600Y-104000300D01*
G04 #@! TO.C,D32*
X86106000Y-105054400D02*
X84582000Y-105054400D01*
X86106000Y-104927400D02*
X84582000Y-104927400D01*
X84582000Y-104800400D02*
X86106000Y-104800400D01*
X86106000Y-104419400D02*
X84582000Y-104419400D01*
X84582000Y-104546400D02*
X86106000Y-104546400D01*
X86106000Y-104673400D02*
X84582000Y-104673400D01*
X86106000Y-109372400D02*
X86106000Y-108864400D01*
X84582000Y-109372400D02*
X86106000Y-109372400D01*
X84582000Y-104292400D02*
X84582000Y-109372400D01*
X86106000Y-104292400D02*
X84582000Y-104292400D01*
X86106000Y-109372400D02*
X86106000Y-104292400D01*
G04 #@! TO.C,D44*
X124002800Y-127571500D02*
X124002800Y-122491500D01*
X124002800Y-122491500D02*
X122478800Y-122491500D01*
X122478800Y-122491500D02*
X122478800Y-127571500D01*
X122478800Y-127571500D02*
X124002800Y-127571500D01*
X124002800Y-127571500D02*
X124002800Y-127063500D01*
X124002800Y-122872500D02*
X122478800Y-122872500D01*
X122478800Y-122745500D02*
X124002800Y-122745500D01*
X124002800Y-122618500D02*
X122478800Y-122618500D01*
X122478800Y-122999500D02*
X124002800Y-122999500D01*
X124002800Y-123126500D02*
X122478800Y-123126500D01*
X124002800Y-123253500D02*
X122478800Y-123253500D01*
G04 #@! TO.C,D45*
X182473056Y-123512351D02*
X181091843Y-122868281D01*
X182526728Y-123397250D02*
X181145515Y-122753180D01*
X181199188Y-122638078D02*
X182580401Y-123282149D01*
X182741418Y-122936845D02*
X181360205Y-122292775D01*
X181306533Y-122407876D02*
X182687746Y-123051947D01*
X182634073Y-123167048D02*
X181252860Y-122522977D01*
X180648190Y-127425788D02*
X180862880Y-126965384D01*
X179266977Y-126781718D02*
X180648190Y-127425788D01*
X181413878Y-122177674D02*
X179266977Y-126781718D01*
X182795091Y-122821744D02*
X181413878Y-122177674D01*
X180648190Y-127425788D02*
X182795091Y-122821744D01*
G04 #@! TO.C,D41*
X67056000Y-124993400D02*
X65532000Y-124993400D01*
X67056000Y-124866400D02*
X65532000Y-124866400D01*
X65532000Y-124739400D02*
X67056000Y-124739400D01*
X67056000Y-124358400D02*
X65532000Y-124358400D01*
X65532000Y-124485400D02*
X67056000Y-124485400D01*
X67056000Y-124612400D02*
X65532000Y-124612400D01*
X67056000Y-129311400D02*
X67056000Y-128803400D01*
X65532000Y-129311400D02*
X67056000Y-129311400D01*
X65532000Y-124231400D02*
X65532000Y-129311400D01*
X67056000Y-124231400D02*
X65532000Y-124231400D01*
X67056000Y-129311400D02*
X67056000Y-124231400D01*
G04 #@! TO.C,D23*
X105079800Y-83604100D02*
X103555800Y-83604100D01*
X105079800Y-83477100D02*
X103555800Y-83477100D01*
X103555800Y-83350100D02*
X105079800Y-83350100D01*
X105079800Y-82969100D02*
X103555800Y-82969100D01*
X103555800Y-83096100D02*
X105079800Y-83096100D01*
X105079800Y-83223100D02*
X103555800Y-83223100D01*
X105079800Y-87922100D02*
X105079800Y-87414100D01*
X103555800Y-87922100D02*
X105079800Y-87922100D01*
X103555800Y-82842100D02*
X103555800Y-87922100D01*
X105079800Y-82842100D02*
X103555800Y-82842100D01*
X105079800Y-87922100D02*
X105079800Y-82842100D01*
G04 #@! TO.C,D31*
X67043300Y-111239300D02*
X67043300Y-106159300D01*
X67043300Y-106159300D02*
X65519300Y-106159300D01*
X65519300Y-106159300D02*
X65519300Y-111239300D01*
X65519300Y-111239300D02*
X67043300Y-111239300D01*
X67043300Y-111239300D02*
X67043300Y-110731300D01*
X67043300Y-106540300D02*
X65519300Y-106540300D01*
X65519300Y-106413300D02*
X67043300Y-106413300D01*
X67043300Y-106286300D02*
X65519300Y-106286300D01*
X65519300Y-106667300D02*
X67043300Y-106667300D01*
X67043300Y-106794300D02*
X65519300Y-106794300D01*
X67043300Y-106921300D02*
X65519300Y-106921300D01*
G04 #@! TO.C,D33*
X105143300Y-107251500D02*
X105143300Y-102171500D01*
X105143300Y-102171500D02*
X103619300Y-102171500D01*
X103619300Y-102171500D02*
X103619300Y-107251500D01*
X103619300Y-107251500D02*
X105143300Y-107251500D01*
X105143300Y-107251500D02*
X105143300Y-106743500D01*
X105143300Y-102552500D02*
X103619300Y-102552500D01*
X103619300Y-102425500D02*
X105143300Y-102425500D01*
X105143300Y-102298500D02*
X103619300Y-102298500D01*
X103619300Y-102679500D02*
X105143300Y-102679500D01*
X105143300Y-102806500D02*
X103619300Y-102806500D01*
X105143300Y-102933500D02*
X103619300Y-102933500D01*
G04 #@! TO.C,D40*
X47967900Y-130276600D02*
X47967900Y-125196600D01*
X47967900Y-125196600D02*
X46443900Y-125196600D01*
X46443900Y-125196600D02*
X46443900Y-130276600D01*
X46443900Y-130276600D02*
X47967900Y-130276600D01*
X47967900Y-130276600D02*
X47967900Y-129768600D01*
X47967900Y-125577600D02*
X46443900Y-125577600D01*
X46443900Y-125450600D02*
X47967900Y-125450600D01*
X47967900Y-125323600D02*
X46443900Y-125323600D01*
X46443900Y-125704600D02*
X47967900Y-125704600D01*
X47967900Y-125831600D02*
X46443900Y-125831600D01*
X47967900Y-125958600D02*
X46443900Y-125958600D01*
G04 #@! TO.C,D24*
X124193300Y-85394800D02*
X122669300Y-85394800D01*
X124193300Y-85267800D02*
X122669300Y-85267800D01*
X122669300Y-85140800D02*
X124193300Y-85140800D01*
X124193300Y-84759800D02*
X122669300Y-84759800D01*
X122669300Y-84886800D02*
X124193300Y-84886800D01*
X124193300Y-85013800D02*
X122669300Y-85013800D01*
X124193300Y-89712800D02*
X124193300Y-89204800D01*
X122669300Y-89712800D02*
X124193300Y-89712800D01*
X122669300Y-84632800D02*
X122669300Y-89712800D01*
X124193300Y-84632800D02*
X122669300Y-84632800D01*
X124193300Y-89712800D02*
X124193300Y-84632800D01*
G04 #@! TO.C,D42*
X86080600Y-125828600D02*
X86080600Y-120748600D01*
X86080600Y-120748600D02*
X84556600Y-120748600D01*
X84556600Y-120748600D02*
X84556600Y-125828600D01*
X84556600Y-125828600D02*
X86080600Y-125828600D01*
X86080600Y-125828600D02*
X86080600Y-125320600D01*
X86080600Y-121129600D02*
X84556600Y-121129600D01*
X84556600Y-121002600D02*
X86080600Y-121002600D01*
X86080600Y-120875600D02*
X84556600Y-120875600D01*
X84556600Y-121256600D02*
X86080600Y-121256600D01*
X86080600Y-121383600D02*
X84556600Y-121383600D01*
X86080600Y-121510600D02*
X84556600Y-121510600D01*
G04 #@! TO.C,D36*
X149821900Y-111798100D02*
X149821900Y-113322100D01*
X149694900Y-111798100D02*
X149694900Y-113322100D01*
X149567900Y-113322100D02*
X149567900Y-111798100D01*
X149186900Y-111798100D02*
X149186900Y-113322100D01*
X149313900Y-113322100D02*
X149313900Y-111798100D01*
X149440900Y-111798100D02*
X149440900Y-113322100D01*
X154139900Y-111798100D02*
X153631900Y-111798100D01*
X154139900Y-113322100D02*
X154139900Y-111798100D01*
X149059900Y-113322100D02*
X154139900Y-113322100D01*
X149059900Y-111798100D02*
X149059900Y-113322100D01*
X154139900Y-111798100D02*
X149059900Y-111798100D01*
G04 #@! TO.C,D26*
X163490490Y-119272388D02*
X165637391Y-114668344D01*
X165637391Y-114668344D02*
X164256178Y-114024274D01*
X164256178Y-114024274D02*
X162109277Y-118628318D01*
X162109277Y-118628318D02*
X163490490Y-119272388D01*
X163490490Y-119272388D02*
X163705180Y-118811984D01*
X165476373Y-115013648D02*
X164095160Y-114369577D01*
X164148833Y-114254476D02*
X165530046Y-114898547D01*
X165583718Y-114783445D02*
X164202505Y-114139375D01*
X164041488Y-114484678D02*
X165422701Y-115128749D01*
X165369028Y-115243850D02*
X163987815Y-114599780D01*
X165315356Y-115358951D02*
X163934143Y-114714881D01*
G04 #@! TO.C,D25*
X143230600Y-86499700D02*
X141706600Y-86499700D01*
X143230600Y-86372700D02*
X141706600Y-86372700D01*
X141706600Y-86245700D02*
X143230600Y-86245700D01*
X143230600Y-85864700D02*
X141706600Y-85864700D01*
X141706600Y-85991700D02*
X143230600Y-85991700D01*
X143230600Y-86118700D02*
X141706600Y-86118700D01*
X143230600Y-90817700D02*
X143230600Y-90309700D01*
X141706600Y-90817700D02*
X143230600Y-90817700D01*
X141706600Y-85737700D02*
X141706600Y-90817700D01*
X143230600Y-85737700D02*
X141706600Y-85737700D01*
X143230600Y-90817700D02*
X143230600Y-85737700D01*
G04 #@! TO.C,D30*
X43357800Y-107873800D02*
X41833800Y-107873800D01*
X43357800Y-107746800D02*
X41833800Y-107746800D01*
X41833800Y-107619800D02*
X43357800Y-107619800D01*
X43357800Y-107238800D02*
X41833800Y-107238800D01*
X41833800Y-107365800D02*
X43357800Y-107365800D01*
X43357800Y-107492800D02*
X41833800Y-107492800D01*
X43357800Y-112191800D02*
X43357800Y-111683800D01*
X41833800Y-112191800D02*
X43357800Y-112191800D01*
X41833800Y-107111800D02*
X41833800Y-112191800D01*
X43357800Y-107111800D02*
X41833800Y-107111800D01*
X43357800Y-112191800D02*
X43357800Y-107111800D01*
G04 #@! TO.C,D35*
X143230600Y-109626400D02*
X143230600Y-104546400D01*
X143230600Y-104546400D02*
X141706600Y-104546400D01*
X141706600Y-104546400D02*
X141706600Y-109626400D01*
X141706600Y-109626400D02*
X143230600Y-109626400D01*
X143230600Y-109626400D02*
X143230600Y-109118400D01*
X143230600Y-104927400D02*
X141706600Y-104927400D01*
X141706600Y-104800400D02*
X143230600Y-104800400D01*
X143230600Y-104673400D02*
X141706600Y-104673400D01*
X141706600Y-105054400D02*
X143230600Y-105054400D01*
X143230600Y-105181400D02*
X141706600Y-105181400D01*
X143230600Y-105308400D02*
X141706600Y-105308400D01*
G04 #@! TO.C,D43*
X105041700Y-122034300D02*
X103517700Y-122034300D01*
X105041700Y-121907300D02*
X103517700Y-121907300D01*
X103517700Y-121780300D02*
X105041700Y-121780300D01*
X105041700Y-121399300D02*
X103517700Y-121399300D01*
X103517700Y-121526300D02*
X105041700Y-121526300D01*
X105041700Y-121653300D02*
X103517700Y-121653300D01*
X105041700Y-126352300D02*
X105041700Y-125844300D01*
X103517700Y-126352300D02*
X105041700Y-126352300D01*
X103517700Y-121272300D02*
X103517700Y-126352300D01*
X105041700Y-121272300D02*
X103517700Y-121272300D01*
X105041700Y-126352300D02*
X105041700Y-121272300D01*
G04 #@! TO.C,D22*
X86067900Y-89395300D02*
X86067900Y-84315300D01*
X86067900Y-84315300D02*
X84543900Y-84315300D01*
X84543900Y-84315300D02*
X84543900Y-89395300D01*
X84543900Y-89395300D02*
X86067900Y-89395300D01*
X86067900Y-89395300D02*
X86067900Y-88887300D01*
X86067900Y-84696300D02*
X84543900Y-84696300D01*
X84543900Y-84569300D02*
X86067900Y-84569300D01*
X86067900Y-84442300D02*
X84543900Y-84442300D01*
X84543900Y-84823300D02*
X86067900Y-84823300D01*
X86067900Y-84950300D02*
X84543900Y-84950300D01*
X86067900Y-85077300D02*
X84543900Y-85077300D01*
D10*
G04 #@! TO.C,K2*
X80365600Y-55740300D02*
X82143600Y-55740300D01*
X69443600Y-43040300D02*
X71221600Y-43040300D01*
X80365600Y-43040300D02*
X82143600Y-43040300D01*
X82143600Y-43040300D02*
X82143600Y-44818300D01*
X82143600Y-53962300D02*
X82143600Y-55740300D01*
X82143600Y-55740300D02*
X80365600Y-55740300D01*
X71221600Y-55740300D02*
X69443600Y-55740300D01*
X69443600Y-55740300D02*
X69443600Y-53962300D01*
X69443600Y-44818300D02*
X69443600Y-43040300D01*
D11*
G04 #@! TO.C,D55*
X129413000Y-125425200D02*
X127889000Y-125425200D01*
X129413000Y-125298200D02*
X127889000Y-125298200D01*
X127889000Y-125171200D02*
X129413000Y-125171200D01*
X129413000Y-124790200D02*
X127889000Y-124790200D01*
X127889000Y-124917200D02*
X129413000Y-124917200D01*
X129413000Y-125044200D02*
X127889000Y-125044200D01*
X129413000Y-129743200D02*
X129413000Y-129235200D01*
X127889000Y-129743200D02*
X129413000Y-129743200D01*
X127889000Y-124663200D02*
X127889000Y-129743200D01*
X129413000Y-124663200D02*
X127889000Y-124663200D01*
X129413000Y-129743200D02*
X129413000Y-124663200D01*
D10*
G04 #@! TO.C,K3*
X99415600Y-54102000D02*
X101193600Y-54102000D01*
X88493600Y-41402000D02*
X90271600Y-41402000D01*
X99415600Y-41402000D02*
X101193600Y-41402000D01*
X101193600Y-41402000D02*
X101193600Y-43180000D01*
X101193600Y-52324000D02*
X101193600Y-54102000D01*
X101193600Y-54102000D02*
X99415600Y-54102000D01*
X90271600Y-54102000D02*
X88493600Y-54102000D01*
X88493600Y-54102000D02*
X88493600Y-52324000D01*
X88493600Y-43180000D02*
X88493600Y-41402000D01*
D12*
G04 #@! TO.C,AudioJS1*
X135612500Y-15875400D02*
X135612500Y-13875400D01*
X140612500Y-15875400D02*
X140612500Y-13875400D01*
X140612500Y-13875400D02*
X135612500Y-13875400D01*
X135612500Y-15875400D02*
X135012500Y-15875400D01*
X141212500Y-15875400D02*
X140612500Y-15875400D01*
X135012500Y-27975400D02*
X141212500Y-27975400D01*
X141212500Y-15875400D02*
X141212500Y-18250400D01*
X141212500Y-19900400D02*
X141212500Y-21250400D01*
X141212500Y-22900400D02*
X141212500Y-25300400D01*
X141212500Y-26850400D02*
X141212500Y-27975400D01*
X135012500Y-26400400D02*
X135012500Y-15875400D01*
X141212500Y-26850400D02*
X142612500Y-26850400D01*
X141212500Y-25300400D02*
X142612500Y-25300400D01*
D10*
G04 #@! TO.C,K4*
X107543600Y-44729400D02*
X107543600Y-42951400D01*
X107543600Y-55651400D02*
X107543600Y-53873400D01*
X109321600Y-55651400D02*
X107543600Y-55651400D01*
X120243600Y-55651400D02*
X118465600Y-55651400D01*
X120243600Y-53873400D02*
X120243600Y-55651400D01*
X120243600Y-42951400D02*
X120243600Y-44729400D01*
X118465600Y-42951400D02*
X120243600Y-42951400D01*
X107543600Y-42951400D02*
X109321600Y-42951400D01*
X118465600Y-55651400D02*
X120243600Y-55651400D01*
G04 #@! TO.C,K1*
X50393600Y-47942500D02*
X50393600Y-46164500D01*
X50393600Y-58864500D02*
X50393600Y-57086500D01*
X52171600Y-58864500D02*
X50393600Y-58864500D01*
X63093600Y-58864500D02*
X61315600Y-58864500D01*
X63093600Y-57086500D02*
X63093600Y-58864500D01*
X63093600Y-46164500D02*
X63093600Y-47942500D01*
X61315600Y-46164500D02*
X63093600Y-46164500D01*
X50393600Y-46164500D02*
X52171600Y-46164500D01*
X61315600Y-58864500D02*
X63093600Y-58864500D01*
G04 #@! TO.C,K5*
X137541000Y-56946800D02*
X139319000Y-56946800D01*
X126619000Y-44246800D02*
X128397000Y-44246800D01*
X137541000Y-44246800D02*
X139319000Y-44246800D01*
X139319000Y-44246800D02*
X139319000Y-46024800D01*
X139319000Y-55168800D02*
X139319000Y-56946800D01*
X139319000Y-56946800D02*
X137541000Y-56946800D01*
X128397000Y-56946800D02*
X126619000Y-56946800D01*
X126619000Y-56946800D02*
X126619000Y-55168800D01*
X126619000Y-46024800D02*
X126619000Y-44246800D01*
D11*
G04 #@! TO.C,D54*
X133642100Y-130670300D02*
X133642100Y-125590300D01*
X133642100Y-125590300D02*
X132118100Y-125590300D01*
X132118100Y-125590300D02*
X132118100Y-130670300D01*
X132118100Y-130670300D02*
X133642100Y-130670300D01*
X133642100Y-130670300D02*
X133642100Y-130162300D01*
X133642100Y-125971300D02*
X132118100Y-125971300D01*
X132118100Y-125844300D02*
X133642100Y-125844300D01*
X133642100Y-125717300D02*
X132118100Y-125717300D01*
X132118100Y-126098300D02*
X133642100Y-126098300D01*
X133642100Y-126225300D02*
X132118100Y-126225300D01*
X133642100Y-126352300D02*
X132118100Y-126352300D01*
G04 #@! TO.C,R1*
X124079000Y-30480000D02*
X123825000Y-30734000D01*
X123825000Y-30734000D02*
X123571000Y-30734000D01*
X123571000Y-30734000D02*
X123317000Y-30480000D01*
X123317000Y-30480000D02*
X119253000Y-30480000D01*
X119253000Y-30480000D02*
X118999000Y-30734000D01*
X118999000Y-30734000D02*
X118745000Y-30734000D01*
X118745000Y-30734000D02*
X118491000Y-30480000D01*
X118491000Y-30480000D02*
X118491000Y-28956000D01*
X118491000Y-28956000D02*
X118745000Y-28702000D01*
X118745000Y-28702000D02*
X118999000Y-28702000D01*
X118999000Y-28702000D02*
X119253000Y-28956000D01*
X119253000Y-28956000D02*
X123317000Y-28956000D01*
X123317000Y-28956000D02*
X123571000Y-28702000D01*
X123571000Y-28702000D02*
X123825000Y-28702000D01*
X123825000Y-28702000D02*
X124079000Y-28956000D01*
X124079000Y-28956000D02*
X124079000Y-30480000D01*
X124587000Y-29718000D02*
X124079000Y-29718000D01*
X118491000Y-29718000D02*
X117983000Y-29718000D01*
G04 #@! TO.C,R2*
X118531000Y-32766000D02*
X118023000Y-32766000D01*
X124627000Y-32766000D02*
X124119000Y-32766000D01*
X124119000Y-32004000D02*
X124119000Y-33528000D01*
X123865000Y-31750000D02*
X124119000Y-32004000D01*
X123611000Y-31750000D02*
X123865000Y-31750000D01*
X123357000Y-32004000D02*
X123611000Y-31750000D01*
X119293000Y-32004000D02*
X123357000Y-32004000D01*
X119039000Y-31750000D02*
X119293000Y-32004000D01*
X118785000Y-31750000D02*
X119039000Y-31750000D01*
X118531000Y-32004000D02*
X118785000Y-31750000D01*
X118531000Y-33528000D02*
X118531000Y-32004000D01*
X118785000Y-33782000D02*
X118531000Y-33528000D01*
X119039000Y-33782000D02*
X118785000Y-33782000D01*
X119293000Y-33528000D02*
X119039000Y-33782000D01*
X123357000Y-33528000D02*
X119293000Y-33528000D01*
X123611000Y-33782000D02*
X123357000Y-33528000D01*
X123865000Y-33782000D02*
X123611000Y-33782000D01*
X124119000Y-33528000D02*
X123865000Y-33782000D01*
G04 #@! TO.C,D56*
X177602820Y-153955178D02*
X176958750Y-155336391D01*
X177487719Y-153901506D02*
X176843649Y-155282719D01*
X176728547Y-155229046D02*
X177372618Y-153847833D01*
X177027314Y-153686816D02*
X176383244Y-155068029D01*
X176498345Y-155121701D02*
X177142416Y-153740488D01*
X177257517Y-153794161D02*
X176613446Y-155175374D01*
X181516257Y-155780044D02*
X181055853Y-155565354D01*
X180872187Y-157161257D02*
X181516257Y-155780044D01*
X176268143Y-155014356D02*
X180872187Y-157161257D01*
X176912213Y-153633143D02*
X176268143Y-155014356D01*
X181516257Y-155780044D02*
X176912213Y-153633143D01*
G04 #@! TO.C,D46*
X189631557Y-138368344D02*
X185027513Y-136221443D01*
X185027513Y-136221443D02*
X184383443Y-137602656D01*
X184383443Y-137602656D02*
X188987487Y-139749557D01*
X188987487Y-139749557D02*
X189631557Y-138368344D01*
X189631557Y-138368344D02*
X189171153Y-138153654D01*
X185372817Y-136382461D02*
X184728746Y-137763674D01*
X184613645Y-137710001D02*
X185257716Y-136328788D01*
X185142614Y-136275116D02*
X184498544Y-137656329D01*
X184843847Y-137817346D02*
X185487918Y-136436133D01*
X185603019Y-136489806D02*
X184958949Y-137871019D01*
X185718120Y-136543478D02*
X185074050Y-137924691D01*
D10*
G04 #@! TO.C,K0*
X37490400Y-58879740D02*
X39268400Y-58879740D01*
X26568400Y-46179740D02*
X28346400Y-46179740D01*
X37490400Y-46179740D02*
X39268400Y-46179740D01*
X39268400Y-46179740D02*
X39268400Y-47957740D01*
X39268400Y-57101740D02*
X39268400Y-58879740D01*
X39268400Y-58879740D02*
X37490400Y-58879740D01*
X28346400Y-58879740D02*
X26568400Y-58879740D01*
X26568400Y-58879740D02*
X26568400Y-57101740D01*
X26568400Y-47957740D02*
X26568400Y-46179740D01*
D11*
G04 #@! TO.C,D5*
X143281400Y-48285400D02*
X141757400Y-48285400D01*
X143281400Y-48158400D02*
X141757400Y-48158400D01*
X141757400Y-48031400D02*
X143281400Y-48031400D01*
X143281400Y-47650400D02*
X141757400Y-47650400D01*
X141757400Y-47777400D02*
X143281400Y-47777400D01*
X143281400Y-47904400D02*
X141757400Y-47904400D01*
X143281400Y-52603400D02*
X143281400Y-52095400D01*
X141757400Y-52603400D02*
X143281400Y-52603400D01*
X141757400Y-47523400D02*
X141757400Y-52603400D01*
X143281400Y-47523400D02*
X141757400Y-47523400D01*
X143281400Y-52603400D02*
X143281400Y-47523400D01*
G04 #@! TO.C,D6*
X154673300Y-59055000D02*
X149593300Y-59055000D01*
X149593300Y-59055000D02*
X149593300Y-60579000D01*
X149593300Y-60579000D02*
X154673300Y-60579000D01*
X154673300Y-60579000D02*
X154673300Y-59055000D01*
X154673300Y-59055000D02*
X154165300Y-59055000D01*
X149974300Y-59055000D02*
X149974300Y-60579000D01*
X149847300Y-60579000D02*
X149847300Y-59055000D01*
X149720300Y-59055000D02*
X149720300Y-60579000D01*
X150101300Y-60579000D02*
X150101300Y-59055000D01*
X150228300Y-59055000D02*
X150228300Y-60579000D01*
X150355300Y-59055000D02*
X150355300Y-60579000D01*
G04 #@! TO.C,D21*
X67068700Y-87007700D02*
X65544700Y-87007700D01*
X67068700Y-86880700D02*
X65544700Y-86880700D01*
X65544700Y-86753700D02*
X67068700Y-86753700D01*
X67068700Y-86372700D02*
X65544700Y-86372700D01*
X65544700Y-86499700D02*
X67068700Y-86499700D01*
X67068700Y-86626700D02*
X65544700Y-86626700D01*
X67068700Y-91325700D02*
X67068700Y-90817700D01*
X65544700Y-91325700D02*
X67068700Y-91325700D01*
X65544700Y-86245700D02*
X65544700Y-91325700D01*
X67068700Y-86245700D02*
X65544700Y-86245700D01*
X67068700Y-91325700D02*
X67068700Y-86245700D01*
G04 #@! TO.C,D10*
X43332400Y-68948300D02*
X41808400Y-68948300D01*
X43332400Y-68821300D02*
X41808400Y-68821300D01*
X41808400Y-68694300D02*
X43332400Y-68694300D01*
X43332400Y-68313300D02*
X41808400Y-68313300D01*
X41808400Y-68440300D02*
X43332400Y-68440300D01*
X43332400Y-68567300D02*
X41808400Y-68567300D01*
X43332400Y-73266300D02*
X43332400Y-72758300D01*
X41808400Y-73266300D02*
X43332400Y-73266300D01*
X41808400Y-68186300D02*
X41808400Y-73266300D01*
X43332400Y-68186300D02*
X41808400Y-68186300D01*
X43332400Y-73266300D02*
X43332400Y-68186300D01*
G04 #@! TO.C,D13*
X105130600Y-69875400D02*
X105130600Y-64795400D01*
X105130600Y-64795400D02*
X103606600Y-64795400D01*
X103606600Y-64795400D02*
X103606600Y-69875400D01*
X103606600Y-69875400D02*
X105130600Y-69875400D01*
X105130600Y-69875400D02*
X105130600Y-69367400D01*
X105130600Y-65176400D02*
X103606600Y-65176400D01*
X103606600Y-65049400D02*
X105130600Y-65049400D01*
X105130600Y-64922400D02*
X103606600Y-64922400D01*
X103606600Y-65303400D02*
X105130600Y-65303400D01*
X105130600Y-65430400D02*
X103606600Y-65430400D01*
X105130600Y-65557400D02*
X103606600Y-65557400D01*
G04 #@! TO.C,D12*
X86055200Y-64655700D02*
X84531200Y-64655700D01*
X86055200Y-64528700D02*
X84531200Y-64528700D01*
X84531200Y-64401700D02*
X86055200Y-64401700D01*
X86055200Y-64020700D02*
X84531200Y-64020700D01*
X84531200Y-64147700D02*
X86055200Y-64147700D01*
X86055200Y-64274700D02*
X84531200Y-64274700D01*
X86055200Y-68973700D02*
X86055200Y-68465700D01*
X84531200Y-68973700D02*
X86055200Y-68973700D01*
X84531200Y-63893700D02*
X84531200Y-68973700D01*
X86055200Y-63893700D02*
X84531200Y-63893700D01*
X86055200Y-68973700D02*
X86055200Y-63893700D01*
G04 #@! TO.C,D14*
X124142500Y-66535300D02*
X122618500Y-66535300D01*
X124142500Y-66408300D02*
X122618500Y-66408300D01*
X122618500Y-66281300D02*
X124142500Y-66281300D01*
X124142500Y-65900300D02*
X122618500Y-65900300D01*
X122618500Y-66027300D02*
X124142500Y-66027300D01*
X124142500Y-66154300D02*
X122618500Y-66154300D01*
X124142500Y-70853300D02*
X124142500Y-70345300D01*
X122618500Y-70853300D02*
X124142500Y-70853300D01*
X122618500Y-65773300D02*
X122618500Y-70853300D01*
X124142500Y-65773300D02*
X122618500Y-65773300D01*
X124142500Y-70853300D02*
X124142500Y-65773300D01*
G04 #@! TO.C,D16*
X150698200Y-84074000D02*
X150698200Y-85598000D01*
X150571200Y-84074000D02*
X150571200Y-85598000D01*
X150444200Y-85598000D02*
X150444200Y-84074000D01*
X150063200Y-84074000D02*
X150063200Y-85598000D01*
X150190200Y-85598000D02*
X150190200Y-84074000D01*
X150317200Y-84074000D02*
X150317200Y-85598000D01*
X155016200Y-84074000D02*
X154508200Y-84074000D01*
X155016200Y-85598000D02*
X155016200Y-84074000D01*
X149936200Y-85598000D02*
X155016200Y-85598000D01*
X149936200Y-84074000D02*
X149936200Y-85598000D01*
X155016200Y-84074000D02*
X149936200Y-84074000D01*
G04 #@! TO.C,D20*
X43383200Y-92405200D02*
X43383200Y-87325200D01*
X43383200Y-87325200D02*
X41859200Y-87325200D01*
X41859200Y-87325200D02*
X41859200Y-92405200D01*
X41859200Y-92405200D02*
X43383200Y-92405200D01*
X43383200Y-92405200D02*
X43383200Y-91897200D01*
X43383200Y-87706200D02*
X41859200Y-87706200D01*
X41859200Y-87579200D02*
X43383200Y-87579200D01*
X43383200Y-87452200D02*
X41859200Y-87452200D01*
X41859200Y-87833200D02*
X43383200Y-87833200D01*
X43383200Y-87960200D02*
X41859200Y-87960200D01*
X43383200Y-88087200D02*
X41859200Y-88087200D01*
G04 #@! TO.C,D11*
X67005200Y-73558400D02*
X67005200Y-68478400D01*
X67005200Y-68478400D02*
X65481200Y-68478400D01*
X65481200Y-68478400D02*
X65481200Y-73558400D01*
X65481200Y-73558400D02*
X67005200Y-73558400D01*
X67005200Y-73558400D02*
X67005200Y-73050400D01*
X67005200Y-68859400D02*
X65481200Y-68859400D01*
X65481200Y-68732400D02*
X67005200Y-68732400D01*
X67005200Y-68605400D02*
X65481200Y-68605400D01*
X65481200Y-68986400D02*
X67005200Y-68986400D01*
X67005200Y-69113400D02*
X65481200Y-69113400D01*
X67005200Y-69240400D02*
X65481200Y-69240400D01*
G04 #@! TO.C,D15*
X143256000Y-70878700D02*
X143256000Y-65798700D01*
X143256000Y-65798700D02*
X141732000Y-65798700D01*
X141732000Y-65798700D02*
X141732000Y-70878700D01*
X141732000Y-70878700D02*
X143256000Y-70878700D01*
X143256000Y-70878700D02*
X143256000Y-70370700D01*
X143256000Y-66179700D02*
X141732000Y-66179700D01*
X141732000Y-66052700D02*
X143256000Y-66052700D01*
X143256000Y-65925700D02*
X141732000Y-65925700D01*
X141732000Y-66306700D02*
X143256000Y-66306700D01*
X143256000Y-66433700D02*
X141732000Y-66433700D01*
X143256000Y-66560700D02*
X141732000Y-66560700D01*
G04 #@! TO.C,MCU1*
X48075857Y-24834809D02*
X48113952Y-24720523D01*
X48152047Y-24682428D01*
X48228238Y-24644333D01*
X48342523Y-24644333D01*
X48418714Y-24682428D01*
X48456809Y-24720523D01*
X48494904Y-24796714D01*
X48494904Y-25101476D01*
X47694904Y-25101476D01*
X47694904Y-24834809D01*
X47733000Y-24758619D01*
X47771095Y-24720523D01*
X47847285Y-24682428D01*
X47923476Y-24682428D01*
X47999666Y-24720523D01*
X48037761Y-24758619D01*
X48075857Y-24834809D01*
X48075857Y-25101476D01*
X47771095Y-24339571D02*
X47733000Y-24301476D01*
X47694904Y-24225285D01*
X47694904Y-24034809D01*
X47733000Y-23958619D01*
X47771095Y-23920523D01*
X47847285Y-23882428D01*
X47923476Y-23882428D01*
X48037761Y-23920523D01*
X48494904Y-24377666D01*
X48494904Y-23882428D01*
X40455857Y-24777666D02*
X40455857Y-25044333D01*
X40874904Y-25044333D02*
X40074904Y-25044333D01*
X40074904Y-24663380D01*
X40074904Y-24434809D02*
X40074904Y-23901476D01*
X40874904Y-24244333D01*
X37915857Y-24777666D02*
X37915857Y-25044333D01*
X38334904Y-25044333D02*
X37534904Y-25044333D01*
X37534904Y-24663380D01*
X37534904Y-24015761D02*
X37534904Y-24168142D01*
X37573000Y-24244333D01*
X37611095Y-24282428D01*
X37725380Y-24358619D01*
X37877761Y-24396714D01*
X38182523Y-24396714D01*
X38258714Y-24358619D01*
X38296809Y-24320523D01*
X38334904Y-24244333D01*
X38334904Y-24091952D01*
X38296809Y-24015761D01*
X38258714Y-23977666D01*
X38182523Y-23939571D01*
X37992047Y-23939571D01*
X37915857Y-23977666D01*
X37877761Y-24015761D01*
X37839666Y-24091952D01*
X37839666Y-24244333D01*
X37877761Y-24320523D01*
X37915857Y-24358619D01*
X37992047Y-24396714D01*
X35375857Y-24777666D02*
X35375857Y-25044333D01*
X35794904Y-25044333D02*
X34994904Y-25044333D01*
X34994904Y-24663380D01*
X34994904Y-23977666D02*
X34994904Y-24358619D01*
X35375857Y-24396714D01*
X35337761Y-24358619D01*
X35299666Y-24282428D01*
X35299666Y-24091952D01*
X35337761Y-24015761D01*
X35375857Y-23977666D01*
X35452047Y-23939571D01*
X35642523Y-23939571D01*
X35718714Y-23977666D01*
X35756809Y-24015761D01*
X35794904Y-24091952D01*
X35794904Y-24282428D01*
X35756809Y-24358619D01*
X35718714Y-24396714D01*
X23094904Y-25063380D02*
X22713952Y-25330047D01*
X23094904Y-25520523D02*
X22294904Y-25520523D01*
X22294904Y-25215761D01*
X22333000Y-25139571D01*
X22371095Y-25101476D01*
X22447285Y-25063380D01*
X22561571Y-25063380D01*
X22637761Y-25101476D01*
X22675857Y-25139571D01*
X22713952Y-25215761D01*
X22713952Y-25520523D01*
X22866333Y-24758619D02*
X22866333Y-24377666D01*
X23094904Y-24834809D02*
X22294904Y-24568142D01*
X23094904Y-24301476D01*
X22294904Y-24111000D02*
X23094904Y-23920523D01*
X22523476Y-23768142D01*
X23094904Y-23615761D01*
X22294904Y-23425285D01*
X24873000Y-25120523D02*
X24834904Y-25196714D01*
X24834904Y-25311000D01*
X24873000Y-25425285D01*
X24949190Y-25501476D01*
X25025380Y-25539571D01*
X25177761Y-25577666D01*
X25292047Y-25577666D01*
X25444428Y-25539571D01*
X25520619Y-25501476D01*
X25596809Y-25425285D01*
X25634904Y-25311000D01*
X25634904Y-25234809D01*
X25596809Y-25120523D01*
X25558714Y-25082428D01*
X25292047Y-25082428D01*
X25292047Y-25234809D01*
X25634904Y-24739571D02*
X24834904Y-24739571D01*
X25634904Y-24282428D01*
X24834904Y-24282428D01*
X25634904Y-23901476D02*
X24834904Y-23901476D01*
X24834904Y-23711000D01*
X24873000Y-23596714D01*
X24949190Y-23520523D01*
X25025380Y-23482428D01*
X25177761Y-23444333D01*
X25292047Y-23444333D01*
X25444428Y-23482428D01*
X25520619Y-23520523D01*
X25596809Y-23596714D01*
X25634904Y-23711000D01*
X25634904Y-23901476D01*
X28106809Y-24772213D02*
X28144904Y-24657927D01*
X28144904Y-24467451D01*
X28106809Y-24391260D01*
X28068714Y-24353165D01*
X27992523Y-24315070D01*
X27916333Y-24315070D01*
X27840142Y-24353165D01*
X27802047Y-24391260D01*
X27763952Y-24467451D01*
X27725857Y-24619832D01*
X27687761Y-24696022D01*
X27649666Y-24734118D01*
X27573476Y-24772213D01*
X27497285Y-24772213D01*
X27421095Y-24734118D01*
X27383000Y-24696022D01*
X27344904Y-24619832D01*
X27344904Y-24429356D01*
X27383000Y-24315070D01*
X27344904Y-24086499D02*
X27344904Y-23629356D01*
X28144904Y-23857927D02*
X27344904Y-23857927D01*
X29914904Y-25577666D02*
X30714904Y-25311000D01*
X29914904Y-25044333D01*
X30638714Y-24320523D02*
X30676809Y-24358619D01*
X30714904Y-24472904D01*
X30714904Y-24549095D01*
X30676809Y-24663380D01*
X30600619Y-24739571D01*
X30524428Y-24777666D01*
X30372047Y-24815761D01*
X30257761Y-24815761D01*
X30105380Y-24777666D01*
X30029190Y-24739571D01*
X29953000Y-24663380D01*
X29914904Y-24549095D01*
X29914904Y-24472904D01*
X29953000Y-24358619D01*
X29991095Y-24320523D01*
X30638714Y-23520523D02*
X30676809Y-23558619D01*
X30714904Y-23672904D01*
X30714904Y-23749095D01*
X30676809Y-23863380D01*
X30600619Y-23939571D01*
X30524428Y-23977666D01*
X30372047Y-24015761D01*
X30257761Y-24015761D01*
X30105380Y-23977666D01*
X30029190Y-23939571D01*
X29953000Y-23863380D01*
X29914904Y-23749095D01*
X29914904Y-23672904D01*
X29953000Y-23558619D01*
X29991095Y-23520523D01*
X32835857Y-24777666D02*
X32835857Y-25044333D01*
X33254904Y-25044333D02*
X32454904Y-25044333D01*
X32454904Y-24663380D01*
X32721571Y-24015761D02*
X33254904Y-24015761D01*
X32416809Y-24206238D02*
X32988238Y-24396714D01*
X32988238Y-23901476D01*
X42995857Y-24834809D02*
X43033952Y-24720523D01*
X43072047Y-24682428D01*
X43148238Y-24644333D01*
X43262523Y-24644333D01*
X43338714Y-24682428D01*
X43376809Y-24720523D01*
X43414904Y-24796714D01*
X43414904Y-25101476D01*
X42614904Y-25101476D01*
X42614904Y-24834809D01*
X42653000Y-24758619D01*
X42691095Y-24720523D01*
X42767285Y-24682428D01*
X42843476Y-24682428D01*
X42919666Y-24720523D01*
X42957761Y-24758619D01*
X42995857Y-24834809D01*
X42995857Y-25101476D01*
X43414904Y-23882428D02*
X43414904Y-24339571D01*
X43414904Y-24111000D02*
X42614904Y-24111000D01*
X42729190Y-24187190D01*
X42805380Y-24263380D01*
X42843476Y-24339571D01*
X45535857Y-24834809D02*
X45573952Y-24720523D01*
X45612047Y-24682428D01*
X45688238Y-24644333D01*
X45802523Y-24644333D01*
X45878714Y-24682428D01*
X45916809Y-24720523D01*
X45954904Y-24796714D01*
X45954904Y-25101476D01*
X45154904Y-25101476D01*
X45154904Y-24834809D01*
X45193000Y-24758619D01*
X45231095Y-24720523D01*
X45307285Y-24682428D01*
X45383476Y-24682428D01*
X45459666Y-24720523D01*
X45497761Y-24758619D01*
X45535857Y-24834809D01*
X45535857Y-25101476D01*
X45154904Y-24377666D02*
X45154904Y-23882428D01*
X45459666Y-24149095D01*
X45459666Y-24034809D01*
X45497761Y-23958619D01*
X45535857Y-23920523D01*
X45612047Y-23882428D01*
X45802523Y-23882428D01*
X45878714Y-23920523D01*
X45916809Y-23958619D01*
X45954904Y-24034809D01*
X45954904Y-24263380D01*
X45916809Y-24339571D01*
X45878714Y-24377666D01*
X50615857Y-24834809D02*
X50653952Y-24720523D01*
X50692047Y-24682428D01*
X50768238Y-24644333D01*
X50882523Y-24644333D01*
X50958714Y-24682428D01*
X50996809Y-24720523D01*
X51034904Y-24796714D01*
X51034904Y-25101476D01*
X50234904Y-25101476D01*
X50234904Y-24834809D01*
X50273000Y-24758619D01*
X50311095Y-24720523D01*
X50387285Y-24682428D01*
X50463476Y-24682428D01*
X50539666Y-24720523D01*
X50577761Y-24758619D01*
X50615857Y-24834809D01*
X50615857Y-25101476D01*
X50234904Y-23958619D02*
X50234904Y-24111000D01*
X50273000Y-24187190D01*
X50311095Y-24225285D01*
X50425380Y-24301476D01*
X50577761Y-24339571D01*
X50882523Y-24339571D01*
X50958714Y-24301476D01*
X50996809Y-24263380D01*
X51034904Y-24187190D01*
X51034904Y-24034809D01*
X50996809Y-23958619D01*
X50958714Y-23920523D01*
X50882523Y-23882428D01*
X50692047Y-23882428D01*
X50615857Y-23920523D01*
X50577761Y-23958619D01*
X50539666Y-24034809D01*
X50539666Y-24187190D01*
X50577761Y-24263380D01*
X50615857Y-24301476D01*
X50692047Y-24339571D01*
X50615857Y-35756809D02*
X50653952Y-35642523D01*
X50692047Y-35604428D01*
X50768238Y-35566333D01*
X50882523Y-35566333D01*
X50958714Y-35604428D01*
X50996809Y-35642523D01*
X51034904Y-35718714D01*
X51034904Y-36023476D01*
X50234904Y-36023476D01*
X50234904Y-35756809D01*
X50273000Y-35680619D01*
X50311095Y-35642523D01*
X50387285Y-35604428D01*
X50463476Y-35604428D01*
X50539666Y-35642523D01*
X50577761Y-35680619D01*
X50615857Y-35756809D01*
X50615857Y-36023476D01*
X50234904Y-34842523D02*
X50234904Y-35223476D01*
X50615857Y-35261571D01*
X50577761Y-35223476D01*
X50539666Y-35147285D01*
X50539666Y-34956809D01*
X50577761Y-34880619D01*
X50615857Y-34842523D01*
X50692047Y-34804428D01*
X50882523Y-34804428D01*
X50958714Y-34842523D01*
X50996809Y-34880619D01*
X51034904Y-34956809D01*
X51034904Y-35147285D01*
X50996809Y-35223476D01*
X50958714Y-35261571D01*
X48075857Y-35756809D02*
X48113952Y-35642523D01*
X48152047Y-35604428D01*
X48228238Y-35566333D01*
X48342523Y-35566333D01*
X48418714Y-35604428D01*
X48456809Y-35642523D01*
X48494904Y-35718714D01*
X48494904Y-36023476D01*
X47694904Y-36023476D01*
X47694904Y-35756809D01*
X47733000Y-35680619D01*
X47771095Y-35642523D01*
X47847285Y-35604428D01*
X47923476Y-35604428D01*
X47999666Y-35642523D01*
X48037761Y-35680619D01*
X48075857Y-35756809D01*
X48075857Y-36023476D01*
X47961571Y-34880619D02*
X48494904Y-34880619D01*
X47656809Y-35071095D02*
X48228238Y-35261571D01*
X48228238Y-34766333D01*
X45535857Y-35985380D02*
X45535857Y-35718714D01*
X45954904Y-35604428D02*
X45954904Y-35985380D01*
X45154904Y-35985380D01*
X45154904Y-35604428D01*
X45154904Y-34918714D02*
X45154904Y-35071095D01*
X45193000Y-35147285D01*
X45231095Y-35185380D01*
X45345380Y-35261571D01*
X45497761Y-35299666D01*
X45802523Y-35299666D01*
X45878714Y-35261571D01*
X45916809Y-35223476D01*
X45954904Y-35147285D01*
X45954904Y-34994904D01*
X45916809Y-34918714D01*
X45878714Y-34880619D01*
X45802523Y-34842523D01*
X45612047Y-34842523D01*
X45535857Y-34880619D01*
X45497761Y-34918714D01*
X45459666Y-34994904D01*
X45459666Y-35147285D01*
X45497761Y-35223476D01*
X45535857Y-35261571D01*
X45612047Y-35299666D01*
X43414904Y-36023476D02*
X42614904Y-36023476D01*
X42614904Y-35833000D01*
X42653000Y-35718714D01*
X42729190Y-35642523D01*
X42805380Y-35604428D01*
X42957761Y-35566333D01*
X43072047Y-35566333D01*
X43224428Y-35604428D01*
X43300619Y-35642523D01*
X43376809Y-35718714D01*
X43414904Y-35833000D01*
X43414904Y-36023476D01*
X42614904Y-35299666D02*
X42614904Y-34766333D01*
X43414904Y-35109190D01*
X40798714Y-35566333D02*
X40836809Y-35604428D01*
X40874904Y-35718714D01*
X40874904Y-35794904D01*
X40836809Y-35909190D01*
X40760619Y-35985380D01*
X40684428Y-36023476D01*
X40532047Y-36061571D01*
X40417761Y-36061571D01*
X40265380Y-36023476D01*
X40189190Y-35985380D01*
X40113000Y-35909190D01*
X40074904Y-35794904D01*
X40074904Y-35718714D01*
X40113000Y-35604428D01*
X40151095Y-35566333D01*
X40074904Y-34880619D02*
X40074904Y-35033000D01*
X40113000Y-35109190D01*
X40151095Y-35147285D01*
X40265380Y-35223476D01*
X40417761Y-35261571D01*
X40722523Y-35261571D01*
X40798714Y-35223476D01*
X40836809Y-35185380D01*
X40874904Y-35109190D01*
X40874904Y-34956809D01*
X40836809Y-34880619D01*
X40798714Y-34842523D01*
X40722523Y-34804428D01*
X40532047Y-34804428D01*
X40455857Y-34842523D01*
X40417761Y-34880619D01*
X40379666Y-34956809D01*
X40379666Y-35109190D01*
X40417761Y-35185380D01*
X40455857Y-35223476D01*
X40532047Y-35261571D01*
X38334904Y-36023476D02*
X37534904Y-36023476D01*
X37534904Y-35833000D01*
X37573000Y-35718714D01*
X37649190Y-35642523D01*
X37725380Y-35604428D01*
X37877761Y-35566333D01*
X37992047Y-35566333D01*
X38144428Y-35604428D01*
X38220619Y-35642523D01*
X38296809Y-35718714D01*
X38334904Y-35833000D01*
X38334904Y-36023476D01*
X37801571Y-34880619D02*
X38334904Y-34880619D01*
X37496809Y-35071095D02*
X38068238Y-35261571D01*
X38068238Y-34766333D01*
X27413000Y-36042523D02*
X27374904Y-36118714D01*
X27374904Y-36233000D01*
X27413000Y-36347285D01*
X27489190Y-36423476D01*
X27565380Y-36461571D01*
X27717761Y-36499666D01*
X27832047Y-36499666D01*
X27984428Y-36461571D01*
X28060619Y-36423476D01*
X28136809Y-36347285D01*
X28174904Y-36233000D01*
X28174904Y-36156809D01*
X28136809Y-36042523D01*
X28098714Y-36004428D01*
X27832047Y-36004428D01*
X27832047Y-36156809D01*
X28174904Y-35661571D02*
X27374904Y-35661571D01*
X28174904Y-35204428D01*
X27374904Y-35204428D01*
X28174904Y-34823476D02*
X27374904Y-34823476D01*
X27374904Y-34633000D01*
X27413000Y-34518714D01*
X27489190Y-34442523D01*
X27565380Y-34404428D01*
X27717761Y-34366333D01*
X27832047Y-34366333D01*
X27984428Y-34404428D01*
X28060619Y-34442523D01*
X28136809Y-34518714D01*
X28174904Y-34633000D01*
X28174904Y-34823476D01*
X29953000Y-36042523D02*
X29914904Y-36118714D01*
X29914904Y-36233000D01*
X29953000Y-36347285D01*
X30029190Y-36423476D01*
X30105380Y-36461571D01*
X30257761Y-36499666D01*
X30372047Y-36499666D01*
X30524428Y-36461571D01*
X30600619Y-36423476D01*
X30676809Y-36347285D01*
X30714904Y-36233000D01*
X30714904Y-36156809D01*
X30676809Y-36042523D01*
X30638714Y-36004428D01*
X30372047Y-36004428D01*
X30372047Y-36156809D01*
X30714904Y-35661571D02*
X29914904Y-35661571D01*
X30714904Y-35204428D01*
X29914904Y-35204428D01*
X30714904Y-34823476D02*
X29914904Y-34823476D01*
X29914904Y-34633000D01*
X29953000Y-34518714D01*
X30029190Y-34442523D01*
X30105380Y-34404428D01*
X30257761Y-34366333D01*
X30372047Y-34366333D01*
X30524428Y-34404428D01*
X30600619Y-34442523D01*
X30676809Y-34518714D01*
X30714904Y-34633000D01*
X30714904Y-34823476D01*
X33254904Y-36023476D02*
X32454904Y-36023476D01*
X32454904Y-35833000D01*
X32493000Y-35718714D01*
X32569190Y-35642523D01*
X32645380Y-35604428D01*
X32797761Y-35566333D01*
X32912047Y-35566333D01*
X33064428Y-35604428D01*
X33140619Y-35642523D01*
X33216809Y-35718714D01*
X33254904Y-35833000D01*
X33254904Y-36023476D01*
X33254904Y-34804428D02*
X33254904Y-35261571D01*
X33254904Y-35033000D02*
X32454904Y-35033000D01*
X32569190Y-35109190D01*
X32645380Y-35185380D01*
X32683476Y-35261571D01*
X35794904Y-36023476D02*
X34994904Y-36023476D01*
X34994904Y-35833000D01*
X35033000Y-35718714D01*
X35109190Y-35642523D01*
X35185380Y-35604428D01*
X35337761Y-35566333D01*
X35452047Y-35566333D01*
X35604428Y-35604428D01*
X35680619Y-35642523D01*
X35756809Y-35718714D01*
X35794904Y-35833000D01*
X35794904Y-36023476D01*
X34994904Y-35071095D02*
X34994904Y-34994904D01*
X35033000Y-34918714D01*
X35071095Y-34880619D01*
X35147285Y-34842523D01*
X35299666Y-34804428D01*
X35490142Y-34804428D01*
X35642523Y-34842523D01*
X35718714Y-34880619D01*
X35756809Y-34918714D01*
X35794904Y-34994904D01*
X35794904Y-35071095D01*
X35756809Y-35147285D01*
X35718714Y-35185380D01*
X35642523Y-35223476D01*
X35490142Y-35261571D01*
X35299666Y-35261571D01*
X35147285Y-35223476D01*
X35071095Y-35185380D01*
X35033000Y-35147285D01*
X34994904Y-35071095D01*
X25634904Y-36023476D02*
X24834904Y-36023476D01*
X24834904Y-35833000D01*
X24873000Y-35718714D01*
X24949190Y-35642523D01*
X25025380Y-35604428D01*
X25177761Y-35566333D01*
X25292047Y-35566333D01*
X25444428Y-35604428D01*
X25520619Y-35642523D01*
X25596809Y-35718714D01*
X25634904Y-35833000D01*
X25634904Y-36023476D01*
X24911095Y-35261571D02*
X24873000Y-35223476D01*
X24834904Y-35147285D01*
X24834904Y-34956809D01*
X24873000Y-34880619D01*
X24911095Y-34842523D01*
X24987285Y-34804428D01*
X25063476Y-34804428D01*
X25177761Y-34842523D01*
X25634904Y-35299666D01*
X25634904Y-34804428D01*
X22294904Y-35734348D02*
X22294904Y-35277205D01*
X23094904Y-35505776D02*
X22294904Y-35505776D01*
X22294904Y-35086729D02*
X23094904Y-34553395D01*
X22294904Y-34553395D02*
X23094904Y-35086729D01*
X22294904Y-34096252D02*
X22294904Y-34020062D01*
X22333000Y-33943872D01*
X22371095Y-33905776D01*
X22447285Y-33867681D01*
X22599666Y-33829586D01*
X22790142Y-33829586D01*
X22942523Y-33867681D01*
X23018714Y-33905776D01*
X23056809Y-33943872D01*
X23094904Y-34020062D01*
X23094904Y-34096252D01*
X23056809Y-34172443D01*
X23018714Y-34210538D01*
X22942523Y-34248633D01*
X22790142Y-34286729D01*
X22599666Y-34286729D01*
X22447285Y-34248633D01*
X22371095Y-34210538D01*
X22333000Y-34172443D01*
X22294904Y-34096252D01*
X22256809Y-32915300D02*
X23285380Y-33601014D01*
X23094904Y-32648633D02*
X22294904Y-32648633D01*
X22294904Y-32458157D01*
X22333000Y-32343872D01*
X22409190Y-32267681D01*
X22485380Y-32229586D01*
X22637761Y-32191491D01*
X22752047Y-32191491D01*
X22904428Y-32229586D01*
X22980619Y-32267681D01*
X23056809Y-32343872D01*
X23094904Y-32458157D01*
X23094904Y-32648633D01*
X22294904Y-31924824D02*
X22294904Y-31429586D01*
X22599666Y-31696252D01*
X22599666Y-31581967D01*
X22637761Y-31505776D01*
X22675857Y-31467681D01*
X22752047Y-31429586D01*
X22942523Y-31429586D01*
X23018714Y-31467681D01*
X23056809Y-31505776D01*
X23094904Y-31581967D01*
X23094904Y-31810538D01*
X23056809Y-31886729D01*
X23018714Y-31924824D01*
G04 #@! TO.C,SW1*
X96964666Y-27642761D02*
X97107523Y-27690380D01*
X97345619Y-27690380D01*
X97440857Y-27642761D01*
X97488476Y-27595142D01*
X97536095Y-27499904D01*
X97536095Y-27404666D01*
X97488476Y-27309428D01*
X97440857Y-27261809D01*
X97345619Y-27214190D01*
X97155142Y-27166571D01*
X97059904Y-27118952D01*
X97012285Y-27071333D01*
X96964666Y-26976095D01*
X96964666Y-26880857D01*
X97012285Y-26785619D01*
X97059904Y-26738000D01*
X97155142Y-26690380D01*
X97393238Y-26690380D01*
X97536095Y-26738000D01*
X97869428Y-26690380D02*
X98107523Y-27690380D01*
X98298000Y-26976095D01*
X98488476Y-27690380D01*
X98726571Y-26690380D01*
X99631333Y-27690380D02*
X99059904Y-27690380D01*
X99345619Y-27690380D02*
X99345619Y-26690380D01*
X99250380Y-26833238D01*
X99155142Y-26928476D01*
X99059904Y-26976095D01*
G04 #@! TO.C,D1*
X67979704Y-52076276D02*
X67179704Y-52076276D01*
X67179704Y-51885800D01*
X67217800Y-51771514D01*
X67293990Y-51695323D01*
X67370180Y-51657228D01*
X67522561Y-51619133D01*
X67636847Y-51619133D01*
X67789228Y-51657228D01*
X67865419Y-51695323D01*
X67941609Y-51771514D01*
X67979704Y-51885800D01*
X67979704Y-52076276D01*
X67979704Y-50857228D02*
X67979704Y-51314371D01*
X67979704Y-51085800D02*
X67179704Y-51085800D01*
X67293990Y-51161990D01*
X67370180Y-51238180D01*
X67408276Y-51314371D01*
G04 #@! TO.C,D0*
X44179904Y-53384376D02*
X43379904Y-53384376D01*
X43379904Y-53193900D01*
X43418000Y-53079614D01*
X43494190Y-53003423D01*
X43570380Y-52965328D01*
X43722761Y-52927233D01*
X43837047Y-52927233D01*
X43989428Y-52965328D01*
X44065619Y-53003423D01*
X44141809Y-53079614D01*
X44179904Y-53193900D01*
X44179904Y-53384376D01*
X43379904Y-52431995D02*
X43379904Y-52355804D01*
X43418000Y-52279614D01*
X43456095Y-52241519D01*
X43532285Y-52203423D01*
X43684666Y-52165328D01*
X43875142Y-52165328D01*
X44027523Y-52203423D01*
X44103714Y-52241519D01*
X44141809Y-52279614D01*
X44179904Y-52355804D01*
X44179904Y-52431995D01*
X44141809Y-52508185D01*
X44103714Y-52546280D01*
X44027523Y-52584376D01*
X43875142Y-52622471D01*
X43684666Y-52622471D01*
X43532285Y-52584376D01*
X43456095Y-52546280D01*
X43418000Y-52508185D01*
X43379904Y-52431995D01*
G04 #@! TO.C,D2*
X87042404Y-47682076D02*
X86242404Y-47682076D01*
X86242404Y-47491600D01*
X86280500Y-47377314D01*
X86356690Y-47301123D01*
X86432880Y-47263028D01*
X86585261Y-47224933D01*
X86699547Y-47224933D01*
X86851928Y-47263028D01*
X86928119Y-47301123D01*
X87004309Y-47377314D01*
X87042404Y-47491600D01*
X87042404Y-47682076D01*
X86318595Y-46920171D02*
X86280500Y-46882076D01*
X86242404Y-46805885D01*
X86242404Y-46615409D01*
X86280500Y-46539219D01*
X86318595Y-46501123D01*
X86394785Y-46463028D01*
X86470976Y-46463028D01*
X86585261Y-46501123D01*
X87042404Y-46958266D01*
X87042404Y-46463028D01*
G04 #@! TO.C,D3*
X106016204Y-49053676D02*
X105216204Y-49053676D01*
X105216204Y-48863200D01*
X105254300Y-48748914D01*
X105330490Y-48672723D01*
X105406680Y-48634628D01*
X105559061Y-48596533D01*
X105673347Y-48596533D01*
X105825728Y-48634628D01*
X105901919Y-48672723D01*
X105978109Y-48748914D01*
X106016204Y-48863200D01*
X106016204Y-49053676D01*
X105216204Y-48329866D02*
X105216204Y-47834628D01*
X105520966Y-48101295D01*
X105520966Y-47987009D01*
X105559061Y-47910819D01*
X105597157Y-47872723D01*
X105673347Y-47834628D01*
X105863823Y-47834628D01*
X105940014Y-47872723D01*
X105978109Y-47910819D01*
X106016204Y-47987009D01*
X106016204Y-48215580D01*
X105978109Y-48291771D01*
X105940014Y-48329866D01*
G04 #@! TO.C,D4*
X125193204Y-48761576D02*
X124393204Y-48761576D01*
X124393204Y-48571100D01*
X124431300Y-48456814D01*
X124507490Y-48380623D01*
X124583680Y-48342528D01*
X124736061Y-48304433D01*
X124850347Y-48304433D01*
X125002728Y-48342528D01*
X125078919Y-48380623D01*
X125155109Y-48456814D01*
X125193204Y-48571100D01*
X125193204Y-48761576D01*
X124659871Y-47618719D02*
X125193204Y-47618719D01*
X124355109Y-47809195D02*
X124926538Y-47999671D01*
X124926538Y-47504433D01*
G04 #@! TO.C,K41*
D13*
X53415474Y-133996248D02*
X53415474Y-132472248D01*
X54286331Y-133996248D02*
X53633188Y-133125391D01*
X54286331Y-132472248D02*
X53415474Y-133343105D01*
X54939474Y-133197962D02*
X55447474Y-133197962D01*
X55665188Y-133996248D02*
X54939474Y-133996248D01*
X54939474Y-132472248D01*
X55665188Y-132472248D01*
X56608617Y-133270534D02*
X56608617Y-133996248D01*
X56100617Y-132472248D02*
X56608617Y-133270534D01*
X57116617Y-132472248D01*
X57552045Y-133923677D02*
X57769760Y-133996248D01*
X58132617Y-133996248D01*
X58277760Y-133923677D01*
X58350331Y-133851105D01*
X58422902Y-133705962D01*
X58422902Y-133560820D01*
X58350331Y-133415677D01*
X58277760Y-133343105D01*
X58132617Y-133270534D01*
X57842331Y-133197962D01*
X57697188Y-133125391D01*
X57624617Y-133052820D01*
X57552045Y-132907677D01*
X57552045Y-132762534D01*
X57624617Y-132617391D01*
X57697188Y-132544820D01*
X57842331Y-132472248D01*
X58205188Y-132472248D01*
X58422902Y-132544820D01*
X58930902Y-132472248D02*
X59293760Y-133996248D01*
X59584045Y-132907677D01*
X59874331Y-133996248D01*
X60237188Y-132472248D01*
G04 #@! TO.C,K43*
X91472294Y-129198188D02*
X91472294Y-127674188D01*
X92343151Y-129198188D02*
X91690008Y-128327331D01*
X92343151Y-127674188D02*
X91472294Y-128545045D01*
X92996294Y-128399902D02*
X93504294Y-128399902D01*
X93722008Y-129198188D02*
X92996294Y-129198188D01*
X92996294Y-127674188D01*
X93722008Y-127674188D01*
X94665437Y-128472474D02*
X94665437Y-129198188D01*
X94157437Y-127674188D02*
X94665437Y-128472474D01*
X95173437Y-127674188D01*
X95608865Y-129125617D02*
X95826580Y-129198188D01*
X96189437Y-129198188D01*
X96334580Y-129125617D01*
X96407151Y-129053045D01*
X96479722Y-128907902D01*
X96479722Y-128762760D01*
X96407151Y-128617617D01*
X96334580Y-128545045D01*
X96189437Y-128472474D01*
X95899151Y-128399902D01*
X95754008Y-128327331D01*
X95681437Y-128254760D01*
X95608865Y-128109617D01*
X95608865Y-127964474D01*
X95681437Y-127819331D01*
X95754008Y-127746760D01*
X95899151Y-127674188D01*
X96262008Y-127674188D01*
X96479722Y-127746760D01*
X96987722Y-127674188D02*
X97350580Y-129198188D01*
X97640865Y-128109617D01*
X97931151Y-129198188D01*
X98294008Y-127674188D01*
G04 #@! TO.C,K30*
X29608054Y-114903068D02*
X29608054Y-113379068D01*
X30478911Y-114903068D02*
X29825768Y-114032211D01*
X30478911Y-113379068D02*
X29608054Y-114249925D01*
X31132054Y-114104782D02*
X31640054Y-114104782D01*
X31857768Y-114903068D02*
X31132054Y-114903068D01*
X31132054Y-113379068D01*
X31857768Y-113379068D01*
X32801197Y-114177354D02*
X32801197Y-114903068D01*
X32293197Y-113379068D02*
X32801197Y-114177354D01*
X33309197Y-113379068D01*
X33744625Y-114830497D02*
X33962340Y-114903068D01*
X34325197Y-114903068D01*
X34470340Y-114830497D01*
X34542911Y-114757925D01*
X34615482Y-114612782D01*
X34615482Y-114467640D01*
X34542911Y-114322497D01*
X34470340Y-114249925D01*
X34325197Y-114177354D01*
X34034911Y-114104782D01*
X33889768Y-114032211D01*
X33817197Y-113959640D01*
X33744625Y-113814497D01*
X33744625Y-113669354D01*
X33817197Y-113524211D01*
X33889768Y-113451640D01*
X34034911Y-113379068D01*
X34397768Y-113379068D01*
X34615482Y-113451640D01*
X35123482Y-113379068D02*
X35486340Y-114903068D01*
X35776625Y-113814497D01*
X36066911Y-114903068D01*
X36429768Y-113379068D01*
G04 #@! TO.C,K40*
X34383254Y-133958148D02*
X34383254Y-132434148D01*
X35254111Y-133958148D02*
X34600968Y-133087291D01*
X35254111Y-132434148D02*
X34383254Y-133305005D01*
X35907254Y-133159862D02*
X36415254Y-133159862D01*
X36632968Y-133958148D02*
X35907254Y-133958148D01*
X35907254Y-132434148D01*
X36632968Y-132434148D01*
X37576397Y-133232434D02*
X37576397Y-133958148D01*
X37068397Y-132434148D02*
X37576397Y-133232434D01*
X38084397Y-132434148D01*
X38519825Y-133885577D02*
X38737540Y-133958148D01*
X39100397Y-133958148D01*
X39245540Y-133885577D01*
X39318111Y-133813005D01*
X39390682Y-133667862D01*
X39390682Y-133522720D01*
X39318111Y-133377577D01*
X39245540Y-133305005D01*
X39100397Y-133232434D01*
X38810111Y-133159862D01*
X38664968Y-133087291D01*
X38592397Y-133014720D01*
X38519825Y-132869577D01*
X38519825Y-132724434D01*
X38592397Y-132579291D01*
X38664968Y-132506720D01*
X38810111Y-132434148D01*
X39172968Y-132434148D01*
X39390682Y-132506720D01*
X39898682Y-132434148D02*
X40261540Y-133958148D01*
X40551825Y-132869577D01*
X40842111Y-133958148D01*
X41204968Y-132434148D01*
G04 #@! TO.C,K25*
X129628174Y-93991248D02*
X129628174Y-92467248D01*
X130499031Y-93991248D02*
X129845888Y-93120391D01*
X130499031Y-92467248D02*
X129628174Y-93338105D01*
X131152174Y-93192962D02*
X131660174Y-93192962D01*
X131877888Y-93991248D02*
X131152174Y-93991248D01*
X131152174Y-92467248D01*
X131877888Y-92467248D01*
X132821317Y-93265534D02*
X132821317Y-93991248D01*
X132313317Y-92467248D02*
X132821317Y-93265534D01*
X133329317Y-92467248D01*
X133764745Y-93918677D02*
X133982460Y-93991248D01*
X134345317Y-93991248D01*
X134490460Y-93918677D01*
X134563031Y-93846105D01*
X134635602Y-93700962D01*
X134635602Y-93555820D01*
X134563031Y-93410677D01*
X134490460Y-93338105D01*
X134345317Y-93265534D01*
X134055031Y-93192962D01*
X133909888Y-93120391D01*
X133837317Y-93047820D01*
X133764745Y-92902677D01*
X133764745Y-92757534D01*
X133837317Y-92612391D01*
X133909888Y-92539820D01*
X134055031Y-92467248D01*
X134417888Y-92467248D01*
X134635602Y-92539820D01*
X135143602Y-92467248D02*
X135506460Y-93991248D01*
X135796745Y-92902677D01*
X136087031Y-93991248D01*
X136449888Y-92467248D01*
G04 #@! TO.C,K42*
X72465474Y-130785688D02*
X72465474Y-129261688D01*
X73336331Y-130785688D02*
X72683188Y-129914831D01*
X73336331Y-129261688D02*
X72465474Y-130132545D01*
X73989474Y-129987402D02*
X74497474Y-129987402D01*
X74715188Y-130785688D02*
X73989474Y-130785688D01*
X73989474Y-129261688D01*
X74715188Y-129261688D01*
X75658617Y-130059974D02*
X75658617Y-130785688D01*
X75150617Y-129261688D02*
X75658617Y-130059974D01*
X76166617Y-129261688D01*
X76602045Y-130713117D02*
X76819760Y-130785688D01*
X77182617Y-130785688D01*
X77327760Y-130713117D01*
X77400331Y-130640545D01*
X77472902Y-130495402D01*
X77472902Y-130350260D01*
X77400331Y-130205117D01*
X77327760Y-130132545D01*
X77182617Y-130059974D01*
X76892331Y-129987402D01*
X76747188Y-129914831D01*
X76674617Y-129842260D01*
X76602045Y-129697117D01*
X76602045Y-129551974D01*
X76674617Y-129406831D01*
X76747188Y-129334260D01*
X76892331Y-129261688D01*
X77255188Y-129261688D01*
X77472902Y-129334260D01*
X77980902Y-129261688D02*
X78343760Y-130785688D01*
X78634045Y-129697117D01*
X78924331Y-130785688D01*
X79287188Y-129261688D01*
G04 #@! TO.C,K26*
X167145789Y-124099092D02*
X167789859Y-122717879D01*
X167935054Y-124467133D02*
X167711145Y-123401838D01*
X168579124Y-123085920D02*
X167421819Y-123507144D01*
X168864372Y-124019670D02*
X169324777Y-124234360D01*
X169184723Y-125049863D02*
X168527002Y-124743163D01*
X169171072Y-123361950D01*
X169828793Y-123668650D01*
X170346459Y-124790852D02*
X170039759Y-125448573D01*
X170223425Y-123852670D02*
X170346459Y-124790852D01*
X171144234Y-124282050D01*
X170925466Y-125781511D02*
X171092112Y-125939293D01*
X171420972Y-126092643D01*
X171583186Y-126088211D01*
X171679629Y-126053109D01*
X171806741Y-125952235D01*
X171868081Y-125820691D01*
X171863649Y-125658477D01*
X171828547Y-125562035D01*
X171727672Y-125434923D01*
X171495254Y-125246471D01*
X171394380Y-125119359D01*
X171359278Y-125022916D01*
X171354846Y-124860702D01*
X171416186Y-124729158D01*
X171543298Y-124628284D01*
X171639740Y-124593182D01*
X171801954Y-124588750D01*
X172130815Y-124742100D01*
X172297461Y-124899882D01*
X172788535Y-125048800D02*
X172473325Y-126583363D01*
X173196464Y-125719463D01*
X172999502Y-126828723D01*
X173972432Y-125600860D01*
G04 #@! TO.C,K44*
X110558174Y-130786708D02*
X110558174Y-129262708D01*
X111429031Y-130786708D02*
X110775888Y-129915851D01*
X111429031Y-129262708D02*
X110558174Y-130133565D01*
X112082174Y-129988422D02*
X112590174Y-129988422D01*
X112807888Y-130786708D02*
X112082174Y-130786708D01*
X112082174Y-129262708D01*
X112807888Y-129262708D01*
X113751317Y-130060994D02*
X113751317Y-130786708D01*
X113243317Y-129262708D02*
X113751317Y-130060994D01*
X114259317Y-129262708D01*
X114694745Y-130714137D02*
X114912460Y-130786708D01*
X115275317Y-130786708D01*
X115420460Y-130714137D01*
X115493031Y-130641565D01*
X115565602Y-130496422D01*
X115565602Y-130351280D01*
X115493031Y-130206137D01*
X115420460Y-130133565D01*
X115275317Y-130060994D01*
X114985031Y-129988422D01*
X114839888Y-129915851D01*
X114767317Y-129843280D01*
X114694745Y-129698137D01*
X114694745Y-129552994D01*
X114767317Y-129407851D01*
X114839888Y-129335280D01*
X114985031Y-129262708D01*
X115347888Y-129262708D01*
X115565602Y-129335280D01*
X116073602Y-129262708D02*
X116436460Y-130786708D01*
X116726745Y-129698137D01*
X117017031Y-130786708D01*
X117379888Y-129262708D01*
G04 #@! TO.C,K35*
X129592614Y-112954888D02*
X129592614Y-111430888D01*
X130463471Y-112954888D02*
X129810328Y-112084031D01*
X130463471Y-111430888D02*
X129592614Y-112301745D01*
X131116614Y-112156602D02*
X131624614Y-112156602D01*
X131842328Y-112954888D02*
X131116614Y-112954888D01*
X131116614Y-111430888D01*
X131842328Y-111430888D01*
X132785757Y-112229174D02*
X132785757Y-112954888D01*
X132277757Y-111430888D02*
X132785757Y-112229174D01*
X133293757Y-111430888D01*
X133729185Y-112882317D02*
X133946900Y-112954888D01*
X134309757Y-112954888D01*
X134454900Y-112882317D01*
X134527471Y-112809745D01*
X134600042Y-112664602D01*
X134600042Y-112519460D01*
X134527471Y-112374317D01*
X134454900Y-112301745D01*
X134309757Y-112229174D01*
X134019471Y-112156602D01*
X133874328Y-112084031D01*
X133801757Y-112011460D01*
X133729185Y-111866317D01*
X133729185Y-111721174D01*
X133801757Y-111576031D01*
X133874328Y-111503460D01*
X134019471Y-111430888D01*
X134382328Y-111430888D01*
X134600042Y-111503460D01*
X135108042Y-111430888D02*
X135470900Y-112954888D01*
X135761185Y-111866317D01*
X136051471Y-112954888D01*
X136414328Y-111430888D01*
G04 #@! TO.C,K22*
X72442614Y-92672988D02*
X72442614Y-91148988D01*
X73313471Y-92672988D02*
X72660328Y-91802131D01*
X73313471Y-91148988D02*
X72442614Y-92019845D01*
X73966614Y-91874702D02*
X74474614Y-91874702D01*
X74692328Y-92672988D02*
X73966614Y-92672988D01*
X73966614Y-91148988D01*
X74692328Y-91148988D01*
X75635757Y-91947274D02*
X75635757Y-92672988D01*
X75127757Y-91148988D02*
X75635757Y-91947274D01*
X76143757Y-91148988D01*
X76579185Y-92600417D02*
X76796900Y-92672988D01*
X77159757Y-92672988D01*
X77304900Y-92600417D01*
X77377471Y-92527845D01*
X77450042Y-92382702D01*
X77450042Y-92237560D01*
X77377471Y-92092417D01*
X77304900Y-92019845D01*
X77159757Y-91947274D01*
X76869471Y-91874702D01*
X76724328Y-91802131D01*
X76651757Y-91729560D01*
X76579185Y-91584417D01*
X76579185Y-91439274D01*
X76651757Y-91294131D01*
X76724328Y-91221560D01*
X76869471Y-91148988D01*
X77232328Y-91148988D01*
X77450042Y-91221560D01*
X77958042Y-91148988D02*
X78320900Y-92672988D01*
X78611185Y-91584417D01*
X78901471Y-92672988D01*
X79264328Y-91148988D01*
G04 #@! TO.C,K32*
X72468014Y-111738228D02*
X72468014Y-110214228D01*
X73338871Y-111738228D02*
X72685728Y-110867371D01*
X73338871Y-110214228D02*
X72468014Y-111085085D01*
X73992014Y-110939942D02*
X74500014Y-110939942D01*
X74717728Y-111738228D02*
X73992014Y-111738228D01*
X73992014Y-110214228D01*
X74717728Y-110214228D01*
X75661157Y-111012514D02*
X75661157Y-111738228D01*
X75153157Y-110214228D02*
X75661157Y-111012514D01*
X76169157Y-110214228D01*
X76604585Y-111665657D02*
X76822300Y-111738228D01*
X77185157Y-111738228D01*
X77330300Y-111665657D01*
X77402871Y-111593085D01*
X77475442Y-111447942D01*
X77475442Y-111302800D01*
X77402871Y-111157657D01*
X77330300Y-111085085D01*
X77185157Y-111012514D01*
X76894871Y-110939942D01*
X76749728Y-110867371D01*
X76677157Y-110794800D01*
X76604585Y-110649657D01*
X76604585Y-110504514D01*
X76677157Y-110359371D01*
X76749728Y-110286800D01*
X76894871Y-110214228D01*
X77257728Y-110214228D01*
X77475442Y-110286800D01*
X77983442Y-110214228D02*
X78346300Y-111738228D01*
X78636585Y-110649657D01*
X78926871Y-111738228D01*
X79289728Y-110214228D01*
G04 #@! TO.C,K23*
X91510394Y-91065168D02*
X91510394Y-89541168D01*
X92381251Y-91065168D02*
X91728108Y-90194311D01*
X92381251Y-89541168D02*
X91510394Y-90412025D01*
X93034394Y-90266882D02*
X93542394Y-90266882D01*
X93760108Y-91065168D02*
X93034394Y-91065168D01*
X93034394Y-89541168D01*
X93760108Y-89541168D01*
X94703537Y-90339454D02*
X94703537Y-91065168D01*
X94195537Y-89541168D02*
X94703537Y-90339454D01*
X95211537Y-89541168D01*
X95646965Y-90992597D02*
X95864680Y-91065168D01*
X96227537Y-91065168D01*
X96372680Y-90992597D01*
X96445251Y-90920025D01*
X96517822Y-90774882D01*
X96517822Y-90629740D01*
X96445251Y-90484597D01*
X96372680Y-90412025D01*
X96227537Y-90339454D01*
X95937251Y-90266882D01*
X95792108Y-90194311D01*
X95719537Y-90121740D01*
X95646965Y-89976597D01*
X95646965Y-89831454D01*
X95719537Y-89686311D01*
X95792108Y-89613740D01*
X95937251Y-89541168D01*
X96300108Y-89541168D01*
X96517822Y-89613740D01*
X97025822Y-89541168D02*
X97388680Y-91065168D01*
X97678965Y-89976597D01*
X97969251Y-91065168D01*
X98332108Y-89541168D01*
G04 #@! TO.C,K24*
X110550234Y-92698388D02*
X110550234Y-91174388D01*
X111421091Y-92698388D02*
X110767948Y-91827531D01*
X111421091Y-91174388D02*
X110550234Y-92045245D01*
X112074234Y-91900102D02*
X112582234Y-91900102D01*
X112799948Y-92698388D02*
X112074234Y-92698388D01*
X112074234Y-91174388D01*
X112799948Y-91174388D01*
X113743377Y-91972674D02*
X113743377Y-92698388D01*
X113235377Y-91174388D02*
X113743377Y-91972674D01*
X114251377Y-91174388D01*
X114686805Y-92625817D02*
X114904520Y-92698388D01*
X115267377Y-92698388D01*
X115412520Y-92625817D01*
X115485091Y-92553245D01*
X115557662Y-92408102D01*
X115557662Y-92262960D01*
X115485091Y-92117817D01*
X115412520Y-92045245D01*
X115267377Y-91972674D01*
X114977091Y-91900102D01*
X114831948Y-91827531D01*
X114759377Y-91754960D01*
X114686805Y-91609817D01*
X114686805Y-91464674D01*
X114759377Y-91319531D01*
X114831948Y-91246960D01*
X114977091Y-91174388D01*
X115339948Y-91174388D01*
X115557662Y-91246960D01*
X116065662Y-91174388D02*
X116428520Y-92698388D01*
X116718805Y-91609817D01*
X117009091Y-92698388D01*
X117371948Y-91174388D01*
G04 #@! TO.C,K21*
X53397694Y-95855608D02*
X53397694Y-94331608D01*
X54268551Y-95855608D02*
X53615408Y-94984751D01*
X54268551Y-94331608D02*
X53397694Y-95202465D01*
X54921694Y-95057322D02*
X55429694Y-95057322D01*
X55647408Y-95855608D02*
X54921694Y-95855608D01*
X54921694Y-94331608D01*
X55647408Y-94331608D01*
X56590837Y-95129894D02*
X56590837Y-95855608D01*
X56082837Y-94331608D02*
X56590837Y-95129894D01*
X57098837Y-94331608D01*
X57534265Y-95783037D02*
X57751980Y-95855608D01*
X58114837Y-95855608D01*
X58259980Y-95783037D01*
X58332551Y-95710465D01*
X58405122Y-95565322D01*
X58405122Y-95420180D01*
X58332551Y-95275037D01*
X58259980Y-95202465D01*
X58114837Y-95129894D01*
X57824551Y-95057322D01*
X57679408Y-94984751D01*
X57606837Y-94912180D01*
X57534265Y-94767037D01*
X57534265Y-94621894D01*
X57606837Y-94476751D01*
X57679408Y-94404180D01*
X57824551Y-94331608D01*
X58187408Y-94331608D01*
X58405122Y-94404180D01*
X58913122Y-94331608D02*
X59275980Y-95855608D01*
X59566265Y-94767037D01*
X59856551Y-95855608D01*
X60219408Y-94331608D01*
G04 #@! TO.C,K31*
X53415474Y-114923388D02*
X53415474Y-113399388D01*
X54286331Y-114923388D02*
X53633188Y-114052531D01*
X54286331Y-113399388D02*
X53415474Y-114270245D01*
X54939474Y-114125102D02*
X55447474Y-114125102D01*
X55665188Y-114923388D02*
X54939474Y-114923388D01*
X54939474Y-113399388D01*
X55665188Y-113399388D01*
X56608617Y-114197674D02*
X56608617Y-114923388D01*
X56100617Y-113399388D02*
X56608617Y-114197674D01*
X57116617Y-113399388D01*
X57552045Y-114850817D02*
X57769760Y-114923388D01*
X58132617Y-114923388D01*
X58277760Y-114850817D01*
X58350331Y-114778245D01*
X58422902Y-114633102D01*
X58422902Y-114487960D01*
X58350331Y-114342817D01*
X58277760Y-114270245D01*
X58132617Y-114197674D01*
X57842331Y-114125102D01*
X57697188Y-114052531D01*
X57624617Y-113979960D01*
X57552045Y-113834817D01*
X57552045Y-113689674D01*
X57624617Y-113544531D01*
X57697188Y-113471960D01*
X57842331Y-113399388D01*
X58205188Y-113399388D01*
X58422902Y-113471960D01*
X58930902Y-113399388D02*
X59293760Y-114923388D01*
X59584045Y-113834817D01*
X59874331Y-114923388D01*
X60237188Y-113399388D01*
G04 #@! TO.C,K33*
X91510394Y-110165968D02*
X91510394Y-108641968D01*
X92381251Y-110165968D02*
X91728108Y-109295111D01*
X92381251Y-108641968D02*
X91510394Y-109512825D01*
X93034394Y-109367682D02*
X93542394Y-109367682D01*
X93760108Y-110165968D02*
X93034394Y-110165968D01*
X93034394Y-108641968D01*
X93760108Y-108641968D01*
X94703537Y-109440254D02*
X94703537Y-110165968D01*
X94195537Y-108641968D02*
X94703537Y-109440254D01*
X95211537Y-108641968D01*
X95646965Y-110093397D02*
X95864680Y-110165968D01*
X96227537Y-110165968D01*
X96372680Y-110093397D01*
X96445251Y-110020825D01*
X96517822Y-109875682D01*
X96517822Y-109730540D01*
X96445251Y-109585397D01*
X96372680Y-109512825D01*
X96227537Y-109440254D01*
X95937251Y-109367682D01*
X95792108Y-109295111D01*
X95719537Y-109222540D01*
X95646965Y-109077397D01*
X95646965Y-108932254D01*
X95719537Y-108787111D01*
X95792108Y-108714540D01*
X95937251Y-108641968D01*
X96300108Y-108641968D01*
X96517822Y-108714540D01*
X97025822Y-108641968D02*
X97388680Y-110165968D01*
X97678965Y-109077397D01*
X97969251Y-110165968D01*
X98332108Y-108641968D01*
G04 #@! TO.C,K34*
X110545154Y-111745848D02*
X110545154Y-110221848D01*
X111416011Y-111745848D02*
X110762868Y-110874991D01*
X111416011Y-110221848D02*
X110545154Y-111092705D01*
X112069154Y-110947562D02*
X112577154Y-110947562D01*
X112794868Y-111745848D02*
X112069154Y-111745848D01*
X112069154Y-110221848D01*
X112794868Y-110221848D01*
X113738297Y-111020134D02*
X113738297Y-111745848D01*
X113230297Y-110221848D02*
X113738297Y-111020134D01*
X114246297Y-110221848D01*
X114681725Y-111673277D02*
X114899440Y-111745848D01*
X115262297Y-111745848D01*
X115407440Y-111673277D01*
X115480011Y-111600705D01*
X115552582Y-111455562D01*
X115552582Y-111310420D01*
X115480011Y-111165277D01*
X115407440Y-111092705D01*
X115262297Y-111020134D01*
X114972011Y-110947562D01*
X114826868Y-110874991D01*
X114754297Y-110802420D01*
X114681725Y-110657277D01*
X114681725Y-110512134D01*
X114754297Y-110366991D01*
X114826868Y-110294420D01*
X114972011Y-110221848D01*
X115334868Y-110221848D01*
X115552582Y-110294420D01*
X116060582Y-110221848D02*
X116423440Y-111745848D01*
X116713725Y-110657277D01*
X117004011Y-111745848D01*
X117366868Y-110221848D01*
G04 #@! TO.C,K36*
X148131348Y-106325125D02*
X146607348Y-106325125D01*
X148131348Y-105454268D02*
X147260491Y-106107411D01*
X146607348Y-105454268D02*
X147478205Y-106325125D01*
X147333062Y-104801125D02*
X147333062Y-104293125D01*
X148131348Y-104075411D02*
X148131348Y-104801125D01*
X146607348Y-104801125D01*
X146607348Y-104075411D01*
X147405634Y-103131982D02*
X148131348Y-103131982D01*
X146607348Y-103639982D02*
X147405634Y-103131982D01*
X146607348Y-102623982D01*
X148058777Y-102188554D02*
X148131348Y-101970840D01*
X148131348Y-101607982D01*
X148058777Y-101462840D01*
X147986205Y-101390268D01*
X147841062Y-101317697D01*
X147695920Y-101317697D01*
X147550777Y-101390268D01*
X147478205Y-101462840D01*
X147405634Y-101607982D01*
X147333062Y-101898268D01*
X147260491Y-102043411D01*
X147187920Y-102115982D01*
X147042777Y-102188554D01*
X146897634Y-102188554D01*
X146752491Y-102115982D01*
X146679920Y-102043411D01*
X146607348Y-101898268D01*
X146607348Y-101535411D01*
X146679920Y-101317697D01*
X146607348Y-100809697D02*
X148131348Y-100446840D01*
X147042777Y-100156554D01*
X148131348Y-99866268D01*
X146607348Y-99503411D01*
G04 #@! TO.C,K55*
X155420574Y-148018868D02*
X154039361Y-147374798D01*
X155788615Y-147229603D02*
X154723320Y-147453512D01*
X154407402Y-146585533D02*
X154828626Y-147742838D01*
X155341152Y-146300285D02*
X155555842Y-145839880D01*
X156371345Y-145979934D02*
X156064645Y-146637655D01*
X154683432Y-145993585D01*
X154990132Y-145335864D01*
X156112334Y-144818198D02*
X156770055Y-145124898D01*
X155174152Y-144941232D02*
X156112334Y-144818198D01*
X155603532Y-144020423D01*
X157102993Y-144239191D02*
X157260775Y-144072545D01*
X157414125Y-143743685D01*
X157409693Y-143581471D01*
X157374591Y-143485028D01*
X157273717Y-143357916D01*
X157142173Y-143296576D01*
X156979959Y-143301008D01*
X156883517Y-143336110D01*
X156756405Y-143436985D01*
X156567953Y-143669403D01*
X156440841Y-143770277D01*
X156344398Y-143805379D01*
X156182184Y-143809811D01*
X156050640Y-143748471D01*
X155949766Y-143621359D01*
X155914664Y-143524917D01*
X155910232Y-143362703D01*
X156063582Y-143033842D01*
X156221364Y-142867196D01*
X156370282Y-142376122D02*
X157904845Y-142691332D01*
X157040945Y-141968193D01*
X158150205Y-142165155D01*
X156922342Y-141192225D01*
G04 #@! TO.C,K45*
X184445729Y-132188992D02*
X185089799Y-130807779D01*
X185234994Y-132557033D02*
X185011085Y-131491738D01*
X185879064Y-131175820D02*
X184721759Y-131597044D01*
X186164312Y-132109570D02*
X186624717Y-132324260D01*
X186484663Y-133139763D02*
X185826942Y-132833063D01*
X186471012Y-131451850D01*
X187128733Y-131758550D01*
X187646399Y-132880752D02*
X187339699Y-133538473D01*
X187523365Y-131942570D02*
X187646399Y-132880752D01*
X188444174Y-132371950D01*
X188225406Y-133871411D02*
X188392052Y-134029193D01*
X188720912Y-134182543D01*
X188883126Y-134178111D01*
X188979569Y-134143009D01*
X189106681Y-134042135D01*
X189168021Y-133910591D01*
X189163589Y-133748377D01*
X189128487Y-133651935D01*
X189027612Y-133524823D01*
X188795194Y-133336371D01*
X188694320Y-133209259D01*
X188659218Y-133112816D01*
X188654786Y-132950602D01*
X188716126Y-132819058D01*
X188843238Y-132718184D01*
X188939680Y-132683082D01*
X189101894Y-132678650D01*
X189430755Y-132832000D01*
X189597401Y-132989782D01*
X190088475Y-133138700D02*
X189773265Y-134673263D01*
X190496404Y-133809363D01*
X190299442Y-134918623D01*
X191272372Y-133690760D01*
G04 #@! TO.C,K46*
X176459969Y-149435592D02*
X177104039Y-148054379D01*
X177249234Y-149803633D02*
X177025325Y-148738338D01*
X177893304Y-148422420D02*
X176735999Y-148843644D01*
X178178552Y-149356170D02*
X178638957Y-149570860D01*
X178498903Y-150386363D02*
X177841182Y-150079663D01*
X178485252Y-148698450D01*
X179142973Y-149005150D01*
X179660639Y-150127352D02*
X179353939Y-150785073D01*
X179537605Y-149189170D02*
X179660639Y-150127352D01*
X180458414Y-149618550D01*
X180239646Y-151118011D02*
X180406292Y-151275793D01*
X180735152Y-151429143D01*
X180897366Y-151424711D01*
X180993809Y-151389609D01*
X181120921Y-151288735D01*
X181182261Y-151157191D01*
X181177829Y-150994977D01*
X181142727Y-150898535D01*
X181041852Y-150771423D01*
X180809434Y-150582971D01*
X180708560Y-150455859D01*
X180673458Y-150359416D01*
X180669026Y-150197202D01*
X180730366Y-150065658D01*
X180857478Y-149964784D01*
X180953920Y-149929682D01*
X181116134Y-149925250D01*
X181444995Y-150078600D01*
X181611641Y-150236382D01*
X182102715Y-150385300D02*
X181787505Y-151919863D01*
X182510644Y-151055963D01*
X182313682Y-152165223D01*
X183286612Y-150937360D01*
G04 #@! TO.C,K54*
X146512052Y-143818790D02*
X145130839Y-143174720D01*
X146880093Y-143029525D02*
X145814798Y-143253434D01*
X145498880Y-142385455D02*
X145920104Y-143542760D01*
X146432630Y-142100207D02*
X146647320Y-141639802D01*
X147462823Y-141779856D02*
X147156123Y-142437577D01*
X145774910Y-141793507D01*
X146081610Y-141135786D01*
X147203812Y-140618120D02*
X147861533Y-140924820D01*
X146265630Y-140741154D02*
X147203812Y-140618120D01*
X146695010Y-139820345D01*
X148194471Y-140039113D02*
X148352253Y-139872467D01*
X148505603Y-139543607D01*
X148501171Y-139381393D01*
X148466069Y-139284950D01*
X148365195Y-139157838D01*
X148233651Y-139096498D01*
X148071437Y-139100930D01*
X147974995Y-139136032D01*
X147847883Y-139236907D01*
X147659431Y-139469325D01*
X147532319Y-139570199D01*
X147435876Y-139605301D01*
X147273662Y-139609733D01*
X147142118Y-139548393D01*
X147041244Y-139421281D01*
X147006142Y-139324839D01*
X147001710Y-139162625D01*
X147155060Y-138833764D01*
X147312842Y-138667118D01*
X147461760Y-138176044D02*
X148996323Y-138491254D01*
X148132423Y-137768115D01*
X149241683Y-137965077D01*
X148013820Y-136992147D01*
G04 #@! TO.C,K56*
X168334509Y-166666952D02*
X168978579Y-165285739D01*
X169123774Y-167034993D02*
X168899865Y-165969698D01*
X169767844Y-165653780D02*
X168610539Y-166075004D01*
X170053092Y-166587530D02*
X170513497Y-166802220D01*
X170373443Y-167617723D02*
X169715722Y-167311023D01*
X170359792Y-165929810D01*
X171017513Y-166236510D01*
X171535179Y-167358712D02*
X171228479Y-168016433D01*
X171412145Y-166420530D02*
X171535179Y-167358712D01*
X172332954Y-166849910D01*
X172114186Y-168349371D02*
X172280832Y-168507153D01*
X172609692Y-168660503D01*
X172771906Y-168656071D01*
X172868349Y-168620969D01*
X172995461Y-168520095D01*
X173056801Y-168388551D01*
X173052369Y-168226337D01*
X173017267Y-168129895D01*
X172916392Y-168002783D01*
X172683974Y-167814331D01*
X172583100Y-167687219D01*
X172547998Y-167590776D01*
X172543566Y-167428562D01*
X172604906Y-167297018D01*
X172732018Y-167196144D01*
X172828460Y-167161042D01*
X172990674Y-167156610D01*
X173319535Y-167309960D01*
X173486181Y-167467742D01*
X173977255Y-167616660D02*
X173662045Y-169151223D01*
X174385184Y-168287323D01*
X174188222Y-169396583D01*
X175161152Y-168168720D01*
G04 #@! TO.C,K6*
X148645154Y-55837908D02*
X148645154Y-54313908D01*
X149516011Y-55837908D02*
X148862868Y-54967051D01*
X149516011Y-54313908D02*
X148645154Y-55184765D01*
X150169154Y-55039622D02*
X150677154Y-55039622D01*
X150894868Y-55837908D02*
X150169154Y-55837908D01*
X150169154Y-54313908D01*
X150894868Y-54313908D01*
X151838297Y-55112194D02*
X151838297Y-55837908D01*
X151330297Y-54313908D02*
X151838297Y-55112194D01*
X152346297Y-54313908D01*
X152781725Y-55765337D02*
X152999440Y-55837908D01*
X153362297Y-55837908D01*
X153507440Y-55765337D01*
X153580011Y-55692765D01*
X153652582Y-55547622D01*
X153652582Y-55402480D01*
X153580011Y-55257337D01*
X153507440Y-55184765D01*
X153362297Y-55112194D01*
X153072011Y-55039622D01*
X152926868Y-54967051D01*
X152854297Y-54894480D01*
X152781725Y-54749337D01*
X152781725Y-54604194D01*
X152854297Y-54459051D01*
X152926868Y-54386480D01*
X153072011Y-54313908D01*
X153434868Y-54313908D01*
X153652582Y-54386480D01*
X154160582Y-54313908D02*
X154523440Y-55837908D01*
X154813725Y-54749337D01*
X155104011Y-55837908D01*
X155466868Y-54313908D01*
G04 #@! TO.C,K13*
X91505314Y-72063428D02*
X91505314Y-70539428D01*
X92376171Y-72063428D02*
X91723028Y-71192571D01*
X92376171Y-70539428D02*
X91505314Y-71410285D01*
X93029314Y-71265142D02*
X93537314Y-71265142D01*
X93755028Y-72063428D02*
X93029314Y-72063428D01*
X93029314Y-70539428D01*
X93755028Y-70539428D01*
X94698457Y-71337714D02*
X94698457Y-72063428D01*
X94190457Y-70539428D02*
X94698457Y-71337714D01*
X95206457Y-70539428D01*
X95641885Y-71990857D02*
X95859600Y-72063428D01*
X96222457Y-72063428D01*
X96367600Y-71990857D01*
X96440171Y-71918285D01*
X96512742Y-71773142D01*
X96512742Y-71628000D01*
X96440171Y-71482857D01*
X96367600Y-71410285D01*
X96222457Y-71337714D01*
X95932171Y-71265142D01*
X95787028Y-71192571D01*
X95714457Y-71120000D01*
X95641885Y-70974857D01*
X95641885Y-70829714D01*
X95714457Y-70684571D01*
X95787028Y-70612000D01*
X95932171Y-70539428D01*
X96295028Y-70539428D01*
X96512742Y-70612000D01*
X97020742Y-70539428D02*
X97383600Y-72063428D01*
X97673885Y-70974857D01*
X97964171Y-72063428D01*
X98327028Y-70539428D01*
G04 #@! TO.C,K14*
X110555314Y-73638228D02*
X110555314Y-72114228D01*
X111426171Y-73638228D02*
X110773028Y-72767371D01*
X111426171Y-72114228D02*
X110555314Y-72985085D01*
X112079314Y-72839942D02*
X112587314Y-72839942D01*
X112805028Y-73638228D02*
X112079314Y-73638228D01*
X112079314Y-72114228D01*
X112805028Y-72114228D01*
X113748457Y-72912514D02*
X113748457Y-73638228D01*
X113240457Y-72114228D02*
X113748457Y-72912514D01*
X114256457Y-72114228D01*
X114691885Y-73565657D02*
X114909600Y-73638228D01*
X115272457Y-73638228D01*
X115417600Y-73565657D01*
X115490171Y-73493085D01*
X115562742Y-73347942D01*
X115562742Y-73202800D01*
X115490171Y-73057657D01*
X115417600Y-72985085D01*
X115272457Y-72912514D01*
X114982171Y-72839942D01*
X114837028Y-72767371D01*
X114764457Y-72694800D01*
X114691885Y-72549657D01*
X114691885Y-72404514D01*
X114764457Y-72259371D01*
X114837028Y-72186800D01*
X114982171Y-72114228D01*
X115345028Y-72114228D01*
X115562742Y-72186800D01*
X116070742Y-72114228D02*
X116433600Y-73638228D01*
X116723885Y-72549657D01*
X117014171Y-73638228D01*
X117377028Y-72114228D01*
G04 #@! TO.C,K15*
X129630714Y-74908228D02*
X129630714Y-73384228D01*
X130501571Y-74908228D02*
X129848428Y-74037371D01*
X130501571Y-73384228D02*
X129630714Y-74255085D01*
X131154714Y-74109942D02*
X131662714Y-74109942D01*
X131880428Y-74908228D02*
X131154714Y-74908228D01*
X131154714Y-73384228D01*
X131880428Y-73384228D01*
X132823857Y-74182514D02*
X132823857Y-74908228D01*
X132315857Y-73384228D02*
X132823857Y-74182514D01*
X133331857Y-73384228D01*
X133767285Y-74835657D02*
X133985000Y-74908228D01*
X134347857Y-74908228D01*
X134493000Y-74835657D01*
X134565571Y-74763085D01*
X134638142Y-74617942D01*
X134638142Y-74472800D01*
X134565571Y-74327657D01*
X134493000Y-74255085D01*
X134347857Y-74182514D01*
X134057571Y-74109942D01*
X133912428Y-74037371D01*
X133839857Y-73964800D01*
X133767285Y-73819657D01*
X133767285Y-73674514D01*
X133839857Y-73529371D01*
X133912428Y-73456800D01*
X134057571Y-73384228D01*
X134420428Y-73384228D01*
X134638142Y-73456800D01*
X135146142Y-73384228D02*
X135509000Y-74908228D01*
X135799285Y-73819657D01*
X136089571Y-74908228D01*
X136452428Y-73384228D01*
G04 #@! TO.C,K16*
X148100868Y-77752665D02*
X146576868Y-77752665D01*
X148100868Y-76881808D02*
X147230011Y-77534951D01*
X146576868Y-76881808D02*
X147447725Y-77752665D01*
X147302582Y-76228665D02*
X147302582Y-75720665D01*
X148100868Y-75502951D02*
X148100868Y-76228665D01*
X146576868Y-76228665D01*
X146576868Y-75502951D01*
X147375154Y-74559522D02*
X148100868Y-74559522D01*
X146576868Y-75067522D02*
X147375154Y-74559522D01*
X146576868Y-74051522D01*
X148028297Y-73616094D02*
X148100868Y-73398380D01*
X148100868Y-73035522D01*
X148028297Y-72890380D01*
X147955725Y-72817808D01*
X147810582Y-72745237D01*
X147665440Y-72745237D01*
X147520297Y-72817808D01*
X147447725Y-72890380D01*
X147375154Y-73035522D01*
X147302582Y-73325808D01*
X147230011Y-73470951D01*
X147157440Y-73543522D01*
X147012297Y-73616094D01*
X146867154Y-73616094D01*
X146722011Y-73543522D01*
X146649440Y-73470951D01*
X146576868Y-73325808D01*
X146576868Y-72962951D01*
X146649440Y-72745237D01*
X146576868Y-72237237D02*
X148100868Y-71874380D01*
X147012297Y-71584094D01*
X148100868Y-71293808D01*
X146576868Y-70930951D01*
G04 #@! TO.C,K12*
X72429914Y-73638228D02*
X72429914Y-72114228D01*
X73300771Y-73638228D02*
X72647628Y-72767371D01*
X73300771Y-72114228D02*
X72429914Y-72985085D01*
X73953914Y-72839942D02*
X74461914Y-72839942D01*
X74679628Y-73638228D02*
X73953914Y-73638228D01*
X73953914Y-72114228D01*
X74679628Y-72114228D01*
X75623057Y-72912514D02*
X75623057Y-73638228D01*
X75115057Y-72114228D02*
X75623057Y-72912514D01*
X76131057Y-72114228D01*
X76566485Y-73565657D02*
X76784200Y-73638228D01*
X77147057Y-73638228D01*
X77292200Y-73565657D01*
X77364771Y-73493085D01*
X77437342Y-73347942D01*
X77437342Y-73202800D01*
X77364771Y-73057657D01*
X77292200Y-72985085D01*
X77147057Y-72912514D01*
X76856771Y-72839942D01*
X76711628Y-72767371D01*
X76639057Y-72694800D01*
X76566485Y-72549657D01*
X76566485Y-72404514D01*
X76639057Y-72259371D01*
X76711628Y-72186800D01*
X76856771Y-72114228D01*
X77219628Y-72114228D01*
X77437342Y-72186800D01*
X77945342Y-72114228D02*
X78308200Y-73638228D01*
X78598485Y-72549657D01*
X78888771Y-73638228D01*
X79251628Y-72114228D01*
G04 #@! TO.C,K20*
X29613134Y-95883548D02*
X29613134Y-94359548D01*
X30483991Y-95883548D02*
X29830848Y-95012691D01*
X30483991Y-94359548D02*
X29613134Y-95230405D01*
X31137134Y-95085262D02*
X31645134Y-95085262D01*
X31862848Y-95883548D02*
X31137134Y-95883548D01*
X31137134Y-94359548D01*
X31862848Y-94359548D01*
X32806277Y-95157834D02*
X32806277Y-95883548D01*
X32298277Y-94359548D02*
X32806277Y-95157834D01*
X33314277Y-94359548D01*
X33749705Y-95810977D02*
X33967420Y-95883548D01*
X34330277Y-95883548D01*
X34475420Y-95810977D01*
X34547991Y-95738405D01*
X34620562Y-95593262D01*
X34620562Y-95448120D01*
X34547991Y-95302977D01*
X34475420Y-95230405D01*
X34330277Y-95157834D01*
X34039991Y-95085262D01*
X33894848Y-95012691D01*
X33822277Y-94940120D01*
X33749705Y-94794977D01*
X33749705Y-94649834D01*
X33822277Y-94504691D01*
X33894848Y-94432120D01*
X34039991Y-94359548D01*
X34402848Y-94359548D01*
X34620562Y-94432120D01*
X35128562Y-94359548D02*
X35491420Y-95883548D01*
X35781705Y-94794977D01*
X36071991Y-95883548D01*
X36434848Y-94359548D01*
G04 #@! TO.C,K10*
X29600434Y-76815768D02*
X29600434Y-75291768D01*
X30471291Y-76815768D02*
X29818148Y-75944911D01*
X30471291Y-75291768D02*
X29600434Y-76162625D01*
X31124434Y-76017482D02*
X31632434Y-76017482D01*
X31850148Y-76815768D02*
X31124434Y-76815768D01*
X31124434Y-75291768D01*
X31850148Y-75291768D01*
X32793577Y-76090054D02*
X32793577Y-76815768D01*
X32285577Y-75291768D02*
X32793577Y-76090054D01*
X33301577Y-75291768D01*
X33737005Y-76743197D02*
X33954720Y-76815768D01*
X34317577Y-76815768D01*
X34462720Y-76743197D01*
X34535291Y-76670625D01*
X34607862Y-76525482D01*
X34607862Y-76380340D01*
X34535291Y-76235197D01*
X34462720Y-76162625D01*
X34317577Y-76090054D01*
X34027291Y-76017482D01*
X33882148Y-75944911D01*
X33809577Y-75872340D01*
X33737005Y-75727197D01*
X33737005Y-75582054D01*
X33809577Y-75436911D01*
X33882148Y-75364340D01*
X34027291Y-75291768D01*
X34390148Y-75291768D01*
X34607862Y-75364340D01*
X35115862Y-75291768D02*
X35478720Y-76815768D01*
X35769005Y-75727197D01*
X36059291Y-76815768D01*
X36422148Y-75291768D01*
G04 #@! TO.C,K11*
X53405314Y-76841168D02*
X53405314Y-75317168D01*
X54276171Y-76841168D02*
X53623028Y-75970311D01*
X54276171Y-75317168D02*
X53405314Y-76188025D01*
X54929314Y-76042882D02*
X55437314Y-76042882D01*
X55655028Y-76841168D02*
X54929314Y-76841168D01*
X54929314Y-75317168D01*
X55655028Y-75317168D01*
X56598457Y-76115454D02*
X56598457Y-76841168D01*
X56090457Y-75317168D02*
X56598457Y-76115454D01*
X57106457Y-75317168D01*
X57541885Y-76768597D02*
X57759600Y-76841168D01*
X58122457Y-76841168D01*
X58267600Y-76768597D01*
X58340171Y-76696025D01*
X58412742Y-76550882D01*
X58412742Y-76405740D01*
X58340171Y-76260597D01*
X58267600Y-76188025D01*
X58122457Y-76115454D01*
X57832171Y-76042882D01*
X57687028Y-75970311D01*
X57614457Y-75897740D01*
X57541885Y-75752597D01*
X57541885Y-75607454D01*
X57614457Y-75462311D01*
X57687028Y-75389740D01*
X57832171Y-75317168D01*
X58195028Y-75317168D01*
X58412742Y-75389740D01*
X58920742Y-75317168D02*
X59283600Y-76841168D01*
X59573885Y-75752597D01*
X59864171Y-76841168D01*
X60227028Y-75317168D01*
G04 #@! TO.C,D34*
D11*
X125180504Y-107537128D02*
X124380504Y-107537128D01*
X124380504Y-107346652D01*
X124418600Y-107232366D01*
X124494790Y-107156176D01*
X124570980Y-107118080D01*
X124723361Y-107079985D01*
X124837647Y-107079985D01*
X124990028Y-107118080D01*
X125066219Y-107156176D01*
X125142409Y-107232366D01*
X125180504Y-107346652D01*
X125180504Y-107537128D01*
X124380504Y-106813319D02*
X124380504Y-106318080D01*
X124685266Y-106584747D01*
X124685266Y-106470461D01*
X124723361Y-106394271D01*
X124761457Y-106356176D01*
X124837647Y-106318080D01*
X125028123Y-106318080D01*
X125104314Y-106356176D01*
X125142409Y-106394271D01*
X125180504Y-106470461D01*
X125180504Y-106699033D01*
X125142409Y-106775223D01*
X125104314Y-106813319D01*
X124647171Y-105632366D02*
X125180504Y-105632366D01*
X124342409Y-105822842D02*
X124913838Y-106013319D01*
X124913838Y-105518080D01*
G04 #@! TO.C,D32*
X87105904Y-107829228D02*
X86305904Y-107829228D01*
X86305904Y-107638752D01*
X86344000Y-107524466D01*
X86420190Y-107448276D01*
X86496380Y-107410180D01*
X86648761Y-107372085D01*
X86763047Y-107372085D01*
X86915428Y-107410180D01*
X86991619Y-107448276D01*
X87067809Y-107524466D01*
X87105904Y-107638752D01*
X87105904Y-107829228D01*
X86305904Y-107105419D02*
X86305904Y-106610180D01*
X86610666Y-106876847D01*
X86610666Y-106762561D01*
X86648761Y-106686371D01*
X86686857Y-106648276D01*
X86763047Y-106610180D01*
X86953523Y-106610180D01*
X87029714Y-106648276D01*
X87067809Y-106686371D01*
X87105904Y-106762561D01*
X87105904Y-106991133D01*
X87067809Y-107067323D01*
X87029714Y-107105419D01*
X86382095Y-106305419D02*
X86344000Y-106267323D01*
X86305904Y-106191133D01*
X86305904Y-106000657D01*
X86344000Y-105924466D01*
X86382095Y-105886371D01*
X86458285Y-105848276D01*
X86534476Y-105848276D01*
X86648761Y-105886371D01*
X87105904Y-106343514D01*
X87105904Y-105848276D01*
G04 #@! TO.C,D44*
X125002704Y-126028328D02*
X124202704Y-126028328D01*
X124202704Y-125837852D01*
X124240800Y-125723566D01*
X124316990Y-125647376D01*
X124393180Y-125609280D01*
X124545561Y-125571185D01*
X124659847Y-125571185D01*
X124812228Y-125609280D01*
X124888419Y-125647376D01*
X124964609Y-125723566D01*
X125002704Y-125837852D01*
X125002704Y-126028328D01*
X124469371Y-124885471D02*
X125002704Y-124885471D01*
X124164609Y-125075947D02*
X124736038Y-125266423D01*
X124736038Y-124771185D01*
X124469371Y-124123566D02*
X125002704Y-124123566D01*
X124164609Y-124314042D02*
X124736038Y-124504519D01*
X124736038Y-124009280D01*
G04 #@! TO.C,D45*
X182206583Y-126449777D02*
X181481537Y-126111683D01*
X181562036Y-125939053D01*
X181644861Y-125851574D01*
X181746112Y-125814722D01*
X181831264Y-125812395D01*
X181985468Y-125842268D01*
X182089046Y-125890568D01*
X182211050Y-125989493D01*
X182264003Y-126056218D01*
X182300855Y-126157470D01*
X182287082Y-126277147D01*
X182206583Y-126449777D01*
X182206211Y-125188601D02*
X182689575Y-125413997D01*
X181849504Y-125232433D02*
X182286896Y-125646559D01*
X182496193Y-125197721D01*
X182302624Y-124350856D02*
X182141626Y-124696116D01*
X182470787Y-124891640D01*
X182452360Y-124841014D01*
X182450034Y-124755862D01*
X182530533Y-124583232D01*
X182597258Y-124530280D01*
X182647884Y-124511854D01*
X182733036Y-124509527D01*
X182905666Y-124590026D01*
X182958618Y-124656751D01*
X182977044Y-124707377D01*
X182979371Y-124792529D01*
X182898872Y-124965159D01*
X182832147Y-125018111D01*
X182781521Y-125036537D01*
G04 #@! TO.C,D41*
X68055904Y-127768228D02*
X67255904Y-127768228D01*
X67255904Y-127577752D01*
X67294000Y-127463466D01*
X67370190Y-127387276D01*
X67446380Y-127349180D01*
X67598761Y-127311085D01*
X67713047Y-127311085D01*
X67865428Y-127349180D01*
X67941619Y-127387276D01*
X68017809Y-127463466D01*
X68055904Y-127577752D01*
X68055904Y-127768228D01*
X67522571Y-126625371D02*
X68055904Y-126625371D01*
X67217809Y-126815847D02*
X67789238Y-127006323D01*
X67789238Y-126511085D01*
X68055904Y-125787276D02*
X68055904Y-126244419D01*
X68055904Y-126015847D02*
X67255904Y-126015847D01*
X67370190Y-126092038D01*
X67446380Y-126168228D01*
X67484476Y-126244419D01*
G04 #@! TO.C,D23*
X106079704Y-86378928D02*
X105279704Y-86378928D01*
X105279704Y-86188452D01*
X105317800Y-86074166D01*
X105393990Y-85997976D01*
X105470180Y-85959880D01*
X105622561Y-85921785D01*
X105736847Y-85921785D01*
X105889228Y-85959880D01*
X105965419Y-85997976D01*
X106041609Y-86074166D01*
X106079704Y-86188452D01*
X106079704Y-86378928D01*
X105355895Y-85617023D02*
X105317800Y-85578928D01*
X105279704Y-85502738D01*
X105279704Y-85312261D01*
X105317800Y-85236071D01*
X105355895Y-85197976D01*
X105432085Y-85159880D01*
X105508276Y-85159880D01*
X105622561Y-85197976D01*
X106079704Y-85655119D01*
X106079704Y-85159880D01*
X105279704Y-84893214D02*
X105279704Y-84397976D01*
X105584466Y-84664642D01*
X105584466Y-84550357D01*
X105622561Y-84474166D01*
X105660657Y-84436071D01*
X105736847Y-84397976D01*
X105927323Y-84397976D01*
X106003514Y-84436071D01*
X106041609Y-84474166D01*
X106079704Y-84550357D01*
X106079704Y-84778928D01*
X106041609Y-84855119D01*
X106003514Y-84893214D01*
G04 #@! TO.C,D31*
X68043204Y-109696128D02*
X67243204Y-109696128D01*
X67243204Y-109505652D01*
X67281300Y-109391366D01*
X67357490Y-109315176D01*
X67433680Y-109277080D01*
X67586061Y-109238985D01*
X67700347Y-109238985D01*
X67852728Y-109277080D01*
X67928919Y-109315176D01*
X68005109Y-109391366D01*
X68043204Y-109505652D01*
X68043204Y-109696128D01*
X67243204Y-108972319D02*
X67243204Y-108477080D01*
X67547966Y-108743747D01*
X67547966Y-108629461D01*
X67586061Y-108553271D01*
X67624157Y-108515176D01*
X67700347Y-108477080D01*
X67890823Y-108477080D01*
X67967014Y-108515176D01*
X68005109Y-108553271D01*
X68043204Y-108629461D01*
X68043204Y-108858033D01*
X68005109Y-108934223D01*
X67967014Y-108972319D01*
X68043204Y-107715176D02*
X68043204Y-108172319D01*
X68043204Y-107943747D02*
X67243204Y-107943747D01*
X67357490Y-108019938D01*
X67433680Y-108096128D01*
X67471776Y-108172319D01*
G04 #@! TO.C,D33*
X106143204Y-105708328D02*
X105343204Y-105708328D01*
X105343204Y-105517852D01*
X105381300Y-105403566D01*
X105457490Y-105327376D01*
X105533680Y-105289280D01*
X105686061Y-105251185D01*
X105800347Y-105251185D01*
X105952728Y-105289280D01*
X106028919Y-105327376D01*
X106105109Y-105403566D01*
X106143204Y-105517852D01*
X106143204Y-105708328D01*
X105343204Y-104984519D02*
X105343204Y-104489280D01*
X105647966Y-104755947D01*
X105647966Y-104641661D01*
X105686061Y-104565471D01*
X105724157Y-104527376D01*
X105800347Y-104489280D01*
X105990823Y-104489280D01*
X106067014Y-104527376D01*
X106105109Y-104565471D01*
X106143204Y-104641661D01*
X106143204Y-104870233D01*
X106105109Y-104946423D01*
X106067014Y-104984519D01*
X105343204Y-104222614D02*
X105343204Y-103727376D01*
X105647966Y-103994042D01*
X105647966Y-103879757D01*
X105686061Y-103803566D01*
X105724157Y-103765471D01*
X105800347Y-103727376D01*
X105990823Y-103727376D01*
X106067014Y-103765471D01*
X106105109Y-103803566D01*
X106143204Y-103879757D01*
X106143204Y-104108328D01*
X106105109Y-104184519D01*
X106067014Y-104222614D01*
G04 #@! TO.C,D40*
X48967804Y-128733428D02*
X48167804Y-128733428D01*
X48167804Y-128542952D01*
X48205900Y-128428666D01*
X48282090Y-128352476D01*
X48358280Y-128314380D01*
X48510661Y-128276285D01*
X48624947Y-128276285D01*
X48777328Y-128314380D01*
X48853519Y-128352476D01*
X48929709Y-128428666D01*
X48967804Y-128542952D01*
X48967804Y-128733428D01*
X48434471Y-127590571D02*
X48967804Y-127590571D01*
X48129709Y-127781047D02*
X48701138Y-127971523D01*
X48701138Y-127476285D01*
X48167804Y-127019142D02*
X48167804Y-126942952D01*
X48205900Y-126866761D01*
X48243995Y-126828666D01*
X48320185Y-126790571D01*
X48472566Y-126752476D01*
X48663042Y-126752476D01*
X48815423Y-126790571D01*
X48891614Y-126828666D01*
X48929709Y-126866761D01*
X48967804Y-126942952D01*
X48967804Y-127019142D01*
X48929709Y-127095333D01*
X48891614Y-127133428D01*
X48815423Y-127171523D01*
X48663042Y-127209619D01*
X48472566Y-127209619D01*
X48320185Y-127171523D01*
X48243995Y-127133428D01*
X48205900Y-127095333D01*
X48167804Y-127019142D01*
G04 #@! TO.C,D24*
X125193204Y-88169628D02*
X124393204Y-88169628D01*
X124393204Y-87979152D01*
X124431300Y-87864866D01*
X124507490Y-87788676D01*
X124583680Y-87750580D01*
X124736061Y-87712485D01*
X124850347Y-87712485D01*
X125002728Y-87750580D01*
X125078919Y-87788676D01*
X125155109Y-87864866D01*
X125193204Y-87979152D01*
X125193204Y-88169628D01*
X124469395Y-87407723D02*
X124431300Y-87369628D01*
X124393204Y-87293438D01*
X124393204Y-87102961D01*
X124431300Y-87026771D01*
X124469395Y-86988676D01*
X124545585Y-86950580D01*
X124621776Y-86950580D01*
X124736061Y-86988676D01*
X125193204Y-87445819D01*
X125193204Y-86950580D01*
X124659871Y-86264866D02*
X125193204Y-86264866D01*
X124355109Y-86455342D02*
X124926538Y-86645819D01*
X124926538Y-86150580D01*
G04 #@! TO.C,D42*
X87080504Y-124285428D02*
X86280504Y-124285428D01*
X86280504Y-124094952D01*
X86318600Y-123980666D01*
X86394790Y-123904476D01*
X86470980Y-123866380D01*
X86623361Y-123828285D01*
X86737647Y-123828285D01*
X86890028Y-123866380D01*
X86966219Y-123904476D01*
X87042409Y-123980666D01*
X87080504Y-124094952D01*
X87080504Y-124285428D01*
X86547171Y-123142571D02*
X87080504Y-123142571D01*
X86242409Y-123333047D02*
X86813838Y-123523523D01*
X86813838Y-123028285D01*
X86356695Y-122761619D02*
X86318600Y-122723523D01*
X86280504Y-122647333D01*
X86280504Y-122456857D01*
X86318600Y-122380666D01*
X86356695Y-122342571D01*
X86432885Y-122304476D01*
X86509076Y-122304476D01*
X86623361Y-122342571D01*
X87080504Y-122799714D01*
X87080504Y-122304476D01*
G04 #@! TO.C,D36*
X150653871Y-111522004D02*
X150653871Y-110722004D01*
X150844347Y-110722004D01*
X150958633Y-110760100D01*
X151034823Y-110836290D01*
X151072919Y-110912480D01*
X151111014Y-111064861D01*
X151111014Y-111179147D01*
X151072919Y-111331528D01*
X151034823Y-111407719D01*
X150958633Y-111483909D01*
X150844347Y-111522004D01*
X150653871Y-111522004D01*
X151377680Y-110722004D02*
X151872919Y-110722004D01*
X151606252Y-111026766D01*
X151720538Y-111026766D01*
X151796728Y-111064861D01*
X151834823Y-111102957D01*
X151872919Y-111179147D01*
X151872919Y-111369623D01*
X151834823Y-111445814D01*
X151796728Y-111483909D01*
X151720538Y-111522004D01*
X151491966Y-111522004D01*
X151415776Y-111483909D01*
X151377680Y-111445814D01*
X152558633Y-110722004D02*
X152406252Y-110722004D01*
X152330061Y-110760100D01*
X152291966Y-110798195D01*
X152215776Y-110912480D01*
X152177680Y-111064861D01*
X152177680Y-111369623D01*
X152215776Y-111445814D01*
X152253871Y-111483909D01*
X152330061Y-111522004D01*
X152482442Y-111522004D01*
X152558633Y-111483909D01*
X152596728Y-111445814D01*
X152634823Y-111369623D01*
X152634823Y-111179147D01*
X152596728Y-111102957D01*
X152558633Y-111064861D01*
X152482442Y-111026766D01*
X152330061Y-111026766D01*
X152253871Y-111064861D01*
X152215776Y-111102957D01*
X152177680Y-111179147D01*
G04 #@! TO.C,D26*
X165048883Y-118296377D02*
X164323837Y-117958283D01*
X164404336Y-117785653D01*
X164487161Y-117698174D01*
X164588412Y-117661322D01*
X164673564Y-117658995D01*
X164827768Y-117688868D01*
X164931346Y-117737168D01*
X165053350Y-117836093D01*
X165106303Y-117902818D01*
X165143155Y-118004070D01*
X165129382Y-118123747D01*
X165048883Y-118296377D01*
X164714884Y-117299962D02*
X164696458Y-117249336D01*
X164694131Y-117164184D01*
X164774630Y-116991554D01*
X164841355Y-116938602D01*
X164891981Y-116920176D01*
X164977133Y-116917849D01*
X165046185Y-116950049D01*
X165133663Y-117032874D01*
X165354778Y-117640383D01*
X165564075Y-117191545D01*
X165128824Y-116231982D02*
X165064425Y-116370086D01*
X165066752Y-116455238D01*
X165085178Y-116505864D01*
X165156556Y-116623215D01*
X165278561Y-116722140D01*
X165554769Y-116850938D01*
X165639921Y-116848611D01*
X165690546Y-116830185D01*
X165757272Y-116777233D01*
X165821671Y-116639129D01*
X165819344Y-116553977D01*
X165800918Y-116503351D01*
X165747966Y-116436626D01*
X165575336Y-116356127D01*
X165490184Y-116358454D01*
X165439558Y-116376880D01*
X165372833Y-116429832D01*
X165308434Y-116567936D01*
X165310760Y-116653088D01*
X165329187Y-116703714D01*
X165382139Y-116770439D01*
G04 #@! TO.C,D25*
X144230504Y-89274528D02*
X143430504Y-89274528D01*
X143430504Y-89084052D01*
X143468600Y-88969766D01*
X143544790Y-88893576D01*
X143620980Y-88855480D01*
X143773361Y-88817385D01*
X143887647Y-88817385D01*
X144040028Y-88855480D01*
X144116219Y-88893576D01*
X144192409Y-88969766D01*
X144230504Y-89084052D01*
X144230504Y-89274528D01*
X143506695Y-88512623D02*
X143468600Y-88474528D01*
X143430504Y-88398338D01*
X143430504Y-88207861D01*
X143468600Y-88131671D01*
X143506695Y-88093576D01*
X143582885Y-88055480D01*
X143659076Y-88055480D01*
X143773361Y-88093576D01*
X144230504Y-88550719D01*
X144230504Y-88055480D01*
X143430504Y-87331671D02*
X143430504Y-87712623D01*
X143811457Y-87750719D01*
X143773361Y-87712623D01*
X143735266Y-87636433D01*
X143735266Y-87445957D01*
X143773361Y-87369766D01*
X143811457Y-87331671D01*
X143887647Y-87293576D01*
X144078123Y-87293576D01*
X144154314Y-87331671D01*
X144192409Y-87369766D01*
X144230504Y-87445957D01*
X144230504Y-87636433D01*
X144192409Y-87712623D01*
X144154314Y-87750719D01*
G04 #@! TO.C,D30*
X44357704Y-110648628D02*
X43557704Y-110648628D01*
X43557704Y-110458152D01*
X43595800Y-110343866D01*
X43671990Y-110267676D01*
X43748180Y-110229580D01*
X43900561Y-110191485D01*
X44014847Y-110191485D01*
X44167228Y-110229580D01*
X44243419Y-110267676D01*
X44319609Y-110343866D01*
X44357704Y-110458152D01*
X44357704Y-110648628D01*
X43557704Y-109924819D02*
X43557704Y-109429580D01*
X43862466Y-109696247D01*
X43862466Y-109581961D01*
X43900561Y-109505771D01*
X43938657Y-109467676D01*
X44014847Y-109429580D01*
X44205323Y-109429580D01*
X44281514Y-109467676D01*
X44319609Y-109505771D01*
X44357704Y-109581961D01*
X44357704Y-109810533D01*
X44319609Y-109886723D01*
X44281514Y-109924819D01*
X43557704Y-108934342D02*
X43557704Y-108858152D01*
X43595800Y-108781961D01*
X43633895Y-108743866D01*
X43710085Y-108705771D01*
X43862466Y-108667676D01*
X44052942Y-108667676D01*
X44205323Y-108705771D01*
X44281514Y-108743866D01*
X44319609Y-108781961D01*
X44357704Y-108858152D01*
X44357704Y-108934342D01*
X44319609Y-109010533D01*
X44281514Y-109048628D01*
X44205323Y-109086723D01*
X44052942Y-109124819D01*
X43862466Y-109124819D01*
X43710085Y-109086723D01*
X43633895Y-109048628D01*
X43595800Y-109010533D01*
X43557704Y-108934342D01*
G04 #@! TO.C,D35*
X144230504Y-108083228D02*
X143430504Y-108083228D01*
X143430504Y-107892752D01*
X143468600Y-107778466D01*
X143544790Y-107702276D01*
X143620980Y-107664180D01*
X143773361Y-107626085D01*
X143887647Y-107626085D01*
X144040028Y-107664180D01*
X144116219Y-107702276D01*
X144192409Y-107778466D01*
X144230504Y-107892752D01*
X144230504Y-108083228D01*
X143430504Y-107359419D02*
X143430504Y-106864180D01*
X143735266Y-107130847D01*
X143735266Y-107016561D01*
X143773361Y-106940371D01*
X143811457Y-106902276D01*
X143887647Y-106864180D01*
X144078123Y-106864180D01*
X144154314Y-106902276D01*
X144192409Y-106940371D01*
X144230504Y-107016561D01*
X144230504Y-107245133D01*
X144192409Y-107321323D01*
X144154314Y-107359419D01*
X143430504Y-106140371D02*
X143430504Y-106521323D01*
X143811457Y-106559419D01*
X143773361Y-106521323D01*
X143735266Y-106445133D01*
X143735266Y-106254657D01*
X143773361Y-106178466D01*
X143811457Y-106140371D01*
X143887647Y-106102276D01*
X144078123Y-106102276D01*
X144154314Y-106140371D01*
X144192409Y-106178466D01*
X144230504Y-106254657D01*
X144230504Y-106445133D01*
X144192409Y-106521323D01*
X144154314Y-106559419D01*
G04 #@! TO.C,D43*
X106041604Y-124809128D02*
X105241604Y-124809128D01*
X105241604Y-124618652D01*
X105279700Y-124504366D01*
X105355890Y-124428176D01*
X105432080Y-124390080D01*
X105584461Y-124351985D01*
X105698747Y-124351985D01*
X105851128Y-124390080D01*
X105927319Y-124428176D01*
X106003509Y-124504366D01*
X106041604Y-124618652D01*
X106041604Y-124809128D01*
X105508271Y-123666271D02*
X106041604Y-123666271D01*
X105203509Y-123856747D02*
X105774938Y-124047223D01*
X105774938Y-123551985D01*
X105241604Y-123323414D02*
X105241604Y-122828176D01*
X105546366Y-123094842D01*
X105546366Y-122980557D01*
X105584461Y-122904366D01*
X105622557Y-122866271D01*
X105698747Y-122828176D01*
X105889223Y-122828176D01*
X105965414Y-122866271D01*
X106003509Y-122904366D01*
X106041604Y-122980557D01*
X106041604Y-123209128D01*
X106003509Y-123285319D01*
X105965414Y-123323414D01*
G04 #@! TO.C,D22*
X87067804Y-87852128D02*
X86267804Y-87852128D01*
X86267804Y-87661652D01*
X86305900Y-87547366D01*
X86382090Y-87471176D01*
X86458280Y-87433080D01*
X86610661Y-87394985D01*
X86724947Y-87394985D01*
X86877328Y-87433080D01*
X86953519Y-87471176D01*
X87029709Y-87547366D01*
X87067804Y-87661652D01*
X87067804Y-87852128D01*
X86343995Y-87090223D02*
X86305900Y-87052128D01*
X86267804Y-86975938D01*
X86267804Y-86785461D01*
X86305900Y-86709271D01*
X86343995Y-86671176D01*
X86420185Y-86633080D01*
X86496376Y-86633080D01*
X86610661Y-86671176D01*
X87067804Y-87128319D01*
X87067804Y-86633080D01*
X86343995Y-86328319D02*
X86305900Y-86290223D01*
X86267804Y-86214033D01*
X86267804Y-86023557D01*
X86305900Y-85947366D01*
X86343995Y-85909271D01*
X86420185Y-85871176D01*
X86496376Y-85871176D01*
X86610661Y-85909271D01*
X87067804Y-86366414D01*
X87067804Y-85871176D01*
G04 #@! TO.C,K2*
D13*
X72455314Y-54651728D02*
X72455314Y-53127728D01*
X73326171Y-54651728D02*
X72673028Y-53780871D01*
X73326171Y-53127728D02*
X72455314Y-53998585D01*
X73979314Y-53853442D02*
X74487314Y-53853442D01*
X74705028Y-54651728D02*
X73979314Y-54651728D01*
X73979314Y-53127728D01*
X74705028Y-53127728D01*
X75648457Y-53926014D02*
X75648457Y-54651728D01*
X75140457Y-53127728D02*
X75648457Y-53926014D01*
X76156457Y-53127728D01*
X76591885Y-54579157D02*
X76809600Y-54651728D01*
X77172457Y-54651728D01*
X77317600Y-54579157D01*
X77390171Y-54506585D01*
X77462742Y-54361442D01*
X77462742Y-54216300D01*
X77390171Y-54071157D01*
X77317600Y-53998585D01*
X77172457Y-53926014D01*
X76882171Y-53853442D01*
X76737028Y-53780871D01*
X76664457Y-53708300D01*
X76591885Y-53563157D01*
X76591885Y-53418014D01*
X76664457Y-53272871D01*
X76737028Y-53200300D01*
X76882171Y-53127728D01*
X77245028Y-53127728D01*
X77462742Y-53200300D01*
X77970742Y-53127728D02*
X78333600Y-54651728D01*
X78623885Y-53563157D01*
X78914171Y-54651728D01*
X79277028Y-53127728D01*
G04 #@! TO.C,D55*
D11*
X130412904Y-128200028D02*
X129612904Y-128200028D01*
X129612904Y-128009552D01*
X129651000Y-127895266D01*
X129727190Y-127819076D01*
X129803380Y-127780980D01*
X129955761Y-127742885D01*
X130070047Y-127742885D01*
X130222428Y-127780980D01*
X130298619Y-127819076D01*
X130374809Y-127895266D01*
X130412904Y-128009552D01*
X130412904Y-128200028D01*
X129612904Y-127019076D02*
X129612904Y-127400028D01*
X129993857Y-127438123D01*
X129955761Y-127400028D01*
X129917666Y-127323838D01*
X129917666Y-127133361D01*
X129955761Y-127057171D01*
X129993857Y-127019076D01*
X130070047Y-126980980D01*
X130260523Y-126980980D01*
X130336714Y-127019076D01*
X130374809Y-127057171D01*
X130412904Y-127133361D01*
X130412904Y-127323838D01*
X130374809Y-127400028D01*
X130336714Y-127438123D01*
X129612904Y-126257171D02*
X129612904Y-126638123D01*
X129993857Y-126676219D01*
X129955761Y-126638123D01*
X129917666Y-126561933D01*
X129917666Y-126371457D01*
X129955761Y-126295266D01*
X129993857Y-126257171D01*
X130070047Y-126219076D01*
X130260523Y-126219076D01*
X130336714Y-126257171D01*
X130374809Y-126295266D01*
X130412904Y-126371457D01*
X130412904Y-126561933D01*
X130374809Y-126638123D01*
X130336714Y-126676219D01*
G04 #@! TO.C,K3*
D13*
X91505314Y-53013428D02*
X91505314Y-51489428D01*
X92376171Y-53013428D02*
X91723028Y-52142571D01*
X92376171Y-51489428D02*
X91505314Y-52360285D01*
X93029314Y-52215142D02*
X93537314Y-52215142D01*
X93755028Y-53013428D02*
X93029314Y-53013428D01*
X93029314Y-51489428D01*
X93755028Y-51489428D01*
X94698457Y-52287714D02*
X94698457Y-53013428D01*
X94190457Y-51489428D02*
X94698457Y-52287714D01*
X95206457Y-51489428D01*
X95641885Y-52940857D02*
X95859600Y-53013428D01*
X96222457Y-53013428D01*
X96367600Y-52940857D01*
X96440171Y-52868285D01*
X96512742Y-52723142D01*
X96512742Y-52578000D01*
X96440171Y-52432857D01*
X96367600Y-52360285D01*
X96222457Y-52287714D01*
X95932171Y-52215142D01*
X95787028Y-52142571D01*
X95714457Y-52070000D01*
X95641885Y-51924857D01*
X95641885Y-51779714D01*
X95714457Y-51634571D01*
X95787028Y-51562000D01*
X95932171Y-51489428D01*
X96295028Y-51489428D01*
X96512742Y-51562000D01*
X97020742Y-51489428D02*
X97383600Y-53013428D01*
X97673885Y-51924857D01*
X97964171Y-53013428D01*
X98327028Y-51489428D01*
G04 #@! TO.C,AudioJS1*
D11*
X143629166Y-25467066D02*
X143629166Y-24990876D01*
X143914880Y-25562304D02*
X142914880Y-25228971D01*
X143914880Y-24895638D01*
X143248214Y-24133733D02*
X143914880Y-24133733D01*
X143248214Y-24562304D02*
X143772023Y-24562304D01*
X143867261Y-24514685D01*
X143914880Y-24419447D01*
X143914880Y-24276590D01*
X143867261Y-24181352D01*
X143819642Y-24133733D01*
X143914880Y-23228971D02*
X142914880Y-23228971D01*
X143867261Y-23228971D02*
X143914880Y-23324209D01*
X143914880Y-23514685D01*
X143867261Y-23609923D01*
X143819642Y-23657542D01*
X143724404Y-23705161D01*
X143438690Y-23705161D01*
X143343452Y-23657542D01*
X143295833Y-23609923D01*
X143248214Y-23514685D01*
X143248214Y-23324209D01*
X143295833Y-23228971D01*
X143914880Y-22752780D02*
X143248214Y-22752780D01*
X142914880Y-22752780D02*
X142962500Y-22800400D01*
X143010119Y-22752780D01*
X142962500Y-22705161D01*
X142914880Y-22752780D01*
X143010119Y-22752780D01*
X143914880Y-22133733D02*
X143867261Y-22228971D01*
X143819642Y-22276590D01*
X143724404Y-22324209D01*
X143438690Y-22324209D01*
X143343452Y-22276590D01*
X143295833Y-22228971D01*
X143248214Y-22133733D01*
X143248214Y-21990876D01*
X143295833Y-21895638D01*
X143343452Y-21848019D01*
X143438690Y-21800400D01*
X143724404Y-21800400D01*
X143819642Y-21848019D01*
X143867261Y-21895638D01*
X143914880Y-21990876D01*
X143914880Y-22133733D01*
X142914880Y-21086114D02*
X143629166Y-21086114D01*
X143772023Y-21133733D01*
X143867261Y-21228971D01*
X143914880Y-21371828D01*
X143914880Y-21467066D01*
X143867261Y-20657542D02*
X143914880Y-20514685D01*
X143914880Y-20276590D01*
X143867261Y-20181352D01*
X143819642Y-20133733D01*
X143724404Y-20086114D01*
X143629166Y-20086114D01*
X143533928Y-20133733D01*
X143486309Y-20181352D01*
X143438690Y-20276590D01*
X143391071Y-20467066D01*
X143343452Y-20562304D01*
X143295833Y-20609923D01*
X143200595Y-20657542D01*
X143105357Y-20657542D01*
X143010119Y-20609923D01*
X142962500Y-20562304D01*
X142914880Y-20467066D01*
X142914880Y-20228971D01*
X142962500Y-20086114D01*
X143914880Y-19133733D02*
X143914880Y-19705161D01*
X143914880Y-19419447D02*
X142914880Y-19419447D01*
X143057738Y-19514685D01*
X143152976Y-19609923D01*
X143200595Y-19705161D01*
G04 #@! TO.C,K4*
D13*
X110555314Y-54562828D02*
X110555314Y-53038828D01*
X111426171Y-54562828D02*
X110773028Y-53691971D01*
X111426171Y-53038828D02*
X110555314Y-53909685D01*
X112079314Y-53764542D02*
X112587314Y-53764542D01*
X112805028Y-54562828D02*
X112079314Y-54562828D01*
X112079314Y-53038828D01*
X112805028Y-53038828D01*
X113748457Y-53837114D02*
X113748457Y-54562828D01*
X113240457Y-53038828D02*
X113748457Y-53837114D01*
X114256457Y-53038828D01*
X114691885Y-54490257D02*
X114909600Y-54562828D01*
X115272457Y-54562828D01*
X115417600Y-54490257D01*
X115490171Y-54417685D01*
X115562742Y-54272542D01*
X115562742Y-54127400D01*
X115490171Y-53982257D01*
X115417600Y-53909685D01*
X115272457Y-53837114D01*
X114982171Y-53764542D01*
X114837028Y-53691971D01*
X114764457Y-53619400D01*
X114691885Y-53474257D01*
X114691885Y-53329114D01*
X114764457Y-53183971D01*
X114837028Y-53111400D01*
X114982171Y-53038828D01*
X115345028Y-53038828D01*
X115562742Y-53111400D01*
X116070742Y-53038828D02*
X116433600Y-54562828D01*
X116723885Y-53474257D01*
X117014171Y-54562828D01*
X117377028Y-53038828D01*
G04 #@! TO.C,K1*
X53405314Y-57775928D02*
X53405314Y-56251928D01*
X54276171Y-57775928D02*
X53623028Y-56905071D01*
X54276171Y-56251928D02*
X53405314Y-57122785D01*
X54929314Y-56977642D02*
X55437314Y-56977642D01*
X55655028Y-57775928D02*
X54929314Y-57775928D01*
X54929314Y-56251928D01*
X55655028Y-56251928D01*
X56598457Y-57050214D02*
X56598457Y-57775928D01*
X56090457Y-56251928D02*
X56598457Y-57050214D01*
X57106457Y-56251928D01*
X57541885Y-57703357D02*
X57759600Y-57775928D01*
X58122457Y-57775928D01*
X58267600Y-57703357D01*
X58340171Y-57630785D01*
X58412742Y-57485642D01*
X58412742Y-57340500D01*
X58340171Y-57195357D01*
X58267600Y-57122785D01*
X58122457Y-57050214D01*
X57832171Y-56977642D01*
X57687028Y-56905071D01*
X57614457Y-56832500D01*
X57541885Y-56687357D01*
X57541885Y-56542214D01*
X57614457Y-56397071D01*
X57687028Y-56324500D01*
X57832171Y-56251928D01*
X58195028Y-56251928D01*
X58412742Y-56324500D01*
X58920742Y-56251928D02*
X59283600Y-57775928D01*
X59573885Y-56687357D01*
X59864171Y-57775928D01*
X60227028Y-56251928D01*
G04 #@! TO.C,K5*
X129630714Y-55858228D02*
X129630714Y-54334228D01*
X130501571Y-55858228D02*
X129848428Y-54987371D01*
X130501571Y-54334228D02*
X129630714Y-55205085D01*
X131154714Y-55059942D02*
X131662714Y-55059942D01*
X131880428Y-55858228D02*
X131154714Y-55858228D01*
X131154714Y-54334228D01*
X131880428Y-54334228D01*
X132823857Y-55132514D02*
X132823857Y-55858228D01*
X132315857Y-54334228D02*
X132823857Y-55132514D01*
X133331857Y-54334228D01*
X133767285Y-55785657D02*
X133985000Y-55858228D01*
X134347857Y-55858228D01*
X134493000Y-55785657D01*
X134565571Y-55713085D01*
X134638142Y-55567942D01*
X134638142Y-55422800D01*
X134565571Y-55277657D01*
X134493000Y-55205085D01*
X134347857Y-55132514D01*
X134057571Y-55059942D01*
X133912428Y-54987371D01*
X133839857Y-54914800D01*
X133767285Y-54769657D01*
X133767285Y-54624514D01*
X133839857Y-54479371D01*
X133912428Y-54406800D01*
X134057571Y-54334228D01*
X134420428Y-54334228D01*
X134638142Y-54406800D01*
X135146142Y-54334228D02*
X135509000Y-55858228D01*
X135799285Y-54769657D01*
X136089571Y-55858228D01*
X136452428Y-54334228D01*
G04 #@! TO.C,D54*
D11*
X134642004Y-129127128D02*
X133842004Y-129127128D01*
X133842004Y-128936652D01*
X133880100Y-128822366D01*
X133956290Y-128746176D01*
X134032480Y-128708080D01*
X134184861Y-128669985D01*
X134299147Y-128669985D01*
X134451528Y-128708080D01*
X134527719Y-128746176D01*
X134603909Y-128822366D01*
X134642004Y-128936652D01*
X134642004Y-129127128D01*
X133842004Y-127946176D02*
X133842004Y-128327128D01*
X134222957Y-128365223D01*
X134184861Y-128327128D01*
X134146766Y-128250938D01*
X134146766Y-128060461D01*
X134184861Y-127984271D01*
X134222957Y-127946176D01*
X134299147Y-127908080D01*
X134489623Y-127908080D01*
X134565814Y-127946176D01*
X134603909Y-127984271D01*
X134642004Y-128060461D01*
X134642004Y-128250938D01*
X134603909Y-128327128D01*
X134565814Y-128365223D01*
X134108671Y-127222366D02*
X134642004Y-127222366D01*
X133803909Y-127412842D02*
X134375338Y-127603319D01*
X134375338Y-127108080D01*
G04 #@! TO.C,R1*
X121177066Y-28579904D02*
X120910400Y-28198952D01*
X120719923Y-28579904D02*
X120719923Y-27779904D01*
X121024685Y-27779904D01*
X121100876Y-27818000D01*
X121138971Y-27856095D01*
X121177066Y-27932285D01*
X121177066Y-28046571D01*
X121138971Y-28122761D01*
X121100876Y-28160857D01*
X121024685Y-28198952D01*
X120719923Y-28198952D01*
X121938971Y-28579904D02*
X121481828Y-28579904D01*
X121710400Y-28579904D02*
X121710400Y-27779904D01*
X121634209Y-27894190D01*
X121558019Y-27970380D01*
X121481828Y-28008476D01*
G04 #@! TO.C,R2*
X121217066Y-31627904D02*
X120950400Y-31246952D01*
X120759923Y-31627904D02*
X120759923Y-30827904D01*
X121064685Y-30827904D01*
X121140876Y-30866000D01*
X121178971Y-30904095D01*
X121217066Y-30980285D01*
X121217066Y-31094571D01*
X121178971Y-31170761D01*
X121140876Y-31208857D01*
X121064685Y-31246952D01*
X120759923Y-31246952D01*
X121521828Y-30904095D02*
X121559923Y-30866000D01*
X121636114Y-30827904D01*
X121826590Y-30827904D01*
X121902780Y-30866000D01*
X121940876Y-30904095D01*
X121978971Y-30980285D01*
X121978971Y-31056476D01*
X121940876Y-31170761D01*
X121483733Y-31627904D01*
X121978971Y-31627904D01*
G04 #@! TO.C,D56*
X178473525Y-154056557D02*
X178811619Y-153331511D01*
X178984249Y-153412010D01*
X179071728Y-153494835D01*
X179108580Y-153596086D01*
X179110907Y-153681238D01*
X179081034Y-153835442D01*
X179032734Y-153939020D01*
X178933809Y-154061024D01*
X178867084Y-154113977D01*
X178765832Y-154150829D01*
X178646155Y-154137056D01*
X178473525Y-154056557D01*
X179881926Y-153830603D02*
X179536665Y-153669606D01*
X179341142Y-153998766D01*
X179391768Y-153980340D01*
X179476920Y-153978013D01*
X179649550Y-154058512D01*
X179702502Y-154125237D01*
X179720928Y-154175863D01*
X179723255Y-154261015D01*
X179642756Y-154433645D01*
X179576030Y-154486597D01*
X179525405Y-154505023D01*
X179440253Y-154507350D01*
X179267623Y-154426851D01*
X179214671Y-154360126D01*
X179196244Y-154309500D01*
X180537920Y-154136498D02*
X180399816Y-154072099D01*
X180314664Y-154074426D01*
X180264038Y-154092852D01*
X180146687Y-154164230D01*
X180047762Y-154286235D01*
X179918964Y-154562443D01*
X179921291Y-154647595D01*
X179939717Y-154698220D01*
X179992669Y-154764946D01*
X180130773Y-154829345D01*
X180215925Y-154827018D01*
X180266551Y-154808592D01*
X180333276Y-154755640D01*
X180413775Y-154583010D01*
X180411448Y-154497858D01*
X180393022Y-154447232D01*
X180340070Y-154380507D01*
X180201966Y-154316108D01*
X180116814Y-154318434D01*
X180066188Y-154336861D01*
X179999463Y-154389813D01*
G04 #@! TO.C,D46*
X186588825Y-136644857D02*
X186926919Y-135919811D01*
X187099549Y-136000310D01*
X187187028Y-136083135D01*
X187223880Y-136184386D01*
X187226207Y-136269538D01*
X187196334Y-136423742D01*
X187148034Y-136527320D01*
X187049109Y-136649324D01*
X186982384Y-136702277D01*
X186881132Y-136739129D01*
X186761455Y-136725356D01*
X186588825Y-136644857D01*
X187850001Y-136644485D02*
X187624605Y-137127849D01*
X187806169Y-136287778D02*
X187392043Y-136725170D01*
X187840881Y-136934467D01*
X188653220Y-136724798D02*
X188515116Y-136660399D01*
X188429964Y-136662726D01*
X188379338Y-136681152D01*
X188261987Y-136752530D01*
X188163062Y-136874535D01*
X188034264Y-137150743D01*
X188036591Y-137235895D01*
X188055017Y-137286520D01*
X188107969Y-137353246D01*
X188246073Y-137417645D01*
X188331225Y-137415318D01*
X188381851Y-137396892D01*
X188448576Y-137343940D01*
X188529075Y-137171310D01*
X188526748Y-137086158D01*
X188508322Y-137035532D01*
X188455370Y-136968807D01*
X188317266Y-136904408D01*
X188232114Y-136906734D01*
X188181488Y-136925161D01*
X188114763Y-136978113D01*
G04 #@! TO.C,K0*
D13*
X29580114Y-57791168D02*
X29580114Y-56267168D01*
X30450971Y-57791168D02*
X29797828Y-56920311D01*
X30450971Y-56267168D02*
X29580114Y-57138025D01*
X31104114Y-56992882D02*
X31612114Y-56992882D01*
X31829828Y-57791168D02*
X31104114Y-57791168D01*
X31104114Y-56267168D01*
X31829828Y-56267168D01*
X32773257Y-57065454D02*
X32773257Y-57791168D01*
X32265257Y-56267168D02*
X32773257Y-57065454D01*
X33281257Y-56267168D01*
X33716685Y-57718597D02*
X33934400Y-57791168D01*
X34297257Y-57791168D01*
X34442400Y-57718597D01*
X34514971Y-57646025D01*
X34587542Y-57500882D01*
X34587542Y-57355740D01*
X34514971Y-57210597D01*
X34442400Y-57138025D01*
X34297257Y-57065454D01*
X34006971Y-56992882D01*
X33861828Y-56920311D01*
X33789257Y-56847740D01*
X33716685Y-56702597D01*
X33716685Y-56557454D01*
X33789257Y-56412311D01*
X33861828Y-56339740D01*
X34006971Y-56267168D01*
X34369828Y-56267168D01*
X34587542Y-56339740D01*
X35095542Y-56267168D02*
X35458400Y-57791168D01*
X35748685Y-56702597D01*
X36038971Y-57791168D01*
X36401828Y-56267168D01*
G04 #@! TO.C,D5*
D11*
X144281304Y-50679276D02*
X143481304Y-50679276D01*
X143481304Y-50488800D01*
X143519400Y-50374514D01*
X143595590Y-50298323D01*
X143671780Y-50260228D01*
X143824161Y-50222133D01*
X143938447Y-50222133D01*
X144090828Y-50260228D01*
X144167019Y-50298323D01*
X144243209Y-50374514D01*
X144281304Y-50488800D01*
X144281304Y-50679276D01*
X143481304Y-49498323D02*
X143481304Y-49879276D01*
X143862257Y-49917371D01*
X143824161Y-49879276D01*
X143786066Y-49803085D01*
X143786066Y-49612609D01*
X143824161Y-49536419D01*
X143862257Y-49498323D01*
X143938447Y-49460228D01*
X144128923Y-49460228D01*
X144205114Y-49498323D01*
X144243209Y-49536419D01*
X144281304Y-49612609D01*
X144281304Y-49803085D01*
X144243209Y-49879276D01*
X144205114Y-49917371D01*
G04 #@! TO.C,D6*
X151568223Y-58778904D02*
X151568223Y-57978904D01*
X151758700Y-57978904D01*
X151872985Y-58017000D01*
X151949176Y-58093190D01*
X151987271Y-58169380D01*
X152025366Y-58321761D01*
X152025366Y-58436047D01*
X151987271Y-58588428D01*
X151949176Y-58664619D01*
X151872985Y-58740809D01*
X151758700Y-58778904D01*
X151568223Y-58778904D01*
X152711080Y-57978904D02*
X152558700Y-57978904D01*
X152482509Y-58017000D01*
X152444414Y-58055095D01*
X152368223Y-58169380D01*
X152330128Y-58321761D01*
X152330128Y-58626523D01*
X152368223Y-58702714D01*
X152406319Y-58740809D01*
X152482509Y-58778904D01*
X152634890Y-58778904D01*
X152711080Y-58740809D01*
X152749176Y-58702714D01*
X152787271Y-58626523D01*
X152787271Y-58436047D01*
X152749176Y-58359857D01*
X152711080Y-58321761D01*
X152634890Y-58283666D01*
X152482509Y-58283666D01*
X152406319Y-58321761D01*
X152368223Y-58359857D01*
X152330128Y-58436047D01*
G04 #@! TO.C,D21*
X68068604Y-89782528D02*
X67268604Y-89782528D01*
X67268604Y-89592052D01*
X67306700Y-89477766D01*
X67382890Y-89401576D01*
X67459080Y-89363480D01*
X67611461Y-89325385D01*
X67725747Y-89325385D01*
X67878128Y-89363480D01*
X67954319Y-89401576D01*
X68030509Y-89477766D01*
X68068604Y-89592052D01*
X68068604Y-89782528D01*
X67344795Y-89020623D02*
X67306700Y-88982528D01*
X67268604Y-88906338D01*
X67268604Y-88715861D01*
X67306700Y-88639671D01*
X67344795Y-88601576D01*
X67420985Y-88563480D01*
X67497176Y-88563480D01*
X67611461Y-88601576D01*
X68068604Y-89058719D01*
X68068604Y-88563480D01*
X68068604Y-87801576D02*
X68068604Y-88258719D01*
X68068604Y-88030147D02*
X67268604Y-88030147D01*
X67382890Y-88106338D01*
X67459080Y-88182528D01*
X67497176Y-88258719D01*
G04 #@! TO.C,D10*
X44332304Y-71723128D02*
X43532304Y-71723128D01*
X43532304Y-71532652D01*
X43570400Y-71418366D01*
X43646590Y-71342176D01*
X43722780Y-71304080D01*
X43875161Y-71265985D01*
X43989447Y-71265985D01*
X44141828Y-71304080D01*
X44218019Y-71342176D01*
X44294209Y-71418366D01*
X44332304Y-71532652D01*
X44332304Y-71723128D01*
X44332304Y-70504080D02*
X44332304Y-70961223D01*
X44332304Y-70732652D02*
X43532304Y-70732652D01*
X43646590Y-70808842D01*
X43722780Y-70885033D01*
X43760876Y-70961223D01*
X43532304Y-70008842D02*
X43532304Y-69932652D01*
X43570400Y-69856461D01*
X43608495Y-69818366D01*
X43684685Y-69780271D01*
X43837066Y-69742176D01*
X44027542Y-69742176D01*
X44179923Y-69780271D01*
X44256114Y-69818366D01*
X44294209Y-69856461D01*
X44332304Y-69932652D01*
X44332304Y-70008842D01*
X44294209Y-70085033D01*
X44256114Y-70123128D01*
X44179923Y-70161223D01*
X44027542Y-70199319D01*
X43837066Y-70199319D01*
X43684685Y-70161223D01*
X43608495Y-70123128D01*
X43570400Y-70085033D01*
X43532304Y-70008842D01*
G04 #@! TO.C,D13*
X106130504Y-68332228D02*
X105330504Y-68332228D01*
X105330504Y-68141752D01*
X105368600Y-68027466D01*
X105444790Y-67951276D01*
X105520980Y-67913180D01*
X105673361Y-67875085D01*
X105787647Y-67875085D01*
X105940028Y-67913180D01*
X106016219Y-67951276D01*
X106092409Y-68027466D01*
X106130504Y-68141752D01*
X106130504Y-68332228D01*
X106130504Y-67113180D02*
X106130504Y-67570323D01*
X106130504Y-67341752D02*
X105330504Y-67341752D01*
X105444790Y-67417942D01*
X105520980Y-67494133D01*
X105559076Y-67570323D01*
X105330504Y-66846514D02*
X105330504Y-66351276D01*
X105635266Y-66617942D01*
X105635266Y-66503657D01*
X105673361Y-66427466D01*
X105711457Y-66389371D01*
X105787647Y-66351276D01*
X105978123Y-66351276D01*
X106054314Y-66389371D01*
X106092409Y-66427466D01*
X106130504Y-66503657D01*
X106130504Y-66732228D01*
X106092409Y-66808419D01*
X106054314Y-66846514D01*
G04 #@! TO.C,D12*
X87055104Y-67430528D02*
X86255104Y-67430528D01*
X86255104Y-67240052D01*
X86293200Y-67125766D01*
X86369390Y-67049576D01*
X86445580Y-67011480D01*
X86597961Y-66973385D01*
X86712247Y-66973385D01*
X86864628Y-67011480D01*
X86940819Y-67049576D01*
X87017009Y-67125766D01*
X87055104Y-67240052D01*
X87055104Y-67430528D01*
X87055104Y-66211480D02*
X87055104Y-66668623D01*
X87055104Y-66440052D02*
X86255104Y-66440052D01*
X86369390Y-66516242D01*
X86445580Y-66592433D01*
X86483676Y-66668623D01*
X86331295Y-65906719D02*
X86293200Y-65868623D01*
X86255104Y-65792433D01*
X86255104Y-65601957D01*
X86293200Y-65525766D01*
X86331295Y-65487671D01*
X86407485Y-65449576D01*
X86483676Y-65449576D01*
X86597961Y-65487671D01*
X87055104Y-65944814D01*
X87055104Y-65449576D01*
G04 #@! TO.C,D14*
X125142404Y-69310128D02*
X124342404Y-69310128D01*
X124342404Y-69119652D01*
X124380500Y-69005366D01*
X124456690Y-68929176D01*
X124532880Y-68891080D01*
X124685261Y-68852985D01*
X124799547Y-68852985D01*
X124951928Y-68891080D01*
X125028119Y-68929176D01*
X125104309Y-69005366D01*
X125142404Y-69119652D01*
X125142404Y-69310128D01*
X125142404Y-68091080D02*
X125142404Y-68548223D01*
X125142404Y-68319652D02*
X124342404Y-68319652D01*
X124456690Y-68395842D01*
X124532880Y-68472033D01*
X124570976Y-68548223D01*
X124609071Y-67405366D02*
X125142404Y-67405366D01*
X124304309Y-67595842D02*
X124875738Y-67786319D01*
X124875738Y-67291080D01*
G04 #@! TO.C,D16*
X151530171Y-83797904D02*
X151530171Y-82997904D01*
X151720647Y-82997904D01*
X151834933Y-83036000D01*
X151911123Y-83112190D01*
X151949219Y-83188380D01*
X151987314Y-83340761D01*
X151987314Y-83455047D01*
X151949219Y-83607428D01*
X151911123Y-83683619D01*
X151834933Y-83759809D01*
X151720647Y-83797904D01*
X151530171Y-83797904D01*
X152749219Y-83797904D02*
X152292076Y-83797904D01*
X152520647Y-83797904D02*
X152520647Y-82997904D01*
X152444457Y-83112190D01*
X152368266Y-83188380D01*
X152292076Y-83226476D01*
X153434933Y-82997904D02*
X153282552Y-82997904D01*
X153206361Y-83036000D01*
X153168266Y-83074095D01*
X153092076Y-83188380D01*
X153053980Y-83340761D01*
X153053980Y-83645523D01*
X153092076Y-83721714D01*
X153130171Y-83759809D01*
X153206361Y-83797904D01*
X153358742Y-83797904D01*
X153434933Y-83759809D01*
X153473028Y-83721714D01*
X153511123Y-83645523D01*
X153511123Y-83455047D01*
X153473028Y-83378857D01*
X153434933Y-83340761D01*
X153358742Y-83302666D01*
X153206361Y-83302666D01*
X153130171Y-83340761D01*
X153092076Y-83378857D01*
X153053980Y-83455047D01*
G04 #@! TO.C,D20*
X44383104Y-90862028D02*
X43583104Y-90862028D01*
X43583104Y-90671552D01*
X43621200Y-90557266D01*
X43697390Y-90481076D01*
X43773580Y-90442980D01*
X43925961Y-90404885D01*
X44040247Y-90404885D01*
X44192628Y-90442980D01*
X44268819Y-90481076D01*
X44345009Y-90557266D01*
X44383104Y-90671552D01*
X44383104Y-90862028D01*
X43659295Y-90100123D02*
X43621200Y-90062028D01*
X43583104Y-89985838D01*
X43583104Y-89795361D01*
X43621200Y-89719171D01*
X43659295Y-89681076D01*
X43735485Y-89642980D01*
X43811676Y-89642980D01*
X43925961Y-89681076D01*
X44383104Y-90138219D01*
X44383104Y-89642980D01*
X43583104Y-89147742D02*
X43583104Y-89071552D01*
X43621200Y-88995361D01*
X43659295Y-88957266D01*
X43735485Y-88919171D01*
X43887866Y-88881076D01*
X44078342Y-88881076D01*
X44230723Y-88919171D01*
X44306914Y-88957266D01*
X44345009Y-88995361D01*
X44383104Y-89071552D01*
X44383104Y-89147742D01*
X44345009Y-89223933D01*
X44306914Y-89262028D01*
X44230723Y-89300123D01*
X44078342Y-89338219D01*
X43887866Y-89338219D01*
X43735485Y-89300123D01*
X43659295Y-89262028D01*
X43621200Y-89223933D01*
X43583104Y-89147742D01*
G04 #@! TO.C,D11*
X68005104Y-72015228D02*
X67205104Y-72015228D01*
X67205104Y-71824752D01*
X67243200Y-71710466D01*
X67319390Y-71634276D01*
X67395580Y-71596180D01*
X67547961Y-71558085D01*
X67662247Y-71558085D01*
X67814628Y-71596180D01*
X67890819Y-71634276D01*
X67967009Y-71710466D01*
X68005104Y-71824752D01*
X68005104Y-72015228D01*
X68005104Y-70796180D02*
X68005104Y-71253323D01*
X68005104Y-71024752D02*
X67205104Y-71024752D01*
X67319390Y-71100942D01*
X67395580Y-71177133D01*
X67433676Y-71253323D01*
X68005104Y-70034276D02*
X68005104Y-70491419D01*
X68005104Y-70262847D02*
X67205104Y-70262847D01*
X67319390Y-70339038D01*
X67395580Y-70415228D01*
X67433676Y-70491419D01*
G04 #@! TO.C,D15*
X144255904Y-69335528D02*
X143455904Y-69335528D01*
X143455904Y-69145052D01*
X143494000Y-69030766D01*
X143570190Y-68954576D01*
X143646380Y-68916480D01*
X143798761Y-68878385D01*
X143913047Y-68878385D01*
X144065428Y-68916480D01*
X144141619Y-68954576D01*
X144217809Y-69030766D01*
X144255904Y-69145052D01*
X144255904Y-69335528D01*
X144255904Y-68116480D02*
X144255904Y-68573623D01*
X144255904Y-68345052D02*
X143455904Y-68345052D01*
X143570190Y-68421242D01*
X143646380Y-68497433D01*
X143684476Y-68573623D01*
X143455904Y-67392671D02*
X143455904Y-67773623D01*
X143836857Y-67811719D01*
X143798761Y-67773623D01*
X143760666Y-67697433D01*
X143760666Y-67506957D01*
X143798761Y-67430766D01*
X143836857Y-67392671D01*
X143913047Y-67354576D01*
X144103523Y-67354576D01*
X144179714Y-67392671D01*
X144217809Y-67430766D01*
X144255904Y-67506957D01*
X144255904Y-67697433D01*
X144217809Y-67773623D01*
X144179714Y-67811719D01*
G04 #@! TD*
M02*
