G04 #@! TF.GenerationSoftware,KiCad,Pcbnew,(5.0.2)-1*
G04 #@! TF.CreationDate,2019-01-20T13:42:40+05:30*
G04 #@! TF.ProjectId,ErgodoxBle,4572676f-646f-4784-926c-652e6b696361,rev?*
G04 #@! TF.SameCoordinates,Original*
G04 #@! TF.FileFunction,Legend,Bot*
G04 #@! TF.FilePolarity,Positive*
%FSLAX46Y46*%
G04 Gerber Fmt 4.6, Leading zero omitted, Abs format (unit mm)*
G04 Created by KiCad (PCBNEW (5.0.2)-1) date 1/20/2019 1:42:40 PM*
%MOMM*%
%LPD*%
G01*
G04 APERTURE LIST*
%ADD10C,0.381000*%
%ADD11C,0.150000*%
%ADD12C,0.120000*%
G04 APERTURE END LIST*
D10*
G04 #@! TO.C,MCU1*
X27660600Y-33655000D02*
X27660600Y-36195000D01*
X25120600Y-33655000D02*
X27660600Y-33655000D01*
D11*
G36*
X31409630Y-21260365D02*
X31509630Y-21260365D01*
X31509630Y-21160365D01*
X31409630Y-21160365D01*
X31409630Y-21260365D01*
G37*
X31409630Y-21260365D02*
X31509630Y-21260365D01*
X31509630Y-21160365D01*
X31409630Y-21160365D01*
X31409630Y-21260365D01*
G36*
X31009630Y-21060365D02*
X31809630Y-21060365D01*
X31809630Y-20960365D01*
X31009630Y-20960365D01*
X31009630Y-21060365D01*
G37*
X31009630Y-21060365D02*
X31809630Y-21060365D01*
X31809630Y-20960365D01*
X31009630Y-20960365D01*
X31009630Y-21060365D01*
G36*
X31609630Y-21460365D02*
X31809630Y-21460365D01*
X31809630Y-21360365D01*
X31609630Y-21360365D01*
X31609630Y-21460365D01*
G37*
X31609630Y-21460365D02*
X31809630Y-21460365D01*
X31809630Y-21360365D01*
X31609630Y-21360365D01*
X31609630Y-21460365D01*
G36*
X31009630Y-21460365D02*
X31309630Y-21460365D01*
X31309630Y-21360365D01*
X31009630Y-21360365D01*
X31009630Y-21460365D01*
G37*
X31009630Y-21460365D02*
X31309630Y-21460365D01*
X31309630Y-21360365D01*
X31009630Y-21360365D01*
X31009630Y-21460365D01*
G36*
X31009630Y-21460365D02*
X31109630Y-21460365D01*
X31109630Y-20960365D01*
X31009630Y-20960365D01*
X31009630Y-21460365D01*
G37*
X31009630Y-21460365D02*
X31109630Y-21460365D01*
X31109630Y-20960365D01*
X31009630Y-20960365D01*
X31009630Y-21460365D01*
D10*
X55600600Y-18415000D02*
X22580600Y-18415000D01*
X55600600Y-36195000D02*
X55600600Y-18415000D01*
X22580600Y-36195000D02*
X55600600Y-36195000D01*
X22580600Y-18415000D02*
X22580600Y-36195000D01*
X25120600Y-33655000D02*
X25120600Y-36195000D01*
D12*
G04 #@! TO.C,AudioJM1*
X134999800Y-25287700D02*
X133599800Y-25287700D01*
X134999800Y-26837700D02*
X133599800Y-26837700D01*
X141199800Y-26387700D02*
X141199800Y-15862700D01*
X134999800Y-26837700D02*
X134999800Y-27962700D01*
X134999800Y-22887700D02*
X134999800Y-25287700D01*
X134999800Y-19887700D02*
X134999800Y-21237700D01*
X134999800Y-15862700D02*
X134999800Y-18237700D01*
X141199800Y-27962700D02*
X134999800Y-27962700D01*
X134999800Y-15862700D02*
X135599800Y-15862700D01*
X140599800Y-15862700D02*
X141199800Y-15862700D01*
X135599800Y-13862700D02*
X140599800Y-13862700D01*
X135599800Y-15862700D02*
X135599800Y-13862700D01*
X140599800Y-15862700D02*
X140599800Y-13862700D01*
G04 #@! TO.C,SW2*
X69868100Y-16795300D02*
X67368100Y-16795300D01*
X71368100Y-18545300D02*
X71368100Y-20545300D01*
X69868100Y-22295300D02*
X67368100Y-22295300D01*
X65868100Y-18545300D02*
X65868100Y-20545300D01*
X70318100Y-17245300D02*
X69868100Y-16795300D01*
X66918100Y-17245300D02*
X67368100Y-16795300D01*
X66918100Y-21845300D02*
X67368100Y-22295300D01*
X70318100Y-21845300D02*
X69868100Y-22295300D01*
D10*
G04 #@! TO.C,K0*
X28346400Y-58879740D02*
X26568400Y-58879740D01*
X26568400Y-58879740D02*
X26568400Y-57101740D01*
X26568400Y-47957740D02*
X26568400Y-46179740D01*
X26568400Y-46179740D02*
X28346400Y-46179740D01*
X39268400Y-47957740D02*
X39268400Y-46179740D01*
X39268400Y-46179740D02*
X37490400Y-46179740D01*
X39268400Y-57101740D02*
X39268400Y-58879740D01*
X39268400Y-58879740D02*
X37490400Y-58879740D01*
G04 #@! TO.C,K1*
X63093600Y-58864500D02*
X61315600Y-58864500D01*
X63093600Y-57086500D02*
X63093600Y-58864500D01*
X63093600Y-46164500D02*
X61315600Y-46164500D01*
X63093600Y-47942500D02*
X63093600Y-46164500D01*
X50393600Y-46164500D02*
X52171600Y-46164500D01*
X50393600Y-47942500D02*
X50393600Y-46164500D01*
X50393600Y-58864500D02*
X50393600Y-57086500D01*
X52171600Y-58864500D02*
X50393600Y-58864500D01*
G04 #@! TO.C,K2*
X71221600Y-55740300D02*
X69443600Y-55740300D01*
X69443600Y-55740300D02*
X69443600Y-53962300D01*
X69443600Y-44818300D02*
X69443600Y-43040300D01*
X69443600Y-43040300D02*
X71221600Y-43040300D01*
X82143600Y-44818300D02*
X82143600Y-43040300D01*
X82143600Y-43040300D02*
X80365600Y-43040300D01*
X82143600Y-53962300D02*
X82143600Y-55740300D01*
X82143600Y-55740300D02*
X80365600Y-55740300D01*
G04 #@! TO.C,K3*
X90271600Y-54102000D02*
X88493600Y-54102000D01*
X88493600Y-54102000D02*
X88493600Y-52324000D01*
X88493600Y-43180000D02*
X88493600Y-41402000D01*
X88493600Y-41402000D02*
X90271600Y-41402000D01*
X101193600Y-43180000D02*
X101193600Y-41402000D01*
X101193600Y-41402000D02*
X99415600Y-41402000D01*
X101193600Y-52324000D02*
X101193600Y-54102000D01*
X101193600Y-54102000D02*
X99415600Y-54102000D01*
G04 #@! TO.C,K4*
X120243600Y-55651400D02*
X118465600Y-55651400D01*
X120243600Y-53873400D02*
X120243600Y-55651400D01*
X120243600Y-42951400D02*
X118465600Y-42951400D01*
X120243600Y-44729400D02*
X120243600Y-42951400D01*
X107543600Y-42951400D02*
X109321600Y-42951400D01*
X107543600Y-44729400D02*
X107543600Y-42951400D01*
X107543600Y-55651400D02*
X107543600Y-53873400D01*
X109321600Y-55651400D02*
X107543600Y-55651400D01*
G04 #@! TO.C,K5*
X128397000Y-56946800D02*
X126619000Y-56946800D01*
X126619000Y-56946800D02*
X126619000Y-55168800D01*
X126619000Y-46024800D02*
X126619000Y-44246800D01*
X126619000Y-44246800D02*
X128397000Y-44246800D01*
X139319000Y-46024800D02*
X139319000Y-44246800D01*
X139319000Y-44246800D02*
X137541000Y-44246800D01*
X139319000Y-55168800D02*
X139319000Y-56946800D01*
X139319000Y-56946800D02*
X137541000Y-56946800D01*
G04 #@! TO.C,K6*
X158333440Y-56926480D02*
X156555440Y-56926480D01*
X158333440Y-55148480D02*
X158333440Y-56926480D01*
X158333440Y-44226480D02*
X156555440Y-44226480D01*
X158333440Y-46004480D02*
X158333440Y-44226480D01*
X145633440Y-44226480D02*
X147411440Y-44226480D01*
X145633440Y-46004480D02*
X145633440Y-44226480D01*
X145633440Y-56926480D02*
X145633440Y-55148480D01*
X147411440Y-56926480D02*
X145633440Y-56926480D01*
G04 #@! TO.C,K10*
X28366720Y-77904340D02*
X26588720Y-77904340D01*
X26588720Y-77904340D02*
X26588720Y-76126340D01*
X26588720Y-66982340D02*
X26588720Y-65204340D01*
X26588720Y-65204340D02*
X28366720Y-65204340D01*
X39288720Y-66982340D02*
X39288720Y-65204340D01*
X39288720Y-65204340D02*
X37510720Y-65204340D01*
X39288720Y-76126340D02*
X39288720Y-77904340D01*
X39288720Y-77904340D02*
X37510720Y-77904340D01*
G04 #@! TO.C,K11*
X63093600Y-77929740D02*
X61315600Y-77929740D01*
X63093600Y-76151740D02*
X63093600Y-77929740D01*
X63093600Y-65229740D02*
X61315600Y-65229740D01*
X63093600Y-67007740D02*
X63093600Y-65229740D01*
X50393600Y-65229740D02*
X52171600Y-65229740D01*
X50393600Y-67007740D02*
X50393600Y-65229740D01*
X50393600Y-77929740D02*
X50393600Y-76151740D01*
X52171600Y-77929740D02*
X50393600Y-77929740D01*
G04 #@! TO.C,K12*
X82118200Y-74726800D02*
X80340200Y-74726800D01*
X82118200Y-72948800D02*
X82118200Y-74726800D01*
X82118200Y-62026800D02*
X80340200Y-62026800D01*
X82118200Y-63804800D02*
X82118200Y-62026800D01*
X69418200Y-62026800D02*
X71196200Y-62026800D01*
X69418200Y-63804800D02*
X69418200Y-62026800D01*
X69418200Y-74726800D02*
X69418200Y-72948800D01*
X71196200Y-74726800D02*
X69418200Y-74726800D01*
G04 #@! TO.C,K13*
X90271600Y-73152000D02*
X88493600Y-73152000D01*
X88493600Y-73152000D02*
X88493600Y-71374000D01*
X88493600Y-62230000D02*
X88493600Y-60452000D01*
X88493600Y-60452000D02*
X90271600Y-60452000D01*
X101193600Y-62230000D02*
X101193600Y-60452000D01*
X101193600Y-60452000D02*
X99415600Y-60452000D01*
X101193600Y-71374000D02*
X101193600Y-73152000D01*
X101193600Y-73152000D02*
X99415600Y-73152000D01*
G04 #@! TO.C,K14*
X109321600Y-74726800D02*
X107543600Y-74726800D01*
X107543600Y-74726800D02*
X107543600Y-72948800D01*
X107543600Y-63804800D02*
X107543600Y-62026800D01*
X107543600Y-62026800D02*
X109321600Y-62026800D01*
X120243600Y-63804800D02*
X120243600Y-62026800D01*
X120243600Y-62026800D02*
X118465600Y-62026800D01*
X120243600Y-72948800D02*
X120243600Y-74726800D01*
X120243600Y-74726800D02*
X118465600Y-74726800D01*
G04 #@! TO.C,K15*
X139319000Y-75996800D02*
X137541000Y-75996800D01*
X139319000Y-74218800D02*
X139319000Y-75996800D01*
X139319000Y-63296800D02*
X137541000Y-63296800D01*
X139319000Y-65074800D02*
X139319000Y-63296800D01*
X126619000Y-63296800D02*
X128397000Y-63296800D01*
X126619000Y-65074800D02*
X126619000Y-63296800D01*
X126619000Y-75996800D02*
X126619000Y-74218800D01*
X128397000Y-75996800D02*
X126619000Y-75996800D01*
G04 #@! TO.C,K16*
X145633440Y-69842380D02*
X145633440Y-68064380D01*
X145633440Y-68064380D02*
X147411440Y-68064380D01*
X156555440Y-68064380D02*
X158333440Y-68064380D01*
X158333440Y-68064380D02*
X158333440Y-69842380D01*
X156555440Y-80764380D02*
X158333440Y-80764380D01*
X158333440Y-80764380D02*
X158333440Y-78986380D01*
X147411440Y-80764380D02*
X145633440Y-80764380D01*
X145633440Y-80764380D02*
X145633440Y-78986380D01*
G04 #@! TO.C,K20*
X39301420Y-96972120D02*
X37523420Y-96972120D01*
X39301420Y-95194120D02*
X39301420Y-96972120D01*
X39301420Y-84272120D02*
X37523420Y-84272120D01*
X39301420Y-86050120D02*
X39301420Y-84272120D01*
X26601420Y-84272120D02*
X28379420Y-84272120D01*
X26601420Y-86050120D02*
X26601420Y-84272120D01*
X26601420Y-96972120D02*
X26601420Y-95194120D01*
X28379420Y-96972120D02*
X26601420Y-96972120D01*
G04 #@! TO.C,K21*
X52163980Y-96944180D02*
X50385980Y-96944180D01*
X50385980Y-96944180D02*
X50385980Y-95166180D01*
X50385980Y-86022180D02*
X50385980Y-84244180D01*
X50385980Y-84244180D02*
X52163980Y-84244180D01*
X63085980Y-86022180D02*
X63085980Y-84244180D01*
X63085980Y-84244180D02*
X61307980Y-84244180D01*
X63085980Y-95166180D02*
X63085980Y-96944180D01*
X63085980Y-96944180D02*
X61307980Y-96944180D01*
G04 #@! TO.C,K22*
X82130900Y-93761560D02*
X80352900Y-93761560D01*
X82130900Y-91983560D02*
X82130900Y-93761560D01*
X82130900Y-81061560D02*
X80352900Y-81061560D01*
X82130900Y-82839560D02*
X82130900Y-81061560D01*
X69430900Y-81061560D02*
X71208900Y-81061560D01*
X69430900Y-82839560D02*
X69430900Y-81061560D01*
X69430900Y-93761560D02*
X69430900Y-91983560D01*
X71208900Y-93761560D02*
X69430900Y-93761560D01*
G04 #@! TO.C,K23*
X90276680Y-92153740D02*
X88498680Y-92153740D01*
X88498680Y-92153740D02*
X88498680Y-90375740D01*
X88498680Y-81231740D02*
X88498680Y-79453740D01*
X88498680Y-79453740D02*
X90276680Y-79453740D01*
X101198680Y-81231740D02*
X101198680Y-79453740D01*
X101198680Y-79453740D02*
X99420680Y-79453740D01*
X101198680Y-90375740D02*
X101198680Y-92153740D01*
X101198680Y-92153740D02*
X99420680Y-92153740D01*
G04 #@! TO.C,K24*
X120238520Y-93786960D02*
X118460520Y-93786960D01*
X120238520Y-92008960D02*
X120238520Y-93786960D01*
X120238520Y-81086960D02*
X118460520Y-81086960D01*
X120238520Y-82864960D02*
X120238520Y-81086960D01*
X107538520Y-81086960D02*
X109316520Y-81086960D01*
X107538520Y-82864960D02*
X107538520Y-81086960D01*
X107538520Y-93786960D02*
X107538520Y-92008960D01*
X109316520Y-93786960D02*
X107538520Y-93786960D01*
G04 #@! TO.C,K25*
X139316460Y-95079820D02*
X137538460Y-95079820D01*
X139316460Y-93301820D02*
X139316460Y-95079820D01*
X139316460Y-82379820D02*
X137538460Y-82379820D01*
X139316460Y-84157820D02*
X139316460Y-82379820D01*
X126616460Y-82379820D02*
X128394460Y-82379820D01*
X126616460Y-84157820D02*
X126616460Y-82379820D01*
X126616460Y-95079820D02*
X126616460Y-93301820D01*
X128394460Y-95079820D02*
X126616460Y-95079820D01*
G04 #@! TO.C,K26*
X165567615Y-124564284D02*
X163956200Y-123812868D01*
X163956200Y-123812868D02*
X164707615Y-122201453D01*
X168572036Y-113914175D02*
X169323452Y-112302760D01*
X169323452Y-112302760D02*
X170934867Y-113054175D01*
X180082145Y-119281427D02*
X180833560Y-117670012D01*
X180833560Y-117670012D02*
X179222145Y-116918596D01*
X176217724Y-127568705D02*
X175466308Y-129180120D01*
X175466308Y-129180120D02*
X173854893Y-128428705D01*
G04 #@! TO.C,K30*
X39296340Y-115991640D02*
X37518340Y-115991640D01*
X39296340Y-114213640D02*
X39296340Y-115991640D01*
X39296340Y-103291640D02*
X37518340Y-103291640D01*
X39296340Y-105069640D02*
X39296340Y-103291640D01*
X26596340Y-103291640D02*
X28374340Y-103291640D01*
X26596340Y-105069640D02*
X26596340Y-103291640D01*
X26596340Y-115991640D02*
X26596340Y-114213640D01*
X28374340Y-115991640D02*
X26596340Y-115991640D01*
G04 #@! TO.C,K31*
X52181760Y-116011960D02*
X50403760Y-116011960D01*
X50403760Y-116011960D02*
X50403760Y-114233960D01*
X50403760Y-105089960D02*
X50403760Y-103311960D01*
X50403760Y-103311960D02*
X52181760Y-103311960D01*
X63103760Y-105089960D02*
X63103760Y-103311960D01*
X63103760Y-103311960D02*
X61325760Y-103311960D01*
X63103760Y-114233960D02*
X63103760Y-116011960D01*
X63103760Y-116011960D02*
X61325760Y-116011960D01*
G04 #@! TO.C,K32*
X82156300Y-112826800D02*
X80378300Y-112826800D01*
X82156300Y-111048800D02*
X82156300Y-112826800D01*
X82156300Y-100126800D02*
X80378300Y-100126800D01*
X82156300Y-101904800D02*
X82156300Y-100126800D01*
X69456300Y-100126800D02*
X71234300Y-100126800D01*
X69456300Y-101904800D02*
X69456300Y-100126800D01*
X69456300Y-112826800D02*
X69456300Y-111048800D01*
X71234300Y-112826800D02*
X69456300Y-112826800D01*
G04 #@! TO.C,K33*
X90276680Y-111254540D02*
X88498680Y-111254540D01*
X88498680Y-111254540D02*
X88498680Y-109476540D01*
X88498680Y-100332540D02*
X88498680Y-98554540D01*
X88498680Y-98554540D02*
X90276680Y-98554540D01*
X101198680Y-100332540D02*
X101198680Y-98554540D01*
X101198680Y-98554540D02*
X99420680Y-98554540D01*
X101198680Y-109476540D02*
X101198680Y-111254540D01*
X101198680Y-111254540D02*
X99420680Y-111254540D01*
G04 #@! TO.C,K34*
X120233440Y-112834420D02*
X118455440Y-112834420D01*
X120233440Y-111056420D02*
X120233440Y-112834420D01*
X120233440Y-100134420D02*
X118455440Y-100134420D01*
X120233440Y-101912420D02*
X120233440Y-100134420D01*
X107533440Y-100134420D02*
X109311440Y-100134420D01*
X107533440Y-101912420D02*
X107533440Y-100134420D01*
X107533440Y-112834420D02*
X107533440Y-111056420D01*
X109311440Y-112834420D02*
X107533440Y-112834420D01*
G04 #@! TO.C,K35*
X128358900Y-114043460D02*
X126580900Y-114043460D01*
X126580900Y-114043460D02*
X126580900Y-112265460D01*
X126580900Y-103121460D02*
X126580900Y-101343460D01*
X126580900Y-101343460D02*
X128358900Y-101343460D01*
X139280900Y-103121460D02*
X139280900Y-101343460D01*
X139280900Y-101343460D02*
X137502900Y-101343460D01*
X139280900Y-112265460D02*
X139280900Y-114043460D01*
X139280900Y-114043460D02*
X137502900Y-114043460D01*
G04 #@! TO.C,K36*
X145663920Y-109336840D02*
X145663920Y-107558840D01*
X147441920Y-109336840D02*
X145663920Y-109336840D01*
X158363920Y-109336840D02*
X158363920Y-107558840D01*
X156585920Y-109336840D02*
X158363920Y-109336840D01*
X158363920Y-96636840D02*
X158363920Y-98414840D01*
X156585920Y-96636840D02*
X158363920Y-96636840D01*
X145663920Y-96636840D02*
X147441920Y-96636840D01*
X145663920Y-98414840D02*
X145663920Y-96636840D01*
G04 #@! TO.C,K40*
X33149540Y-135046720D02*
X31371540Y-135046720D01*
X31371540Y-135046720D02*
X31371540Y-133268720D01*
X31371540Y-124124720D02*
X31371540Y-122346720D01*
X31371540Y-122346720D02*
X33149540Y-122346720D01*
X44071540Y-124124720D02*
X44071540Y-122346720D01*
X44071540Y-122346720D02*
X42293540Y-122346720D01*
X44071540Y-133268720D02*
X44071540Y-135046720D01*
X44071540Y-135046720D02*
X42293540Y-135046720D01*
G04 #@! TO.C,K41*
X63103760Y-135084820D02*
X61325760Y-135084820D01*
X63103760Y-133306820D02*
X63103760Y-135084820D01*
X63103760Y-122384820D02*
X61325760Y-122384820D01*
X63103760Y-124162820D02*
X63103760Y-122384820D01*
X50403760Y-122384820D02*
X52181760Y-122384820D01*
X50403760Y-124162820D02*
X50403760Y-122384820D01*
X50403760Y-135084820D02*
X50403760Y-133306820D01*
X52181760Y-135084820D02*
X50403760Y-135084820D01*
G04 #@! TO.C,K42*
X71231760Y-131874260D02*
X69453760Y-131874260D01*
X69453760Y-131874260D02*
X69453760Y-130096260D01*
X69453760Y-120952260D02*
X69453760Y-119174260D01*
X69453760Y-119174260D02*
X71231760Y-119174260D01*
X82153760Y-120952260D02*
X82153760Y-119174260D01*
X82153760Y-119174260D02*
X80375760Y-119174260D01*
X82153760Y-130096260D02*
X82153760Y-131874260D01*
X82153760Y-131874260D02*
X80375760Y-131874260D01*
G04 #@! TO.C,K43*
X101160580Y-130286760D02*
X99382580Y-130286760D01*
X101160580Y-128508760D02*
X101160580Y-130286760D01*
X101160580Y-117586760D02*
X99382580Y-117586760D01*
X101160580Y-119364760D02*
X101160580Y-117586760D01*
X88460580Y-117586760D02*
X90238580Y-117586760D01*
X88460580Y-119364760D02*
X88460580Y-117586760D01*
X88460580Y-130286760D02*
X88460580Y-128508760D01*
X90238580Y-130286760D02*
X88460580Y-130286760D01*
G04 #@! TO.C,K44*
X109324460Y-131875280D02*
X107546460Y-131875280D01*
X107546460Y-131875280D02*
X107546460Y-130097280D01*
X107546460Y-120953280D02*
X107546460Y-119175280D01*
X107546460Y-119175280D02*
X109324460Y-119175280D01*
X120246460Y-120953280D02*
X120246460Y-119175280D01*
X120246460Y-119175280D02*
X118468460Y-119175280D01*
X120246460Y-130097280D02*
X120246460Y-131875280D01*
X120246460Y-131875280D02*
X118468460Y-131875280D01*
G04 #@! TO.C,K45*
X192766248Y-137270020D02*
X191154833Y-136518605D01*
X193517664Y-135658605D02*
X192766248Y-137270020D01*
X198133500Y-125759912D02*
X196522085Y-125008496D01*
X197382085Y-127371327D02*
X198133500Y-125759912D01*
X186623392Y-120392660D02*
X188234807Y-121144075D01*
X185871976Y-122004075D02*
X186623392Y-120392660D01*
X181256140Y-131902768D02*
X182007555Y-130291353D01*
X182867555Y-132654184D02*
X181256140Y-131902768D01*
G04 #@! TO.C,K46*
X174881795Y-149900784D02*
X173270380Y-149149368D01*
X173270380Y-149149368D02*
X174021795Y-147537953D01*
X177886216Y-139250675D02*
X178637632Y-137639260D01*
X178637632Y-137639260D02*
X180249047Y-138390675D01*
X189396325Y-144617927D02*
X190147740Y-143006512D01*
X190147740Y-143006512D02*
X188536325Y-142255096D01*
X185531904Y-152905205D02*
X184780488Y-154516620D01*
X184780488Y-154516620D02*
X183169073Y-153765205D01*
G04 #@! TO.C,K54*
X140082972Y-130131020D02*
X139331556Y-131742435D01*
X135467135Y-140029713D02*
X134715720Y-141641128D01*
X134715720Y-141641128D02*
X136327135Y-142392544D01*
X144614413Y-146256965D02*
X146225828Y-147008380D01*
X146225828Y-147008380D02*
X146977244Y-145396965D01*
X150841665Y-137109687D02*
X151593080Y-135498272D01*
X151593080Y-135498272D02*
X149981665Y-134746856D01*
X141694387Y-130882435D02*
X140082972Y-130131020D01*
G04 #@! TO.C,K55*
X161810213Y-154321465D02*
X163421628Y-155072880D01*
X151911520Y-149705628D02*
X153522935Y-150457044D01*
X152662935Y-148094213D02*
X151911520Y-149705628D01*
X157278772Y-138195520D02*
X156527356Y-139806935D01*
X158890187Y-138946935D02*
X157278772Y-138195520D01*
X168788880Y-143562772D02*
X167177465Y-142811356D01*
X168037465Y-145174187D02*
X168788880Y-143562772D01*
X163421628Y-155072880D02*
X164173044Y-153461465D01*
G04 #@! TO.C,K56*
X176655028Y-171747980D02*
X175043613Y-170996565D01*
X177406444Y-170136565D02*
X176655028Y-171747980D01*
X182022280Y-160237872D02*
X180410865Y-159486456D01*
X181270865Y-161849287D02*
X182022280Y-160237872D01*
X170512172Y-154870620D02*
X172123587Y-155622035D01*
X169760756Y-156482035D02*
X170512172Y-154870620D01*
X165144920Y-166380728D02*
X165896335Y-164769313D01*
X166756335Y-167132144D02*
X165144920Y-166380728D01*
G04 #@! TO.C,MCU1*
D11*
X29292504Y-32175523D02*
X28492504Y-32175523D01*
X28492504Y-32366000D01*
X28530600Y-32480285D01*
X28606790Y-32556476D01*
X28682980Y-32594571D01*
X28835361Y-32632666D01*
X28949647Y-32632666D01*
X29102028Y-32594571D01*
X29178219Y-32556476D01*
X29254409Y-32480285D01*
X29292504Y-32366000D01*
X29292504Y-32175523D01*
X28568695Y-32937428D02*
X28530600Y-32975523D01*
X28492504Y-33051714D01*
X28492504Y-33242190D01*
X28530600Y-33318380D01*
X28568695Y-33356476D01*
X28644885Y-33394571D01*
X28721076Y-33394571D01*
X28835361Y-33356476D01*
X29292504Y-32899333D01*
X29292504Y-33394571D01*
X39452504Y-32175523D02*
X38652504Y-32175523D01*
X38652504Y-32366000D01*
X38690600Y-32480285D01*
X38766790Y-32556476D01*
X38842980Y-32594571D01*
X38995361Y-32632666D01*
X39109647Y-32632666D01*
X39262028Y-32594571D01*
X39338219Y-32556476D01*
X39414409Y-32480285D01*
X39452504Y-32366000D01*
X39452504Y-32175523D01*
X38652504Y-33127904D02*
X38652504Y-33204095D01*
X38690600Y-33280285D01*
X38728695Y-33318380D01*
X38804885Y-33356476D01*
X38957266Y-33394571D01*
X39147742Y-33394571D01*
X39300123Y-33356476D01*
X39376314Y-33318380D01*
X39414409Y-33280285D01*
X39452504Y-33204095D01*
X39452504Y-33127904D01*
X39414409Y-33051714D01*
X39376314Y-33013619D01*
X39300123Y-32975523D01*
X39147742Y-32937428D01*
X38957266Y-32937428D01*
X38804885Y-32975523D01*
X38728695Y-33013619D01*
X38690600Y-33051714D01*
X38652504Y-33127904D01*
X36912504Y-32175523D02*
X36112504Y-32175523D01*
X36112504Y-32366000D01*
X36150600Y-32480285D01*
X36226790Y-32556476D01*
X36302980Y-32594571D01*
X36455361Y-32632666D01*
X36569647Y-32632666D01*
X36722028Y-32594571D01*
X36798219Y-32556476D01*
X36874409Y-32480285D01*
X36912504Y-32366000D01*
X36912504Y-32175523D01*
X36912504Y-33394571D02*
X36912504Y-32937428D01*
X36912504Y-33166000D02*
X36112504Y-33166000D01*
X36226790Y-33089809D01*
X36302980Y-33013619D01*
X36341076Y-32937428D01*
X33610600Y-32156476D02*
X33572504Y-32080285D01*
X33572504Y-31966000D01*
X33610600Y-31851714D01*
X33686790Y-31775523D01*
X33762980Y-31737428D01*
X33915361Y-31699333D01*
X34029647Y-31699333D01*
X34182028Y-31737428D01*
X34258219Y-31775523D01*
X34334409Y-31851714D01*
X34372504Y-31966000D01*
X34372504Y-32042190D01*
X34334409Y-32156476D01*
X34296314Y-32194571D01*
X34029647Y-32194571D01*
X34029647Y-32042190D01*
X34372504Y-32537428D02*
X33572504Y-32537428D01*
X34372504Y-32994571D01*
X33572504Y-32994571D01*
X34372504Y-33375523D02*
X33572504Y-33375523D01*
X33572504Y-33566000D01*
X33610600Y-33680285D01*
X33686790Y-33756476D01*
X33762980Y-33794571D01*
X33915361Y-33832666D01*
X34029647Y-33832666D01*
X34182028Y-33794571D01*
X34258219Y-33756476D01*
X34334409Y-33680285D01*
X34372504Y-33566000D01*
X34372504Y-33375523D01*
X31070600Y-32156476D02*
X31032504Y-32080285D01*
X31032504Y-31966000D01*
X31070600Y-31851714D01*
X31146790Y-31775523D01*
X31222980Y-31737428D01*
X31375361Y-31699333D01*
X31489647Y-31699333D01*
X31642028Y-31737428D01*
X31718219Y-31775523D01*
X31794409Y-31851714D01*
X31832504Y-31966000D01*
X31832504Y-32042190D01*
X31794409Y-32156476D01*
X31756314Y-32194571D01*
X31489647Y-32194571D01*
X31489647Y-32042190D01*
X31832504Y-32537428D02*
X31032504Y-32537428D01*
X31832504Y-32994571D01*
X31032504Y-32994571D01*
X31832504Y-33375523D02*
X31032504Y-33375523D01*
X31032504Y-33566000D01*
X31070600Y-33680285D01*
X31146790Y-33756476D01*
X31222980Y-33794571D01*
X31375361Y-33832666D01*
X31489647Y-33832666D01*
X31642028Y-33794571D01*
X31718219Y-33756476D01*
X31794409Y-33680285D01*
X31832504Y-33566000D01*
X31832504Y-33375523D01*
X41992504Y-32175523D02*
X41192504Y-32175523D01*
X41192504Y-32366000D01*
X41230600Y-32480285D01*
X41306790Y-32556476D01*
X41382980Y-32594571D01*
X41535361Y-32632666D01*
X41649647Y-32632666D01*
X41802028Y-32594571D01*
X41878219Y-32556476D01*
X41954409Y-32480285D01*
X41992504Y-32366000D01*
X41992504Y-32175523D01*
X41459171Y-33318380D02*
X41992504Y-33318380D01*
X41154409Y-33127904D02*
X41725838Y-32937428D01*
X41725838Y-33432666D01*
X44456314Y-32632666D02*
X44494409Y-32594571D01*
X44532504Y-32480285D01*
X44532504Y-32404095D01*
X44494409Y-32289809D01*
X44418219Y-32213619D01*
X44342028Y-32175523D01*
X44189647Y-32137428D01*
X44075361Y-32137428D01*
X43922980Y-32175523D01*
X43846790Y-32213619D01*
X43770600Y-32289809D01*
X43732504Y-32404095D01*
X43732504Y-32480285D01*
X43770600Y-32594571D01*
X43808695Y-32632666D01*
X43732504Y-33318380D02*
X43732504Y-33166000D01*
X43770600Y-33089809D01*
X43808695Y-33051714D01*
X43922980Y-32975523D01*
X44075361Y-32937428D01*
X44380123Y-32937428D01*
X44456314Y-32975523D01*
X44494409Y-33013619D01*
X44532504Y-33089809D01*
X44532504Y-33242190D01*
X44494409Y-33318380D01*
X44456314Y-33356476D01*
X44380123Y-33394571D01*
X44189647Y-33394571D01*
X44113457Y-33356476D01*
X44075361Y-33318380D01*
X44037266Y-33242190D01*
X44037266Y-33089809D01*
X44075361Y-33013619D01*
X44113457Y-32975523D01*
X44189647Y-32937428D01*
X47072504Y-32175523D02*
X46272504Y-32175523D01*
X46272504Y-32366000D01*
X46310600Y-32480285D01*
X46386790Y-32556476D01*
X46462980Y-32594571D01*
X46615361Y-32632666D01*
X46729647Y-32632666D01*
X46882028Y-32594571D01*
X46958219Y-32556476D01*
X47034409Y-32480285D01*
X47072504Y-32366000D01*
X47072504Y-32175523D01*
X46272504Y-32899333D02*
X46272504Y-33432666D01*
X47072504Y-33089809D01*
X49193457Y-32213619D02*
X49193457Y-32480285D01*
X49612504Y-32594571D02*
X49612504Y-32213619D01*
X48812504Y-32213619D01*
X48812504Y-32594571D01*
X48812504Y-33280285D02*
X48812504Y-33127904D01*
X48850600Y-33051714D01*
X48888695Y-33013619D01*
X49002980Y-32937428D01*
X49155361Y-32899333D01*
X49460123Y-32899333D01*
X49536314Y-32937428D01*
X49574409Y-32975523D01*
X49612504Y-33051714D01*
X49612504Y-33204095D01*
X49574409Y-33280285D01*
X49536314Y-33318380D01*
X49460123Y-33356476D01*
X49269647Y-33356476D01*
X49193457Y-33318380D01*
X49155361Y-33280285D01*
X49117266Y-33204095D01*
X49117266Y-33051714D01*
X49155361Y-32975523D01*
X49193457Y-32937428D01*
X49269647Y-32899333D01*
X51733457Y-32442190D02*
X51771552Y-32556476D01*
X51809647Y-32594571D01*
X51885838Y-32632666D01*
X52000123Y-32632666D01*
X52076314Y-32594571D01*
X52114409Y-32556476D01*
X52152504Y-32480285D01*
X52152504Y-32175523D01*
X51352504Y-32175523D01*
X51352504Y-32442190D01*
X51390600Y-32518380D01*
X51428695Y-32556476D01*
X51504885Y-32594571D01*
X51581076Y-32594571D01*
X51657266Y-32556476D01*
X51695361Y-32518380D01*
X51733457Y-32442190D01*
X51733457Y-32175523D01*
X51619171Y-33318380D02*
X52152504Y-33318380D01*
X51314409Y-33127904D02*
X51885838Y-32937428D01*
X51885838Y-33432666D01*
X54273457Y-32442190D02*
X54311552Y-32556476D01*
X54349647Y-32594571D01*
X54425838Y-32632666D01*
X54540123Y-32632666D01*
X54616314Y-32594571D01*
X54654409Y-32556476D01*
X54692504Y-32480285D01*
X54692504Y-32175523D01*
X53892504Y-32175523D01*
X53892504Y-32442190D01*
X53930600Y-32518380D01*
X53968695Y-32556476D01*
X54044885Y-32594571D01*
X54121076Y-32594571D01*
X54197266Y-32556476D01*
X54235361Y-32518380D01*
X54273457Y-32442190D01*
X54273457Y-32175523D01*
X53892504Y-33356476D02*
X53892504Y-32975523D01*
X54273457Y-32937428D01*
X54235361Y-32975523D01*
X54197266Y-33051714D01*
X54197266Y-33242190D01*
X54235361Y-33318380D01*
X54273457Y-33356476D01*
X54349647Y-33394571D01*
X54540123Y-33394571D01*
X54616314Y-33356476D01*
X54654409Y-33318380D01*
X54692504Y-33242190D01*
X54692504Y-33051714D01*
X54654409Y-32975523D01*
X54616314Y-32937428D01*
X54273457Y-21520190D02*
X54311552Y-21634476D01*
X54349647Y-21672571D01*
X54425838Y-21710666D01*
X54540123Y-21710666D01*
X54616314Y-21672571D01*
X54654409Y-21634476D01*
X54692504Y-21558285D01*
X54692504Y-21253523D01*
X53892504Y-21253523D01*
X53892504Y-21520190D01*
X53930600Y-21596380D01*
X53968695Y-21634476D01*
X54044885Y-21672571D01*
X54121076Y-21672571D01*
X54197266Y-21634476D01*
X54235361Y-21596380D01*
X54273457Y-21520190D01*
X54273457Y-21253523D01*
X53892504Y-22396380D02*
X53892504Y-22244000D01*
X53930600Y-22167809D01*
X53968695Y-22129714D01*
X54082980Y-22053523D01*
X54235361Y-22015428D01*
X54540123Y-22015428D01*
X54616314Y-22053523D01*
X54654409Y-22091619D01*
X54692504Y-22167809D01*
X54692504Y-22320190D01*
X54654409Y-22396380D01*
X54616314Y-22434476D01*
X54540123Y-22472571D01*
X54349647Y-22472571D01*
X54273457Y-22434476D01*
X54235361Y-22396380D01*
X54197266Y-22320190D01*
X54197266Y-22167809D01*
X54235361Y-22091619D01*
X54273457Y-22053523D01*
X54349647Y-22015428D01*
X49193457Y-21520190D02*
X49231552Y-21634476D01*
X49269647Y-21672571D01*
X49345838Y-21710666D01*
X49460123Y-21710666D01*
X49536314Y-21672571D01*
X49574409Y-21634476D01*
X49612504Y-21558285D01*
X49612504Y-21253523D01*
X48812504Y-21253523D01*
X48812504Y-21520190D01*
X48850600Y-21596380D01*
X48888695Y-21634476D01*
X48964885Y-21672571D01*
X49041076Y-21672571D01*
X49117266Y-21634476D01*
X49155361Y-21596380D01*
X49193457Y-21520190D01*
X49193457Y-21253523D01*
X48812504Y-21977333D02*
X48812504Y-22472571D01*
X49117266Y-22205904D01*
X49117266Y-22320190D01*
X49155361Y-22396380D01*
X49193457Y-22434476D01*
X49269647Y-22472571D01*
X49460123Y-22472571D01*
X49536314Y-22434476D01*
X49574409Y-22396380D01*
X49612504Y-22320190D01*
X49612504Y-22091619D01*
X49574409Y-22015428D01*
X49536314Y-21977333D01*
X46653457Y-21520190D02*
X46691552Y-21634476D01*
X46729647Y-21672571D01*
X46805838Y-21710666D01*
X46920123Y-21710666D01*
X46996314Y-21672571D01*
X47034409Y-21634476D01*
X47072504Y-21558285D01*
X47072504Y-21253523D01*
X46272504Y-21253523D01*
X46272504Y-21520190D01*
X46310600Y-21596380D01*
X46348695Y-21634476D01*
X46424885Y-21672571D01*
X46501076Y-21672571D01*
X46577266Y-21634476D01*
X46615361Y-21596380D01*
X46653457Y-21520190D01*
X46653457Y-21253523D01*
X47072504Y-22472571D02*
X47072504Y-22015428D01*
X47072504Y-22244000D02*
X46272504Y-22244000D01*
X46386790Y-22167809D01*
X46462980Y-22091619D01*
X46501076Y-22015428D01*
X36493457Y-21577333D02*
X36493457Y-21310666D01*
X36912504Y-21310666D02*
X36112504Y-21310666D01*
X36112504Y-21691619D01*
X36379171Y-22339238D02*
X36912504Y-22339238D01*
X36074409Y-22148761D02*
X36645838Y-21958285D01*
X36645838Y-22453523D01*
X33572504Y-20777333D02*
X34372504Y-21044000D01*
X33572504Y-21310666D01*
X34296314Y-22034476D02*
X34334409Y-21996380D01*
X34372504Y-21882095D01*
X34372504Y-21805904D01*
X34334409Y-21691619D01*
X34258219Y-21615428D01*
X34182028Y-21577333D01*
X34029647Y-21539238D01*
X33915361Y-21539238D01*
X33762980Y-21577333D01*
X33686790Y-21615428D01*
X33610600Y-21691619D01*
X33572504Y-21805904D01*
X33572504Y-21882095D01*
X33610600Y-21996380D01*
X33648695Y-22034476D01*
X34296314Y-22834476D02*
X34334409Y-22796380D01*
X34372504Y-22682095D01*
X34372504Y-22605904D01*
X34334409Y-22491619D01*
X34258219Y-22415428D01*
X34182028Y-22377333D01*
X34029647Y-22339238D01*
X33915361Y-22339238D01*
X33762980Y-22377333D01*
X33686790Y-22415428D01*
X33610600Y-22491619D01*
X33572504Y-22605904D01*
X33572504Y-22682095D01*
X33610600Y-22796380D01*
X33648695Y-22834476D01*
X28530600Y-21234476D02*
X28492504Y-21158285D01*
X28492504Y-21044000D01*
X28530600Y-20929714D01*
X28606790Y-20853523D01*
X28682980Y-20815428D01*
X28835361Y-20777333D01*
X28949647Y-20777333D01*
X29102028Y-20815428D01*
X29178219Y-20853523D01*
X29254409Y-20929714D01*
X29292504Y-21044000D01*
X29292504Y-21120190D01*
X29254409Y-21234476D01*
X29216314Y-21272571D01*
X28949647Y-21272571D01*
X28949647Y-21120190D01*
X29292504Y-21615428D02*
X28492504Y-21615428D01*
X29292504Y-22072571D01*
X28492504Y-22072571D01*
X29292504Y-22453523D02*
X28492504Y-22453523D01*
X28492504Y-22644000D01*
X28530600Y-22758285D01*
X28606790Y-22834476D01*
X28682980Y-22872571D01*
X28835361Y-22910666D01*
X28949647Y-22910666D01*
X29102028Y-22872571D01*
X29178219Y-22834476D01*
X29254409Y-22758285D01*
X29292504Y-22644000D01*
X29292504Y-22453523D01*
X26752504Y-21291619D02*
X26371552Y-21024952D01*
X26752504Y-20834476D02*
X25952504Y-20834476D01*
X25952504Y-21139238D01*
X25990600Y-21215428D01*
X26028695Y-21253523D01*
X26104885Y-21291619D01*
X26219171Y-21291619D01*
X26295361Y-21253523D01*
X26333457Y-21215428D01*
X26371552Y-21139238D01*
X26371552Y-20834476D01*
X26523933Y-21596380D02*
X26523933Y-21977333D01*
X26752504Y-21520190D02*
X25952504Y-21786857D01*
X26752504Y-22053523D01*
X25952504Y-22244000D02*
X26752504Y-22434476D01*
X26181076Y-22586857D01*
X26752504Y-22739238D01*
X25952504Y-22929714D01*
X39033457Y-21577333D02*
X39033457Y-21310666D01*
X39452504Y-21310666D02*
X38652504Y-21310666D01*
X38652504Y-21691619D01*
X38652504Y-22377333D02*
X38652504Y-21996380D01*
X39033457Y-21958285D01*
X38995361Y-21996380D01*
X38957266Y-22072571D01*
X38957266Y-22263047D01*
X38995361Y-22339238D01*
X39033457Y-22377333D01*
X39109647Y-22415428D01*
X39300123Y-22415428D01*
X39376314Y-22377333D01*
X39414409Y-22339238D01*
X39452504Y-22263047D01*
X39452504Y-22072571D01*
X39414409Y-21996380D01*
X39376314Y-21958285D01*
X41573457Y-21577333D02*
X41573457Y-21310666D01*
X41992504Y-21310666D02*
X41192504Y-21310666D01*
X41192504Y-21691619D01*
X41192504Y-22339238D02*
X41192504Y-22186857D01*
X41230600Y-22110666D01*
X41268695Y-22072571D01*
X41382980Y-21996380D01*
X41535361Y-21958285D01*
X41840123Y-21958285D01*
X41916314Y-21996380D01*
X41954409Y-22034476D01*
X41992504Y-22110666D01*
X41992504Y-22263047D01*
X41954409Y-22339238D01*
X41916314Y-22377333D01*
X41840123Y-22415428D01*
X41649647Y-22415428D01*
X41573457Y-22377333D01*
X41535361Y-22339238D01*
X41497266Y-22263047D01*
X41497266Y-22110666D01*
X41535361Y-22034476D01*
X41573457Y-21996380D01*
X41649647Y-21958285D01*
X44113457Y-21577333D02*
X44113457Y-21310666D01*
X44532504Y-21310666D02*
X43732504Y-21310666D01*
X43732504Y-21691619D01*
X43732504Y-21920190D02*
X43732504Y-22453523D01*
X44532504Y-22110666D01*
X51733457Y-21520190D02*
X51771552Y-21634476D01*
X51809647Y-21672571D01*
X51885838Y-21710666D01*
X52000123Y-21710666D01*
X52076314Y-21672571D01*
X52114409Y-21634476D01*
X52152504Y-21558285D01*
X52152504Y-21253523D01*
X51352504Y-21253523D01*
X51352504Y-21520190D01*
X51390600Y-21596380D01*
X51428695Y-21634476D01*
X51504885Y-21672571D01*
X51581076Y-21672571D01*
X51657266Y-21634476D01*
X51695361Y-21596380D01*
X51733457Y-21520190D01*
X51733457Y-21253523D01*
X51428695Y-22015428D02*
X51390600Y-22053523D01*
X51352504Y-22129714D01*
X51352504Y-22320190D01*
X51390600Y-22396380D01*
X51428695Y-22434476D01*
X51504885Y-22472571D01*
X51581076Y-22472571D01*
X51695361Y-22434476D01*
X52152504Y-21977333D01*
X52152504Y-22472571D01*
X25952504Y-28686395D02*
X25952504Y-29143538D01*
X26752504Y-28914967D02*
X25952504Y-28914967D01*
X25952504Y-29334014D02*
X26752504Y-29867348D01*
X25952504Y-29867348D02*
X26752504Y-29334014D01*
X25952504Y-30324491D02*
X25952504Y-30400681D01*
X25990600Y-30476872D01*
X26028695Y-30514967D01*
X26104885Y-30553062D01*
X26257266Y-30591157D01*
X26447742Y-30591157D01*
X26600123Y-30553062D01*
X26676314Y-30514967D01*
X26714409Y-30476872D01*
X26752504Y-30400681D01*
X26752504Y-30324491D01*
X26714409Y-30248300D01*
X26676314Y-30210205D01*
X26600123Y-30172110D01*
X26447742Y-30134014D01*
X26257266Y-30134014D01*
X26104885Y-30172110D01*
X26028695Y-30210205D01*
X25990600Y-30248300D01*
X25952504Y-30324491D01*
X25914409Y-31505443D02*
X26942980Y-30819729D01*
X26752504Y-31772110D02*
X25952504Y-31772110D01*
X25952504Y-31962586D01*
X25990600Y-32076872D01*
X26066790Y-32153062D01*
X26142980Y-32191157D01*
X26295361Y-32229252D01*
X26409647Y-32229252D01*
X26562028Y-32191157D01*
X26638219Y-32153062D01*
X26714409Y-32076872D01*
X26752504Y-31962586D01*
X26752504Y-31772110D01*
X25952504Y-32495919D02*
X25952504Y-32991157D01*
X26257266Y-32724491D01*
X26257266Y-32838776D01*
X26295361Y-32914967D01*
X26333457Y-32953062D01*
X26409647Y-32991157D01*
X26600123Y-32991157D01*
X26676314Y-32953062D01*
X26714409Y-32914967D01*
X26752504Y-32838776D01*
X26752504Y-32610205D01*
X26714409Y-32534014D01*
X26676314Y-32495919D01*
X31774409Y-21731666D02*
X31812504Y-21845952D01*
X31812504Y-22036428D01*
X31774409Y-22112619D01*
X31736314Y-22150714D01*
X31660123Y-22188809D01*
X31583933Y-22188809D01*
X31507742Y-22150714D01*
X31469647Y-22112619D01*
X31431552Y-22036428D01*
X31393457Y-21884047D01*
X31355361Y-21807857D01*
X31317266Y-21769761D01*
X31241076Y-21731666D01*
X31164885Y-21731666D01*
X31088695Y-21769761D01*
X31050600Y-21807857D01*
X31012504Y-21884047D01*
X31012504Y-22074523D01*
X31050600Y-22188809D01*
X31012504Y-22417380D02*
X31012504Y-22874523D01*
X31812504Y-22645952D02*
X31012504Y-22645952D01*
G04 #@! TO.C,AudioJM1*
X132916466Y-19025795D02*
X132916466Y-19501985D01*
X133202180Y-18930557D02*
X132202180Y-19263890D01*
X133202180Y-19597223D01*
X132535514Y-20359128D02*
X133202180Y-20359128D01*
X132535514Y-19930557D02*
X133059323Y-19930557D01*
X133154561Y-19978176D01*
X133202180Y-20073414D01*
X133202180Y-20216271D01*
X133154561Y-20311509D01*
X133106942Y-20359128D01*
X133202180Y-21263890D02*
X132202180Y-21263890D01*
X133154561Y-21263890D02*
X133202180Y-21168652D01*
X133202180Y-20978176D01*
X133154561Y-20882938D01*
X133106942Y-20835319D01*
X133011704Y-20787700D01*
X132725990Y-20787700D01*
X132630752Y-20835319D01*
X132583133Y-20882938D01*
X132535514Y-20978176D01*
X132535514Y-21168652D01*
X132583133Y-21263890D01*
X133202180Y-21740080D02*
X132535514Y-21740080D01*
X132202180Y-21740080D02*
X132249800Y-21692461D01*
X132297419Y-21740080D01*
X132249800Y-21787700D01*
X132202180Y-21740080D01*
X132297419Y-21740080D01*
X133202180Y-22359128D02*
X133154561Y-22263890D01*
X133106942Y-22216271D01*
X133011704Y-22168652D01*
X132725990Y-22168652D01*
X132630752Y-22216271D01*
X132583133Y-22263890D01*
X132535514Y-22359128D01*
X132535514Y-22501985D01*
X132583133Y-22597223D01*
X132630752Y-22644842D01*
X132725990Y-22692461D01*
X133011704Y-22692461D01*
X133106942Y-22644842D01*
X133154561Y-22597223D01*
X133202180Y-22501985D01*
X133202180Y-22359128D01*
X132202180Y-23406747D02*
X132916466Y-23406747D01*
X133059323Y-23359128D01*
X133154561Y-23263890D01*
X133202180Y-23121033D01*
X133202180Y-23025795D01*
X133202180Y-23882938D02*
X132202180Y-23882938D01*
X132916466Y-24216271D01*
X132202180Y-24549604D01*
X133202180Y-24549604D01*
X133202180Y-25549604D02*
X133202180Y-24978176D01*
X133202180Y-25263890D02*
X132202180Y-25263890D01*
X132345038Y-25168652D01*
X132440276Y-25073414D01*
X132487895Y-24978176D01*
G04 #@! TO.C,SW2*
X69951433Y-16200061D02*
X69808576Y-16247680D01*
X69570480Y-16247680D01*
X69475242Y-16200061D01*
X69427623Y-16152442D01*
X69380004Y-16057204D01*
X69380004Y-15961966D01*
X69427623Y-15866728D01*
X69475242Y-15819109D01*
X69570480Y-15771490D01*
X69760957Y-15723871D01*
X69856195Y-15676252D01*
X69903814Y-15628633D01*
X69951433Y-15533395D01*
X69951433Y-15438157D01*
X69903814Y-15342919D01*
X69856195Y-15295300D01*
X69760957Y-15247680D01*
X69522861Y-15247680D01*
X69380004Y-15295300D01*
X69046671Y-15247680D02*
X68808576Y-16247680D01*
X68618100Y-15533395D01*
X68427623Y-16247680D01*
X68189528Y-15247680D01*
X67856195Y-15342919D02*
X67808576Y-15295300D01*
X67713338Y-15247680D01*
X67475242Y-15247680D01*
X67380004Y-15295300D01*
X67332385Y-15342919D01*
X67284766Y-15438157D01*
X67284766Y-15533395D01*
X67332385Y-15676252D01*
X67903814Y-16247680D01*
X67284766Y-16247680D01*
G04 #@! TD*
M02*
