G04 #@! TF.GenerationSoftware,KiCad,Pcbnew,(5.0.2)-1*
G04 #@! TF.CreationDate,2019-01-22T23:05:01+05:30*
G04 #@! TF.ProjectId,ErgodoxBle,4572676f-646f-4784-926c-652e6b696361,rev?*
G04 #@! TF.SameCoordinates,Original*
G04 #@! TF.FileFunction,Drawing*
%FSLAX46Y46*%
G04 Gerber Fmt 4.6, Leading zero omitted, Abs format (unit mm)*
G04 Created by KiCad (PCBNEW (5.0.2)-1) date 1/22/2019 11:05:01 PM*
%MOMM*%
%LPD*%
G01*
G04 APERTURE LIST*
%ADD10C,0.200000*%
%ADD11C,0.150000*%
%ADD12C,0.152400*%
G04 APERTURE END LIST*
D10*
G04 #@! TO.C,proMicro1*
X190804800Y-45567600D02*
X190804800Y-38201600D01*
X190804800Y-38201600D02*
X195884800Y-38201600D01*
X195884800Y-38201600D02*
X195884800Y-45567600D01*
X195884800Y-45567600D02*
X190804800Y-45567600D01*
D11*
G04 #@! TO.C,USB_C1*
X142087200Y-37043400D02*
X133147200Y-37043400D01*
X133147200Y-29743400D02*
X133147200Y-37043400D01*
X142087200Y-29743400D02*
X142087200Y-37043400D01*
X142087200Y-29743400D02*
X133147200Y-29743400D01*
D12*
G04 #@! TO.C,SW3:13*
X182054500Y-95704660D02*
X200850500Y-95704660D01*
X200850500Y-95704660D02*
X200850500Y-114500660D01*
X200850500Y-114500660D02*
X182054500Y-114500660D01*
X182054500Y-114500660D02*
X182054500Y-95704660D01*
G04 #@! TO.C,SW2:13*
X182054500Y-114754660D02*
X200850500Y-114754660D01*
X200850500Y-114754660D02*
X200850500Y-133550660D01*
X200850500Y-133550660D02*
X182054500Y-133550660D01*
X182054500Y-133550660D02*
X182054500Y-114754660D01*
G04 #@! TO.C,SW0:7*
X22209693Y-138722986D02*
X39244654Y-130779453D01*
X39244654Y-130779453D02*
X47188187Y-147814414D01*
X47188187Y-147814414D02*
X30153226Y-155757947D01*
X30153226Y-155757947D02*
X22209693Y-138722986D01*
G04 #@! TO.C,SW0:8*
X39474073Y-130673726D02*
X56509034Y-122730193D01*
X56509034Y-122730193D02*
X64452567Y-139765154D01*
X64452567Y-139765154D02*
X47417606Y-147708687D01*
X47417606Y-147708687D02*
X39474073Y-130673726D01*
G04 #@! TO.C,SW0:9*
X38202486Y-173022327D02*
X30258953Y-155987366D01*
X55237447Y-165078794D02*
X38202486Y-173022327D01*
X47293914Y-148043833D02*
X55237447Y-165078794D01*
X30258953Y-155987366D02*
X47293914Y-148043833D01*
G04 #@! TO.C,SW0:10*
X93792107Y-157611194D02*
X76757146Y-165554727D01*
X85848574Y-140576233D02*
X93792107Y-157611194D01*
X68813613Y-148519766D02*
X85848574Y-140576233D01*
X76757146Y-165554727D02*
X68813613Y-148519766D01*
G04 #@! TO.C,SW0:11*
X59492766Y-173606527D02*
X51549233Y-156571566D01*
X51549233Y-156571566D02*
X68584194Y-148628033D01*
X68584194Y-148628033D02*
X76527727Y-165662994D01*
X76527727Y-165662994D02*
X59492766Y-173606527D01*
G04 #@! TO.C,SW0:12*
X46254286Y-190289247D02*
X38310753Y-173254286D01*
X63289247Y-182345714D02*
X46254286Y-190289247D01*
X55345714Y-165310753D02*
X63289247Y-182345714D01*
X38310753Y-173254286D02*
X55345714Y-165310753D01*
G04 #@! TO.C,SW1:9*
X101092000Y-130629660D02*
X119888000Y-130629660D01*
X119888000Y-130629660D02*
X119888000Y-149425660D01*
X119888000Y-149425660D02*
X101092000Y-149425660D01*
X101092000Y-149425660D02*
X101092000Y-130629660D01*
G04 #@! TO.C,SW1:10*
X120142000Y-147828000D02*
X120142000Y-129032000D01*
X138938000Y-147828000D02*
X120142000Y-147828000D01*
X138938000Y-129032000D02*
X138938000Y-147828000D01*
X120142000Y-129032000D02*
X138938000Y-129032000D01*
G04 #@! TO.C,SW1:11*
X139192000Y-130629660D02*
X157988000Y-130629660D01*
X157988000Y-130629660D02*
X157988000Y-149425660D01*
X157988000Y-149425660D02*
X139192000Y-149425660D01*
X139192000Y-149425660D02*
X139192000Y-130629660D01*
G04 #@! TO.C,SW1:12*
X158242000Y-152600660D02*
X158242000Y-133804660D01*
X177038000Y-152600660D02*
X158242000Y-152600660D01*
X177038000Y-133804660D02*
X177038000Y-152600660D01*
X158242000Y-133804660D02*
X177038000Y-133804660D01*
G04 #@! TO.C,SW1:13*
X177292000Y-152600660D02*
X177292000Y-133804660D01*
X196088000Y-152600660D02*
X177292000Y-152600660D01*
X196088000Y-133804660D02*
X196088000Y-152600660D01*
X177292000Y-133804660D02*
X196088000Y-133804660D01*
G04 #@! TO.C,SW2:7*
X81788000Y-126883160D02*
X62992000Y-126883160D01*
X81788000Y-108087160D02*
X81788000Y-126883160D01*
X62992000Y-108087160D02*
X81788000Y-108087160D01*
X62992000Y-126883160D02*
X62992000Y-108087160D01*
G04 #@! TO.C,SW2:8*
X82042000Y-131645660D02*
X82042000Y-112849660D01*
X100838000Y-131645660D02*
X82042000Y-131645660D01*
X100838000Y-112849660D02*
X100838000Y-131645660D01*
X82042000Y-112849660D02*
X100838000Y-112849660D01*
G04 #@! TO.C,SW2:9*
X101092000Y-111579660D02*
X119888000Y-111579660D01*
X119888000Y-111579660D02*
X119888000Y-130375660D01*
X119888000Y-130375660D02*
X101092000Y-130375660D01*
X101092000Y-130375660D02*
X101092000Y-111579660D01*
G04 #@! TO.C,SW2:10*
X120142000Y-128778000D02*
X120142000Y-109982000D01*
X138938000Y-128778000D02*
X120142000Y-128778000D01*
X138938000Y-109982000D02*
X138938000Y-128778000D01*
X120142000Y-109982000D02*
X138938000Y-109982000D01*
G04 #@! TO.C,SW2:11*
X139192000Y-130375660D02*
X139192000Y-111579660D01*
X157988000Y-130375660D02*
X139192000Y-130375660D01*
X157988000Y-111579660D02*
X157988000Y-130375660D01*
X139192000Y-111579660D02*
X157988000Y-111579660D01*
G04 #@! TO.C,SW2:12*
X158242000Y-133550660D02*
X158242000Y-114754660D01*
X177038000Y-133550660D02*
X158242000Y-133550660D01*
X177038000Y-114754660D02*
X177038000Y-133550660D01*
X158242000Y-114754660D02*
X177038000Y-114754660D01*
G04 #@! TO.C,SW3:8*
X82042000Y-93799660D02*
X100838000Y-93799660D01*
X100838000Y-93799660D02*
X100838000Y-112595660D01*
X100838000Y-112595660D02*
X82042000Y-112595660D01*
X82042000Y-112595660D02*
X82042000Y-93799660D01*
G04 #@! TO.C,SW3:9*
X101092000Y-92529660D02*
X119888000Y-92529660D01*
X119888000Y-92529660D02*
X119888000Y-111325660D01*
X119888000Y-111325660D02*
X101092000Y-111325660D01*
X101092000Y-111325660D02*
X101092000Y-92529660D01*
G04 #@! TO.C,SW3:10*
X120142000Y-90932000D02*
X138938000Y-90932000D01*
X138938000Y-90932000D02*
X138938000Y-109728000D01*
X138938000Y-109728000D02*
X120142000Y-109728000D01*
X120142000Y-109728000D02*
X120142000Y-90932000D01*
G04 #@! TO.C,SW3:11*
X139192000Y-111325660D02*
X139192000Y-92529660D01*
X157988000Y-111325660D02*
X139192000Y-111325660D01*
X157988000Y-92529660D02*
X157988000Y-111325660D01*
X139192000Y-92529660D02*
X157988000Y-92529660D01*
G04 #@! TO.C,SW3:12*
X158242000Y-95704660D02*
X177038000Y-95704660D01*
X177038000Y-95704660D02*
X177038000Y-114500660D01*
X177038000Y-114500660D02*
X158242000Y-114500660D01*
X158242000Y-114500660D02*
X158242000Y-95704660D01*
G04 #@! TO.C,SW4:7*
X81788000Y-98308160D02*
X62992000Y-98308160D01*
X81788000Y-79512160D02*
X81788000Y-98308160D01*
X62992000Y-79512160D02*
X81788000Y-79512160D01*
X62992000Y-98308160D02*
X62992000Y-79512160D01*
G04 #@! TO.C,SW4:8*
X82042000Y-74749660D02*
X100838000Y-74749660D01*
X100838000Y-74749660D02*
X100838000Y-93545660D01*
X100838000Y-93545660D02*
X82042000Y-93545660D01*
X82042000Y-93545660D02*
X82042000Y-74749660D01*
G04 #@! TO.C,SW4:9*
X101092000Y-92275660D02*
X101092000Y-73479660D01*
X119888000Y-92275660D02*
X101092000Y-92275660D01*
X119888000Y-73479660D02*
X119888000Y-92275660D01*
X101092000Y-73479660D02*
X119888000Y-73479660D01*
G04 #@! TO.C,SW4:10*
X120142000Y-90678000D02*
X120142000Y-71882000D01*
X138938000Y-90678000D02*
X120142000Y-90678000D01*
X138938000Y-71882000D02*
X138938000Y-90678000D01*
X120142000Y-71882000D02*
X138938000Y-71882000D01*
G04 #@! TO.C,SW4:11*
X139192000Y-73479660D02*
X157988000Y-73479660D01*
X157988000Y-73479660D02*
X157988000Y-92275660D01*
X157988000Y-92275660D02*
X139192000Y-92275660D01*
X139192000Y-92275660D02*
X139192000Y-73479660D01*
G04 #@! TO.C,SW4:12*
X158242000Y-95450660D02*
X158242000Y-76654660D01*
X177038000Y-95450660D02*
X158242000Y-95450660D01*
X177038000Y-76654660D02*
X177038000Y-95450660D01*
X158242000Y-76654660D02*
X177038000Y-76654660D01*
G04 #@! TO.C,SW4:13*
X182054500Y-95450660D02*
X182054500Y-76654660D01*
X200850500Y-95450660D02*
X182054500Y-95450660D01*
X200850500Y-76654660D02*
X200850500Y-95450660D01*
X182054500Y-76654660D02*
X200850500Y-76654660D01*
G04 #@! TO.C,SW5:7*
X62992000Y-74498200D02*
X62992000Y-55702200D01*
X81788000Y-74498200D02*
X62992000Y-74498200D01*
X81788000Y-55702200D02*
X81788000Y-74498200D01*
X62992000Y-55702200D02*
X81788000Y-55702200D01*
G04 #@! TO.C,SW5:8*
X82042000Y-55702200D02*
X100838000Y-55702200D01*
X100838000Y-55702200D02*
X100838000Y-74498200D01*
X100838000Y-74498200D02*
X82042000Y-74498200D01*
X82042000Y-74498200D02*
X82042000Y-55702200D01*
G04 #@! TO.C,SW5:9*
X101092000Y-73225660D02*
X101092000Y-54429660D01*
X119888000Y-73225660D02*
X101092000Y-73225660D01*
X119888000Y-54429660D02*
X119888000Y-73225660D01*
X101092000Y-54429660D02*
X119888000Y-54429660D01*
G04 #@! TO.C,SW5:10*
X120142000Y-52832000D02*
X138938000Y-52832000D01*
X138938000Y-52832000D02*
X138938000Y-71628000D01*
X138938000Y-71628000D02*
X120142000Y-71628000D01*
X120142000Y-71628000D02*
X120142000Y-52832000D01*
G04 #@! TO.C,SW5:11*
X139192000Y-54429660D02*
X157988000Y-54429660D01*
X157988000Y-54429660D02*
X157988000Y-73225660D01*
X157988000Y-73225660D02*
X139192000Y-73225660D01*
X139192000Y-73225660D02*
X139192000Y-54429660D01*
G04 #@! TO.C,SW5:12*
X158242000Y-57607200D02*
X177038000Y-57607200D01*
X177038000Y-57607200D02*
X177038000Y-76403200D01*
X177038000Y-76403200D02*
X158242000Y-76403200D01*
X158242000Y-76403200D02*
X158242000Y-57607200D01*
G04 #@! TO.C,SW5:13*
X182054500Y-57607200D02*
X200850500Y-57607200D01*
X200850500Y-57607200D02*
X200850500Y-76403200D01*
X200850500Y-76403200D02*
X182054500Y-76403200D01*
X182054500Y-76403200D02*
X182054500Y-57607200D01*
G04 #@! TO.C,SX0:10*
X97820547Y-166244654D02*
X80785586Y-174188187D01*
X80785586Y-174188187D02*
X72842053Y-157153226D01*
X72842053Y-157153226D02*
X89877014Y-149209693D01*
X89877014Y-149209693D02*
X97820547Y-166244654D01*
G04 #@! TO.C,SX0:11*
X72610094Y-157258953D02*
X80553627Y-174293914D01*
X55575133Y-165202486D02*
X72610094Y-157258953D01*
X63518666Y-182237447D02*
X55575133Y-165202486D01*
X80553627Y-174293914D02*
X63518666Y-182237447D01*
G04 #@! TO.C,SX1:7*
X55469406Y-164973067D02*
X47525873Y-147938106D01*
X72504367Y-157029534D02*
X55469406Y-164973067D01*
X64560834Y-139994573D02*
X72504367Y-157029534D01*
X47525873Y-147938106D02*
X64560834Y-139994573D01*
G04 #@! TO.C,SX1:8*
X64790253Y-139886306D02*
X81825214Y-131942773D01*
X81825214Y-131942773D02*
X89768747Y-148977734D01*
X89768747Y-148977734D02*
X72733786Y-156921267D01*
X72733786Y-156921267D02*
X64790253Y-139886306D01*
G04 #@! TD*
G04 #@! TO.C,USB_C1*
D11*
X128474342Y-29045780D02*
X128474342Y-28045780D01*
X128474342Y-28521971D02*
X129045771Y-28521971D01*
X129045771Y-29045780D02*
X129045771Y-28045780D01*
X130093390Y-29045780D02*
X129760057Y-28569590D01*
X129521961Y-29045780D02*
X129521961Y-28045780D01*
X129902914Y-28045780D01*
X129998152Y-28093400D01*
X130045771Y-28141019D01*
X130093390Y-28236257D01*
X130093390Y-28379114D01*
X130045771Y-28474352D01*
X129998152Y-28521971D01*
X129902914Y-28569590D01*
X129521961Y-28569590D01*
X130712438Y-28045780D02*
X130902914Y-28045780D01*
X130998152Y-28093400D01*
X131093390Y-28188638D01*
X131141009Y-28379114D01*
X131141009Y-28712447D01*
X131093390Y-28902923D01*
X130998152Y-28998161D01*
X130902914Y-29045780D01*
X130712438Y-29045780D01*
X130617200Y-28998161D01*
X130521961Y-28902923D01*
X130474342Y-28712447D01*
X130474342Y-28379114D01*
X130521961Y-28188638D01*
X130617200Y-28093400D01*
X130712438Y-28045780D01*
X131569580Y-28664828D02*
X132331485Y-28664828D01*
X132664819Y-28045780D02*
X133236247Y-28045780D01*
X132950533Y-29045780D02*
X132950533Y-28045780D01*
X133760057Y-28569590D02*
X133760057Y-29045780D01*
X133426723Y-28045780D02*
X133760057Y-28569590D01*
X134093390Y-28045780D01*
X134426723Y-29045780D02*
X134426723Y-28045780D01*
X134807676Y-28045780D01*
X134902914Y-28093400D01*
X134950533Y-28141019D01*
X134998152Y-28236257D01*
X134998152Y-28379114D01*
X134950533Y-28474352D01*
X134902914Y-28521971D01*
X134807676Y-28569590D01*
X134426723Y-28569590D01*
X135426723Y-28521971D02*
X135760057Y-28521971D01*
X135902914Y-29045780D02*
X135426723Y-29045780D01*
X135426723Y-28045780D01*
X135902914Y-28045780D01*
X136331485Y-28664828D02*
X137093390Y-28664828D01*
X138141009Y-28950542D02*
X138093390Y-28998161D01*
X137950533Y-29045780D01*
X137855295Y-29045780D01*
X137712438Y-28998161D01*
X137617200Y-28902923D01*
X137569580Y-28807685D01*
X137521961Y-28617209D01*
X137521961Y-28474352D01*
X137569580Y-28283876D01*
X137617200Y-28188638D01*
X137712438Y-28093400D01*
X137855295Y-28045780D01*
X137950533Y-28045780D01*
X138093390Y-28093400D01*
X138141009Y-28141019D01*
X138569580Y-28664828D02*
X139331485Y-28664828D01*
X139712438Y-28045780D02*
X140331485Y-28045780D01*
X139998152Y-28426733D01*
X140141009Y-28426733D01*
X140236247Y-28474352D01*
X140283866Y-28521971D01*
X140331485Y-28617209D01*
X140331485Y-28855304D01*
X140283866Y-28950542D01*
X140236247Y-28998161D01*
X140141009Y-29045780D01*
X139855295Y-29045780D01*
X139760057Y-28998161D01*
X139712438Y-28950542D01*
X141283866Y-29045780D02*
X140712438Y-29045780D01*
X140998152Y-29045780D02*
X140998152Y-28045780D01*
X140902914Y-28188638D01*
X140807676Y-28283876D01*
X140712438Y-28331495D01*
X141712438Y-28664828D02*
X142474342Y-28664828D01*
X142950533Y-29045780D02*
X142950533Y-28045780D01*
X143283866Y-28760066D01*
X143617200Y-28045780D01*
X143617200Y-29045780D01*
X144093390Y-28664828D02*
X144855295Y-28664828D01*
X145855295Y-29045780D02*
X145283866Y-29045780D01*
X145569580Y-29045780D02*
X145569580Y-28045780D01*
X145474342Y-28188638D01*
X145379104Y-28283876D01*
X145283866Y-28331495D01*
X146236247Y-28141019D02*
X146283866Y-28093400D01*
X146379104Y-28045780D01*
X146617200Y-28045780D01*
X146712438Y-28093400D01*
X146760057Y-28141019D01*
X146807676Y-28236257D01*
X146807676Y-28331495D01*
X146760057Y-28474352D01*
X146188628Y-29045780D01*
X146807676Y-29045780D01*
G04 #@! TD*
M02*
