<?xml version="1.0" standalone="no"?>
 <!DOCTYPE svg PUBLIC "-//W3C//DTD SVG 1.1//EN" 
 "http://www.w3.org/Graphics/SVG/1.1/DTD/svg11.dtd"> 
<svg xmlns="http://www.w3.org/2000/svg" version="1.1" 
    width="29.7002cm" height="21.0007cm" viewBox="0 0 116930 82680 ">
<title>SVG Picture created as ErgodoxBle-Dwgs.User.svg date 2019/01/26 18:51:10 </title>
  <desc>Picture generated by PCBNEW </desc>
<g style="fill:#000000; fill-opacity:1;stroke:#000000; stroke-opacity:1;
stroke-linecap:round; stroke-linejoin:round; "
 transform="translate(0 0) scale(1 1)">
</g>
<g style="fill:#000000; fill-opacity:0.0; 
stroke:#000000; stroke-width:-0.000393701; stroke-opacity:1; 
stroke-linecap:round; stroke-linejoin:round;">
</g>
<g style="fill:#000000; fill-opacity:0.0; 
stroke:#000000; stroke-width:78.7402; stroke-opacity:1; 
stroke-linecap:round; stroke-linejoin:round;">
<path d="M75120 17940
L75120 15040
" />
<path d="M75120 15040
L77120 15040
" />
<path d="M77120 15040
L77120 17940
" />
<path d="M77120 17940
L75120 17940
" />
</g>
<g style="fill:#000000; fill-opacity:0.0; 
stroke:#000000; stroke-width:59.0551; stroke-opacity:1; 
stroke-linecap:round; stroke-linejoin:round;">
<path d="M55939 14584
L52420 14584
" />
<path d="M52420 11710
L52420 14584
" />
<path d="M55939 11710
L55939 14584
" />
<path d="M55939 11710
L52420 11710
" />
</g>
<g style="fill:#000000; fill-opacity:0.0; 
stroke:#000000; stroke-width:60; stroke-opacity:1; 
stroke-linecap:round; stroke-linejoin:round;">
<path d="M71675 37679
L79075 37679
" />
<path d="M79075 37679
L79075 45079
" />
<path d="M79075 45079
L71675 45079
" />
<path d="M71675 45079
L71675 37679
" />
<path d="M71675 45179
L79075 45179
" />
<path d="M79075 45179
L79075 52579
" />
<path d="M79075 52579
L71675 52579
" />
<path d="M71675 52579
L71675 45179
" />
<path d="M8743 54615
L15450 51487
" />
<path d="M15450 51487
L18578 58194
" />
<path d="M18578 58194
L11871 61322
" />
<path d="M11871 61322
L8743 54615
" />
<path d="M15540 51446
L22247 48318
" />
<path d="M22247 48318
L25375 55025
" />
<path d="M25375 55025
L18668 58153
" />
<path d="M18668 58153
L15540 51446
" />
<path d="M15040 68119
L11912 61412
" />
<path d="M21747 64991
L15040 68119
" />
<path d="M18619 58284
L21747 64991
" />
<path d="M11912 61412
L18619 58284
" />
<path d="M36926 62051
L30219 65179
" />
<path d="M33798 55344
L36926 62051
" />
<path d="M27091 58472
L33798 55344
" />
<path d="M30219 65179
L27091 58472
" />
<path d="M23422 68349
L20294 61642
" />
<path d="M20294 61642
L27001 58514
" />
<path d="M27001 58514
L30129 65221
" />
<path d="M30129 65221
L23422 68349
" />
<path d="M18210 74917
L15082 68210
" />
<path d="M24917 71789
L18210 74917
" />
<path d="M21789 65082
L24917 71789
" />
<path d="M15082 68210
L21789 65082
" />
<path d="M39800 51429
L47200 51429
" />
<path d="M47200 51429
L47200 58829
" />
<path d="M47200 58829
L39800 58829
" />
<path d="M39800 58829
L39800 51429
" />
<path d="M47300 58200
L47300 50800
" />
<path d="M54700 58200
L47300 58200
" />
<path d="M54700 50800
L54700 58200
" />
<path d="M47300 50800
L54700 50800
" />
<path d="M54800 51429
L62200 51429
" />
<path d="M62200 51429
L62200 58829
" />
<path d="M62200 58829
L54800 58829
" />
<path d="M54800 58829
L54800 51429
" />
<path d="M62300 60079
L62300 52679
" />
<path d="M69700 60079
L62300 60079
" />
<path d="M69700 52679
L69700 60079
" />
<path d="M62300 52679
L69700 52679
" />
<path d="M69800 60079
L69800 52679
" />
<path d="M77200 60079
L69800 60079
" />
<path d="M77200 52679
L77200 60079
" />
<path d="M69800 52679
L77200 52679
" />
<path d="M32200 49954
L24800 49954
" />
<path d="M32200 42554
L32200 49954
" />
<path d="M24800 42554
L32200 42554
" />
<path d="M24800 49954
L24800 42554
" />
<path d="M32300 51829
L32300 44429
" />
<path d="M39700 51829
L32300 51829
" />
<path d="M39700 44429
L39700 51829
" />
<path d="M32300 44429
L39700 44429
" />
<path d="M39800 43929
L47200 43929
" />
<path d="M47200 43929
L47200 51329
" />
<path d="M47200 51329
L39800 51329
" />
<path d="M39800 51329
L39800 43929
" />
<path d="M47300 50700
L47300 43300
" />
<path d="M54700 50700
L47300 50700
" />
<path d="M54700 43300
L54700 50700
" />
<path d="M47300 43300
L54700 43300
" />
<path d="M54800 51329
L54800 43929
" />
<path d="M62200 51329
L54800 51329
" />
<path d="M62200 43929
L62200 51329
" />
<path d="M54800 43929
L62200 43929
" />
<path d="M62300 52579
L62300 45179
" />
<path d="M69700 52579
L62300 52579
" />
<path d="M69700 45179
L69700 52579
" />
<path d="M62300 45179
L69700 45179
" />
<path d="M32300 36929
L39700 36929
" />
<path d="M39700 36929
L39700 44329
" />
<path d="M39700 44329
L32300 44329
" />
<path d="M32300 44329
L32300 36929
" />
<path d="M39800 36429
L47200 36429
" />
<path d="M47200 36429
L47200 43829
" />
<path d="M47200 43829
L39800 43829
" />
<path d="M39800 43829
L39800 36429
" />
<path d="M47300 35800
L54700 35800
" />
<path d="M54700 35800
L54700 43200
" />
<path d="M54700 43200
L47300 43200
" />
<path d="M47300 43200
L47300 35800
" />
<path d="M54800 43829
L54800 36429
" />
<path d="M62200 43829
L54800 43829
" />
<path d="M62200 36429
L62200 43829
" />
<path d="M54800 36429
L62200 36429
" />
<path d="M62300 37679
L69700 37679
" />
<path d="M69700 37679
L69700 45079
" />
<path d="M69700 45079
L62300 45079
" />
<path d="M62300 45079
L62300 37679
" />
<path d="M32200 38704
L24800 38704
" />
<path d="M32200 31304
L32200 38704
" />
<path d="M24800 31304
L32200 31304
" />
<path d="M24800 38704
L24800 31304
" />
<path d="M32300 29429
L39700 29429
" />
<path d="M39700 29429
L39700 36829
" />
<path d="M39700 36829
L32300 36829
" />
<path d="M32300 36829
L32300 29429
" />
<path d="M39800 36329
L39800 28929
" />
<path d="M47200 36329
L39800 36329
" />
<path d="M47200 28929
L47200 36329
" />
<path d="M39800 28929
L47200 28929
" />
<path d="M47300 35700
L47300 28300
" />
<path d="M54700 35700
L47300 35700
" />
<path d="M54700 28300
L54700 35700
" />
<path d="M47300 28300
L54700 28300
" />
<path d="M54800 28929
L62200 28929
" />
<path d="M62200 28929
L62200 36329
" />
<path d="M62200 36329
L54800 36329
" />
<path d="M54800 36329
L54800 28929
" />
<path d="M62300 37579
L62300 30179
" />
<path d="M69700 37579
L62300 37579
" />
<path d="M69700 30179
L69700 37579
" />
<path d="M62300 30179
L69700 30179
" />
<path d="M71675 37579
L71675 30179
" />
<path d="M79075 37579
L71675 37579
" />
<path d="M79075 30179
L79075 37579
" />
<path d="M71675 30179
L79075 30179
" />
<path d="M24800 29330
L24800 21930
" />
<path d="M32200 29330
L24800 29330
" />
<path d="M32200 21930
L32200 29330
" />
<path d="M24800 21930
L32200 21930
" />
<path d="M32300 21930
L39700 21930
" />
<path d="M39700 21930
L39700 29330
" />
<path d="M39700 29330
L32300 29330
" />
<path d="M32300 29330
L32300 21930
" />
<path d="M39800 28829
L39800 21429
" />
<path d="M47200 28829
L39800 28829
" />
<path d="M47200 21429
L47200 28829
" />
<path d="M39800 21429
L47200 21429
" />
<path d="M47300 20800
L54700 20800
" />
<path d="M54700 20800
L54700 28200
" />
<path d="M54700 28200
L47300 28200
" />
<path d="M47300 28200
L47300 20800
" />
<path d="M54800 21429
L62200 21429
" />
<path d="M62200 21429
L62200 28829
" />
<path d="M62200 28829
L54800 28829
" />
<path d="M54800 28829
L54800 21429
" />
<path d="M62300 22680
L69700 22680
" />
<path d="M69700 22680
L69700 30080
" />
<path d="M69700 30080
L62300 30080
" />
<path d="M62300 30080
L62300 22680
" />
<path d="M71675 22680
L79075 22680
" />
<path d="M79075 22680
L79075 30080
" />
<path d="M79075 30080
L71675 30080
" />
<path d="M71675 30080
L71675 22680
" />
<path d="M38512 65450
L31805 68578
" />
<path d="M31805 68578
L28677 61871
" />
<path d="M28677 61871
L35384 58743
" />
<path d="M35384 58743
L38512 65450
" />
<path d="M28586 61912
L31714 68619
" />
<path d="M21879 65040
L28586 61912
" />
<path d="M25007 71747
L21879 65040
" />
<path d="M31714 68619
L25007 71747
" />
<path d="M21838 64950
L18710 58243
" />
<path d="M28545 61822
L21838 64950
" />
<path d="M25417 55115
L28545 61822
" />
<path d="M18710 58243
L25417 55115
" />
<path d="M25507 55073
L32214 51945
" />
<path d="M32214 51945
L35342 58652
" />
<path d="M35342 58652
L28635 61780
" />
<path d="M28635 61780
L25507 55073
" />
</g>
<g style="fill:#000000; fill-opacity:0.0; 
stroke:#000000; stroke-width:59.0551; stroke-opacity:1; 
stroke-linecap:round; stroke-linejoin:round;">
<path d="M50580 11435
L50580 11041
" />
<path d="M50580 11229
L50805 11229
" />
<path d="M50805 11435
L50805 11041
" />
<path d="M51217 11435
L51086 11247
" />
<path d="M50992 11435
L50992 11041
L51142 11041
L51180 11060
L51199 11079
L51217 11116
L51217 11172
L51199 11210
L51180 11229
L51142 11247
L50992 11247
" />
<path d="M51461 11041
L51536 11041
L51574 11060
L51611 11097
L51630 11172
L51630 11304
L51611 11379
L51574 11416
L51536 11435
L51461 11435
L51424 11416
L51386 11379
L51367 11304
L51367 11172
L51386 11097
L51424 11060
L51461 11041
" />
<path d="M51799 11285
L52099 11285
" />
<path d="M52230 11041
L52455 11041
" />
<path d="M52342 11435
L52342 11041
" />
<path d="M52661 11247
L52661 11435
" />
<path d="M52530 11041
L52661 11247
L52792 11041
" />
<path d="M52923 11435
L52923 11041
L53073 11041
L53111 11060
L53130 11079
L53148 11116
L53148 11172
L53130 11210
L53111 11229
L53073 11247
L52923 11247
" />
<path d="M53317 11229
L53448 11229
" />
<path d="M53505 11435
L53317 11435
L53317 11041
L53505 11041
" />
<path d="M53673 11285
L53973 11285
" />
<path d="M54386 11397
L54367 11416
L54311 11435
L54273 11435
L54217 11416
L54180 11379
L54161 11341
L54142 11266
L54142 11210
L54161 11135
L54180 11097
L54217 11060
L54273 11041
L54311 11041
L54367 11060
L54386 11079
" />
<path d="M54554 11285
L54854 11285
" />
<path d="M55004 11041
L55248 11041
L55117 11191
L55173 11191
L55211 11210
L55229 11229
L55248 11266
L55248 11360
L55229 11397
L55211 11416
L55173 11435
L55061 11435
L55023 11416
L55004 11397
" />
<path d="M55623 11435
L55398 11435
" />
<path d="M55511 11435
L55511 11041
L55473 11097
L55436 11135
L55398 11154
" />
<path d="M55792 11285
L56092 11285
" />
<path d="M56279 11435
L56279 11041
L56410 11322
L56542 11041
L56542 11435
" />
<path d="M56729 11285
L57029 11285
" />
<path d="M57423 11435
L57198 11435
" />
<path d="M57310 11435
L57310 11041
L57273 11097
L57235 11135
L57198 11154
" />
<path d="M57573 11079
L57592 11060
L57629 11041
L57723 11041
L57760 11060
L57779 11079
L57798 11116
L57798 11154
L57779 11210
L57554 11435
L57798 11435
" />
<path d="M32553 17373
L32553 17655
L32534 17711
L32496 17748
L32440 17767
L32403 17767
" />
<path d="M32646 17805
L32946 17805
" />
<path d="M33021 17655
L33209 17655
" />
<path d="M32984 17767
L33115 17373
L33246 17767
" />
<path d="M33546 17505
L33546 17767
" />
<path d="M33378 17505
L33378 17711
L33396 17748
L33434 17767
L33490 17767
L33528 17748
L33546 17730
" />
<path d="M33903 17767
L33903 17373
" />
<path d="M33903 17748
L33865 17767
L33790 17767
L33753 17748
L33734 17730
L33715 17692
L33715 17580
L33734 17542
L33753 17523
L33790 17505
L33865 17505
L33903 17523
" />
<path d="M34090 17767
L34090 17505
" />
<path d="M34090 17373
L34071 17392
L34090 17411
L34109 17392
L34090 17373
L34090 17411
" />
<path d="M34334 17767
L34296 17748
L34277 17730
L34259 17692
L34259 17580
L34277 17542
L34296 17523
L34334 17505
L34390 17505
L34427 17523
L34446 17542
L34465 17580
L34465 17692
L34446 17730
L34427 17748
L34390 17767
L34334 17767
" />
<path d="M34540 17805
L34840 17805
" />
<path d="M35065 17561
L35121 17580
L35140 17598
L35159 17636
L35159 17692
L35140 17730
L35121 17748
L35084 17767
L34934 17767
L34934 17373
L35065 17373
L35102 17392
L35121 17411
L35140 17448
L35140 17486
L35121 17523
L35102 17542
L35065 17561
L34934 17561
" />
<path d="M35534 17767
L35309 17767
" />
<path d="M35421 17767
L35421 17373
L35384 17430
L35346 17467
L35309 17486
" />
<path d="M32581 17372
L32581 17654
L32562 17710
L32525 17747
L32468 17766
L32431 17766
" />
<path d="M32675 17804
L32975 17804
" />
<path d="M33049 17654
L33237 17654
" />
<path d="M33012 17766
L33143 17372
L33274 17766
" />
<path d="M33574 17504
L33574 17766
" />
<path d="M33406 17504
L33406 17710
L33424 17747
L33462 17766
L33518 17766
L33556 17747
L33574 17729
" />
<path d="M33931 17766
L33931 17372
" />
<path d="M33931 17747
L33893 17766
L33818 17766
L33781 17747
L33762 17729
L33743 17691
L33743 17579
L33762 17541
L33781 17522
L33818 17504
L33893 17504
L33931 17522
" />
<path d="M34118 17766
L34118 17504
" />
<path d="M34118 17372
L34099 17391
L34118 17410
L34137 17391
L34118 17372
L34118 17410
" />
<path d="M34362 17766
L34324 17747
L34306 17729
L34287 17691
L34287 17579
L34306 17541
L34324 17522
L34362 17504
L34418 17504
L34456 17522
L34474 17541
L34493 17579
L34493 17691
L34474 17729
L34456 17747
L34418 17766
L34362 17766
" />
<path d="M34568 17804
L34868 17804
" />
<path d="M35093 17560
L34962 17560
" />
<path d="M34962 17766
L34962 17372
L35149 17372
" />
<path d="M35505 17766
L35280 17766
" />
<path d="M35393 17766
L35393 17372
L35355 17429
L35318 17466
L35280 17485
" />
</g> 
</svg>
