<?xml version="1.0" standalone="no"?>
 <!DOCTYPE svg PUBLIC "-//W3C//DTD SVG 1.1//EN" 
 "http://www.w3.org/Graphics/SVG/1.1/DTD/svg11.dtd"> 
<svg xmlns="http://www.w3.org/2000/svg" version="1.1" 
    width="29.7002cm" height="21.0007cm" viewBox="0 0 116930 82680 ">
<title>SVG Picture created as ErgodoxBle-Eco2.User.svg date 2019/01/26 18:51:10 </title>
  <desc>Picture generated by PCBNEW </desc>
<g style="fill:#000000; fill-opacity:1;stroke:#000000; stroke-opacity:1;
stroke-linecap:round; stroke-linejoin:round; "
 transform="translate(0 0) scale(1 1)">
</g>
<g style="fill:#000000; fill-opacity:0.0; 
stroke:#000000; stroke-width:-0.000393701; stroke-opacity:1; 
stroke-linecap:round; stroke-linejoin:round;">
</g>
<g style="fill:#000000; fill-opacity:0.0; 
stroke:#000000; stroke-width:60; stroke-opacity:1; 
stroke-linecap:round; stroke-linejoin:round;">
<path d="M72625 38629
L78125 38629
" />
<path d="M78125 38629
L78125 44129
" />
<path d="M78125 44129
L72625 44129
" />
<path d="M72625 44129
L72625 38629
" />
<path d="M72625 46129
L78125 46129
" />
<path d="M78125 46129
L78125 51629
" />
<path d="M78125 51629
L72625 51629
" />
<path d="M72625 51629
L72625 46129
" />
<path d="M10006 55074
L14991 52750
" />
<path d="M14991 52750
L17315 57735
" />
<path d="M17315 57735
L12330 60059
" />
<path d="M12330 60059
L10006 55074
" />
<path d="M16803 51905
L21788 49581
" />
<path d="M21788 49581
L24112 54566
" />
<path d="M24112 54566
L19127 56890
" />
<path d="M19127 56890
L16803 51905
" />
<path d="M15499 66856
L13175 61871
" />
<path d="M20484 64532
L15499 66856
" />
<path d="M18160 59547
L20484 64532
" />
<path d="M13175 61871
L18160 59547
" />
<path d="M35663 61592
L30678 63916
" />
<path d="M33339 56607
L35663 61592
" />
<path d="M28354 58931
L33339 56607
" />
<path d="M30678 63916
L28354 58931
" />
<path d="M23881 67086
L21557 62101
" />
<path d="M21557 62101
L26542 59777
" />
<path d="M26542 59777
L28866 64762
" />
<path d="M28866 64762
L23881 67086
" />
<path d="M18669 73654
L16345 68669
" />
<path d="M23654 71330
L18669 73654
" />
<path d="M21330 66345
L23654 71330
" />
<path d="M16345 68669
L21330 66345
" />
<path d="M40750 52379
L46250 52379
" />
<path d="M46250 52379
L46250 57879
" />
<path d="M46250 57879
L40750 57879
" />
<path d="M40750 57879
L40750 52379
" />
<path d="M48250 57250
L48250 51750
" />
<path d="M53750 57250
L48250 57250
" />
<path d="M53750 51750
L53750 57250
" />
<path d="M48250 51750
L53750 51750
" />
<path d="M55750 52379
L61250 52379
" />
<path d="M61250 52379
L61250 57879
" />
<path d="M61250 57879
L55750 57879
" />
<path d="M55750 57879
L55750 52379
" />
<path d="M63250 59129
L63250 53629
" />
<path d="M68750 59129
L63250 59129
" />
<path d="M68750 53629
L68750 59129
" />
<path d="M63250 53629
L68750 53629
" />
<path d="M70750 59129
L70750 53629
" />
<path d="M76250 59129
L70750 59129
" />
<path d="M76250 53629
L76250 59129
" />
<path d="M70750 53629
L76250 53629
" />
<path d="M31250 49004
L25750 49004
" />
<path d="M31250 43504
L31250 49004
" />
<path d="M25750 43504
L31250 43504
" />
<path d="M25750 49004
L25750 43504
" />
<path d="M33250 50879
L33250 45379
" />
<path d="M38750 50879
L33250 50879
" />
<path d="M38750 45379
L38750 50879
" />
<path d="M33250 45379
L38750 45379
" />
<path d="M40750 44879
L46250 44879
" />
<path d="M46250 44879
L46250 50379
" />
<path d="M46250 50379
L40750 50379
" />
<path d="M40750 50379
L40750 44879
" />
<path d="M48250 49750
L48250 44250
" />
<path d="M53750 49750
L48250 49750
" />
<path d="M53750 44250
L53750 49750
" />
<path d="M48250 44250
L53750 44250
" />
<path d="M55750 50379
L55750 44879
" />
<path d="M61250 50379
L55750 50379
" />
<path d="M61250 44879
L61250 50379
" />
<path d="M55750 44879
L61250 44879
" />
<path d="M63250 51629
L63250 46129
" />
<path d="M68750 51629
L63250 51629
" />
<path d="M68750 46129
L68750 51629
" />
<path d="M63250 46129
L68750 46129
" />
<path d="M33250 37879
L38750 37879
" />
<path d="M38750 37879
L38750 43379
" />
<path d="M38750 43379
L33250 43379
" />
<path d="M33250 43379
L33250 37879
" />
<path d="M40750 37379
L46250 37379
" />
<path d="M46250 37379
L46250 42879
" />
<path d="M46250 42879
L40750 42879
" />
<path d="M40750 42879
L40750 37379
" />
<path d="M48250 36750
L53750 36750
" />
<path d="M53750 36750
L53750 42250
" />
<path d="M53750 42250
L48250 42250
" />
<path d="M48250 42250
L48250 36750
" />
<path d="M55750 42879
L55750 37379
" />
<path d="M61250 42879
L55750 42879
" />
<path d="M61250 37379
L61250 42879
" />
<path d="M55750 37379
L61250 37379
" />
<path d="M63250 38629
L68750 38629
" />
<path d="M68750 38629
L68750 44129
" />
<path d="M68750 44129
L63250 44129
" />
<path d="M63250 44129
L63250 38629
" />
<path d="M31250 37754
L25750 37754
" />
<path d="M31250 32254
L31250 37754
" />
<path d="M25750 32254
L31250 32254
" />
<path d="M25750 37754
L25750 32254
" />
<path d="M33250 30379
L38750 30379
" />
<path d="M38750 30379
L38750 35879
" />
<path d="M38750 35879
L33250 35879
" />
<path d="M33250 35879
L33250 30379
" />
<path d="M40750 35379
L40750 29879
" />
<path d="M46250 35379
L40750 35379
" />
<path d="M46250 29879
L46250 35379
" />
<path d="M40750 29879
L46250 29879
" />
<path d="M48250 34750
L48250 29250
" />
<path d="M53750 34750
L48250 34750
" />
<path d="M53750 29250
L53750 34750
" />
<path d="M48250 29250
L53750 29250
" />
<path d="M55750 29879
L61250 29879
" />
<path d="M61250 29879
L61250 35379
" />
<path d="M61250 35379
L55750 35379
" />
<path d="M55750 35379
L55750 29879
" />
<path d="M63250 36629
L63250 31129
" />
<path d="M68750 36629
L63250 36629
" />
<path d="M68750 31129
L68750 36629
" />
<path d="M63250 31129
L68750 31129
" />
<path d="M72625 36629
L72625 31129
" />
<path d="M78125 36629
L72625 36629
" />
<path d="M78125 31129
L78125 36629
" />
<path d="M72625 31129
L78125 31129
" />
<path d="M25750 28380
L25750 22880
" />
<path d="M31250 28380
L25750 28380
" />
<path d="M31250 22880
L31250 28380
" />
<path d="M25750 22880
L31250 22880
" />
<path d="M33250 22880
L38750 22880
" />
<path d="M38750 22880
L38750 28380
" />
<path d="M38750 28380
L33250 28380
" />
<path d="M33250 28380
L33250 22880
" />
<path d="M40750 27879
L40750 22379
" />
<path d="M46250 27879
L40750 27879
" />
<path d="M46250 22379
L46250 27879
" />
<path d="M40750 22379
L46250 22379
" />
<path d="M48250 21750
L53750 21750
" />
<path d="M53750 21750
L53750 27250
" />
<path d="M53750 27250
L48250 27250
" />
<path d="M48250 27250
L48250 21750
" />
<path d="M55750 22379
L61250 22379
" />
<path d="M61250 22379
L61250 27879
" />
<path d="M61250 27879
L55750 27879
" />
<path d="M55750 27879
L55750 22379
" />
<path d="M63250 23630
L68750 23630
" />
<path d="M68750 23630
L68750 29130
" />
<path d="M68750 29130
L63250 29130
" />
<path d="M63250 29130
L63250 23630
" />
<path d="M72625 23630
L78125 23630
" />
<path d="M78125 23630
L78125 29130
" />
<path d="M78125 29130
L72625 29130
" />
<path d="M72625 29130
L72625 23630
" />
<path d="M37249 64991
L32264 67315
" />
<path d="M32264 67315
L29940 62330
" />
<path d="M29940 62330
L34925 60006
" />
<path d="M34925 60006
L37249 64991
" />
<path d="M28127 63175
L30451 68160
" />
<path d="M23142 65499
L28127 63175
" />
<path d="M25466 70484
L23142 65499
" />
<path d="M30451 68160
L25466 70484
" />
<path d="M22297 63687
L19973 58702
" />
<path d="M27282 61363
L22297 63687
" />
<path d="M24958 56378
L27282 61363
" />
<path d="M19973 58702
L24958 56378
" />
<path d="M26770 55532
L31755 53208
" />
<path d="M31755 53208
L34079 58193
" />
<path d="M34079 58193
L29094 60517
" />
<path d="M29094 60517
L26770 55532
" />
</g> 
</svg>
