<?xml version="1.0" standalone="no"?>
 <!DOCTYPE svg PUBLIC "-//W3C//DTD SVG 1.1//EN" 
 "http://www.w3.org/Graphics/SVG/1.1/DTD/svg11.dtd"> 
<svg xmlns="http://www.w3.org/2000/svg" version="1.1" 
    width="29.7002cm" height="21.0007cm" viewBox="0 0 116930 82680 ">
<title>SVG Picture created as ErgodoxBle-B.SilkS.svg date 2019/01/26 18:51:10 </title>
  <desc>Picture generated by PCBNEW </desc>
<g style="fill:#000000; fill-opacity:1;stroke:#000000; stroke-opacity:1;
stroke-linecap:round; stroke-linejoin:round; "
 transform="translate(0 0) scale(1 1)">
</g>
<g style="fill:#000000; fill-opacity:0.0; 
stroke:#000000; stroke-width:-0.000393701; stroke-opacity:1; 
stroke-linecap:round; stroke-linejoin:round;">
</g>
<g style="fill:#000000; fill-opacity:0.0; 
stroke:#000000; stroke-width:120; stroke-opacity:1; 
stroke-linecap:round; stroke-linejoin:round;">
<path d="M79036 14270
L78236 14270
L78236 14413
L78275 14499
L78351 14556
L78427 14584
L78579 14613
L78694 14613
L78846 14584
L78922 14556
L78998 14499
L79036 14413
L79036 14270
" />
<path d="M78732 14870
L78732 15327
" />
<path d="M79017 15868
L78217 15868
L78217 16011
L78256 16097
L78332 16154
L78408 16182
L78560 16211
L78675 16211
L78827 16182
L78903 16154
L78979 16097
L79017 16011
L79017 15868
" />
<path d="M78713 16468
L78713 16925
" />
<path d="M79017 16697
L78408 16697
" />
</g>
<g style="fill:#000000; fill-opacity:0.0; 
stroke:#000000; stroke-width:200; stroke-opacity:1; 
stroke-linecap:round; stroke-linejoin:round;">
<path d="M29905 39292
L30381 39292
L30381 38092
" />
<path d="M29572 38664
L29239 38664
" />
<path d="M29096 39292
L29572 39292
L29572 38092
L29096 38092
" />
<path d="M28334 38664
L28667 38664
" />
<path d="M28667 39292
L28667 38092
L28191 38092
" />
<path d="M27953 38092
L27381 38092
" />
<path d="M27667 39292
L27667 38092
" />
<path d="M30381 41292
L30381 40092
" />
<path d="M30381 40664
L29810 40664
" />
<path d="M29810 41292
L29810 40092
" />
<path d="M29381 40950
L28905 40950
" />
<path d="M29477 41292
L29143 40092
L28810 41292
" />
<path d="M28477 41292
L28477 40092
L27905 41292
L27905 40092
" />
<path d="M27429 41292
L27429 40092
L27191 40092
L27048 40150
L26953 40264
L26905 40378
L26858 40607
L26858 40778
L26905 41007
L26953 41121
L27048 41235
L27191 41292
L27429 41292
" />
</g>
<g style="fill:#000000; fill-opacity:0.0; 
stroke:#000000; stroke-width:120; stroke-opacity:1; 
stroke-linecap:round; stroke-linejoin:round;">
<path d="M75079 20782
L75279 20782
" />
<path d="M75279 21201
L75279 20401
L74993 20401
" />
<path d="M74422 21201
L74622 20820
" />
<path d="M74764 21201
L74764 20401
L74536 20401
L74479 20440
L74450 20478
L74422 20554
L74422 20668
L74450 20744
L74479 20782
L74536 20820
L74764 20820
" />
<path d="M73907 20668
L73907 21201
" />
<path d="M74050 20363
L74193 20935
L73822 20935
" />
<path d="M73222 20401
L72879 20401
" />
<path d="M73050 21201
L73050 20401
" />
<path d="M72422 20668
L72422 21316
L72450 21392
L72479 21430
L72536 21468
L72622 21468
L72679 21430
" />
<path d="M72422 21163
L72479 21201
L72593 21201
L72650 21163
L72679 21125
L72707 21049
L72707 20820
L72679 20744
L72650 20706
L72593 20668
L72479 20668
L72422 20706
" />
<path d="M71822 21201
L72164 21201
" />
<path d="M71993 21201
L71993 20401
L72050 20516
L72107 20592
L72164 20630
" />
<path d="M71622 20401
L71222 20401
L71479 21201
" />
<path d="M70879 20401
L70822 20401
L70764 20440
L70736 20478
L70707 20554
L70679 20706
L70679 20897
L70707 21049
L70736 21125
L70764 21163
L70822 21201
L70879 21201
L70936 21163
L70964 21125
L70993 21049
L71022 20897
L71022 20706
L70993 20554
L70964 20478
L70936 20440
L70879 20401
" />
<path d="M70336 20401
L70393 20440
L70422 20516
L70393 20592
L70336 20630
L70279 20592
L70250 20516
L70279 20440
L70336 20401
" />
<path d="M69222 21201
L69507 21201
L69507 20401
" />
<path d="M68764 21201
L68764 20782
L68793 20706
L68850 20668
L68964 20668
L69022 20706
" />
<path d="M68764 21163
L68822 21201
L68964 21201
L69022 21163
L69050 21087
L69050 21011
L69022 20935
L68964 20897
L68822 20897
L68764 20859
" />
<path d="M68479 21201
L68479 20668
" />
<path d="M68479 20744
L68450 20706
L68393 20668
L68307 20668
L68250 20706
L68222 20782
L68222 21201
" />
<path d="M68222 20782
L68193 20706
L68136 20668
L68050 20668
L67993 20706
L67964 20782
L67964 21201
" />
<path d="M67679 21201
L67679 20668
" />
<path d="M67679 20401
L67707 20440
L67679 20478
L67650 20440
L67679 20401
L67679 20478
" />
<path d="M67393 20668
L67393 21201
" />
<path d="M67393 20744
L67364 20706
L67307 20668
L67222 20668
L67164 20706
L67136 20782
L67136 21201
" />
<path d="M66593 21201
L66593 20782
L66622 20706
L66679 20668
L66793 20668
L66850 20706
" />
<path d="M66593 21163
L66650 21201
L66793 21201
L66850 21163
L66879 21087
L66879 21011
L66850 20935
L66793 20897
L66650 20897
L66593 20859
" />
<path d="M66393 20668
L66164 20668
" />
<path d="M66307 20401
L66307 21087
L66279 21163
L66222 21201
L66164 21201
" />
<path d="M65736 21163
L65793 21201
L65907 21201
L65964 21163
L65993 21087
L65993 20782
L65964 20706
L65907 20668
L65793 20668
L65736 20706
L65707 20782
L65707 20859
L65993 20935
" />
<path d="M75307 21798
L75279 21760
L75222 21721
L75079 21721
L75022 21760
L74993 21798
L74964 21874
L74964 21950
L74993 22064
L75336 22521
L74964 22521
" />
<path d="M74450 21988
L74450 22521
" />
<path d="M74593 21683
L74736 22255
L74364 22255
" />
<path d="M74136 22521
L74136 21988
" />
<path d="M74136 22064
L74107 22026
L74050 21988
L73964 21988
L73907 22026
L73879 22102
L73879 22521
" />
<path d="M73879 22102
L73850 22026
L73793 21988
L73707 21988
L73650 22026
L73622 22102
L73622 22521
" />
<path d="M73336 22521
L73336 21988
" />
<path d="M73336 21721
L73364 21760
L73336 21798
L73307 21760
L73336 21721
L73336 21798
" />
<path d="M72964 22521
L73022 22483
L73050 22407
L73050 21721
" />
<path d="M72364 21988
L72136 21988
" />
<path d="M72279 21721
L72279 22407
L72250 22483
L72193 22521
L72136 22521
" />
<path d="M71936 22521
L71936 21988
" />
<path d="M71936 22140
L71907 22064
L71879 22026
L71822 21988
L71764 21988
" />
<path d="M71307 22521
L71307 22102
L71336 22026
L71393 21988
L71507 21988
L71564 22026
" />
<path d="M71307 22483
L71364 22521
L71507 22521
L71564 22483
L71593 22407
L71593 22331
L71564 22255
L71507 22217
L71364 22217
L71307 22179
" />
<path d="M70764 22483
L70822 22521
L70936 22521
L70993 22483
L71022 22445
L71050 22369
L71050 22140
L71022 22064
L70993 22026
L70936 21988
L70822 21988
L70764 22026
" />
<path d="M70279 22483
L70336 22521
L70450 22521
L70507 22483
L70536 22407
L70536 22102
L70507 22026
L70450 21988
L70336 21988
L70279 22026
L70250 22102
L70250 22179
L70536 22255
" />
<path d="M70022 22483
L69964 22521
L69850 22521
L69793 22483
L69764 22407
L69764 22369
L69793 22293
L69850 22255
L69936 22255
L69993 22217
L70022 22140
L70022 22102
L69993 22026
L69936 21988
L69850 21988
L69793 22026
" />
<path d="M68964 22521
L69022 22483
L69050 22445
L69079 22369
L69079 22140
L69050 22064
L69022 22026
L68964 21988
L68879 21988
L68822 22026
L68793 22064
L68764 22140
L68764 22369
L68793 22445
L68822 22483
L68879 22521
L68964 22521
" />
<path d="M68507 21988
L68507 22521
" />
<path d="M68507 22064
L68479 22026
L68422 21988
L68336 21988
L68279 22026
L68250 22102
L68250 22521
" />
<path d="M67193 22521
L67536 22521
" />
<path d="M67364 22521
L67364 21721
L67422 21836
L67479 21912
L67536 21950
" />
<path d="M66850 22521
L66907 22483
L66936 22445
L66964 22369
L66964 22140
L66936 22064
L66907 22026
L66850 21988
L66764 21988
L66707 22026
L66679 22064
L66650 22140
L66650 22369
L66679 22445
L66707 22483
L66764 22521
L66850 22521
" />
<path d="M66450 21988
L66136 21988
L66450 22521
L66136 22521
" />
<path d="M65193 22483
L65250 22521
L65364 22521
L65422 22483
L65450 22445
L65479 22369
L65479 22140
L65450 22064
L65422 22026
L65364 21988
L65250 21988
L65193 22026
" />
<path d="M64850 22521
L64907 22483
L64936 22445
L64964 22369
L64964 22140
L64936 22064
L64907 22026
L64850 21988
L64764 21988
L64707 22026
L64679 22064
L64650 22140
L64650 22369
L64679 22445
L64707 22483
L64764 22521
L64850 22521
" />
<path d="M64393 21988
L64393 22788
" />
<path d="M64393 22026
L64336 21988
L64222 21988
L64164 22026
L64136 22064
L64107 22140
L64107 22369
L64136 22445
L64164 22483
L64222 22521
L64336 22521
L64393 22483
" />
<path d="M63850 21988
L63850 22788
" />
<path d="M63850 22026
L63793 21988
L63679 21988
L63622 22026
L63593 22064
L63564 22140
L63564 22369
L63593 22445
L63622 22483
L63679 22521
L63793 22521
L63850 22483
" />
<path d="M63079 22483
L63136 22521
L63250 22521
L63307 22483
L63336 22407
L63336 22102
L63307 22026
L63250 21988
L63136 21988
L63079 22026
L63050 22102
L63050 22179
L63336 22255
" />
<path d="M62793 22521
L62793 21988
" />
<path d="M62793 22140
L62764 22064
L62736 22026
L62679 21988
L62622 21988
" />
</g>
<g style="fill:#000000; fill-opacity:0.0; 
stroke:#000000; stroke-width:150; stroke-opacity:1; 
stroke-linecap:round; stroke-linejoin:round;">
<path d="M74520 14040
L74520 13040
" />
<path d="M75520 14040
L74520 14040
" />
</g>
<g style="fill:#000000; fill-opacity:1.0; 
stroke:#000000; stroke-width:59.0551; stroke-opacity:1; 
stroke-linecap:round; stroke-linejoin:round;">
<polyline style="fill-rule:evenodd;"
points="73044,18919
73004,18919
73004,18959
73044,18959
73044,18919
" /> 
<polyline style="fill-rule:evenodd;"
points="73201,18998
72886,18998
72886,19037
73201,19037
73201,18998
" /> 
<polyline style="fill-rule:evenodd;"
points="72965,18841
72886,18841
72886,18880
72965,18880
72965,18841
" /> 
<polyline style="fill-rule:evenodd;"
points="73201,18841
73083,18841
73083,18880
73201,18880
73201,18841
" /> 
<polyline style="fill-rule:evenodd;"
points="73201,18841
73162,18841
73162,19037
73201,19037
73201,18841
" /> 
</g>
<g style="fill:#000000; fill-opacity:1.0; 
stroke:#000000; stroke-width:150; stroke-opacity:1; 
stroke-linecap:round; stroke-linejoin:round;">
</g>
<g style="fill:#000000; fill-opacity:0.0; 
stroke:#000000; stroke-width:150; stroke-opacity:1; 
stroke-linecap:round; stroke-linejoin:round;">
<path d="M63520 20040
L76520 20040
" />
<path d="M63520 13040
L63520 20040
" />
<path d="M76520 13040
L63520 13040
" />
<path d="M76520 20040
L76520 13040
" />
<path d="M75520 14040
L75520 13040
" />
</g>
<g style="fill:#000000; fill-opacity:0.0; 
stroke:#000000; stroke-width:47.2441; stroke-opacity:1; 
stroke-linecap:round; stroke-linejoin:round;">
<path d="M48344 18316
L48344 17820
" />
<path d="M48344 15631
L48344 16127
" />
<path d="M49824 18316
L48344 18316
" />
<path d="M50710 15631
L48344 15631
" />
</g>
<g style="fill:#000000; fill-opacity:0.0; 
stroke:#000000; stroke-width:59.0551; stroke-opacity:1; 
stroke-linecap:round; stroke-linejoin:round;">
<path d="M32777 11998
L35178 11998
" />
<path d="M32777 16761
L35178 16761
" />
<path d="M32777 11998
L32777 16761
" />
<path d="M35178 11998
L35178 16761
" />
<path d="M32875 11998
L32875 11210
" />
<path d="M35080 11998
L35080 11210
" />
<path d="M32875 11210
L35080 11210
" />
<path d="M74162 14157
L73847 14157
L73847 14232
L73862 14277
L73892 14307
L73922 14322
L73982 14337
L74027 14337
L74087 14322
L74117 14307
L74147 14277
L74162 14232
L74162 14157
" />
<path d="M73877 14457
L73862 14472
L73847 14502
L73847 14577
L73862 14607
L73877 14622
L73907 14637
L73937 14637
L73982 14622
L74162 14442
L74162 14637
" />
<path d="M70162 14157
L69847 14157
L69847 14232
L69862 14277
L69892 14307
L69922 14322
L69982 14337
L70027 14337
L70087 14322
L70117 14307
L70147 14277
L70162 14232
L70162 14157
" />
<path d="M69847 14532
L69847 14562
L69862 14592
L69877 14607
L69907 14622
L69967 14637
L70042 14637
L70102 14622
L70132 14607
L70147 14592
L70162 14562
L70162 14532
L70147 14502
L70132 14487
L70102 14472
L70042 14457
L69967 14457
L69907 14472
L69877 14487
L69862 14502
L69847 14532
" />
<path d="M71162 14157
L70847 14157
L70847 14232
L70862 14277
L70892 14307
L70922 14322
L70982 14337
L71027 14337
L71087 14322
L71117 14307
L71147 14277
L71162 14232
L71162 14157
" />
<path d="M71162 14637
L71162 14457
" />
<path d="M71162 14547
L70847 14547
L70892 14517
L70922 14487
L70937 14457
" />
<path d="M71862 14150
L71847 14120
L71847 14075
L71862 14030
L71892 14000
L71922 13985
L71982 13970
L72027 13970
L72087 13985
L72117 14000
L72147 14030
L72162 14075
L72162 14105
L72147 14150
L72132 14165
L72027 14165
L72027 14105
" />
<path d="M72162 14300
L71847 14300
L72162 14479
L71847 14479
" />
<path d="M72162 14629
L71847 14629
L71847 14704
L71862 14749
L71892 14779
L71922 14794
L71982 14809
L72027 14809
L72087 14794
L72117 14779
L72147 14749
L72162 14704
L72162 14629
" />
<path d="M72862 14150
L72847 14120
L72847 14075
L72862 14030
L72892 14000
L72922 13985
L72982 13970
L73027 13970
L73087 13985
L73117 14000
L73147 14030
L73162 14075
L73162 14105
L73147 14150
L73132 14165
L73027 14165
L73027 14105
" />
<path d="M73162 14300
L72847 14300
L73162 14479
L72847 14479
" />
<path d="M73162 14629
L72847 14629
L72847 14704
L72862 14749
L72892 14779
L72922 14794
L72982 14809
L73027 14809
L73087 14794
L73117 14779
L73147 14749
L73162 14704
L73162 14629
" />
<path d="M69162 14157
L68847 14157
L68847 14232
L68862 14277
L68892 14307
L68922 14322
L68982 14337
L69027 14337
L69087 14322
L69117 14307
L69147 14277
L69162 14232
L69162 14157
" />
<path d="M68952 14607
L69162 14607
" />
<path d="M68832 14532
L69057 14457
L69057 14652
" />
<path d="M68132 14337
L68147 14322
L68162 14277
L68162 14247
L68147 14202
L68117 14172
L68087 14157
L68027 14142
L67982 14142
L67922 14157
L67892 14172
L67862 14202
L67847 14247
L67847 14277
L67862 14322
L67877 14337
" />
<path d="M67847 14607
L67847 14547
L67862 14517
L67877 14502
L67922 14472
L67982 14457
L68102 14457
L68132 14472
L68147 14487
L68162 14517
L68162 14577
L68147 14607
L68132 14622
L68102 14637
L68027 14637
L67997 14622
L67982 14607
L67967 14577
L67967 14517
L67982 14487
L67997 14472
L68027 14457
" />
<path d="M67162 14157
L66847 14157
L66847 14232
L66862 14277
L66892 14307
L66922 14322
L66982 14337
L67027 14337
L67087 14322
L67117 14307
L67147 14277
L67162 14232
L67162 14157
" />
<path d="M66847 14442
L66847 14652
L67162 14517
" />
<path d="M65997 14172
L65997 14277
" />
<path d="M66162 14322
L66162 14172
L65847 14172
L65847 14322
" />
<path d="M65847 14592
L65847 14532
L65862 14502
L65877 14487
L65922 14457
L65982 14442
L66102 14442
L66132 14457
L66147 14472
L66162 14502
L66162 14562
L66147 14592
L66132 14607
L66102 14622
L66027 14622
L65997 14607
L65982 14592
L65967 14562
L65967 14502
L65982 14472
L65997 14457
L66027 14442
" />
<path d="M64997 14262
L65012 14307
L65027 14322
L65057 14337
L65102 14337
L65132 14322
L65147 14307
L65162 14277
L65162 14157
L64847 14157
L64847 14262
L64862 14292
L64877 14307
L64907 14322
L64937 14322
L64967 14307
L64982 14292
L64997 14262
L64997 14157
" />
<path d="M64952 14607
L65162 14607
" />
<path d="M64832 14532
L65057 14457
L65057 14652
" />
<path d="M63997 14262
L64012 14307
L64027 14322
L64057 14337
L64102 14337
L64132 14322
L64147 14307
L64162 14277
L64162 14157
L63847 14157
L63847 14262
L63862 14292
L63877 14307
L63907 14322
L63937 14322
L63967 14307
L63982 14292
L63997 14262
L63997 14157
" />
<path d="M63847 14622
L63847 14472
L63997 14457
L63982 14472
L63967 14502
L63967 14577
L63982 14607
L63997 14622
L64027 14637
L64102 14637
L64132 14622
L64147 14607
L64162 14577
L64162 14502
L64147 14472
L64132 14457
" />
<path d="M63997 18562
L64012 18607
L64027 18622
L64057 18637
L64102 18637
L64132 18622
L64147 18607
L64162 18577
L64162 18457
L63847 18457
L63847 18562
L63862 18592
L63877 18607
L63907 18622
L63937 18622
L63967 18607
L63982 18592
L63997 18562
L63997 18457
" />
<path d="M63847 18907
L63847 18847
L63862 18817
L63877 18802
L63922 18772
L63982 18757
L64102 18757
L64132 18772
L64147 18787
L64162 18817
L64162 18877
L64147 18907
L64132 18922
L64102 18937
L64027 18937
L63997 18922
L63982 18907
L63967 18877
L63967 18817
L63982 18787
L63997 18772
L64027 18757
" />
<path d="M65997 18562
L66012 18607
L66027 18622
L66057 18637
L66102 18637
L66132 18622
L66147 18607
L66162 18577
L66162 18457
L65847 18457
L65847 18562
L65862 18592
L65877 18607
L65907 18622
L65937 18622
L65967 18607
L65982 18592
L65997 18562
L65997 18457
" />
<path d="M65847 18742
L65847 18937
L65967 18832
L65967 18877
L65982 18907
L65997 18922
L66027 18937
L66102 18937
L66132 18922
L66147 18907
L66162 18877
L66162 18787
L66147 18757
L66132 18742
" />
<path d="M66997 18562
L67012 18607
L67027 18622
L67057 18637
L67102 18637
L67132 18622
L67147 18607
L67162 18577
L67162 18457
L66847 18457
L66847 18562
L66862 18592
L66877 18607
L66907 18622
L66937 18622
L66967 18607
L66982 18592
L66997 18562
L66997 18457
" />
<path d="M67162 18937
L67162 18757
" />
<path d="M67162 18847
L66847 18847
L66892 18817
L66922 18787
L66937 18757
" />
<path d="M70997 18585
L70997 18480
" />
<path d="M71162 18480
L70847 18480
L70847 18630
" />
<path d="M70952 18884
L71162 18884
" />
<path d="M70832 18809
L71057 18734
L71057 18929
" />
<path d="M71847 18270
L72162 18375
L71847 18480
" />
<path d="M72132 18764
L72147 18749
L72162 18704
L72162 18675
L72147 18630
L72117 18600
L72087 18585
L72027 18570
L71982 18570
L71922 18585
L71892 18600
L71862 18630
L71847 18675
L71847 18704
L71862 18749
L71877 18764
" />
<path d="M72132 19079
L72147 19064
L72162 19019
L72162 18989
L72147 18944
L72117 18914
L72087 18899
L72027 18884
L71982 18884
L71922 18899
L71892 18914
L71862 18944
L71847 18989
L71847 19019
L71862 19064
L71877 19079
" />
<path d="M73862 18450
L73847 18420
L73847 18375
L73862 18330
L73892 18300
L73922 18285
L73982 18270
L74027 18270
L74087 18285
L74117 18300
L74147 18330
L74162 18375
L74162 18405
L74147 18450
L74132 18465
L74027 18465
L74027 18405
" />
<path d="M74162 18600
L73847 18600
L74162 18779
L73847 18779
" />
<path d="M74162 18929
L73847 18929
L73847 19004
L73862 19049
L73892 19079
L73922 19094
L73982 19109
L74027 19109
L74087 19094
L74117 19079
L74147 19049
L74162 19004
L74162 18929
" />
<path d="M75162 18472
L75012 18367
" />
<path d="M75162 18292
L74847 18292
L74847 18412
L74862 18442
L74877 18457
L74907 18472
L74952 18472
L74982 18457
L74997 18442
L75012 18412
L75012 18292
" />
<path d="M75072 18592
L75072 18742
" />
<path d="M75162 18562
L74847 18667
L75162 18772
" />
<path d="M74847 18847
L75162 18922
L74937 18982
L75162 19042
L74847 19117
" />
<path d="M69997 18585
L69997 18480
" />
<path d="M70162 18480
L69847 18480
L69847 18630
" />
<path d="M69847 18899
L69847 18749
L69997 18734
L69982 18749
L69967 18779
L69967 18854
L69982 18884
L69997 18899
L70027 18914
L70102 18914
L70132 18899
L70147 18884
L70162 18854
L70162 18779
L70147 18749
L70132 18734
" />
<path d="M68997 18585
L68997 18480
" />
<path d="M69162 18480
L68847 18480
L68847 18630
" />
<path d="M68847 18884
L68847 18824
L68862 18794
L68877 18779
L68922 18749
L68982 18734
L69102 18734
L69132 18749
L69147 18764
L69162 18794
L69162 18854
L69147 18884
L69132 18899
L69102 18914
L69027 18914
L68997 18899
L68982 18884
L68967 18854
L68967 18794
L68982 18764
L68997 18749
L69027 18734
" />
<path d="M67997 18585
L67997 18480
" />
<path d="M68162 18480
L67847 18480
L67847 18630
" />
<path d="M67847 18719
L67847 18929
L68162 18794
" />
<path d="M64997 18562
L65012 18607
L65027 18622
L65057 18637
L65102 18637
L65132 18622
L65147 18607
L65162 18577
L65162 18457
L64847 18457
L64847 18562
L64862 18592
L64877 18607
L64907 18622
L64937 18622
L64967 18607
L64982 18592
L64997 18562
L64997 18457
" />
<path d="M64877 18757
L64862 18772
L64847 18802
L64847 18877
L64862 18907
L64877 18922
L64907 18937
L64937 18937
L64982 18922
L65162 18742
L65162 18937
" />
<path d="M74847 14271
L74847 14451
" />
<path d="M75162 14361
L74847 14361
" />
<path d="M74847 14526
L75162 14736
" />
<path d="M74847 14736
L75162 14526
" />
<path d="M74847 14916
L74847 14946
L74862 14976
L74877 14991
L74907 15006
L74967 15021
L75042 15021
L75102 15006
L75132 14991
L75147 14976
L75162 14946
L75162 14916
L75147 14886
L75132 14871
L75102 14856
L75042 14841
L74967 14841
L74907 14856
L74877 14871
L74862 14886
L74847 14916
" />
<path d="M74832 15381
L75237 15111
" />
<path d="M75162 15486
L74847 15486
L74847 15561
L74862 15606
L74892 15636
L74922 15651
L74982 15666
L75027 15666
L75087 15651
L75117 15636
L75147 15606
L75162 15561
L75162 15486
" />
<path d="M74847 15771
L74847 15966
L74967 15861
L74967 15906
L74982 15936
L74997 15951
L75027 15966
L75102 15966
L75132 15951
L75147 15936
L75162 15906
L75162 15816
L75147 15786
L75132 15771
" />
<path d="M73155 18314
L73170 18359
L73170 18434
L73155 18464
L73140 18479
L73110 18494
L73080 18494
L73050 18479
L73035 18464
L73020 18434
L73005 18374
L72990 18344
L72975 18329
L72945 18314
L72915 18314
L72885 18329
L72870 18344
L72855 18374
L72855 18449
L72870 18494
" />
<path d="M72855 18584
L72855 18764
" />
<path d="M73170 18674
L72855 18674
" />
<path d="M50352 14986
L50352 15305
L50333 15342
L50314 15361
L50277 15380
L50202 15380
L50164 15361
L50145 15342
L50127 15305
L50127 14986
" />
<path d="M50033 15417
L49733 15417
" />
<path d="M49695 14986
L49564 15380
L49433 14986
" />
<path d="M49077 15380
L49208 15192
" />
<path d="M49302 15380
L49302 14986
L49152 14986
L49114 15005
L49096 15024
L49077 15061
L49077 15117
L49096 15155
L49114 15174
L49152 15192
L49302 15192
" />
<path d="M49002 15417
L48702 15417
" />
<path d="M48608 15380
L48608 14986
" />
<path d="M48196 15342
L48214 15361
L48271 15380
L48308 15380
L48364 15361
L48402 15324
L48421 15286
L48439 15211
L48439 15155
L48421 15080
L48402 15042
L48364 15005
L48308 14986
L48271 14986
L48214 15005
L48196 15024
" />
<path d="M47821 15380
L48046 15380
" />
<path d="M47933 15380
L47933 14986
L47971 15042
L48008 15080
L48046 15099
" />
</g> 
</svg>
