<?xml version="1.0" standalone="no"?>
 <!DOCTYPE svg PUBLIC "-//W3C//DTD SVG 1.1//EN" 
 "http://www.w3.org/Graphics/SVG/1.1/DTD/svg11.dtd"> 
<svg xmlns="http://www.w3.org/2000/svg" version="1.1" 
    width="29.7002cm" height="21.0007cm" viewBox="0 0 116930 82680 ">
<title>SVG Picture created as ErgodoxBle-F.SilkS.svg date 2019/01/26 18:51:10 </title>
  <desc>Picture generated by PCBNEW </desc>
<g style="fill:#000000; fill-opacity:1;stroke:#000000; stroke-opacity:1;
stroke-linecap:round; stroke-linejoin:round; "
 transform="translate(0 0) scale(1 1)">
</g>
<g style="fill:#000000; fill-opacity:0.0; 
stroke:#000000; stroke-width:-0.000393701; stroke-opacity:1; 
stroke-linecap:round; stroke-linejoin:round;">
</g>
<g style="fill:#000000; fill-opacity:0.0; 
stroke:#000000; stroke-width:120; stroke-opacity:1; 
stroke-linecap:round; stroke-linejoin:round;">
<path d="M79017 16925
L78217 16925
L78217 16782
L78256 16697
L78332 16639
L78408 16611
L78560 16582
L78675 16582
L78827 16611
L78903 16639
L78979 16697
L79017 16782
L79017 16925
" />
<path d="M78713 16325
L78713 15868
" />
<path d="M79017 16097
L78408 16097
" />
<path d="M78931 15210
L78131 15210
L78131 15067
L78170 14982
L78246 14924
L78322 14896
L78474 14867
L78589 14867
L78741 14896
L78817 14924
L78893 14982
L78931 15067
L78931 15210
" />
<path d="M78627 14610
L78627 14153
" />
</g>
<g style="fill:#000000; fill-opacity:0.0; 
stroke:#000000; stroke-width:200; stroke-opacity:1; 
stroke-linecap:round; stroke-linejoin:round;">
<path d="M27439 39292
L27106 38721
" />
<path d="M26868 39292
L26868 38092
L27249 38092
L27344 38150
L27391 38207
L27439 38321
L27439 38492
L27391 38607
L27344 38664
L27249 38721
L26868 38721
" />
<path d="M27868 39292
L27868 38092
" />
<path d="M28868 38150
L28772 38092
L28630 38092
L28487 38150
L28391 38264
L28344 38378
L28296 38607
L28296 38778
L28344 39007
L28391 39121
L28487 39235
L28630 39292
L28725 39292
L28868 39235
L28915 39178
L28915 38778
L28725 38778
" />
<path d="M29344 39292
L29344 38092
" />
<path d="M29344 38664
L29915 38664
" />
<path d="M29915 39292
L29915 38092
" />
<path d="M30249 38092
L30820 38092
" />
<path d="M30534 39292
L30534 38092
" />
<path d="M26868 41292
L26868 40092
" />
<path d="M26868 40664
L27439 40664
" />
<path d="M27439 41292
L27439 40092
" />
<path d="M27868 40950
L28344 40950
" />
<path d="M27772 41292
L28106 40092
L28439 41292
" />
<path d="M28772 41292
L28772 40092
L29344 41292
L29344 40092
" />
<path d="M29820 41292
L29820 40092
L30058 40092
L30201 40150
L30296 40264
L30344 40378
L30391 40607
L30391 40778
L30344 41007
L30296 41121
L30201 41235
L30058 41292
L29820 41292
" />
</g>
<g style="fill:#000000; fill-opacity:0.0; 
stroke:#000000; stroke-width:120; stroke-opacity:1; 
stroke-linecap:round; stroke-linejoin:round;">
<path d="M63670 20782
L63470 20782
" />
<path d="M63470 21201
L63470 20401
L63756 20401
" />
<path d="M64328 21201
L64128 20820
" />
<path d="M63985 21201
L63985 20401
L64213 20401
L64270 20440
L64299 20478
L64328 20554
L64328 20668
L64299 20744
L64270 20782
L64213 20820
L63985 20820
" />
<path d="M64842 20668
L64842 21201
" />
<path d="M64699 20363
L64556 20935
L64928 20935
" />
<path d="M65528 20401
L65870 20401
" />
<path d="M65699 21201
L65699 20401
" />
<path d="M66328 20668
L66328 21316
L66299 21392
L66270 21430
L66213 21468
L66128 21468
L66070 21430
" />
<path d="M66328 21163
L66270 21201
L66156 21201
L66099 21163
L66070 21125
L66042 21049
L66042 20820
L66070 20744
L66099 20706
L66156 20668
L66270 20668
L66328 20706
" />
<path d="M66928 21201
L66585 21201
" />
<path d="M66756 21201
L66756 20401
L66699 20516
L66642 20592
L66585 20630
" />
<path d="M67128 20401
L67528 20401
L67270 21201
" />
<path d="M67870 20401
L67928 20401
L67985 20440
L68013 20478
L68042 20554
L68070 20706
L68070 20897
L68042 21049
L68013 21125
L67985 21163
L67928 21201
L67870 21201
L67813 21163
L67785 21125
L67756 21049
L67728 20897
L67728 20706
L67756 20554
L67785 20478
L67813 20440
L67870 20401
" />
<path d="M68413 20401
L68356 20440
L68328 20516
L68356 20592
L68413 20630
L68470 20592
L68499 20516
L68470 20440
L68413 20401
" />
<path d="M69528 21201
L69242 21201
L69242 20401
" />
<path d="M69985 21201
L69985 20782
L69956 20706
L69899 20668
L69785 20668
L69728 20706
" />
<path d="M69985 21163
L69928 21201
L69785 21201
L69728 21163
L69699 21087
L69699 21011
L69728 20935
L69785 20897
L69928 20897
L69985 20859
" />
<path d="M70270 21201
L70270 20668
" />
<path d="M70270 20744
L70299 20706
L70356 20668
L70442 20668
L70499 20706
L70528 20782
L70528 21201
" />
<path d="M70528 20782
L70556 20706
L70613 20668
L70699 20668
L70756 20706
L70785 20782
L70785 21201
" />
<path d="M71070 21201
L71070 20668
" />
<path d="M71070 20401
L71042 20440
L71070 20478
L71099 20440
L71070 20401
L71070 20478
" />
<path d="M71356 20668
L71356 21201
" />
<path d="M71356 20744
L71385 20706
L71442 20668
L71528 20668
L71585 20706
L71613 20782
L71613 21201
" />
<path d="M72156 21201
L72156 20782
L72128 20706
L72070 20668
L71956 20668
L71899 20706
" />
<path d="M72156 21163
L72099 21201
L71956 21201
L71899 21163
L71870 21087
L71870 21011
L71899 20935
L71956 20897
L72099 20897
L72156 20859
" />
<path d="M72356 20668
L72585 20668
" />
<path d="M72442 20401
L72442 21087
L72470 21163
L72528 21201
L72585 21201
" />
<path d="M73013 21163
L72956 21201
L72842 21201
L72785 21163
L72756 21087
L72756 20782
L72785 20706
L72842 20668
L72956 20668
L73013 20706
L73042 20782
L73042 20859
L72756 20935
" />
<path d="M63442 21798
L63470 21760
L63528 21721
L63670 21721
L63728 21760
L63756 21798
L63785 21874
L63785 21950
L63756 22064
L63413 22521
L63785 22521
" />
<path d="M64299 21988
L64299 22521
" />
<path d="M64156 21683
L64013 22255
L64385 22255
" />
<path d="M64613 22521
L64613 21988
" />
<path d="M64613 22064
L64642 22026
L64699 21988
L64785 21988
L64842 22026
L64870 22102
L64870 22521
" />
<path d="M64870 22102
L64899 22026
L64956 21988
L65042 21988
L65099 22026
L65128 22102
L65128 22521
" />
<path d="M65413 22521
L65413 21988
" />
<path d="M65413 21721
L65385 21760
L65413 21798
L65442 21760
L65413 21721
L65413 21798
" />
<path d="M65785 22521
L65728 22483
L65699 22407
L65699 21721
" />
<path d="M66385 21988
L66613 21988
" />
<path d="M66470 21721
L66470 22407
L66499 22483
L66556 22521
L66613 22521
" />
<path d="M66813 22521
L66813 21988
" />
<path d="M66813 22140
L66842 22064
L66870 22026
L66928 21988
L66985 21988
" />
<path d="M67442 22521
L67442 22102
L67413 22026
L67356 21988
L67242 21988
L67185 22026
" />
<path d="M67442 22483
L67385 22521
L67242 22521
L67185 22483
L67156 22407
L67156 22331
L67185 22255
L67242 22217
L67385 22217
L67442 22179
" />
<path d="M67985 22483
L67928 22521
L67813 22521
L67756 22483
L67728 22445
L67699 22369
L67699 22140
L67728 22064
L67756 22026
L67813 21988
L67928 21988
L67985 22026
" />
<path d="M68470 22483
L68413 22521
L68299 22521
L68242 22483
L68213 22407
L68213 22102
L68242 22026
L68299 21988
L68413 21988
L68470 22026
L68499 22102
L68499 22179
L68213 22255
" />
<path d="M68728 22483
L68785 22521
L68899 22521
L68956 22483
L68985 22407
L68985 22369
L68956 22293
L68899 22255
L68813 22255
L68756 22217
L68728 22140
L68728 22102
L68756 22026
L68813 21988
L68899 21988
L68956 22026
" />
<path d="M69785 22521
L69728 22483
L69699 22445
L69670 22369
L69670 22140
L69699 22064
L69728 22026
L69785 21988
L69870 21988
L69928 22026
L69956 22064
L69985 22140
L69985 22369
L69956 22445
L69928 22483
L69870 22521
L69785 22521
" />
<path d="M70242 21988
L70242 22521
" />
<path d="M70242 22064
L70270 22026
L70328 21988
L70413 21988
L70470 22026
L70499 22102
L70499 22521
" />
<path d="M71556 22521
L71213 22521
" />
<path d="M71385 22521
L71385 21721
L71328 21836
L71270 21912
L71213 21950
" />
<path d="M71899 22521
L71842 22483
L71813 22445
L71785 22369
L71785 22140
L71813 22064
L71842 22026
L71899 21988
L71985 21988
L72042 22026
L72070 22064
L72099 22140
L72099 22369
L72070 22445
L72042 22483
L71985 22521
L71899 22521
" />
<path d="M72299 21988
L72613 21988
L72299 22521
L72613 22521
" />
<path d="M73556 22483
L73499 22521
L73385 22521
L73328 22483
L73299 22445
L73270 22369
L73270 22140
L73299 22064
L73328 22026
L73385 21988
L73499 21988
L73556 22026
" />
<path d="M73899 22521
L73842 22483
L73813 22445
L73785 22369
L73785 22140
L73813 22064
L73842 22026
L73899 21988
L73985 21988
L74042 22026
L74070 22064
L74099 22140
L74099 22369
L74070 22445
L74042 22483
L73985 22521
L73899 22521
" />
<path d="M74356 21988
L74356 22788
" />
<path d="M74356 22026
L74413 21988
L74528 21988
L74585 22026
L74613 22064
L74642 22140
L74642 22369
L74613 22445
L74585 22483
L74528 22521
L74413 22521
L74356 22483
" />
<path d="M74899 21988
L74899 22788
" />
<path d="M74899 22026
L74956 21988
L75070 21988
L75128 22026
L75156 22064
L75185 22140
L75185 22369
L75156 22445
L75128 22483
L75070 22521
L74956 22521
L74899 22483
" />
<path d="M75670 22483
L75613 22521
L75499 22521
L75442 22483
L75413 22407
L75413 22102
L75442 22026
L75499 21988
L75613 21988
L75670 22026
L75699 22102
L75699 22179
L75413 22255
" />
<path d="M75956 22521
L75956 21988
" />
<path d="M75956 22140
L75985 22064
L76013 22026
L76070 21988
L76128 21988
" />
</g>
<g style="fill:#000000; fill-opacity:0.0; 
stroke:#000000; stroke-width:150; stroke-opacity:1; 
stroke-linecap:round; stroke-linejoin:round;">
<path d="M75520 13040
L63520 13040
" />
<path d="M63520 13040
L63520 20040
" />
<path d="M63520 20040
L75520 20040
" />
<path d="M75520 14040
L74520 14040
" />
<path d="M74520 14040
L74520 13040
" />
</g>
<g style="fill:#000000; fill-opacity:1.0; 
stroke:#000000; stroke-width:59.0551; stroke-opacity:1; 
stroke-linecap:round; stroke-linejoin:round;">
<polyline style="fill-rule:evenodd;"
points="73205,18481
73087,18481
73087,18442
73205,18442
73205,18481
" /> 
<polyline style="fill-rule:evenodd;"
points="73047,18402
73008,18402
73008,18363
73047,18363
73047,18402
" /> 
<polyline style="fill-rule:evenodd;"
points="73205,18481
73165,18481
73165,18284
73205,18284
73205,18481
" /> 
<polyline style="fill-rule:evenodd;"
points="73205,18324
72890,18324
72890,18284
73205,18284
73205,18324
" /> 
<polyline style="fill-rule:evenodd;"
points="72969,18481
72890,18481
72890,18442
72969,18442
72969,18481
" /> 
</g>
<g style="fill:#000000; fill-opacity:1.0; 
stroke:#000000; stroke-width:150; stroke-opacity:1; 
stroke-linecap:round; stroke-linejoin:round;">
</g>
<g style="fill:#000000; fill-opacity:0.0; 
stroke:#000000; stroke-width:150; stroke-opacity:1; 
stroke-linecap:round; stroke-linejoin:round;">
<path d="M75520 20040
L76520 20040
" />
<path d="M76520 20040
L76520 13040
" />
<path d="M76520 13040
L75520 13040
" />
<path d="M75520 14040
L75520 13040
" />
</g>
<g style="fill:#000000; fill-opacity:0.0; 
stroke:#000000; stroke-width:59.0551; stroke-opacity:1; 
stroke-linecap:round; stroke-linejoin:round;">
<path d="M20547 73351
L22360 72506
" />
<path d="M22360 72506
L22106 71962
" />
<path d="M22106 71962
L20293 72807
" />
<path d="M20293 72807
L20547 73351
" />
<path d="M20547 73351
L20728 73266
" />
<path d="M22224 72569
L21970 72025
" />
<path d="M22015 72004
L22269 72548
" />
<path d="M22314 72527
L22061 71983
" />
<path d="M21925 72047
L22178 72590
" />
<path d="M22133 72611
L21879 72068
" />
<path d="M22088 72633
L21834 72089
" />
<path d="M27960 61386
L27416 61640
" />
<path d="M27938 61341
L27395 61595
" />
<path d="M27374 61549
L27917 61296
" />
<path d="M27854 61160
L27310 61413
" />
<path d="M27331 61459
L27875 61205
" />
<path d="M27896 61250
L27352 61504
" />
<path d="M28678 62927
L28594 62746
" />
<path d="M28134 63181
L28678 62927
" />
<path d="M27289 61368
L28134 63181
" />
<path d="M27833 61114
L27289 61368
" />
<path d="M28678 62927
L27833 61114
" />
<path d="M35494 59779
L34649 57966
" />
<path d="M34649 57966
L34105 58220
" />
<path d="M34105 58220
L34950 60033
" />
<path d="M34950 60033
L35494 59779
" />
<path d="M35494 59779
L35409 59598
" />
<path d="M34712 58102
L34168 58356
" />
<path d="M34147 58311
L34691 58057
" />
<path d="M34670 58012
L34126 58265
" />
<path d="M34190 58401
L34733 58148
" />
<path d="M34754 58193
L34211 58447
" />
<path d="M34776 58238
L34232 58492
" />
<path d="M18953 66060
L18699 65516
" />
<path d="M18998 66038
L18744 65495
" />
<path d="M18790 65474
L19043 66017
" />
<path d="M19179 65954
L18926 65410
" />
<path d="M18880 65431
L19134 65975
" />
<path d="M19089 65996
L18835 65452
" />
<path d="M17412 66778
L17593 66694
" />
<path d="M17158 66234
L17412 66778
" />
<path d="M18971 65389
L17158 66234
" />
<path d="M19225 65933
L18971 65389
" />
<path d="M17412 66778
L19225 65933
" />
<path d="M20942 56668
L22755 55823
" />
<path d="M22755 55823
L22501 55279
" />
<path d="M22501 55279
L20688 56124
" />
<path d="M20688 56124
L20942 56668
" />
<path d="M20942 56668
L21123 56584
" />
<path d="M22619 55886
L22365 55342
" />
<path d="M22410 55321
L22664 55865
" />
<path d="M22709 55844
L22456 55300
" />
<path d="M22320 55364
L22573 55907
" />
<path d="M22528 55928
L22274 55385
" />
<path d="M22483 55950
L22229 55406
" />
<path d="M15711 59026
L15457 58482
" />
<path d="M15756 59004
L15502 58461
" />
<path d="M15548 58440
L15801 58983
" />
<path d="M15937 58920
L15684 58376
" />
<path d="M15638 58397
L15892 58941
" />
<path d="M15847 58962
L15593 58418
" />
<path d="M14170 59744
L14351 59659
" />
<path d="M13916 59200
L14170 59744
" />
<path d="M15729 58355
L13916 59200
" />
<path d="M15983 58899
L15729 58355
" />
<path d="M14170 59744
L15983 58899
" />
<path d="M74237 59587
L74237 58987
" />
<path d="M74287 59587
L74287 58987
" />
<path d="M74337 58987
L74337 59587
" />
<path d="M74487 59587
L74487 58987
" />
<path d="M74437 58987
L74437 59587
" />
<path d="M74387 59587
L74387 58987
" />
<path d="M72537 59587
L72737 59587
" />
<path d="M72537 58987
L72537 59587
" />
<path d="M74537 58987
L72537 58987
" />
<path d="M74537 59587
L74537 58987
" />
<path d="M72537 59587
L74537 59587
" />
<path d="M59250 58650
L59250 58050
" />
<path d="M59300 58650
L59300 58050
" />
<path d="M59350 58050
L59350 58650
" />
<path d="M59500 58650
L59500 58050
" />
<path d="M59450 58050
L59450 58650
" />
<path d="M59400 58650
L59400 58050
" />
<path d="M57550 58650
L57750 58650
" />
<path d="M57550 58050
L57550 58650
" />
<path d="M59550 58050
L57550 58050
" />
<path d="M59550 58650
L59550 58050
" />
<path d="M57550 58650
L59550 58650
" />
<path d="M50000 57800
L52000 57800
" />
<path d="M52000 57800
L52000 57200
" />
<path d="M52000 57200
L50000 57200
" />
<path d="M50000 57200
L50000 57800
" />
<path d="M50000 57800
L50200 57800
" />
<path d="M51850 57800
L51850 57200
" />
<path d="M51900 57200
L51900 57800
" />
<path d="M51950 57800
L51950 57200
" />
<path d="M51800 57200
L51800 57800
" />
<path d="M51750 57800
L51750 57200
" />
<path d="M51700 57800
L51700 57200
" />
<path d="M44150 58350
L44150 57750
" />
<path d="M44200 58350
L44200 57750
" />
<path d="M44250 57750
L44250 58350
" />
<path d="M44400 58350
L44400 57750
" />
<path d="M44350 57750
L44350 58350
" />
<path d="M44300 58350
L44300 57750
" />
<path d="M42450 58350
L42650 58350
" />
<path d="M42450 57750
L42450 58350
" />
<path d="M44450 57750
L42450 57750
" />
<path d="M44450 58350
L44450 57750
" />
<path d="M42450 58350
L44450 58350
" />
<path d="M29911 53943
L29657 53399
" />
<path d="M29956 53921
L29702 53378
" />
<path d="M29748 53357
L30001 53900
" />
<path d="M30137 53837
L29884 53293
" />
<path d="M29838 53314
L30092 53858
" />
<path d="M30047 53879
L29793 53335
" />
<path d="M28370 54661
L28551 54577
" />
<path d="M28116 54117
L28370 54661
" />
<path d="M29929 53272
L28116 54117
" />
<path d="M30183 53816
L29929 53272
" />
<path d="M28370 54661
L30183 53816
" />
<path d="M21570 57844
L23383 56999
" />
<path d="M23383 56999
L23129 56455
" />
<path d="M23129 56455
L21316 57300
" />
<path d="M21316 57300
L21570 57844
" />
<path d="M21570 57844
L21751 57759
" />
<path d="M23247 57062
L22993 56518
" />
<path d="M23038 56497
L23292 57041
" />
<path d="M23337 57020
L23084 56476
" />
<path d="M22948 56540
L23201 57083
" />
<path d="M23156 57104
L22902 56561
" />
<path d="M23111 57126
L22857 56582
" />
<path d="M66700 59577
L66700 58977
" />
<path d="M66750 59577
L66750 58977
" />
<path d="M66800 58977
L66800 59577
" />
<path d="M66950 59577
L66950 58977
" />
<path d="M66900 58977
L66900 59577
" />
<path d="M66850 59577
L66850 58977
" />
<path d="M65000 59577
L65200 59577
" />
<path d="M65000 58977
L65000 59577
" />
<path d="M67000 58977
L65000 58977
" />
<path d="M67000 59577
L67000 58977
" />
<path d="M65000 59577
L67000 59577
" />
<path d="M74350 52350
L76350 52350
" />
<path d="M76350 52350
L76350 51750
" />
<path d="M76350 51750
L74350 51750
" />
<path d="M74350 51750
L74350 52350
" />
<path d="M74350 52350
L74550 52350
" />
<path d="M76200 52350
L76200 51750
" />
<path d="M76250 51750
L76250 52350
" />
<path d="M76300 52350
L76300 51750
" />
<path d="M76150 51750
L76150 52350
" />
<path d="M76100 52350
L76100 51750
" />
<path d="M76050 52350
L76050 51750
" />
<path d="M65000 52400
L67000 52400
" />
<path d="M67000 52400
L67000 51800
" />
<path d="M67000 51800
L65000 51800
" />
<path d="M65000 51800
L65000 52400
" />
<path d="M65000 52400
L65200 52400
" />
<path d="M66850 52400
L66850 51800
" />
<path d="M66900 51800
L66900 52400
" />
<path d="M66950 52400
L66950 51800
" />
<path d="M66800 51800
L66800 52400
" />
<path d="M66750 52400
L66750 51800
" />
<path d="M66700 52400
L66700 51800
" />
<path d="M59200 51150
L59200 50550
" />
<path d="M59250 51150
L59250 50550
" />
<path d="M59300 50550
L59300 51150
" />
<path d="M59450 51150
L59450 50550
" />
<path d="M59400 50550
L59400 51150
" />
<path d="M59350 51150
L59350 50550
" />
<path d="M57500 51150
L57700 51150
" />
<path d="M57500 50550
L57500 51150
" />
<path d="M59500 50550
L57500 50550
" />
<path d="M59500 51150
L59500 50550
" />
<path d="M57500 51150
L59500 51150
" />
<path d="M50000 50500
L52000 50500
" />
<path d="M52000 50500
L52000 49900
" />
<path d="M52000 49900
L50000 49900
" />
<path d="M50000 49900
L50000 50500
" />
<path d="M50000 50500
L50200 50500
" />
<path d="M51850 50500
L51850 49900
" />
<path d="M51900 49900
L51900 50500
" />
<path d="M51950 50500
L51950 49900
" />
<path d="M51800 49900
L51800 50500
" />
<path d="M51750 50500
L51750 49900
" />
<path d="M51700 50500
L51700 49900
" />
<path d="M44200 51150
L44200 50550
" />
<path d="M44250 51150
L44250 50550
" />
<path d="M44300 50550
L44300 51150
" />
<path d="M44450 51150
L44450 50550
" />
<path d="M44400 50550
L44400 51150
" />
<path d="M44350 51150
L44350 50550
" />
<path d="M42500 51150
L42700 51150
" />
<path d="M42500 50550
L42500 51150
" />
<path d="M44500 50550
L42500 50550
" />
<path d="M44500 51150
L44500 50550
" />
<path d="M42500 51150
L44500 51150
" />
<path d="M35000 51600
L37000 51600
" />
<path d="M37000 51600
L37000 51000
" />
<path d="M37000 51000
L35000 51000
" />
<path d="M35000 51000
L35000 51600
" />
<path d="M35000 51600
L35200 51600
" />
<path d="M36850 51600
L36850 51000
" />
<path d="M36900 51000
L36900 51600
" />
<path d="M36950 51600
L36950 51000
" />
<path d="M36800 51000
L36800 51600
" />
<path d="M36750 51600
L36750 51000
" />
<path d="M36700 51600
L36700 51000
" />
<path d="M31780 45540
L31180 45540
" />
<path d="M31780 45490
L31180 45490
" />
<path d="M31180 45440
L31780 45440
" />
<path d="M31780 45290
L31180 45290
" />
<path d="M31180 45340
L31780 45340
" />
<path d="M31780 45390
L31180 45390
" />
<path d="M31780 47240
L31780 47040
" />
<path d="M31180 47240
L31780 47240
" />
<path d="M31180 45240
L31180 47240
" />
<path d="M31780 45240
L31180 45240
" />
<path d="M31780 47240
L31780 45240
" />
<path d="M76100 44900
L76100 44300
" />
<path d="M76150 44900
L76150 44300
" />
<path d="M76200 44300
L76200 44900
" />
<path d="M76350 44900
L76350 44300
" />
<path d="M76300 44300
L76300 44900
" />
<path d="M76250 44900
L76250 44300
" />
<path d="M74400 44900
L74600 44900
" />
<path d="M74400 44300
L74400 44900
" />
<path d="M76400 44300
L74400 44300
" />
<path d="M76400 44900
L76400 44300
" />
<path d="M74400 44900
L76400 44900
" />
<path d="M64950 44800
L66950 44800
" />
<path d="M66950 44800
L66950 44200
" />
<path d="M66950 44200
L64950 44200
" />
<path d="M64950 44200
L64950 44800
" />
<path d="M64950 44800
L65150 44800
" />
<path d="M66800 44800
L66800 44200
" />
<path d="M66850 44200
L66850 44800
" />
<path d="M66900 44800
L66900 44200
" />
<path d="M66750 44200
L66750 44800
" />
<path d="M66700 44800
L66700 44200
" />
<path d="M66650 44800
L66650 44200
" />
<path d="M59200 43650
L59200 43050
" />
<path d="M59250 43650
L59250 43050
" />
<path d="M59300 43050
L59300 43650
" />
<path d="M59450 43650
L59450 43050
" />
<path d="M59400 43050
L59400 43650
" />
<path d="M59350 43650
L59350 43050
" />
<path d="M57500 43650
L57700 43650
" />
<path d="M57500 43050
L57500 43650
" />
<path d="M59500 43050
L57500 43050
" />
<path d="M59500 43650
L59500 43050
" />
<path d="M57500 43650
L59500 43650
" />
<path d="M50000 43000
L52000 43000
" />
<path d="M52000 43000
L52000 42400
" />
<path d="M52000 42400
L50000 42400
" />
<path d="M50000 42400
L50000 43000
" />
<path d="M50000 43000
L50200 43000
" />
<path d="M51850 43000
L51850 42400
" />
<path d="M51900 42400
L51900 43000
" />
<path d="M51950 43000
L51950 42400
" />
<path d="M51800 42400
L51800 43000
" />
<path d="M51750 43000
L51750 42400
" />
<path d="M51700 43000
L51700 42400
" />
<path d="M44250 43650
L44250 43050
" />
<path d="M44300 43650
L44300 43050
" />
<path d="M44350 43050
L44350 43650
" />
<path d="M44500 43650
L44500 43050
" />
<path d="M44450 43050
L44450 43650
" />
<path d="M44400 43650
L44400 43050
" />
<path d="M42550 43650
L42750 43650
" />
<path d="M42550 43050
L42550 43650
" />
<path d="M44550 43050
L42550 43050
" />
<path d="M44550 43650
L44550 43050
" />
<path d="M42550 43650
L44550 43650
" />
<path d="M35000 44100
L37000 44100
" />
<path d="M37000 44100
L37000 43500
" />
<path d="M37000 43500
L35000 43500
" />
<path d="M35000 43500
L35000 44100
" />
<path d="M35000 44100
L35200 44100
" />
<path d="M36850 44100
L36850 43500
" />
<path d="M36900 43500
L36900 44100
" />
<path d="M36950 44100
L36950 43500
" />
<path d="M36800 43500
L36800 44100
" />
<path d="M36750 44100
L36750 43500
" />
<path d="M36700 44100
L36700 43500
" />
<path d="M76040 37150
L76040 36550
" />
<path d="M76090 37150
L76090 36550
" />
<path d="M76140 36550
L76140 37150
" />
<path d="M76290 37150
L76290 36550
" />
<path d="M76240 36550
L76240 37150
" />
<path d="M76190 37150
L76190 36550
" />
<path d="M74340 37150
L74540 37150
" />
<path d="M74340 36550
L74340 37150
" />
<path d="M76340 36550
L74340 36550
" />
<path d="M76340 37150
L76340 36550
" />
<path d="M74340 37150
L76340 37150
" />
<path d="M65000 37350
L67000 37350
" />
<path d="M67000 37350
L67000 36750
" />
<path d="M67000 36750
L65000 36750
" />
<path d="M65000 36750
L65000 37350
" />
<path d="M65000 37350
L65200 37350
" />
<path d="M66850 37350
L66850 36750
" />
<path d="M66900 36750
L66900 37350
" />
<path d="M66950 37350
L66950 36750
" />
<path d="M66800 36750
L66800 37350
" />
<path d="M66750 37350
L66750 36750
" />
<path d="M66700 37350
L66700 36750
" />
<path d="M59250 36150
L59250 35550
" />
<path d="M59300 36150
L59300 35550
" />
<path d="M59350 35550
L59350 36150
" />
<path d="M59500 36150
L59500 35550
" />
<path d="M59450 35550
L59450 36150
" />
<path d="M59400 36150
L59400 35550
" />
<path d="M57550 36150
L57750 36150
" />
<path d="M57550 35550
L57550 36150
" />
<path d="M59550 35550
L57550 35550
" />
<path d="M59550 36150
L59550 35550
" />
<path d="M57550 36150
L59550 36150
" />
<path d="M49950 35500
L51950 35500
" />
<path d="M51950 35500
L51950 34900
" />
<path d="M51950 34900
L49950 34900
" />
<path d="M49950 34900
L49950 35500
" />
<path d="M49950 35500
L50150 35500
" />
<path d="M51800 35500
L51800 34900
" />
<path d="M51850 34900
L51850 35500
" />
<path d="M51900 35500
L51900 34900
" />
<path d="M51750 34900
L51750 35500
" />
<path d="M51700 35500
L51700 34900
" />
<path d="M51650 35500
L51650 34900
" />
<path d="M44200 36100
L44200 35500
" />
<path d="M44250 36100
L44250 35500
" />
<path d="M44300 35500
L44300 36100
" />
<path d="M44450 36100
L44450 35500
" />
<path d="M44400 35500
L44400 36100
" />
<path d="M44350 36100
L44350 35500
" />
<path d="M42500 36100
L42700 36100
" />
<path d="M42500 35500
L42500 36100
" />
<path d="M44500 35500
L42500 35500
" />
<path d="M44500 36100
L44500 35500
" />
<path d="M42500 36100
L44500 36100
" />
<path d="M35000 36650
L37000 36650
" />
<path d="M37000 36650
L37000 36050
" />
<path d="M37000 36050
L35000 36050
" />
<path d="M35000 36050
L35000 36650
" />
<path d="M35000 36650
L35200 36650
" />
<path d="M36850 36650
L36850 36050
" />
<path d="M36900 36050
L36900 36650
" />
<path d="M36950 36650
L36950 36050
" />
<path d="M36800 36050
L36800 36650
" />
<path d="M36750 36650
L36750 36050
" />
<path d="M36700 36650
L36700 36050
" />
<path d="M31800 34260
L31200 34260
" />
<path d="M31800 34210
L31200 34210
" />
<path d="M31200 34160
L31800 34160
" />
<path d="M31800 34010
L31200 34010
" />
<path d="M31200 34060
L31800 34060
" />
<path d="M31800 34110
L31200 34110
" />
<path d="M31800 35960
L31800 35760
" />
<path d="M31200 35960
L31800 35960
" />
<path d="M31200 33960
L31200 35960
" />
<path d="M31800 33960
L31200 33960
" />
<path d="M31800 35960
L31800 33960
" />
<path d="M74350 29900
L76350 29900
" />
<path d="M76350 29900
L76350 29300
" />
<path d="M76350 29300
L74350 29300
" />
<path d="M74350 29300
L74350 29900
" />
<path d="M74350 29900
L74550 29900
" />
<path d="M76200 29900
L76200 29300
" />
<path d="M76250 29300
L76250 29900
" />
<path d="M76300 29900
L76300 29300
" />
<path d="M76150 29300
L76150 29900
" />
<path d="M76100 29900
L76100 29300
" />
<path d="M76050 29900
L76050 29300
" />
<path d="M66650 29800
L66650 29200
" />
<path d="M66700 29800
L66700 29200
" />
<path d="M66750 29200
L66750 29800
" />
<path d="M66900 29800
L66900 29200
" />
<path d="M66850 29200
L66850 29800
" />
<path d="M66800 29800
L66800 29200
" />
<path d="M64950 29800
L65150 29800
" />
<path d="M64950 29200
L64950 29800
" />
<path d="M66950 29200
L64950 29200
" />
<path d="M66950 29800
L66950 29200
" />
<path d="M64950 29800
L66950 29800
" />
<path d="M57500 28600
L59500 28600
" />
<path d="M59500 28600
L59500 28000
" />
<path d="M59500 28000
L57500 28000
" />
<path d="M57500 28000
L57500 28600
" />
<path d="M57500 28600
L57700 28600
" />
<path d="M59350 28600
L59350 28000
" />
<path d="M59400 28000
L59400 28600
" />
<path d="M59450 28600
L59450 28000
" />
<path d="M59300 28000
L59300 28600
" />
<path d="M59250 28600
L59250 28000
" />
<path d="M59200 28600
L59200 28000
" />
<path d="M51700 28000
L51700 27400
" />
<path d="M51750 28000
L51750 27400
" />
<path d="M51800 27400
L51800 28000
" />
<path d="M51950 28000
L51950 27400
" />
<path d="M51900 27400
L51900 28000
" />
<path d="M51850 28000
L51850 27400
" />
<path d="M50000 28000
L50200 28000
" />
<path d="M50000 27400
L50000 28000
" />
<path d="M52000 27400
L50000 27400
" />
<path d="M52000 28000
L52000 27400
" />
<path d="M50000 28000
L52000 28000
" />
<path d="M42450 28600
L44450 28600
" />
<path d="M44450 28600
L44450 28000
" />
<path d="M44450 28000
L42450 28000
" />
<path d="M42450 28000
L42450 28600
" />
<path d="M42450 28600
L42650 28600
" />
<path d="M44300 28600
L44300 28000
" />
<path d="M44350 28000
L44350 28600
" />
<path d="M44400 28600
L44400 28000
" />
<path d="M44250 28000
L44250 28600
" />
<path d="M44200 28600
L44200 28000
" />
<path d="M44150 28600
L44150 28000
" />
<path d="M36700 29150
L36700 28550
" />
<path d="M36750 29150
L36750 28550
" />
<path d="M36800 28550
L36800 29150
" />
<path d="M36950 29150
L36950 28550
" />
<path d="M36900 28550
L36900 29150
" />
<path d="M36850 29150
L36850 28550
" />
<path d="M35000 29150
L35200 29150
" />
<path d="M35000 28550
L35000 29150
" />
<path d="M37000 28550
L35000 28550
" />
<path d="M37000 29150
L37000 28550
" />
<path d="M35000 29150
L37000 29150
" />
<path d="M27500 28850
L29500 28850
" />
<path d="M29500 28850
L29500 28250
" />
<path d="M29500 28250
L27500 28250
" />
<path d="M27500 28250
L27500 28850
" />
<path d="M27500 28850
L27700 28850
" />
<path d="M29350 28850
L29350 28250
" />
<path d="M29400 28250
L29400 28850
" />
<path d="M29450 28850
L29450 28250
" />
<path d="M29300 28250
L29300 28850
" />
<path d="M29250 28850
L29250 28250
" />
<path d="M29200 28850
L29200 28250
" />
<path d="M59650 13540
L59850 13540
" />
<path d="M57250 13540
L57450 13540
" />
<path d="M57450 13840
L57450 13240
" />
<path d="M57550 13940
L57450 13840
" />
<path d="M57650 13940
L57550 13940
" />
<path d="M57750 13840
L57650 13940
" />
<path d="M59350 13840
L57750 13840
" />
<path d="M59450 13940
L59350 13840
" />
<path d="M59550 13940
L59450 13940
" />
<path d="M59650 13840
L59550 13940
" />
<path d="M59650 13240
L59650 13840
" />
<path d="M59550 13140
L59650 13240
" />
<path d="M59450 13140
L59550 13140
" />
<path d="M59350 13240
L59450 13140
" />
<path d="M57750 13240
L59350 13240
" />
<path d="M57650 13140
L57750 13240
" />
<path d="M57550 13140
L57650 13140
" />
<path d="M57450 13240
L57550 13140
" />
<path d="M51270 13980
L51170 14080
" />
<path d="M51170 14080
L51070 14080
" />
<path d="M51070 14080
L50970 13980
" />
<path d="M50970 13980
L49370 13980
" />
<path d="M49370 13980
L49270 14080
" />
<path d="M49270 14080
L49170 14080
" />
<path d="M49170 14080
L49070 13980
" />
<path d="M49070 13980
L49070 13380
" />
<path d="M49070 13380
L49170 13280
" />
<path d="M49170 13280
L49270 13280
" />
<path d="M49270 13280
L49370 13380
" />
<path d="M49370 13380
L50970 13380
" />
<path d="M50970 13380
L51070 13280
" />
<path d="M51070 13280
L51170 13280
" />
<path d="M51170 13280
L51270 13380
" />
<path d="M51270 13380
L51270 13980
" />
<path d="M51470 13680
L51270 13680
" />
<path d="M49070 13680
L48870 13680
" />
<path d="M40350 14790
L40350 14590
" />
<path d="M40350 17190
L40350 16990
" />
<path d="M40650 16990
L40050 16990
" />
<path d="M40750 16890
L40650 16990
" />
<path d="M40750 16790
L40750 16890
" />
<path d="M40650 16690
L40750 16790
" />
<path d="M40650 15090
L40650 16690
" />
<path d="M40750 14990
L40650 15090
" />
<path d="M40750 14890
L40750 14990
" />
<path d="M40650 14790
L40750 14890
" />
<path d="M40050 14790
L40650 14790
" />
<path d="M39950 14890
L40050 14790
" />
<path d="M39950 14990
L39950 14890
" />
<path d="M40050 15090
L39950 14990
" />
<path d="M40050 16690
L40050 15090
" />
<path d="M39950 16790
L40050 16690
" />
<path d="M39950 16890
L39950 16790
" />
<path d="M40050 16990
L39950 16890
" />
<path d="M38280 17000
L38180 16900
" />
<path d="M38180 16900
L38180 16800
" />
<path d="M38180 16800
L38280 16700
" />
<path d="M38280 16700
L38280 15100
" />
<path d="M38280 15100
L38180 15000
" />
<path d="M38180 15000
L38180 14900
" />
<path d="M38180 14900
L38280 14800
" />
<path d="M38280 14800
L38880 14800
" />
<path d="M38880 14800
L38980 14900
" />
<path d="M38980 14900
L38980 15000
" />
<path d="M38980 15000
L38880 15100
" />
<path d="M38880 15100
L38880 16700
" />
<path d="M38880 16700
L38980 16800
" />
<path d="M38980 16800
L38980 16900
" />
<path d="M38980 16900
L38880 17000
" />
<path d="M38880 17000
L38280 17000
" />
<path d="M38580 17200
L38580 17000
" />
<path d="M38580 14800
L38580 14600
" />
<path d="M35080 11211
L32875 11211
" />
<path d="M32875 11999
L32875 11211
" />
<path d="M35080 11999
L35080 11211
" />
<path d="M32777 11999
L32777 16762
" />
<path d="M35178 11999
L35178 16762
" />
<path d="M35178 16762
L32777 16762
" />
<path d="M35178 11999
L32777 11999
" />
<path d="M64997 18817
L65012 18772
L65027 18757
L65057 18742
L65102 18742
L65132 18757
L65147 18772
L65162 18802
L65162 18922
L64847 18922
L64847 18817
L64862 18787
L64877 18772
L64907 18757
L64937 18757
L64967 18772
L64982 18787
L64997 18817
L64997 18922
" />
<path d="M64877 18622
L64862 18607
L64847 18577
L64847 18502
L64862 18472
L64877 18457
L64907 18442
L64937 18442
L64982 18457
L65162 18637
L65162 18442
" />
<path d="M67997 18794
L67997 18899
" />
<path d="M68162 18899
L67847 18899
L67847 18749
" />
<path d="M67847 18660
L67847 18450
L68162 18585
" />
<path d="M68997 18794
L68997 18899
" />
<path d="M69162 18899
L68847 18899
L68847 18749
" />
<path d="M68847 18495
L68847 18555
L68862 18585
L68877 18600
L68922 18630
L68982 18645
L69102 18645
L69132 18630
L69147 18615
L69162 18585
L69162 18525
L69147 18495
L69132 18480
L69102 18465
L69027 18465
L68997 18480
L68982 18495
L68967 18525
L68967 18585
L68982 18615
L68997 18630
L69027 18645
" />
<path d="M69997 18794
L69997 18899
" />
<path d="M70162 18899
L69847 18899
L69847 18749
" />
<path d="M69847 18480
L69847 18630
L69997 18645
L69982 18630
L69967 18600
L69967 18525
L69982 18495
L69997 18480
L70027 18465
L70102 18465
L70132 18480
L70147 18495
L70162 18525
L70162 18600
L70147 18630
L70132 18645
" />
<path d="M75162 18907
L75012 19012
" />
<path d="M75162 19087
L74847 19087
L74847 18967
L74862 18937
L74877 18922
L74907 18907
L74952 18907
L74982 18922
L74997 18937
L75012 18967
L75012 19087
" />
<path d="M75072 18787
L75072 18637
" />
<path d="M75162 18817
L74847 18712
L75162 18607
" />
<path d="M74847 18532
L75162 18457
L74937 18397
L75162 18337
L74847 18262
" />
<path d="M73862 18929
L73847 18959
L73847 19004
L73862 19049
L73892 19079
L73922 19094
L73982 19109
L74027 19109
L74087 19094
L74117 19079
L74147 19049
L74162 19004
L74162 18974
L74147 18929
L74132 18914
L74027 18914
L74027 18974
" />
<path d="M74162 18779
L73847 18779
L74162 18600
L73847 18600
" />
<path d="M74162 18450
L73847 18450
L73847 18375
L73862 18330
L73892 18300
L73922 18285
L73982 18270
L74027 18270
L74087 18285
L74117 18300
L74147 18330
L74162 18375
L74162 18450
" />
<path d="M73159 19007
L73174 18962
L73174 18887
L73159 18857
L73144 18842
L73114 18827
L73084 18827
L73054 18842
L73039 18857
L73024 18887
L73009 18947
L72994 18977
L72979 18992
L72949 19007
L72919 19007
L72889 18992
L72874 18977
L72859 18947
L72859 18872
L72874 18827
" />
<path d="M72859 18737
L72859 18557
" />
<path d="M73174 18647
L72859 18647
" />
<path d="M71847 19109
L72162 19004
L71847 18899
" />
<path d="M72132 18615
L72147 18630
L72162 18675
L72162 18704
L72147 18749
L72117 18779
L72087 18794
L72027 18809
L71982 18809
L71922 18794
L71892 18779
L71862 18749
L71847 18704
L71847 18675
L71862 18630
L71877 18615
" />
<path d="M72132 18300
L72147 18315
L72162 18360
L72162 18390
L72147 18435
L72117 18465
L72087 18480
L72027 18495
L71982 18495
L71922 18480
L71892 18465
L71862 18435
L71847 18390
L71847 18360
L71862 18315
L71877 18300
" />
<path d="M70997 18794
L70997 18899
" />
<path d="M71162 18899
L70847 18899
L70847 18749
" />
<path d="M70952 18495
L71162 18495
" />
<path d="M70832 18570
L71057 18645
L71057 18450
" />
<path d="M66997 18817
L67012 18772
L67027 18757
L67057 18742
L67102 18742
L67132 18757
L67147 18772
L67162 18802
L67162 18922
L66847 18922
L66847 18817
L66862 18787
L66877 18772
L66907 18757
L66937 18757
L66967 18772
L66982 18787
L66997 18817
L66997 18922
" />
<path d="M67162 18442
L67162 18622
" />
<path d="M67162 18532
L66847 18532
L66892 18562
L66922 18592
L66937 18622
" />
<path d="M65997 18817
L66012 18772
L66027 18757
L66057 18742
L66102 18742
L66132 18757
L66147 18772
L66162 18802
L66162 18922
L65847 18922
L65847 18817
L65862 18787
L65877 18772
L65907 18757
L65937 18757
L65967 18772
L65982 18787
L65997 18817
L65997 18922
" />
<path d="M65847 18637
L65847 18442
L65967 18547
L65967 18502
L65982 18472
L65997 18457
L66027 18442
L66102 18442
L66132 18457
L66147 18472
L66162 18502
L66162 18592
L66147 18622
L66132 18637
" />
<path d="M63997 18817
L64012 18772
L64027 18757
L64057 18742
L64102 18742
L64132 18757
L64147 18772
L64162 18802
L64162 18922
L63847 18922
L63847 18817
L63862 18787
L63877 18772
L63907 18757
L63937 18757
L63967 18772
L63982 18787
L63997 18817
L63997 18922
" />
<path d="M63847 18472
L63847 18532
L63862 18562
L63877 18577
L63922 18607
L63982 18622
L64102 18622
L64132 18607
L64147 18592
L64162 18562
L64162 18502
L64147 18472
L64132 18457
L64102 18442
L64027 18442
L63997 18457
L63982 18472
L63967 18502
L63967 18562
L63982 18592
L63997 18607
L64027 18622
" />
<path d="M63997 14517
L64012 14472
L64027 14457
L64057 14442
L64102 14442
L64132 14457
L64147 14472
L64162 14502
L64162 14622
L63847 14622
L63847 14517
L63862 14487
L63877 14472
L63907 14457
L63937 14457
L63967 14472
L63982 14487
L63997 14517
L63997 14622
" />
<path d="M63847 14157
L63847 14307
L63997 14322
L63982 14307
L63967 14277
L63967 14202
L63982 14172
L63997 14157
L64027 14142
L64102 14142
L64132 14157
L64147 14172
L64162 14202
L64162 14277
L64147 14307
L64132 14322
" />
<path d="M64997 14517
L65012 14472
L65027 14457
L65057 14442
L65102 14442
L65132 14457
L65147 14472
L65162 14502
L65162 14622
L64847 14622
L64847 14517
L64862 14487
L64877 14472
L64907 14457
L64937 14457
L64967 14472
L64982 14487
L64997 14517
L64997 14622
" />
<path d="M64952 14172
L65162 14172
" />
<path d="M64832 14247
L65057 14322
L65057 14127
" />
<path d="M65997 14607
L65997 14502
" />
<path d="M66162 14457
L66162 14607
L65847 14607
L65847 14457
" />
<path d="M65847 14187
L65847 14247
L65862 14277
L65877 14292
L65922 14322
L65982 14337
L66102 14337
L66132 14322
L66147 14307
L66162 14277
L66162 14217
L66147 14187
L66132 14172
L66102 14157
L66027 14157
L65997 14172
L65982 14187
L65967 14217
L65967 14277
L65982 14307
L65997 14322
L66027 14337
" />
<path d="M67162 14622
L66847 14622
L66847 14547
L66862 14502
L66892 14472
L66922 14457
L66982 14442
L67027 14442
L67087 14457
L67117 14472
L67147 14502
L67162 14547
L67162 14622
" />
<path d="M66847 14337
L66847 14127
L67162 14262
" />
<path d="M68132 14442
L68147 14457
L68162 14502
L68162 14532
L68147 14577
L68117 14607
L68087 14622
L68027 14637
L67982 14637
L67922 14622
L67892 14607
L67862 14577
L67847 14532
L67847 14502
L67862 14457
L67877 14442
" />
<path d="M67847 14172
L67847 14232
L67862 14262
L67877 14277
L67922 14307
L67982 14322
L68102 14322
L68132 14307
L68147 14292
L68162 14262
L68162 14202
L68147 14172
L68132 14157
L68102 14142
L68027 14142
L67997 14157
L67982 14172
L67967 14202
L67967 14262
L67982 14292
L67997 14307
L68027 14322
" />
<path d="M69162 14622
L68847 14622
L68847 14547
L68862 14502
L68892 14472
L68922 14457
L68982 14442
L69027 14442
L69087 14457
L69117 14472
L69147 14502
L69162 14547
L69162 14622
" />
<path d="M68952 14172
L69162 14172
" />
<path d="M68832 14247
L69057 14322
L69057 14127
" />
<path d="M72862 14629
L72847 14659
L72847 14704
L72862 14749
L72892 14779
L72922 14794
L72982 14809
L73027 14809
L73087 14794
L73117 14779
L73147 14749
L73162 14704
L73162 14674
L73147 14629
L73132 14614
L73027 14614
L73027 14674
" />
<path d="M73162 14479
L72847 14479
L73162 14300
L72847 14300
" />
<path d="M73162 14150
L72847 14150
L72847 14075
L72862 14030
L72892 14000
L72922 13985
L72982 13970
L73027 13970
L73087 13985
L73117 14000
L73147 14030
L73162 14075
L73162 14150
" />
<path d="M71862 14629
L71847 14659
L71847 14704
L71862 14749
L71892 14779
L71922 14794
L71982 14809
L72027 14809
L72087 14794
L72117 14779
L72147 14749
L72162 14704
L72162 14674
L72147 14629
L72132 14614
L72027 14614
L72027 14674
" />
<path d="M72162 14479
L71847 14479
L72162 14300
L71847 14300
" />
<path d="M72162 14150
L71847 14150
L71847 14075
L71862 14030
L71892 14000
L71922 13985
L71982 13970
L72027 13970
L72087 13985
L72117 14000
L72147 14030
L72162 14075
L72162 14150
" />
<path d="M71162 14622
L70847 14622
L70847 14547
L70862 14502
L70892 14472
L70922 14457
L70982 14442
L71027 14442
L71087 14457
L71117 14472
L71147 14502
L71162 14547
L71162 14622
" />
<path d="M71162 14142
L71162 14322
" />
<path d="M71162 14232
L70847 14232
L70892 14262
L70922 14292
L70937 14322
" />
<path d="M70162 14622
L69847 14622
L69847 14547
L69862 14502
L69892 14472
L69922 14457
L69982 14442
L70027 14442
L70087 14457
L70117 14472
L70147 14502
L70162 14547
L70162 14622
" />
<path d="M69847 14247
L69847 14217
L69862 14187
L69877 14172
L69907 14157
L69967 14142
L70042 14142
L70102 14157
L70132 14172
L70147 14187
L70162 14217
L70162 14247
L70147 14277
L70132 14292
L70102 14307
L70042 14322
L69967 14322
L69907 14307
L69877 14292
L69862 14277
L69847 14247
" />
<path d="M74162 14622
L73847 14622
L73847 14547
L73862 14502
L73892 14472
L73922 14457
L73982 14442
L74027 14442
L74087 14457
L74117 14472
L74147 14502
L74162 14547
L74162 14622
" />
<path d="M73877 14322
L73862 14307
L73847 14277
L73847 14202
L73862 14172
L73877 14157
L73907 14142
L73937 14142
L73982 14157
L74162 14337
L74162 14142
" />
<path d="M74847 15996
L74847 15816
" />
<path d="M75162 15906
L74847 15906
" />
<path d="M74847 15741
L75162 15531
" />
<path d="M74847 15531
L75162 15741
" />
<path d="M74847 15351
L74847 15321
L74862 15291
L74877 15276
L74907 15261
L74967 15246
L75042 15246
L75102 15261
L75132 15276
L75147 15291
L75162 15321
L75162 15351
L75147 15381
L75132 15396
L75102 15411
L75042 15426
L74967 15426
L74907 15411
L74877 15396
L74862 15381
L74847 15351
" />
<path d="M74832 14886
L75237 15156
" />
<path d="M75162 14781
L74847 14781
L74847 14706
L74862 14661
L74892 14631
L74922 14616
L74982 14601
L75027 14601
L75087 14616
L75117 14631
L75147 14661
L75162 14706
L75162 14781
" />
<path d="M74847 14496
L74847 14301
L74967 14406
L74967 14361
L74982 14331
L74997 14316
L75027 14301
L75102 14301
L75132 14316
L75147 14331
L75162 14361
L75162 14451
L75147 14481
L75132 14496
" />
<path d="M53148 15136
L53148 15454
L53167 15492
L53186 15511
L53223 15529
L53298 15529
L53336 15511
L53355 15492
L53373 15454
L53373 15136
" />
<path d="M53542 15511
L53598 15529
L53692 15529
L53730 15511
L53748 15492
L53767 15454
L53767 15417
L53748 15379
L53730 15361
L53692 15342
L53617 15323
L53580 15304
L53561 15286
L53542 15248
L53542 15211
L53561 15173
L53580 15154
L53617 15136
L53711 15136
L53767 15154
" />
<path d="M54067 15323
L54123 15342
L54142 15361
L54161 15398
L54161 15454
L54142 15492
L54123 15511
L54086 15529
L53936 15529
L53936 15136
L54067 15136
L54105 15154
L54123 15173
L54142 15211
L54142 15248
L54123 15286
L54105 15304
L54067 15323
L53936 15323
" />
<path d="M54236 15567
L54536 15567
" />
<path d="M54854 15492
L54836 15511
L54779 15529
L54742 15529
L54686 15511
L54648 15473
L54629 15436
L54611 15361
L54611 15304
L54629 15229
L54648 15192
L54686 15154
L54742 15136
L54779 15136
L54836 15154
L54854 15173
" />
<path d="M55229 15529
L55004 15529
" />
<path d="M55117 15529
L55117 15136
L55079 15192
L55042 15229
L55004 15248
" />
<path d="M21196 73483
L21063 73197
L21131 73166
L21178 73160
L21218 73175
L21244 73196
L21283 73244
L21302 73284
L21314 73345
L21313 73379
L21298 73418
L21264 73451
L21196 73483
" />
<path d="M21403 73039
L21430 73026
L21463 73027
L21483 73034
L21510 73055
L21549 73103
L21580 73171
L21592 73232
L21591 73265
L21584 73285
L21563 73312
L21536 73324
L21502 73323
L21482 73316
L21456 73295
L21417 73247
L21385 73179
L21374 73119
L21375 73085
L21382 73065
L21403 73039
" />
<path d="M21741 73196
L21761 73203
L21753 73223
L21733 73216
L21741 73196
L21753 73223
" />
<path d="M21671 73046
L21691 73053
L21684 73073
L21664 73066
L21671 73046
L21684 73073
" />
<path d="M22039 73090
L21876 73166
" />
<path d="M21957 73128
L21824 72842
L21816 72896
L21801 72936
L21781 72962
" />
<path d="M28165 61569
L28450 61436
L28482 61504
L28487 61551
L28473 61591
L28452 61617
L28404 61656
L28363 61675
L28303 61687
L28269 61686
L28229 61672
L28197 61637
L28165 61569
" />
<path d="M28609 61776
L28621 61803
L28621 61837
L28613 61857
L28592 61883
L28544 61922
L28476 61953
L28416 61965
L28382 61964
L28362 61957
L28336 61936
L28323 61909
L28324 61876
L28331 61856
L28352 61829
L28400 61790
L28468 61759
L28529 61747
L28563 61748
L28582 61755
L28609 61776
" />
<path d="M28452 62114
L28445 62134
L28425 62127
L28432 62107
L28452 62114
L28425 62127
" />
<path d="M28601 62044
L28594 62064
L28574 62057
L28582 62037
L28601 62044
L28574 62057
" />
<path d="M28740 62128
L28760 62136
L28786 62157
L28818 62225
L28817 62258
L28810 62278
L28789 62304
L28762 62317
L28715 62322
L28475 62235
L28558 62412
" />
<path d="M34981 58421
L35266 58288
L35298 58356
L35303 58403
L35289 58443
L35268 58469
L35220 58508
L35179 58527
L35118 58539
L35085 58538
L35045 58524
L35013 58489
L34981 58421
" />
<path d="M35425 58628
L35437 58655
L35436 58689
L35429 58709
L35408 58735
L35360 58774
L35292 58806
L35232 58817
L35198 58816
L35178 58809
L35152 58788
L35139 58761
L35140 58728
L35147 58708
L35168 58681
L35216 58642
L35284 58611
L35345 58599
L35379 58600
L35398 58607
L35425 58628
" />
<path d="M35268 58966
L35261 58986
L35241 58979
L35248 58959
L35268 58966
L35241 58979
" />
<path d="M35417 58896
L35410 58916
L35390 58909
L35397 58889
L35417 58896
L35390 58909
" />
<path d="M35577 58954
L35659 59131
L35506 59086
L35525 59127
L35524 59161
L35517 59181
L35496 59207
L35428 59239
L35395 59238
L35375 59230
L35348 59210
L35310 59128
L35311 59095
L35319 59075
" />
<path d="M18061 66910
L17928 66624
L17996 66593
L18043 66587
L18083 66602
L18109 66623
L18148 66671
L18167 66711
L18179 66772
L18178 66806
L18163 66845
L18129 66878
L18061 66910
" />
<path d="M18268 66466
L18295 66453
L18328 66454
L18348 66461
L18375 66482
L18414 66530
L18445 66598
L18457 66659
L18456 66692
L18449 66712
L18428 66739
L18401 66751
L18367 66750
L18347 66743
L18321 66722
L18282 66674
L18251 66606
L18239 66546
L18240 66512
L18247 66492
L18268 66466
" />
<path d="M18606 66623
L18626 66630
L18618 66650
L18598 66643
L18606 66623
L18618 66650
" />
<path d="M18536 66473
L18556 66480
L18549 66500
L18529 66493
L18536 66473
L18549 66500
" />
<path d="M18788 66339
L18877 66529
" />
<path d="M18669 66262
L18696 66498
L18873 66415
" />
<path d="M21591 56800
L21458 56514
L21526 56483
L21573 56477
L21613 56492
L21639 56513
L21678 56561
L21697 56601
L21709 56662
L21708 56696
L21693 56735
L21659 56768
L21591 56800
" />
<path d="M21798 56356
L21825 56343
L21858 56344
L21878 56351
L21905 56372
L21944 56420
L21975 56488
L21987 56549
L21986 56582
L21979 56602
L21958 56629
L21931 56641
L21897 56640
L21877 56633
L21851 56612
L21812 56564
L21781 56496
L21769 56436
L21770 56402
L21777 56382
L21798 56356
" />
<path d="M22136 56513
L22156 56520
L22148 56540
L22128 56533
L22136 56513
L22148 56540
" />
<path d="M22066 56363
L22086 56370
L22079 56390
L22059 56383
L22066 56363
L22079 56390
" />
<path d="M22287 56128
L22151 56191
L22201 56333
L22208 56313
L22229 56287
L22297 56255
L22331 56256
L22350 56264
L22377 56284
L22408 56352
L22408 56386
L22400 56406
L22379 56432
L22311 56464
L22278 56463
L22258 56456
" />
<path d="M14819 59876
L14686 59590
L14754 59559
L14801 59553
L14841 59568
L14867 59589
L14906 59637
L14925 59677
L14937 59738
L14936 59772
L14921 59811
L14887 59844
L14819 59876
" />
<path d="M15026 59432
L15053 59419
L15086 59420
L15106 59427
L15133 59448
L15172 59496
L15203 59564
L15215 59625
L15214 59658
L15207 59678
L15186 59705
L15159 59717
L15125 59716
L15105 59709
L15079 59688
L15040 59640
L15008 59572
L14997 59512
L14998 59478
L15005 59458
L15026 59432
" />
<path d="M15364 59589
L15384 59596
L15376 59616
L15356 59609
L15364 59589
L15376 59616
" />
<path d="M15294 59439
L15314 59446
L15307 59466
L15287 59459
L15294 59439
L15307 59466
" />
<path d="M15501 59210
L15447 59235
L15426 59262
L15419 59282
L15411 59335
L15423 59396
L15473 59504
L15500 59525
L15520 59533
L15553 59533
L15607 59508
L15628 59482
L15635 59462
L15636 59428
L15605 59360
L15578 59340
L15559 59332
L15525 59331
L15471 59357
L15450 59383
L15443 59403
L15442 59436
" />
<path d="M73069 59980
L73069 59665
L73144 59665
L73189 59680
L73219 59710
L73234 59740
L73249 59800
L73249 59845
L73234 59905
L73219 59935
L73189 59965
L73144 59980
L73069 59980
" />
<path d="M73549 59980
L73369 59980
" />
<path d="M73459 59980
L73459 59665
L73429 59710
L73399 59740
L73369 59755
" />
<path d="M73684 59950
L73699 59965
L73684 59980
L73669 59965
L73684 59950
L73684 59980
" />
<path d="M73684 59785
L73699 59800
L73684 59815
L73669 59800
L73684 59785
L73684 59815
" />
<path d="M73894 59665
L73924 59665
L73954 59680
L73969 59695
L73984 59725
L73999 59785
L73999 59860
L73984 59920
L73969 59950
L73954 59965
L73924 59980
L73894 59980
L73864 59965
L73849 59950
L73834 59920
L73819 59860
L73819 59785
L73834 59725
L73849 59695
L73864 59680
L73894 59665
" />
<path d="M58082 59043
L58082 58728
L58157 58728
L58202 58743
L58232 58773
L58247 58803
L58262 58863
L58262 58908
L58247 58968
L58232 58998
L58202 59028
L58157 59043
L58082 59043
" />
<path d="M58562 59043
L58382 59043
" />
<path d="M58472 59043
L58472 58728
L58442 58773
L58412 58803
L58382 58818
" />
<path d="M58697 59013
L58712 59028
L58697 59043
L58682 59028
L58697 59013
L58697 59043
" />
<path d="M58697 58848
L58712 58863
L58697 58878
L58682 58863
L58697 58848
L58697 58878
" />
<path d="M58832 58758
L58847 58743
L58877 58728
L58952 58728
L58982 58743
L58997 58758
L59012 58788
L59012 58818
L58997 58863
L58817 59043
L59012 59043
" />
<path d="M50532 58193
L50532 57878
L50607 57878
L50652 57893
L50682 57923
L50697 57953
L50712 58013
L50712 58058
L50697 58118
L50682 58148
L50652 58178
L50607 58193
L50532 58193
" />
<path d="M51012 58193
L50832 58193
" />
<path d="M50922 58193
L50922 57878
L50892 57923
L50862 57953
L50832 57968
" />
<path d="M51147 58163
L51162 58178
L51147 58193
L51132 58178
L51147 58163
L51147 58193
" />
<path d="M51147 57998
L51162 58013
L51147 58028
L51132 58013
L51147 57998
L51147 58028
" />
<path d="M51267 57878
L51462 57878
L51357 57998
L51402 57998
L51432 58013
L51447 58028
L51462 58058
L51462 58133
L51447 58163
L51432 58178
L51402 58193
L51312 58193
L51282 58178
L51267 58163
" />
<path d="M42982 58743
L42982 58428
L43057 58428
L43102 58443
L43132 58473
L43147 58503
L43162 58563
L43162 58608
L43147 58668
L43132 58698
L43102 58728
L43057 58743
L42982 58743
" />
<path d="M43462 58743
L43282 58743
" />
<path d="M43372 58743
L43372 58428
L43342 58473
L43312 58503
L43282 58518
" />
<path d="M43597 58713
L43612 58728
L43597 58743
L43582 58728
L43597 58713
L43597 58743
" />
<path d="M43597 58548
L43612 58563
L43597 58578
L43582 58563
L43597 58548
L43597 58578
" />
<path d="M43882 58533
L43882 58743
" />
<path d="M43807 58413
L43732 58638
L43927 58638
" />
<path d="M29019 54793
L28886 54507
L28954 54476
L29001 54470
L29041 54485
L29067 54506
L29106 54554
L29125 54594
L29137 54655
L29136 54689
L29121 54728
L29087 54761
L29019 54793
" />
<path d="M29454 54590
L29291 54666
" />
<path d="M29372 54628
L29239 54343
L29231 54396
L29217 54436
L29196 54462
" />
<path d="M29564 54506
L29584 54513
L29576 54533
L29556 54526
L29564 54506
L29576 54533
" />
<path d="M29494 54356
L29514 54363
L29507 54383
L29487 54376
L29494 54356
L29507 54383
" />
<path d="M29715 54121
L29579 54184
L29629 54326
L29636 54306
L29657 54280
L29725 54248
L29759 54249
L29778 54257
L29805 54277
L29836 54345
L29835 54379
L29828 54399
L29807 54425
L29739 54457
L29706 54456
L29686 54449
" />
<path d="M22219 57976
L22086 57690
L22154 57659
L22201 57653
L22241 57668
L22267 57689
L22306 57737
L22325 57777
L22337 57838
L22336 57872
L22321 57911
L22287 57944
L22219 57976
" />
<path d="M22654 57773
L22491 57849
" />
<path d="M22572 57811
L22439 57525
L22431 57579
L22417 57619
L22396 57645
" />
<path d="M22764 57689
L22784 57696
L22776 57716
L22756 57709
L22764 57689
L22776 57716
" />
<path d="M22694 57539
L22714 57546
L22707 57566
L22687 57559
L22694 57539
L22707 57566
" />
<path d="M22901 57310
L22847 57335
L22826 57362
L22819 57382
L22811 57435
L22823 57496
L22873 57604
L22900 57625
L22920 57633
L22953 57633
L23007 57608
L23028 57582
L23035 57562
L23036 57528
L23005 57460
L22978 57440
L22959 57432
L22925 57431
L22871 57457
L22850 57483
L22843 57503
L22842 57536
" />
<path d="M65457 59970
L65457 59655
L65532 59655
L65577 59670
L65607 59700
L65622 59730
L65637 59790
L65637 59835
L65622 59895
L65607 59925
L65577 59955
L65532 59970
L65457 59970
" />
<path d="M65937 59970
L65757 59970
" />
<path d="M65847 59970
L65847 59655
L65817 59700
L65787 59730
L65757 59745
" />
<path d="M66072 59940
L66087 59955
L66072 59970
L66057 59955
L66072 59940
L66072 59970
" />
<path d="M66072 59775
L66087 59790
L66072 59805
L66057 59790
L66072 59775
L66072 59805
" />
<path d="M66222 59940
L66237 59955
L66222 59970
L66207 59955
L66222 59940
L66222 59970
" />
<path d="M66222 59850
L66207 59670
L66222 59655
L66237 59670
L66222 59850
L66222 59655
" />
<path d="M66537 59970
L66357 59970
" />
<path d="M66447 59970
L66447 59655
L66417 59700
L66387 59730
L66357 59745
" />
<path d="M74882 52743
L74882 52428
L74957 52428
L75002 52443
L75032 52473
L75047 52503
L75062 52563
L75062 52608
L75047 52668
L75032 52698
L75002 52728
L74957 52743
L74882 52743
" />
<path d="M75182 52458
L75197 52443
L75227 52428
L75302 52428
L75332 52443
L75347 52458
L75362 52488
L75362 52518
L75347 52563
L75167 52743
L75362 52743
" />
<path d="M75497 52713
L75512 52728
L75497 52743
L75482 52728
L75497 52713
L75497 52743
" />
<path d="M75497 52548
L75512 52563
L75497 52578
L75482 52563
L75497 52548
L75497 52578
" />
<path d="M75707 52428
L75737 52428
L75767 52443
L75782 52458
L75797 52488
L75812 52548
L75812 52623
L75797 52683
L75782 52713
L75767 52728
L75737 52743
L75707 52743
L75677 52728
L75662 52713
L75647 52683
L75632 52623
L75632 52548
L75647 52488
L75662 52458
L75677 52443
L75707 52428
" />
<path d="M65532 52793
L65532 52478
L65607 52478
L65652 52493
L65682 52523
L65697 52553
L65712 52613
L65712 52658
L65697 52718
L65682 52748
L65652 52778
L65607 52793
L65532 52793
" />
<path d="M65832 52508
L65847 52493
L65877 52478
L65952 52478
L65982 52493
L65997 52508
L66012 52538
L66012 52568
L65997 52613
L65817 52793
L66012 52793
" />
<path d="M66147 52763
L66162 52778
L66147 52793
L66132 52778
L66147 52763
L66147 52793
" />
<path d="M66147 52598
L66162 52613
L66147 52628
L66132 52613
L66147 52598
L66147 52628
" />
<path d="M66462 52793
L66282 52793
" />
<path d="M66372 52793
L66372 52478
L66342 52523
L66312 52553
L66282 52568
" />
<path d="M58032 51543
L58032 51228
L58107 51228
L58152 51243
L58182 51273
L58197 51303
L58212 51363
L58212 51408
L58197 51468
L58182 51498
L58152 51528
L58107 51543
L58032 51543
" />
<path d="M58332 51258
L58347 51243
L58377 51228
L58452 51228
L58482 51243
L58497 51258
L58512 51288
L58512 51318
L58497 51363
L58317 51543
L58512 51543
" />
<path d="M58647 51513
L58662 51528
L58647 51543
L58632 51528
L58647 51513
L58647 51543
" />
<path d="M58647 51348
L58662 51363
L58647 51378
L58632 51363
L58647 51348
L58647 51378
" />
<path d="M58782 51258
L58797 51243
L58827 51228
L58902 51228
L58932 51243
L58947 51258
L58962 51288
L58962 51318
L58947 51363
L58767 51543
L58962 51543
" />
<path d="M50532 50893
L50532 50578
L50607 50578
L50652 50593
L50682 50623
L50697 50653
L50712 50713
L50712 50758
L50697 50818
L50682 50848
L50652 50878
L50607 50893
L50532 50893
" />
<path d="M50832 50608
L50847 50593
L50877 50578
L50952 50578
L50982 50593
L50997 50608
L51012 50638
L51012 50668
L50997 50713
L50817 50893
L51012 50893
" />
<path d="M51147 50863
L51162 50878
L51147 50893
L51132 50878
L51147 50863
L51147 50893
" />
<path d="M51147 50698
L51162 50713
L51147 50728
L51132 50713
L51147 50698
L51147 50728
" />
<path d="M51267 50578
L51462 50578
L51357 50698
L51402 50698
L51432 50713
L51447 50728
L51462 50758
L51462 50833
L51447 50863
L51432 50878
L51402 50893
L51312 50893
L51282 50878
L51267 50863
" />
<path d="M43032 51543
L43032 51228
L43107 51228
L43152 51243
L43182 51273
L43197 51303
L43212 51363
L43212 51408
L43197 51468
L43182 51498
L43152 51528
L43107 51543
L43032 51543
" />
<path d="M43332 51258
L43347 51243
L43377 51228
L43452 51228
L43482 51243
L43497 51258
L43512 51288
L43512 51318
L43497 51363
L43317 51543
L43512 51543
" />
<path d="M43647 51513
L43662 51528
L43647 51543
L43632 51528
L43647 51513
L43647 51543
" />
<path d="M43647 51348
L43662 51363
L43647 51378
L43632 51363
L43647 51348
L43647 51378
" />
<path d="M43932 51333
L43932 51543
" />
<path d="M43857 51213
L43782 51438
L43977 51438
" />
<path d="M35532 51993
L35532 51678
L35607 51678
L35652 51693
L35682 51723
L35697 51753
L35712 51813
L35712 51858
L35697 51918
L35682 51948
L35652 51978
L35607 51993
L35532 51993
" />
<path d="M35832 51708
L35847 51693
L35877 51678
L35952 51678
L35982 51693
L35997 51708
L36012 51738
L36012 51768
L35997 51813
L35817 51993
L36012 51993
" />
<path d="M36147 51963
L36162 51978
L36147 51993
L36132 51978
L36147 51963
L36147 51993
" />
<path d="M36147 51798
L36162 51813
L36147 51828
L36132 51813
L36147 51798
L36147 51828
" />
<path d="M36447 51678
L36297 51678
L36282 51828
L36297 51813
L36327 51798
L36402 51798
L36432 51813
L36447 51828
L36462 51858
L36462 51933
L36447 51963
L36432 51978
L36402 51993
L36327 51993
L36297 51978
L36282 51963
" />
<path d="M32173 46707
L31858 46707
L31858 46632
L31873 46587
L31903 46557
L31933 46542
L31993 46527
L32038 46527
L32098 46542
L32128 46557
L32158 46587
L32173 46632
L32173 46707
" />
<path d="M31888 46407
L31873 46392
L31858 46362
L31858 46287
L31873 46257
L31888 46242
L31918 46227
L31948 46227
L31993 46242
L32173 46422
L32173 46227
" />
<path d="M32143 46092
L32158 46077
L32173 46092
L32158 46107
L32143 46092
L32173 46092
" />
<path d="M31978 46092
L31993 46077
L32008 46092
L31993 46107
L31978 46092
L32008 46092
" />
<path d="M31858 45807
L31858 45867
L31873 45897
L31888 45912
L31933 45942
L31993 45957
L32113 45957
L32143 45942
L32158 45927
L32173 45897
L32173 45837
L32158 45807
L32143 45792
L32113 45777
L32038 45777
L32008 45792
L31993 45807
L31978 45837
L31978 45897
L31993 45927
L32008 45942
L32038 45957
" />
<path d="M74932 45293
L74932 44978
L75007 44978
L75052 44993
L75082 45023
L75097 45053
L75112 45113
L75112 45158
L75097 45218
L75082 45248
L75052 45278
L75007 45293
L74932 45293
" />
<path d="M75217 44978
L75412 44978
L75307 45098
L75352 45098
L75382 45113
L75397 45128
L75412 45158
L75412 45233
L75397 45263
L75382 45278
L75352 45293
L75262 45293
L75232 45278
L75217 45263
" />
<path d="M75547 45263
L75562 45278
L75547 45293
L75532 45278
L75547 45263
L75547 45293
" />
<path d="M75547 45098
L75562 45113
L75547 45128
L75532 45113
L75547 45098
L75547 45128
" />
<path d="M75757 44978
L75787 44978
L75817 44993
L75832 45008
L75847 45038
L75862 45098
L75862 45173
L75847 45233
L75832 45263
L75817 45278
L75787 45293
L75757 45293
L75727 45278
L75712 45263
L75697 45233
L75682 45173
L75682 45098
L75697 45038
L75712 45008
L75727 44993
L75757 44978
" />
<path d="M65482 45193
L65482 44878
L65557 44878
L65602 44893
L65632 44923
L65647 44953
L65662 45013
L65662 45058
L65647 45118
L65632 45148
L65602 45178
L65557 45193
L65482 45193
" />
<path d="M65767 44878
L65962 44878
L65857 44998
L65902 44998
L65932 45013
L65947 45028
L65962 45058
L65962 45133
L65947 45163
L65932 45178
L65902 45193
L65812 45193
L65782 45178
L65767 45163
" />
<path d="M66097 45163
L66112 45178
L66097 45193
L66082 45178
L66097 45163
L66097 45193
" />
<path d="M66097 44998
L66112 45013
L66097 45028
L66082 45013
L66097 44998
L66097 45028
" />
<path d="M66412 45193
L66232 45193
" />
<path d="M66322 45193
L66322 44878
L66292 44923
L66262 44953
L66232 44968
" />
<path d="M58032 44043
L58032 43728
L58107 43728
L58152 43743
L58182 43773
L58197 43803
L58212 43863
L58212 43908
L58197 43968
L58182 43998
L58152 44028
L58107 44043
L58032 44043
" />
<path d="M58317 43728
L58512 43728
L58407 43848
L58452 43848
L58482 43863
L58497 43878
L58512 43908
L58512 43983
L58497 44013
L58482 44028
L58452 44043
L58362 44043
L58332 44028
L58317 44013
" />
<path d="M58647 44013
L58662 44028
L58647 44043
L58632 44028
L58647 44013
L58647 44043
" />
<path d="M58647 43848
L58662 43863
L58647 43878
L58632 43863
L58647 43848
L58647 43878
" />
<path d="M58782 43758
L58797 43743
L58827 43728
L58902 43728
L58932 43743
L58947 43758
L58962 43788
L58962 43818
L58947 43863
L58767 44043
L58962 44043
" />
<path d="M50532 43393
L50532 43078
L50607 43078
L50652 43093
L50682 43123
L50697 43153
L50712 43213
L50712 43258
L50697 43318
L50682 43348
L50652 43378
L50607 43393
L50532 43393
" />
<path d="M50817 43078
L51012 43078
L50907 43198
L50952 43198
L50982 43213
L50997 43228
L51012 43258
L51012 43333
L50997 43363
L50982 43378
L50952 43393
L50862 43393
L50832 43378
L50817 43363
" />
<path d="M51147 43363
L51162 43378
L51147 43393
L51132 43378
L51147 43363
L51147 43393
" />
<path d="M51147 43198
L51162 43213
L51147 43228
L51132 43213
L51147 43198
L51147 43228
" />
<path d="M51267 43078
L51462 43078
L51357 43198
L51402 43198
L51432 43213
L51447 43228
L51462 43258
L51462 43333
L51447 43363
L51432 43378
L51402 43393
L51312 43393
L51282 43378
L51267 43363
" />
<path d="M43082 44043
L43082 43728
L43157 43728
L43202 43743
L43232 43773
L43247 43803
L43262 43863
L43262 43908
L43247 43968
L43232 43998
L43202 44028
L43157 44043
L43082 44043
" />
<path d="M43367 43728
L43562 43728
L43457 43848
L43502 43848
L43532 43863
L43547 43878
L43562 43908
L43562 43983
L43547 44013
L43532 44028
L43502 44043
L43412 44043
L43382 44028
L43367 44013
" />
<path d="M43697 44013
L43712 44028
L43697 44043
L43682 44028
L43697 44013
L43697 44043
" />
<path d="M43697 43848
L43712 43863
L43697 43878
L43682 43863
L43697 43848
L43697 43878
" />
<path d="M43982 43833
L43982 44043
" />
<path d="M43907 43713
L43832 43938
L44027 43938
" />
<path d="M35532 44493
L35532 44178
L35607 44178
L35652 44193
L35682 44223
L35697 44253
L35712 44313
L35712 44358
L35697 44418
L35682 44448
L35652 44478
L35607 44493
L35532 44493
" />
<path d="M35817 44178
L36012 44178
L35907 44298
L35952 44298
L35982 44313
L35997 44328
L36012 44358
L36012 44433
L35997 44463
L35982 44478
L35952 44493
L35862 44493
L35832 44478
L35817 44463
" />
<path d="M36147 44463
L36162 44478
L36147 44493
L36132 44478
L36147 44463
L36147 44493
" />
<path d="M36147 44298
L36162 44313
L36147 44328
L36132 44313
L36147 44298
L36147 44328
" />
<path d="M36447 44178
L36297 44178
L36282 44328
L36297 44313
L36327 44298
L36402 44298
L36432 44313
L36447 44328
L36462 44358
L36462 44433
L36447 44463
L36432 44478
L36402 44493
L36327 44493
L36297 44478
L36282 44463
" />
<path d="M74872 37543
L74872 37228
L74947 37228
L74992 37243
L75022 37273
L75037 37303
L75052 37363
L75052 37408
L75037 37468
L75022 37498
L74992 37528
L74947 37543
L74872 37543
" />
<path d="M75322 37333
L75322 37543
" />
<path d="M75247 37213
L75172 37438
L75367 37438
" />
<path d="M75487 37513
L75502 37528
L75487 37543
L75472 37528
L75487 37513
L75487 37543
" />
<path d="M75487 37348
L75502 37363
L75487 37378
L75472 37363
L75487 37348
L75487 37378
" />
<path d="M75697 37228
L75727 37228
L75757 37243
L75772 37258
L75787 37288
L75802 37348
L75802 37423
L75787 37483
L75772 37513
L75757 37528
L75727 37543
L75697 37543
L75667 37528
L75652 37513
L75637 37483
L75622 37423
L75622 37348
L75637 37288
L75652 37258
L75667 37243
L75697 37228
" />
<path d="M65532 37743
L65532 37428
L65607 37428
L65652 37443
L65682 37473
L65697 37503
L65712 37563
L65712 37608
L65697 37668
L65682 37698
L65652 37728
L65607 37743
L65532 37743
" />
<path d="M65982 37533
L65982 37743
" />
<path d="M65907 37413
L65832 37638
L66027 37638
" />
<path d="M66147 37713
L66162 37728
L66147 37743
L66132 37728
L66147 37713
L66147 37743
" />
<path d="M66147 37548
L66162 37563
L66147 37578
L66132 37563
L66147 37548
L66147 37578
" />
<path d="M66462 37743
L66282 37743
" />
<path d="M66372 37743
L66372 37428
L66342 37473
L66312 37503
L66282 37518
" />
<path d="M58082 36543
L58082 36228
L58157 36228
L58202 36243
L58232 36273
L58247 36303
L58262 36363
L58262 36408
L58247 36468
L58232 36498
L58202 36528
L58157 36543
L58082 36543
" />
<path d="M58532 36333
L58532 36543
" />
<path d="M58457 36213
L58382 36438
L58577 36438
" />
<path d="M58697 36513
L58712 36528
L58697 36543
L58682 36528
L58697 36513
L58697 36543
" />
<path d="M58697 36348
L58712 36363
L58697 36378
L58682 36363
L58697 36348
L58697 36378
" />
<path d="M58832 36258
L58847 36243
L58877 36228
L58952 36228
L58982 36243
L58997 36258
L59012 36288
L59012 36318
L58997 36363
L58817 36543
L59012 36543
" />
<path d="M50482 35893
L50482 35578
L50557 35578
L50602 35593
L50632 35623
L50647 35653
L50662 35713
L50662 35758
L50647 35818
L50632 35848
L50602 35878
L50557 35893
L50482 35893
" />
<path d="M50932 35683
L50932 35893
" />
<path d="M50857 35563
L50782 35788
L50977 35788
" />
<path d="M51097 35863
L51112 35878
L51097 35893
L51082 35878
L51097 35863
L51097 35893
" />
<path d="M51097 35698
L51112 35713
L51097 35728
L51082 35713
L51097 35698
L51097 35728
" />
<path d="M51217 35578
L51412 35578
L51307 35698
L51352 35698
L51382 35713
L51397 35728
L51412 35758
L51412 35833
L51397 35863
L51382 35878
L51352 35893
L51262 35893
L51232 35878
L51217 35863
" />
<path d="M43032 36493
L43032 36178
L43107 36178
L43152 36193
L43182 36223
L43197 36253
L43212 36313
L43212 36358
L43197 36418
L43182 36448
L43152 36478
L43107 36493
L43032 36493
" />
<path d="M43482 36283
L43482 36493
" />
<path d="M43407 36163
L43332 36388
L43527 36388
" />
<path d="M43647 36463
L43662 36478
L43647 36493
L43632 36478
L43647 36463
L43647 36493
" />
<path d="M43647 36298
L43662 36313
L43647 36328
L43632 36313
L43647 36298
L43647 36328
" />
<path d="M43932 36283
L43932 36493
" />
<path d="M43857 36163
L43782 36388
L43977 36388
" />
<path d="M35532 37043
L35532 36728
L35607 36728
L35652 36743
L35682 36773
L35697 36803
L35712 36863
L35712 36908
L35697 36968
L35682 36998
L35652 37028
L35607 37043
L35532 37043
" />
<path d="M35982 36833
L35982 37043
" />
<path d="M35907 36713
L35832 36938
L36027 36938
" />
<path d="M36147 37013
L36162 37028
L36147 37043
L36132 37028
L36147 37013
L36147 37043
" />
<path d="M36147 36848
L36162 36863
L36147 36878
L36132 36863
L36147 36848
L36147 36878
" />
<path d="M36447 36728
L36297 36728
L36282 36878
L36297 36863
L36327 36848
L36402 36848
L36432 36863
L36447 36878
L36462 36908
L36462 36983
L36447 37013
L36432 37028
L36402 37043
L36327 37043
L36297 37028
L36282 37013
" />
<path d="M32193 35427
L31878 35427
L31878 35352
L31893 35307
L31923 35277
L31953 35262
L32013 35247
L32058 35247
L32118 35262
L32148 35277
L32178 35307
L32193 35352
L32193 35427
" />
<path d="M31983 34977
L32193 34977
" />
<path d="M31863 35052
L32088 35127
L32088 34932
" />
<path d="M32163 34812
L32178 34797
L32193 34812
L32178 34827
L32163 34812
L32193 34812
" />
<path d="M31998 34812
L32013 34797
L32028 34812
L32013 34827
L31998 34812
L32028 34812
" />
<path d="M31878 34527
L31878 34587
L31893 34617
L31908 34632
L31953 34662
L32013 34677
L32133 34677
L32163 34662
L32178 34647
L32193 34617
L32193 34557
L32178 34527
L32163 34512
L32133 34497
L32058 34497
L32028 34512
L32013 34527
L31998 34557
L31998 34617
L32013 34647
L32028 34662
L32058 34677
" />
<path d="M74882 30293
L74882 29978
L74957 29978
L75002 29993
L75032 30023
L75047 30053
L75062 30113
L75062 30158
L75047 30218
L75032 30248
L75002 30278
L74957 30293
L74882 30293
" />
<path d="M75347 29978
L75197 29978
L75182 30128
L75197 30113
L75227 30098
L75302 30098
L75332 30113
L75347 30128
L75362 30158
L75362 30233
L75347 30263
L75332 30278
L75302 30293
L75227 30293
L75197 30278
L75182 30263
" />
<path d="M75497 30263
L75512 30278
L75497 30293
L75482 30278
L75497 30263
L75497 30293
" />
<path d="M75497 30098
L75512 30113
L75497 30128
L75482 30113
L75497 30098
L75497 30128
" />
<path d="M75707 29978
L75737 29978
L75767 29993
L75782 30008
L75797 30038
L75812 30098
L75812 30173
L75797 30233
L75782 30263
L75767 30278
L75737 30293
L75707 30293
L75677 30278
L75662 30263
L75647 30233
L75632 30173
L75632 30098
L75647 30038
L75662 30008
L75677 29993
L75707 29978
" />
<path d="M65482 30193
L65482 29878
L65557 29878
L65602 29893
L65632 29923
L65647 29953
L65662 30013
L65662 30058
L65647 30118
L65632 30148
L65602 30178
L65557 30193
L65482 30193
" />
<path d="M65947 29878
L65797 29878
L65782 30028
L65797 30013
L65827 29998
L65902 29998
L65932 30013
L65947 30028
L65962 30058
L65962 30133
L65947 30163
L65932 30178
L65902 30193
L65827 30193
L65797 30178
L65782 30163
" />
<path d="M66097 30163
L66112 30178
L66097 30193
L66082 30178
L66097 30163
L66097 30193
" />
<path d="M66097 29998
L66112 30013
L66097 30028
L66082 30013
L66097 29998
L66097 30028
" />
<path d="M66412 30193
L66232 30193
" />
<path d="M66322 30193
L66322 29878
L66292 29923
L66262 29953
L66232 29968
" />
<path d="M58032 28993
L58032 28678
L58107 28678
L58152 28693
L58182 28723
L58197 28753
L58212 28813
L58212 28858
L58197 28918
L58182 28948
L58152 28978
L58107 28993
L58032 28993
" />
<path d="M58497 28678
L58347 28678
L58332 28828
L58347 28813
L58377 28798
L58452 28798
L58482 28813
L58497 28828
L58512 28858
L58512 28933
L58497 28963
L58482 28978
L58452 28993
L58377 28993
L58347 28978
L58332 28963
" />
<path d="M58647 28963
L58662 28978
L58647 28993
L58632 28978
L58647 28963
L58647 28993
" />
<path d="M58647 28798
L58662 28813
L58647 28828
L58632 28813
L58647 28798
L58647 28828
" />
<path d="M58782 28708
L58797 28693
L58827 28678
L58902 28678
L58932 28693
L58947 28708
L58962 28738
L58962 28768
L58947 28813
L58767 28993
L58962 28993
" />
<path d="M50532 28393
L50532 28078
L50607 28078
L50652 28093
L50682 28123
L50697 28153
L50712 28213
L50712 28258
L50697 28318
L50682 28348
L50652 28378
L50607 28393
L50532 28393
" />
<path d="M50997 28078
L50847 28078
L50832 28228
L50847 28213
L50877 28198
L50952 28198
L50982 28213
L50997 28228
L51012 28258
L51012 28333
L50997 28363
L50982 28378
L50952 28393
L50877 28393
L50847 28378
L50832 28363
" />
<path d="M51147 28363
L51162 28378
L51147 28393
L51132 28378
L51147 28363
L51147 28393
" />
<path d="M51147 28198
L51162 28213
L51147 28228
L51132 28213
L51147 28198
L51147 28228
" />
<path d="M51267 28078
L51462 28078
L51357 28198
L51402 28198
L51432 28213
L51447 28228
L51462 28258
L51462 28333
L51447 28363
L51432 28378
L51402 28393
L51312 28393
L51282 28378
L51267 28363
" />
<path d="M42982 28993
L42982 28678
L43057 28678
L43102 28693
L43132 28723
L43147 28753
L43162 28813
L43162 28858
L43147 28918
L43132 28948
L43102 28978
L43057 28993
L42982 28993
" />
<path d="M43447 28678
L43297 28678
L43282 28828
L43297 28813
L43327 28798
L43402 28798
L43432 28813
L43447 28828
L43462 28858
L43462 28933
L43447 28963
L43432 28978
L43402 28993
L43327 28993
L43297 28978
L43282 28963
" />
<path d="M43597 28963
L43612 28978
L43597 28993
L43582 28978
L43597 28963
L43597 28993
" />
<path d="M43597 28798
L43612 28813
L43597 28828
L43582 28813
L43597 28798
L43597 28828
" />
<path d="M43882 28783
L43882 28993
" />
<path d="M43807 28663
L43732 28888
L43927 28888
" />
<path d="M35532 29543
L35532 29228
L35607 29228
L35652 29243
L35682 29273
L35697 29303
L35712 29363
L35712 29408
L35697 29468
L35682 29498
L35652 29528
L35607 29543
L35532 29543
" />
<path d="M35997 29228
L35847 29228
L35832 29378
L35847 29363
L35877 29348
L35952 29348
L35982 29363
L35997 29378
L36012 29408
L36012 29483
L35997 29513
L35982 29528
L35952 29543
L35877 29543
L35847 29528
L35832 29513
" />
<path d="M36147 29513
L36162 29528
L36147 29543
L36132 29528
L36147 29513
L36147 29543
" />
<path d="M36147 29348
L36162 29363
L36147 29378
L36132 29363
L36147 29348
L36147 29378
" />
<path d="M36447 29228
L36297 29228
L36282 29378
L36297 29363
L36327 29348
L36402 29348
L36432 29363
L36447 29378
L36462 29408
L36462 29483
L36447 29513
L36432 29528
L36402 29543
L36327 29543
L36297 29528
L36282 29513
" />
<path d="M28032 29243
L28032 28928
L28107 28928
L28152 28943
L28182 28973
L28197 29003
L28212 29063
L28212 29108
L28197 29168
L28182 29198
L28152 29228
L28107 29243
L28032 29243
" />
<path d="M28497 28928
L28347 28928
L28332 29078
L28347 29063
L28377 29048
L28452 29048
L28482 29063
L28497 29078
L28512 29108
L28512 29183
L28497 29213
L28482 29228
L28452 29243
L28377 29243
L28347 29228
L28332 29213
" />
<path d="M28647 29213
L28662 29228
L28647 29243
L28632 29228
L28647 29213
L28647 29243
" />
<path d="M28647 29048
L28662 29063
L28647 29078
L28632 29063
L28647 29048
L28647 29078
" />
<path d="M28932 28928
L28872 28928
L28842 28943
L28827 28958
L28797 29003
L28782 29063
L28782 29183
L28797 29213
L28812 29228
L28842 29243
L28902 29243
L28932 29228
L28947 29213
L28962 29183
L28962 29108
L28947 29078
L28932 29063
L28902 29048
L28842 29048
L28812 29063
L28797 29078
L28782 29108
" />
<path d="M58097 14273
L57992 14123
" />
<path d="M57917 14273
L57917 13958
L58037 13958
L58067 13973
L58082 13988
L58097 14018
L58097 14063
L58082 14093
L58067 14108
L58037 14123
L57917 14123
" />
<path d="M58157 14303
L58397 14303
" />
<path d="M58607 14258
L58577 14273
L58517 14273
L58487 14258
L58472 14243
L58457 14213
L58457 14123
L58472 14093
L58487 14078
L58517 14063
L58577 14063
L58607 14078
" />
<path d="M58877 14258
L58847 14273
L58787 14273
L58757 14258
L58742 14243
L58727 14213
L58727 14123
L58742 14093
L58757 14078
L58787 14063
L58847 14063
L58877 14078
" />
<path d="M59177 14273
L58997 14273
" />
<path d="M59087 14273
L59087 13958
L59057 14003
L59027 14033
L58997 14048
" />
<path d="M49737 13231
L49632 13081
" />
<path d="M49557 13231
L49557 12916
L49677 12916
L49707 12931
L49722 12946
L49737 12976
L49737 13021
L49722 13051
L49707 13066
L49677 13081
L49557 13081
" />
<path d="M49797 13261
L50037 13261
" />
<path d="M50247 13216
L50217 13231
L50157 13231
L50127 13216
L50112 13201
L50097 13171
L50097 13081
L50112 13051
L50127 13036
L50157 13021
L50217 13021
L50247 13036
" />
<path d="M50517 13216
L50487 13231
L50427 13231
L50397 13216
L50382 13201
L50367 13171
L50367 13081
L50382 13051
L50397 13036
L50427 13021
L50487 13021
L50517 13036
" />
<path d="M50637 12946
L50652 12931
L50682 12916
L50757 12916
L50787 12931
L50802 12946
L50817 12976
L50817 13006
L50802 13051
L50622 13231
L50817 13231
" />
<path d="M41083 16417
L40933 16522
" />
<path d="M41083 16597
L40768 16597
L40768 16477
L40783 16447
L40798 16432
L40828 16417
L40873 16417
L40903 16432
L40918 16447
L40933 16477
L40933 16597
" />
<path d="M41113 16357
L41113 16117
" />
<path d="M41068 16057
L41083 16027
L41083 15967
L41068 15937
L41038 15922
L41023 15922
L40993 15937
L40978 15967
L40978 16012
L40963 16042
L40933 16057
L40918 16057
L40888 16042
L40873 16012
L40873 15967
L40888 15937
" />
<path d="M41068 15652
L41083 15682
L41083 15742
L41068 15772
L41053 15787
L41023 15802
L40933 15802
L40903 15787
L40888 15772
L40873 15742
L40873 15682
L40888 15652
" />
<path d="M41083 15472
L41068 15502
L41038 15517
L40768 15517
" />
<path d="M41083 15187
L41083 15367
" />
<path d="M41083 15277
L40768 15277
L40813 15307
L40843 15337
L40858 15367
" />
<path d="M39313 16494
L39163 16599
" />
<path d="M39313 16674
L38998 16674
L38998 16554
L39013 16524
L39028 16509
L39058 16494
L39103 16494
L39133 16509
L39148 16524
L39163 16554
L39163 16674
" />
<path d="M39343 16434
L39343 16194
" />
<path d="M39298 16134
L39313 16104
L39313 16044
L39298 16014
L39268 15999
L39253 15999
L39223 16014
L39208 16044
L39208 16089
L39193 16119
L39163 16134
L39148 16134
L39118 16119
L39103 16089
L39103 16044
L39118 16014
" />
<path d="M39313 15730
L38998 15730
" />
<path d="M39298 15730
L39313 15760
L39313 15820
L39298 15850
L39283 15865
L39253 15880
L39163 15880
L39133 15865
L39118 15850
L39103 15820
L39103 15760
L39118 15730
" />
<path d="M39313 15445
L39148 15445
L39118 15460
L39103 15490
L39103 15550
L39118 15580
" />
<path d="M39298 15445
L39313 15475
L39313 15550
L39298 15580
L39268 15595
L39238 15595
L39208 15580
L39193 15550
L39193 15475
L39178 15445
" />
<path d="M39313 15130
L39313 15310
" />
<path d="M39313 15220
L38998 15220
L39043 15250
L39073 15280
L39088 15310
" />
<path d="M81907 14837
L81907 15118
L81889 15174
L81851 15212
L81795 15231
L81757 15231
" />
<path d="M82001 15268
L82301 15268
" />
<path d="M82395 14837
L82395 15156
L82414 15193
L82432 15212
L82470 15231
L82545 15231
L82582 15212
L82601 15193
L82620 15156
L82620 14837
" />
<path d="M82788 15212
L82845 15231
L82938 15231
L82976 15212
L82995 15193
L83013 15156
L83013 15118
L82995 15081
L82976 15062
L82938 15043
L82863 15024
L82826 15006
L82807 14987
L82788 14949
L82788 14912
L82807 14874
L82826 14856
L82863 14837
L82957 14837
L83013 14856
" />
<path d="M83313 15024
L83370 15043
L83388 15062
L83407 15099
L83407 15156
L83388 15193
L83370 15212
L83332 15231
L83182 15231
L83182 14837
L83313 14837
L83351 14856
L83370 14874
L83388 14912
L83388 14949
L83370 14987
L83351 15006
L83313 15024
L83182 15024
" />
<path d="M83482 15268
L83782 15268
" />
<path d="M83876 15231
L83876 14837
L84026 14837
L84063 14856
L84082 14874
L84101 14912
L84101 14968
L84082 15006
L84063 15024
L84026 15043
L83876 15043
" />
<path d="M84251 15118
L84438 15118
" />
<path d="M84213 15231
L84345 14837
L84476 15231
" />
<path d="M84607 15231
L84607 14837
L84701 14837
L84757 14856
L84794 14893
L84813 14931
L84832 15006
L84832 15062
L84813 15137
L84794 15174
L84757 15212
L84701 15231
L84607 15231
" />
<path d="M85207 15231
L84982 15231
" />
<path d="M85094 15231
L85094 14837
L85057 14893
L85019 14931
L84982 14949
" />
</g> 
</svg>
