G04 #@! TF.GenerationSoftware,KiCad,Pcbnew,(5.0.2)-1*
G04 #@! TF.CreationDate,2019-04-21T13:46:39+05:30*
G04 #@! TF.ProjectId,ErgodoxBle,4572676f-646f-4784-926c-652e6b696361,rev?*
G04 #@! TF.SameCoordinates,Original*
G04 #@! TF.FileFunction,Legend,Top*
G04 #@! TF.FilePolarity,Positive*
%FSLAX46Y46*%
G04 Gerber Fmt 4.6, Leading zero omitted, Abs format (unit mm)*
G04 Created by KiCad (PCBNEW (5.0.2)-1) date 4/21/2019 1:46:39 PM*
%MOMM*%
%LPD*%
G01*
G04 APERTURE LIST*
%ADD10C,0.131000*%
%ADD11C,0.304800*%
%ADD12C,0.508000*%
%ADD13C,0.381000*%
%ADD14C,0.150000*%
%ADD15C,0.120000*%
%ADD16C,0.010000*%
G04 APERTURE END LIST*
D10*
X122354842Y-39474816D02*
X123386842Y-39474816D01*
X123386842Y-39674435D01*
X123337700Y-39724340D01*
X123288557Y-39749292D01*
X123190271Y-39774244D01*
X123042842Y-39774244D01*
X122944557Y-39749292D01*
X122895414Y-39724340D01*
X122846271Y-39674435D01*
X122846271Y-39474816D01*
X122354842Y-40298244D02*
X122846271Y-40123578D01*
X122354842Y-39998816D02*
X123386842Y-39998816D01*
X123386842Y-40198435D01*
X123337700Y-40248340D01*
X123288557Y-40273292D01*
X123190271Y-40298244D01*
X123042842Y-40298244D01*
X122944557Y-40273292D01*
X122895414Y-40248340D01*
X122846271Y-40198435D01*
X122846271Y-39998816D01*
X123386842Y-40622625D02*
X123386842Y-40722435D01*
X123337700Y-40772340D01*
X123239414Y-40822244D01*
X123042842Y-40847197D01*
X122698842Y-40847197D01*
X122502271Y-40822244D01*
X122403985Y-40772340D01*
X122354842Y-40722435D01*
X122354842Y-40622625D01*
X122403985Y-40572720D01*
X122502271Y-40522816D01*
X122698842Y-40497863D01*
X123042842Y-40497863D01*
X123239414Y-40522816D01*
X123337700Y-40572720D01*
X123386842Y-40622625D01*
X123386842Y-40996911D02*
X123386842Y-41296340D01*
X122354842Y-41146625D02*
X123386842Y-41146625D01*
X123386842Y-41570816D02*
X123386842Y-41670625D01*
X123337700Y-41720530D01*
X123239414Y-41770435D01*
X123042842Y-41795387D01*
X122698842Y-41795387D01*
X122502271Y-41770435D01*
X122403985Y-41720530D01*
X122354842Y-41670625D01*
X122354842Y-41570816D01*
X122403985Y-41520911D01*
X122502271Y-41471006D01*
X122698842Y-41446054D01*
X123042842Y-41446054D01*
X123239414Y-41471006D01*
X123337700Y-41520911D01*
X123386842Y-41570816D01*
X122354842Y-42019959D02*
X123386842Y-42019959D01*
X122354842Y-42319387D01*
X123386842Y-42319387D01*
X122453128Y-42868340D02*
X122403985Y-42843387D01*
X122354842Y-42768530D01*
X122354842Y-42718625D01*
X122403985Y-42643768D01*
X122502271Y-42593863D01*
X122600557Y-42568911D01*
X122797128Y-42543959D01*
X122944557Y-42543959D01*
X123141128Y-42568911D01*
X123239414Y-42593863D01*
X123337700Y-42643768D01*
X123386842Y-42718625D01*
X123386842Y-42768530D01*
X123337700Y-42843387D01*
X123288557Y-42868340D01*
X123386842Y-43591959D02*
X123386842Y-43691768D01*
X123337700Y-43741673D01*
X123239414Y-43791578D01*
X123042842Y-43816530D01*
X122698842Y-43816530D01*
X122502271Y-43791578D01*
X122403985Y-43741673D01*
X122354842Y-43691768D01*
X122354842Y-43591959D01*
X122403985Y-43542054D01*
X122502271Y-43492149D01*
X122698842Y-43467197D01*
X123042842Y-43467197D01*
X123239414Y-43492149D01*
X123337700Y-43542054D01*
X123386842Y-43591959D01*
X122354842Y-44041101D02*
X123386842Y-44041101D01*
X122354842Y-44340530D01*
X123386842Y-44340530D01*
X122354842Y-44839578D02*
X122354842Y-44590054D01*
X123386842Y-44590054D01*
X122846271Y-45114054D02*
X122354842Y-45114054D01*
X123386842Y-44939387D02*
X122846271Y-45114054D01*
X123386842Y-45288720D01*
X115603074Y-38935284D02*
X115553931Y-39010141D01*
X115504788Y-39035094D01*
X115406502Y-39060046D01*
X115259074Y-39060046D01*
X115160788Y-39035094D01*
X115111645Y-39010141D01*
X115062502Y-38960237D01*
X115062502Y-38760618D01*
X116094502Y-38760618D01*
X116094502Y-38935284D01*
X116045360Y-38985189D01*
X115996217Y-39010141D01*
X115897931Y-39035094D01*
X115799645Y-39035094D01*
X115701360Y-39010141D01*
X115652217Y-38985189D01*
X115603074Y-38935284D01*
X115603074Y-38760618D01*
X115062502Y-39534141D02*
X115062502Y-39284618D01*
X116094502Y-39284618D01*
X116094502Y-39708808D02*
X115259074Y-39708808D01*
X115160788Y-39733760D01*
X115111645Y-39758713D01*
X115062502Y-39808618D01*
X115062502Y-39908427D01*
X115111645Y-39958332D01*
X115160788Y-39983284D01*
X115259074Y-40008237D01*
X116094502Y-40008237D01*
X115603074Y-40257760D02*
X115603074Y-40432427D01*
X115062502Y-40507284D02*
X115062502Y-40257760D01*
X116094502Y-40257760D01*
X116094502Y-40507284D01*
X115062502Y-40731856D02*
X116094502Y-40731856D01*
X115357360Y-40906522D01*
X116094502Y-41081189D01*
X115062502Y-41081189D01*
X115062502Y-41330713D02*
X116094502Y-41330713D01*
X115160788Y-41879665D02*
X115111645Y-41854713D01*
X115062502Y-41779856D01*
X115062502Y-41729951D01*
X115111645Y-41655094D01*
X115209931Y-41605189D01*
X115308217Y-41580237D01*
X115504788Y-41555284D01*
X115652217Y-41555284D01*
X115848788Y-41580237D01*
X115947074Y-41605189D01*
X116045360Y-41655094D01*
X116094502Y-41729951D01*
X116094502Y-41779856D01*
X116045360Y-41854713D01*
X115996217Y-41879665D01*
X115062502Y-42403665D02*
X115553931Y-42228999D01*
X115062502Y-42104237D02*
X116094502Y-42104237D01*
X116094502Y-42303856D01*
X116045360Y-42353760D01*
X115996217Y-42378713D01*
X115897931Y-42403665D01*
X115750502Y-42403665D01*
X115652217Y-42378713D01*
X115603074Y-42353760D01*
X115553931Y-42303856D01*
X115553931Y-42104237D01*
X116094502Y-42728046D02*
X116094502Y-42827856D01*
X116045360Y-42877760D01*
X115947074Y-42927665D01*
X115750502Y-42952618D01*
X115406502Y-42952618D01*
X115209931Y-42927665D01*
X115111645Y-42877760D01*
X115062502Y-42827856D01*
X115062502Y-42728046D01*
X115111645Y-42678141D01*
X115209931Y-42628237D01*
X115406502Y-42603284D01*
X115750502Y-42603284D01*
X115947074Y-42628237D01*
X116045360Y-42678141D01*
X116094502Y-42728046D01*
X116094502Y-43676237D02*
X116094502Y-43776046D01*
X116045360Y-43825951D01*
X115947074Y-43875856D01*
X115750502Y-43900808D01*
X115406502Y-43900808D01*
X115209931Y-43875856D01*
X115111645Y-43825951D01*
X115062502Y-43776046D01*
X115062502Y-43676237D01*
X115111645Y-43626332D01*
X115209931Y-43576427D01*
X115406502Y-43551475D01*
X115750502Y-43551475D01*
X115947074Y-43576427D01*
X116045360Y-43626332D01*
X116094502Y-43676237D01*
X115062502Y-44125380D02*
X116094502Y-44125380D01*
X115062502Y-44424808D01*
X116094502Y-44424808D01*
X115062502Y-44923856D02*
X115062502Y-44674332D01*
X116094502Y-44674332D01*
X115553931Y-45198332D02*
X115062502Y-45198332D01*
X116094502Y-45023665D02*
X115553931Y-45198332D01*
X116094502Y-45372999D01*
D11*
X110641674Y-49402758D02*
X111149674Y-51434758D01*
X111657674Y-49402758D01*
X112963960Y-51434758D02*
X112093102Y-51434758D01*
X112528531Y-51434758D02*
X112528531Y-49402758D01*
X112383388Y-49693043D01*
X112238245Y-49886567D01*
X112093102Y-49983329D01*
X113617102Y-51241234D02*
X113689674Y-51337996D01*
X113617102Y-51434758D01*
X113544531Y-51337996D01*
X113617102Y-51241234D01*
X113617102Y-51434758D01*
X114197674Y-49402758D02*
X115141102Y-49402758D01*
X114633102Y-50176853D01*
X114850817Y-50176853D01*
X114995960Y-50273615D01*
X115068531Y-50370377D01*
X115141102Y-50563900D01*
X115141102Y-51047710D01*
X115068531Y-51241234D01*
X114995960Y-51337996D01*
X114850817Y-51434758D01*
X114415388Y-51434758D01*
X114270245Y-51337996D01*
X114197674Y-51241234D01*
X200705478Y-42990951D02*
X198673478Y-42990951D01*
X198673478Y-42628094D01*
X198770240Y-42410380D01*
X198963763Y-42265237D01*
X199157287Y-42192665D01*
X199544335Y-42120094D01*
X199834620Y-42120094D01*
X200221668Y-42192665D01*
X200415192Y-42265237D01*
X200608716Y-42410380D01*
X200705478Y-42628094D01*
X200705478Y-42990951D01*
X199931382Y-41466951D02*
X199931382Y-40305808D01*
X200705478Y-40886380D02*
X199157287Y-40886380D01*
X200487038Y-38634851D02*
X198455038Y-38634851D01*
X198455038Y-38271994D01*
X198551800Y-38054280D01*
X198745323Y-37909137D01*
X198938847Y-37836565D01*
X199325895Y-37763994D01*
X199616180Y-37763994D01*
X200003228Y-37836565D01*
X200196752Y-37909137D01*
X200390276Y-38054280D01*
X200487038Y-38271994D01*
X200487038Y-38634851D01*
X199712942Y-37110851D02*
X199712942Y-35949708D01*
D12*
X69696390Y-99803857D02*
X68849723Y-98352428D01*
X68244961Y-99803857D02*
X68244961Y-96755857D01*
X69212580Y-96755857D01*
X69454485Y-96901000D01*
X69575438Y-97046142D01*
X69696390Y-97336428D01*
X69696390Y-97771857D01*
X69575438Y-98062142D01*
X69454485Y-98207285D01*
X69212580Y-98352428D01*
X68244961Y-98352428D01*
X70784961Y-99803857D02*
X70784961Y-96755857D01*
X73324961Y-96901000D02*
X73083057Y-96755857D01*
X72720200Y-96755857D01*
X72357342Y-96901000D01*
X72115438Y-97191285D01*
X71994485Y-97481571D01*
X71873533Y-98062142D01*
X71873533Y-98497571D01*
X71994485Y-99078142D01*
X72115438Y-99368428D01*
X72357342Y-99658714D01*
X72720200Y-99803857D01*
X72962104Y-99803857D01*
X73324961Y-99658714D01*
X73445914Y-99513571D01*
X73445914Y-98497571D01*
X72962104Y-98497571D01*
X74534485Y-99803857D02*
X74534485Y-96755857D01*
X74534485Y-98207285D02*
X75985914Y-98207285D01*
X75985914Y-99803857D02*
X75985914Y-96755857D01*
X76832580Y-96755857D02*
X78284009Y-96755857D01*
X77558295Y-99803857D02*
X77558295Y-96755857D01*
X68244961Y-104883857D02*
X68244961Y-101835857D01*
X68244961Y-103287285D02*
X69696390Y-103287285D01*
X69696390Y-104883857D02*
X69696390Y-101835857D01*
X70784961Y-104013000D02*
X71994485Y-104013000D01*
X70543057Y-104883857D02*
X71389723Y-101835857D01*
X72236390Y-104883857D01*
X73083057Y-104883857D02*
X73083057Y-101835857D01*
X74534485Y-104883857D01*
X74534485Y-101835857D01*
X75744009Y-104883857D02*
X75744009Y-101835857D01*
X76348771Y-101835857D01*
X76711628Y-101981000D01*
X76953533Y-102271285D01*
X77074485Y-102561571D01*
X77195438Y-103142142D01*
X77195438Y-103577571D01*
X77074485Y-104158142D01*
X76953533Y-104448428D01*
X76711628Y-104738714D01*
X76348771Y-104883857D01*
X75744009Y-104883857D01*
D11*
X161723977Y-52788457D02*
X161215977Y-52788457D01*
X161215977Y-53852838D02*
X161215977Y-51820838D01*
X161941691Y-51820838D01*
X163393120Y-53852838D02*
X162885120Y-52885219D01*
X162522262Y-53852838D02*
X162522262Y-51820838D01*
X163102834Y-51820838D01*
X163247977Y-51917600D01*
X163320548Y-52014361D01*
X163393120Y-52207885D01*
X163393120Y-52498171D01*
X163320548Y-52691695D01*
X163247977Y-52788457D01*
X163102834Y-52885219D01*
X162522262Y-52885219D01*
X164699405Y-52498171D02*
X164699405Y-53852838D01*
X164336548Y-51724076D02*
X163973691Y-53175504D01*
X164917120Y-53175504D01*
X166441120Y-51820838D02*
X167311977Y-51820838D01*
X166876548Y-53852838D02*
X166876548Y-51820838D01*
X168473120Y-52498171D02*
X168473120Y-54143123D01*
X168400548Y-54336647D01*
X168327977Y-54433409D01*
X168182834Y-54530171D01*
X167965120Y-54530171D01*
X167819977Y-54433409D01*
X168473120Y-53756076D02*
X168327977Y-53852838D01*
X168037691Y-53852838D01*
X167892548Y-53756076D01*
X167819977Y-53659314D01*
X167747405Y-53465790D01*
X167747405Y-52885219D01*
X167819977Y-52691695D01*
X167892548Y-52594933D01*
X168037691Y-52498171D01*
X168327977Y-52498171D01*
X168473120Y-52594933D01*
X169997120Y-53852838D02*
X169126262Y-53852838D01*
X169561691Y-53852838D02*
X169561691Y-51820838D01*
X169416548Y-52111123D01*
X169271405Y-52304647D01*
X169126262Y-52401409D01*
X170505120Y-51820838D02*
X171521120Y-51820838D01*
X170867977Y-53852838D01*
X172391977Y-51820838D02*
X172537120Y-51820838D01*
X172682262Y-51917600D01*
X172754834Y-52014361D01*
X172827405Y-52207885D01*
X172899977Y-52594933D01*
X172899977Y-53078742D01*
X172827405Y-53465790D01*
X172754834Y-53659314D01*
X172682262Y-53756076D01*
X172537120Y-53852838D01*
X172391977Y-53852838D01*
X172246834Y-53756076D01*
X172174262Y-53659314D01*
X172101691Y-53465790D01*
X172029120Y-53078742D01*
X172029120Y-52594933D01*
X172101691Y-52207885D01*
X172174262Y-52014361D01*
X172246834Y-51917600D01*
X172391977Y-51820838D01*
X173770834Y-51820838D02*
X173625691Y-51917600D01*
X173553120Y-52111123D01*
X173625691Y-52304647D01*
X173770834Y-52401409D01*
X173915977Y-52304647D01*
X173988548Y-52111123D01*
X173915977Y-51917600D01*
X173770834Y-51820838D01*
X176601120Y-53852838D02*
X175875405Y-53852838D01*
X175875405Y-51820838D01*
X177762262Y-53852838D02*
X177762262Y-52788457D01*
X177689691Y-52594933D01*
X177544548Y-52498171D01*
X177254262Y-52498171D01*
X177109120Y-52594933D01*
X177762262Y-53756076D02*
X177617120Y-53852838D01*
X177254262Y-53852838D01*
X177109120Y-53756076D01*
X177036548Y-53562552D01*
X177036548Y-53369028D01*
X177109120Y-53175504D01*
X177254262Y-53078742D01*
X177617120Y-53078742D01*
X177762262Y-52981980D01*
X178487977Y-53852838D02*
X178487977Y-52498171D01*
X178487977Y-52691695D02*
X178560548Y-52594933D01*
X178705691Y-52498171D01*
X178923405Y-52498171D01*
X179068548Y-52594933D01*
X179141120Y-52788457D01*
X179141120Y-53852838D01*
X179141120Y-52788457D02*
X179213691Y-52594933D01*
X179358834Y-52498171D01*
X179576548Y-52498171D01*
X179721691Y-52594933D01*
X179794262Y-52788457D01*
X179794262Y-53852838D01*
X180519977Y-53852838D02*
X180519977Y-52498171D01*
X180519977Y-51820838D02*
X180447405Y-51917600D01*
X180519977Y-52014361D01*
X180592548Y-51917600D01*
X180519977Y-51820838D01*
X180519977Y-52014361D01*
X181245691Y-52498171D02*
X181245691Y-53852838D01*
X181245691Y-52691695D02*
X181318262Y-52594933D01*
X181463405Y-52498171D01*
X181681120Y-52498171D01*
X181826262Y-52594933D01*
X181898834Y-52788457D01*
X181898834Y-53852838D01*
X183277691Y-53852838D02*
X183277691Y-52788457D01*
X183205120Y-52594933D01*
X183059977Y-52498171D01*
X182769691Y-52498171D01*
X182624548Y-52594933D01*
X183277691Y-53756076D02*
X183132548Y-53852838D01*
X182769691Y-53852838D01*
X182624548Y-53756076D01*
X182551977Y-53562552D01*
X182551977Y-53369028D01*
X182624548Y-53175504D01*
X182769691Y-53078742D01*
X183132548Y-53078742D01*
X183277691Y-52981980D01*
X183785691Y-52498171D02*
X184366262Y-52498171D01*
X184003405Y-51820838D02*
X184003405Y-53562552D01*
X184075977Y-53756076D01*
X184221120Y-53852838D01*
X184366262Y-53852838D01*
X185454834Y-53756076D02*
X185309691Y-53852838D01*
X185019405Y-53852838D01*
X184874262Y-53756076D01*
X184801691Y-53562552D01*
X184801691Y-52788457D01*
X184874262Y-52594933D01*
X185019405Y-52498171D01*
X185309691Y-52498171D01*
X185454834Y-52594933D01*
X185527405Y-52788457D01*
X185527405Y-52981980D01*
X184801691Y-53175504D01*
X161143405Y-55367161D02*
X161215977Y-55270400D01*
X161361120Y-55173638D01*
X161723977Y-55173638D01*
X161869120Y-55270400D01*
X161941691Y-55367161D01*
X162014262Y-55560685D01*
X162014262Y-55754209D01*
X161941691Y-56044495D01*
X161070834Y-57205638D01*
X162014262Y-57205638D01*
X163320548Y-55850971D02*
X163320548Y-57205638D01*
X162957691Y-55076876D02*
X162594834Y-56528304D01*
X163538262Y-56528304D01*
X164118834Y-57205638D02*
X164118834Y-55850971D01*
X164118834Y-56044495D02*
X164191405Y-55947733D01*
X164336548Y-55850971D01*
X164554262Y-55850971D01*
X164699405Y-55947733D01*
X164771977Y-56141257D01*
X164771977Y-57205638D01*
X164771977Y-56141257D02*
X164844548Y-55947733D01*
X164989691Y-55850971D01*
X165207405Y-55850971D01*
X165352548Y-55947733D01*
X165425120Y-56141257D01*
X165425120Y-57205638D01*
X166150834Y-57205638D02*
X166150834Y-55850971D01*
X166150834Y-55173638D02*
X166078262Y-55270400D01*
X166150834Y-55367161D01*
X166223405Y-55270400D01*
X166150834Y-55173638D01*
X166150834Y-55367161D01*
X167094262Y-57205638D02*
X166949120Y-57108876D01*
X166876548Y-56915352D01*
X166876548Y-55173638D01*
X168618262Y-55850971D02*
X169198834Y-55850971D01*
X168835977Y-55173638D02*
X168835977Y-56915352D01*
X168908548Y-57108876D01*
X169053691Y-57205638D01*
X169198834Y-57205638D01*
X169706834Y-57205638D02*
X169706834Y-55850971D01*
X169706834Y-56238019D02*
X169779405Y-56044495D01*
X169851977Y-55947733D01*
X169997120Y-55850971D01*
X170142262Y-55850971D01*
X171303405Y-57205638D02*
X171303405Y-56141257D01*
X171230834Y-55947733D01*
X171085691Y-55850971D01*
X170795405Y-55850971D01*
X170650262Y-55947733D01*
X171303405Y-57108876D02*
X171158262Y-57205638D01*
X170795405Y-57205638D01*
X170650262Y-57108876D01*
X170577691Y-56915352D01*
X170577691Y-56721828D01*
X170650262Y-56528304D01*
X170795405Y-56431542D01*
X171158262Y-56431542D01*
X171303405Y-56334780D01*
X172682262Y-57108876D02*
X172537120Y-57205638D01*
X172246834Y-57205638D01*
X172101691Y-57108876D01*
X172029120Y-57012114D01*
X171956548Y-56818590D01*
X171956548Y-56238019D01*
X172029120Y-56044495D01*
X172101691Y-55947733D01*
X172246834Y-55850971D01*
X172537120Y-55850971D01*
X172682262Y-55947733D01*
X173915977Y-57108876D02*
X173770834Y-57205638D01*
X173480548Y-57205638D01*
X173335405Y-57108876D01*
X173262834Y-56915352D01*
X173262834Y-56141257D01*
X173335405Y-55947733D01*
X173480548Y-55850971D01*
X173770834Y-55850971D01*
X173915977Y-55947733D01*
X173988548Y-56141257D01*
X173988548Y-56334780D01*
X173262834Y-56528304D01*
X174569120Y-57108876D02*
X174714262Y-57205638D01*
X175004548Y-57205638D01*
X175149691Y-57108876D01*
X175222262Y-56915352D01*
X175222262Y-56818590D01*
X175149691Y-56625066D01*
X175004548Y-56528304D01*
X174786834Y-56528304D01*
X174641691Y-56431542D01*
X174569120Y-56238019D01*
X174569120Y-56141257D01*
X174641691Y-55947733D01*
X174786834Y-55850971D01*
X175004548Y-55850971D01*
X175149691Y-55947733D01*
X177254262Y-57205638D02*
X177109120Y-57108876D01*
X177036548Y-57012114D01*
X176963977Y-56818590D01*
X176963977Y-56238019D01*
X177036548Y-56044495D01*
X177109120Y-55947733D01*
X177254262Y-55850971D01*
X177471977Y-55850971D01*
X177617120Y-55947733D01*
X177689691Y-56044495D01*
X177762262Y-56238019D01*
X177762262Y-56818590D01*
X177689691Y-57012114D01*
X177617120Y-57108876D01*
X177471977Y-57205638D01*
X177254262Y-57205638D01*
X178415405Y-55850971D02*
X178415405Y-57205638D01*
X178415405Y-56044495D02*
X178487977Y-55947733D01*
X178633120Y-55850971D01*
X178850834Y-55850971D01*
X178995977Y-55947733D01*
X179068548Y-56141257D01*
X179068548Y-57205638D01*
X181753691Y-57205638D02*
X180882834Y-57205638D01*
X181318262Y-57205638D02*
X181318262Y-55173638D01*
X181173120Y-55463923D01*
X181027977Y-55657447D01*
X180882834Y-55754209D01*
X182624548Y-57205638D02*
X182479405Y-57108876D01*
X182406834Y-57012114D01*
X182334262Y-56818590D01*
X182334262Y-56238019D01*
X182406834Y-56044495D01*
X182479405Y-55947733D01*
X182624548Y-55850971D01*
X182842262Y-55850971D01*
X182987405Y-55947733D01*
X183059977Y-56044495D01*
X183132548Y-56238019D01*
X183132548Y-56818590D01*
X183059977Y-57012114D01*
X182987405Y-57108876D01*
X182842262Y-57205638D01*
X182624548Y-57205638D01*
X183640548Y-55850971D02*
X184438834Y-55850971D01*
X183640548Y-57205638D01*
X184438834Y-57205638D01*
X186833691Y-57108876D02*
X186688548Y-57205638D01*
X186398262Y-57205638D01*
X186253120Y-57108876D01*
X186180548Y-57012114D01*
X186107977Y-56818590D01*
X186107977Y-56238019D01*
X186180548Y-56044495D01*
X186253120Y-55947733D01*
X186398262Y-55850971D01*
X186688548Y-55850971D01*
X186833691Y-55947733D01*
X187704548Y-57205638D02*
X187559405Y-57108876D01*
X187486834Y-57012114D01*
X187414262Y-56818590D01*
X187414262Y-56238019D01*
X187486834Y-56044495D01*
X187559405Y-55947733D01*
X187704548Y-55850971D01*
X187922262Y-55850971D01*
X188067405Y-55947733D01*
X188139977Y-56044495D01*
X188212548Y-56238019D01*
X188212548Y-56818590D01*
X188139977Y-57012114D01*
X188067405Y-57108876D01*
X187922262Y-57205638D01*
X187704548Y-57205638D01*
X188865691Y-55850971D02*
X188865691Y-57882971D01*
X188865691Y-55947733D02*
X189010834Y-55850971D01*
X189301120Y-55850971D01*
X189446262Y-55947733D01*
X189518834Y-56044495D01*
X189591405Y-56238019D01*
X189591405Y-56818590D01*
X189518834Y-57012114D01*
X189446262Y-57108876D01*
X189301120Y-57205638D01*
X189010834Y-57205638D01*
X188865691Y-57108876D01*
X190244548Y-55850971D02*
X190244548Y-57882971D01*
X190244548Y-55947733D02*
X190389691Y-55850971D01*
X190679977Y-55850971D01*
X190825120Y-55947733D01*
X190897691Y-56044495D01*
X190970262Y-56238019D01*
X190970262Y-56818590D01*
X190897691Y-57012114D01*
X190825120Y-57108876D01*
X190679977Y-57205638D01*
X190389691Y-57205638D01*
X190244548Y-57108876D01*
X192203977Y-57108876D02*
X192058834Y-57205638D01*
X191768548Y-57205638D01*
X191623405Y-57108876D01*
X191550834Y-56915352D01*
X191550834Y-56141257D01*
X191623405Y-55947733D01*
X191768548Y-55850971D01*
X192058834Y-55850971D01*
X192203977Y-55947733D01*
X192276548Y-56141257D01*
X192276548Y-56334780D01*
X191550834Y-56528304D01*
X192929691Y-57205638D02*
X192929691Y-55850971D01*
X192929691Y-56238019D02*
X193002262Y-56044495D01*
X193074834Y-55947733D01*
X193219977Y-55850971D01*
X193365120Y-55850971D01*
D13*
G04 #@! TO.C,proMicro1*
X195084700Y-32809180D02*
X164604700Y-32809180D01*
X164604700Y-32809180D02*
X164604700Y-50589180D01*
X164604700Y-50589180D02*
X195084700Y-50589180D01*
X195084700Y-35349180D02*
X192544700Y-35349180D01*
X192544700Y-35349180D02*
X192544700Y-32809180D01*
D14*
G36*
X189205340Y-46630748D02*
X188905340Y-46630748D01*
X188905340Y-46530748D01*
X189205340Y-46530748D01*
X189205340Y-46630748D01*
G37*
X189205340Y-46630748D02*
X188905340Y-46630748D01*
X188905340Y-46530748D01*
X189205340Y-46530748D01*
X189205340Y-46630748D01*
G36*
X188805340Y-46430748D02*
X188705340Y-46430748D01*
X188705340Y-46330748D01*
X188805340Y-46330748D01*
X188805340Y-46430748D01*
G37*
X188805340Y-46430748D02*
X188705340Y-46430748D01*
X188705340Y-46330748D01*
X188805340Y-46330748D01*
X188805340Y-46430748D01*
G36*
X189205340Y-46630748D02*
X189105340Y-46630748D01*
X189105340Y-46130748D01*
X189205340Y-46130748D01*
X189205340Y-46630748D01*
G37*
X189205340Y-46630748D02*
X189105340Y-46630748D01*
X189105340Y-46130748D01*
X189205340Y-46130748D01*
X189205340Y-46630748D01*
G36*
X189205340Y-46230748D02*
X188405340Y-46230748D01*
X188405340Y-46130748D01*
X189205340Y-46130748D01*
X189205340Y-46230748D01*
G37*
X189205340Y-46230748D02*
X188405340Y-46230748D01*
X188405340Y-46130748D01*
X189205340Y-46130748D01*
X189205340Y-46230748D01*
G36*
X188605340Y-46630748D02*
X188405340Y-46630748D01*
X188405340Y-46530748D01*
X188605340Y-46530748D01*
X188605340Y-46630748D01*
G37*
X188605340Y-46630748D02*
X188405340Y-46630748D01*
X188405340Y-46530748D01*
X188605340Y-46530748D01*
X188605340Y-46630748D01*
D13*
X195084700Y-50589180D02*
X197624700Y-50589180D01*
X197624700Y-50589180D02*
X197624700Y-32809180D01*
X197624700Y-32809180D02*
X195084700Y-32809180D01*
X195084700Y-35349180D02*
X195084700Y-32809180D01*
D14*
G04 #@! TO.C,D0:1*
X52190593Y-186312837D02*
X56794637Y-184165936D01*
X56794637Y-184165936D02*
X56150567Y-182784723D01*
X56150567Y-182784723D02*
X51546523Y-184931624D01*
X51546523Y-184931624D02*
X52190593Y-186312837D01*
X52190593Y-186312837D02*
X52650998Y-186098147D01*
X56449334Y-184326954D02*
X55805263Y-182945741D01*
X55920364Y-182892068D02*
X56564435Y-184273281D01*
X56679536Y-184219609D02*
X56035466Y-182838396D01*
X55690162Y-182999413D02*
X56334233Y-184380626D01*
X56219131Y-184434299D02*
X55575061Y-183053086D01*
X56104030Y-184487971D02*
X55459960Y-183106758D01*
G04 #@! TO.C,D0:2*
X71018645Y-155922381D02*
X69637432Y-156566451D01*
X70964973Y-155807280D02*
X69583760Y-156451350D01*
X69530087Y-156336249D02*
X70911300Y-155692178D01*
X70750283Y-155346875D02*
X69369070Y-155990945D01*
X69422742Y-156106047D02*
X70803955Y-155461976D01*
X70857628Y-155577077D02*
X69476415Y-156221148D01*
X72843511Y-159835818D02*
X72628821Y-159375413D01*
X71462298Y-160479888D02*
X72843511Y-159835818D01*
X69315397Y-155875844D02*
X71462298Y-160479888D01*
X70696610Y-155231774D02*
X69315397Y-155875844D01*
X72843511Y-159835818D02*
X70696610Y-155231774D01*
G04 #@! TO.C,D0:3*
X90156057Y-151839987D02*
X88009156Y-147235943D01*
X88009156Y-147235943D02*
X86627943Y-147880013D01*
X86627943Y-147880013D02*
X88774844Y-152484057D01*
X88774844Y-152484057D02*
X90156057Y-151839987D01*
X90156057Y-151839987D02*
X89941367Y-151379582D01*
X88170174Y-147581246D02*
X86788961Y-148225317D01*
X86735288Y-148110216D02*
X88116501Y-147466145D01*
X88062829Y-147351044D02*
X86681616Y-147995114D01*
X86842633Y-148340418D02*
X88223846Y-147696347D01*
X88277519Y-147811449D02*
X86896306Y-148455519D01*
X88331191Y-147926550D02*
X86949978Y-148570620D01*
G04 #@! TO.C,D0:4*
X48141219Y-167792645D02*
X47497149Y-166411432D01*
X48256320Y-167738973D02*
X47612250Y-166357760D01*
X47727351Y-166304087D02*
X48371422Y-167685300D01*
X48716725Y-167524283D02*
X48072655Y-166143070D01*
X47957553Y-166196742D02*
X48601624Y-167577955D01*
X48486523Y-167631628D02*
X47842452Y-166250415D01*
X44227782Y-169617511D02*
X44688187Y-169402821D01*
X43583712Y-168236298D02*
X44227782Y-169617511D01*
X48187756Y-166089397D02*
X43583712Y-168236298D01*
X48831826Y-167470610D02*
X48187756Y-166089397D01*
X44227782Y-169617511D02*
X48831826Y-167470610D01*
G04 #@! TO.C,D0:5*
X53193982Y-143938111D02*
X57798026Y-141791210D01*
X57798026Y-141791210D02*
X57153956Y-140409997D01*
X57153956Y-140409997D02*
X52549912Y-142556898D01*
X52549912Y-142556898D02*
X53193982Y-143938111D01*
X53193982Y-143938111D02*
X53654387Y-143723421D01*
X57452723Y-141952228D02*
X56808652Y-140571015D01*
X56923753Y-140517342D02*
X57567824Y-141898555D01*
X57682925Y-141844883D02*
X57038855Y-140463670D01*
X56693551Y-140624687D02*
X57337622Y-142005900D01*
X57222520Y-142059573D02*
X56578450Y-140678360D01*
X57107419Y-142113245D02*
X56463349Y-140732032D01*
G04 #@! TO.C,D0:6*
X39906450Y-149926191D02*
X39262380Y-148544978D01*
X40021551Y-149872519D02*
X39377481Y-148491306D01*
X39492582Y-148437633D02*
X40136653Y-149818846D01*
X40481956Y-149657829D02*
X39837886Y-148276616D01*
X39722784Y-148330288D02*
X40366855Y-149711501D01*
X40251754Y-149765174D02*
X39607683Y-148383961D01*
X35993013Y-151751057D02*
X36453418Y-151536367D01*
X35348943Y-150369844D02*
X35993013Y-151751057D01*
X39952987Y-148222943D02*
X35348943Y-150369844D01*
X40597057Y-149604156D02*
X39952987Y-148222943D01*
X35993013Y-151751057D02*
X40597057Y-149604156D01*
G04 #@! TO.C,D1:0*
X188561980Y-151350980D02*
X188561980Y-149826980D01*
X188688980Y-151350980D02*
X188688980Y-149826980D01*
X188815980Y-149826980D02*
X188815980Y-151350980D01*
X189196980Y-151350980D02*
X189196980Y-149826980D01*
X189069980Y-149826980D02*
X189069980Y-151350980D01*
X188942980Y-151350980D02*
X188942980Y-149826980D01*
X184243980Y-151350980D02*
X184751980Y-151350980D01*
X184243980Y-149826980D02*
X184243980Y-151350980D01*
X189323980Y-149826980D02*
X184243980Y-149826980D01*
X189323980Y-151350980D02*
X189323980Y-149826980D01*
X184243980Y-151350980D02*
X189323980Y-151350980D01*
G04 #@! TO.C,D1:2*
X150495000Y-148971000D02*
X150495000Y-147447000D01*
X150622000Y-148971000D02*
X150622000Y-147447000D01*
X150749000Y-147447000D02*
X150749000Y-148971000D01*
X151130000Y-148971000D02*
X151130000Y-147447000D01*
X151003000Y-147447000D02*
X151003000Y-148971000D01*
X150876000Y-148971000D02*
X150876000Y-147447000D01*
X146177000Y-148971000D02*
X146685000Y-148971000D01*
X146177000Y-147447000D02*
X146177000Y-148971000D01*
X151257000Y-147447000D02*
X146177000Y-147447000D01*
X151257000Y-148971000D02*
X151257000Y-147447000D01*
X146177000Y-148971000D02*
X151257000Y-148971000D01*
G04 #@! TO.C,D1:3*
X127000000Y-146812000D02*
X132080000Y-146812000D01*
X132080000Y-146812000D02*
X132080000Y-145288000D01*
X132080000Y-145288000D02*
X127000000Y-145288000D01*
X127000000Y-145288000D02*
X127000000Y-146812000D01*
X127000000Y-146812000D02*
X127508000Y-146812000D01*
X131699000Y-146812000D02*
X131699000Y-145288000D01*
X131826000Y-145288000D02*
X131826000Y-146812000D01*
X131953000Y-146812000D02*
X131953000Y-145288000D01*
X131572000Y-145288000D02*
X131572000Y-146812000D01*
X131445000Y-146812000D02*
X131445000Y-145288000D01*
X131318000Y-146812000D02*
X131318000Y-145288000D01*
G04 #@! TO.C,D1:4*
X112141000Y-148209000D02*
X112141000Y-146685000D01*
X112268000Y-148209000D02*
X112268000Y-146685000D01*
X112395000Y-146685000D02*
X112395000Y-148209000D01*
X112776000Y-148209000D02*
X112776000Y-146685000D01*
X112649000Y-146685000D02*
X112649000Y-148209000D01*
X112522000Y-148209000D02*
X112522000Y-146685000D01*
X107823000Y-148209000D02*
X108331000Y-148209000D01*
X107823000Y-146685000D02*
X107823000Y-148209000D01*
X112903000Y-146685000D02*
X107823000Y-146685000D01*
X112903000Y-148209000D02*
X112903000Y-146685000D01*
X107823000Y-148209000D02*
X112903000Y-148209000D01*
G04 #@! TO.C,D1:5*
X75974450Y-137015525D02*
X75330380Y-135634312D01*
X76089551Y-136961853D02*
X75445481Y-135580640D01*
X75560582Y-135526967D02*
X76204653Y-136908180D01*
X76549956Y-136747163D02*
X75905886Y-135365950D01*
X75790784Y-135419622D02*
X76434855Y-136800835D01*
X76319754Y-136854508D02*
X75675683Y-135473295D01*
X72061013Y-138840391D02*
X72521418Y-138625701D01*
X71416943Y-137459178D02*
X72061013Y-138840391D01*
X76020987Y-135312277D02*
X71416943Y-137459178D01*
X76665057Y-136693490D02*
X76020987Y-135312277D01*
X72061013Y-138840391D02*
X76665057Y-136693490D01*
G04 #@! TO.C,D1:6*
X54789013Y-146925057D02*
X59393057Y-144778156D01*
X59393057Y-144778156D02*
X58748987Y-143396943D01*
X58748987Y-143396943D02*
X54144943Y-145543844D01*
X54144943Y-145543844D02*
X54789013Y-146925057D01*
X54789013Y-146925057D02*
X55249418Y-146710367D01*
X59047754Y-144939174D02*
X58403682Y-143557961D01*
X58518784Y-143504288D02*
X59162855Y-144885501D01*
X59277956Y-144831829D02*
X58633886Y-143450617D01*
X58288582Y-143611633D02*
X58932653Y-144992846D01*
X58817551Y-145046519D02*
X58173481Y-143665306D01*
X58702450Y-145100191D02*
X58058380Y-143718978D01*
G04 #@! TO.C,D1:!1*
X169418000Y-151325580D02*
X169418000Y-149801580D01*
X169545000Y-151325580D02*
X169545000Y-149801580D01*
X169672000Y-149801580D02*
X169672000Y-151325580D01*
X170053000Y-151325580D02*
X170053000Y-149801580D01*
X169926000Y-149801580D02*
X169926000Y-151325580D01*
X169799000Y-151325580D02*
X169799000Y-149801580D01*
X165100000Y-151325580D02*
X165608000Y-151325580D01*
X165100000Y-149801580D02*
X165100000Y-151325580D01*
X170180000Y-149801580D02*
X165100000Y-149801580D01*
X170180000Y-151325580D02*
X170180000Y-149801580D01*
X165100000Y-151325580D02*
X170180000Y-151325580D01*
G04 #@! TO.C,D2:0*
X188849000Y-132969000D02*
X193929000Y-132969000D01*
X193929000Y-132969000D02*
X193929000Y-131445000D01*
X193929000Y-131445000D02*
X188849000Y-131445000D01*
X188849000Y-131445000D02*
X188849000Y-132969000D01*
X188849000Y-132969000D02*
X189357000Y-132969000D01*
X193548000Y-132969000D02*
X193548000Y-131445000D01*
X193675000Y-131445000D02*
X193675000Y-132969000D01*
X193802000Y-132969000D02*
X193802000Y-131445000D01*
X193421000Y-131445000D02*
X193421000Y-132969000D01*
X193294000Y-132969000D02*
X193294000Y-131445000D01*
X193167000Y-132969000D02*
X193167000Y-131445000D01*
G04 #@! TO.C,D2:1*
X165100000Y-133096000D02*
X170180000Y-133096000D01*
X170180000Y-133096000D02*
X170180000Y-131572000D01*
X170180000Y-131572000D02*
X165100000Y-131572000D01*
X165100000Y-131572000D02*
X165100000Y-133096000D01*
X165100000Y-133096000D02*
X165608000Y-133096000D01*
X169799000Y-133096000D02*
X169799000Y-131572000D01*
X169926000Y-131572000D02*
X169926000Y-133096000D01*
X170053000Y-133096000D02*
X170053000Y-131572000D01*
X169672000Y-131572000D02*
X169672000Y-133096000D01*
X169545000Y-133096000D02*
X169545000Y-131572000D01*
X169418000Y-133096000D02*
X169418000Y-131572000D01*
G04 #@! TO.C,D2:2*
X150368000Y-129921000D02*
X150368000Y-128397000D01*
X150495000Y-129921000D02*
X150495000Y-128397000D01*
X150622000Y-128397000D02*
X150622000Y-129921000D01*
X151003000Y-129921000D02*
X151003000Y-128397000D01*
X150876000Y-128397000D02*
X150876000Y-129921000D01*
X150749000Y-129921000D02*
X150749000Y-128397000D01*
X146050000Y-129921000D02*
X146558000Y-129921000D01*
X146050000Y-128397000D02*
X146050000Y-129921000D01*
X151130000Y-128397000D02*
X146050000Y-128397000D01*
X151130000Y-129921000D02*
X151130000Y-128397000D01*
X146050000Y-129921000D02*
X151130000Y-129921000D01*
G04 #@! TO.C,D2:3*
X127000000Y-128270000D02*
X132080000Y-128270000D01*
X132080000Y-128270000D02*
X132080000Y-126746000D01*
X132080000Y-126746000D02*
X127000000Y-126746000D01*
X127000000Y-126746000D02*
X127000000Y-128270000D01*
X127000000Y-128270000D02*
X127508000Y-128270000D01*
X131699000Y-128270000D02*
X131699000Y-126746000D01*
X131826000Y-126746000D02*
X131826000Y-128270000D01*
X131953000Y-128270000D02*
X131953000Y-126746000D01*
X131572000Y-126746000D02*
X131572000Y-128270000D01*
X131445000Y-128270000D02*
X131445000Y-126746000D01*
X131318000Y-128270000D02*
X131318000Y-126746000D01*
G04 #@! TO.C,D2:4*
X112268000Y-129921000D02*
X112268000Y-128397000D01*
X112395000Y-129921000D02*
X112395000Y-128397000D01*
X112522000Y-128397000D02*
X112522000Y-129921000D01*
X112903000Y-129921000D02*
X112903000Y-128397000D01*
X112776000Y-128397000D02*
X112776000Y-129921000D01*
X112649000Y-129921000D02*
X112649000Y-128397000D01*
X107950000Y-129921000D02*
X108458000Y-129921000D01*
X107950000Y-128397000D02*
X107950000Y-129921000D01*
X113030000Y-128397000D02*
X107950000Y-128397000D01*
X113030000Y-129921000D02*
X113030000Y-128397000D01*
X107950000Y-129921000D02*
X113030000Y-129921000D01*
G04 #@! TO.C,D2:5*
X88900000Y-131064000D02*
X93980000Y-131064000D01*
X93980000Y-131064000D02*
X93980000Y-129540000D01*
X93980000Y-129540000D02*
X88900000Y-129540000D01*
X88900000Y-129540000D02*
X88900000Y-131064000D01*
X88900000Y-131064000D02*
X89408000Y-131064000D01*
X93599000Y-131064000D02*
X93599000Y-129540000D01*
X93726000Y-129540000D02*
X93726000Y-131064000D01*
X93853000Y-131064000D02*
X93853000Y-129540000D01*
X93472000Y-129540000D02*
X93472000Y-131064000D01*
X93345000Y-131064000D02*
X93345000Y-129540000D01*
X93218000Y-131064000D02*
X93218000Y-129540000D01*
G04 #@! TO.C,D2:6*
X80721200Y-115671600D02*
X79197200Y-115671600D01*
X80721200Y-115544600D02*
X79197200Y-115544600D01*
X79197200Y-115417600D02*
X80721200Y-115417600D01*
X80721200Y-115036600D02*
X79197200Y-115036600D01*
X79197200Y-115163600D02*
X80721200Y-115163600D01*
X80721200Y-115290600D02*
X79197200Y-115290600D01*
X80721200Y-119989600D02*
X80721200Y-119481600D01*
X79197200Y-119989600D02*
X80721200Y-119989600D01*
X79197200Y-114909600D02*
X79197200Y-119989600D01*
X80721200Y-114909600D02*
X79197200Y-114909600D01*
X80721200Y-119989600D02*
X80721200Y-114909600D01*
G04 #@! TO.C,D3:0*
X193294000Y-114046000D02*
X193294000Y-112522000D01*
X193421000Y-114046000D02*
X193421000Y-112522000D01*
X193548000Y-112522000D02*
X193548000Y-114046000D01*
X193929000Y-114046000D02*
X193929000Y-112522000D01*
X193802000Y-112522000D02*
X193802000Y-114046000D01*
X193675000Y-114046000D02*
X193675000Y-112522000D01*
X188976000Y-114046000D02*
X189484000Y-114046000D01*
X188976000Y-112522000D02*
X188976000Y-114046000D01*
X194056000Y-112522000D02*
X188976000Y-112522000D01*
X194056000Y-114046000D02*
X194056000Y-112522000D01*
X188976000Y-114046000D02*
X194056000Y-114046000D01*
G04 #@! TO.C,D3:1*
X164973000Y-113792000D02*
X170053000Y-113792000D01*
X170053000Y-113792000D02*
X170053000Y-112268000D01*
X170053000Y-112268000D02*
X164973000Y-112268000D01*
X164973000Y-112268000D02*
X164973000Y-113792000D01*
X164973000Y-113792000D02*
X165481000Y-113792000D01*
X169672000Y-113792000D02*
X169672000Y-112268000D01*
X169799000Y-112268000D02*
X169799000Y-113792000D01*
X169926000Y-113792000D02*
X169926000Y-112268000D01*
X169545000Y-112268000D02*
X169545000Y-113792000D01*
X169418000Y-113792000D02*
X169418000Y-112268000D01*
X169291000Y-113792000D02*
X169291000Y-112268000D01*
G04 #@! TO.C,D3:2*
X150368000Y-110871000D02*
X150368000Y-109347000D01*
X150495000Y-110871000D02*
X150495000Y-109347000D01*
X150622000Y-109347000D02*
X150622000Y-110871000D01*
X151003000Y-110871000D02*
X151003000Y-109347000D01*
X150876000Y-109347000D02*
X150876000Y-110871000D01*
X150749000Y-110871000D02*
X150749000Y-109347000D01*
X146050000Y-110871000D02*
X146558000Y-110871000D01*
X146050000Y-109347000D02*
X146050000Y-110871000D01*
X151130000Y-109347000D02*
X146050000Y-109347000D01*
X151130000Y-110871000D02*
X151130000Y-109347000D01*
X146050000Y-110871000D02*
X151130000Y-110871000D01*
G04 #@! TO.C,D3:3*
X127000000Y-109220000D02*
X132080000Y-109220000D01*
X132080000Y-109220000D02*
X132080000Y-107696000D01*
X132080000Y-107696000D02*
X127000000Y-107696000D01*
X127000000Y-107696000D02*
X127000000Y-109220000D01*
X127000000Y-109220000D02*
X127508000Y-109220000D01*
X131699000Y-109220000D02*
X131699000Y-107696000D01*
X131826000Y-107696000D02*
X131826000Y-109220000D01*
X131953000Y-109220000D02*
X131953000Y-107696000D01*
X131572000Y-107696000D02*
X131572000Y-109220000D01*
X131445000Y-109220000D02*
X131445000Y-107696000D01*
X131318000Y-109220000D02*
X131318000Y-107696000D01*
G04 #@! TO.C,D3:4*
X112395000Y-110871000D02*
X112395000Y-109347000D01*
X112522000Y-110871000D02*
X112522000Y-109347000D01*
X112649000Y-109347000D02*
X112649000Y-110871000D01*
X113030000Y-110871000D02*
X113030000Y-109347000D01*
X112903000Y-109347000D02*
X112903000Y-110871000D01*
X112776000Y-110871000D02*
X112776000Y-109347000D01*
X108077000Y-110871000D02*
X108585000Y-110871000D01*
X108077000Y-109347000D02*
X108077000Y-110871000D01*
X113157000Y-109347000D02*
X108077000Y-109347000D01*
X113157000Y-110871000D02*
X113157000Y-109347000D01*
X108077000Y-110871000D02*
X113157000Y-110871000D01*
G04 #@! TO.C,D3:5*
X88900000Y-112014000D02*
X93980000Y-112014000D01*
X93980000Y-112014000D02*
X93980000Y-110490000D01*
X93980000Y-110490000D02*
X88900000Y-110490000D01*
X88900000Y-110490000D02*
X88900000Y-112014000D01*
X88900000Y-112014000D02*
X89408000Y-112014000D01*
X93599000Y-112014000D02*
X93599000Y-110490000D01*
X93726000Y-110490000D02*
X93726000Y-112014000D01*
X93853000Y-112014000D02*
X93853000Y-110490000D01*
X93472000Y-110490000D02*
X93472000Y-112014000D01*
X93345000Y-112014000D02*
X93345000Y-110490000D01*
X93218000Y-112014000D02*
X93218000Y-110490000D01*
G04 #@! TO.C,D4:0*
X193141600Y-94361000D02*
X193141600Y-92837000D01*
X193268600Y-94361000D02*
X193268600Y-92837000D01*
X193395600Y-92837000D02*
X193395600Y-94361000D01*
X193776600Y-94361000D02*
X193776600Y-92837000D01*
X193649600Y-92837000D02*
X193649600Y-94361000D01*
X193522600Y-94361000D02*
X193522600Y-92837000D01*
X188823600Y-94361000D02*
X189331600Y-94361000D01*
X188823600Y-92837000D02*
X188823600Y-94361000D01*
X193903600Y-92837000D02*
X188823600Y-92837000D01*
X193903600Y-94361000D02*
X193903600Y-92837000D01*
X188823600Y-94361000D02*
X193903600Y-94361000D01*
G04 #@! TO.C,D4:1*
X165100000Y-94869000D02*
X170180000Y-94869000D01*
X170180000Y-94869000D02*
X170180000Y-93345000D01*
X170180000Y-93345000D02*
X165100000Y-93345000D01*
X165100000Y-93345000D02*
X165100000Y-94869000D01*
X165100000Y-94869000D02*
X165608000Y-94869000D01*
X169799000Y-94869000D02*
X169799000Y-93345000D01*
X169926000Y-93345000D02*
X169926000Y-94869000D01*
X170053000Y-94869000D02*
X170053000Y-93345000D01*
X169672000Y-93345000D02*
X169672000Y-94869000D01*
X169545000Y-94869000D02*
X169545000Y-93345000D01*
X169418000Y-94869000D02*
X169418000Y-93345000D01*
G04 #@! TO.C,D4:2*
X150495000Y-91821000D02*
X150495000Y-90297000D01*
X150622000Y-91821000D02*
X150622000Y-90297000D01*
X150749000Y-90297000D02*
X150749000Y-91821000D01*
X151130000Y-91821000D02*
X151130000Y-90297000D01*
X151003000Y-90297000D02*
X151003000Y-91821000D01*
X150876000Y-91821000D02*
X150876000Y-90297000D01*
X146177000Y-91821000D02*
X146685000Y-91821000D01*
X146177000Y-90297000D02*
X146177000Y-91821000D01*
X151257000Y-90297000D02*
X146177000Y-90297000D01*
X151257000Y-91821000D02*
X151257000Y-90297000D01*
X146177000Y-91821000D02*
X151257000Y-91821000D01*
G04 #@! TO.C,D4:3*
X126873000Y-90170000D02*
X131953000Y-90170000D01*
X131953000Y-90170000D02*
X131953000Y-88646000D01*
X131953000Y-88646000D02*
X126873000Y-88646000D01*
X126873000Y-88646000D02*
X126873000Y-90170000D01*
X126873000Y-90170000D02*
X127381000Y-90170000D01*
X131572000Y-90170000D02*
X131572000Y-88646000D01*
X131699000Y-88646000D02*
X131699000Y-90170000D01*
X131826000Y-90170000D02*
X131826000Y-88646000D01*
X131445000Y-88646000D02*
X131445000Y-90170000D01*
X131318000Y-90170000D02*
X131318000Y-88646000D01*
X131191000Y-90170000D02*
X131191000Y-88646000D01*
G04 #@! TO.C,D4:4*
X112268000Y-91694000D02*
X112268000Y-90170000D01*
X112395000Y-91694000D02*
X112395000Y-90170000D01*
X112522000Y-90170000D02*
X112522000Y-91694000D01*
X112903000Y-91694000D02*
X112903000Y-90170000D01*
X112776000Y-90170000D02*
X112776000Y-91694000D01*
X112649000Y-91694000D02*
X112649000Y-90170000D01*
X107950000Y-91694000D02*
X108458000Y-91694000D01*
X107950000Y-90170000D02*
X107950000Y-91694000D01*
X113030000Y-90170000D02*
X107950000Y-90170000D01*
X113030000Y-91694000D02*
X113030000Y-90170000D01*
X107950000Y-91694000D02*
X113030000Y-91694000D01*
G04 #@! TO.C,D4:5*
X88900000Y-93091000D02*
X93980000Y-93091000D01*
X93980000Y-93091000D02*
X93980000Y-91567000D01*
X93980000Y-91567000D02*
X88900000Y-91567000D01*
X88900000Y-91567000D02*
X88900000Y-93091000D01*
X88900000Y-93091000D02*
X89408000Y-93091000D01*
X93599000Y-93091000D02*
X93599000Y-91567000D01*
X93726000Y-91567000D02*
X93726000Y-93091000D01*
X93853000Y-93091000D02*
X93853000Y-91567000D01*
X93472000Y-91567000D02*
X93472000Y-93091000D01*
X93345000Y-93091000D02*
X93345000Y-91567000D01*
X93218000Y-93091000D02*
X93218000Y-91567000D01*
G04 #@! TO.C,D4:6*
X80772000Y-87020400D02*
X79248000Y-87020400D01*
X80772000Y-86893400D02*
X79248000Y-86893400D01*
X79248000Y-86766400D02*
X80772000Y-86766400D01*
X80772000Y-86385400D02*
X79248000Y-86385400D01*
X79248000Y-86512400D02*
X80772000Y-86512400D01*
X80772000Y-86639400D02*
X79248000Y-86639400D01*
X80772000Y-91338400D02*
X80772000Y-90830400D01*
X79248000Y-91338400D02*
X80772000Y-91338400D01*
X79248000Y-86258400D02*
X79248000Y-91338400D01*
X80772000Y-86258400D02*
X79248000Y-86258400D01*
X80772000Y-91338400D02*
X80772000Y-86258400D01*
G04 #@! TO.C,D5:0*
X188849000Y-75946000D02*
X193929000Y-75946000D01*
X193929000Y-75946000D02*
X193929000Y-74422000D01*
X193929000Y-74422000D02*
X188849000Y-74422000D01*
X188849000Y-74422000D02*
X188849000Y-75946000D01*
X188849000Y-75946000D02*
X189357000Y-75946000D01*
X193548000Y-75946000D02*
X193548000Y-74422000D01*
X193675000Y-74422000D02*
X193675000Y-75946000D01*
X193802000Y-75946000D02*
X193802000Y-74422000D01*
X193421000Y-74422000D02*
X193421000Y-75946000D01*
X193294000Y-75946000D02*
X193294000Y-74422000D01*
X193167000Y-75946000D02*
X193167000Y-74422000D01*
G04 #@! TO.C,D5:1*
X169291000Y-75692000D02*
X169291000Y-74168000D01*
X169418000Y-75692000D02*
X169418000Y-74168000D01*
X169545000Y-74168000D02*
X169545000Y-75692000D01*
X169926000Y-75692000D02*
X169926000Y-74168000D01*
X169799000Y-74168000D02*
X169799000Y-75692000D01*
X169672000Y-75692000D02*
X169672000Y-74168000D01*
X164973000Y-75692000D02*
X165481000Y-75692000D01*
X164973000Y-74168000D02*
X164973000Y-75692000D01*
X170053000Y-74168000D02*
X164973000Y-74168000D01*
X170053000Y-75692000D02*
X170053000Y-74168000D01*
X164973000Y-75692000D02*
X170053000Y-75692000D01*
G04 #@! TO.C,D5:2*
X146050000Y-72644000D02*
X151130000Y-72644000D01*
X151130000Y-72644000D02*
X151130000Y-71120000D01*
X151130000Y-71120000D02*
X146050000Y-71120000D01*
X146050000Y-71120000D02*
X146050000Y-72644000D01*
X146050000Y-72644000D02*
X146558000Y-72644000D01*
X150749000Y-72644000D02*
X150749000Y-71120000D01*
X150876000Y-71120000D02*
X150876000Y-72644000D01*
X151003000Y-72644000D02*
X151003000Y-71120000D01*
X150622000Y-71120000D02*
X150622000Y-72644000D01*
X150495000Y-72644000D02*
X150495000Y-71120000D01*
X150368000Y-72644000D02*
X150368000Y-71120000D01*
G04 #@! TO.C,D5:3*
X131318000Y-71120000D02*
X131318000Y-69596000D01*
X131445000Y-71120000D02*
X131445000Y-69596000D01*
X131572000Y-69596000D02*
X131572000Y-71120000D01*
X131953000Y-71120000D02*
X131953000Y-69596000D01*
X131826000Y-69596000D02*
X131826000Y-71120000D01*
X131699000Y-71120000D02*
X131699000Y-69596000D01*
X127000000Y-71120000D02*
X127508000Y-71120000D01*
X127000000Y-69596000D02*
X127000000Y-71120000D01*
X132080000Y-69596000D02*
X127000000Y-69596000D01*
X132080000Y-71120000D02*
X132080000Y-69596000D01*
X127000000Y-71120000D02*
X132080000Y-71120000D01*
G04 #@! TO.C,D5:4*
X107823000Y-72644000D02*
X112903000Y-72644000D01*
X112903000Y-72644000D02*
X112903000Y-71120000D01*
X112903000Y-71120000D02*
X107823000Y-71120000D01*
X107823000Y-71120000D02*
X107823000Y-72644000D01*
X107823000Y-72644000D02*
X108331000Y-72644000D01*
X112522000Y-72644000D02*
X112522000Y-71120000D01*
X112649000Y-71120000D02*
X112649000Y-72644000D01*
X112776000Y-72644000D02*
X112776000Y-71120000D01*
X112395000Y-71120000D02*
X112395000Y-72644000D01*
X112268000Y-72644000D02*
X112268000Y-71120000D01*
X112141000Y-72644000D02*
X112141000Y-71120000D01*
G04 #@! TO.C,D5:5*
X93218000Y-74041000D02*
X93218000Y-72517000D01*
X93345000Y-74041000D02*
X93345000Y-72517000D01*
X93472000Y-72517000D02*
X93472000Y-74041000D01*
X93853000Y-74041000D02*
X93853000Y-72517000D01*
X93726000Y-72517000D02*
X93726000Y-74041000D01*
X93599000Y-74041000D02*
X93599000Y-72517000D01*
X88900000Y-74041000D02*
X89408000Y-74041000D01*
X88900000Y-72517000D02*
X88900000Y-74041000D01*
X93980000Y-72517000D02*
X88900000Y-72517000D01*
X93980000Y-74041000D02*
X93980000Y-72517000D01*
X88900000Y-74041000D02*
X93980000Y-74041000D01*
G04 #@! TO.C,D5:6*
X69850000Y-73279000D02*
X74930000Y-73279000D01*
X74930000Y-73279000D02*
X74930000Y-71755000D01*
X74930000Y-71755000D02*
X69850000Y-71755000D01*
X69850000Y-71755000D02*
X69850000Y-73279000D01*
X69850000Y-73279000D02*
X70358000Y-73279000D01*
X74549000Y-73279000D02*
X74549000Y-71755000D01*
X74676000Y-71755000D02*
X74676000Y-73279000D01*
X74803000Y-73279000D02*
X74803000Y-71755000D01*
X74422000Y-71755000D02*
X74422000Y-73279000D01*
X74295000Y-73279000D02*
X74295000Y-71755000D01*
X74168000Y-73279000D02*
X74168000Y-71755000D01*
G04 #@! TO.C,R_cc1*
X151493220Y-35148520D02*
X152001220Y-35148520D01*
X145397220Y-35148520D02*
X145905220Y-35148520D01*
X145905220Y-35910520D02*
X145905220Y-34386520D01*
X146159220Y-36164520D02*
X145905220Y-35910520D01*
X146413220Y-36164520D02*
X146159220Y-36164520D01*
X146667220Y-35910520D02*
X146413220Y-36164520D01*
X150731220Y-35910520D02*
X146667220Y-35910520D01*
X150985220Y-36164520D02*
X150731220Y-35910520D01*
X151239220Y-36164520D02*
X150985220Y-36164520D01*
X151493220Y-35910520D02*
X151239220Y-36164520D01*
X151493220Y-34386520D02*
X151493220Y-35910520D01*
X151239220Y-34132520D02*
X151493220Y-34386520D01*
X150985220Y-34132520D02*
X151239220Y-34132520D01*
X150731220Y-34386520D02*
X150985220Y-34132520D01*
X146667220Y-34386520D02*
X150731220Y-34386520D01*
X146413220Y-34132520D02*
X146667220Y-34386520D01*
X146159220Y-34132520D02*
X146413220Y-34132520D01*
X145905220Y-34386520D02*
X146159220Y-34132520D01*
G04 #@! TO.C,R_cc2*
X130225800Y-35509200D02*
X129971800Y-35763200D01*
X129971800Y-35763200D02*
X129717800Y-35763200D01*
X129717800Y-35763200D02*
X129463800Y-35509200D01*
X129463800Y-35509200D02*
X125399800Y-35509200D01*
X125399800Y-35509200D02*
X125145800Y-35763200D01*
X125145800Y-35763200D02*
X124891800Y-35763200D01*
X124891800Y-35763200D02*
X124637800Y-35509200D01*
X124637800Y-35509200D02*
X124637800Y-33985200D01*
X124637800Y-33985200D02*
X124891800Y-33731200D01*
X124891800Y-33731200D02*
X125145800Y-33731200D01*
X125145800Y-33731200D02*
X125399800Y-33985200D01*
X125399800Y-33985200D02*
X129463800Y-33985200D01*
X129463800Y-33985200D02*
X129717800Y-33731200D01*
X129717800Y-33731200D02*
X129971800Y-33731200D01*
X129971800Y-33731200D02*
X130225800Y-33985200D01*
X130225800Y-33985200D02*
X130225800Y-35509200D01*
X130733800Y-34747200D02*
X130225800Y-34747200D01*
X124637800Y-34747200D02*
X124129800Y-34747200D01*
D15*
G04 #@! TO.C,J_Audio_B1*
X83715220Y-30764880D02*
X83715220Y-28764880D01*
X88715220Y-30764880D02*
X88715220Y-28764880D01*
X88715220Y-28764880D02*
X83715220Y-28764880D01*
X83715220Y-30764880D02*
X83115220Y-30764880D01*
X89315220Y-30764880D02*
X88715220Y-30764880D01*
X83115220Y-42864880D02*
X89315220Y-42864880D01*
X89315220Y-30764880D02*
X89315220Y-33139880D01*
X89315220Y-34789880D02*
X89315220Y-36139880D01*
X89315220Y-37789880D02*
X89315220Y-40189880D01*
X89315220Y-41739880D02*
X89315220Y-42864880D01*
X83115220Y-41289880D02*
X83115220Y-30764880D01*
X89315220Y-41739880D02*
X90715220Y-41739880D01*
X89315220Y-40189880D02*
X90715220Y-40189880D01*
D16*
G04 #@! TO.C,G\002A\002A\002A*
G36*
X94712466Y-45859784D02*
X95002854Y-45940302D01*
X95166117Y-46104536D01*
X95230813Y-46373740D01*
X95234975Y-46562640D01*
X95138694Y-47101147D01*
X94875135Y-47695012D01*
X94452994Y-48327676D01*
X94068936Y-48783508D01*
X93556607Y-49281012D01*
X93052203Y-49652412D01*
X92578311Y-49887022D01*
X92157519Y-49974156D01*
X91812414Y-49903127D01*
X91762863Y-49874532D01*
X91501046Y-49639872D01*
X91371256Y-49330833D01*
X91342521Y-49000572D01*
X91402966Y-48592016D01*
X91999488Y-48592016D01*
X92034178Y-48930614D01*
X92158587Y-49139025D01*
X92377000Y-49268631D01*
X92607819Y-49326959D01*
X92855137Y-49288531D01*
X93171100Y-49140560D01*
X93362122Y-49027078D01*
X93763986Y-48696770D01*
X94150629Y-48234193D01*
X94466951Y-47705659D01*
X94476481Y-47685925D01*
X94581081Y-47364660D01*
X94626165Y-47007335D01*
X94609594Y-46686046D01*
X94529228Y-46472887D01*
X94512976Y-46455967D01*
X94358463Y-46399763D01*
X94084839Y-46366798D01*
X93850237Y-46362920D01*
X93573240Y-46376290D01*
X93376405Y-46420266D01*
X93204394Y-46526093D01*
X93001867Y-46725019D01*
X92790107Y-46961522D01*
X92377943Y-47486105D01*
X92122457Y-47958378D01*
X92008674Y-48409225D01*
X91999488Y-48592016D01*
X91402966Y-48592016D01*
X91425121Y-48442276D01*
X91682453Y-47847180D01*
X92117576Y-47208896D01*
X92313505Y-46972879D01*
X92756038Y-46496104D01*
X93142144Y-46168700D01*
X93513404Y-45966583D01*
X93911399Y-45865669D01*
X94266396Y-45841726D01*
X94712466Y-45859784D01*
X94712466Y-45859784D01*
G37*
X94712466Y-45859784D02*
X95002854Y-45940302D01*
X95166117Y-46104536D01*
X95230813Y-46373740D01*
X95234975Y-46562640D01*
X95138694Y-47101147D01*
X94875135Y-47695012D01*
X94452994Y-48327676D01*
X94068936Y-48783508D01*
X93556607Y-49281012D01*
X93052203Y-49652412D01*
X92578311Y-49887022D01*
X92157519Y-49974156D01*
X91812414Y-49903127D01*
X91762863Y-49874532D01*
X91501046Y-49639872D01*
X91371256Y-49330833D01*
X91342521Y-49000572D01*
X91402966Y-48592016D01*
X91999488Y-48592016D01*
X92034178Y-48930614D01*
X92158587Y-49139025D01*
X92377000Y-49268631D01*
X92607819Y-49326959D01*
X92855137Y-49288531D01*
X93171100Y-49140560D01*
X93362122Y-49027078D01*
X93763986Y-48696770D01*
X94150629Y-48234193D01*
X94466951Y-47705659D01*
X94476481Y-47685925D01*
X94581081Y-47364660D01*
X94626165Y-47007335D01*
X94609594Y-46686046D01*
X94529228Y-46472887D01*
X94512976Y-46455967D01*
X94358463Y-46399763D01*
X94084839Y-46366798D01*
X93850237Y-46362920D01*
X93573240Y-46376290D01*
X93376405Y-46420266D01*
X93204394Y-46526093D01*
X93001867Y-46725019D01*
X92790107Y-46961522D01*
X92377943Y-47486105D01*
X92122457Y-47958378D01*
X92008674Y-48409225D01*
X91999488Y-48592016D01*
X91402966Y-48592016D01*
X91425121Y-48442276D01*
X91682453Y-47847180D01*
X92117576Y-47208896D01*
X92313505Y-46972879D01*
X92756038Y-46496104D01*
X93142144Y-46168700D01*
X93513404Y-45966583D01*
X93911399Y-45865669D01*
X94266396Y-45841726D01*
X94712466Y-45859784D01*
G36*
X86026237Y-45851764D02*
X86166630Y-45900091D01*
X86262580Y-45995599D01*
X86297878Y-46047316D01*
X86415877Y-46312817D01*
X86430008Y-46617641D01*
X86336240Y-47004118D01*
X86165664Y-47435354D01*
X85832140Y-48039486D01*
X85380575Y-48637901D01*
X84861874Y-49173442D01*
X84326940Y-49588951D01*
X84159761Y-49687706D01*
X83695968Y-49901802D01*
X83332244Y-49980185D01*
X83033105Y-49928061D01*
X82919900Y-49869565D01*
X82652325Y-49632157D01*
X82523345Y-49311171D01*
X82500477Y-49027080D01*
X82562058Y-48629145D01*
X83157275Y-48629145D01*
X83217286Y-48954654D01*
X83319714Y-49099675D01*
X83621921Y-49294244D01*
X83954515Y-49319252D01*
X84346134Y-49173688D01*
X84542655Y-49056557D01*
X84902568Y-48750826D01*
X85244555Y-48334881D01*
X85534053Y-47864789D01*
X85736501Y-47396617D01*
X85817279Y-46988810D01*
X85789185Y-46664939D01*
X85665382Y-46467889D01*
X85417665Y-46375321D01*
X85028978Y-46364375D01*
X84712411Y-46390022D01*
X84490882Y-46456101D01*
X84289193Y-46599243D01*
X84043014Y-46844652D01*
X83674053Y-47296610D01*
X83396329Y-47766856D01*
X83220513Y-48222123D01*
X83157275Y-48629145D01*
X82562058Y-48629145D01*
X82577207Y-48531256D01*
X82795715Y-47979340D01*
X83131524Y-47410369D01*
X83560154Y-46863376D01*
X84057128Y-46377397D01*
X84266231Y-46211312D01*
X84521409Y-46040256D01*
X84761639Y-45937805D01*
X85057310Y-45882227D01*
X85421266Y-45854728D01*
X85793686Y-45840138D01*
X86026237Y-45851764D01*
X86026237Y-45851764D01*
G37*
X86026237Y-45851764D02*
X86166630Y-45900091D01*
X86262580Y-45995599D01*
X86297878Y-46047316D01*
X86415877Y-46312817D01*
X86430008Y-46617641D01*
X86336240Y-47004118D01*
X86165664Y-47435354D01*
X85832140Y-48039486D01*
X85380575Y-48637901D01*
X84861874Y-49173442D01*
X84326940Y-49588951D01*
X84159761Y-49687706D01*
X83695968Y-49901802D01*
X83332244Y-49980185D01*
X83033105Y-49928061D01*
X82919900Y-49869565D01*
X82652325Y-49632157D01*
X82523345Y-49311171D01*
X82500477Y-49027080D01*
X82562058Y-48629145D01*
X83157275Y-48629145D01*
X83217286Y-48954654D01*
X83319714Y-49099675D01*
X83621921Y-49294244D01*
X83954515Y-49319252D01*
X84346134Y-49173688D01*
X84542655Y-49056557D01*
X84902568Y-48750826D01*
X85244555Y-48334881D01*
X85534053Y-47864789D01*
X85736501Y-47396617D01*
X85817279Y-46988810D01*
X85789185Y-46664939D01*
X85665382Y-46467889D01*
X85417665Y-46375321D01*
X85028978Y-46364375D01*
X84712411Y-46390022D01*
X84490882Y-46456101D01*
X84289193Y-46599243D01*
X84043014Y-46844652D01*
X83674053Y-47296610D01*
X83396329Y-47766856D01*
X83220513Y-48222123D01*
X83157275Y-48629145D01*
X82562058Y-48629145D01*
X82577207Y-48531256D01*
X82795715Y-47979340D01*
X83131524Y-47410369D01*
X83560154Y-46863376D01*
X84057128Y-46377397D01*
X84266231Y-46211312D01*
X84521409Y-46040256D01*
X84761639Y-45937805D01*
X85057310Y-45882227D01*
X85421266Y-45854728D01*
X85793686Y-45840138D01*
X86026237Y-45851764D01*
G36*
X92843897Y-43548418D02*
X92900655Y-43716413D01*
X92806141Y-43983529D01*
X92644948Y-44230222D01*
X92133926Y-44929666D01*
X91633168Y-45643646D01*
X91156212Y-46350369D01*
X90716594Y-47028041D01*
X90327850Y-47654867D01*
X90003516Y-48209056D01*
X89757128Y-48668812D01*
X89602223Y-49012342D01*
X89552122Y-49209756D01*
X89569721Y-49319733D01*
X89652284Y-49367426D01*
X89844463Y-49363753D01*
X90069529Y-49336275D01*
X90373781Y-49305378D01*
X90532837Y-49321682D01*
X90585682Y-49390868D01*
X90586937Y-49411677D01*
X90504090Y-49493713D01*
X90284863Y-49616109D01*
X89973225Y-49761331D01*
X89613147Y-49911845D01*
X89248597Y-50050118D01*
X88923547Y-50158616D01*
X88681965Y-50219804D01*
X88568276Y-50216659D01*
X88515828Y-50026302D01*
X88567067Y-49713884D01*
X88714097Y-49320950D01*
X88754788Y-49235372D01*
X88992269Y-48753001D01*
X88597267Y-49118156D01*
X88082142Y-49526993D01*
X87585289Y-49794439D01*
X87129034Y-49915197D01*
X86735705Y-49883972D01*
X86427627Y-49695470D01*
X86382222Y-49643516D01*
X86210655Y-49280726D01*
X86199139Y-48926080D01*
X86962128Y-48926080D01*
X87040429Y-49218998D01*
X87234965Y-49373092D01*
X87529222Y-49380801D01*
X87906685Y-49234567D01*
X88201294Y-49044202D01*
X88474234Y-48803899D01*
X88811220Y-48452470D01*
X89169940Y-48040300D01*
X89508082Y-47617775D01*
X89783335Y-47235281D01*
X89937570Y-46976610D01*
X89998393Y-46736243D01*
X89896210Y-46581232D01*
X89626627Y-46507931D01*
X89365842Y-46502162D01*
X88852195Y-46609086D01*
X88326105Y-46872552D01*
X87831441Y-47255221D01*
X87412069Y-47719751D01*
X87111861Y-48228800D01*
X87016576Y-48501897D01*
X86962128Y-48926080D01*
X86199139Y-48926080D01*
X86196421Y-48842386D01*
X86332955Y-48352726D01*
X86613689Y-47835978D01*
X87005150Y-47345079D01*
X87613582Y-46800424D01*
X88261346Y-46423164D01*
X88924525Y-46222989D01*
X89579204Y-46209589D01*
X89740270Y-46236878D01*
X90020093Y-46291758D01*
X90228313Y-46325640D01*
X90274978Y-46330255D01*
X90371826Y-46253873D01*
X90545570Y-46046770D01*
X90769601Y-45747917D01*
X91017311Y-45396283D01*
X91262091Y-45030837D01*
X91477333Y-44690549D01*
X91636429Y-44414388D01*
X91712770Y-44241323D01*
X91715825Y-44220046D01*
X91669760Y-44127003D01*
X91504557Y-44124971D01*
X91410085Y-44144131D01*
X90978483Y-44237637D01*
X90700807Y-44282319D01*
X90548881Y-44280444D01*
X90494526Y-44234281D01*
X90492863Y-44217948D01*
X90566484Y-44086071D01*
X90674645Y-44001559D01*
X90867725Y-43921848D01*
X91188183Y-43820095D01*
X91578400Y-43711312D01*
X91980759Y-43610509D01*
X92337643Y-43532697D01*
X92591435Y-43492884D01*
X92636000Y-43490591D01*
X92843897Y-43548418D01*
X92843897Y-43548418D01*
G37*
X92843897Y-43548418D02*
X92900655Y-43716413D01*
X92806141Y-43983529D01*
X92644948Y-44230222D01*
X92133926Y-44929666D01*
X91633168Y-45643646D01*
X91156212Y-46350369D01*
X90716594Y-47028041D01*
X90327850Y-47654867D01*
X90003516Y-48209056D01*
X89757128Y-48668812D01*
X89602223Y-49012342D01*
X89552122Y-49209756D01*
X89569721Y-49319733D01*
X89652284Y-49367426D01*
X89844463Y-49363753D01*
X90069529Y-49336275D01*
X90373781Y-49305378D01*
X90532837Y-49321682D01*
X90585682Y-49390868D01*
X90586937Y-49411677D01*
X90504090Y-49493713D01*
X90284863Y-49616109D01*
X89973225Y-49761331D01*
X89613147Y-49911845D01*
X89248597Y-50050118D01*
X88923547Y-50158616D01*
X88681965Y-50219804D01*
X88568276Y-50216659D01*
X88515828Y-50026302D01*
X88567067Y-49713884D01*
X88714097Y-49320950D01*
X88754788Y-49235372D01*
X88992269Y-48753001D01*
X88597267Y-49118156D01*
X88082142Y-49526993D01*
X87585289Y-49794439D01*
X87129034Y-49915197D01*
X86735705Y-49883972D01*
X86427627Y-49695470D01*
X86382222Y-49643516D01*
X86210655Y-49280726D01*
X86199139Y-48926080D01*
X86962128Y-48926080D01*
X87040429Y-49218998D01*
X87234965Y-49373092D01*
X87529222Y-49380801D01*
X87906685Y-49234567D01*
X88201294Y-49044202D01*
X88474234Y-48803899D01*
X88811220Y-48452470D01*
X89169940Y-48040300D01*
X89508082Y-47617775D01*
X89783335Y-47235281D01*
X89937570Y-46976610D01*
X89998393Y-46736243D01*
X89896210Y-46581232D01*
X89626627Y-46507931D01*
X89365842Y-46502162D01*
X88852195Y-46609086D01*
X88326105Y-46872552D01*
X87831441Y-47255221D01*
X87412069Y-47719751D01*
X87111861Y-48228800D01*
X87016576Y-48501897D01*
X86962128Y-48926080D01*
X86199139Y-48926080D01*
X86196421Y-48842386D01*
X86332955Y-48352726D01*
X86613689Y-47835978D01*
X87005150Y-47345079D01*
X87613582Y-46800424D01*
X88261346Y-46423164D01*
X88924525Y-46222989D01*
X89579204Y-46209589D01*
X89740270Y-46236878D01*
X90020093Y-46291758D01*
X90228313Y-46325640D01*
X90274978Y-46330255D01*
X90371826Y-46253873D01*
X90545570Y-46046770D01*
X90769601Y-45747917D01*
X91017311Y-45396283D01*
X91262091Y-45030837D01*
X91477333Y-44690549D01*
X91636429Y-44414388D01*
X91712770Y-44241323D01*
X91715825Y-44220046D01*
X91669760Y-44127003D01*
X91504557Y-44124971D01*
X91410085Y-44144131D01*
X90978483Y-44237637D01*
X90700807Y-44282319D01*
X90548881Y-44280444D01*
X90494526Y-44234281D01*
X90492863Y-44217948D01*
X90566484Y-44086071D01*
X90674645Y-44001559D01*
X90867725Y-43921848D01*
X91188183Y-43820095D01*
X91578400Y-43711312D01*
X91980759Y-43610509D01*
X92337643Y-43532697D01*
X92591435Y-43492884D01*
X92636000Y-43490591D01*
X92843897Y-43548418D01*
G36*
X98794284Y-45333809D02*
X98946504Y-45416700D01*
X98959529Y-45471080D01*
X98943320Y-45606658D01*
X98929770Y-45623480D01*
X98796603Y-45642548D01*
X98551642Y-45690490D01*
X98258178Y-45753413D01*
X97979498Y-45817424D01*
X97778891Y-45868630D01*
X97719042Y-45889258D01*
X97723257Y-45993024D01*
X97788233Y-46220488D01*
X97891893Y-46512902D01*
X98012162Y-46811519D01*
X98126966Y-47057591D01*
X98205296Y-47183299D01*
X98313611Y-47173670D01*
X98530527Y-47077664D01*
X98809566Y-46923962D01*
X99104251Y-46741251D01*
X99368106Y-46558213D01*
X99554653Y-46403534D01*
X99618048Y-46311394D01*
X99530475Y-46259955D01*
X99282341Y-46259552D01*
X99100640Y-46279484D01*
X98778970Y-46300055D01*
X98602358Y-46262592D01*
X98584273Y-46176089D01*
X98738182Y-46049537D01*
X98747863Y-46043910D01*
X98953387Y-45969360D01*
X99286038Y-45896129D01*
X99704969Y-45828316D01*
X100169333Y-45770024D01*
X100638282Y-45725352D01*
X101070969Y-45698402D01*
X101426546Y-45693273D01*
X101664166Y-45714067D01*
X101736448Y-45743885D01*
X101765936Y-45871872D01*
X101651013Y-45979803D01*
X101434671Y-46029555D01*
X101413941Y-46029880D01*
X101169143Y-46053458D01*
X100894881Y-46133462D01*
X100561095Y-46283790D01*
X100137724Y-46518342D01*
X99594710Y-46851019D01*
X99476937Y-46925574D01*
X99083863Y-47176251D01*
X98752768Y-47389083D01*
X98515710Y-47543340D01*
X98404743Y-47618296D01*
X98401243Y-47621141D01*
X98411703Y-47731342D01*
X98496247Y-47962618D01*
X98629743Y-48263390D01*
X98787062Y-48582083D01*
X98943071Y-48867118D01*
X99072640Y-49066917D01*
X99136090Y-49129312D01*
X99307443Y-49151225D01*
X99588143Y-49141974D01*
X99778271Y-49121705D01*
X100071301Y-49091422D01*
X100222327Y-49108076D01*
X100274027Y-49179799D01*
X100276566Y-49216637D01*
X100196569Y-49361111D01*
X100064900Y-49425723D01*
X99480277Y-49560993D01*
X99014543Y-49684921D01*
X98600729Y-49817794D01*
X98171867Y-49979898D01*
X97985829Y-50055522D01*
X97548425Y-50233032D01*
X97258118Y-50339880D01*
X97087257Y-50380721D01*
X97008191Y-50360210D01*
X96993272Y-50283000D01*
X97001833Y-50221156D01*
X97111051Y-50080000D01*
X97382041Y-49905015D01*
X97704095Y-49748895D01*
X98374702Y-49454157D01*
X98097048Y-48785812D01*
X97956944Y-48454099D01*
X97846991Y-48204013D01*
X97789088Y-48085230D01*
X97787039Y-48082524D01*
X97692231Y-48109422D01*
X97495002Y-48230047D01*
X97239503Y-48410719D01*
X96969883Y-48617759D01*
X96730293Y-48817485D01*
X96564883Y-48976217D01*
X96515561Y-49052480D01*
X96604635Y-49139871D01*
X96875627Y-49177732D01*
X96978422Y-49179480D01*
X97294266Y-49208244D01*
X97493597Y-49284655D01*
X97547880Y-49393892D01*
X97511527Y-49456388D01*
X97399431Y-49489625D01*
X97143106Y-49530166D01*
X96786054Y-49571816D01*
X96537848Y-49595078D01*
X96051136Y-49654062D01*
X95551794Y-49743027D01*
X95125156Y-49845940D01*
X95008418Y-49882419D01*
X94642250Y-50005286D01*
X94419508Y-50068778D01*
X94304593Y-50076033D01*
X94261908Y-50030190D01*
X94255825Y-49948779D01*
X94338031Y-49833759D01*
X94552831Y-49694190D01*
X94749714Y-49602563D01*
X95007023Y-49472886D01*
X95375905Y-49254286D01*
X95813382Y-48973725D01*
X96276475Y-48658162D01*
X96438143Y-48543368D01*
X97632684Y-47685290D01*
X97292650Y-46908385D01*
X97125151Y-46554379D01*
X96973721Y-46284874D01*
X96863547Y-46143003D01*
X96839012Y-46131480D01*
X96684238Y-46163406D01*
X96435179Y-46243208D01*
X96345788Y-46276132D01*
X96054135Y-46363258D01*
X95898804Y-46342251D01*
X95855085Y-46218755D01*
X95946083Y-46096771D01*
X96210777Y-45950666D01*
X96636714Y-45785879D01*
X97211444Y-45607846D01*
X97330095Y-45574715D01*
X97983997Y-45412949D01*
X98472754Y-45332603D01*
X98794284Y-45333809D01*
X98794284Y-45333809D01*
G37*
X98794284Y-45333809D02*
X98946504Y-45416700D01*
X98959529Y-45471080D01*
X98943320Y-45606658D01*
X98929770Y-45623480D01*
X98796603Y-45642548D01*
X98551642Y-45690490D01*
X98258178Y-45753413D01*
X97979498Y-45817424D01*
X97778891Y-45868630D01*
X97719042Y-45889258D01*
X97723257Y-45993024D01*
X97788233Y-46220488D01*
X97891893Y-46512902D01*
X98012162Y-46811519D01*
X98126966Y-47057591D01*
X98205296Y-47183299D01*
X98313611Y-47173670D01*
X98530527Y-47077664D01*
X98809566Y-46923962D01*
X99104251Y-46741251D01*
X99368106Y-46558213D01*
X99554653Y-46403534D01*
X99618048Y-46311394D01*
X99530475Y-46259955D01*
X99282341Y-46259552D01*
X99100640Y-46279484D01*
X98778970Y-46300055D01*
X98602358Y-46262592D01*
X98584273Y-46176089D01*
X98738182Y-46049537D01*
X98747863Y-46043910D01*
X98953387Y-45969360D01*
X99286038Y-45896129D01*
X99704969Y-45828316D01*
X100169333Y-45770024D01*
X100638282Y-45725352D01*
X101070969Y-45698402D01*
X101426546Y-45693273D01*
X101664166Y-45714067D01*
X101736448Y-45743885D01*
X101765936Y-45871872D01*
X101651013Y-45979803D01*
X101434671Y-46029555D01*
X101413941Y-46029880D01*
X101169143Y-46053458D01*
X100894881Y-46133462D01*
X100561095Y-46283790D01*
X100137724Y-46518342D01*
X99594710Y-46851019D01*
X99476937Y-46925574D01*
X99083863Y-47176251D01*
X98752768Y-47389083D01*
X98515710Y-47543340D01*
X98404743Y-47618296D01*
X98401243Y-47621141D01*
X98411703Y-47731342D01*
X98496247Y-47962618D01*
X98629743Y-48263390D01*
X98787062Y-48582083D01*
X98943071Y-48867118D01*
X99072640Y-49066917D01*
X99136090Y-49129312D01*
X99307443Y-49151225D01*
X99588143Y-49141974D01*
X99778271Y-49121705D01*
X100071301Y-49091422D01*
X100222327Y-49108076D01*
X100274027Y-49179799D01*
X100276566Y-49216637D01*
X100196569Y-49361111D01*
X100064900Y-49425723D01*
X99480277Y-49560993D01*
X99014543Y-49684921D01*
X98600729Y-49817794D01*
X98171867Y-49979898D01*
X97985829Y-50055522D01*
X97548425Y-50233032D01*
X97258118Y-50339880D01*
X97087257Y-50380721D01*
X97008191Y-50360210D01*
X96993272Y-50283000D01*
X97001833Y-50221156D01*
X97111051Y-50080000D01*
X97382041Y-49905015D01*
X97704095Y-49748895D01*
X98374702Y-49454157D01*
X98097048Y-48785812D01*
X97956944Y-48454099D01*
X97846991Y-48204013D01*
X97789088Y-48085230D01*
X97787039Y-48082524D01*
X97692231Y-48109422D01*
X97495002Y-48230047D01*
X97239503Y-48410719D01*
X96969883Y-48617759D01*
X96730293Y-48817485D01*
X96564883Y-48976217D01*
X96515561Y-49052480D01*
X96604635Y-49139871D01*
X96875627Y-49177732D01*
X96978422Y-49179480D01*
X97294266Y-49208244D01*
X97493597Y-49284655D01*
X97547880Y-49393892D01*
X97511527Y-49456388D01*
X97399431Y-49489625D01*
X97143106Y-49530166D01*
X96786054Y-49571816D01*
X96537848Y-49595078D01*
X96051136Y-49654062D01*
X95551794Y-49743027D01*
X95125156Y-49845940D01*
X95008418Y-49882419D01*
X94642250Y-50005286D01*
X94419508Y-50068778D01*
X94304593Y-50076033D01*
X94261908Y-50030190D01*
X94255825Y-49948779D01*
X94338031Y-49833759D01*
X94552831Y-49694190D01*
X94749714Y-49602563D01*
X95007023Y-49472886D01*
X95375905Y-49254286D01*
X95813382Y-48973725D01*
X96276475Y-48658162D01*
X96438143Y-48543368D01*
X97632684Y-47685290D01*
X97292650Y-46908385D01*
X97125151Y-46554379D01*
X96973721Y-46284874D01*
X96863547Y-46143003D01*
X96839012Y-46131480D01*
X96684238Y-46163406D01*
X96435179Y-46243208D01*
X96345788Y-46276132D01*
X96054135Y-46363258D01*
X95898804Y-46342251D01*
X95855085Y-46218755D01*
X95946083Y-46096771D01*
X96210777Y-45950666D01*
X96636714Y-45785879D01*
X97211444Y-45607846D01*
X97330095Y-45574715D01*
X97983997Y-45412949D01*
X98472754Y-45332603D01*
X98794284Y-45333809D01*
G36*
X113204523Y-42042481D02*
X113116922Y-42283446D01*
X112993883Y-42498426D01*
X112830134Y-42781472D01*
X112618955Y-43181956D01*
X112394413Y-43634170D01*
X112282320Y-43870880D01*
X112036204Y-44370778D01*
X111851385Y-44683879D01*
X111731182Y-44810660D01*
X111678918Y-44751599D01*
X111697912Y-44507174D01*
X111791487Y-44077861D01*
X111862681Y-43810529D01*
X111930980Y-43531106D01*
X111928825Y-43371457D01*
X111848496Y-43259782D01*
X111798917Y-43217467D01*
X111544937Y-43119500D01*
X111170464Y-43112360D01*
X110720180Y-43189570D01*
X110238767Y-43344655D01*
X109919048Y-43489937D01*
X109188231Y-43940167D01*
X108492957Y-44507263D01*
X107853549Y-45162909D01*
X107290331Y-45878785D01*
X106823627Y-46626574D01*
X106473759Y-47377958D01*
X106261053Y-48104620D01*
X106203233Y-48667338D01*
X106227196Y-49027547D01*
X106320627Y-49289207D01*
X106470243Y-49499017D01*
X106673495Y-49707225D01*
X106880589Y-49798393D01*
X107168362Y-49814721D01*
X107670986Y-49724908D01*
X108265655Y-49475151D01*
X108937689Y-49072855D01*
X109583101Y-48597192D01*
X109976651Y-48288056D01*
X110244747Y-48091073D01*
X110410618Y-47993874D01*
X110497495Y-47984093D01*
X110528606Y-48049363D01*
X110530640Y-48092749D01*
X110452833Y-48274222D01*
X110238921Y-48528518D01*
X109918167Y-48831541D01*
X109519835Y-49159196D01*
X109073188Y-49487390D01*
X108607490Y-49792026D01*
X108159236Y-50045308D01*
X107616836Y-50278597D01*
X107083878Y-50427326D01*
X106605636Y-50483327D01*
X106227379Y-50438433D01*
X106148523Y-50408074D01*
X105853392Y-50177864D01*
X105598804Y-49816405D01*
X105430868Y-49395560D01*
X105400301Y-49241914D01*
X105393321Y-48538551D01*
X105548072Y-47798932D01*
X105845370Y-47042595D01*
X106266029Y-46289075D01*
X106790864Y-45557907D01*
X107400688Y-44868629D01*
X108076316Y-44240776D01*
X108798564Y-43693885D01*
X109548244Y-43247491D01*
X110306173Y-42921130D01*
X111053164Y-42734339D01*
X111770031Y-42706653D01*
X111814283Y-42710741D01*
X112392696Y-42769075D01*
X112645522Y-42375062D01*
X112823243Y-42128018D01*
X112979595Y-41959968D01*
X113028518Y-41927101D01*
X113175480Y-41916692D01*
X113204523Y-42042481D01*
X113204523Y-42042481D01*
G37*
X113204523Y-42042481D02*
X113116922Y-42283446D01*
X112993883Y-42498426D01*
X112830134Y-42781472D01*
X112618955Y-43181956D01*
X112394413Y-43634170D01*
X112282320Y-43870880D01*
X112036204Y-44370778D01*
X111851385Y-44683879D01*
X111731182Y-44810660D01*
X111678918Y-44751599D01*
X111697912Y-44507174D01*
X111791487Y-44077861D01*
X111862681Y-43810529D01*
X111930980Y-43531106D01*
X111928825Y-43371457D01*
X111848496Y-43259782D01*
X111798917Y-43217467D01*
X111544937Y-43119500D01*
X111170464Y-43112360D01*
X110720180Y-43189570D01*
X110238767Y-43344655D01*
X109919048Y-43489937D01*
X109188231Y-43940167D01*
X108492957Y-44507263D01*
X107853549Y-45162909D01*
X107290331Y-45878785D01*
X106823627Y-46626574D01*
X106473759Y-47377958D01*
X106261053Y-48104620D01*
X106203233Y-48667338D01*
X106227196Y-49027547D01*
X106320627Y-49289207D01*
X106470243Y-49499017D01*
X106673495Y-49707225D01*
X106880589Y-49798393D01*
X107168362Y-49814721D01*
X107670986Y-49724908D01*
X108265655Y-49475151D01*
X108937689Y-49072855D01*
X109583101Y-48597192D01*
X109976651Y-48288056D01*
X110244747Y-48091073D01*
X110410618Y-47993874D01*
X110497495Y-47984093D01*
X110528606Y-48049363D01*
X110530640Y-48092749D01*
X110452833Y-48274222D01*
X110238921Y-48528518D01*
X109918167Y-48831541D01*
X109519835Y-49159196D01*
X109073188Y-49487390D01*
X108607490Y-49792026D01*
X108159236Y-50045308D01*
X107616836Y-50278597D01*
X107083878Y-50427326D01*
X106605636Y-50483327D01*
X106227379Y-50438433D01*
X106148523Y-50408074D01*
X105853392Y-50177864D01*
X105598804Y-49816405D01*
X105430868Y-49395560D01*
X105400301Y-49241914D01*
X105393321Y-48538551D01*
X105548072Y-47798932D01*
X105845370Y-47042595D01*
X106266029Y-46289075D01*
X106790864Y-45557907D01*
X107400688Y-44868629D01*
X108076316Y-44240776D01*
X108798564Y-43693885D01*
X109548244Y-43247491D01*
X110306173Y-42921130D01*
X111053164Y-42734339D01*
X111770031Y-42706653D01*
X111814283Y-42710741D01*
X112392696Y-42769075D01*
X112645522Y-42375062D01*
X112823243Y-42128018D01*
X112979595Y-41959968D01*
X113028518Y-41927101D01*
X113175480Y-41916692D01*
X113204523Y-42042481D01*
G36*
X78014115Y-45855123D02*
X78064673Y-45972574D01*
X78058109Y-46053680D01*
X77961942Y-46255724D01*
X77764652Y-46457541D01*
X77725914Y-46485480D01*
X77473157Y-46737718D01*
X77368076Y-47045880D01*
X77287518Y-47414025D01*
X77171748Y-47618738D01*
X76991998Y-47699665D01*
X76888906Y-47706280D01*
X76711798Y-47689267D01*
X76640299Y-47598505D01*
X76635112Y-47374406D01*
X76637642Y-47325280D01*
X76640304Y-47080541D01*
X76620979Y-46950632D01*
X76613098Y-46944280D01*
X76463231Y-46995472D01*
X76207003Y-47129086D01*
X75894815Y-47315172D01*
X75577066Y-47523781D01*
X75318506Y-47713528D01*
X75007476Y-48006641D01*
X74722587Y-48356636D01*
X74495313Y-48715105D01*
X74357132Y-49033639D01*
X74332274Y-49230280D01*
X74372822Y-49344553D01*
X74485645Y-49411721D01*
X74714416Y-49448365D01*
X74947122Y-49463728D01*
X75302648Y-49503943D01*
X75488811Y-49570857D01*
X75520979Y-49652605D01*
X75414518Y-49737321D01*
X75184794Y-49813140D01*
X74847173Y-49868198D01*
X74417022Y-49890627D01*
X74394191Y-49890680D01*
X74189125Y-49921266D01*
X73860948Y-50003330D01*
X73464487Y-50122327D01*
X73245184Y-50195480D01*
X72804793Y-50346893D01*
X72514213Y-50440460D01*
X72344022Y-50480155D01*
X72264801Y-50469952D01*
X72247130Y-50413826D01*
X72259299Y-50328661D01*
X72360832Y-50194006D01*
X72592497Y-50036970D01*
X72785340Y-49941953D01*
X73000197Y-49842041D01*
X73164331Y-49735260D01*
X73307449Y-49585277D01*
X73459260Y-49355760D01*
X73649471Y-49010376D01*
X73828834Y-48665771D01*
X74078268Y-48189165D01*
X74328068Y-47722640D01*
X74545712Y-47326378D01*
X74673919Y-47101926D01*
X74820663Y-46820153D01*
X74897220Y-46604007D01*
X74893713Y-46515758D01*
X74766246Y-46496752D01*
X74533391Y-46545178D01*
X74411361Y-46586711D01*
X74041002Y-46704392D01*
X73788909Y-46734765D01*
X73675347Y-46677074D01*
X73677109Y-46614122D01*
X73792784Y-46500394D01*
X74060027Y-46357422D01*
X74446588Y-46199291D01*
X74920214Y-46040082D01*
X75138678Y-45975905D01*
X75550604Y-45889205D01*
X75803702Y-45909934D01*
X75901720Y-46043246D01*
X75848409Y-46294292D01*
X75647516Y-46668224D01*
X75645168Y-46671974D01*
X75478498Y-46940972D01*
X75353172Y-47148800D01*
X75317742Y-47210774D01*
X75359506Y-47225606D01*
X75528899Y-47157754D01*
X75791061Y-47026975D01*
X76111133Y-46853023D01*
X76454254Y-46655656D01*
X76785565Y-46454630D01*
X77070205Y-46269699D01*
X77273314Y-46120622D01*
X77327640Y-46071712D01*
X77574874Y-45897133D01*
X77828072Y-45826680D01*
X78014115Y-45855123D01*
X78014115Y-45855123D01*
G37*
X78014115Y-45855123D02*
X78064673Y-45972574D01*
X78058109Y-46053680D01*
X77961942Y-46255724D01*
X77764652Y-46457541D01*
X77725914Y-46485480D01*
X77473157Y-46737718D01*
X77368076Y-47045880D01*
X77287518Y-47414025D01*
X77171748Y-47618738D01*
X76991998Y-47699665D01*
X76888906Y-47706280D01*
X76711798Y-47689267D01*
X76640299Y-47598505D01*
X76635112Y-47374406D01*
X76637642Y-47325280D01*
X76640304Y-47080541D01*
X76620979Y-46950632D01*
X76613098Y-46944280D01*
X76463231Y-46995472D01*
X76207003Y-47129086D01*
X75894815Y-47315172D01*
X75577066Y-47523781D01*
X75318506Y-47713528D01*
X75007476Y-48006641D01*
X74722587Y-48356636D01*
X74495313Y-48715105D01*
X74357132Y-49033639D01*
X74332274Y-49230280D01*
X74372822Y-49344553D01*
X74485645Y-49411721D01*
X74714416Y-49448365D01*
X74947122Y-49463728D01*
X75302648Y-49503943D01*
X75488811Y-49570857D01*
X75520979Y-49652605D01*
X75414518Y-49737321D01*
X75184794Y-49813140D01*
X74847173Y-49868198D01*
X74417022Y-49890627D01*
X74394191Y-49890680D01*
X74189125Y-49921266D01*
X73860948Y-50003330D01*
X73464487Y-50122327D01*
X73245184Y-50195480D01*
X72804793Y-50346893D01*
X72514213Y-50440460D01*
X72344022Y-50480155D01*
X72264801Y-50469952D01*
X72247130Y-50413826D01*
X72259299Y-50328661D01*
X72360832Y-50194006D01*
X72592497Y-50036970D01*
X72785340Y-49941953D01*
X73000197Y-49842041D01*
X73164331Y-49735260D01*
X73307449Y-49585277D01*
X73459260Y-49355760D01*
X73649471Y-49010376D01*
X73828834Y-48665771D01*
X74078268Y-48189165D01*
X74328068Y-47722640D01*
X74545712Y-47326378D01*
X74673919Y-47101926D01*
X74820663Y-46820153D01*
X74897220Y-46604007D01*
X74893713Y-46515758D01*
X74766246Y-46496752D01*
X74533391Y-46545178D01*
X74411361Y-46586711D01*
X74041002Y-46704392D01*
X73788909Y-46734765D01*
X73675347Y-46677074D01*
X73677109Y-46614122D01*
X73792784Y-46500394D01*
X74060027Y-46357422D01*
X74446588Y-46199291D01*
X74920214Y-46040082D01*
X75138678Y-45975905D01*
X75550604Y-45889205D01*
X75803702Y-45909934D01*
X75901720Y-46043246D01*
X75848409Y-46294292D01*
X75647516Y-46668224D01*
X75645168Y-46671974D01*
X75478498Y-46940972D01*
X75353172Y-47148800D01*
X75317742Y-47210774D01*
X75359506Y-47225606D01*
X75528899Y-47157754D01*
X75791061Y-47026975D01*
X76111133Y-46853023D01*
X76454254Y-46655656D01*
X76785565Y-46454630D01*
X77070205Y-46269699D01*
X77273314Y-46120622D01*
X77327640Y-46071712D01*
X77574874Y-45897133D01*
X77828072Y-45826680D01*
X78014115Y-45855123D01*
G36*
X75166014Y-41820705D02*
X75140694Y-42002691D01*
X75005295Y-42305643D01*
X74867083Y-42539566D01*
X74690175Y-42848294D01*
X74476103Y-43266865D01*
X74263335Y-43719063D01*
X74204039Y-43853272D01*
X74033838Y-44226073D01*
X73885092Y-44516693D01*
X73779576Y-44684206D01*
X73748704Y-44709080D01*
X73635017Y-44652423D01*
X73618444Y-44470311D01*
X73699942Y-44144527D01*
X73792054Y-43883815D01*
X73913665Y-43541494D01*
X73999404Y-43263691D01*
X74029900Y-43116763D01*
X74003452Y-43047507D01*
X73908281Y-43004636D01*
X73720646Y-42987712D01*
X73416809Y-42996298D01*
X72973027Y-43029956D01*
X72383603Y-43086428D01*
X72006813Y-43121126D01*
X71728018Y-43152627D01*
X71516785Y-43203952D01*
X71342682Y-43298124D01*
X71175275Y-43458164D01*
X70984133Y-43707094D01*
X70738822Y-44067935D01*
X70408909Y-44563711D01*
X70386423Y-44597261D01*
X70144377Y-44970013D01*
X69950603Y-45290992D01*
X69828641Y-45519801D01*
X69798460Y-45606222D01*
X69833301Y-45666455D01*
X69959218Y-45698008D01*
X70205140Y-45702855D01*
X70599996Y-45682966D01*
X70760825Y-45671823D01*
X71200917Y-45636480D01*
X71494142Y-45598476D01*
X71681583Y-45545782D01*
X71804323Y-45466366D01*
X71903444Y-45348200D01*
X71913233Y-45334367D01*
X72180850Y-44987776D01*
X72398181Y-44774031D01*
X72548888Y-44704808D01*
X72616631Y-44791781D01*
X72618788Y-44830190D01*
X72570106Y-44964773D01*
X72439899Y-45222169D01*
X72251924Y-45556784D01*
X72155552Y-45719190D01*
X71913658Y-46135132D01*
X71684639Y-46554486D01*
X71509629Y-46901301D01*
X71478288Y-46969680D01*
X71322886Y-47257252D01*
X71177449Y-47423306D01*
X71067843Y-47449453D01*
X71019932Y-47317304D01*
X71019529Y-47295832D01*
X71060370Y-47112327D01*
X71162658Y-46840941D01*
X71207677Y-46741080D01*
X71357712Y-46397375D01*
X71401502Y-46182086D01*
X71319329Y-46070453D01*
X71091479Y-46037714D01*
X70698233Y-46059108D01*
X70666751Y-46061760D01*
X70157615Y-46108192D01*
X69796369Y-46159639D01*
X69543295Y-46236453D01*
X69358672Y-46358984D01*
X69202781Y-46547585D01*
X69035900Y-46822606D01*
X68976041Y-46928035D01*
X68692240Y-47450361D01*
X68429177Y-47972810D01*
X68203754Y-48457934D01*
X68032874Y-48868284D01*
X67933440Y-49166415D01*
X67915085Y-49278543D01*
X67934324Y-49392521D01*
X68011002Y-49458500D01*
X68173557Y-49477850D01*
X68450428Y-49451939D01*
X68870054Y-49382138D01*
X69115362Y-49336330D01*
X69577898Y-49260684D01*
X70130546Y-49188303D01*
X70675456Y-49131572D01*
X70837335Y-49118364D01*
X71782364Y-49048069D01*
X72206075Y-48453374D01*
X72472608Y-48114974D01*
X72687997Y-47911731D01*
X72835827Y-47854674D01*
X72899683Y-47954834D01*
X72901011Y-47986442D01*
X72848668Y-48120720D01*
X72708437Y-48373501D01*
X72505517Y-48700888D01*
X72390702Y-48875442D01*
X72113227Y-49305327D01*
X71835354Y-49762185D01*
X71608127Y-50161521D01*
X71567554Y-50237966D01*
X71356152Y-50606887D01*
X71186198Y-50829454D01*
X71070155Y-50893883D01*
X71020485Y-50788389D01*
X71019529Y-50756181D01*
X71055229Y-50571581D01*
X71146624Y-50281457D01*
X71220494Y-50084222D01*
X71321663Y-49792918D01*
X71367902Y-49580851D01*
X71360102Y-49513431D01*
X71241877Y-49494349D01*
X70975382Y-49502344D01*
X70598229Y-49533044D01*
X70148028Y-49582078D01*
X69662393Y-49645074D01*
X69178933Y-49717662D01*
X68735260Y-49795469D01*
X68479529Y-49848222D01*
X68040223Y-49960927D01*
X67525069Y-50114292D01*
X67034554Y-50278117D01*
X66963179Y-50303977D01*
X66516683Y-50464175D01*
X66219460Y-50557361D01*
X66044265Y-50586857D01*
X65963851Y-50555983D01*
X65950973Y-50468062D01*
X65956981Y-50426641D01*
X66060991Y-50284259D01*
X66290258Y-50136350D01*
X66401814Y-50086403D01*
X66592998Y-50001584D01*
X66734861Y-49900292D01*
X66856127Y-49742484D01*
X66985525Y-49488115D01*
X67151779Y-49097140D01*
X67205374Y-48966242D01*
X67438457Y-48418023D01*
X67687971Y-47881850D01*
X67972154Y-47323477D01*
X68309245Y-46708659D01*
X68717481Y-46003152D01*
X69215102Y-45172709D01*
X69301581Y-45030320D01*
X69588574Y-44550823D01*
X69830846Y-44131297D01*
X70012614Y-43800308D01*
X70118094Y-43586424D01*
X70136812Y-43518678D01*
X70023398Y-43508666D01*
X69794558Y-43546295D01*
X69664438Y-43578438D01*
X69334820Y-43661421D01*
X69147114Y-43684149D01*
X69062958Y-43644533D01*
X69043974Y-43544616D01*
X69134889Y-43416114D01*
X69395290Y-43283753D01*
X69806658Y-43151647D01*
X70350477Y-43023909D01*
X71008228Y-42904652D01*
X71761393Y-42797992D01*
X72591455Y-42708040D01*
X72949643Y-42676951D01*
X74350201Y-42564010D01*
X74667751Y-42163345D01*
X74920917Y-41884752D01*
X75089879Y-41775966D01*
X75166014Y-41820705D01*
X75166014Y-41820705D01*
G37*
X75166014Y-41820705D02*
X75140694Y-42002691D01*
X75005295Y-42305643D01*
X74867083Y-42539566D01*
X74690175Y-42848294D01*
X74476103Y-43266865D01*
X74263335Y-43719063D01*
X74204039Y-43853272D01*
X74033838Y-44226073D01*
X73885092Y-44516693D01*
X73779576Y-44684206D01*
X73748704Y-44709080D01*
X73635017Y-44652423D01*
X73618444Y-44470311D01*
X73699942Y-44144527D01*
X73792054Y-43883815D01*
X73913665Y-43541494D01*
X73999404Y-43263691D01*
X74029900Y-43116763D01*
X74003452Y-43047507D01*
X73908281Y-43004636D01*
X73720646Y-42987712D01*
X73416809Y-42996298D01*
X72973027Y-43029956D01*
X72383603Y-43086428D01*
X72006813Y-43121126D01*
X71728018Y-43152627D01*
X71516785Y-43203952D01*
X71342682Y-43298124D01*
X71175275Y-43458164D01*
X70984133Y-43707094D01*
X70738822Y-44067935D01*
X70408909Y-44563711D01*
X70386423Y-44597261D01*
X70144377Y-44970013D01*
X69950603Y-45290992D01*
X69828641Y-45519801D01*
X69798460Y-45606222D01*
X69833301Y-45666455D01*
X69959218Y-45698008D01*
X70205140Y-45702855D01*
X70599996Y-45682966D01*
X70760825Y-45671823D01*
X71200917Y-45636480D01*
X71494142Y-45598476D01*
X71681583Y-45545782D01*
X71804323Y-45466366D01*
X71903444Y-45348200D01*
X71913233Y-45334367D01*
X72180850Y-44987776D01*
X72398181Y-44774031D01*
X72548888Y-44704808D01*
X72616631Y-44791781D01*
X72618788Y-44830190D01*
X72570106Y-44964773D01*
X72439899Y-45222169D01*
X72251924Y-45556784D01*
X72155552Y-45719190D01*
X71913658Y-46135132D01*
X71684639Y-46554486D01*
X71509629Y-46901301D01*
X71478288Y-46969680D01*
X71322886Y-47257252D01*
X71177449Y-47423306D01*
X71067843Y-47449453D01*
X71019932Y-47317304D01*
X71019529Y-47295832D01*
X71060370Y-47112327D01*
X71162658Y-46840941D01*
X71207677Y-46741080D01*
X71357712Y-46397375D01*
X71401502Y-46182086D01*
X71319329Y-46070453D01*
X71091479Y-46037714D01*
X70698233Y-46059108D01*
X70666751Y-46061760D01*
X70157615Y-46108192D01*
X69796369Y-46159639D01*
X69543295Y-46236453D01*
X69358672Y-46358984D01*
X69202781Y-46547585D01*
X69035900Y-46822606D01*
X68976041Y-46928035D01*
X68692240Y-47450361D01*
X68429177Y-47972810D01*
X68203754Y-48457934D01*
X68032874Y-48868284D01*
X67933440Y-49166415D01*
X67915085Y-49278543D01*
X67934324Y-49392521D01*
X68011002Y-49458500D01*
X68173557Y-49477850D01*
X68450428Y-49451939D01*
X68870054Y-49382138D01*
X69115362Y-49336330D01*
X69577898Y-49260684D01*
X70130546Y-49188303D01*
X70675456Y-49131572D01*
X70837335Y-49118364D01*
X71782364Y-49048069D01*
X72206075Y-48453374D01*
X72472608Y-48114974D01*
X72687997Y-47911731D01*
X72835827Y-47854674D01*
X72899683Y-47954834D01*
X72901011Y-47986442D01*
X72848668Y-48120720D01*
X72708437Y-48373501D01*
X72505517Y-48700888D01*
X72390702Y-48875442D01*
X72113227Y-49305327D01*
X71835354Y-49762185D01*
X71608127Y-50161521D01*
X71567554Y-50237966D01*
X71356152Y-50606887D01*
X71186198Y-50829454D01*
X71070155Y-50893883D01*
X71020485Y-50788389D01*
X71019529Y-50756181D01*
X71055229Y-50571581D01*
X71146624Y-50281457D01*
X71220494Y-50084222D01*
X71321663Y-49792918D01*
X71367902Y-49580851D01*
X71360102Y-49513431D01*
X71241877Y-49494349D01*
X70975382Y-49502344D01*
X70598229Y-49533044D01*
X70148028Y-49582078D01*
X69662393Y-49645074D01*
X69178933Y-49717662D01*
X68735260Y-49795469D01*
X68479529Y-49848222D01*
X68040223Y-49960927D01*
X67525069Y-50114292D01*
X67034554Y-50278117D01*
X66963179Y-50303977D01*
X66516683Y-50464175D01*
X66219460Y-50557361D01*
X66044265Y-50586857D01*
X65963851Y-50555983D01*
X65950973Y-50468062D01*
X65956981Y-50426641D01*
X66060991Y-50284259D01*
X66290258Y-50136350D01*
X66401814Y-50086403D01*
X66592998Y-50001584D01*
X66734861Y-49900292D01*
X66856127Y-49742484D01*
X66985525Y-49488115D01*
X67151779Y-49097140D01*
X67205374Y-48966242D01*
X67438457Y-48418023D01*
X67687971Y-47881850D01*
X67972154Y-47323477D01*
X68309245Y-46708659D01*
X68717481Y-46003152D01*
X69215102Y-45172709D01*
X69301581Y-45030320D01*
X69588574Y-44550823D01*
X69830846Y-44131297D01*
X70012614Y-43800308D01*
X70118094Y-43586424D01*
X70136812Y-43518678D01*
X70023398Y-43508666D01*
X69794558Y-43546295D01*
X69664438Y-43578438D01*
X69334820Y-43661421D01*
X69147114Y-43684149D01*
X69062958Y-43644533D01*
X69043974Y-43544616D01*
X69134889Y-43416114D01*
X69395290Y-43283753D01*
X69806658Y-43151647D01*
X70350477Y-43023909D01*
X71008228Y-42904652D01*
X71761393Y-42797992D01*
X72591455Y-42708040D01*
X72949643Y-42676951D01*
X74350201Y-42564010D01*
X74667751Y-42163345D01*
X74920917Y-41884752D01*
X75089879Y-41775966D01*
X75166014Y-41820705D01*
G36*
X83563903Y-45753294D02*
X83606443Y-45827235D01*
X83496905Y-45930846D01*
X83248869Y-46048071D01*
X83017815Y-46124541D01*
X82790338Y-46198806D01*
X82595560Y-46291485D01*
X82417563Y-46424248D01*
X82240428Y-46618761D01*
X82048237Y-46896693D01*
X81825070Y-47279713D01*
X81555009Y-47789487D01*
X81222135Y-48447685D01*
X81034948Y-48823552D01*
X80736630Y-49415242D01*
X80444805Y-49978061D01*
X80179286Y-50474981D01*
X79959884Y-50868976D01*
X79806411Y-51123018D01*
X79797473Y-51136335D01*
X79330092Y-51665111D01*
X78773457Y-52020587D01*
X78144912Y-52196903D01*
X77461802Y-52188199D01*
X76999877Y-52081537D01*
X76708591Y-51996072D01*
X76501242Y-51946535D01*
X76429994Y-51942067D01*
X76377375Y-52042529D01*
X76267301Y-52270612D01*
X76156299Y-52506880D01*
X76009430Y-52817268D01*
X75919324Y-52978993D01*
X75859346Y-53025544D01*
X75802864Y-52990407D01*
X75785949Y-52972546D01*
X75733313Y-52863003D01*
X75745513Y-52690254D01*
X75831359Y-52422052D01*
X75999658Y-52026151D01*
X76110024Y-51786203D01*
X76386374Y-51212429D01*
X76601244Y-50811460D01*
X76764777Y-50568201D01*
X76887120Y-50467560D01*
X76978349Y-50494365D01*
X77015257Y-50628972D01*
X76943942Y-50865446D01*
X76858662Y-51046149D01*
X76740414Y-51320691D01*
X76687894Y-51528353D01*
X76694541Y-51589100D01*
X76841290Y-51699765D01*
X77109811Y-51798398D01*
X77433760Y-51869152D01*
X77746795Y-51896182D01*
X77919111Y-51881594D01*
X78357573Y-51699371D01*
X78803566Y-51341173D01*
X79230553Y-50830868D01*
X79431283Y-50521686D01*
X79655192Y-50131287D01*
X79877688Y-49717641D01*
X80077130Y-49324168D01*
X80231877Y-48994291D01*
X80320287Y-48771432D01*
X80332863Y-48712717D01*
X80270987Y-48739126D01*
X80109973Y-48875115D01*
X79918881Y-49057722D01*
X79349299Y-49532649D01*
X78783403Y-49824861D01*
X78290800Y-49924305D01*
X77917684Y-49876325D01*
X77670496Y-49688399D01*
X77539166Y-49348403D01*
X77510640Y-48984915D01*
X77533186Y-48851369D01*
X78269636Y-48851369D01*
X78310871Y-49156767D01*
X78376122Y-49260760D01*
X78605158Y-49373401D01*
X78927174Y-49352743D01*
X79299117Y-49205862D01*
X79508227Y-49074656D01*
X79814123Y-48817173D01*
X80142881Y-48477100D01*
X80469310Y-48089076D01*
X80768217Y-47687742D01*
X81014411Y-47307737D01*
X81182697Y-46983701D01*
X81247885Y-46750273D01*
X81240478Y-46692796D01*
X81139041Y-46592871D01*
X80905064Y-46546254D01*
X80688593Y-46540111D01*
X80052319Y-46640900D01*
X79468103Y-46928224D01*
X78956152Y-47388350D01*
X78540807Y-47999738D01*
X78347945Y-48452952D01*
X78269636Y-48851369D01*
X77533186Y-48851369D01*
X77599169Y-48460539D01*
X77844408Y-47939901D01*
X78215838Y-47446792D01*
X78682940Y-47005000D01*
X79215195Y-46638318D01*
X79782084Y-46370534D01*
X80353087Y-46225441D01*
X80897685Y-46226827D01*
X81018012Y-46250853D01*
X81320864Y-46295981D01*
X81566027Y-46241250D01*
X81741872Y-46148357D01*
X82108804Y-45981605D01*
X82574602Y-45840380D01*
X83049995Y-45748095D01*
X83355703Y-45725080D01*
X83563903Y-45753294D01*
X83563903Y-45753294D01*
G37*
X83563903Y-45753294D02*
X83606443Y-45827235D01*
X83496905Y-45930846D01*
X83248869Y-46048071D01*
X83017815Y-46124541D01*
X82790338Y-46198806D01*
X82595560Y-46291485D01*
X82417563Y-46424248D01*
X82240428Y-46618761D01*
X82048237Y-46896693D01*
X81825070Y-47279713D01*
X81555009Y-47789487D01*
X81222135Y-48447685D01*
X81034948Y-48823552D01*
X80736630Y-49415242D01*
X80444805Y-49978061D01*
X80179286Y-50474981D01*
X79959884Y-50868976D01*
X79806411Y-51123018D01*
X79797473Y-51136335D01*
X79330092Y-51665111D01*
X78773457Y-52020587D01*
X78144912Y-52196903D01*
X77461802Y-52188199D01*
X76999877Y-52081537D01*
X76708591Y-51996072D01*
X76501242Y-51946535D01*
X76429994Y-51942067D01*
X76377375Y-52042529D01*
X76267301Y-52270612D01*
X76156299Y-52506880D01*
X76009430Y-52817268D01*
X75919324Y-52978993D01*
X75859346Y-53025544D01*
X75802864Y-52990407D01*
X75785949Y-52972546D01*
X75733313Y-52863003D01*
X75745513Y-52690254D01*
X75831359Y-52422052D01*
X75999658Y-52026151D01*
X76110024Y-51786203D01*
X76386374Y-51212429D01*
X76601244Y-50811460D01*
X76764777Y-50568201D01*
X76887120Y-50467560D01*
X76978349Y-50494365D01*
X77015257Y-50628972D01*
X76943942Y-50865446D01*
X76858662Y-51046149D01*
X76740414Y-51320691D01*
X76687894Y-51528353D01*
X76694541Y-51589100D01*
X76841290Y-51699765D01*
X77109811Y-51798398D01*
X77433760Y-51869152D01*
X77746795Y-51896182D01*
X77919111Y-51881594D01*
X78357573Y-51699371D01*
X78803566Y-51341173D01*
X79230553Y-50830868D01*
X79431283Y-50521686D01*
X79655192Y-50131287D01*
X79877688Y-49717641D01*
X80077130Y-49324168D01*
X80231877Y-48994291D01*
X80320287Y-48771432D01*
X80332863Y-48712717D01*
X80270987Y-48739126D01*
X80109973Y-48875115D01*
X79918881Y-49057722D01*
X79349299Y-49532649D01*
X78783403Y-49824861D01*
X78290800Y-49924305D01*
X77917684Y-49876325D01*
X77670496Y-49688399D01*
X77539166Y-49348403D01*
X77510640Y-48984915D01*
X77533186Y-48851369D01*
X78269636Y-48851369D01*
X78310871Y-49156767D01*
X78376122Y-49260760D01*
X78605158Y-49373401D01*
X78927174Y-49352743D01*
X79299117Y-49205862D01*
X79508227Y-49074656D01*
X79814123Y-48817173D01*
X80142881Y-48477100D01*
X80469310Y-48089076D01*
X80768217Y-47687742D01*
X81014411Y-47307737D01*
X81182697Y-46983701D01*
X81247885Y-46750273D01*
X81240478Y-46692796D01*
X81139041Y-46592871D01*
X80905064Y-46546254D01*
X80688593Y-46540111D01*
X80052319Y-46640900D01*
X79468103Y-46928224D01*
X78956152Y-47388350D01*
X78540807Y-47999738D01*
X78347945Y-48452952D01*
X78269636Y-48851369D01*
X77533186Y-48851369D01*
X77599169Y-48460539D01*
X77844408Y-47939901D01*
X78215838Y-47446792D01*
X78682940Y-47005000D01*
X79215195Y-46638318D01*
X79782084Y-46370534D01*
X80353087Y-46225441D01*
X80897685Y-46226827D01*
X81018012Y-46250853D01*
X81320864Y-46295981D01*
X81566027Y-46241250D01*
X81741872Y-46148357D01*
X82108804Y-45981605D01*
X82574602Y-45840380D01*
X83049995Y-45748095D01*
X83355703Y-45725080D01*
X83563903Y-45753294D01*
D14*
G04 #@! TO.C,D_RAW1*
X120576340Y-40398700D02*
X119052340Y-40398700D01*
X120576340Y-40271700D02*
X119052340Y-40271700D01*
X119052340Y-40144700D02*
X120576340Y-40144700D01*
X120576340Y-39763700D02*
X119052340Y-39763700D01*
X119052340Y-39890700D02*
X120576340Y-39890700D01*
X120576340Y-40017700D02*
X119052340Y-40017700D01*
X120576340Y-44716700D02*
X120576340Y-44208700D01*
X119052340Y-44716700D02*
X120576340Y-44716700D01*
X119052340Y-39636700D02*
X119052340Y-44716700D01*
X120576340Y-39636700D02*
X119052340Y-39636700D01*
X120576340Y-44716700D02*
X120576340Y-39636700D01*
G04 #@! TO.C,D_USB_HEADER1*
X113438940Y-43174920D02*
X113438940Y-38094920D01*
X113438940Y-38094920D02*
X111914940Y-38094920D01*
X111914940Y-38094920D02*
X111914940Y-43174920D01*
X111914940Y-43174920D02*
X113438940Y-43174920D01*
X113438940Y-43174920D02*
X113438940Y-42666920D01*
X113438940Y-38475920D02*
X111914940Y-38475920D01*
X111914940Y-38348920D02*
X113438940Y-38348920D01*
X113438940Y-38221920D02*
X111914940Y-38221920D01*
X111914940Y-38602920D02*
X113438940Y-38602920D01*
X113438940Y-38729920D02*
X111914940Y-38729920D01*
X113438940Y-38856920D02*
X111914940Y-38856920D01*
D15*
G04 #@! TO.C,U_ESD1*
X148151420Y-37942880D02*
X146351420Y-37942880D01*
X146351420Y-41162880D02*
X148801420Y-41162880D01*
G04 #@! TO.C,proMicro1*
D14*
X168357557Y-47483989D02*
X168395652Y-47369703D01*
X168433747Y-47331608D01*
X168509938Y-47293513D01*
X168624223Y-47293513D01*
X168700414Y-47331608D01*
X168738509Y-47369703D01*
X168776604Y-47445894D01*
X168776604Y-47750656D01*
X167976604Y-47750656D01*
X167976604Y-47483989D01*
X168014700Y-47407799D01*
X168052795Y-47369703D01*
X168128985Y-47331608D01*
X168205176Y-47331608D01*
X168281366Y-47369703D01*
X168319461Y-47407799D01*
X168357557Y-47483989D01*
X168357557Y-47750656D01*
X168052795Y-46988751D02*
X168014700Y-46950656D01*
X167976604Y-46874465D01*
X167976604Y-46683989D01*
X168014700Y-46607799D01*
X168052795Y-46569703D01*
X168128985Y-46531608D01*
X168205176Y-46531608D01*
X168319461Y-46569703D01*
X168776604Y-47026846D01*
X168776604Y-46531608D01*
X175977557Y-47426846D02*
X175977557Y-47693513D01*
X176396604Y-47693513D02*
X175596604Y-47693513D01*
X175596604Y-47312560D01*
X175596604Y-47083989D02*
X175596604Y-46550656D01*
X176396604Y-46893513D01*
X178517557Y-47426846D02*
X178517557Y-47693513D01*
X178936604Y-47693513D02*
X178136604Y-47693513D01*
X178136604Y-47312560D01*
X178136604Y-46664941D02*
X178136604Y-46817322D01*
X178174700Y-46893513D01*
X178212795Y-46931608D01*
X178327080Y-47007799D01*
X178479461Y-47045894D01*
X178784223Y-47045894D01*
X178860414Y-47007799D01*
X178898509Y-46969703D01*
X178936604Y-46893513D01*
X178936604Y-46741132D01*
X178898509Y-46664941D01*
X178860414Y-46626846D01*
X178784223Y-46588751D01*
X178593747Y-46588751D01*
X178517557Y-46626846D01*
X178479461Y-46664941D01*
X178441366Y-46741132D01*
X178441366Y-46893513D01*
X178479461Y-46969703D01*
X178517557Y-47007799D01*
X178593747Y-47045894D01*
X181057557Y-47426846D02*
X181057557Y-47693513D01*
X181476604Y-47693513D02*
X180676604Y-47693513D01*
X180676604Y-47312560D01*
X180676604Y-46626846D02*
X180676604Y-47007799D01*
X181057557Y-47045894D01*
X181019461Y-47007799D01*
X180981366Y-46931608D01*
X180981366Y-46741132D01*
X181019461Y-46664941D01*
X181057557Y-46626846D01*
X181133747Y-46588751D01*
X181324223Y-46588751D01*
X181400414Y-46626846D01*
X181438509Y-46664941D01*
X181476604Y-46741132D01*
X181476604Y-46931608D01*
X181438509Y-47007799D01*
X181400414Y-47045894D01*
X194176604Y-47712560D02*
X193795652Y-47979227D01*
X194176604Y-48169703D02*
X193376604Y-48169703D01*
X193376604Y-47864941D01*
X193414700Y-47788751D01*
X193452795Y-47750656D01*
X193528985Y-47712560D01*
X193643271Y-47712560D01*
X193719461Y-47750656D01*
X193757557Y-47788751D01*
X193795652Y-47864941D01*
X193795652Y-48169703D01*
X193948033Y-47407799D02*
X193948033Y-47026846D01*
X194176604Y-47483989D02*
X193376604Y-47217322D01*
X194176604Y-46950656D01*
X193376604Y-46760180D02*
X194176604Y-46569703D01*
X193605176Y-46417322D01*
X194176604Y-46264941D01*
X193376604Y-46074465D01*
X190874700Y-47769703D02*
X190836604Y-47845894D01*
X190836604Y-47960180D01*
X190874700Y-48074465D01*
X190950890Y-48150656D01*
X191027080Y-48188751D01*
X191179461Y-48226846D01*
X191293747Y-48226846D01*
X191446128Y-48188751D01*
X191522319Y-48150656D01*
X191598509Y-48074465D01*
X191636604Y-47960180D01*
X191636604Y-47883989D01*
X191598509Y-47769703D01*
X191560414Y-47731608D01*
X191293747Y-47731608D01*
X191293747Y-47883989D01*
X191636604Y-47388751D02*
X190836604Y-47388751D01*
X191636604Y-46931608D01*
X190836604Y-46931608D01*
X191636604Y-46550656D02*
X190836604Y-46550656D01*
X190836604Y-46360180D01*
X190874700Y-46245894D01*
X190950890Y-46169703D01*
X191027080Y-46131608D01*
X191179461Y-46093513D01*
X191293747Y-46093513D01*
X191446128Y-46131608D01*
X191522319Y-46169703D01*
X191598509Y-46245894D01*
X191636604Y-46360180D01*
X191636604Y-46550656D01*
X189088509Y-47965633D02*
X189126604Y-47851347D01*
X189126604Y-47660871D01*
X189088509Y-47584680D01*
X189050414Y-47546585D01*
X188974223Y-47508490D01*
X188898033Y-47508490D01*
X188821842Y-47546585D01*
X188783747Y-47584680D01*
X188745652Y-47660871D01*
X188707557Y-47813252D01*
X188669461Y-47889442D01*
X188631366Y-47927538D01*
X188555176Y-47965633D01*
X188478985Y-47965633D01*
X188402795Y-47927538D01*
X188364700Y-47889442D01*
X188326604Y-47813252D01*
X188326604Y-47622776D01*
X188364700Y-47508490D01*
X188326604Y-47279919D02*
X188326604Y-46822776D01*
X189126604Y-47051347D02*
X188326604Y-47051347D01*
X185756604Y-48226846D02*
X186556604Y-47960180D01*
X185756604Y-47693513D01*
X186480414Y-46969703D02*
X186518509Y-47007799D01*
X186556604Y-47122084D01*
X186556604Y-47198275D01*
X186518509Y-47312560D01*
X186442319Y-47388751D01*
X186366128Y-47426846D01*
X186213747Y-47464941D01*
X186099461Y-47464941D01*
X185947080Y-47426846D01*
X185870890Y-47388751D01*
X185794700Y-47312560D01*
X185756604Y-47198275D01*
X185756604Y-47122084D01*
X185794700Y-47007799D01*
X185832795Y-46969703D01*
X186480414Y-46169703D02*
X186518509Y-46207799D01*
X186556604Y-46322084D01*
X186556604Y-46398275D01*
X186518509Y-46512560D01*
X186442319Y-46588751D01*
X186366128Y-46626846D01*
X186213747Y-46664941D01*
X186099461Y-46664941D01*
X185947080Y-46626846D01*
X185870890Y-46588751D01*
X185794700Y-46512560D01*
X185756604Y-46398275D01*
X185756604Y-46322084D01*
X185794700Y-46207799D01*
X185832795Y-46169703D01*
X183597557Y-47426846D02*
X183597557Y-47693513D01*
X184016604Y-47693513D02*
X183216604Y-47693513D01*
X183216604Y-47312560D01*
X183483271Y-46664941D02*
X184016604Y-46664941D01*
X183178509Y-46855418D02*
X183749938Y-47045894D01*
X183749938Y-46550656D01*
X173437557Y-47483989D02*
X173475652Y-47369703D01*
X173513747Y-47331608D01*
X173589938Y-47293513D01*
X173704223Y-47293513D01*
X173780414Y-47331608D01*
X173818509Y-47369703D01*
X173856604Y-47445894D01*
X173856604Y-47750656D01*
X173056604Y-47750656D01*
X173056604Y-47483989D01*
X173094700Y-47407799D01*
X173132795Y-47369703D01*
X173208985Y-47331608D01*
X173285176Y-47331608D01*
X173361366Y-47369703D01*
X173399461Y-47407799D01*
X173437557Y-47483989D01*
X173437557Y-47750656D01*
X173856604Y-46531608D02*
X173856604Y-46988751D01*
X173856604Y-46760180D02*
X173056604Y-46760180D01*
X173170890Y-46836370D01*
X173247080Y-46912560D01*
X173285176Y-46988751D01*
X170897557Y-47483989D02*
X170935652Y-47369703D01*
X170973747Y-47331608D01*
X171049938Y-47293513D01*
X171164223Y-47293513D01*
X171240414Y-47331608D01*
X171278509Y-47369703D01*
X171316604Y-47445894D01*
X171316604Y-47750656D01*
X170516604Y-47750656D01*
X170516604Y-47483989D01*
X170554700Y-47407799D01*
X170592795Y-47369703D01*
X170668985Y-47331608D01*
X170745176Y-47331608D01*
X170821366Y-47369703D01*
X170859461Y-47407799D01*
X170897557Y-47483989D01*
X170897557Y-47750656D01*
X170516604Y-47026846D02*
X170516604Y-46531608D01*
X170821366Y-46798275D01*
X170821366Y-46683989D01*
X170859461Y-46607799D01*
X170897557Y-46569703D01*
X170973747Y-46531608D01*
X171164223Y-46531608D01*
X171240414Y-46569703D01*
X171278509Y-46607799D01*
X171316604Y-46683989D01*
X171316604Y-46912560D01*
X171278509Y-46988751D01*
X171240414Y-47026846D01*
X165817557Y-47483989D02*
X165855652Y-47369703D01*
X165893747Y-47331608D01*
X165969938Y-47293513D01*
X166084223Y-47293513D01*
X166160414Y-47331608D01*
X166198509Y-47369703D01*
X166236604Y-47445894D01*
X166236604Y-47750656D01*
X165436604Y-47750656D01*
X165436604Y-47483989D01*
X165474700Y-47407799D01*
X165512795Y-47369703D01*
X165588985Y-47331608D01*
X165665176Y-47331608D01*
X165741366Y-47369703D01*
X165779461Y-47407799D01*
X165817557Y-47483989D01*
X165817557Y-47750656D01*
X165436604Y-46607799D02*
X165436604Y-46760180D01*
X165474700Y-46836370D01*
X165512795Y-46874465D01*
X165627080Y-46950656D01*
X165779461Y-46988751D01*
X166084223Y-46988751D01*
X166160414Y-46950656D01*
X166198509Y-46912560D01*
X166236604Y-46836370D01*
X166236604Y-46683989D01*
X166198509Y-46607799D01*
X166160414Y-46569703D01*
X166084223Y-46531608D01*
X165893747Y-46531608D01*
X165817557Y-46569703D01*
X165779461Y-46607799D01*
X165741366Y-46683989D01*
X165741366Y-46836370D01*
X165779461Y-46912560D01*
X165817557Y-46950656D01*
X165893747Y-46988751D01*
X165817557Y-36561989D02*
X165855652Y-36447703D01*
X165893747Y-36409608D01*
X165969938Y-36371513D01*
X166084223Y-36371513D01*
X166160414Y-36409608D01*
X166198509Y-36447703D01*
X166236604Y-36523894D01*
X166236604Y-36828656D01*
X165436604Y-36828656D01*
X165436604Y-36561989D01*
X165474700Y-36485799D01*
X165512795Y-36447703D01*
X165588985Y-36409608D01*
X165665176Y-36409608D01*
X165741366Y-36447703D01*
X165779461Y-36485799D01*
X165817557Y-36561989D01*
X165817557Y-36828656D01*
X165436604Y-35647703D02*
X165436604Y-36028656D01*
X165817557Y-36066751D01*
X165779461Y-36028656D01*
X165741366Y-35952465D01*
X165741366Y-35761989D01*
X165779461Y-35685799D01*
X165817557Y-35647703D01*
X165893747Y-35609608D01*
X166084223Y-35609608D01*
X166160414Y-35647703D01*
X166198509Y-35685799D01*
X166236604Y-35761989D01*
X166236604Y-35952465D01*
X166198509Y-36028656D01*
X166160414Y-36066751D01*
X168357557Y-36561989D02*
X168395652Y-36447703D01*
X168433747Y-36409608D01*
X168509938Y-36371513D01*
X168624223Y-36371513D01*
X168700414Y-36409608D01*
X168738509Y-36447703D01*
X168776604Y-36523894D01*
X168776604Y-36828656D01*
X167976604Y-36828656D01*
X167976604Y-36561989D01*
X168014700Y-36485799D01*
X168052795Y-36447703D01*
X168128985Y-36409608D01*
X168205176Y-36409608D01*
X168281366Y-36447703D01*
X168319461Y-36485799D01*
X168357557Y-36561989D01*
X168357557Y-36828656D01*
X168243271Y-35685799D02*
X168776604Y-35685799D01*
X167938509Y-35876275D02*
X168509938Y-36066751D01*
X168509938Y-35571513D01*
X170897557Y-36790560D02*
X170897557Y-36523894D01*
X171316604Y-36409608D02*
X171316604Y-36790560D01*
X170516604Y-36790560D01*
X170516604Y-36409608D01*
X170516604Y-35723894D02*
X170516604Y-35876275D01*
X170554700Y-35952465D01*
X170592795Y-35990560D01*
X170707080Y-36066751D01*
X170859461Y-36104846D01*
X171164223Y-36104846D01*
X171240414Y-36066751D01*
X171278509Y-36028656D01*
X171316604Y-35952465D01*
X171316604Y-35800084D01*
X171278509Y-35723894D01*
X171240414Y-35685799D01*
X171164223Y-35647703D01*
X170973747Y-35647703D01*
X170897557Y-35685799D01*
X170859461Y-35723894D01*
X170821366Y-35800084D01*
X170821366Y-35952465D01*
X170859461Y-36028656D01*
X170897557Y-36066751D01*
X170973747Y-36104846D01*
X173856604Y-36828656D02*
X173056604Y-36828656D01*
X173056604Y-36638180D01*
X173094700Y-36523894D01*
X173170890Y-36447703D01*
X173247080Y-36409608D01*
X173399461Y-36371513D01*
X173513747Y-36371513D01*
X173666128Y-36409608D01*
X173742319Y-36447703D01*
X173818509Y-36523894D01*
X173856604Y-36638180D01*
X173856604Y-36828656D01*
X173056604Y-36104846D02*
X173056604Y-35571513D01*
X173856604Y-35914370D01*
X176320414Y-36371513D02*
X176358509Y-36409608D01*
X176396604Y-36523894D01*
X176396604Y-36600084D01*
X176358509Y-36714370D01*
X176282319Y-36790560D01*
X176206128Y-36828656D01*
X176053747Y-36866751D01*
X175939461Y-36866751D01*
X175787080Y-36828656D01*
X175710890Y-36790560D01*
X175634700Y-36714370D01*
X175596604Y-36600084D01*
X175596604Y-36523894D01*
X175634700Y-36409608D01*
X175672795Y-36371513D01*
X175596604Y-35685799D02*
X175596604Y-35838180D01*
X175634700Y-35914370D01*
X175672795Y-35952465D01*
X175787080Y-36028656D01*
X175939461Y-36066751D01*
X176244223Y-36066751D01*
X176320414Y-36028656D01*
X176358509Y-35990560D01*
X176396604Y-35914370D01*
X176396604Y-35761989D01*
X176358509Y-35685799D01*
X176320414Y-35647703D01*
X176244223Y-35609608D01*
X176053747Y-35609608D01*
X175977557Y-35647703D01*
X175939461Y-35685799D01*
X175901366Y-35761989D01*
X175901366Y-35914370D01*
X175939461Y-35990560D01*
X175977557Y-36028656D01*
X176053747Y-36066751D01*
X178936604Y-36828656D02*
X178136604Y-36828656D01*
X178136604Y-36638180D01*
X178174700Y-36523894D01*
X178250890Y-36447703D01*
X178327080Y-36409608D01*
X178479461Y-36371513D01*
X178593747Y-36371513D01*
X178746128Y-36409608D01*
X178822319Y-36447703D01*
X178898509Y-36523894D01*
X178936604Y-36638180D01*
X178936604Y-36828656D01*
X178403271Y-35685799D02*
X178936604Y-35685799D01*
X178098509Y-35876275D02*
X178669938Y-36066751D01*
X178669938Y-35571513D01*
X188334700Y-36847703D02*
X188296604Y-36923894D01*
X188296604Y-37038180D01*
X188334700Y-37152465D01*
X188410890Y-37228656D01*
X188487080Y-37266751D01*
X188639461Y-37304846D01*
X188753747Y-37304846D01*
X188906128Y-37266751D01*
X188982319Y-37228656D01*
X189058509Y-37152465D01*
X189096604Y-37038180D01*
X189096604Y-36961989D01*
X189058509Y-36847703D01*
X189020414Y-36809608D01*
X188753747Y-36809608D01*
X188753747Y-36961989D01*
X189096604Y-36466751D02*
X188296604Y-36466751D01*
X189096604Y-36009608D01*
X188296604Y-36009608D01*
X189096604Y-35628656D02*
X188296604Y-35628656D01*
X188296604Y-35438180D01*
X188334700Y-35323894D01*
X188410890Y-35247703D01*
X188487080Y-35209608D01*
X188639461Y-35171513D01*
X188753747Y-35171513D01*
X188906128Y-35209608D01*
X188982319Y-35247703D01*
X189058509Y-35323894D01*
X189096604Y-35438180D01*
X189096604Y-35628656D01*
X185794700Y-36847703D02*
X185756604Y-36923894D01*
X185756604Y-37038180D01*
X185794700Y-37152465D01*
X185870890Y-37228656D01*
X185947080Y-37266751D01*
X186099461Y-37304846D01*
X186213747Y-37304846D01*
X186366128Y-37266751D01*
X186442319Y-37228656D01*
X186518509Y-37152465D01*
X186556604Y-37038180D01*
X186556604Y-36961989D01*
X186518509Y-36847703D01*
X186480414Y-36809608D01*
X186213747Y-36809608D01*
X186213747Y-36961989D01*
X186556604Y-36466751D02*
X185756604Y-36466751D01*
X186556604Y-36009608D01*
X185756604Y-36009608D01*
X186556604Y-35628656D02*
X185756604Y-35628656D01*
X185756604Y-35438180D01*
X185794700Y-35323894D01*
X185870890Y-35247703D01*
X185947080Y-35209608D01*
X186099461Y-35171513D01*
X186213747Y-35171513D01*
X186366128Y-35209608D01*
X186442319Y-35247703D01*
X186518509Y-35323894D01*
X186556604Y-35438180D01*
X186556604Y-35628656D01*
X184016604Y-36828656D02*
X183216604Y-36828656D01*
X183216604Y-36638180D01*
X183254700Y-36523894D01*
X183330890Y-36447703D01*
X183407080Y-36409608D01*
X183559461Y-36371513D01*
X183673747Y-36371513D01*
X183826128Y-36409608D01*
X183902319Y-36447703D01*
X183978509Y-36523894D01*
X184016604Y-36638180D01*
X184016604Y-36828656D01*
X184016604Y-35609608D02*
X184016604Y-36066751D01*
X184016604Y-35838180D02*
X183216604Y-35838180D01*
X183330890Y-35914370D01*
X183407080Y-35990560D01*
X183445176Y-36066751D01*
X181476604Y-36828656D02*
X180676604Y-36828656D01*
X180676604Y-36638180D01*
X180714700Y-36523894D01*
X180790890Y-36447703D01*
X180867080Y-36409608D01*
X181019461Y-36371513D01*
X181133747Y-36371513D01*
X181286128Y-36409608D01*
X181362319Y-36447703D01*
X181438509Y-36523894D01*
X181476604Y-36638180D01*
X181476604Y-36828656D01*
X180676604Y-35876275D02*
X180676604Y-35800084D01*
X180714700Y-35723894D01*
X180752795Y-35685799D01*
X180828985Y-35647703D01*
X180981366Y-35609608D01*
X181171842Y-35609608D01*
X181324223Y-35647703D01*
X181400414Y-35685799D01*
X181438509Y-35723894D01*
X181476604Y-35800084D01*
X181476604Y-35876275D01*
X181438509Y-35952465D01*
X181400414Y-35990560D01*
X181324223Y-36028656D01*
X181171842Y-36066751D01*
X180981366Y-36066751D01*
X180828985Y-36028656D01*
X180752795Y-35990560D01*
X180714700Y-35952465D01*
X180676604Y-35876275D01*
X191636604Y-36828656D02*
X190836604Y-36828656D01*
X190836604Y-36638180D01*
X190874700Y-36523894D01*
X190950890Y-36447703D01*
X191027080Y-36409608D01*
X191179461Y-36371513D01*
X191293747Y-36371513D01*
X191446128Y-36409608D01*
X191522319Y-36447703D01*
X191598509Y-36523894D01*
X191636604Y-36638180D01*
X191636604Y-36828656D01*
X190912795Y-36066751D02*
X190874700Y-36028656D01*
X190836604Y-35952465D01*
X190836604Y-35761989D01*
X190874700Y-35685799D01*
X190912795Y-35647703D01*
X190988985Y-35609608D01*
X191065176Y-35609608D01*
X191179461Y-35647703D01*
X191636604Y-36104846D01*
X191636604Y-35609608D01*
X193376604Y-40317784D02*
X193376604Y-39860641D01*
X194176604Y-40089212D02*
X193376604Y-40089212D01*
X193376604Y-39670165D02*
X194176604Y-39136831D01*
X193376604Y-39136831D02*
X194176604Y-39670165D01*
X193376604Y-38679688D02*
X193376604Y-38603498D01*
X193414700Y-38527308D01*
X193452795Y-38489212D01*
X193528985Y-38451117D01*
X193681366Y-38413022D01*
X193871842Y-38413022D01*
X194024223Y-38451117D01*
X194100414Y-38489212D01*
X194138509Y-38527308D01*
X194176604Y-38603498D01*
X194176604Y-38679688D01*
X194138509Y-38755879D01*
X194100414Y-38793974D01*
X194024223Y-38832069D01*
X193871842Y-38870165D01*
X193681366Y-38870165D01*
X193528985Y-38832069D01*
X193452795Y-38793974D01*
X193414700Y-38755879D01*
X193376604Y-38679688D01*
X193338509Y-37498736D02*
X194367080Y-38184450D01*
X194176604Y-37232069D02*
X193376604Y-37232069D01*
X193376604Y-37041593D01*
X193414700Y-36927308D01*
X193490890Y-36851117D01*
X193567080Y-36813022D01*
X193719461Y-36774927D01*
X193833747Y-36774927D01*
X193986128Y-36813022D01*
X194062319Y-36851117D01*
X194138509Y-36927308D01*
X194176604Y-37041593D01*
X194176604Y-37232069D01*
X193376604Y-36508260D02*
X193376604Y-36013022D01*
X193681366Y-36279688D01*
X193681366Y-36165403D01*
X193719461Y-36089212D01*
X193757557Y-36051117D01*
X193833747Y-36013022D01*
X194024223Y-36013022D01*
X194100414Y-36051117D01*
X194138509Y-36089212D01*
X194176604Y-36165403D01*
X194176604Y-36393974D01*
X194138509Y-36470165D01*
X194100414Y-36508260D01*
G04 #@! TO.C,USB_C1*
X134957512Y-37925080D02*
X134957512Y-38734604D01*
X135005131Y-38829842D01*
X135052750Y-38877461D01*
X135147988Y-38925080D01*
X135338464Y-38925080D01*
X135433702Y-38877461D01*
X135481321Y-38829842D01*
X135528940Y-38734604D01*
X135528940Y-37925080D01*
X135957512Y-38877461D02*
X136100369Y-38925080D01*
X136338464Y-38925080D01*
X136433702Y-38877461D01*
X136481321Y-38829842D01*
X136528940Y-38734604D01*
X136528940Y-38639366D01*
X136481321Y-38544128D01*
X136433702Y-38496509D01*
X136338464Y-38448890D01*
X136147988Y-38401271D01*
X136052750Y-38353652D01*
X136005131Y-38306033D01*
X135957512Y-38210795D01*
X135957512Y-38115557D01*
X136005131Y-38020319D01*
X136052750Y-37972700D01*
X136147988Y-37925080D01*
X136386083Y-37925080D01*
X136528940Y-37972700D01*
X137290845Y-38401271D02*
X137433702Y-38448890D01*
X137481321Y-38496509D01*
X137528940Y-38591747D01*
X137528940Y-38734604D01*
X137481321Y-38829842D01*
X137433702Y-38877461D01*
X137338464Y-38925080D01*
X136957512Y-38925080D01*
X136957512Y-37925080D01*
X137290845Y-37925080D01*
X137386083Y-37972700D01*
X137433702Y-38020319D01*
X137481321Y-38115557D01*
X137481321Y-38210795D01*
X137433702Y-38306033D01*
X137386083Y-38353652D01*
X137290845Y-38401271D01*
X136957512Y-38401271D01*
X137719417Y-39020319D02*
X138481321Y-39020319D01*
X139290845Y-38829842D02*
X139243226Y-38877461D01*
X139100369Y-38925080D01*
X139005131Y-38925080D01*
X138862274Y-38877461D01*
X138767036Y-38782223D01*
X138719417Y-38686985D01*
X138671798Y-38496509D01*
X138671798Y-38353652D01*
X138719417Y-38163176D01*
X138767036Y-38067938D01*
X138862274Y-37972700D01*
X139005131Y-37925080D01*
X139100369Y-37925080D01*
X139243226Y-37972700D01*
X139290845Y-38020319D01*
X140243226Y-38925080D02*
X139671798Y-38925080D01*
X139957512Y-38925080D02*
X139957512Y-37925080D01*
X139862274Y-38067938D01*
X139767036Y-38163176D01*
X139671798Y-38210795D01*
G04 #@! TO.C,D0:1*
X53839129Y-186647384D02*
X53501034Y-185922338D01*
X53673664Y-185841839D01*
X53793342Y-185828066D01*
X53894593Y-185864918D01*
X53961319Y-185917870D01*
X54060244Y-186039875D01*
X54108543Y-186143453D01*
X54138416Y-186297657D01*
X54136090Y-186382808D01*
X54099237Y-186484060D01*
X54011759Y-186566885D01*
X53839129Y-186647384D01*
X54364184Y-185519844D02*
X54433236Y-185487644D01*
X54518388Y-185489971D01*
X54569014Y-185508397D01*
X54635739Y-185561350D01*
X54734664Y-185683354D01*
X54815163Y-185855984D01*
X54845036Y-186010188D01*
X54842710Y-186095339D01*
X54824283Y-186145965D01*
X54771331Y-186212691D01*
X54702279Y-186244890D01*
X54617127Y-186242564D01*
X54566501Y-186224137D01*
X54499776Y-186171185D01*
X54400851Y-186049181D01*
X54320352Y-185876551D01*
X54290479Y-185722347D01*
X54292806Y-185637195D01*
X54311232Y-185586569D01*
X54364184Y-185519844D01*
X55222496Y-185918242D02*
X55273121Y-185936669D01*
X55254695Y-185987294D01*
X55204069Y-185968868D01*
X55222496Y-185918242D01*
X55254695Y-185987294D01*
X55045399Y-185538456D02*
X55096024Y-185556882D01*
X55077598Y-185607508D01*
X55026972Y-185589082D01*
X55045399Y-185538456D01*
X55077598Y-185607508D01*
X55979741Y-185649200D02*
X55565429Y-185842397D01*
X55772585Y-185745798D02*
X55434491Y-185020752D01*
X55413738Y-185156529D01*
X55376885Y-185257781D01*
X55323933Y-185324506D01*
G04 #@! TO.C,D0:2*
X71539979Y-156387090D02*
X72265025Y-156048995D01*
X72345524Y-156221625D01*
X72359297Y-156341303D01*
X72322445Y-156442554D01*
X72269493Y-156509280D01*
X72147488Y-156608205D01*
X72043910Y-156656504D01*
X71889706Y-156686377D01*
X71804555Y-156684051D01*
X71703303Y-156647198D01*
X71620478Y-156559720D01*
X71539979Y-156387090D01*
X72667519Y-156912145D02*
X72699719Y-156981197D01*
X72697392Y-157066349D01*
X72678966Y-157116975D01*
X72626013Y-157183700D01*
X72504009Y-157282625D01*
X72331379Y-157363124D01*
X72177175Y-157392997D01*
X72092024Y-157390671D01*
X72041398Y-157372244D01*
X71974672Y-157319292D01*
X71942473Y-157250240D01*
X71944799Y-157165088D01*
X71963226Y-157114462D01*
X72016178Y-157047737D01*
X72138182Y-156948812D01*
X72310812Y-156868313D01*
X72465016Y-156838440D01*
X72550168Y-156840767D01*
X72600794Y-156859193D01*
X72667519Y-156912145D01*
X72269121Y-157770457D02*
X72250694Y-157821082D01*
X72200069Y-157802656D01*
X72218495Y-157752030D01*
X72269121Y-157770457D01*
X72200069Y-157802656D01*
X72648907Y-157593360D02*
X72630481Y-157643985D01*
X72579855Y-157625559D01*
X72598281Y-157574933D01*
X72648907Y-157593360D01*
X72579855Y-157625559D01*
X73000961Y-157807495D02*
X73051586Y-157825921D01*
X73118312Y-157878874D01*
X73198811Y-158051504D01*
X73196484Y-158136656D01*
X73178058Y-158187281D01*
X73125105Y-158254007D01*
X73056053Y-158286206D01*
X72936376Y-158299979D01*
X72328867Y-158078864D01*
X72538163Y-158527702D01*
G04 #@! TO.C,D0:3*
X88852525Y-148391259D02*
X89577571Y-148053164D01*
X89658070Y-148225794D01*
X89671843Y-148345472D01*
X89634991Y-148446723D01*
X89582039Y-148513449D01*
X89460034Y-148612374D01*
X89356456Y-148660673D01*
X89202252Y-148690546D01*
X89117101Y-148688220D01*
X89015849Y-148651367D01*
X88933024Y-148563889D01*
X88852525Y-148391259D01*
X89980065Y-148916314D02*
X90012265Y-148985366D01*
X90009938Y-149070518D01*
X89991512Y-149121144D01*
X89938559Y-149187869D01*
X89816555Y-149286794D01*
X89643925Y-149367293D01*
X89489721Y-149397166D01*
X89404570Y-149394840D01*
X89353944Y-149376413D01*
X89287218Y-149323461D01*
X89255019Y-149254409D01*
X89257345Y-149169257D01*
X89275772Y-149118631D01*
X89328724Y-149051906D01*
X89450728Y-148952981D01*
X89623358Y-148872482D01*
X89777562Y-148842609D01*
X89862714Y-148844936D01*
X89913340Y-148863362D01*
X89980065Y-148916314D01*
X89581667Y-149774626D02*
X89563240Y-149825251D01*
X89512615Y-149806825D01*
X89531041Y-149756199D01*
X89581667Y-149774626D01*
X89512615Y-149806825D01*
X89961453Y-149597529D02*
X89943027Y-149648154D01*
X89892401Y-149629728D01*
X89910827Y-149579102D01*
X89961453Y-149597529D01*
X89892401Y-149629728D01*
X90366459Y-149744939D02*
X90575756Y-150193777D01*
X90186849Y-150080893D01*
X90235148Y-150184471D01*
X90232822Y-150269622D01*
X90214396Y-150320248D01*
X90161443Y-150386974D01*
X89988813Y-150467472D01*
X89903662Y-150465146D01*
X89853036Y-150446720D01*
X89786310Y-150393767D01*
X89689712Y-150186611D01*
X89692038Y-150101460D01*
X89710465Y-150050834D01*
G04 #@! TO.C,D0:4*
X45876318Y-169952058D02*
X45538223Y-169227012D01*
X45710853Y-169146513D01*
X45830531Y-169132740D01*
X45931782Y-169169592D01*
X45998508Y-169222544D01*
X46097433Y-169344549D01*
X46145732Y-169448127D01*
X46175605Y-169602331D01*
X46173279Y-169687482D01*
X46136426Y-169788734D01*
X46048948Y-169871559D01*
X45876318Y-169952058D01*
X46401373Y-168824518D02*
X46470425Y-168792318D01*
X46555577Y-168794645D01*
X46606203Y-168813071D01*
X46672928Y-168866024D01*
X46771853Y-168988028D01*
X46852352Y-169160658D01*
X46882225Y-169314862D01*
X46879899Y-169400013D01*
X46861472Y-169450639D01*
X46808520Y-169517365D01*
X46739468Y-169549564D01*
X46654316Y-169547238D01*
X46603690Y-169528811D01*
X46536965Y-169475859D01*
X46438040Y-169353855D01*
X46357541Y-169181225D01*
X46327668Y-169027021D01*
X46329995Y-168941869D01*
X46348421Y-168891243D01*
X46401373Y-168824518D01*
X47259685Y-169222916D02*
X47310310Y-169241343D01*
X47291884Y-169291968D01*
X47241258Y-169273542D01*
X47259685Y-169222916D01*
X47291884Y-169291968D01*
X47082588Y-168843130D02*
X47133213Y-168861556D01*
X47114787Y-168912182D01*
X47064161Y-168893756D01*
X47082588Y-168843130D01*
X47114787Y-168912182D01*
X47722482Y-168502709D02*
X47947878Y-168986073D01*
X47421054Y-168307000D02*
X47489920Y-168905389D01*
X47938758Y-168696092D01*
G04 #@! TO.C,D0:5*
X54842518Y-144272658D02*
X54504423Y-143547612D01*
X54677053Y-143467113D01*
X54796731Y-143453340D01*
X54897982Y-143490192D01*
X54964708Y-143543144D01*
X55063633Y-143665149D01*
X55111932Y-143768727D01*
X55141805Y-143922931D01*
X55139479Y-144008082D01*
X55102626Y-144109334D01*
X55015148Y-144192159D01*
X54842518Y-144272658D01*
X55367573Y-143145118D02*
X55436625Y-143112918D01*
X55521777Y-143115245D01*
X55572403Y-143133671D01*
X55639128Y-143186624D01*
X55738053Y-143308628D01*
X55818552Y-143481258D01*
X55848425Y-143635462D01*
X55846099Y-143720613D01*
X55827672Y-143771239D01*
X55774720Y-143837965D01*
X55705668Y-143870164D01*
X55620516Y-143867838D01*
X55569890Y-143849411D01*
X55503165Y-143796459D01*
X55404240Y-143674455D01*
X55323741Y-143501825D01*
X55293868Y-143347621D01*
X55296195Y-143262469D01*
X55314621Y-143211843D01*
X55367573Y-143145118D01*
X56225885Y-143543516D02*
X56276510Y-143561943D01*
X56258084Y-143612568D01*
X56207458Y-143594142D01*
X56225885Y-143543516D01*
X56258084Y-143612568D01*
X56048788Y-143163730D02*
X56099413Y-143182156D01*
X56080987Y-143232782D01*
X56030361Y-143214356D01*
X56048788Y-143163730D01*
X56080987Y-143232782D01*
X56610510Y-142565527D02*
X56265250Y-142726525D01*
X56391721Y-143087884D01*
X56410147Y-143037259D01*
X56463100Y-142970533D01*
X56635730Y-142890035D01*
X56720881Y-142892361D01*
X56771507Y-142910787D01*
X56838233Y-142963740D01*
X56918731Y-143136370D01*
X56916405Y-143221521D01*
X56897979Y-143272147D01*
X56845026Y-143338873D01*
X56672396Y-143419371D01*
X56587245Y-143417045D01*
X56536619Y-143398619D01*
G04 #@! TO.C,D0:6*
X37641549Y-152085604D02*
X37303454Y-151360558D01*
X37476084Y-151280059D01*
X37595762Y-151266286D01*
X37697013Y-151303138D01*
X37763739Y-151356090D01*
X37862664Y-151478095D01*
X37910963Y-151581673D01*
X37940836Y-151735877D01*
X37938510Y-151821028D01*
X37901657Y-151922280D01*
X37814179Y-152005105D01*
X37641549Y-152085604D01*
X38166604Y-150958064D02*
X38235656Y-150925864D01*
X38320808Y-150928191D01*
X38371434Y-150946617D01*
X38438159Y-150999570D01*
X38537084Y-151121574D01*
X38617583Y-151294204D01*
X38647456Y-151448408D01*
X38645130Y-151533559D01*
X38626703Y-151584185D01*
X38573751Y-151650911D01*
X38504699Y-151683110D01*
X38419547Y-151680784D01*
X38368921Y-151662357D01*
X38302196Y-151609405D01*
X38203271Y-151487401D01*
X38122772Y-151314771D01*
X38092899Y-151160567D01*
X38095226Y-151075415D01*
X38113652Y-151024789D01*
X38166604Y-150958064D01*
X39024916Y-151356462D02*
X39075541Y-151374889D01*
X39057115Y-151425514D01*
X39006489Y-151407088D01*
X39024916Y-151356462D01*
X39057115Y-151425514D01*
X38847819Y-150976676D02*
X38898444Y-150995102D01*
X38880018Y-151045728D01*
X38829392Y-151027302D01*
X38847819Y-150976676D01*
X38880018Y-151045728D01*
X39375015Y-150394573D02*
X39236911Y-150458972D01*
X39183958Y-150525697D01*
X39165532Y-150576323D01*
X39144779Y-150712101D01*
X39174652Y-150866304D01*
X39303450Y-151142513D01*
X39370176Y-151195465D01*
X39420802Y-151213891D01*
X39505953Y-151216218D01*
X39644057Y-151151819D01*
X39697010Y-151085093D01*
X39715436Y-151034467D01*
X39717762Y-150949316D01*
X39637264Y-150776686D01*
X39570538Y-150723733D01*
X39519912Y-150705307D01*
X39434761Y-150702981D01*
X39296657Y-150767379D01*
X39243704Y-150834105D01*
X39225278Y-150884731D01*
X39222952Y-150969883D01*
G04 #@! TO.C,D1:0*
X185596675Y-152350884D02*
X185596675Y-151550884D01*
X185787151Y-151550884D01*
X185901437Y-151588980D01*
X185977627Y-151665170D01*
X186015722Y-151741360D01*
X186053818Y-151893741D01*
X186053818Y-152008027D01*
X186015722Y-152160408D01*
X185977627Y-152236599D01*
X185901437Y-152312789D01*
X185787151Y-152350884D01*
X185596675Y-152350884D01*
X186815722Y-152350884D02*
X186358580Y-152350884D01*
X186587151Y-152350884D02*
X186587151Y-151550884D01*
X186510960Y-151665170D01*
X186434770Y-151741360D01*
X186358580Y-151779456D01*
X187158580Y-152274694D02*
X187196675Y-152312789D01*
X187158580Y-152350884D01*
X187120484Y-152312789D01*
X187158580Y-152274694D01*
X187158580Y-152350884D01*
X187158580Y-151855646D02*
X187196675Y-151893741D01*
X187158580Y-151931837D01*
X187120484Y-151893741D01*
X187158580Y-151855646D01*
X187158580Y-151931837D01*
X187691913Y-151550884D02*
X187768103Y-151550884D01*
X187844294Y-151588980D01*
X187882389Y-151627075D01*
X187920484Y-151703265D01*
X187958580Y-151855646D01*
X187958580Y-152046122D01*
X187920484Y-152198503D01*
X187882389Y-152274694D01*
X187844294Y-152312789D01*
X187768103Y-152350884D01*
X187691913Y-152350884D01*
X187615722Y-152312789D01*
X187577627Y-152274694D01*
X187539532Y-152198503D01*
X187501437Y-152046122D01*
X187501437Y-151855646D01*
X187539532Y-151703265D01*
X187577627Y-151627075D01*
X187615722Y-151588980D01*
X187691913Y-151550884D01*
G04 #@! TO.C,D1:2*
X147529695Y-149970904D02*
X147529695Y-149170904D01*
X147720171Y-149170904D01*
X147834457Y-149209000D01*
X147910647Y-149285190D01*
X147948742Y-149361380D01*
X147986838Y-149513761D01*
X147986838Y-149628047D01*
X147948742Y-149780428D01*
X147910647Y-149856619D01*
X147834457Y-149932809D01*
X147720171Y-149970904D01*
X147529695Y-149970904D01*
X148748742Y-149970904D02*
X148291600Y-149970904D01*
X148520171Y-149970904D02*
X148520171Y-149170904D01*
X148443980Y-149285190D01*
X148367790Y-149361380D01*
X148291600Y-149399476D01*
X149091600Y-149894714D02*
X149129695Y-149932809D01*
X149091600Y-149970904D01*
X149053504Y-149932809D01*
X149091600Y-149894714D01*
X149091600Y-149970904D01*
X149091600Y-149475666D02*
X149129695Y-149513761D01*
X149091600Y-149551857D01*
X149053504Y-149513761D01*
X149091600Y-149475666D01*
X149091600Y-149551857D01*
X149434457Y-149247095D02*
X149472552Y-149209000D01*
X149548742Y-149170904D01*
X149739219Y-149170904D01*
X149815409Y-149209000D01*
X149853504Y-149247095D01*
X149891600Y-149323285D01*
X149891600Y-149399476D01*
X149853504Y-149513761D01*
X149396361Y-149970904D01*
X149891600Y-149970904D01*
G04 #@! TO.C,D1:3*
X128352695Y-147811904D02*
X128352695Y-147011904D01*
X128543171Y-147011904D01*
X128657457Y-147050000D01*
X128733647Y-147126190D01*
X128771742Y-147202380D01*
X128809838Y-147354761D01*
X128809838Y-147469047D01*
X128771742Y-147621428D01*
X128733647Y-147697619D01*
X128657457Y-147773809D01*
X128543171Y-147811904D01*
X128352695Y-147811904D01*
X129571742Y-147811904D02*
X129114600Y-147811904D01*
X129343171Y-147811904D02*
X129343171Y-147011904D01*
X129266980Y-147126190D01*
X129190790Y-147202380D01*
X129114600Y-147240476D01*
X129914600Y-147735714D02*
X129952695Y-147773809D01*
X129914600Y-147811904D01*
X129876504Y-147773809D01*
X129914600Y-147735714D01*
X129914600Y-147811904D01*
X129914600Y-147316666D02*
X129952695Y-147354761D01*
X129914600Y-147392857D01*
X129876504Y-147354761D01*
X129914600Y-147316666D01*
X129914600Y-147392857D01*
X130219361Y-147011904D02*
X130714600Y-147011904D01*
X130447933Y-147316666D01*
X130562219Y-147316666D01*
X130638409Y-147354761D01*
X130676504Y-147392857D01*
X130714600Y-147469047D01*
X130714600Y-147659523D01*
X130676504Y-147735714D01*
X130638409Y-147773809D01*
X130562219Y-147811904D01*
X130333647Y-147811904D01*
X130257457Y-147773809D01*
X130219361Y-147735714D01*
G04 #@! TO.C,D1:4*
X109175695Y-149208904D02*
X109175695Y-148408904D01*
X109366171Y-148408904D01*
X109480457Y-148447000D01*
X109556647Y-148523190D01*
X109594742Y-148599380D01*
X109632838Y-148751761D01*
X109632838Y-148866047D01*
X109594742Y-149018428D01*
X109556647Y-149094619D01*
X109480457Y-149170809D01*
X109366171Y-149208904D01*
X109175695Y-149208904D01*
X110394742Y-149208904D02*
X109937600Y-149208904D01*
X110166171Y-149208904D02*
X110166171Y-148408904D01*
X110089980Y-148523190D01*
X110013790Y-148599380D01*
X109937600Y-148637476D01*
X110737600Y-149132714D02*
X110775695Y-149170809D01*
X110737600Y-149208904D01*
X110699504Y-149170809D01*
X110737600Y-149132714D01*
X110737600Y-149208904D01*
X110737600Y-148713666D02*
X110775695Y-148751761D01*
X110737600Y-148789857D01*
X110699504Y-148751761D01*
X110737600Y-148713666D01*
X110737600Y-148789857D01*
X111461409Y-148675571D02*
X111461409Y-149208904D01*
X111270933Y-148370809D02*
X111080457Y-148942238D01*
X111575695Y-148942238D01*
G04 #@! TO.C,D1:5*
X73709549Y-139174938D02*
X73371454Y-138449892D01*
X73544084Y-138369393D01*
X73663762Y-138355620D01*
X73765013Y-138392472D01*
X73831739Y-138445424D01*
X73930664Y-138567429D01*
X73978963Y-138671007D01*
X74008836Y-138825211D01*
X74006510Y-138910362D01*
X73969657Y-139011614D01*
X73882179Y-139094439D01*
X73709549Y-139174938D01*
X74814381Y-138659746D02*
X74400069Y-138852943D01*
X74607225Y-138756344D02*
X74269130Y-138031298D01*
X74248378Y-138167076D01*
X74211525Y-138268327D01*
X74158573Y-138335053D01*
X75092916Y-138445796D02*
X75143541Y-138464223D01*
X75125115Y-138514848D01*
X75074489Y-138496422D01*
X75092916Y-138445796D01*
X75125115Y-138514848D01*
X74915819Y-138066010D02*
X74966444Y-138084436D01*
X74948018Y-138135062D01*
X74897392Y-138116636D01*
X74915819Y-138066010D01*
X74948018Y-138135062D01*
X75477541Y-137467807D02*
X75132281Y-137628805D01*
X75258752Y-137990164D01*
X75277178Y-137939539D01*
X75330131Y-137872813D01*
X75502761Y-137792315D01*
X75587912Y-137794641D01*
X75638538Y-137813067D01*
X75705264Y-137866020D01*
X75785762Y-138038650D01*
X75783436Y-138123801D01*
X75765010Y-138174427D01*
X75712057Y-138241153D01*
X75539427Y-138321651D01*
X75454276Y-138319325D01*
X75403650Y-138300899D01*
G04 #@! TO.C,D1:6*
X56437549Y-147259604D02*
X56099454Y-146534558D01*
X56272084Y-146454059D01*
X56391762Y-146440286D01*
X56493013Y-146477138D01*
X56559739Y-146530090D01*
X56658664Y-146652095D01*
X56706963Y-146755673D01*
X56736836Y-146909877D01*
X56734510Y-146995028D01*
X56697657Y-147096280D01*
X56610179Y-147179105D01*
X56437549Y-147259604D01*
X57542381Y-146744412D02*
X57128069Y-146937609D01*
X57335225Y-146841010D02*
X56997130Y-146115964D01*
X56976378Y-146251742D01*
X56939525Y-146352993D01*
X56886573Y-146419719D01*
X57820916Y-146530462D02*
X57871541Y-146548889D01*
X57853115Y-146599514D01*
X57802489Y-146581088D01*
X57820916Y-146530462D01*
X57853115Y-146599514D01*
X57643819Y-146150676D02*
X57694444Y-146169102D01*
X57676018Y-146219728D01*
X57625392Y-146201302D01*
X57643819Y-146150676D01*
X57676018Y-146219728D01*
X58171015Y-145568573D02*
X58032911Y-145632972D01*
X57979958Y-145699697D01*
X57961532Y-145750323D01*
X57940779Y-145886101D01*
X57970652Y-146040304D01*
X58099450Y-146316513D01*
X58166176Y-146369465D01*
X58216802Y-146387891D01*
X58301953Y-146390218D01*
X58440057Y-146325819D01*
X58493010Y-146259093D01*
X58511436Y-146208467D01*
X58513762Y-146123316D01*
X58433264Y-145950686D01*
X58366538Y-145897733D01*
X58315912Y-145879307D01*
X58230761Y-145876981D01*
X58092657Y-145941379D01*
X58039704Y-146008105D01*
X58021278Y-146058731D01*
X58018952Y-146143883D01*
G04 #@! TO.C,D1:!1*
X166262219Y-152325484D02*
X166262219Y-151525484D01*
X166452695Y-151525484D01*
X166566980Y-151563580D01*
X166643171Y-151639770D01*
X166681266Y-151715960D01*
X166719361Y-151868341D01*
X166719361Y-151982627D01*
X166681266Y-152135008D01*
X166643171Y-152211199D01*
X166566980Y-152287389D01*
X166452695Y-152325484D01*
X166262219Y-152325484D01*
X167481266Y-152325484D02*
X167024123Y-152325484D01*
X167252695Y-152325484D02*
X167252695Y-151525484D01*
X167176504Y-151639770D01*
X167100314Y-151715960D01*
X167024123Y-151754056D01*
X167824123Y-152249294D02*
X167862219Y-152287389D01*
X167824123Y-152325484D01*
X167786028Y-152287389D01*
X167824123Y-152249294D01*
X167824123Y-152325484D01*
X167824123Y-151830246D02*
X167862219Y-151868341D01*
X167824123Y-151906437D01*
X167786028Y-151868341D01*
X167824123Y-151830246D01*
X167824123Y-151906437D01*
X168205076Y-152249294D02*
X168243171Y-152287389D01*
X168205076Y-152325484D01*
X168166980Y-152287389D01*
X168205076Y-152249294D01*
X168205076Y-152325484D01*
X168205076Y-152020722D02*
X168166980Y-151563580D01*
X168205076Y-151525484D01*
X168243171Y-151563580D01*
X168205076Y-152020722D01*
X168205076Y-151525484D01*
X169005076Y-152325484D02*
X168547933Y-152325484D01*
X168776504Y-152325484D02*
X168776504Y-151525484D01*
X168700314Y-151639770D01*
X168624123Y-151715960D01*
X168547933Y-151754056D01*
G04 #@! TO.C,D2:0*
X190201695Y-133968904D02*
X190201695Y-133168904D01*
X190392171Y-133168904D01*
X190506457Y-133207000D01*
X190582647Y-133283190D01*
X190620742Y-133359380D01*
X190658838Y-133511761D01*
X190658838Y-133626047D01*
X190620742Y-133778428D01*
X190582647Y-133854619D01*
X190506457Y-133930809D01*
X190392171Y-133968904D01*
X190201695Y-133968904D01*
X190963600Y-133245095D02*
X191001695Y-133207000D01*
X191077885Y-133168904D01*
X191268361Y-133168904D01*
X191344552Y-133207000D01*
X191382647Y-133245095D01*
X191420742Y-133321285D01*
X191420742Y-133397476D01*
X191382647Y-133511761D01*
X190925504Y-133968904D01*
X191420742Y-133968904D01*
X191763600Y-133892714D02*
X191801695Y-133930809D01*
X191763600Y-133968904D01*
X191725504Y-133930809D01*
X191763600Y-133892714D01*
X191763600Y-133968904D01*
X191763600Y-133473666D02*
X191801695Y-133511761D01*
X191763600Y-133549857D01*
X191725504Y-133511761D01*
X191763600Y-133473666D01*
X191763600Y-133549857D01*
X192296933Y-133168904D02*
X192373123Y-133168904D01*
X192449314Y-133207000D01*
X192487409Y-133245095D01*
X192525504Y-133321285D01*
X192563600Y-133473666D01*
X192563600Y-133664142D01*
X192525504Y-133816523D01*
X192487409Y-133892714D01*
X192449314Y-133930809D01*
X192373123Y-133968904D01*
X192296933Y-133968904D01*
X192220742Y-133930809D01*
X192182647Y-133892714D01*
X192144552Y-133816523D01*
X192106457Y-133664142D01*
X192106457Y-133473666D01*
X192144552Y-133321285D01*
X192182647Y-133245095D01*
X192220742Y-133207000D01*
X192296933Y-133168904D01*
G04 #@! TO.C,D2:1*
X166452695Y-134095904D02*
X166452695Y-133295904D01*
X166643171Y-133295904D01*
X166757457Y-133334000D01*
X166833647Y-133410190D01*
X166871742Y-133486380D01*
X166909838Y-133638761D01*
X166909838Y-133753047D01*
X166871742Y-133905428D01*
X166833647Y-133981619D01*
X166757457Y-134057809D01*
X166643171Y-134095904D01*
X166452695Y-134095904D01*
X167214600Y-133372095D02*
X167252695Y-133334000D01*
X167328885Y-133295904D01*
X167519361Y-133295904D01*
X167595552Y-133334000D01*
X167633647Y-133372095D01*
X167671742Y-133448285D01*
X167671742Y-133524476D01*
X167633647Y-133638761D01*
X167176504Y-134095904D01*
X167671742Y-134095904D01*
X168014600Y-134019714D02*
X168052695Y-134057809D01*
X168014600Y-134095904D01*
X167976504Y-134057809D01*
X168014600Y-134019714D01*
X168014600Y-134095904D01*
X168014600Y-133600666D02*
X168052695Y-133638761D01*
X168014600Y-133676857D01*
X167976504Y-133638761D01*
X168014600Y-133600666D01*
X168014600Y-133676857D01*
X168814600Y-134095904D02*
X168357457Y-134095904D01*
X168586028Y-134095904D02*
X168586028Y-133295904D01*
X168509838Y-133410190D01*
X168433647Y-133486380D01*
X168357457Y-133524476D01*
G04 #@! TO.C,D2:2*
X147402695Y-130920904D02*
X147402695Y-130120904D01*
X147593171Y-130120904D01*
X147707457Y-130159000D01*
X147783647Y-130235190D01*
X147821742Y-130311380D01*
X147859838Y-130463761D01*
X147859838Y-130578047D01*
X147821742Y-130730428D01*
X147783647Y-130806619D01*
X147707457Y-130882809D01*
X147593171Y-130920904D01*
X147402695Y-130920904D01*
X148164600Y-130197095D02*
X148202695Y-130159000D01*
X148278885Y-130120904D01*
X148469361Y-130120904D01*
X148545552Y-130159000D01*
X148583647Y-130197095D01*
X148621742Y-130273285D01*
X148621742Y-130349476D01*
X148583647Y-130463761D01*
X148126504Y-130920904D01*
X148621742Y-130920904D01*
X148964600Y-130844714D02*
X149002695Y-130882809D01*
X148964600Y-130920904D01*
X148926504Y-130882809D01*
X148964600Y-130844714D01*
X148964600Y-130920904D01*
X148964600Y-130425666D02*
X149002695Y-130463761D01*
X148964600Y-130501857D01*
X148926504Y-130463761D01*
X148964600Y-130425666D01*
X148964600Y-130501857D01*
X149307457Y-130197095D02*
X149345552Y-130159000D01*
X149421742Y-130120904D01*
X149612219Y-130120904D01*
X149688409Y-130159000D01*
X149726504Y-130197095D01*
X149764600Y-130273285D01*
X149764600Y-130349476D01*
X149726504Y-130463761D01*
X149269361Y-130920904D01*
X149764600Y-130920904D01*
G04 #@! TO.C,D2:3*
X128352695Y-129269904D02*
X128352695Y-128469904D01*
X128543171Y-128469904D01*
X128657457Y-128508000D01*
X128733647Y-128584190D01*
X128771742Y-128660380D01*
X128809838Y-128812761D01*
X128809838Y-128927047D01*
X128771742Y-129079428D01*
X128733647Y-129155619D01*
X128657457Y-129231809D01*
X128543171Y-129269904D01*
X128352695Y-129269904D01*
X129114600Y-128546095D02*
X129152695Y-128508000D01*
X129228885Y-128469904D01*
X129419361Y-128469904D01*
X129495552Y-128508000D01*
X129533647Y-128546095D01*
X129571742Y-128622285D01*
X129571742Y-128698476D01*
X129533647Y-128812761D01*
X129076504Y-129269904D01*
X129571742Y-129269904D01*
X129914600Y-129193714D02*
X129952695Y-129231809D01*
X129914600Y-129269904D01*
X129876504Y-129231809D01*
X129914600Y-129193714D01*
X129914600Y-129269904D01*
X129914600Y-128774666D02*
X129952695Y-128812761D01*
X129914600Y-128850857D01*
X129876504Y-128812761D01*
X129914600Y-128774666D01*
X129914600Y-128850857D01*
X130219361Y-128469904D02*
X130714600Y-128469904D01*
X130447933Y-128774666D01*
X130562219Y-128774666D01*
X130638409Y-128812761D01*
X130676504Y-128850857D01*
X130714600Y-128927047D01*
X130714600Y-129117523D01*
X130676504Y-129193714D01*
X130638409Y-129231809D01*
X130562219Y-129269904D01*
X130333647Y-129269904D01*
X130257457Y-129231809D01*
X130219361Y-129193714D01*
G04 #@! TO.C,D2:4*
X109302695Y-130920904D02*
X109302695Y-130120904D01*
X109493171Y-130120904D01*
X109607457Y-130159000D01*
X109683647Y-130235190D01*
X109721742Y-130311380D01*
X109759838Y-130463761D01*
X109759838Y-130578047D01*
X109721742Y-130730428D01*
X109683647Y-130806619D01*
X109607457Y-130882809D01*
X109493171Y-130920904D01*
X109302695Y-130920904D01*
X110064600Y-130197095D02*
X110102695Y-130159000D01*
X110178885Y-130120904D01*
X110369361Y-130120904D01*
X110445552Y-130159000D01*
X110483647Y-130197095D01*
X110521742Y-130273285D01*
X110521742Y-130349476D01*
X110483647Y-130463761D01*
X110026504Y-130920904D01*
X110521742Y-130920904D01*
X110864600Y-130844714D02*
X110902695Y-130882809D01*
X110864600Y-130920904D01*
X110826504Y-130882809D01*
X110864600Y-130844714D01*
X110864600Y-130920904D01*
X110864600Y-130425666D02*
X110902695Y-130463761D01*
X110864600Y-130501857D01*
X110826504Y-130463761D01*
X110864600Y-130425666D01*
X110864600Y-130501857D01*
X111588409Y-130387571D02*
X111588409Y-130920904D01*
X111397933Y-130082809D02*
X111207457Y-130654238D01*
X111702695Y-130654238D01*
G04 #@! TO.C,D2:5*
X90252695Y-132063904D02*
X90252695Y-131263904D01*
X90443171Y-131263904D01*
X90557457Y-131302000D01*
X90633647Y-131378190D01*
X90671742Y-131454380D01*
X90709838Y-131606761D01*
X90709838Y-131721047D01*
X90671742Y-131873428D01*
X90633647Y-131949619D01*
X90557457Y-132025809D01*
X90443171Y-132063904D01*
X90252695Y-132063904D01*
X91014600Y-131340095D02*
X91052695Y-131302000D01*
X91128885Y-131263904D01*
X91319361Y-131263904D01*
X91395552Y-131302000D01*
X91433647Y-131340095D01*
X91471742Y-131416285D01*
X91471742Y-131492476D01*
X91433647Y-131606761D01*
X90976504Y-132063904D01*
X91471742Y-132063904D01*
X91814600Y-131987714D02*
X91852695Y-132025809D01*
X91814600Y-132063904D01*
X91776504Y-132025809D01*
X91814600Y-131987714D01*
X91814600Y-132063904D01*
X91814600Y-131568666D02*
X91852695Y-131606761D01*
X91814600Y-131644857D01*
X91776504Y-131606761D01*
X91814600Y-131568666D01*
X91814600Y-131644857D01*
X92576504Y-131263904D02*
X92195552Y-131263904D01*
X92157457Y-131644857D01*
X92195552Y-131606761D01*
X92271742Y-131568666D01*
X92462219Y-131568666D01*
X92538409Y-131606761D01*
X92576504Y-131644857D01*
X92614600Y-131721047D01*
X92614600Y-131911523D01*
X92576504Y-131987714D01*
X92538409Y-132025809D01*
X92462219Y-132063904D01*
X92271742Y-132063904D01*
X92195552Y-132025809D01*
X92157457Y-131987714D01*
G04 #@! TO.C,D2:6*
X81721104Y-118636904D02*
X80921104Y-118636904D01*
X80921104Y-118446428D01*
X80959200Y-118332142D01*
X81035390Y-118255952D01*
X81111580Y-118217857D01*
X81263961Y-118179761D01*
X81378247Y-118179761D01*
X81530628Y-118217857D01*
X81606819Y-118255952D01*
X81683009Y-118332142D01*
X81721104Y-118446428D01*
X81721104Y-118636904D01*
X80997295Y-117875000D02*
X80959200Y-117836904D01*
X80921104Y-117760714D01*
X80921104Y-117570238D01*
X80959200Y-117494047D01*
X80997295Y-117455952D01*
X81073485Y-117417857D01*
X81149676Y-117417857D01*
X81263961Y-117455952D01*
X81721104Y-117913095D01*
X81721104Y-117417857D01*
X81644914Y-117075000D02*
X81683009Y-117036904D01*
X81721104Y-117075000D01*
X81683009Y-117113095D01*
X81644914Y-117075000D01*
X81721104Y-117075000D01*
X81225866Y-117075000D02*
X81263961Y-117036904D01*
X81302057Y-117075000D01*
X81263961Y-117113095D01*
X81225866Y-117075000D01*
X81302057Y-117075000D01*
X80921104Y-116351190D02*
X80921104Y-116503571D01*
X80959200Y-116579761D01*
X80997295Y-116617857D01*
X81111580Y-116694047D01*
X81263961Y-116732142D01*
X81568723Y-116732142D01*
X81644914Y-116694047D01*
X81683009Y-116655952D01*
X81721104Y-116579761D01*
X81721104Y-116427380D01*
X81683009Y-116351190D01*
X81644914Y-116313095D01*
X81568723Y-116275000D01*
X81378247Y-116275000D01*
X81302057Y-116313095D01*
X81263961Y-116351190D01*
X81225866Y-116427380D01*
X81225866Y-116579761D01*
X81263961Y-116655952D01*
X81302057Y-116694047D01*
X81378247Y-116732142D01*
G04 #@! TO.C,D3:0*
X190328695Y-115045904D02*
X190328695Y-114245904D01*
X190519171Y-114245904D01*
X190633457Y-114284000D01*
X190709647Y-114360190D01*
X190747742Y-114436380D01*
X190785838Y-114588761D01*
X190785838Y-114703047D01*
X190747742Y-114855428D01*
X190709647Y-114931619D01*
X190633457Y-115007809D01*
X190519171Y-115045904D01*
X190328695Y-115045904D01*
X191052504Y-114245904D02*
X191547742Y-114245904D01*
X191281076Y-114550666D01*
X191395361Y-114550666D01*
X191471552Y-114588761D01*
X191509647Y-114626857D01*
X191547742Y-114703047D01*
X191547742Y-114893523D01*
X191509647Y-114969714D01*
X191471552Y-115007809D01*
X191395361Y-115045904D01*
X191166790Y-115045904D01*
X191090600Y-115007809D01*
X191052504Y-114969714D01*
X191890600Y-114969714D02*
X191928695Y-115007809D01*
X191890600Y-115045904D01*
X191852504Y-115007809D01*
X191890600Y-114969714D01*
X191890600Y-115045904D01*
X191890600Y-114550666D02*
X191928695Y-114588761D01*
X191890600Y-114626857D01*
X191852504Y-114588761D01*
X191890600Y-114550666D01*
X191890600Y-114626857D01*
X192423933Y-114245904D02*
X192500123Y-114245904D01*
X192576314Y-114284000D01*
X192614409Y-114322095D01*
X192652504Y-114398285D01*
X192690600Y-114550666D01*
X192690600Y-114741142D01*
X192652504Y-114893523D01*
X192614409Y-114969714D01*
X192576314Y-115007809D01*
X192500123Y-115045904D01*
X192423933Y-115045904D01*
X192347742Y-115007809D01*
X192309647Y-114969714D01*
X192271552Y-114893523D01*
X192233457Y-114741142D01*
X192233457Y-114550666D01*
X192271552Y-114398285D01*
X192309647Y-114322095D01*
X192347742Y-114284000D01*
X192423933Y-114245904D01*
G04 #@! TO.C,D3:1*
X166325695Y-114791904D02*
X166325695Y-113991904D01*
X166516171Y-113991904D01*
X166630457Y-114030000D01*
X166706647Y-114106190D01*
X166744742Y-114182380D01*
X166782838Y-114334761D01*
X166782838Y-114449047D01*
X166744742Y-114601428D01*
X166706647Y-114677619D01*
X166630457Y-114753809D01*
X166516171Y-114791904D01*
X166325695Y-114791904D01*
X167049504Y-113991904D02*
X167544742Y-113991904D01*
X167278076Y-114296666D01*
X167392361Y-114296666D01*
X167468552Y-114334761D01*
X167506647Y-114372857D01*
X167544742Y-114449047D01*
X167544742Y-114639523D01*
X167506647Y-114715714D01*
X167468552Y-114753809D01*
X167392361Y-114791904D01*
X167163790Y-114791904D01*
X167087600Y-114753809D01*
X167049504Y-114715714D01*
X167887600Y-114715714D02*
X167925695Y-114753809D01*
X167887600Y-114791904D01*
X167849504Y-114753809D01*
X167887600Y-114715714D01*
X167887600Y-114791904D01*
X167887600Y-114296666D02*
X167925695Y-114334761D01*
X167887600Y-114372857D01*
X167849504Y-114334761D01*
X167887600Y-114296666D01*
X167887600Y-114372857D01*
X168687600Y-114791904D02*
X168230457Y-114791904D01*
X168459028Y-114791904D02*
X168459028Y-113991904D01*
X168382838Y-114106190D01*
X168306647Y-114182380D01*
X168230457Y-114220476D01*
G04 #@! TO.C,D3:2*
X147402695Y-111870904D02*
X147402695Y-111070904D01*
X147593171Y-111070904D01*
X147707457Y-111109000D01*
X147783647Y-111185190D01*
X147821742Y-111261380D01*
X147859838Y-111413761D01*
X147859838Y-111528047D01*
X147821742Y-111680428D01*
X147783647Y-111756619D01*
X147707457Y-111832809D01*
X147593171Y-111870904D01*
X147402695Y-111870904D01*
X148126504Y-111070904D02*
X148621742Y-111070904D01*
X148355076Y-111375666D01*
X148469361Y-111375666D01*
X148545552Y-111413761D01*
X148583647Y-111451857D01*
X148621742Y-111528047D01*
X148621742Y-111718523D01*
X148583647Y-111794714D01*
X148545552Y-111832809D01*
X148469361Y-111870904D01*
X148240790Y-111870904D01*
X148164600Y-111832809D01*
X148126504Y-111794714D01*
X148964600Y-111794714D02*
X149002695Y-111832809D01*
X148964600Y-111870904D01*
X148926504Y-111832809D01*
X148964600Y-111794714D01*
X148964600Y-111870904D01*
X148964600Y-111375666D02*
X149002695Y-111413761D01*
X148964600Y-111451857D01*
X148926504Y-111413761D01*
X148964600Y-111375666D01*
X148964600Y-111451857D01*
X149307457Y-111147095D02*
X149345552Y-111109000D01*
X149421742Y-111070904D01*
X149612219Y-111070904D01*
X149688409Y-111109000D01*
X149726504Y-111147095D01*
X149764600Y-111223285D01*
X149764600Y-111299476D01*
X149726504Y-111413761D01*
X149269361Y-111870904D01*
X149764600Y-111870904D01*
G04 #@! TO.C,D3:3*
X128352695Y-110219904D02*
X128352695Y-109419904D01*
X128543171Y-109419904D01*
X128657457Y-109458000D01*
X128733647Y-109534190D01*
X128771742Y-109610380D01*
X128809838Y-109762761D01*
X128809838Y-109877047D01*
X128771742Y-110029428D01*
X128733647Y-110105619D01*
X128657457Y-110181809D01*
X128543171Y-110219904D01*
X128352695Y-110219904D01*
X129076504Y-109419904D02*
X129571742Y-109419904D01*
X129305076Y-109724666D01*
X129419361Y-109724666D01*
X129495552Y-109762761D01*
X129533647Y-109800857D01*
X129571742Y-109877047D01*
X129571742Y-110067523D01*
X129533647Y-110143714D01*
X129495552Y-110181809D01*
X129419361Y-110219904D01*
X129190790Y-110219904D01*
X129114600Y-110181809D01*
X129076504Y-110143714D01*
X129914600Y-110143714D02*
X129952695Y-110181809D01*
X129914600Y-110219904D01*
X129876504Y-110181809D01*
X129914600Y-110143714D01*
X129914600Y-110219904D01*
X129914600Y-109724666D02*
X129952695Y-109762761D01*
X129914600Y-109800857D01*
X129876504Y-109762761D01*
X129914600Y-109724666D01*
X129914600Y-109800857D01*
X130219361Y-109419904D02*
X130714600Y-109419904D01*
X130447933Y-109724666D01*
X130562219Y-109724666D01*
X130638409Y-109762761D01*
X130676504Y-109800857D01*
X130714600Y-109877047D01*
X130714600Y-110067523D01*
X130676504Y-110143714D01*
X130638409Y-110181809D01*
X130562219Y-110219904D01*
X130333647Y-110219904D01*
X130257457Y-110181809D01*
X130219361Y-110143714D01*
G04 #@! TO.C,D3:4*
X109429695Y-111870904D02*
X109429695Y-111070904D01*
X109620171Y-111070904D01*
X109734457Y-111109000D01*
X109810647Y-111185190D01*
X109848742Y-111261380D01*
X109886838Y-111413761D01*
X109886838Y-111528047D01*
X109848742Y-111680428D01*
X109810647Y-111756619D01*
X109734457Y-111832809D01*
X109620171Y-111870904D01*
X109429695Y-111870904D01*
X110153504Y-111070904D02*
X110648742Y-111070904D01*
X110382076Y-111375666D01*
X110496361Y-111375666D01*
X110572552Y-111413761D01*
X110610647Y-111451857D01*
X110648742Y-111528047D01*
X110648742Y-111718523D01*
X110610647Y-111794714D01*
X110572552Y-111832809D01*
X110496361Y-111870904D01*
X110267790Y-111870904D01*
X110191600Y-111832809D01*
X110153504Y-111794714D01*
X110991600Y-111794714D02*
X111029695Y-111832809D01*
X110991600Y-111870904D01*
X110953504Y-111832809D01*
X110991600Y-111794714D01*
X110991600Y-111870904D01*
X110991600Y-111375666D02*
X111029695Y-111413761D01*
X110991600Y-111451857D01*
X110953504Y-111413761D01*
X110991600Y-111375666D01*
X110991600Y-111451857D01*
X111715409Y-111337571D02*
X111715409Y-111870904D01*
X111524933Y-111032809D02*
X111334457Y-111604238D01*
X111829695Y-111604238D01*
G04 #@! TO.C,D3:5*
X90252695Y-113013904D02*
X90252695Y-112213904D01*
X90443171Y-112213904D01*
X90557457Y-112252000D01*
X90633647Y-112328190D01*
X90671742Y-112404380D01*
X90709838Y-112556761D01*
X90709838Y-112671047D01*
X90671742Y-112823428D01*
X90633647Y-112899619D01*
X90557457Y-112975809D01*
X90443171Y-113013904D01*
X90252695Y-113013904D01*
X90976504Y-112213904D02*
X91471742Y-112213904D01*
X91205076Y-112518666D01*
X91319361Y-112518666D01*
X91395552Y-112556761D01*
X91433647Y-112594857D01*
X91471742Y-112671047D01*
X91471742Y-112861523D01*
X91433647Y-112937714D01*
X91395552Y-112975809D01*
X91319361Y-113013904D01*
X91090790Y-113013904D01*
X91014600Y-112975809D01*
X90976504Y-112937714D01*
X91814600Y-112937714D02*
X91852695Y-112975809D01*
X91814600Y-113013904D01*
X91776504Y-112975809D01*
X91814600Y-112937714D01*
X91814600Y-113013904D01*
X91814600Y-112518666D02*
X91852695Y-112556761D01*
X91814600Y-112594857D01*
X91776504Y-112556761D01*
X91814600Y-112518666D01*
X91814600Y-112594857D01*
X92576504Y-112213904D02*
X92195552Y-112213904D01*
X92157457Y-112594857D01*
X92195552Y-112556761D01*
X92271742Y-112518666D01*
X92462219Y-112518666D01*
X92538409Y-112556761D01*
X92576504Y-112594857D01*
X92614600Y-112671047D01*
X92614600Y-112861523D01*
X92576504Y-112937714D01*
X92538409Y-112975809D01*
X92462219Y-113013904D01*
X92271742Y-113013904D01*
X92195552Y-112975809D01*
X92157457Y-112937714D01*
G04 #@! TO.C,D4:0*
X190176295Y-95360904D02*
X190176295Y-94560904D01*
X190366771Y-94560904D01*
X190481057Y-94599000D01*
X190557247Y-94675190D01*
X190595342Y-94751380D01*
X190633438Y-94903761D01*
X190633438Y-95018047D01*
X190595342Y-95170428D01*
X190557247Y-95246619D01*
X190481057Y-95322809D01*
X190366771Y-95360904D01*
X190176295Y-95360904D01*
X191319152Y-94827571D02*
X191319152Y-95360904D01*
X191128676Y-94522809D02*
X190938200Y-95094238D01*
X191433438Y-95094238D01*
X191738200Y-95284714D02*
X191776295Y-95322809D01*
X191738200Y-95360904D01*
X191700104Y-95322809D01*
X191738200Y-95284714D01*
X191738200Y-95360904D01*
X191738200Y-94865666D02*
X191776295Y-94903761D01*
X191738200Y-94941857D01*
X191700104Y-94903761D01*
X191738200Y-94865666D01*
X191738200Y-94941857D01*
X192271533Y-94560904D02*
X192347723Y-94560904D01*
X192423914Y-94599000D01*
X192462009Y-94637095D01*
X192500104Y-94713285D01*
X192538200Y-94865666D01*
X192538200Y-95056142D01*
X192500104Y-95208523D01*
X192462009Y-95284714D01*
X192423914Y-95322809D01*
X192347723Y-95360904D01*
X192271533Y-95360904D01*
X192195342Y-95322809D01*
X192157247Y-95284714D01*
X192119152Y-95208523D01*
X192081057Y-95056142D01*
X192081057Y-94865666D01*
X192119152Y-94713285D01*
X192157247Y-94637095D01*
X192195342Y-94599000D01*
X192271533Y-94560904D01*
G04 #@! TO.C,D4:1*
X166452695Y-95868904D02*
X166452695Y-95068904D01*
X166643171Y-95068904D01*
X166757457Y-95107000D01*
X166833647Y-95183190D01*
X166871742Y-95259380D01*
X166909838Y-95411761D01*
X166909838Y-95526047D01*
X166871742Y-95678428D01*
X166833647Y-95754619D01*
X166757457Y-95830809D01*
X166643171Y-95868904D01*
X166452695Y-95868904D01*
X167595552Y-95335571D02*
X167595552Y-95868904D01*
X167405076Y-95030809D02*
X167214600Y-95602238D01*
X167709838Y-95602238D01*
X168014600Y-95792714D02*
X168052695Y-95830809D01*
X168014600Y-95868904D01*
X167976504Y-95830809D01*
X168014600Y-95792714D01*
X168014600Y-95868904D01*
X168014600Y-95373666D02*
X168052695Y-95411761D01*
X168014600Y-95449857D01*
X167976504Y-95411761D01*
X168014600Y-95373666D01*
X168014600Y-95449857D01*
X168814600Y-95868904D02*
X168357457Y-95868904D01*
X168586028Y-95868904D02*
X168586028Y-95068904D01*
X168509838Y-95183190D01*
X168433647Y-95259380D01*
X168357457Y-95297476D01*
G04 #@! TO.C,D4:2*
X147529695Y-92820904D02*
X147529695Y-92020904D01*
X147720171Y-92020904D01*
X147834457Y-92059000D01*
X147910647Y-92135190D01*
X147948742Y-92211380D01*
X147986838Y-92363761D01*
X147986838Y-92478047D01*
X147948742Y-92630428D01*
X147910647Y-92706619D01*
X147834457Y-92782809D01*
X147720171Y-92820904D01*
X147529695Y-92820904D01*
X148672552Y-92287571D02*
X148672552Y-92820904D01*
X148482076Y-91982809D02*
X148291600Y-92554238D01*
X148786838Y-92554238D01*
X149091600Y-92744714D02*
X149129695Y-92782809D01*
X149091600Y-92820904D01*
X149053504Y-92782809D01*
X149091600Y-92744714D01*
X149091600Y-92820904D01*
X149091600Y-92325666D02*
X149129695Y-92363761D01*
X149091600Y-92401857D01*
X149053504Y-92363761D01*
X149091600Y-92325666D01*
X149091600Y-92401857D01*
X149434457Y-92097095D02*
X149472552Y-92059000D01*
X149548742Y-92020904D01*
X149739219Y-92020904D01*
X149815409Y-92059000D01*
X149853504Y-92097095D01*
X149891600Y-92173285D01*
X149891600Y-92249476D01*
X149853504Y-92363761D01*
X149396361Y-92820904D01*
X149891600Y-92820904D01*
G04 #@! TO.C,D4:3*
X128225695Y-91169904D02*
X128225695Y-90369904D01*
X128416171Y-90369904D01*
X128530457Y-90408000D01*
X128606647Y-90484190D01*
X128644742Y-90560380D01*
X128682838Y-90712761D01*
X128682838Y-90827047D01*
X128644742Y-90979428D01*
X128606647Y-91055619D01*
X128530457Y-91131809D01*
X128416171Y-91169904D01*
X128225695Y-91169904D01*
X129368552Y-90636571D02*
X129368552Y-91169904D01*
X129178076Y-90331809D02*
X128987600Y-90903238D01*
X129482838Y-90903238D01*
X129787600Y-91093714D02*
X129825695Y-91131809D01*
X129787600Y-91169904D01*
X129749504Y-91131809D01*
X129787600Y-91093714D01*
X129787600Y-91169904D01*
X129787600Y-90674666D02*
X129825695Y-90712761D01*
X129787600Y-90750857D01*
X129749504Y-90712761D01*
X129787600Y-90674666D01*
X129787600Y-90750857D01*
X130092361Y-90369904D02*
X130587600Y-90369904D01*
X130320933Y-90674666D01*
X130435219Y-90674666D01*
X130511409Y-90712761D01*
X130549504Y-90750857D01*
X130587600Y-90827047D01*
X130587600Y-91017523D01*
X130549504Y-91093714D01*
X130511409Y-91131809D01*
X130435219Y-91169904D01*
X130206647Y-91169904D01*
X130130457Y-91131809D01*
X130092361Y-91093714D01*
G04 #@! TO.C,D4:4*
X109302695Y-92693904D02*
X109302695Y-91893904D01*
X109493171Y-91893904D01*
X109607457Y-91932000D01*
X109683647Y-92008190D01*
X109721742Y-92084380D01*
X109759838Y-92236761D01*
X109759838Y-92351047D01*
X109721742Y-92503428D01*
X109683647Y-92579619D01*
X109607457Y-92655809D01*
X109493171Y-92693904D01*
X109302695Y-92693904D01*
X110445552Y-92160571D02*
X110445552Y-92693904D01*
X110255076Y-91855809D02*
X110064600Y-92427238D01*
X110559838Y-92427238D01*
X110864600Y-92617714D02*
X110902695Y-92655809D01*
X110864600Y-92693904D01*
X110826504Y-92655809D01*
X110864600Y-92617714D01*
X110864600Y-92693904D01*
X110864600Y-92198666D02*
X110902695Y-92236761D01*
X110864600Y-92274857D01*
X110826504Y-92236761D01*
X110864600Y-92198666D01*
X110864600Y-92274857D01*
X111588409Y-92160571D02*
X111588409Y-92693904D01*
X111397933Y-91855809D02*
X111207457Y-92427238D01*
X111702695Y-92427238D01*
G04 #@! TO.C,D4:5*
X90252695Y-94090904D02*
X90252695Y-93290904D01*
X90443171Y-93290904D01*
X90557457Y-93329000D01*
X90633647Y-93405190D01*
X90671742Y-93481380D01*
X90709838Y-93633761D01*
X90709838Y-93748047D01*
X90671742Y-93900428D01*
X90633647Y-93976619D01*
X90557457Y-94052809D01*
X90443171Y-94090904D01*
X90252695Y-94090904D01*
X91395552Y-93557571D02*
X91395552Y-94090904D01*
X91205076Y-93252809D02*
X91014600Y-93824238D01*
X91509838Y-93824238D01*
X91814600Y-94014714D02*
X91852695Y-94052809D01*
X91814600Y-94090904D01*
X91776504Y-94052809D01*
X91814600Y-94014714D01*
X91814600Y-94090904D01*
X91814600Y-93595666D02*
X91852695Y-93633761D01*
X91814600Y-93671857D01*
X91776504Y-93633761D01*
X91814600Y-93595666D01*
X91814600Y-93671857D01*
X92576504Y-93290904D02*
X92195552Y-93290904D01*
X92157457Y-93671857D01*
X92195552Y-93633761D01*
X92271742Y-93595666D01*
X92462219Y-93595666D01*
X92538409Y-93633761D01*
X92576504Y-93671857D01*
X92614600Y-93748047D01*
X92614600Y-93938523D01*
X92576504Y-94014714D01*
X92538409Y-94052809D01*
X92462219Y-94090904D01*
X92271742Y-94090904D01*
X92195552Y-94052809D01*
X92157457Y-94014714D01*
G04 #@! TO.C,D4:6*
X81771904Y-89985704D02*
X80971904Y-89985704D01*
X80971904Y-89795228D01*
X81010000Y-89680942D01*
X81086190Y-89604752D01*
X81162380Y-89566657D01*
X81314761Y-89528561D01*
X81429047Y-89528561D01*
X81581428Y-89566657D01*
X81657619Y-89604752D01*
X81733809Y-89680942D01*
X81771904Y-89795228D01*
X81771904Y-89985704D01*
X81238571Y-88842847D02*
X81771904Y-88842847D01*
X80933809Y-89033323D02*
X81505238Y-89223800D01*
X81505238Y-88728561D01*
X81695714Y-88423800D02*
X81733809Y-88385704D01*
X81771904Y-88423800D01*
X81733809Y-88461895D01*
X81695714Y-88423800D01*
X81771904Y-88423800D01*
X81276666Y-88423800D02*
X81314761Y-88385704D01*
X81352857Y-88423800D01*
X81314761Y-88461895D01*
X81276666Y-88423800D01*
X81352857Y-88423800D01*
X80971904Y-87699990D02*
X80971904Y-87852371D01*
X81010000Y-87928561D01*
X81048095Y-87966657D01*
X81162380Y-88042847D01*
X81314761Y-88080942D01*
X81619523Y-88080942D01*
X81695714Y-88042847D01*
X81733809Y-88004752D01*
X81771904Y-87928561D01*
X81771904Y-87776180D01*
X81733809Y-87699990D01*
X81695714Y-87661895D01*
X81619523Y-87623800D01*
X81429047Y-87623800D01*
X81352857Y-87661895D01*
X81314761Y-87699990D01*
X81276666Y-87776180D01*
X81276666Y-87928561D01*
X81314761Y-88004752D01*
X81352857Y-88042847D01*
X81429047Y-88080942D01*
G04 #@! TO.C,D5:0*
X190201695Y-76945904D02*
X190201695Y-76145904D01*
X190392171Y-76145904D01*
X190506457Y-76184000D01*
X190582647Y-76260190D01*
X190620742Y-76336380D01*
X190658838Y-76488761D01*
X190658838Y-76603047D01*
X190620742Y-76755428D01*
X190582647Y-76831619D01*
X190506457Y-76907809D01*
X190392171Y-76945904D01*
X190201695Y-76945904D01*
X191382647Y-76145904D02*
X191001695Y-76145904D01*
X190963600Y-76526857D01*
X191001695Y-76488761D01*
X191077885Y-76450666D01*
X191268361Y-76450666D01*
X191344552Y-76488761D01*
X191382647Y-76526857D01*
X191420742Y-76603047D01*
X191420742Y-76793523D01*
X191382647Y-76869714D01*
X191344552Y-76907809D01*
X191268361Y-76945904D01*
X191077885Y-76945904D01*
X191001695Y-76907809D01*
X190963600Y-76869714D01*
X191763600Y-76869714D02*
X191801695Y-76907809D01*
X191763600Y-76945904D01*
X191725504Y-76907809D01*
X191763600Y-76869714D01*
X191763600Y-76945904D01*
X191763600Y-76450666D02*
X191801695Y-76488761D01*
X191763600Y-76526857D01*
X191725504Y-76488761D01*
X191763600Y-76450666D01*
X191763600Y-76526857D01*
X192296933Y-76145904D02*
X192373123Y-76145904D01*
X192449314Y-76184000D01*
X192487409Y-76222095D01*
X192525504Y-76298285D01*
X192563600Y-76450666D01*
X192563600Y-76641142D01*
X192525504Y-76793523D01*
X192487409Y-76869714D01*
X192449314Y-76907809D01*
X192373123Y-76945904D01*
X192296933Y-76945904D01*
X192220742Y-76907809D01*
X192182647Y-76869714D01*
X192144552Y-76793523D01*
X192106457Y-76641142D01*
X192106457Y-76450666D01*
X192144552Y-76298285D01*
X192182647Y-76222095D01*
X192220742Y-76184000D01*
X192296933Y-76145904D01*
G04 #@! TO.C,D5:1*
X166325695Y-76691904D02*
X166325695Y-75891904D01*
X166516171Y-75891904D01*
X166630457Y-75930000D01*
X166706647Y-76006190D01*
X166744742Y-76082380D01*
X166782838Y-76234761D01*
X166782838Y-76349047D01*
X166744742Y-76501428D01*
X166706647Y-76577619D01*
X166630457Y-76653809D01*
X166516171Y-76691904D01*
X166325695Y-76691904D01*
X167506647Y-75891904D02*
X167125695Y-75891904D01*
X167087600Y-76272857D01*
X167125695Y-76234761D01*
X167201885Y-76196666D01*
X167392361Y-76196666D01*
X167468552Y-76234761D01*
X167506647Y-76272857D01*
X167544742Y-76349047D01*
X167544742Y-76539523D01*
X167506647Y-76615714D01*
X167468552Y-76653809D01*
X167392361Y-76691904D01*
X167201885Y-76691904D01*
X167125695Y-76653809D01*
X167087600Y-76615714D01*
X167887600Y-76615714D02*
X167925695Y-76653809D01*
X167887600Y-76691904D01*
X167849504Y-76653809D01*
X167887600Y-76615714D01*
X167887600Y-76691904D01*
X167887600Y-76196666D02*
X167925695Y-76234761D01*
X167887600Y-76272857D01*
X167849504Y-76234761D01*
X167887600Y-76196666D01*
X167887600Y-76272857D01*
X168687600Y-76691904D02*
X168230457Y-76691904D01*
X168459028Y-76691904D02*
X168459028Y-75891904D01*
X168382838Y-76006190D01*
X168306647Y-76082380D01*
X168230457Y-76120476D01*
G04 #@! TO.C,D5:2*
X147402695Y-73643904D02*
X147402695Y-72843904D01*
X147593171Y-72843904D01*
X147707457Y-72882000D01*
X147783647Y-72958190D01*
X147821742Y-73034380D01*
X147859838Y-73186761D01*
X147859838Y-73301047D01*
X147821742Y-73453428D01*
X147783647Y-73529619D01*
X147707457Y-73605809D01*
X147593171Y-73643904D01*
X147402695Y-73643904D01*
X148583647Y-72843904D02*
X148202695Y-72843904D01*
X148164600Y-73224857D01*
X148202695Y-73186761D01*
X148278885Y-73148666D01*
X148469361Y-73148666D01*
X148545552Y-73186761D01*
X148583647Y-73224857D01*
X148621742Y-73301047D01*
X148621742Y-73491523D01*
X148583647Y-73567714D01*
X148545552Y-73605809D01*
X148469361Y-73643904D01*
X148278885Y-73643904D01*
X148202695Y-73605809D01*
X148164600Y-73567714D01*
X148964600Y-73567714D02*
X149002695Y-73605809D01*
X148964600Y-73643904D01*
X148926504Y-73605809D01*
X148964600Y-73567714D01*
X148964600Y-73643904D01*
X148964600Y-73148666D02*
X149002695Y-73186761D01*
X148964600Y-73224857D01*
X148926504Y-73186761D01*
X148964600Y-73148666D01*
X148964600Y-73224857D01*
X149307457Y-72920095D02*
X149345552Y-72882000D01*
X149421742Y-72843904D01*
X149612219Y-72843904D01*
X149688409Y-72882000D01*
X149726504Y-72920095D01*
X149764600Y-72996285D01*
X149764600Y-73072476D01*
X149726504Y-73186761D01*
X149269361Y-73643904D01*
X149764600Y-73643904D01*
G04 #@! TO.C,D5:3*
X128352695Y-72119904D02*
X128352695Y-71319904D01*
X128543171Y-71319904D01*
X128657457Y-71358000D01*
X128733647Y-71434190D01*
X128771742Y-71510380D01*
X128809838Y-71662761D01*
X128809838Y-71777047D01*
X128771742Y-71929428D01*
X128733647Y-72005619D01*
X128657457Y-72081809D01*
X128543171Y-72119904D01*
X128352695Y-72119904D01*
X129533647Y-71319904D02*
X129152695Y-71319904D01*
X129114600Y-71700857D01*
X129152695Y-71662761D01*
X129228885Y-71624666D01*
X129419361Y-71624666D01*
X129495552Y-71662761D01*
X129533647Y-71700857D01*
X129571742Y-71777047D01*
X129571742Y-71967523D01*
X129533647Y-72043714D01*
X129495552Y-72081809D01*
X129419361Y-72119904D01*
X129228885Y-72119904D01*
X129152695Y-72081809D01*
X129114600Y-72043714D01*
X129914600Y-72043714D02*
X129952695Y-72081809D01*
X129914600Y-72119904D01*
X129876504Y-72081809D01*
X129914600Y-72043714D01*
X129914600Y-72119904D01*
X129914600Y-71624666D02*
X129952695Y-71662761D01*
X129914600Y-71700857D01*
X129876504Y-71662761D01*
X129914600Y-71624666D01*
X129914600Y-71700857D01*
X130219361Y-71319904D02*
X130714600Y-71319904D01*
X130447933Y-71624666D01*
X130562219Y-71624666D01*
X130638409Y-71662761D01*
X130676504Y-71700857D01*
X130714600Y-71777047D01*
X130714600Y-71967523D01*
X130676504Y-72043714D01*
X130638409Y-72081809D01*
X130562219Y-72119904D01*
X130333647Y-72119904D01*
X130257457Y-72081809D01*
X130219361Y-72043714D01*
G04 #@! TO.C,D5:4*
X109175695Y-73643904D02*
X109175695Y-72843904D01*
X109366171Y-72843904D01*
X109480457Y-72882000D01*
X109556647Y-72958190D01*
X109594742Y-73034380D01*
X109632838Y-73186761D01*
X109632838Y-73301047D01*
X109594742Y-73453428D01*
X109556647Y-73529619D01*
X109480457Y-73605809D01*
X109366171Y-73643904D01*
X109175695Y-73643904D01*
X110356647Y-72843904D02*
X109975695Y-72843904D01*
X109937600Y-73224857D01*
X109975695Y-73186761D01*
X110051885Y-73148666D01*
X110242361Y-73148666D01*
X110318552Y-73186761D01*
X110356647Y-73224857D01*
X110394742Y-73301047D01*
X110394742Y-73491523D01*
X110356647Y-73567714D01*
X110318552Y-73605809D01*
X110242361Y-73643904D01*
X110051885Y-73643904D01*
X109975695Y-73605809D01*
X109937600Y-73567714D01*
X110737600Y-73567714D02*
X110775695Y-73605809D01*
X110737600Y-73643904D01*
X110699504Y-73605809D01*
X110737600Y-73567714D01*
X110737600Y-73643904D01*
X110737600Y-73148666D02*
X110775695Y-73186761D01*
X110737600Y-73224857D01*
X110699504Y-73186761D01*
X110737600Y-73148666D01*
X110737600Y-73224857D01*
X111461409Y-73110571D02*
X111461409Y-73643904D01*
X111270933Y-72805809D02*
X111080457Y-73377238D01*
X111575695Y-73377238D01*
G04 #@! TO.C,D5:5*
X90252695Y-75040904D02*
X90252695Y-74240904D01*
X90443171Y-74240904D01*
X90557457Y-74279000D01*
X90633647Y-74355190D01*
X90671742Y-74431380D01*
X90709838Y-74583761D01*
X90709838Y-74698047D01*
X90671742Y-74850428D01*
X90633647Y-74926619D01*
X90557457Y-75002809D01*
X90443171Y-75040904D01*
X90252695Y-75040904D01*
X91433647Y-74240904D02*
X91052695Y-74240904D01*
X91014600Y-74621857D01*
X91052695Y-74583761D01*
X91128885Y-74545666D01*
X91319361Y-74545666D01*
X91395552Y-74583761D01*
X91433647Y-74621857D01*
X91471742Y-74698047D01*
X91471742Y-74888523D01*
X91433647Y-74964714D01*
X91395552Y-75002809D01*
X91319361Y-75040904D01*
X91128885Y-75040904D01*
X91052695Y-75002809D01*
X91014600Y-74964714D01*
X91814600Y-74964714D02*
X91852695Y-75002809D01*
X91814600Y-75040904D01*
X91776504Y-75002809D01*
X91814600Y-74964714D01*
X91814600Y-75040904D01*
X91814600Y-74545666D02*
X91852695Y-74583761D01*
X91814600Y-74621857D01*
X91776504Y-74583761D01*
X91814600Y-74545666D01*
X91814600Y-74621857D01*
X92576504Y-74240904D02*
X92195552Y-74240904D01*
X92157457Y-74621857D01*
X92195552Y-74583761D01*
X92271742Y-74545666D01*
X92462219Y-74545666D01*
X92538409Y-74583761D01*
X92576504Y-74621857D01*
X92614600Y-74698047D01*
X92614600Y-74888523D01*
X92576504Y-74964714D01*
X92538409Y-75002809D01*
X92462219Y-75040904D01*
X92271742Y-75040904D01*
X92195552Y-75002809D01*
X92157457Y-74964714D01*
G04 #@! TO.C,D5:6*
X71202695Y-74278904D02*
X71202695Y-73478904D01*
X71393171Y-73478904D01*
X71507457Y-73517000D01*
X71583647Y-73593190D01*
X71621742Y-73669380D01*
X71659838Y-73821761D01*
X71659838Y-73936047D01*
X71621742Y-74088428D01*
X71583647Y-74164619D01*
X71507457Y-74240809D01*
X71393171Y-74278904D01*
X71202695Y-74278904D01*
X72383647Y-73478904D02*
X72002695Y-73478904D01*
X71964600Y-73859857D01*
X72002695Y-73821761D01*
X72078885Y-73783666D01*
X72269361Y-73783666D01*
X72345552Y-73821761D01*
X72383647Y-73859857D01*
X72421742Y-73936047D01*
X72421742Y-74126523D01*
X72383647Y-74202714D01*
X72345552Y-74240809D01*
X72269361Y-74278904D01*
X72078885Y-74278904D01*
X72002695Y-74240809D01*
X71964600Y-74202714D01*
X72764600Y-74202714D02*
X72802695Y-74240809D01*
X72764600Y-74278904D01*
X72726504Y-74240809D01*
X72764600Y-74202714D01*
X72764600Y-74278904D01*
X72764600Y-73783666D02*
X72802695Y-73821761D01*
X72764600Y-73859857D01*
X72726504Y-73821761D01*
X72764600Y-73783666D01*
X72764600Y-73859857D01*
X73488409Y-73478904D02*
X73336028Y-73478904D01*
X73259838Y-73517000D01*
X73221742Y-73555095D01*
X73145552Y-73669380D01*
X73107457Y-73821761D01*
X73107457Y-74126523D01*
X73145552Y-74202714D01*
X73183647Y-74240809D01*
X73259838Y-74278904D01*
X73412219Y-74278904D01*
X73488409Y-74240809D01*
X73526504Y-74202714D01*
X73564600Y-74126523D01*
X73564600Y-73936047D01*
X73526504Y-73859857D01*
X73488409Y-73821761D01*
X73412219Y-73783666D01*
X73259838Y-73783666D01*
X73183647Y-73821761D01*
X73145552Y-73859857D01*
X73107457Y-73936047D01*
G04 #@! TO.C,R_cc1*
X147550010Y-37010424D02*
X147283343Y-36629472D01*
X147092867Y-37010424D02*
X147092867Y-36210424D01*
X147397629Y-36210424D01*
X147473820Y-36248520D01*
X147511915Y-36286615D01*
X147550010Y-36362805D01*
X147550010Y-36477091D01*
X147511915Y-36553281D01*
X147473820Y-36591377D01*
X147397629Y-36629472D01*
X147092867Y-36629472D01*
X147702391Y-37086615D02*
X148311915Y-37086615D01*
X148845248Y-36972329D02*
X148769058Y-37010424D01*
X148616677Y-37010424D01*
X148540486Y-36972329D01*
X148502391Y-36934234D01*
X148464296Y-36858043D01*
X148464296Y-36629472D01*
X148502391Y-36553281D01*
X148540486Y-36515186D01*
X148616677Y-36477091D01*
X148769058Y-36477091D01*
X148845248Y-36515186D01*
X149530962Y-36972329D02*
X149454772Y-37010424D01*
X149302391Y-37010424D01*
X149226200Y-36972329D01*
X149188105Y-36934234D01*
X149150010Y-36858043D01*
X149150010Y-36629472D01*
X149188105Y-36553281D01*
X149226200Y-36515186D01*
X149302391Y-36477091D01*
X149454772Y-36477091D01*
X149530962Y-36515186D01*
X150292867Y-37010424D02*
X149835724Y-37010424D01*
X150064296Y-37010424D02*
X150064296Y-36210424D01*
X149988105Y-36324710D01*
X149911915Y-36400900D01*
X149835724Y-36438996D01*
G04 #@! TO.C,R_cc2*
X126333390Y-33609104D02*
X126066723Y-33228152D01*
X125876247Y-33609104D02*
X125876247Y-32809104D01*
X126181009Y-32809104D01*
X126257200Y-32847200D01*
X126295295Y-32885295D01*
X126333390Y-32961485D01*
X126333390Y-33075771D01*
X126295295Y-33151961D01*
X126257200Y-33190057D01*
X126181009Y-33228152D01*
X125876247Y-33228152D01*
X126485771Y-33685295D02*
X127095295Y-33685295D01*
X127628628Y-33571009D02*
X127552438Y-33609104D01*
X127400057Y-33609104D01*
X127323866Y-33571009D01*
X127285771Y-33532914D01*
X127247676Y-33456723D01*
X127247676Y-33228152D01*
X127285771Y-33151961D01*
X127323866Y-33113866D01*
X127400057Y-33075771D01*
X127552438Y-33075771D01*
X127628628Y-33113866D01*
X128314342Y-33571009D02*
X128238152Y-33609104D01*
X128085771Y-33609104D01*
X128009580Y-33571009D01*
X127971485Y-33532914D01*
X127933390Y-33456723D01*
X127933390Y-33228152D01*
X127971485Y-33151961D01*
X128009580Y-33113866D01*
X128085771Y-33075771D01*
X128238152Y-33075771D01*
X128314342Y-33113866D01*
X128619104Y-32885295D02*
X128657200Y-32847200D01*
X128733390Y-32809104D01*
X128923866Y-32809104D01*
X129000057Y-32847200D01*
X129038152Y-32885295D01*
X129076247Y-32961485D01*
X129076247Y-33037676D01*
X129038152Y-33151961D01*
X128581009Y-33609104D01*
X129076247Y-33609104D01*
G04 #@! TO.C,J_USB_PAD1*
X208045870Y-37687000D02*
X208045870Y-38401286D01*
X207998251Y-38544143D01*
X207903013Y-38639381D01*
X207760156Y-38687000D01*
X207664918Y-38687000D01*
X208283965Y-38782239D02*
X209045870Y-38782239D01*
X209283965Y-37687000D02*
X209283965Y-38496524D01*
X209331584Y-38591762D01*
X209379203Y-38639381D01*
X209474441Y-38687000D01*
X209664918Y-38687000D01*
X209760156Y-38639381D01*
X209807775Y-38591762D01*
X209855394Y-38496524D01*
X209855394Y-37687000D01*
X210283965Y-38639381D02*
X210426822Y-38687000D01*
X210664918Y-38687000D01*
X210760156Y-38639381D01*
X210807775Y-38591762D01*
X210855394Y-38496524D01*
X210855394Y-38401286D01*
X210807775Y-38306048D01*
X210760156Y-38258429D01*
X210664918Y-38210810D01*
X210474441Y-38163191D01*
X210379203Y-38115572D01*
X210331584Y-38067953D01*
X210283965Y-37972715D01*
X210283965Y-37877477D01*
X210331584Y-37782239D01*
X210379203Y-37734620D01*
X210474441Y-37687000D01*
X210712537Y-37687000D01*
X210855394Y-37734620D01*
X211617299Y-38163191D02*
X211760156Y-38210810D01*
X211807775Y-38258429D01*
X211855394Y-38353667D01*
X211855394Y-38496524D01*
X211807775Y-38591762D01*
X211760156Y-38639381D01*
X211664918Y-38687000D01*
X211283965Y-38687000D01*
X211283965Y-37687000D01*
X211617299Y-37687000D01*
X211712537Y-37734620D01*
X211760156Y-37782239D01*
X211807775Y-37877477D01*
X211807775Y-37972715D01*
X211760156Y-38067953D01*
X211712537Y-38115572D01*
X211617299Y-38163191D01*
X211283965Y-38163191D01*
X212045870Y-38782239D02*
X212807775Y-38782239D01*
X213045870Y-38687000D02*
X213045870Y-37687000D01*
X213426822Y-37687000D01*
X213522060Y-37734620D01*
X213569680Y-37782239D01*
X213617299Y-37877477D01*
X213617299Y-38020334D01*
X213569680Y-38115572D01*
X213522060Y-38163191D01*
X213426822Y-38210810D01*
X213045870Y-38210810D01*
X213998251Y-38401286D02*
X214474441Y-38401286D01*
X213903013Y-38687000D02*
X214236346Y-37687000D01*
X214569680Y-38687000D01*
X214903013Y-38687000D02*
X214903013Y-37687000D01*
X215141108Y-37687000D01*
X215283965Y-37734620D01*
X215379203Y-37829858D01*
X215426822Y-37925096D01*
X215474441Y-38115572D01*
X215474441Y-38258429D01*
X215426822Y-38448905D01*
X215379203Y-38544143D01*
X215283965Y-38639381D01*
X215141108Y-38687000D01*
X214903013Y-38687000D01*
X216426822Y-38687000D02*
X215855394Y-38687000D01*
X216141108Y-38687000D02*
X216141108Y-37687000D01*
X216045870Y-37829858D01*
X215950632Y-37925096D01*
X215855394Y-37972715D01*
G04 #@! TO.C,J_Audio_B1*
X91017600Y-40808927D02*
X91731886Y-40808927D01*
X91874743Y-40856546D01*
X91969981Y-40951784D01*
X92017600Y-41094641D01*
X92017600Y-41189879D01*
X92112839Y-40570832D02*
X92112839Y-39808927D01*
X91731886Y-39618451D02*
X91731886Y-39142260D01*
X92017600Y-39713689D02*
X91017600Y-39380356D01*
X92017600Y-39047022D01*
X91350934Y-38285118D02*
X92017600Y-38285118D01*
X91350934Y-38713689D02*
X91874743Y-38713689D01*
X91969981Y-38666070D01*
X92017600Y-38570832D01*
X92017600Y-38427975D01*
X91969981Y-38332737D01*
X91922362Y-38285118D01*
X92017600Y-37380356D02*
X91017600Y-37380356D01*
X91969981Y-37380356D02*
X92017600Y-37475594D01*
X92017600Y-37666070D01*
X91969981Y-37761308D01*
X91922362Y-37808927D01*
X91827124Y-37856546D01*
X91541410Y-37856546D01*
X91446172Y-37808927D01*
X91398553Y-37761308D01*
X91350934Y-37666070D01*
X91350934Y-37475594D01*
X91398553Y-37380356D01*
X92017600Y-36904165D02*
X91350934Y-36904165D01*
X91017600Y-36904165D02*
X91065220Y-36951784D01*
X91112839Y-36904165D01*
X91065220Y-36856546D01*
X91017600Y-36904165D01*
X91112839Y-36904165D01*
X92017600Y-36285118D02*
X91969981Y-36380356D01*
X91922362Y-36427975D01*
X91827124Y-36475594D01*
X91541410Y-36475594D01*
X91446172Y-36427975D01*
X91398553Y-36380356D01*
X91350934Y-36285118D01*
X91350934Y-36142260D01*
X91398553Y-36047022D01*
X91446172Y-35999403D01*
X91541410Y-35951784D01*
X91827124Y-35951784D01*
X91922362Y-35999403D01*
X91969981Y-36047022D01*
X92017600Y-36142260D01*
X92017600Y-36285118D01*
X92112839Y-35761308D02*
X92112839Y-34999403D01*
X91493791Y-34427975D02*
X91541410Y-34285118D01*
X91589029Y-34237499D01*
X91684267Y-34189879D01*
X91827124Y-34189879D01*
X91922362Y-34237499D01*
X91969981Y-34285118D01*
X92017600Y-34380356D01*
X92017600Y-34761308D01*
X91017600Y-34761308D01*
X91017600Y-34427975D01*
X91065220Y-34332737D01*
X91112839Y-34285118D01*
X91208077Y-34237499D01*
X91303315Y-34237499D01*
X91398553Y-34285118D01*
X91446172Y-34332737D01*
X91493791Y-34427975D01*
X91493791Y-34761308D01*
X92017600Y-33237499D02*
X92017600Y-33808927D01*
X92017600Y-33523213D02*
X91017600Y-33523213D01*
X91160458Y-33618451D01*
X91255696Y-33713689D01*
X91303315Y-33808927D01*
G04 #@! TO.C,J_CR2032*
X181540540Y-71468857D02*
X182254826Y-71468857D01*
X182397683Y-71516476D01*
X182492921Y-71611714D01*
X182540540Y-71754571D01*
X182540540Y-71849809D01*
X182635779Y-71230761D02*
X182635779Y-70468857D01*
X182445302Y-69659333D02*
X182492921Y-69706952D01*
X182540540Y-69849809D01*
X182540540Y-69945047D01*
X182492921Y-70087904D01*
X182397683Y-70183142D01*
X182302445Y-70230761D01*
X182111969Y-70278380D01*
X181969112Y-70278380D01*
X181778636Y-70230761D01*
X181683398Y-70183142D01*
X181588160Y-70087904D01*
X181540540Y-69945047D01*
X181540540Y-69849809D01*
X181588160Y-69706952D01*
X181635779Y-69659333D01*
X182540540Y-68659333D02*
X182064350Y-68992666D01*
X182540540Y-69230761D02*
X181540540Y-69230761D01*
X181540540Y-68849809D01*
X181588160Y-68754571D01*
X181635779Y-68706952D01*
X181731017Y-68659333D01*
X181873874Y-68659333D01*
X181969112Y-68706952D01*
X182016731Y-68754571D01*
X182064350Y-68849809D01*
X182064350Y-69230761D01*
X181635779Y-68278380D02*
X181588160Y-68230761D01*
X181540540Y-68135523D01*
X181540540Y-67897428D01*
X181588160Y-67802190D01*
X181635779Y-67754571D01*
X181731017Y-67706952D01*
X181826255Y-67706952D01*
X181969112Y-67754571D01*
X182540540Y-68326000D01*
X182540540Y-67706952D01*
X181540540Y-67087904D02*
X181540540Y-66992666D01*
X181588160Y-66897428D01*
X181635779Y-66849809D01*
X181731017Y-66802190D01*
X181921493Y-66754571D01*
X182159588Y-66754571D01*
X182350064Y-66802190D01*
X182445302Y-66849809D01*
X182492921Y-66897428D01*
X182540540Y-66992666D01*
X182540540Y-67087904D01*
X182492921Y-67183142D01*
X182445302Y-67230761D01*
X182350064Y-67278380D01*
X182159588Y-67326000D01*
X181921493Y-67326000D01*
X181731017Y-67278380D01*
X181635779Y-67230761D01*
X181588160Y-67183142D01*
X181540540Y-67087904D01*
X181540540Y-66421238D02*
X181540540Y-65802190D01*
X181921493Y-66135523D01*
X181921493Y-65992666D01*
X181969112Y-65897428D01*
X182016731Y-65849809D01*
X182111969Y-65802190D01*
X182350064Y-65802190D01*
X182445302Y-65849809D01*
X182492921Y-65897428D01*
X182540540Y-65992666D01*
X182540540Y-66278380D01*
X182492921Y-66373619D01*
X182445302Y-66421238D01*
X181635779Y-65421238D02*
X181588160Y-65373619D01*
X181540540Y-65278380D01*
X181540540Y-65040285D01*
X181588160Y-64945047D01*
X181635779Y-64897428D01*
X181731017Y-64849809D01*
X181826255Y-64849809D01*
X181969112Y-64897428D01*
X182540540Y-65468857D01*
X182540540Y-64849809D01*
G04 #@! TO.C,D_RAW1*
X121576244Y-44297338D02*
X120776244Y-44297338D01*
X120776244Y-44106861D01*
X120814340Y-43992576D01*
X120890530Y-43916385D01*
X120966720Y-43878290D01*
X121119101Y-43840195D01*
X121233387Y-43840195D01*
X121385768Y-43878290D01*
X121461959Y-43916385D01*
X121538149Y-43992576D01*
X121576244Y-44106861D01*
X121576244Y-44297338D01*
X121652435Y-43687814D02*
X121652435Y-43078290D01*
X121576244Y-42430671D02*
X121195292Y-42697338D01*
X121576244Y-42887814D02*
X120776244Y-42887814D01*
X120776244Y-42583052D01*
X120814340Y-42506861D01*
X120852435Y-42468766D01*
X120928625Y-42430671D01*
X121042911Y-42430671D01*
X121119101Y-42468766D01*
X121157197Y-42506861D01*
X121195292Y-42583052D01*
X121195292Y-42887814D01*
X121347673Y-42125909D02*
X121347673Y-41744957D01*
X121576244Y-42202100D02*
X120776244Y-41935433D01*
X121576244Y-41668766D01*
X120776244Y-41478290D02*
X121576244Y-41287814D01*
X121004816Y-41135433D01*
X121576244Y-40983052D01*
X120776244Y-40792576D01*
X121576244Y-40068766D02*
X121576244Y-40525909D01*
X121576244Y-40297338D02*
X120776244Y-40297338D01*
X120890530Y-40373528D01*
X120966720Y-40449719D01*
X121004816Y-40525909D01*
G04 #@! TO.C,D_USB_HEADER1*
X114438844Y-45346034D02*
X113638844Y-45346034D01*
X113638844Y-45155558D01*
X113676940Y-45041272D01*
X113753130Y-44965081D01*
X113829320Y-44926986D01*
X113981701Y-44888891D01*
X114095987Y-44888891D01*
X114248368Y-44926986D01*
X114324559Y-44965081D01*
X114400749Y-45041272D01*
X114438844Y-45155558D01*
X114438844Y-45346034D01*
X114515035Y-44736510D02*
X114515035Y-44126986D01*
X113638844Y-43936510D02*
X114286463Y-43936510D01*
X114362654Y-43898415D01*
X114400749Y-43860320D01*
X114438844Y-43784129D01*
X114438844Y-43631748D01*
X114400749Y-43555558D01*
X114362654Y-43517462D01*
X114286463Y-43479367D01*
X113638844Y-43479367D01*
X114400749Y-43136510D02*
X114438844Y-43022224D01*
X114438844Y-42831748D01*
X114400749Y-42755558D01*
X114362654Y-42717462D01*
X114286463Y-42679367D01*
X114210273Y-42679367D01*
X114134082Y-42717462D01*
X114095987Y-42755558D01*
X114057892Y-42831748D01*
X114019797Y-42984129D01*
X113981701Y-43060320D01*
X113943606Y-43098415D01*
X113867416Y-43136510D01*
X113791225Y-43136510D01*
X113715035Y-43098415D01*
X113676940Y-43060320D01*
X113638844Y-42984129D01*
X113638844Y-42793653D01*
X113676940Y-42679367D01*
X114019797Y-42069843D02*
X114057892Y-41955558D01*
X114095987Y-41917462D01*
X114172178Y-41879367D01*
X114286463Y-41879367D01*
X114362654Y-41917462D01*
X114400749Y-41955558D01*
X114438844Y-42031748D01*
X114438844Y-42336510D01*
X113638844Y-42336510D01*
X113638844Y-42069843D01*
X113676940Y-41993653D01*
X113715035Y-41955558D01*
X113791225Y-41917462D01*
X113867416Y-41917462D01*
X113943606Y-41955558D01*
X113981701Y-41993653D01*
X114019797Y-42069843D01*
X114019797Y-42336510D01*
X114515035Y-41726986D02*
X114515035Y-41117462D01*
X114438844Y-40926986D02*
X113638844Y-40926986D01*
X114019797Y-40926986D02*
X114019797Y-40469843D01*
X114438844Y-40469843D02*
X113638844Y-40469843D01*
X114019797Y-40088891D02*
X114019797Y-39822224D01*
X114438844Y-39707939D02*
X114438844Y-40088891D01*
X113638844Y-40088891D01*
X113638844Y-39707939D01*
X114210273Y-39403177D02*
X114210273Y-39022224D01*
X114438844Y-39479367D02*
X113638844Y-39212700D01*
X114438844Y-38946034D01*
X114438844Y-38679367D02*
X113638844Y-38679367D01*
X113638844Y-38488891D01*
X113676940Y-38374605D01*
X113753130Y-38298415D01*
X113829320Y-38260320D01*
X113981701Y-38222224D01*
X114095987Y-38222224D01*
X114248368Y-38260320D01*
X114324559Y-38298415D01*
X114400749Y-38374605D01*
X114438844Y-38488891D01*
X114438844Y-38679367D01*
X114019797Y-37879367D02*
X114019797Y-37612700D01*
X114438844Y-37498415D02*
X114438844Y-37879367D01*
X113638844Y-37879367D01*
X113638844Y-37498415D01*
X114438844Y-36698415D02*
X114057892Y-36965081D01*
X114438844Y-37155558D02*
X113638844Y-37155558D01*
X113638844Y-36850796D01*
X113676940Y-36774605D01*
X113715035Y-36736510D01*
X113791225Y-36698415D01*
X113905511Y-36698415D01*
X113981701Y-36736510D01*
X114019797Y-36774605D01*
X114057892Y-36850796D01*
X114057892Y-37155558D01*
X114438844Y-35936510D02*
X114438844Y-36393653D01*
X114438844Y-36165081D02*
X113638844Y-36165081D01*
X113753130Y-36241272D01*
X113829320Y-36317462D01*
X113867416Y-36393653D01*
G04 #@! TO.C,J__USB_VCC1*
X199210040Y-50670861D02*
X199924326Y-50670861D01*
X200067183Y-50718480D01*
X200162421Y-50813719D01*
X200210040Y-50956576D01*
X200210040Y-51051814D01*
X200305279Y-50432766D02*
X200305279Y-49670861D01*
X200305279Y-49670861D02*
X200305279Y-48908957D01*
X199210040Y-48670861D02*
X200019564Y-48670861D01*
X200114802Y-48623242D01*
X200162421Y-48575623D01*
X200210040Y-48480385D01*
X200210040Y-48289909D01*
X200162421Y-48194671D01*
X200114802Y-48147052D01*
X200019564Y-48099433D01*
X199210040Y-48099433D01*
X200162421Y-47670861D02*
X200210040Y-47528004D01*
X200210040Y-47289909D01*
X200162421Y-47194671D01*
X200114802Y-47147052D01*
X200019564Y-47099433D01*
X199924326Y-47099433D01*
X199829088Y-47147052D01*
X199781469Y-47194671D01*
X199733850Y-47289909D01*
X199686231Y-47480385D01*
X199638612Y-47575623D01*
X199590993Y-47623242D01*
X199495755Y-47670861D01*
X199400517Y-47670861D01*
X199305279Y-47623242D01*
X199257660Y-47575623D01*
X199210040Y-47480385D01*
X199210040Y-47242290D01*
X199257660Y-47099433D01*
X199686231Y-46337528D02*
X199733850Y-46194671D01*
X199781469Y-46147052D01*
X199876707Y-46099433D01*
X200019564Y-46099433D01*
X200114802Y-46147052D01*
X200162421Y-46194671D01*
X200210040Y-46289909D01*
X200210040Y-46670861D01*
X199210040Y-46670861D01*
X199210040Y-46337528D01*
X199257660Y-46242290D01*
X199305279Y-46194671D01*
X199400517Y-46147052D01*
X199495755Y-46147052D01*
X199590993Y-46194671D01*
X199638612Y-46242290D01*
X199686231Y-46337528D01*
X199686231Y-46670861D01*
X200305279Y-45908957D02*
X200305279Y-45147052D01*
X199210040Y-45051814D02*
X200210040Y-44718480D01*
X199210040Y-44385147D01*
X200114802Y-43480385D02*
X200162421Y-43528004D01*
X200210040Y-43670861D01*
X200210040Y-43766100D01*
X200162421Y-43908957D01*
X200067183Y-44004195D01*
X199971945Y-44051814D01*
X199781469Y-44099433D01*
X199638612Y-44099433D01*
X199448136Y-44051814D01*
X199352898Y-44004195D01*
X199257660Y-43908957D01*
X199210040Y-43766100D01*
X199210040Y-43670861D01*
X199257660Y-43528004D01*
X199305279Y-43480385D01*
X200114802Y-42480385D02*
X200162421Y-42528004D01*
X200210040Y-42670861D01*
X200210040Y-42766100D01*
X200162421Y-42908957D01*
X200067183Y-43004195D01*
X199971945Y-43051814D01*
X199781469Y-43099433D01*
X199638612Y-43099433D01*
X199448136Y-43051814D01*
X199352898Y-43004195D01*
X199257660Y-42908957D01*
X199210040Y-42766100D01*
X199210040Y-42670861D01*
X199257660Y-42528004D01*
X199305279Y-42480385D01*
X200210040Y-41528004D02*
X200210040Y-42099433D01*
X200210040Y-41813719D02*
X199210040Y-41813719D01*
X199352898Y-41908957D01*
X199448136Y-42004195D01*
X199495755Y-42099433D01*
G04 #@! TO.C,U_ESD1*
X144679991Y-41905260D02*
X144679991Y-42714784D01*
X144727610Y-42810022D01*
X144775229Y-42857641D01*
X144870467Y-42905260D01*
X145060943Y-42905260D01*
X145156181Y-42857641D01*
X145203800Y-42810022D01*
X145251420Y-42714784D01*
X145251420Y-41905260D01*
X145489515Y-43000499D02*
X146251420Y-43000499D01*
X146489515Y-42381451D02*
X146822848Y-42381451D01*
X146965705Y-42905260D02*
X146489515Y-42905260D01*
X146489515Y-41905260D01*
X146965705Y-41905260D01*
X147346658Y-42857641D02*
X147489515Y-42905260D01*
X147727610Y-42905260D01*
X147822848Y-42857641D01*
X147870467Y-42810022D01*
X147918086Y-42714784D01*
X147918086Y-42619546D01*
X147870467Y-42524308D01*
X147822848Y-42476689D01*
X147727610Y-42429070D01*
X147537134Y-42381451D01*
X147441896Y-42333832D01*
X147394277Y-42286213D01*
X147346658Y-42190975D01*
X147346658Y-42095737D01*
X147394277Y-42000499D01*
X147441896Y-41952880D01*
X147537134Y-41905260D01*
X147775229Y-41905260D01*
X147918086Y-41952880D01*
X148346658Y-42905260D02*
X148346658Y-41905260D01*
X148584753Y-41905260D01*
X148727610Y-41952880D01*
X148822848Y-42048118D01*
X148870467Y-42143356D01*
X148918086Y-42333832D01*
X148918086Y-42476689D01*
X148870467Y-42667165D01*
X148822848Y-42762403D01*
X148727610Y-42857641D01*
X148584753Y-42905260D01*
X148346658Y-42905260D01*
X149870467Y-42905260D02*
X149299039Y-42905260D01*
X149584753Y-42905260D02*
X149584753Y-41905260D01*
X149489515Y-42048118D01*
X149394277Y-42143356D01*
X149299039Y-42190975D01*
G04 #@! TD*
M02*
